<svg xmlns="http://www.w3.org/2000/svg" viewBox="0 0 32 32"><g stroke="#333" stroke-linecap="round" stroke-linejoin="round" stroke-miterlimit="10" fill="none"><ellipse cx="16" cy="20.292" rx="5" ry="7"/><circle cx="16" cy="10.292" r="2"/><path d="M12.5 14.5c-2.46-1.369-4.254-3.748-4.811-6.38-.557-2.632.133-5.473 1.848-7.62m2.963 14c-2.46-1.369-4.254-3.748-4.811-6.38-.557-2.632.133-5.473 1.848-7.62m9.963 14c2.46-1.369 4.254-3.748 4.811-6.38.557-2.632-.132-5.473-1.848-7.62m-2.963 14c2.46-1.369 4.254-3.748 4.811-6.38.557-2.632-.132-5.473-1.848-7.62M11.5 15.5c-3.891-.477-7.449-3.245-9-7m18 7c3.891-.477 7.449-3.245 9-7m-19 9.132c-3.194-.528-6.584.553-9 2.868m20-2.868c3.194-.528 6.584.553 9 2.868m-20 1c-.871.198-1.75.399-2.558.779-.808.379-1.552.957-1.969 1.747-.481.911-.481 1.99-.47 3.02l.048 4.455M21.5 21.5c.871.198 1.75.399 2.558.779.808.379 1.552.957 1.969 1.747.481.911.481 1.99.47 3.02l-.048 4.455M14.154 8.5a2.715 2.715 0 0 1-.512-.901c-.367-1.085-.002-2.406.856-3.099m3.348 4c.224-.259.399-.568.511-.901.367-1.085.003-2.406-.856-3.099"/></g></svg>