<svg xmlns="http://www.w3.org/2000/svg" viewBox="0 0 32 32"><path fill="#333" d="M14 14a1 1 0 1 0 0 2 1 1 0 0 0 0-2zm4 0a1 1 0 1 0 0 2 1 1 0 0 0 0-2z"/><path stroke="#333" stroke-width="2" stroke-linecap="round" stroke-linejoin="round" stroke-miterlimit="10" d="M17.85 9.004c1.24-.078 2.461.56 3.367 1.527.905.967 1.522 2.238 1.966 3.557.918 2.73 1.132 5.825.284 8.585-1.052 3.424-3.888 5.925-7.046 6.324h-.842c-3.157-.399-5.994-2.901-7.046-6.324-.848-2.76-.634-5.854.284-8.585.444-1.319 1.06-2.59 1.966-3.557.905-.967 2.127-1.606 3.367-1.527h3.7z" fill="none"/><path fill="#333" d="M16 6c.551 0 1 .449 1 1s-.449 1-1 1c-.551 0-1-.449-1-1s.449-1 1-1m0-1a2 2 0 1 0-.001 3.999A2 2 0 0 0 16 5zm-3 1c.551 0 1 .449 1 1s-.449 1-1 1c-.551 0-1-.449-1-1s.449-1 1-1m0-1a2 2 0 1 0-.001 3.999A2 2 0 0 0 13 5zm-3 2c.551 0 1 .449 1 1s-.449 1-1 1c-.551 0-1-.449-1-1s.449-1 1-1m0-1a2 2 0 1 0-.001 3.999A2 2 0 0 0 10 6zm9 0c.551 0 1 .449 1 1s-.449 1-1 1c-.551 0-1-.449-1-1s.449-1 1-1m0-1a2 2 0 1 0-.001 3.999A2 2 0 0 0 19 5zm3 2c.551 0 1 .449 1 1s-.449 1-1 1c-.551 0-1-.449-1-1s.449-1 1-1m0-1a2 2 0 1 0-.001 3.999A2 2 0 0 0 22 6z"/><path stroke="#333" stroke-linecap="round" stroke-linejoin="round" stroke-miterlimit="10" d="M10 10c-2.208.247-4.83 1.778-6.442 3.387S.854 17.175.5 19.485c1.222.023 2.454.046 3.657-.178 1.204-.224 2.393-.714 3.284-1.596M22 10c2.208.247 4.83 1.778 6.442 3.387s2.704 3.788 3.058 6.098c-1.222.023-2.454.046-3.658-.178-1.204-.224-2.393-.714-3.284-1.596M15 25.667c-.086-.612-.489-1.15-1-1.333m3 1.333c.086-.612.489-1.15 1-1.333" fill="none"/></svg>