<svg xmlns="http://www.w3.org/2000/svg" viewBox="0 0 32 32"><path fill="#333" d="M13 20a1 1 0 1 0 0 2 1 1 0 0 0 0-2zm6 0a1 1 0 1 0 0 2 1 1 0 0 0 0-2zm1-5a1 1 0 1 0 0 2 1 1 0 0 0 0-2zm-8 0a1 1 0 1 0 0 2 1 1 0 0 0 0-2zm4-2a1 1 0 1 0 0 2 1 1 0 0 0 0-2z"/><path stroke="#333" stroke-width="2" stroke-linecap="round" stroke-linejoin="round" stroke-miterlimit="10" d="M16.547 2.431l2.447 10.348c.064.27.317.453.595.429l10.8-.922c.596-.051.848.736.333 1.038l-9.271 5.443a.557.557 0 0 0-.23.703l4.233 9.744c.236.543-.427 1.031-.88.647l-8.209-6.969a.564.564 0 0 0-.729 0l-8.209 6.969c-.453.384-1.116-.104-.88-.647l4.233-9.744a.557.557 0 0 0-.23-.703l-9.271-5.443c-.515-.302-.262-1.089.333-1.038l10.8.922a.561.561 0 0 0 .595-.429l2.447-10.348c.135-.575.957-.575 1.093 0z" fill="none"/><circle stroke="#333" stroke-linecap="round" stroke-linejoin="round" stroke-miterlimit="10" cx="16" cy="18" r="1.5" fill="none"/></svg>