<svg xmlns="http://www.w3.org/2000/svg" viewBox="0 0 32 32"><path stroke="#333" stroke-width="2" stroke-linecap="round" stroke-linejoin="round" stroke-miterlimit="10" d="M16 10c1.05.956 2.717 1.504 4.119 1.512.796.005 1.669-.138 2.324.327.598.424.815 1.236.824 1.983.009.747-.144 1.493-.089 2.239.088 1.188.695 2.283.804 3.469.101 1.102-.24 2.209-.772 3.172-.531.963-1.246 1.803-1.955 2.635l-1.848 2.168c-.478.56-.96 1.125-1.539 1.573A5.194 5.194 0 0 1 16 30a5.208 5.208 0 0 1-1.868-.921c-.579-.448-1.061-1.013-1.539-1.573l-1.848-2.168c-.71-.833-1.424-1.672-1.956-2.635-.531-.963-.873-2.07-.772-3.172.109-1.186.716-2.281.804-3.469.055-.745-.098-1.491-.089-2.239.009-.748.226-1.559.824-1.983.655-.465 1.528-.322 2.324-.327 1.403-.009 3.07-.557 4.12-1.513zm-7.604 6.962c-1.252-.126-2.51-.282-3.694-.725-1.304-.488-2.531-1.369-3.185-2.661-.737-1.457-.645-3.284.01-4.783s1.82-2.698 3.123-3.605C5.955 4.28 7.403 3.637 8.842 3a23.799 23.799 0 0 0-2.915 3.387c-.542.764-1.064 1.64-1.011 2.594.063 1.126.941 2.052 1.934 2.46.773.318 1.608.384 2.443.392m14.251 5.135c1.272-.128 2.55-.281 3.753-.731 1.304-.488 2.531-1.369 3.185-2.661.737-1.457.645-3.284-.01-4.783s-1.82-2.698-3.123-3.605C26.045 4.28 24.597 3.637 23.158 3a23.863 23.863 0 0 1 2.915 3.387c.542.764 1.064 1.64 1.011 2.594-.063 1.126-.941 2.052-1.934 2.46-.657.27-1.359.359-2.067.384" fill="none"/><path stroke="#333" stroke-linecap="round" stroke-linejoin="round" stroke-miterlimit="10" d="M17.315 26.5c.156-.133.278-.321.285-.526.007-.206-.125-.421-.325-.465-.162-.035-.329.043-.457.148s-.657.862-.818.824c-.161.037-.69-.719-.818-.824-.128-.106-.295-.184-.457-.148-.2.044-.332.26-.325.465.007.206.129.393.285.526m-3.185-11l1.258.451c.217.078.439.158.616.31.32.275.43.724.534 1.14M20.5 15.5l-1.258.451c-.217.078-.439.158-.616.31-.32.275-.43.724-.534 1.14" fill="none"/><path fill="#333" d="M12 17a1 1 0 1 0 0 2 1 1 0 0 0 0-2zm8 0a1 1 0 1 0 0 2 1 1 0 0 0 0-2z"/></svg>