<svg xmlns="http://www.w3.org/2000/svg" viewBox="0 0 32 32"><path fill="#333" d="M20 16a1 1 0 1 0 0 2 1 1 0 0 0 0-2zm-8 0a1 1 0 1 0 0 2 1 1 0 0 0 0-2z"/><path d="M29 16c0 7.18-5.82 13-13 13S3 23.18 3 16 8.82 4 16 4s13 4.82 13 12zM3.485 12.322a5 5 0 1 1 6.657-7.124m11.828-.159a5 5 0 1 1 6.578 7.264m-6.367 2.611c-.674-1.544-2.197-2.309-3.402-1.709-1.205.6-1.635 2.338-.961 3.882s2.197 2.309 3.402 1.709c1.205-.6 1.635-2.338.961-3.882zm-12.362 0c.674-1.544 2.197-2.309 3.402-1.709 1.205.6 1.635 2.338.961 3.882s-2.197 2.309-3.402 1.709c-1.205-.6-1.635-2.338-.961-3.882zm9.679 6.52c.037.844-.471 1.661-1.309 1.909a1.961 1.961 0 0 1-1.897-.486c-.175-.179-.303-.357-.292-.357h-.001c.011 0-.115.178-.291.357-.473.481-1.243.698-1.897.505-.837-.248-1.346-1.074-1.309-1.919" stroke="#333" stroke-linecap="round" stroke-linejoin="round" stroke-miterlimit="10" fill="none"/></svg>