<svg xmlns="http://www.w3.org/2000/svg" viewBox="0 0 32 32"><path stroke="#333" stroke-width="2" stroke-linecap="round" stroke-linejoin="round" stroke-miterlimit="10" d="M16.456 30.994c2.778 0 6.774.265 8.304-2.745.507-.997.686-2.133.8-3.251.184-1.812.214-3.636.202-5.457-.006-.859-.083-1.729.055-2.576.146-.898.271-1.798.451-2.69.266-1.319.389-2.73-.104-4.011-.335-.869-.928-1.611-1.281-2.472-.331-.808-.448-1.713-.907-2.453-.932-1.503-2.532-1.334-4.034-1.333h-7.881c-1.502 0-3.102-.17-4.034 1.333-.461.74-.577 1.645-.909 2.453-.353.861-.946 1.604-1.281 2.472-.494 1.282-.37 2.692-.105 4.011.18.892.305 1.792.451 2.69.138.847.061 1.717.055 2.576-.013 1.82.017 3.644.202 5.457.114 1.118.293 2.253.8 3.251 1.53 3.01 5.525 2.745 8.304 2.745h.912zM5.875 9.91c-1.111.234-2.676.016-3.543-.724a3.87 3.87 0 0 1-1.329-3.04c.032-.854.346-1.669.656-2.464l.672-1.723c.167-.429.424-.928.88-.957.355-.023.648.261.891.523l3.605 3.891M26.125 9.91c1.111.234 2.676.016 3.543-.724a3.87 3.87 0 0 0 1.329-3.04c-.032-.854-.346-1.669-.656-2.464l-.672-1.723c-.167-.429-.424-.928-.88-.957-.355-.023-.648.261-.891.523l-3.526 3.806" fill="none"/><path stroke="#333" stroke-linecap="round" stroke-linejoin="round" stroke-miterlimit="10" d="M16 6.5c.534.361 1.032 1.34 1.166 1.904.134.564.124 1.143.158 1.717.09 1.527.493 3.042 1.186 4.457.352.719.782 1.423.937 2.19.155.766-.017 1.634-.708 2.153-.717.539-1.775.573-2.739.579-.964-.006-2.022-.04-2.739-.58-.691-.52-.864-1.387-.708-2.153.156-.766.585-1.47.937-2.19a11.703 11.703 0 0 0 1.185-4.457c.034-.574.024-1.153.158-1.717.135-.563.633-1.542 1.167-1.903zm9.403 19.069c-.039-1.133-.839-2.155-1.857-2.768-1.017-.613-2.229-.872-3.426-1.03a23.694 23.694 0 0 0-3.718-.194h-.805a23.694 23.694 0 0 0-3.718.194c-1.197.158-2.409.417-3.426 1.03-1.017.612-1.817 1.634-1.857 2.768M11.77 24.5c-.265.497-.342 1.169-.2 1.751.142.582.498 1.061.93 1.249m7.73-3c.265.497.342 1.169.2 1.751-.142.582-.498 1.061-.93 1.249" fill="none"/><path fill="#333" d="M9 17a1 1 0 1 0 0 2 1 1 0 0 0 0-2zm14 0a1 1 0 1 0 0 2 1 1 0 0 0 0-2z"/></svg>