<svg xmlns="http://www.w3.org/2000/svg" viewBox="0 0 32 32"><path fill="#333" d="M27 14a1 1 0 1 0 0 2 1 1 0 0 0 0-2z"/><path stroke="#333" stroke-width="2" stroke-linecap="round" stroke-linejoin="round" stroke-miterlimit="10" d="M29.635 19.009c.635-.581 1.207-1.286 1.337-2.113.157-1.004-.364-1.993-.992-2.814-1.631-2.132-4.124-3.655-6.845-4.185-.197-1.751-1.853-3.101-3.637-3.59-1.785-.489-3.688-.294-5.534-.095A9.242 9.242 0 0 1 15.93 10.1c-3.237.583-6.271 2.141-8.553 4.394-1.268-1.954-3.383-3.398-5.74-3.92 2.249 3.239 1.977 7.86-.637 10.843 2.807.298 5.696-1.56 6.442-4.142 2.688 2.416 6.124 4.075 9.767 4.713-.049 1.517-.85 2.998-2.123 3.92 1.938.345 4.041-.294 5.407-1.642.7-.691 1.226-1.559 2.069-2.087.837-.524 1.874-.643 2.842-.893a9.99 9.99 0 0 0 4.231-2.277z" fill="none"/><path stroke="#333" stroke-linecap="round" stroke-linejoin="round" stroke-miterlimit="10" d="M24.575 18c-.424-.165-.782-.638-.927-1.226-.144-.587-.071-1.273.189-1.774" fill="none"/></svg>