<svg xmlns="http://www.w3.org/2000/svg" viewBox="0 0 32 32"><path stroke="#333" stroke-width="2" stroke-linecap="round" stroke-linejoin="round" stroke-miterlimit="10" d="M26 22c0 5.523-4.477 9-10 9S6 27.523 6 22s4.477-8 10-8 10 2.477 10 8zM9.366 15.555A8.057 8.057 0 0 1 8 11.053C8 6.605 11.582 4 16 4s8 2.605 8 7.053a8.051 8.051 0 0 1-1.163 4.183" fill="none"/><path stroke="#333" stroke-linecap="round" stroke-linejoin="round" stroke-miterlimit="10" d="M7.048 18.5C5.022 18.054 3.5 16.125 3.5 13.809c0-2.382 1.789-4.309 4-4.309m17.452 9c2.026-.446 3.548-2.375 3.548-4.691 0-2.382-1.789-4.309-4-4.309m-14 15c3.04 4 7.96 4 11 0m-2.455-20c.155-1.256.946-2.263 1.848-2.801.901-.539 1.911-.687 2.9-.829-3.125-1.018-6.626.109-9 2.897m.228-.408c.208-.276.172-.679-.003-.976-.176-.298-.465-.509-.758-.692A7.91 7.91 0 0 0 10.164.5a4.974 4.974 0 0 1 2.13 3" fill="none"/><path fill="#333" d="M19 10a1 1 0 1 0 0 2 1 1 0 0 0 0-2zm-6 0a1 1 0 1 0 0 2 1 1 0 0 0 0-2z"/></svg>