<svg xmlns="http://www.w3.org/2000/svg" viewBox="0 0 32 32"><g stroke="#333" stroke-linecap="round" stroke-linejoin="round" stroke-miterlimit="10" fill="none"><path d="M29 31V13m0 3h-8V8l-.044-.432a3.95 3.95 0 0 0-.913-2.135A3.971 3.971 0 0 0 17 4h-4c-1.226 0-2.31.564-3.044 1.432a3.957 3.957 0 0 0-.913 2.135L9 8v16a4 4 0 0 0 4 4h16M9.956 5.432L10 5a4 4 0 1 0-4 4c1.226 0 2.31-.564 3.044-1.432m11.912 0A3.977 3.977 0 0 0 24 9a4 4 0 1 0-4-4l.044.432"/><circle cx="8" cy="28" r="2"/><path d="M21 11a4 4 0 0 1-4 4h-4a4 4 0 0 1-4-4"/><path d="M15 12.5a.501.501 0 0 1-.5-.5v-1c0-.275.225-.5.5-.5s.5.225.5.5v1c0 .275-.225.5-.5.5z"/><circle cx="17" cy="8" r=".5"/><circle cx="13" cy="8" r=".5"/><path d="M24.5 24.5h4.458m-4.458-5H29"/></g></svg>