<svg xmlns="http://www.w3.org/2000/svg" viewBox="0 0 32 32"><path stroke="#333" stroke-width="2" stroke-linecap="round" stroke-linejoin="round" stroke-miterlimit="10" d="M21.068 23c.289-.939.53-1.909.695-2.898s.252-1.995.235-3.005a12.919 12.919 0 0 0-.392-2.986c-.248-.959-.615-1.859-1.112-2.639s-1.131-1.428-1.835-1.863C17.954 9.174 17.179 9 16.4 9h-.8c-.779 0-1.554.174-2.258.609s-1.338 1.081-1.835 1.861c-.497.779-.865 1.681-1.113 2.64a12.872 12.872 0 0 0-.392 2.986 16.67 16.67 0 0 0 .235 3.006c.164.988.405 1.959.695 2.898" fill="none"/><ellipse stroke="#333" stroke-width="2" stroke-linecap="round" stroke-linejoin="round" stroke-miterlimit="10" cx="16" cy="26" rx="6" ry="5" fill="none"/><path stroke="#333" stroke-width="2" stroke-linecap="round" stroke-linejoin="round" stroke-miterlimit="10" d="M10 25a2 2 0 1 1 0-4m12 4a2 2 0 1 0 0-4m-11.345-8.006c-.646.051-1.27-.228-1.827-.555-1.725-1.013-3.124-2.559-3.952-4.365s-1.079-3.867-.711-5.816c.062-.329.147-.668.361-.927s.591-.416.901-.283c.291.124.436.454.475.764.04.311.002.629.059.937.157.849.961 1.399 1.635 1.948a10.073 10.073 0 0 1 2.929 3.92c.17.407.313.827.534 1.209.221.383.531.732.941.904m9.346 2.264c.645.051 1.27-.228 1.827-.555 1.725-1.013 3.124-2.558 3.951-4.365s1.079-3.866.711-5.816c-.062-.329-.147-.667-.361-.927-.214-.259-.591-.415-.901-.283-.291.124-.436.454-.475.764-.04.311-.002.629-.059.937-.157.849-.961 1.399-1.635 1.948a10.073 10.073 0 0 0-2.928 3.92c-.17.407-.313.827-.534 1.209-.222.383-.532.732-.942.904" fill="none"/><path stroke="#333" stroke-linecap="round" stroke-linejoin="round" stroke-miterlimit="10" d="M13.5 27.5c1.382 1.333 3.618 1.333 5 0" fill="none"/><path fill="#333" d="M13 14a1 1 0 1 0 0 2 1 1 0 0 0 0-2zm6 0a1 1 0 1 0 0 2 1 1 0 0 0 0-2zm-6 10.5a.5.5 0 1 0 0 1 .5.5 0 0 0 0-1zm6 0a.5.5 0 1 0 0 1 .5.5 0 0 0 0-1z"/></svg>