<svg xmlns="http://www.w3.org/2000/svg" viewBox="0 0 32 32"><path d="M10.596 31c-.843-1.274-.839-2.936-.406-4.392.433-1.456 1.247-2.771 1.963-4.117s1.352-2.786 1.378-4.302c.026-1.516-.683-3.128-2.072-3.812-.582 1.326-1.913 2.176-3.164 2.949-.759.469-1.565.894-2.309 1.378-1.068.696-1.548 1.984-3.112 1.637-1.438-.319-2.109-2.065-1.802-3.363.25-1.053 1.036-1.858 1.528-2.798.561-1.072.67-2.347 1.165-3.473a17.042 17.042 0 0 1 2.379-3.913c1.181-1.449-.132-3.431-.844-4.802.941-.239 2.231.439 2.533 1.388L7.077 1c1.522.522 3.816 1.534 3.945 3.346 4.892.22 9.662 1.881 12.896 5.61 3.162 3.635 4.129 9.154 1.777 13.332-1.205 2.14-3.152 3.81-5.29 5.084-2.837 1.692-6.499 2.304-9.809 2.628zm.029-28.562C12.778 1.049 16.613.215 19.14.642c-.794.124-1.123 1.226-.71 1.915.413.689 1.283.974 2.087.975.803.001 1.588-.224 2.387-.305a6.76 6.76 0 0 1 5.123 1.669c-.629-.023-1.28-.043-1.864.192-.584.235-1.086.796-1.044 1.424.038.567.5 1.025 1.009 1.277.509.252 1.079.352 1.613.547a4.829 4.829 0 0 1 2.906 3.051c-.437-.107-.883-.215-1.33-.175-.448.04-.905.254-1.12.649-.273.503-.077 1.148.28 1.595.357.447.851.76 1.279 1.14a5.263 5.263 0 0 1 1.744 3.79c-.952-.433-2.155-.242-2.926.465S27 21.438 26.437 22.438M6.981 9.912c.293.726-.098 1.593-.903 2m-1.39 7.123c-.514-1.073-1.701-1.864-3-2M12.65 6.797c1.08 1.72 1.124 4.038.109 5.797" stroke="#333" stroke-linejoin="round" stroke-miterlimit="10" fill="none"/></svg>