<svg xmlns="http://www.w3.org/2000/svg" viewBox="0 0 32 32"><g stroke="#333" stroke-linecap="round" stroke-linejoin="round" stroke-miterlimit="10" fill="none"><path d="M9.949 5.499C11.757 4.545 13.814 4 16 4s4.242.545 6.05 1.499a13.047 13.047 0 0 1 4.829 4.397A12.93 12.93 0 0 1 29 17c0 7.18-5.82 13-13 13S3 24.18 3 17c0-2.623.784-5.061 2.12-7.104a13.046 13.046 0 0 1 4.829-4.397zm0 0C9.7 3.529 8.037 2 6 2a3.997 3.997 0 1 0-.88 7.896m21.76 0A3.997 3.997 0 0 0 26 2c-2.037 0-3.7 1.529-3.95 3.499M17.5 20c0 .828-.672.5-1.5.5s-1.5.328-1.5-.5a1.5 1.5 0 0 1 3 0zm-4 2.5h5"/><circle cx="11" cy="15" r="1.5"/><circle cx="21" cy="15" r="1.5"/><path d="M20.564 18.5H21a3.5 3.5 0 1 0 0-7H11a3.5 3.5 0 1 0 0 7h.435"/><path d="M20.564 18.5c.588.715.936 1.573.936 2.5 0 2.485-2.463 4.5-5.5 4.5-3.038 0-5.5-2.015-5.5-4.5 0-.927.348-1.785.935-2.5a5.014 5.014 0 0 1 1.111-1c.944-.625 2.145-1 3.453-1 1.309 0 2.509.375 3.453 1 .431.284.803.624 1.112 1z"/></g></svg>