<svg xmlns="http://www.w3.org/2000/svg" viewBox="0 0 32 32"><path d="M5.457 7.503c.901 1.992 1.808 3.995 3.025 5.811 1.217 1.817 2.771 3.456 4.708 4.476m2.199 5.528a11.614 11.614 0 0 1-7.725 2.65m13.313-1.999c.402.317.532.862.604 1.368a12.082 12.082 0 0 1-.385 5.152m2.635-10.766c.86-.161 1.756.076 2.526.488.771.412 1.437.991 2.096 1.565m-6.901-5.722c.483-1.469 1.944-2.56 3.491-2.609m-4.055 5.121c.693 1.542-.921 3.033-2.424 2.698-1.921-.427-2.24-2.942-1.001-4.234.753-.785 1.94-1.087 3-.852 1.972.437 3.263 2.713 2.796 4.684-.466 1.971-2.471 3.395-4.49 3.37-2.019-.025-3.911-1.378-4.778-3.207-1.171-2.468-.463-5.642 1.525-7.511 1.988-1.869 5.065-2.397 7.629-1.473 2.564.924 4.559 3.191 5.344 5.809 1.06 3.533.026 7.434-2.544 10.061-4.807 4.916-12.786 3.42-17.584-.676-2.949-2.517-4.902-6.178-5.356-10.035a15.08 15.08 0 0 1 .282-5.187C4.714 6.349 10.25 1.762 16 1c1.194.453 1.848 1.681 2.4 2.911a16.965 16.965 0 0 1 1.467 7.071" stroke="#333" stroke-linecap="round" stroke-linejoin="round" stroke-miterlimit="10" fill="none"/></svg>