<svg xmlns="http://www.w3.org/2000/svg" viewBox="0 0 32 32"><path fill="#333" d="M13 18a1 1 0 1 0 0 2 1 1 0 0 0 0-2zm6 0a1 1 0 1 0 0 2 1 1 0 0 0 0-2z"/><path stroke="#333" stroke-width="2" stroke-linecap="round" stroke-linejoin="round" stroke-miterlimit="10" d="M13.943 11.222a9.636 9.636 0 0 1 4.113 0c1.944.425 3.861 1.231 4.851 2.796.669 1.057.968 2.282 1.052 3.501a18.598 18.598 0 0 1-.937 7.141c-.903 2.662-3.277 5.539-6.454 6.276a2.538 2.538 0 0 1-1.137 0c-3.177-.737-5.551-3.614-6.454-6.276a18.595 18.595 0 0 1-.937-7.141c.084-1.219.382-2.444 1.052-3.501.991-1.565 2.907-2.371 4.851-2.796zM7.454 16c-2.291-.078-4.519-1.263-5.867-3.12-.436-.601-.789-1.402-.455-2.065.188-.373.567-.623.969-.732.402-.11.828-.094 1.242-.046A8.315 8.315 0 0 1 9 13.313M24.546 16c2.291-.078 4.519-1.263 5.867-3.12.436-.601.789-1.402.455-2.065-.188-.373-.567-.623-.969-.732-.402-.11-.828-.094-1.242-.046A8.32 8.32 0 0 0 23 13.313M5 1c0 5.532 4.473 10.008 10 10.008M27 1c0 5.532-4.473 10.008-10 10.008M10 5c0 3.316 2.684 6 6 6m6-6c0 3.316-2.684 6-6 6" fill="none"/><path d="M15 26.5a1 1 0 0 0 1-1m1 1a1 1 0 0 1-1-1" stroke="#333" stroke-linecap="round" stroke-linejoin="round" stroke-miterlimit="10" fill="none"/></svg>