<svg xmlns="http://www.w3.org/2000/svg" viewBox="0 0 32 32"><path stroke="#333" stroke-width="2" stroke-linejoin="round" stroke-miterlimit="10" d="M17.185 7.098l.418-1L18.419 10s.928.074 2.324-.458c1.395-.533 1.813-2.11 1.813-2.71 0-1.265-1.883-2.331-1.883-2.331s5.092 1.265 7.813 4.795c2.72 3.53 2.511 7.86 2.511 7.86s-2.716-2.93-5.319-1.197c-2.301 1.531-2.005 5.526-2.005 5.526s-1.883-3.796-3.976-3.796C16.837 17.688 16 29.5 16 29.5c-.299-2.169-.537-11.812-3.696-11.812-2.093 0-3.976 3.796-3.976 3.796s.296-3.994-2.005-5.526c-2.603-1.733-5.319 1.197-5.319 1.197s-.209-4.33 2.511-7.86c2.72-3.53 7.812-4.795 7.812-4.795S9.444 5.566 9.444 6.831c0 .601.418 2.177 1.813 2.71 1.395.533 2.324.459 2.324.459l.816-3.901.418 1h2.37z" fill="none"/></svg>