<svg xmlns="http://www.w3.org/2000/svg" viewBox="0 0 32 32"><path d="M16 31l-2.747-3.367A9.998 9.998 0 0 1 11 21.311v-2.564c0-1.558.56-2.968 1.465-3.989S14.62 13.106 16 13.106c1.381 0 2.631.631 3.535 1.652.905 1.02 1.465 2.431 1.465 3.989v2.564a10 10 0 0 1-2.253 6.323L16 31zm15-19c0 1.969-2.297 4-5.136 4S21.228 13.782 19 12c2.228-1.782 4.025-4 6.864-4C28.703 8 31 10.031 31 12zM1 12c0 1.969 2.297 4 5.136 4s4.636-2.218 6.864-4c-2.228-1.782-4.025-4-6.864-4C3.297 8 1 10.031 1 12zm15.509.154H15.49a3.501 3.501 0 0 1-3.491-3.491V5.679A3.692 3.692 0 0 1 15.679 2h.641A3.69 3.69 0 0 1 20 5.679v2.984a3.501 3.501 0 0 1-3.491 3.491zM12.5 5.495A4.994 4.994 0 0 0 7.5.5m12 4.995A4.994 4.994 0 0 1 24.5.5M11.846 18.139a5.873 5.873 0 0 0 8.309 0m-8.309 3a5.873 5.873 0 0 0 8.309 0" stroke="#333" stroke-linejoin="round" stroke-miterlimit="10" fill="none"/></svg>