<svg xmlns="http://www.w3.org/2000/svg" viewBox="0 0 32 32"><path stroke="#333" stroke-linecap="round" stroke-linejoin="round" stroke-miterlimit="10" d="M20 24.129a2.816 2.816 0 0 1-2.281.228 5.44 5.44 0 0 1-.779-.36L16 23.5l-.941.497c-.253.133-.506.267-.779.36a2.807 2.807 0 0 1-2.28-.228" fill="none"/><path fill="#333" d="M11.031 12c.551 0 1 .449 1 1s-.449 1-1 1c-.551 0-1-.449-1-1s.449-1 1-1m0-1a2 2 0 1 0 0 4 2 2 0 0 0 0-4zm10 1c.551 0 1 .449 1 1s-.449 1-1 1c-.551 0-1-.449-1-1s.449-1 1-1m0-1a2 2 0 1 0 0 4 2 2 0 0 0 0-4z"/><path stroke="#333" stroke-width="2" stroke-linecap="round" stroke-linejoin="round" stroke-miterlimit="10" d="M15.977 6.263c1.689-.196 3.098-1.577 4.799-1.58.715-.001 1.412.249 2.033.597.736.412 1.385.963 1.954 1.578.885.956 1.465 1.921 1.638 3.199a11.082 11.082 0 0 1-.178 3.935c-.196.862-.508 1.675-.885 2.476-.37.785-.953 1.416-1.455 2.121l-2.28 3.207c-.631.887-1.782 1.777-1.754 2.94.012.498.205.991.124 1.483-.121.739-.847 1.268-1.597 1.416-.758.149-1.656-.093-2.442-.044h.129c-.786-.049-1.684.193-2.442.044-.75-.147-1.476-.677-1.597-1.416-.08-.491.112-.985.124-1.483.028-1.163-1.123-2.053-1.754-2.94l-2.28-3.207c-.502-.706-1.085-1.337-1.455-2.121-.377-.8-.689-1.613-.885-2.476a11.082 11.082 0 0 1-.178-3.935c.173-1.278.753-2.244 1.638-3.199.573-.615 1.222-1.166 1.958-1.578.621-.348 1.317-.598 2.033-.597 1.701.003 3.11 1.384 4.799 1.58h-.047zM10 4.742c-.649-.723-1.651-1.332-2.589-1.604-.878-.255-1.905-.177-2.6.409-.759.639-.96 1.757-.709 2.708C4.395 7.358 5.187 8.13 5.875 9M22 4.742c.649-.722 1.651-1.332 2.589-1.604.878-.255 1.905-.177 2.6.409.759.639.96 1.757.709 2.708C27.605 7.358 26.813 8.13 26.125 9" fill="none"/><path stroke="#333" stroke-linecap="round" stroke-linejoin="round" stroke-miterlimit="10" d="M18.379 17.957a2.985 2.985 0 0 1-.66 2.847c-.346.373-.78.649-1.231.896a1.019 1.019 0 0 1-.976 0c-.451-.247-.884-.523-1.231-.896a2.985 2.985 0 0 1-.66-2.847M2.482 13.5C1.728 15.123.965 16.773.645 18.565c-.32 1.792-.141 3.777.85 5.234.743 1.092 1.862 1.784 2.988 2.338s2.303 1.008 3.33 1.764c1.027.756 1.911 1.887 2.085 3.242 1.143-.599 2.571-.457 3.601.357m15.519-18c.754 1.623 1.517 3.273 1.837 5.065.32 1.792.142 3.777-.85 5.234-.743 1.092-1.862 1.784-2.988 2.338s-2.303 1.008-3.33 1.764c-1.026.756-1.911 1.887-2.085 3.242-1.144-.598-2.572-.457-3.602.357M2.522 9.5C1.462 8.056.354 6.457.516 4.719c.149-1.607 1.433-3.01 3.026-3.676C5.135.378 6.983.376 8.684.754c1.7.378 3.281 1.112 4.816 1.884M29.478 9.5c1.061-1.444 2.168-3.043 2.007-4.781-.149-1.607-1.433-3.01-3.026-3.676-1.593-.665-3.442-.667-5.142-.289-1.7.378-3.281 1.112-4.816 1.884" fill="none"/></svg>