<svg xmlns="http://www.w3.org/2000/svg" viewBox="0 0 32 32"><path stroke="#333" stroke-width="2" stroke-linecap="round" stroke-linejoin="round" stroke-miterlimit="10" d="M16.861 2.114c2.635.707 5.469 1.646 7.877 2.806.935.45 1.825 1.004 2.628 1.696.922.795 1.681 1.734 1.632 3.096-.034.922-.397 1.8-.891 2.546-.559.846-1.456 1.448-1.808 2.418-.436 1.203-.402 2.377-.4 3.652.006 2.876-.647 5.914-2.525 7.943-1.844 1.993-4.926 1.101-7.375.145-2.449.956-5.53 1.848-7.375-.145-1.878-2.029-2.531-5.067-2.525-7.943.003-1.275.036-2.449-.4-3.652-.351-.97-1.248-1.572-1.808-2.418-.491-.746-.855-1.624-.889-2.546-.05-1.363.709-2.301 1.632-3.096A11.9 11.9 0 0 1 7.262 4.92c2.408-1.159 5.242-2.099 7.877-2.806a3.308 3.308 0 0 1 1.722 0zM19 28.077C19 29.691 17.657 31 16 31s-3-1.309-3-2.923l.001-.077M2.609 9.344c-.807-.885-1.497-2.432-1.586-3.62-.088-1.188.088-2.378.264-3.556.04-.266.082-.539.218-.771.136-.232.39-.418.661-.395.339.03.562.35.75.631A10.629 10.629 0 0 0 6.775 5.1m22.616 4.244c.807-.885 1.497-2.432 1.586-3.62.088-1.188-.088-2.378-.264-3.556-.04-.266-.082-.539-.218-.771-.136-.232-.39-.418-.661-.395-.339.03-.562.35-.75.631A10.629 10.629 0 0 1 25.225 5.1M16 23.172v-6.063m-4-1.281l4 1m4-1l-4 1" fill="none"/><path fill="#333" d="M24 10a1 1 0 1 0 0 2 1 1 0 0 0 0-2zM8 10a1 1 0 1 0 0 2 1 1 0 0 0 0-2z"/></svg>