<svg xmlns="http://www.w3.org/2000/svg" viewBox="0 0 32 32"><path d="M2 14l3.499 2s1.749-2 3.499-2l3.495 2 3.498-2 3.499 2 3.5-2 3.505 2 3.506-2M.958 17c0-7.732 6.716-14 15-14 8.284 0 15 6.268 15 14m-25.193-.5c-.997.418-1.689 1.127-1.842 1.887-.153.761.235 1.559 1.033 2.128.477.34 1.103.612 1.386 1.032.365.542.048 1.182-.468 1.671s-1.216.887-1.735 1.375c-.519.487-.846 1.124-.492 1.67.293.451.982.742 1.389 1.154.634.642.441 1.571-.432 2.083m8.161-13c-.997.418-1.689 1.127-1.842 1.887-.153.761.235 1.559 1.033 2.128.477.34 1.103.612 1.386 1.032.365.542.047 1.182-.468 1.671l-1.735 1.375c-.519.487-.846 1.124-.492 1.67.293.451.982.742 1.389 1.154.634.642.441 1.571-.432 2.083m14.631-13c.997.418 1.689 1.127 1.842 1.887.153.761-.235 1.559-1.033 2.128-.477.34-1.103.612-1.386 1.032-.365.542-.048 1.182.468 1.671l1.734 1.375c.519.487.846 1.124.492 1.67-.293.451-.982.742-1.389 1.154-.634.642-.441 1.571.432 2.083m-8.16-13c.997.418 1.689 1.127 1.842 1.887.153.761-.235 1.559-1.033 2.128-.477.34-1.103.612-1.386 1.032-.365.542-.048 1.182.468 1.671l1.734 1.375c.519.487.846 1.124.492 1.67-.293.451-.982.742-1.389 1.154-.634.642-.441 1.571.432 2.083" stroke="#333" stroke-linecap="round" stroke-linejoin="round" stroke-miterlimit="10" fill="none"/></svg>