<svg xmlns="http://www.w3.org/2000/svg" viewBox="0 0 32 32"><path stroke="#333" stroke-width="2" stroke-linecap="round" stroke-linejoin="round" stroke-miterlimit="10" d="M16.519 31H15.48C11.916 31 9 28.084 9 24.519V11.481C9 7.916 11.916 5 15.481 5h1.039C20.084 5 23 7.916 23 11.481V24.52c0 3.564-2.916 6.48-6.481 6.48z" fill="none"/><path stroke="#333" stroke-linecap="round" stroke-linejoin="round" stroke-miterlimit="10" d="M9.636 21.319a8.994 8.994 0 0 1 12.728 0M8.143 10.5c-.728-.547-1.537-1.394-2.406-1.711-.281-.102-.581-.139-.87-.216-.956-.256-1.516-1.294-1.332-2.22.181-.909 1.036-1.603 1.971-1.791.934-.187 1.916.065 2.751.513.835.449 1.545 1.082 2.243 1.714M23.857 10.5c.729-.547 1.538-1.394 2.406-1.711.281-.102.582-.139.871-.217.956-.256 1.516-1.294 1.332-2.219-.181-.909-1.036-1.603-1.971-1.791-.934-.188-1.917.064-2.752.512-.835.448-1.545 1.082-2.243 1.713M12 1.021l1.25 4.377M20 1.021l-1.25 4.377" fill="none"/><path fill="#333" d="M12 0a1 1 0 1 0 0 2 1 1 0 0 0 0-2zm8 0a1 1 0 1 0 0 2 1 1 0 0 0 0-2zm-8 14a1 1 0 1 0 0 2 1 1 0 0 0 0-2zm8 0a1 1 0 1 0 0 2 1 1 0 0 0 0-2zm-6 7a1 1 0 1 0 0 2 1 1 0 0 0 0-2zm4 0a1 1 0 1 0 0 2 1 1 0 0 0 0-2z"/><path stroke="#333" stroke-linecap="round" stroke-linejoin="round" stroke-miterlimit="10" d="M10 28.5l3.37-.562c1.742-.29 3.519-.29 5.261 0L22 28.5" fill="none"/></svg>