<svg xmlns="http://www.w3.org/2000/svg" viewBox="0 0 32 32"><path stroke="#333" stroke-width="2" stroke-linecap="round" stroke-miterlimit="10" d="M7 16H1" fill="none"/><path stroke="#333" stroke-width="2" stroke-miterlimit="10" d="M19 16h-6" fill="none"/><path stroke="#333" stroke-width="2" stroke-linecap="round" stroke-miterlimit="10" d="M31 16h-6" fill="none"/><path fill="#333" d="M12 12v8H8v-8h4m1-2H7a1 1 0 0 0-1 1v10a1 1 0 0 0 1 1h6a1 1 0 0 0 1-1V11a1 1 0 0 0-1-1zm11-1v14h-4V9h4m1-2h-6a1 1 0 0 0-1 1v16a1 1 0 0 0 1 1h6a1 1 0 0 0 1-1V8a1 1 0 0 0-1-1z"/></svg>