<svg xmlns="http://www.w3.org/2000/svg" viewBox="0 0 32 32"><path stroke="#333" stroke-width="2" stroke-linejoin="round" stroke-miterlimit="10" d="M31 9.036c0-2.27-1.88-4.11-4.2-4.11-2.224 0-4.04 1.693-4.186 3.834C20.749 7.457 18.467 7 16 7s-4.749.457-6.614 1.76C9.24 6.619 7.424 4.926 5.2 4.926c-2.32 0-4.2 1.84-4.2 4.11 0 2.27 1.88 4.11 4.2 4.11.16 0 .317-.011.473-.028C4.986 14.554 5 16.311 5 18c0 6.161 4.704 11 11 11s11-4.839 11-11c0-1.689.014-3.446-.673-4.881.155.017.313.028.473.028 2.32-.001 4.2-1.841 4.2-4.111z" fill="none"/><path fill="#333" d="M12 12.963a1 1 0 1 0 0 2 1 1 0 0 0 0-2zm8 0a1 1 0 1 0 0 2 1 1 0 0 0 0-2z"/><path stroke="#333" stroke-linecap="round" stroke-linejoin="round" stroke-miterlimit="10" d="M25.69 7.715c.306-.293.73-.475 1.198-.475.468 0 .891.181 1.198.475.306.293.496.698.496 1.146 0 .447-.19.853-.496 1.146M6.323 7.715a1.728 1.728 0 0 0-1.197-.475c-.468 0-.891.181-1.198.475a1.582 1.582 0 0 0-.497 1.146c0 .447.19.853.496 1.146" fill="none"/><circle stroke="#333" stroke-miterlimit="10" cx="16" cy="17.963" r="1.5" fill="none"/><path stroke="#333" stroke-linecap="round" stroke-miterlimit="10" d="M16 19.963c0 1.658-1.342 3-3 3m3-3c0 1.658 1.342 3 3 3" fill="none"/></svg>