<svg xmlns="http://www.w3.org/2000/svg" viewBox="0 0 32 32"><path d="M14.979 27.813a3.967 3.967 0 0 0 2.041 0c1.513-.4 3.471-1.201 4.557-1.793 2.041-1.113 3.827-2.64 5.74-3.96.913-.63 1.84-1.273 2.562-2.184.723-.912 1.225-2.147 1.102-3.388-.146-1.476-1.115-2.637-2.101-3.561-.985-.924-2.079-1.786-2.673-3.096-.526-1.159-.598-2.549-1.136-3.7-.925-1.98-3.292-2.787-4.967-1.694-.505.33-.939.797-1.45 1.116-.509.32-2.138.403-2.654.403-.828 0-2.145-.083-2.655-.402-.51-.319-.944-.787-1.45-1.116-1.675-1.094-4.042-.287-4.967 1.693-.538 1.151-.61 2.541-1.136 3.7-.594 1.31-1.688 2.172-2.673 3.096-.985.924-1.954 2.085-2.101 3.561-.123 1.241.379 2.476 1.102 3.388.723.912 1.649 1.555 2.562 2.184 1.913 1.32 3.694 2.857 5.74 3.96 1.162.626 3.045 1.394 4.557 1.793zM11.57 7.757c.25.232.388.588.497.938.266.855.413 1.761.432 2.67.015.684-.081 1.456-.55 1.864-.306.266-.719.318-1.093.234-.374-.085-.719-.292-1.053-.507-.535-.345-1.102-.783-1.259-1.473-.154-.674.131-1.367.409-1.983.269-.598.552-1.215 1.012-1.623.46-.407 1.153-.539 1.605-.12zm8.86 0c-.25.232-.388.588-.497.938a9.706 9.706 0 0 0-.432 2.67c-.015.684.081 1.456.55 1.864.306.266.719.318 1.093.234.375-.085.72-.292 1.054-.507.535-.345 1.102-.783 1.259-1.473.153-.673-.132-1.366-.41-1.982-.269-.598-.552-1.215-1.012-1.623-.46-.408-1.153-.54-1.605-.121zm7.07 8.787a3.981 3.981 0 0 0-1.681.211 4.324 4.324 0 0 0-1.494.896c-.331.303-.62.657-.886 1.033-.266.377-.51.777-.751 1.174l-.75 1.319c-.265.449-.553.876-.882 1.182-.33.306-.79.591-1.234.8l-.117.05a10.23 10.23 0 0 1-7.387.073 3.25 3.25 0 0 1-.298-.123c-.39-.209-.744-.494-1.073-.8-.33-.306-.617-.696-.882-1.11-.265-.413-.509-.85-.75-1.247-.241-.397-.485-.815-.751-1.21s-.555-.766-.886-1.069c-.441-.404-.952-.716-1.494-.914s-1.118-.282-1.684-.229M12 11c-1.106 0-2 .894-2 2m10-2c1.105 0 2 .894 2 2" stroke="#333" stroke-linecap="round" stroke-linejoin="round" stroke-miterlimit="10" fill="none"/></svg>