<svg xmlns="http://www.w3.org/2000/svg" viewBox="0 0 32 32"><g stroke="#333" stroke-linecap="round" stroke-linejoin="round" stroke-miterlimit="10" fill="none"><path d="M27.499 19c0 3.176-1.287 6.051-3.368 8.132A11.463 11.463 0 0 1 16 30.5c-3.175 0-6.05-1.287-8.131-3.368C5.788 25.051 4.501 22.176 4.501 19s1.287-6.051 3.368-8.132c2.081-2.081 4.956-.056 8.131-.056s6.05-2.025 8.131.056A11.464 11.464 0 0 1 27.499 19z"/><ellipse cx="16" cy="5.5" rx="5.5" ry="2.5"/><path d="M5.5 24.5c-2.667 1.935-2.667 5.065 0 7m-.019-17.965C2.222 13.053.032 15.291.586 18.538m25.933-5.003c3.259-.482 5.449 1.756 4.895 5.003M26.5 24.5c2.667 1.935 2.667 5.065 0 7m-16-27c-.387-.591-1.247-.75-1.993-.924-.823-.192-1.644-.483-2.245-1.016-.601-.532-.939-1.347-.666-2.06m15.904 4c.387-.591 1.247-.75 1.993-.924.822-.192 1.643-.483 2.245-1.015.601-.532.939-1.348.666-2.06M16 11v19.494"/></g></svg>