<svg xmlns="http://www.w3.org/2000/svg" viewBox="0 0 32 32"><path stroke="#333" stroke-width="2" stroke-linecap="round" stroke-miterlimit="10" d="M25 16h6" fill="none"/><path stroke="#333" stroke-width="2" stroke-miterlimit="10" d="M13 16h6" fill="none"/><path stroke="#333" stroke-width="2" stroke-linecap="round" stroke-miterlimit="10" d="M1 16h6" fill="none"/><path fill="#333" d="M24 12v8h-4v-8h4m1-2h-6a1 1 0 0 0-1 1v10a1 1 0 0 0 1 1h6a1 1 0 0 0 1-1V11a1 1 0 0 0-1-1zM12 9v14H8V9h4m1-2H7a1 1 0 0 0-1 1v16a1 1 0 0 0 1 1h6a1 1 0 0 0 1-1V8a1 1 0 0 0-1-1z"/></svg>