<svg xmlns="http://www.w3.org/2000/svg" viewBox="0 0 32 32"><g stroke="#333" stroke-linecap="round" stroke-miterlimit="10" fill="none"><path d="M9 19.561c1.796.745 3.184 2.855 3.595 4.766.198.92.18 1.87.251 2.809.071.938.243 1.902.767 2.682C14.136 30.597 14.975 31 16 31c.937 0 1.864-.403 2.388-1.182.524-.78.696-1.744.767-2.682.071-.938.053-1.889.251-2.809.411-1.911 1.676-3.956 3.472-4.701l.013-.007C25.981 17.991 28 15.297 28 12.25c0-4.971-5.373-9-12-9s-12 4.029-12 9c0 2.989 1.943 5.638 4.933 7.274l.067.037zM4.181 8c-.549-.47-.756-1.208-.805-1.911-.05-.703.029-1.413-.074-2.11C3.142 2.907 2.566 1.938 2 1c1.13.356 2.266.715 3.318 1.245C6.37 2.776 7.344 3.491 8 4.439M27.819 8c.549-.47.755-1.208.805-1.911.05-.703-.029-1.413.074-2.11.16-1.072.736-2.041 1.302-2.979-1.13.356-2.266.715-3.318 1.245-1.052.531-2.026 1.246-2.682 2.194"/><path d="M3.441 11.9c-1.154.647-1.905 1.807-1.941 3 .059-.407.306-.791.675-1.047a2.06 2.06 0 0 1 1.325-.341M28.559 11.9c1.154.647 1.905 1.807 1.941 3a1.574 1.574 0 0 0-.675-1.047 2.06 2.06 0 0 0-1.325-.341m-25 1.507l-.368.167c-.341.226-.566.522-.632.834m26-1.001l.368.167c.341.225.566.521.632.833m-19.238-.281a2.618 2.618 0 0 0 2.213.738 2.615 2.615 0 0 0-.738-2.213 2.615 2.615 0 0 0-2.213-.738 2.62 2.62 0 0 0 .738 2.213zm11.476 0a2.618 2.618 0 0 1-2.213.738 2.615 2.615 0 0 1 .738-2.213 2.615 2.615 0 0 1 2.213-.738 2.62 2.62 0 0 1-.738 2.213z"/></g></svg>