<svg xmlns="http://www.w3.org/2000/svg" viewBox="0 0 32 32"><path d="M31 6.852L27.129 3m0 7.704L31 6.852m0 18.296L27.129 29m0-7.704L31 25.148M17.234 14.133l3.855-3.988c1.496-1.488 3.327-2.538 5.392-2.995 0 0 1.542-.15 2.354-.15H31M1 24h3.9c1.541 0 3.018-.756 4.108-1.84l2.303-2.365 1.149-1.181.66-.527M1 8h2.419l1.453.142c1.548-.006 3.035.677 4.13 1.766l2.288 2.314 1.108 1.121 8.359 8.535C22.253 23.367 24 24.405 26 24.862c0 0 2.022.138 2.834.138H31" stroke="#333" stroke-width="2" stroke-linecap="round" stroke-miterlimit="10" fill="none"/></svg>