<svg xmlns="http://www.w3.org/2000/svg" viewBox="0 0 32 32"><path stroke="#333" stroke-width="2" stroke-linecap="round" stroke-linejoin="round" stroke-miterlimit="10" d="M16.354 31a4.97 4.97 0 0 0 3.024-.999c.754-.57 1.388-1.396 1.683-2.302.275-.843.473-1.53 1.284-2.057.597-.387 1.301-.544 1.958-.806 1.467-.586 2.721-1.737 3.466-3.181.712-1.38.954-2.971 1.045-4.536.149-2.581.027-5.238-.583-7.744 1.781-1.178 2.877-3.404 2.759-5.602-.058-1.069-.491-2.244-1.444-2.638-1.04-.43-2.186.245-3.054.982-.869.737-1.774 1.61-2.893 1.635-.895.02-1.699-.516-2.507-.918A9.156 9.156 0 0 0 16 1.928a9.174 9.174 0 0 0-5.094.905c-.808.402-1.612.938-2.507.918-1.118-.025-2.024-.898-2.892-1.635S3.493.704 2.453 1.135c-.954.394-1.387 1.569-1.444 2.638-.119 2.199.977 4.424 2.758 5.602-.609 2.506-.732 5.163-.583 7.744.091 1.565.333 3.156 1.045 4.536.745 1.445 1.999 2.595 3.467 3.181.657.262 1.361.419 1.958.806.812.527 1.009 1.214 1.284 2.057.296.906.93 1.732 1.684 2.302a4.975 4.975 0 0 0 3.024.999h.708z" fill="none"/><path stroke="#333" stroke-linecap="round" stroke-linejoin="round" stroke-miterlimit="10" d="M8.73 9.096a6.406 6.406 0 0 1 4.541-1.46m9.999 1.46a6.406 6.406 0 0 0-4.541-1.46" fill="none"/><path fill="#333" d="M10 12c.551 0 1 .449 1 1s-.449 1-1 1c-.551 0-1-.449-1-1s.449-1 1-1m0-1a2 2 0 1 0-.001 3.999A2 2 0 0 0 10 11zm12 1c.551 0 1 .449 1 1s-.449 1-1 1c-.551 0-1-.449-1-1s.449-1 1-1m0-1a2 2 0 1 0-.001 3.999A2 2 0 0 0 22 11z"/><path stroke="#333" stroke-linecap="round" stroke-linejoin="round" stroke-miterlimit="10" d="M20.5 27.975c-1.041.095-2.217-.09-2.775-.437l-.463-.326a1.707 1.707 0 0 0-.763-.212h-1a1.72 1.72 0 0 0-.763.212l-.463.326c-.557.347-1.734.532-2.775.437M11.99 16.5a6.423 6.423 0 0 1-.415 2.609 5.44 5.44 0 0 1-1.18 1.852c-.197.203-.384.449-.394.737-.012.373.276.683.581.882.459.298.893.601 1.339.921M20.01 16.5a6.423 6.423 0 0 0 .415 2.609 5.44 5.44 0 0 0 1.18 1.852c.197.203.384.449.394.737.013.373-.276.683-.581.882-.459.298-.893.601-1.338.921" fill="none"/></svg>