<svg xmlns="http://www.w3.org/2000/svg" viewBox="0 0 32 32"><g stroke="#333" stroke-linecap="round" stroke-linejoin="round" stroke-miterlimit="10" fill="none"><path d="M30.303 13.379l.126-.379c.519-2.207.772-5.089.38-7.334-.119-.681-.365-1.459-.924-1.633-.331-.103-.685.049-.963.289-.278.24-.498.562-.739.854-.85 1.03-1.988 1.707-3.183 1.894l-.438.083C22.133 5.799 19.185 5 16 5c-3.182 0-6.127.798-8.554 2.149L7.03 7.07c-1.195-.187-2.333-.864-3.183-1.894-.241-.292-.461-.614-.739-.854-.278-.24-.632-.392-.963-.289-.559.174-.806.952-.924 1.633-.392 2.245-.139 5.127.38 7.334l.113.341A9.803 9.803 0 0 0 .998 17c0 6.627 6.717 12 15.002 12s15.002-5.373 15.002-12a9.808 9.808 0 0 0-.699-3.621z"/><circle cx="10" cy="15" r="5.5"/><circle cx="10" cy="15" r="1.5"/><circle cx="23" cy="15" r="5.5"/><circle cx="23" cy="15" r="1.5"/><path d="M17.5 23c0 .828-1.5 3.5-1.5 3.5s-1.5-2.672-1.5-3.5a1.5 1.5 0 0 1 3 0z"/></g></svg>