<svg xmlns="http://www.w3.org/2000/svg" viewBox="0 0 32 32"><path stroke="#333" stroke-linecap="round" stroke-linejoin="round" stroke-miterlimit="10" d="M23.5 22c-4.146 2.667-10.854 2.667-15 0" fill="none"/><path stroke="#333" stroke-width="2" stroke-linecap="round" stroke-linejoin="round" stroke-miterlimit="10" d="M31 10a6 6 0 0 0-6-6 5.992 5.992 0 0 0-5.357 3.309C18.474 7.115 17.259 7 16 7s-2.474.115-3.643.309A5.994 5.994 0 0 0 7 4a6 6 0 0 0-4.965 9.369C1.375 14.496 1 15.717 1 17c0 5.523 6.716 10 15 10s15-4.477 15-10c0-1.283-.375-2.504-1.035-3.631A5.973 5.973 0 0 0 31 10z" fill="none"/><circle stroke="#333" stroke-linecap="round" stroke-linejoin="round" stroke-miterlimit="10" cx="7" cy="11" r="1.5" fill="none"/><circle stroke="#333" stroke-linecap="round" stroke-linejoin="round" stroke-miterlimit="10" cx="25" cy="11" r="1.5" fill="none"/><path fill="#333" d="M13 18a1 1 0 1 0 0 2 1 1 0 0 0 0-2zm6 0a1 1 0 1 0 0 2 1 1 0 0 0 0-2z"/></svg>