<svg xmlns="http://www.w3.org/2000/svg" viewBox="0 0 32 32"><g stroke="#333" stroke-miterlimit="10" fill="none"><path d="M16.201 3.013a9.672 9.672 0 0 1 3.354.419 9.746 9.746 0 0 1 3.017 1.543c.179.136.357.28.544.404.187.124.384.228.6.284.208.054.422.06.636.042.214-.018.429-.06.64-.102l2.797-.557 2.797-.557a5.91 5.91 0 0 1 .397 2.629 5.878 5.878 0 0 1-.781 2.539c-.239.408-.527.784-.808 1.166-.28.381-.553.767-.761 1.192-.24.49-.387 1.014-.491 1.551-.104.537-.817 4.962-.87 5.448-.343 3.112-2.124 5.902-4.826 7.482C20.227 27.794 17.624 29 16 29c-1.654 0-4.234-1.191-6.434-2.479-2.636-1.543-4.38-4.249-4.785-7.277-.079-.595-.82-5.14-.925-5.677-.104-.537-.251-1.061-.491-1.551-.208-.425-.481-.81-.761-1.192-.28-.381-.568-.758-.808-1.166a5.903 5.903 0 0 1-.779-2.539c-.067-.892.063-1.8.396-2.629l2.797.557 2.797.557c.211.042.426.084.64.102.214.018.428.012.636-.042.216-.056.413-.16.6-.284.187-.124.365-.268.544-.404a9.757 9.757 0 0 1 6.371-1.962m4.374 10.434c-.097.52-.108.961-.039 1.392.069.431.217.853.439 1.336.222.483.478.95.731 1.419.253.469.502.939.708 1.428.207.489.369 1.008.444 1.532a3.74 3.74 0 0 1-.083 1.562c-.145.51-.448.989-.852 1.344-.404.355-.908.585-1.454.595-.638.012-1.337-.169-2.035-.337-.698-.168-1.396-.323-2.03-.259-.635-.064-1.332.091-2.03.259s-1.397.349-2.035.337c-.546-.011-1.05-.241-1.454-.595s-.708-.834-.852-1.344a3.742 3.742 0 0 1-.083-1.562 6.237 6.237 0 0 1 .444-1.532c.207-.489.456-.96.708-1.428s.509-.936.731-1.419c.222-.483.413-.917.524-1.359.112-.443.144-.895.047-1.415"/><path d="M7.708 9.494a.107.107 0 0 0-.077.054.107.107 0 0 0-.008.094c.389.966.898 1.794 1.484 2.435.585.641 1.247 1.093 1.937 1.306.225.069.478.095.703.023.226-.073.425-.244.543-.567.094-.257.112-.559.078-.854a2.552 2.552 0 0 0-.236-.817 2.357 2.357 0 0 0-.651-.815 3.194 3.194 0 0 0-.792-.448 5.984 5.984 0 0 0-1.481-.403 5.664 5.664 0 0 0-1.5-.008zm16.541 0a.103.103 0 0 1 .077.053.11.11 0 0 1 .008.094c-.389.966-.899 1.794-1.484 2.435-.586.641-1.247 1.093-1.937 1.306-.225.069-.478.095-.703.023-.226-.073-.424-.244-.543-.567a1.896 1.896 0 0 1-.078-.854c.034-.295.121-.584.236-.817.175-.355.401-.615.651-.815.25-.199.523-.338.792-.448a6.07 6.07 0 0 1 1.481-.402 5.664 5.664 0 0 1 1.5-.008zm-6.325 9.231c.129.122.247.256.343.399.096.144.169.297.206.46.038.163.036.336-.009.497a.879.879 0 0 1-.268.428.926.926 0 0 1-.507.21.811.811 0 0 1-.531-.118.861.861 0 0 1-.181-.17l-.143-.199a.998.998 0 0 0-.84-.462c-.313.003-.624.16-.828.462l-.143.199a.863.863 0 0 1-.181.17.801.801 0 0 1-.53.118.93.93 0 0 1-.508-.21.872.872 0 0 1-.268-.428 1.008 1.008 0 0 1-.009-.497 1.4 1.4 0 0 1 .207-.46c.096-.144.214-.277.343-.399"/></g></svg>