<svg xmlns="http://www.w3.org/2000/svg" viewBox="0 0 32 32"><path stroke="#333" stroke-width="2" stroke-linejoin="round" stroke-miterlimit="10" d="M2.142 15.36c-1.069-1.109-1.389-2.821-.955-4.294.434-1.473 1.554-2.697 2.91-3.435 1.357-.737 2.933-1.017 4.48-.984.622-1.243 1.833-2.298 3.117-2.848 1.285-.55 2.697-.746 4.095-.79 2.736-.086 5.533.413 7.92 1.743s4.331 3.541 5.028 6.169c.517 1.95.342 4.005.406 6.02A25.111 25.111 0 0 0 31 25.636c-.749-1.849-2.379-3.324-4.303-3.893a6.845 6.845 0 0 0-5.748.921c-.603.418-1.136.934-1.771 1.302-.635.367-1.424.574-2.108.306-.768-.301-1.229-1.122-1.99-1.44-.911-.381-1.949.065-2.792.579A16.328 16.328 0 0 0 6.759 29a26.323 26.323 0 0 0 3.316-8.869c.274-1.539.393-3.199-.311-4.597-.683-1.356-2.143-2.293-3.67-2.354-1.528-.061-3.16.883-3.952 2.18z" fill="none"/><path stroke="#333" stroke-linecap="round" stroke-linejoin="round" stroke-miterlimit="10" d="M25.1 15.486c.986-2.754-.222-5.874-2.702-6.975" fill="none"/><path fill="#333" d="M13 7a1 1 0 1 0 0 2 1 1 0 0 0 0-2z"/></svg>