<svg xmlns="http://www.w3.org/2000/svg" viewBox="0 0 32 32"><path stroke="#333" stroke-width="2" stroke-linejoin="round" stroke-miterlimit="10" d="M30.86 18.26a.953.953 0 0 0-.423-.371c-.455-.199-.962.06-1.386.23-.676.272-1.406.397-2.118.56-.588.135-1.209.308-1.817.324.788-1.236 2.083-2.892 3.187-4.754.654-1.104 1.235-2.261 1.614-3.484.251-.81.954-2.706-.084-3.192-.303-.142-.657-.151-.987-.088-2.037.387-3.991 1.643-5.835 2.523-2.525 1.206-5.142 2.289-6.789 1.803-.881-.26-1.508-1.097-2.019-1.768l-1.845-2.425c-.459-.603-1.309-1.29-2.11-1.454-1.302-.419-2.67.008-3.716.775-2.045 1.5-3.017 3.894-4.982 5.466-.328.263-.631.653-.532 1.056.093.378.472.571.74.819.327.303.556.745.774 1.127.368.646.705 1.398 1.051 2.172.408.912.695 1.611 1.044 2.274.349.663.76 1.291 1.417 2.063 2.461 2.891 6.359 4.142 10.125 4.083 4.112-.065 8.016-1.653 11.315-3.984.72-.509 1.43-1.033 2.101-1.603.472-.401 1.431-1.01 1.415-1.694a.92.92 0 0 0-.14-.458z" fill="none"/><path stroke="#333" stroke-linecap="round" stroke-miterlimit="10" d="M13.16 14.203c2.963 2.962 6.746 2.973 9.695.024" fill="none"/><path fill="#333" d="M8 10a1 1 0 1 0 0 2 1 1 0 0 0 0-2z"/></svg>