<svg xmlns="http://www.w3.org/2000/svg" viewBox="0 0 32 32"><path d="M16.317 21c.807 2 1.33 3.678 2.378 5.148.749 1.05 1.775 1.705 2.944 1.8 3.759.306 8.299-5.64 4.585-9.126-.641-.601-1.381-1.032-2.115-1.469.649-.358 1.411-.131 2.118.018.707.149 1.543.174 2.026-.443.427-.545.405-1.365.411-2.101.013-1.67.326-3.316.845-4.871.37-1.107 1.082-2.107 1.39-3.215.145-.52.151-1.123-.113-1.576-.269-.465-.779-.685-1.264-.685s-.955.129-1.407.331c-4.167 1.854-7.845 4.768-10.456 9.214-.349.593-.969.975-1.658.975h-.003c-.689 0-1.309-.382-1.658-.975-2.61-4.446-6.288-7.36-10.455-9.214-.453-.202-.922-.36-1.408-.36-.485.001-.994.235-1.265.701-.263.453-.257 1.064-.113 1.583.308 1.107 1.02 2.111 1.39 3.218.519 1.555.833 3.204.846 4.874.006.736-.017 1.558.411 2.103.483.617 1.319.595 2.026.446.707-.149 1.469-.371 2.118-.013-.734.436-1.474.877-2.115 1.479-3.714 3.486.826 9.452 4.585 9.146 1.17-.095 2.196-.791 2.944-1.841C14.353 24.678 14.875 23 15.683 21h.634zM17.5 10.421c0 .846-.672 4.349-1.5 4.349s-1.5-3.503-1.5-4.349c0-.846.672-1.531 1.5-1.531s1.5.686 1.5 1.531zM15 9.165C15 5.915 12.316 3.5 9 3.5m8.003 5.681c0-3.25 2.68-5.681 5.997-5.681" stroke="#333" stroke-linejoin="round" stroke-miterlimit="10" fill="none"/></svg>