<svg xmlns="http://www.w3.org/2000/svg" viewBox="0 0 32 32"><path fill="#333" d="M12 19.688a1 1 0 1 0 0 2 1 1 0 0 0 0-2zm8 0a1 1 0 1 0 0 2 1 1 0 0 0 0-2z"/><ellipse stroke="#333" stroke-width="2" stroke-linecap="round" stroke-linejoin="round" stroke-miterlimit="10" cx="16" cy="22.053" rx="12" ry="8.947" fill="none"/><path stroke="#333" stroke-width="2" stroke-linecap="round" stroke-linejoin="round" stroke-miterlimit="10" d="M8.227 14.979c-.795-1.709-1.346-3.535-1.704-5.384a28.612 28.612 0 0 1-.481-4.002c-.063-1.254-.169-2.563.654-3.612l.202-.232c.668-.686 1.772-.982 2.619-.539.658.344 1.06 1.062 1.207 1.794.171.849.072 1.769-.009 2.623-.264 2.775-.307 5.52-.001 8.269m13.055 1.092c.797-1.712 1.35-3.541 1.708-5.392.256-1.32.413-2.659.481-4.003.063-1.254.17-2.564-.653-3.612a2.633 2.633 0 0 0-.203-.232c-.668-.686-1.772-.982-2.619-.539-.658.344-1.059 1.062-1.206 1.794-.171.849-.072 1.769.009 2.623.261 2.74.305 5.451.012 8.165" fill="none"/><path d="M16 24v1m-.119.82a1.952 1.952 0 0 1-2.762 0m2.762 0a1.952 1.952 0 0 1-2.762 0m3 0a1.952 1.952 0 0 0 2.762 0m-2.762 0a1.952 1.952 0 0 0 2.762 0" stroke="#333" stroke-linecap="round" stroke-linejoin="round" stroke-miterlimit="10" fill="none"/></svg>