<svg xmlns="http://www.w3.org/2000/svg" viewBox="0 0 32 32"><path fill="#333" d="M11 15a1 1 0 1 0 0 2 1 1 0 0 0 0-2zm10 0a1 1 0 1 0 0 2 1 1 0 0 0 0-2z"/><path stroke="#333" stroke-width="2" stroke-linecap="round" stroke-linejoin="round" stroke-miterlimit="10" d="M29 15.48C29 22.947 23.18 29 16 29S3 22.947 3 15.48 8.82 3 16 3s13 5.013 13 12.48zM3.649 20l-2.538 6.999c-.089.245-.175.531-.043.755.182.31.628.276.968.177A7.029 7.029 0 0 0 6 24.88M28.351 20l2.538 6.999c.089.245.175.531.043.755-.182.31-.628.276-.968.177A7.016 7.016 0 0 1 26 24.881" fill="none"/><path stroke="#333" stroke-linecap="round" stroke-linejoin="round" stroke-miterlimit="10" d="M27.627 21.404c.318-1.155.242-2.391.184-3.573a14.934 14.934 0 0 0-.625-3.64c-.373-1.204-.977-2.357-1.882-3.234-1.029-.998-2.513-1.682-3.937-1.285-1.022.285-1.903.927-2.704 1.6-.678.57-1.563 1.731-2.526 1.728H16c-.962.003-1.848-1.158-2.526-1.728-.801-.674-1.682-1.315-2.704-1.6-1.424-.397-2.908.288-3.937 1.285-.905.877-1.509 2.03-1.882 3.234a14.982 14.982 0 0 0-.625 3.64c-.058 1.182-.135 2.418.184 3.573m13.99.096l-2.5 3-2.5-3z" fill="none"/></svg>