<svg xmlns="http://www.w3.org/2000/svg" viewBox="0 0 32 32"><path fill="#333" d="M12 13c.551 0 1 .449 1 1s-.449 1-1 1c-.551 0-1-.449-1-1s.449-1 1-1m0-1a2 2 0 1 0-.001 3.999A2 2 0 0 0 12 12zm8 1c.551 0 1 .449 1 1s-.449 1-1 1c-.551 0-1-.449-1-1s.449-1 1-1m0-1a2 2 0 1 0-.001 3.999A2 2 0 0 0 20 12z"/><path stroke="#333" stroke-linecap="round" stroke-linejoin="round" stroke-miterlimit="10" d="M8.523 11.766c-1.03 2.112-2.149 4.764-1.051 7.063.354.742.97 1.131 1.425 1.768.584.816.648 1.878.867 2.857.314 1.406 2.014 2.823 3.489 2.778a1.82 1.82 0 0 0 1.385-.715c.582-.78.424-1.826-.495-2.194-.811-.325-1.648-.793-1.473-1.825m10.807-9.732c1.03 2.112 2.149 4.764 1.051 7.063-.354.742-.97 1.131-1.425 1.768-.584.816-.648 1.878-.867 2.857-.314 1.406-2.014 2.823-3.489 2.778a1.82 1.82 0 0 1-1.385-.715c-.582-.78-.424-1.826.495-2.194.811-.325 1.649-.793 1.473-1.825" fill="none"/><path stroke="#333" stroke-width="2" stroke-linecap="round" stroke-linejoin="round" stroke-miterlimit="10" d="M16 2c1.888.043 4.363.466 5.85 1.712.587-.792 1.19-1.6 1.995-2.143.805-.542 1.865-.778 2.729-.344 1.133.569 1.558 2.112 1.294 3.4-.334 1.63-1.75 2.691-2.014 4.295-.135.818.278 1.538.761 2.11.622.736 1.146 1.52 1.536 2.419.774 1.786 1.023 3.822.73 5.758-.482 3.182-2.318 6.038-4.727 8.039-1.683 1.397-3.636 2.404-5.671 3.1l-1.028.368c-.485.162-.991.295-1.455.286-.464.01-.97-.124-1.454-.287l-1.028-.368c-2.036-.696-3.988-1.702-5.671-3.1-2.409-2-4.245-4.857-4.727-8.039-.293-1.936-.044-3.972.73-5.758.389-.899.914-1.682 1.536-2.419.483-.572.895-1.292.761-2.11-.264-1.604-1.68-2.666-2.014-4.295-.264-1.287.162-2.831 1.294-3.4.863-.433 1.923-.198 2.728.344.805.542 1.408 1.35 1.995 2.143C11.637 2.466 14.112 2.043 16 2z" fill="none"/><path stroke="#333" stroke-linecap="round" stroke-linejoin="round" stroke-miterlimit="10" d="M19.5 6.277l-1.985-.596a1 1 0 0 0-1.026.283L16 6.5l-.489-.536a.998.998 0 0 0-1.026-.283l-1.985.596" fill="none"/></svg>