<svg xmlns="http://www.w3.org/2000/svg" viewBox="0 0 32 32"><path stroke="#333" stroke-width="2" stroke-linecap="round" stroke-linejoin="round" stroke-miterlimit="10" d="M19 17c-1.316 3.629-1.484 7.767-.466 11.515.134.494.29 1.016.174 1.516-.156.675-.858 1.12-1.454.922C16.658 30.755 16 30.258 16 29.6c0 .673-.658 1.155-1.254 1.353-.596.198-1.298-.248-1.454-.922-.116-.5.04-1.022.174-1.516 1.018-3.748.85-7.886-.466-11.515" fill="none"/><path stroke="#333" stroke-linecap="round" stroke-linejoin="round" stroke-miterlimit="10" d="M10.5 5.284c-1.254 1.178-1.989 2.826-2 4.488-.011 1.662.701 3.319 1.938 4.512m11.062-9c1.254 1.178 1.988 2.826 2 4.488.011 1.662-.701 3.319-1.938 4.512" fill="none"/><path stroke="#333" stroke-width="2" stroke-linecap="round" stroke-linejoin="round" stroke-miterlimit="10" d="M5 27c2.576-2.384 4.339-5.595 5-9.053-4.353-1.741-7.775-5.554-8.812-9.924-.124-.522-.298-1.25-.095-1.769.355-.908 1.504-1.681 2.307-2.217a13.532 13.532 0 0 1 2.952-1.481c1.375-.492 3.298-.561 4.648.303 2.465-2.479 7.535-2.479 10 0 1.35-.864 3.273-.795 4.648-.304 1.045.374 2.039.872 2.952 1.481.803.536 1.952 1.309 2.307 2.217.203.519.029 1.247-.095 1.769-1.037 4.37-4.459 8.183-8.812 9.924.661 3.457 2.424 6.669 5 9.053" fill="none"/><path fill="#333" d="M12 8a1 1 0 1 0 0 2 1 1 0 0 0 0-2zm8 0a1 1 0 1 0 0 2 1 1 0 0 0 0-2z"/></svg>