<svg xmlns="http://www.w3.org/2000/svg" viewBox="0 0 32 32"><path fill="#333" d="M19 12a1 1 0 1 0 0 2 1 1 0 0 0 0-2zm-6 0a1 1 0 1 0 0 2 1 1 0 0 0 0-2z"/><path stroke="#333" stroke-width="2" stroke-linecap="round" stroke-linejoin="round" stroke-miterlimit="10" d="M24 14.354c0 2.485-.895 4.647-2.343 6.187S18.209 22 16 22s-4.209.081-5.657-1.459C8.895 19.001 8 16.839 8 14.354c0-2.485-.105-4.735 1.343-6.364S13.791 5.354 16 5.354c2.209 0 5.209 1.007 6.657 2.636C24.105 9.619 24 11.869 24 14.354zm-3 6.834l-.183 6.652c-.026.703-.068 1.45-.513 2.028-.696.906-2.085 1.06-3.304 1.132h-2c-1.219-.072-2.608-.226-3.305-1.132-.444-.578-.486-1.325-.513-2.028l-.178-6.527M9.229 8.061c-1.59-.205-3.468.112-4.886.896C2.924 9.742 1.741 10.99 1 12.485a5.16 5.16 0 0 0 2.813 1.454c1.049.168 2.736-.193 3.687-.689m16.062-5.189c1.591-.205 2.676.112 4.095.896 1.418.785 2.601 2.033 3.343 3.528a5.16 5.16 0 0 1-2.813 1.454c-1.049.168-2.736-.193-3.687-.689M12.758 5.648c-.259-.031-.778-.065-1.036-.106a9.674 9.674 0 0 1-1.521-.354c-1.814-.6-3.336-2.137-2.878-4.185m11.918 4.645c.259-.031.778-.065 1.036-.106a9.674 9.674 0 0 0 1.521-.354c1.814-.6 3.336-2.137 2.878-4.185" fill="none"/><path stroke="#333" stroke-linecap="round" stroke-linejoin="round" stroke-miterlimit="10" d="M17.5 26v1m-3-1v1" fill="none"/></svg>