<svg xmlns="http://www.w3.org/2000/svg" viewBox="0 0 32 32"><path fill="#333" d="M6 18.963a1 1 0 1 0 0 2 1 1 0 0 0 0-2z"/><path d="M1.058 22.467c.152-.052.253-1.26.292-1.425.273-1.165.608-2.405 1.54-3.225.997-.878 2.256-1.048 3.518-.758 1.203.276 2.461.815 3.355 1.688L10 19c-.419-2.996.732-4.985 3.4-6.576 1.618-.965 3.53-1.358 5.239-2.163 2.798-1.319 4.987-3.788 5.901-6.657.135 1.319.173 2.645.211 3.969.033 1.178.06 2.395-.401 3.486-.046.866-.145 1.73-.295 2.585-.127.722-.29 1.438-.454 2.154l-.476 2.081c-.194.85-.408 1.738-.997 2.398-.671.752-1.841 1.267-1.877 2.257-.025.669.564 1.26 1.238 1.425.674.165 1.394-.019 2.011-.328 1.28-.64 2.204-1.768 3.187-2.784.523-.541 1.083-1.058 1.723-1.462.33-.208 1.59-.987 1.944-.597.087.096.12.227.15.352.716 2.994.566 5.803-.529 8.681a9.054 9.054 0 0 1-1.267 2.274c-.399.522-1.07 1.052-1.674.765-.657-.312-.547-1.225-.757-1.902-.337-1.087-1.674-1.635-2.845-1.526-1.172.108-2.224.703-3.262 1.237-1.426.733-2.922 1.382-4.515 1.646-1.593.264-3.302.115-4.7-.666-1.265-.707-2.181-1.865-3.017-3.022-.835-1.157-1.646-2.364-2.788-3.244-1.143-.879-2.713-1.386-4.092-.916zm18.178-12.448c.374-.952.498-2.875-.609-3.416.77-.826.281-2.169-.482-3.001s-1.787-1.503-2.187-2.544c.785 1.29.727 3.011-.142 4.249-1.292 1.841-3.874 2.324-5.67 3.719-1.342 1.043-2.217 2.626-2.367 4.281-.149 1.655.429 3.36 1.564 4.61" stroke="#333" stroke-width="2.115" stroke-linejoin="round" stroke-miterlimit="10" fill="none"/><path stroke="#333" stroke-linecap="round" stroke-linejoin="round" stroke-miterlimit="10" d="M19.601 13.45c-2.88.692-5.257 3.149-5.853 6.05" fill="none"/></svg>