<svg xmlns="http://www.w3.org/2000/svg" viewBox="0 0 32 32"><path d="M20.258 1h2.5m4.76.003c2.057.076 3.716 1.787 3.716 3.868v22.258c0 2.129-1.737 3.871-3.859 3.871H5.182c-2.123 0-3.859-1.742-3.859-3.871v-1.773m0-2.38v-2.5" stroke="#333" stroke-width="2" stroke-linecap="round" stroke-miterlimit="10" fill="none"/><path stroke="#333" stroke-width="2" stroke-linecap="round" stroke-miterlimit="10" d="M18 14.135A3.864 3.864 0 0 1 14.135 18h-9.27A3.865 3.865 0 0 1 1 14.135v-9.27A3.865 3.865 0 0 1 4.865 1h9.27A3.864 3.864 0 0 1 18 4.865v9.27zM20 26h6m0-6v6m-.073-.323l-5.789-5.806" fill="none"/></svg>