<svg xmlns="http://www.w3.org/2000/svg" viewBox="0 0 32 32"><path fill="#333" d="M11.97 3.11c1.081 0 2.172.351 2.994.964 1.441 1.074 1.809 2.396 1.864 3.317.088 1.464-.537 2.945-1.714 4.064-.33.314-1.333 1.268-1.359 2.69-.035 1.894 1.644 3.29 3.059 4.127a7.974 7.974 0 0 0 4.063 1.114 8.32 8.32 0 0 0 4.201-1.155c2.039-1.195 3.023-3.001 3.891-4.594l.073-.137.149-.279c.758 1.477.847 3.365.809 4.564a10.102 10.102 0 0 1-.774 3.604c-2.392 5.693-8.884 7.721-14.162 7.721-1.581 0-3.129-.17-4.602-.505-4.769-1.085-7.314-3.077-7.778-6.09-.587-3.811 2.811-6.448 4.306-7.409 1.164-.754 1.211-1.793 1.177-2.205-.119-1.457-1.405-2.018-2.256-2.389l-.26-.115c-.908-.411-1.602-.807-2.127-1.164 1.466-.066 2.827-.972 3.501-2.346.861-1.754 2.241-3.151 3.515-3.56.449-.144.93-.217 1.43-.217m0-2c-.694 0-1.385.102-2.041.313-2.083.668-3.766 2.682-4.7 4.582-.35.716-1.076 1.231-1.875 1.231l-.293-.023c-.976-.159-1.799-.495-2.343-.496-.45 0-.71.23-.71.978 0 1.669 2.175 3.328 4.819 4.523.833.377 1.841.712 1.075 1.208C2.705 15.482.094 18.835.708 22.818c.729 4.733 5.096 6.777 9.311 7.736 1.604.365 3.314.555 5.046.555 6.537 0 13.385-2.707 16.006-8.946A12.15 12.15 0 0 0 32 17.848c.087-2.733-.489-6.001-2.856-7.72a.15.15 0 0 0-.091-.029c-.519 0-1.684 2.294-1.84 2.581-.821 1.506-1.608 2.924-3.146 3.826a6.31 6.31 0 0 1-3.189.88 5.954 5.954 0 0 1-3.044-.834c-.748-.443-2.096-1.396-2.078-2.37.009-.505.371-.929.738-1.278 3.094-2.943 3.265-7.752-.333-10.434-1.19-.885-2.696-1.36-4.191-1.36z"/><circle stroke="#333" stroke-linejoin="round" stroke-miterlimit="10" cx="10" cy="7" r=".5" fill="none"/><path stroke="#333" stroke-linecap="round" stroke-linejoin="round" stroke-miterlimit="10" d="M11.33 21.5c1.918 2.169 5.195 3.31 8.367 2.927 1.709-.207 3.342-.845 4.633-1.813" fill="none"/></svg>