<svg xmlns="http://www.w3.org/2000/svg" viewBox="0 0 32 32"><path fill="#333" d="M12.997 16.074a.997.997 0 0 0-1.001.994c0 .549.448.994 1.001.994a.997.997 0 0 0 1.001-.994.998.998 0 0 0-1.001-.994zm6.006 0a.997.997 0 0 0-1.001.994c0 .549.448.994 1.001.994a.997.997 0 0 0 1.001-.994.999.999 0 0 0-1.001-.994z"/><path stroke="#333" stroke-width="1.995" stroke-linecap="round" stroke-linejoin="round" stroke-miterlimit="10" d="M16 13.092c-5.526 0-10.006 4.529-10.009 10.118 2.255.915 3.972 3.095 4.544 5.791h11.206c.547-2.583 2.145-4.694 4.262-5.672l.006-.113c0-5.592-4.481-10.124-10.009-10.124zM5.612 21.046C1.869 18.17-.79 11.883 2.513 7.419a11.171 11.171 0 0 1 2.973-2.785c1.079-.687 2.591-1.571 3.919-1.478.576.04 1.115.542.928 1.13-.174.543-.827.841-1.243 1.177a24.925 24.925 0 0 0-2.119 1.924c-.799.813-1.723 1.665-2.193 2.716-.366.819.225 1.099.946 1.02.875-.095 1.59-.554 2.291-1.063.675-.49 1.397-1.239 2.227-1.425.867-.194.858.879.697 1.436-.29 1.002-.915 1.807-1.702 2.455a6.201 6.201 0 0 1-1.288.819c-.414.196-.941.309-1.182.746-.246.443-.15 1.073.06 1.508.283.585.784 1.023 1.272 1.443m18.316 4.004c3.743-2.876 6.402-9.163 3.099-13.627a11.171 11.171 0 0 0-2.973-2.785c-1.08-.687-2.591-1.571-3.919-1.478-.576.04-1.115.542-.928 1.13.174.544.827.841 1.243 1.178a24.925 24.925 0 0 1 2.119 1.924c.799.813 1.723 1.665 2.193 2.716.367.819-.224 1.099-.946 1.02-.875-.095-1.59-.554-2.291-1.063-.675-.49-1.397-1.239-2.227-1.425-.867-.194-.858.879-.697 1.436.29 1.002.915 1.807 1.702 2.455.394.325.828.601 1.288.819.414.196.94.309 1.182.746.246.443.15 1.073-.06 1.508-.283.585-.784 1.023-1.272 1.443" fill="none"/><path stroke="#333" stroke-width="2" stroke-linecap="round" stroke-linejoin="round" stroke-miterlimit="10" d="M2.487 24.514c1.383 1.326 3.621 1.326 5.004 0m-3.002 3.92c1.795.625 3.855-.169 4.607-1.775m18.415 1.775c-1.795.625-3.855-.169-4.607-1.775m1.604-2.145c1.383 1.326 3.621 1.326 5.004 0" fill="none"/></svg>