<svg xmlns="http://www.w3.org/2000/svg" viewBox="0 0 32 32"><path fill="#333" d="M10 16a1 1 0 1 0 0 2 1 1 0 0 0 0-2zm12 0a1 1 0 1 0 0 2 1 1 0 0 0 0-2z"/><path stroke="#333" stroke-width="2" stroke-miterlimit="10" d="M25.875 17.059c0 5.555-4.477 8.941-10 8.941s-10-3.386-10-8.941c0-5.555 4.477-10.059 10-10.059s10 4.503 10 10.059z" fill="none"/><path stroke="#333" stroke-width="2" stroke-linecap="round" stroke-miterlimit="10" d="M9.107 8.532a4.86 4.86 0 0 0-.914-1.305c-.95-.96-2.297-1.401-3.557-1.164-1.259.236-2.406 1.144-3.027 2.399-.586 1.184-.701 2.605-.547 3.949.154 1.344.558 2.634.96 3.911.137.436.28.884.556 1.226.276.343.72.557 1.106.399.357-.146.564-.552.809-.878.245-.327.652-.609.987-.408m17.413-8.129c.236-.489.545-.933.913-1.305.95-.96 2.297-1.401 3.557-1.164 1.26.236 2.406 1.145 3.028 2.399.586 1.184.701 2.605.547 3.949-.154 1.344-.558 2.634-.959 3.911-.137.436-.28.884-.556 1.226-.276.343-.72.557-1.106.399-.357-.146-.564-.552-.809-.878-.245-.327-.652-.609-.987-.408" fill="none"/><path stroke="#333" stroke-miterlimit="10" d="M18.5 19.438c0 1.691-1.119 3.062-2.5 3.062s-2.5-1.371-2.5-3.062S14.619 15.5 16 15.5s2.5 2.246 2.5 3.938z" fill="none"/></svg>