<svg xmlns="http://www.w3.org/2000/svg" viewBox="0 0 32 32"><path stroke="#333" stroke-width="2" stroke-linecap="round" stroke-linejoin="round" stroke-miterlimit="10" d="M6.104 15.934a6 6 0 1 1 6.695-7.478" fill="none"/><path stroke="#333" stroke-width="2" stroke-linecap="round" stroke-miterlimit="10" d="M19.221 8.379A6.004 6.004 0 0 1 25 4a6 6 0 0 1 .874 11.937" fill="none"/><path stroke="#333" stroke-width="2" stroke-linecap="round" stroke-miterlimit="10" d="M25.75 16.958C25.75 12.011 20.28 8 16 8s-9.75 4.011-9.75 8.958c0 3.264 4.244 9.59 7.132 12.069a4.012 4.012 0 0 0 5.236 0c2.888-2.478 7.132-8.805 7.132-12.069z" fill="none"/><path fill="#333" d="M20 20c-.552 0-1 .672-1 1.5s.448 1.5 1 1.5 1-.672 1-1.5-.448-1.5-1-1.5zm-8 0c-.552 0-1 .672-1 1.5s.448 1.5 1 1.5 1-.672 1-1.5-.448-1.5-1-1.5z"/><path stroke="#333" stroke-linecap="round" stroke-linejoin="round" stroke-miterlimit="10" d="M17.5 25.5c-.829 1.333-2.171 1.333-3 0" fill="none"/></svg>