<svg xmlns="http://www.w3.org/2000/svg" viewBox="0 0 32 32"><path fill="#333" d="M11 13c.551 0 1 .449 1 1s-.449 1-1 1c-.551 0-1-.449-1-1s.449-1 1-1m0-1a2 2 0 1 0-.001 3.999A2 2 0 0 0 11 12zm10 1c.551 0 1 .449 1 1s-.449 1-1 1c-.551 0-1-.449-1-1s.449-1 1-1m0-1a2 2 0 1 0-.001 3.999A2 2 0 0 0 21 12zm-7 10a1 1 0 1 0 0 2 1 1 0 0 0 0-2zm4 0a1 1 0 1 0 0 2 1 1 0 0 0 0-2z"/><ellipse stroke="#333" stroke-linecap="round" stroke-linejoin="round" stroke-miterlimit="10" cx="16" cy="23" rx="4.5" ry="4.502" fill="none"/><path stroke="#333" stroke-width="2" stroke-linecap="round" stroke-linejoin="round" stroke-miterlimit="10" d="M30.426 4.574c-2.303-1.109-5.292-.609-7.376 1.475a7.117 7.117 0 0 0-1.142 1.512 11.947 11.947 0 0 0-11.815.001 7.13 7.13 0 0 0-1.142-1.513C6.866 3.965 3.877 3.466 1.574 4.574.465 6.877.965 9.866 3.049 11.95a7.102 7.102 0 0 0 1.906 1.353A11.967 11.967 0 0 0 4 18c0 6.627 5.373 12 12 12s12-5.373 12-12a11.95 11.95 0 0 0-.956-4.697 7.08 7.08 0 0 0 1.906-1.353c2.085-2.084 2.584-5.073 1.476-7.376z" fill="none"/></svg>