<svg xmlns="http://www.w3.org/2000/svg" viewBox="0 0 32 32"><path fill="#333" d="M16.069 4a1 1 0 1 0 0 2 1 1 0 0 0 0-2z"/><path stroke="#333" stroke-width="2" stroke-linecap="round" stroke-linejoin="round" stroke-miterlimit="10" d="M20.776 26.608c-.627.873-1.895 1.158-2.809.63-.915-.528-1.361-1.8-.988-2.82.262-.717.868-1.263 1.557-1.53.689-.266 1.451-.273 2.172-.128 1.43.288 2.816 1.291 3.19 2.761.206.807.09 1.68-.218 2.451-.669 1.674-2.324 2.916-4.057 3.005-1.301.067-2.622.001-3.87-.389-1.248-.39-2.424-1.124-3.206-2.212-.874-1.216-1.199-2.789-1.161-4.309.038-1.52.411-3.008.818-4.468.169-.608.346-1.221.385-1.853.039-.632-.076-1.204-.437-1.713-.998.569-1.653 1.741-1.639 2.929.005.458.094.955-.136 1.345-.265.448-.875.559-1.347.374-.472-.185-.827-.594-1.131-1.014-1.553-2.149-2.207-4.984-1.761-7.636.101-.601.324-1.276.87-1.49.467-.183.998.056 1.371.403.373.347.647.797 1.01 1.155s.961.528 1.442.387c-.615-1.377-1.237-2.774-1.491-4.27-.254-1.497-.102-3.13.729-4.377.585-.878 1.468-1.507 2.417-1.909 1.189-.505 2.504-.525 3.722-.93.459.648.886 1.426 1.26 2.142a2.533 2.533 0 0 1 1.945-.677c-.596.471-.759 1.39-.501 2.123.259.732.867 1.284 1.543 1.617.676.333 1.421.474 2.158.602.116.574.232 1.17.104 1.74-.128.571-.575 1.108-1.136 1.122-.434.01-.813-.278-1.198-.487-1.072-.579-2.333-.567-3.53-.725-1.197-.158-2.495-.597-3.084-1.698-.191.393-.102.887.13 1.255.232.368.586.632.946.862 1.32.843 2.818 1.341 4.151 2.162 1.333.821 2.552 2.1 2.731 3.706.129 1.152-.305 2.311-.961 3.247-.656.936-1.522 1.684-2.379 2.421l-1.741 1.499" fill="none"/></svg>