<svg xmlns="http://www.w3.org/2000/svg" viewBox="0 0 32 32"><path stroke="#333" stroke-width="2" stroke-linejoin="round" stroke-miterlimit="10" d="M16 23.084c.805.658 1.603 2.235 2.197 3.102.559.818.675 1.955 1.494 2.574.383.289.926.39 1.328.13.387-.25.553-.77.537-1.249-.022-.66-.343-1.211-.469-1.833-.137-.682-.084-1.465-.018-2.153.127-1.33.495-2.628 1.002-3.849.792-1.907 2.325-3.106 2.862-5.242.49-1.951.386-4.083-.393-5.936-.748-1.777-1.992-3.217-3.655-4.132-1.152-.634-2.39-1.139-3.685-1.35-1.255-.205-2.308-.003-3.503.344-1.907.553-3.732 1.449-5.008 3.055A8.906 8.906 0 0 0 7.46 8.651c-.78 1.853-.884 3.985-.393 5.936.537 2.136 2.069 3.335 2.862 5.242.507 1.221.875 2.519 1.002 3.849.066.688.119 1.471-.018 2.153-.125.622-.447 1.173-.469 1.833-.016.479.151.999.537 1.249.402.26.944.16 1.328-.13.819-.618.934-1.756 1.494-2.574.594-.867 2.197-3.125 2.197-3.125z" fill="none"/><path stroke="#333" stroke-width="2" stroke-linecap="round" stroke-linejoin="round" stroke-miterlimit="10" d="M8.592 6.212c-2.003.772-4.064 1.58-5.617 3.092s-2.484 3.925-1.68 5.963c.594 1.507 1.968 2.5 3.133 3.6 1.164 1.1 2.237 2.629 1.913 4.22 1.315-1.495 2.269-3.698 1.932-5.684M23.408 6.212c2.003.772 4.064 1.58 5.617 3.092s2.484 3.925 1.68 5.963c-.594 1.507-1.968 2.5-3.133 3.6s-2.237 2.629-1.913 4.22c-1.315-1.495-2.269-3.698-1.932-5.684" fill="none"/><ellipse stroke="#333" stroke-linecap="round" stroke-linejoin="round" stroke-miterlimit="10" cx="16" cy="17.5" rx="2.5" ry="2" fill="none"/><path fill="#333" d="M13 11a1 1 0 1 0 0 2 1 1 0 0 0 0-2zm6 0a1 1 0 1 0 0 2 1 1 0 0 0 0-2z"/><path stroke="#333" stroke-linecap="round" stroke-miterlimit="10" d="M14 26.447c1.105 1.333 2.894 1.333 4 0" fill="none"/></svg>