<svg xmlns="http://www.w3.org/2000/svg" viewBox="0 0 32 32"><path stroke="#333" stroke-width="2" stroke-linejoin="round" stroke-miterlimit="10" d="M30.708 7.122c.467 1.345.384 2.837-.323 4.071-.668 1.167-1.776 2.009-2.927 2.694-.42 3.487-2.788 6.774-5.96 8.224-2.154.984-4.74 1.479-7.088 1.665-3.209.255-6.647-.115-9.51-1.677a11.712 11.712 0 0 1-2.504-1.825c-.681-.654-1.779-1.543-1.264-2.577.242-.486.64-1.382.573-1.921-.284-2.29.498-4.691 2.072-6.366 3.382-3.597 9.396-2.925 12.637.423 1.322 1.366 2.291 3.028 3.727 4.286 1.068.936 2.415 1.639 3.829 1.608.553-.012 1.124-.147 1.552-.5.428-.353.681-.957.514-1.49-.181-.577-.759-.907-1.226-1.288-1.455-1.187-2.015-3.369-1.312-5.119.189.839 1.01 1.406 1.74 1.851.73.444 1.531.858 1.985 1.587.097-.676.335-1.172.854-1.483.519-.312 1.123-.452 1.654-.742.531-.29 1.014-.813.977-1.421z" fill="none"/><path stroke="#333" stroke-linecap="round" stroke-linejoin="round" stroke-miterlimit="10" d="M1.653 18.257c2.798.895 5.346.264 8.056-.529m8.537 5.292l.02.017c.773.646 1.307 1.531 1.804 2.411.117.207.236.437.191.67-.057.293-.366.48-.662.492-.295.013-.579-.108-.848-.231a28.26 28.26 0 0 1-4.298-2.433" fill="none"/><path fill="#333" d="M7.661 11.794c-.276 0-.5.226-.5.505s.224.505.5.505.5-.226.5-.505a.503.503 0 0 0-.5-.505z"/></svg>