<svg xmlns="http://www.w3.org/2000/svg" viewBox="0 0 32 32"><path fill="#333" d="M14.5 4.005a.5.5 0 1 0 0 1 .5.5 0 0 0 0-1zm3 0a.5.5 0 1 0 0 1 .5.5 0 0 0 0-1z"/><ellipse stroke="#333" stroke-width="2" stroke-linecap="round" stroke-linejoin="round" stroke-miterlimit="10" cx="16" cy="19" rx="8" ry="10" fill="none"/><path stroke="#333" stroke-width="2" stroke-linecap="round" stroke-linejoin="round" stroke-miterlimit="10" d="M13.787 9.185c-1.031-.814-1.704-2.161-1.704-3.685 0-2.485 1.791-4.5 4-4.5s4 2.015 4 4.5c0 1.515-.665 2.855-1.685 3.67M10 12.413a9.297 9.297 0 0 1-1.469-2.419c-.189-.46-.339-.934-.555-1.383-.216-.451-.506-.883-.924-1.194-.417-.311-.978-.489-1.508-.389-.511.096-.938.441-1.189.857-.25.417-.34.899-.354 1.373-.045 1.568.753 3.138 2.095 4.124.8.586 1.769.972 2.51 1.618M22 12.413a9.266 9.266 0 0 0 1.468-2.419c.189-.46.339-.934.555-1.383.216-.45.506-.882.924-1.194.418-.311.979-.489 1.508-.389.511.096.939.441 1.189.857.25.417.34.899.354 1.373.045 1.568-.753 3.138-2.095 4.124-.799.587-1.768.972-2.509 1.618M8.799 25l-1.082 1.236c-.446.51-.896 1.024-1.229 1.616-.333.592-.545 1.276-.474 1.953.035.336.148.679.391.91.371.353.976.361 1.423.116.448-.245.755-.694.956-1.167.201-.473.312-.98.472-1.469.159-.489.376-.975.744-1.331M23.201 25l1.082 1.236c.446.51.896 1.024 1.229 1.616.333.592.545 1.276.474 1.953-.035.336-.148.679-.391.91-.371.353-.976.361-1.423.116-.448-.245-.755-.694-.956-1.167-.201-.473-.312-.98-.472-1.469-.159-.489-.376-.976-.744-1.332" fill="none"/><path stroke="#333" stroke-linecap="round" stroke-linejoin="round" stroke-miterlimit="10" d="M14 22.5L12 19l2-3.5h4l2 3.5-2 3.5zm0-7l-2.625-4.375m6.616 4.375l2.625-4.375M14 22.435l-2.458 4.042m6.449-4.042l2.458 4.042M12 19H8m16 0h-4" fill="none"/></svg>