<svg xmlns="http://www.w3.org/2000/svg" viewBox="0 0 32 32"><g stroke="#333" stroke-linejoin="round" stroke-miterlimit="10" fill="none"><path d="M30.636 28.036s-1.003-2.685-3.859-4.536c0 0 .082-.754.055-1.579 0 0 .747-9.276-7.365-15.884 0 0 .237-2.363 2.171-2.931 0 0 1.12-.175-.698-.79 0 0-.457-.174-1.204-.185-.957-.014-2.388.241-3.927 1.481 0 0-8.82-4.438-12.226 1.418 0 0-3.382.538-2.405 1.945.249.358.655.495 1.63.571 1.341.102 4.28 1.068 5.1 1.71-.105 1.577-.288 4.589.929 5.768a.055.055 0 0 0 .093-.031c.093-.529.414-1.434.557-1.886.29-.922.169-3.063 1.03-2.684.002.001 2.371 1.394 2.509 1.481a56.668 56.668 0 0 1 3.871 2.659c2.96 2.226 5.88 4.811 7.819 8.048.247.412.476.836.681 1.271 0 0-3.035 4.694-2.576 6.064 0 0 .101.431 1.318-1.099 0 0 1.768-.439 2.214-1.237 0 0 .297-.709.745-.152 0 0 1.125.91 1.995.821 0 0 1.53.832 1.689 1.562 0-.002.577.185-.146-1.805z"/><circle cx="9" cy="5" r=".5"/></g></svg>