<svg xmlns="http://www.w3.org/2000/svg" viewBox="0 0 32 32"><path d="M31 6.852L27.129 3m0 7.704L31 6.852m0 18.296L27.129 29m0-7.704L31 25.148M1 24h3.9c1.541 0 3.018-.756 4.108-1.84l2.303-2.365 1.149-1.181 8.507-8.483a11.162 11.162 0 0 1 5.452-2.988S28.022 7 28.834 7H31M1 8h2.419l1.453.142c1.548-.006 3.035.677 4.13 1.766l2.288 2.314 1.108 1.121 8.569 8.535c1.371 1.364 4.81 2.681 5.374 2.891l.167.048c.765.159 1.545.183 2.326.183H31" stroke="#333" stroke-width="2" stroke-linecap="round" stroke-miterlimit="10" fill="none"/></svg>