<svg xmlns="http://www.w3.org/2000/svg" viewBox="0 0 32 32"><path fill="#333" d="M12 11a1 1 0 1 0 0 2 1 1 0 0 0 0-2zm8 0a1 1 0 1 0 0 2 1 1 0 0 0 0-2z"/><path stroke="#333" stroke-width="2" stroke-linecap="round" stroke-linejoin="round" stroke-miterlimit="10" d="M16.484 1.004c2.694-.071 5.404.874 7.487 2.611s3.522 4.254 3.978 6.953c.175 1.035.212 2.104.559 3.094.419 1.197 1.261 2.192 1.801 3.338.902 1.915.878 4.173.184 6.149-.357 1.017-.847 1.717-1.668 2.42-.914.783-1.976 1.298-3.055 1.803-1.22.571-2.493 1.049-3.803 1.369a25.103 25.103 0 0 1-11.932 0c-1.678-.41-3.306-1.069-4.828-1.882-1.722-.919-3.121-1.962-3.752-3.869-.641-1.935-.64-4.126.238-5.99.54-1.147 1.381-2.141 1.801-3.338.347-.99.384-2.059.559-3.094.455-2.699 1.894-5.215 3.977-6.953s4.792-2.683 7.487-2.611h.967z" fill="none"/><circle stroke="#333" stroke-linecap="round" stroke-linejoin="round" stroke-miterlimit="10" cx="11" cy="12" r="3.5" fill="none"/><circle stroke="#333" stroke-linecap="round" stroke-linejoin="round" stroke-miterlimit="10" cx="21" cy="12" r="3.5" fill="none"/><path stroke="#333" stroke-linecap="round" stroke-linejoin="round" stroke-miterlimit="10" d="M10.282 21.573c-.43-1.079-1.352-1.763-2.06-1.527s-.934 1.301-.504 2.38c.43 1.079 1.352 1.763 2.06 1.527.708-.235.934-1.301.504-2.38zm11.436 0c.43-1.079 1.352-1.763 2.06-1.527s.934 1.301.504 2.38c-.43 1.079-1.352 1.763-2.06 1.527-.708-.235-.934-1.301-.504-2.38zM4.569 8.5c-1.626-.984-2.447-3.114-1.9-4.926S5.081.434 6.984.502C8.032.54 9.155 1.069 9.5 2.054M27.431 8.5c1.626-.984 2.447-3.114 1.9-4.926-.547-1.812-2.413-3.14-4.315-3.072-1.048.038-2.171.567-2.516 1.552m-9 27.852V31.5h-3v-2.094m11-.062V31.5h-3v-1.562" fill="none"/></svg>