<svg xmlns="http://www.w3.org/2000/svg" viewBox="0 0 32 32"><path stroke="#333" stroke-width="2" stroke-linecap="round" stroke-miterlimit="10" d="M16 7V1" fill="none"/><path stroke="#333" stroke-width="2" stroke-miterlimit="10" d="M16 19v-6" fill="none"/><path stroke="#333" stroke-width="2" stroke-linecap="round" stroke-miterlimit="10" d="M16 31v-6" fill="none"/><path fill="#333" d="M20 8v4h-8V8h8m1-2H11a1 1 0 0 0-1 1v6a1 1 0 0 0 1 1h10a1 1 0 0 0 1-1V7a1 1 0 0 0-1-1zm2 14v4H9v-4h14m1-2H8a1 1 0 0 0-1 1v6a1 1 0 0 0 1 1h16a1 1 0 0 0 1-1v-6a1 1 0 0 0-1-1z"/></svg>