<svg xmlns="http://www.w3.org/2000/svg" viewBox="0 0 32 32"><path fill="#333" d="M12 14.998a1 1 0 1 0 0 2 1 1 0 0 0 0-2z"/><path stroke="#333" stroke-width="2" stroke-linecap="round" stroke-linejoin="round" stroke-miterlimit="10" d="M31 27.998c-1.886-4.984-5.199-9.466-9.482-12.829-1.776-1.394-3.78-2.625-6.039-3.027-2.84-.506-5.804.371-8.231 1.87C4.821 15.511 2.856 17.592 1 19.71c3.648-.152 7.458-.275 10.772 1.191.701.31 1.388.694 2.153.796 1.04.138 2.141-.309 2.761-1.119.62-.81.731-1.95.279-2.856M5 12.998L6.869 7.39c.851.467 1.489 1.233 1.747 2.094.936-1.831.895-3.922.837-5.933 1.33.718 2.369 1.854 2.89 3.16 1.28-1.478 1.902-3.395 1.706-5.253.37-.16.833-.011 1.118.253s.433.618.573.963l1.098 2.697a5.826 5.826 0 0 0 1.64-2.634c.109-.38.178-.777.387-1.122.209-.345.603-.638 1.043-.616l.289 3.573c.032.397.131.877.552 1.01.436.138.864-.207 1.146-.534a10.277 10.277 0 0 0 2.146-3.967c2.007 1.666 3.117 4.155 2.941 6.594-.071.979-.391 2.021-1.261 2.622-.769.532-1.828.613-2.786.461-.958-.152-1.857-.508-2.782-.778l-.098-.028M7.871 20.998a51.494 51.494 0 0 0 .152 5.314c.111 1.348.022 3.413 1.228 4.354 1.236.964 2.567-.341 3.214-1.355a6.097 6.097 0 0 0 .771-1.8 4.9 4.9 0 0 0 .148-.994c.012-.305.056-.641-.115-.912-.048.236.46.504.636.587.824.39 1.9.134 2.672-.268.871-.454 1.585-1.184 2.146-1.98a7.043 7.043 0 0 0 .864-1.611c.111-.301.201-.609.27-.922" fill="none"/><path stroke="#333" stroke-linecap="round" stroke-linejoin="round" stroke-miterlimit="10" d="M5.837 15.196A12.648 12.648 0 0 1 7 19.058" fill="none"/></svg>