<svg xmlns="http://www.w3.org/2000/svg" viewBox="0 0 32 32"><path fill="#333" d="M11 16a1 1 0 1 0 0 2 1 1 0 0 0 0-2zm10 0a1 1 0 1 0 0 2 1 1 0 0 0 0-2z"/><path stroke="#333" stroke-width="2" stroke-linecap="round" stroke-linejoin="round" stroke-miterlimit="10" d="M16 31c1.208 0 2.127-.032 2.758-.82.538-.671.681-1.561.745-2.411.064-.85.07-1.725.394-2.516.536-1.306 1.826-2.141 3.043-2.892l3.139-2.239 1.194.813c.595-1.028.807-2.351.43-3.473l1.296.164-.801-1.776c-.331-.734-.852-1.533-.628-2.305 1.131-3.911.596-8.256-1.452-11.793-.175-.302-.391-.623-.732-.721-.476-.138-.943.215-1.302.551-1.728 1.623-3.384 3.447-4.637 5.444h-6.896c-1.253-1.997-2.909-3.821-4.637-5.444-.358-.337-.825-.689-1.301-.551-.341.098-.557.418-.732.721-2.049 3.537-2.584 7.882-1.452 11.793.223.772-.297 1.571-.628 2.305l-.8 1.776 1.296-.164c-.378 1.122-.165 2.445.43 3.473l1.194-.813 3.139 2.239c1.217.752 2.507 1.586 3.043 2.892.324.791.331 1.666.394 2.516.064.85.207 1.74.745 2.411.631.788 1.55.82 2.758.82z" fill="none"/><path stroke="#333" stroke-linecap="round" stroke-linejoin="round" stroke-miterlimit="10" d="M13 27.98c1.658-1.333 4.342-1.333 6 0m-9.597-9.139a2.764 2.764 0 0 1-1.707-1.538 2.632 2.632 0 0 1 .117-2.241c.516-.956 1.64-1.56 2.767-1.562 1.127-.002 2.22.565 2.902 1.422.61.768.899 1.733.986 2.693.087.96-.016 1.926-.118 2.885m8.247-1.659a2.765 2.765 0 0 0 1.707-1.537 2.632 2.632 0 0 0-.117-2.241c-.516-.956-1.64-1.56-2.767-1.562-1.127-.002-2.22.565-2.902 1.422-.61.768-.899 1.733-.986 2.693s.016 1.926.118 2.885" fill="none"/></svg>