<svg xmlns="http://www.w3.org/2000/svg" viewBox="0 0 32 32"><path stroke="#333" stroke-width="2" stroke-linejoin="round" stroke-miterlimit="10" d="M30.884 3.292l-.075-.436-.033-.162c-.078-.423-.435-.72-.834-.693a9.308 9.308 0 0 0-2.262.435 11.792 11.792 0 0 0-4.134 2.297l-.103.078c-.092.068-.203.148-.312.26a20.52 20.52 0 0 0-4.125-.952A25.316 25.316 0 0 0 16 3.924c-.952.002-1.941.065-3.006.196a20.448 20.448 0 0 0-4.094.94l-.031.011a2.312 2.312 0 0 0-.312-.26l-.103-.078A11.776 11.776 0 0 0 4.32 2.436a9.26 9.26 0 0 0-2.262-.434c-.399-.027-.756.27-.834.693l-.033.162-.075.436a15.601 15.601 0 0 0 .055 4.2c.256 1.732.738 3.327 1.432 4.747-.345.856-.562 1.813-.662 2.92a12.207 12.207 0 0 0 1.132 6.404 11.053 11.053 0 0 0 3.236 4.04c1.277.991 2.48 1.446 3.922 1.917C11.673 27.989 13.175 29.98 16 30c2.812-.02 4.327-2.011 5.769-2.48 1.442-.471 2.644-.927 3.922-1.917a11.044 11.044 0 0 0 3.236-4.04 12.205 12.205 0 0 0 1.132-6.404c-.1-1.107-.318-2.064-.662-2.92.694-1.419 1.176-3.015 1.432-4.747a15.6 15.6 0 0 0 .055-4.2z" fill="none"/><path stroke="#333" stroke-linejoin="round" stroke-miterlimit="10" d="M19.652 12.652c1.037-1.037 2.477-1.373 3.707-1.011.362 1.23.026 2.671-1.011 3.707-1.037 1.037-2.477 1.373-3.707 1.011-.362-1.23-.026-2.67 1.011-3.707zm-7.304 0c-1.037-1.037-2.477-1.373-3.707-1.011-.362 1.23-.026 2.671 1.011 3.707 1.037 1.037 2.477 1.373 3.707 1.011.362-1.23.026-2.67-1.011-3.707z" fill="none"/><path stroke="#333" stroke-linecap="round" stroke-linejoin="round" stroke-miterlimit="10" d="M19.5 23.5c-1.935 0-3.5-1.342-3.5-3 0 1.658-1.565 3-3.5 3" fill="none"/></svg>