<svg xmlns="http://www.w3.org/2000/svg" viewBox="0 0 32 32"><path fill="#333" d="M11.124 18l.431.01c.253.011.452.027.626.051.227.031.477.08.787.155.5.121 1.122.271 1.82.343a10.172 10.172 0 0 0 1.827.038c.371-.026.679-.058.97-.103.429-.066.857-.138 1.284-.214l.21-.038c.285-.052.554-.102.789-.123l.07-.006.476-.036.209-.003h.328c.233 0 .491.019.812.058.255.032.528.083.859.16.499.117 1 .266 1.425.396l.234.072a45.4 45.4 0 0 1-.751.701c-.204.185-.411.368-.622.545-.515.43-1.1.801-1.739 1.101a8.385 8.385 0 0 1-1.19.45 9.683 9.683 0 0 1-1.231.275 8.504 8.504 0 0 1-.658.082l-.24.02-.355.028-.346.018-.229.011-.102.008h-.353l-.088-.007-.085-.005-.36-.018c-.313-.01-.625-.024-.936-.053l-.117-.011-.633-.064a11.886 11.886 0 0 1-2.459-.579 15.502 15.502 0 0 1-1.485-.613 5.081 5.081 0 0 1-.546-.3 8.935 8.935 0 0 1-.897-.652 22.432 22.432 0 0 1-1.177-1.037c.346-.11.694-.217 1.045-.313.33-.09.623-.158.894-.208A8.34 8.34 0 0 1 11.124 18m0-2a11.41 11.41 0 0 0-1.014.051c-.286.029-.57.069-.851.121a13.09 13.09 0 0 0-1.058.246c-.439.12-.872.255-1.304.394-.657.211-1.323.393-2.003.524l-.561.1c-.148.027-.294.06-.433.114a1.034 1.034 0 0 0-.177.086c-.123.079-.13.174-.024.272a.58.58 0 0 0 .093.07c.363.22.69.48 1.008.751.431.368.84.757 1.251 1.144.501.471 1.006.937 1.541 1.374.349.285.713.554 1.099.796.244.153.496.293.759.417.546.256 1.102.49 1.674.69a13.955 13.955 0 0 0 2.877.676l.807.081c.352.033.706.049 1.06.06l.389.021.038.011h.682l.048-.011.6-.031.619-.049c.273-.021.544-.058.814-.101a11.39 11.39 0 0 0 1.488-.333c.507-.15.998-.335 1.473-.558a10.01 10.01 0 0 0 2.171-1.377c.234-.195.462-.396.686-.6.277-.252.55-.509.82-.767.362-.345.733-.681 1.118-1.003.411-.343.84-.665 1.293-.958l.254-.149.175-.109c.118-.089.117-.172-.002-.259a1.136 1.136 0 0 0-.32-.152 2.35 2.35 0 0 0-.389-.086l-1.019-.152a10.215 10.215 0 0 1-1.3-.263l-.875-.267a24.287 24.287 0 0 0-1.554-.431 10.174 10.174 0 0 0-1.07-.198 8.709 8.709 0 0 0-1.059-.074h-.03l-.297-.001-.294.005-.639.049c-.396.036-.784.115-1.174.185-.41.074-.82.143-1.232.206a9.87 9.87 0 0 1-1.381.105l-.377-.008-.559-.047c-.519-.053-1.024-.172-1.528-.294a9.704 9.704 0 0 0-.989-.193 9.072 9.072 0 0 0-.808-.067 14.75 14.75 0 0 0-.516-.011zm1.44-6l.234.019.143.021c.248.041.494.123.752.251.165.082.335.185.521.316.176.125.335.222.499.305a3.291 3.291 0 0 0 1.961.333c.386-.055.762-.17 1.15-.351.333-.155.617-.331.879-.498a2.72 2.72 0 0 1 .349-.187c.207-.091.413-.145.629-.166l.236-.012a3.22 3.22 0 0 1 .59.071c.318.071.644.191.995.368.446.224.886.514 1.346.886.415.335.83.725 1.267 1.188a11.272 11.272 0 0 0-.934-.223 8.865 8.865 0 0 0-1.674-.165l-.505.016a7.029 7.029 0 0 0-2.483.613 4.5 4.5 0 0 0-.26.13l-.047.025a3.758 3.758 0 0 1-.91.292c-.19.038-.36.061-.521.07a6.215 6.215 0 0 1-.536.006 4.68 4.68 0 0 1-1.286-.232 5.688 5.688 0 0 1-.657-.257 6.352 6.352 0 0 0-1.52-.48 8.662 8.662 0 0 0-1.507-.156l-.078-.003-.248-.006-.148.003-.05.002c-.283.011-.604.025-.941.063a8.487 8.487 0 0 0-1.454.29l-.13.04A10.221 10.221 0 0 1 9.95 10.99a6.016 6.016 0 0 1 1.187-.681c.431-.182.785-.275 1.116-.292l.179-.017h.132m.17-2h-.495l-.091.019c-.628.033-1.219.205-1.791.447a8.032 8.032 0 0 0-1.579.902 12.336 12.336 0 0 0-2.45 2.357l-.331.386a75.796 75.796 0 0 1-2.027 2.255c-.337.356-.681.706-1.035 1.046a10.23 10.23 0 0 1-1.565 1.242l-1.127.729a.466.466 0 0 0-.186.213L0 17.661v.114l.038.025c.055.101.152.141.258.161A2.016 2.016 0 0 0 .687 18c.183 0 .365-.023.545-.053.334-.054.658-.142.976-.253l.727-.264c.72-.273 1.425-.579 2.104-.94.441-.234.866-.494 1.29-.755.418-.257.835-.514 1.272-.741.423-.22.859-.409 1.319-.544a6.613 6.613 0 0 1 1.117-.222c.281-.032.564-.042.846-.054l.066-.001.299.009c.39.005.776.047 1.158.12a4.43 4.43 0 0 1 1.05.328c.29.135.588.252.894.35a6.651 6.651 0 0 0 2.096.33l.445-.012c.27-.015.539-.052.804-.106a5.771 5.771 0 0 0 1.39-.453l.26-.133c.564-.256 1.16-.4 1.78-.438a6.79 6.79 0 0 1 1.675.116c.513.099 1.012.244 1.502.42.826.297 1.621.66 2.381 1.09.526.297 1.047.601 1.565.91a11.06 11.06 0 0 0 1.903.921c.379.138.764.255 1.169.298a2.476 2.476 0 0 0 .459.005c.087-.007.17-.026.22-.108v-.228l-.054-.073a1.615 1.615 0 0 0-.415-.401l-.364-.232a10.11 10.11 0 0 1-1.19-.895c-.421-.36-.821-.742-1.213-1.133-.48-.478-.941-.971-1.368-1.493l-.599-.763c-.35-.445-.714-.879-1.1-1.296a15.222 15.222 0 0 0-1.591-1.507 9.479 9.479 0 0 0-1.704-1.117 6.293 6.293 0 0 0-1.46-.534 5.312 5.312 0 0 0-.744-.107 3.742 3.742 0 0 0-.28-.01l-.426.021a4.02 4.02 0 0 0-1.244.326 4.574 4.574 0 0 0-.618.33c-.21.134-.421.266-.649.371a2.084 2.084 0 0 1-.591.184 1.19 1.19 0 0 1-.177.013 1.31 1.31 0 0 1-.597-.15 1.966 1.966 0 0 1-.248-.153 5.84 5.84 0 0 0-.789-.476 4.699 4.699 0 0 0-1.31-.431 2.943 2.943 0 0 0-.409-.047L12.734 8z"/></svg>