<svg xmlns="http://www.w3.org/2000/svg" viewBox="0 0 32 32"><path fill="#333" d="M16.02 8.615c1.582 0 2.823.366 3.405 1.004.153.167.349.477.295 1.228-.048.656-.514 1.155-1.335 1.98-.482.485-1.029 1.034-1.49 1.704-1.418 2.058-1.386 4.517-1.361 6.492l.007.706c.003 1.775.262 3.486.512 5.139l.091.605c.171 1.149-.321 1.695-.706 2.006-.393.318-1.066.531-1.674.531-.239 0-.824-.037-1.093-.377-.101-.128-.187-.35-.241-.624-.073-.368-.096-.806-.072-1.377.027-.64.108-1.296.184-1.852l.142-.985.154-1.066c.089-.657.175-1.366.193-2.096a9.263 9.263 0 0 0-.014-.827c-.114-1.741-.623-3.328-1.116-4.863a37.7 37.7 0 0 1-.559-1.843c-.405-1.515-.725-3.179-.038-4.038.361-.452.945-.799 1.734-1.032a11.026 11.026 0 0 1 2.982-.415m0-2c-1.286 0-2.558.205-3.55.499-1.062.314-2.044.845-2.728 1.7-1.307 1.633-.826 3.959-.333 5.804.556 2.08 1.471 4.152 1.612 6.32.014.215.016.43.01.646a17.141 17.141 0 0 1-.176 1.877l-.296 2.05a21.47 21.47 0 0 0-.201 2.04c-.026.616-.012 1.241.108 1.848.104.528.296 1.047.632 1.474.629.798 1.631 1.139 2.663 1.139 1.074 0 2.181-.369 2.931-.976 1.22-.986 1.651-2.355 1.427-3.856-.269-1.807-.578-3.62-.581-5.453-.003-2.004-.199-4.318 1.001-6.059 1.086-1.576 3.018-2.539 3.173-4.673.082-1.13-.19-2.04-.812-2.722-1.114-1.225-3.012-1.658-4.88-1.658zM21.949 1c.086 0 .183.018.266.048.432.162.621.666.697.955.147.557.111 1.218-.102 1.862-.343 1.038-1.078 1.791-1.748 1.791a.733.733 0 0 1-.268-.052c-.417-.158-.607-.637-.685-.915-.162-.562-.129-1.237.094-1.905C20.541 1.75 21.276 1 21.949 1m0-1c-1.127 0-2.213.997-2.697 2.472-.283.851-.322 1.737-.105 2.493.219.782.677 1.341 1.292 1.574.197.076.409.116.622.116 1.122 0 2.207-.997 2.697-2.477.272-.822.317-1.685.12-2.431C23.666.931 23.203.349 22.565.11a1.847 1.847 0 0 0-.616-.11zm-4.725 1.842c.117.059.35.528.207 1.222-.114.58-.444.884-.522.905-.013-.003-.072-.039-.137-.157-.141-.251-.178-.665-.1-1.067.131-.634.448-.902.552-.903m0-.999c-.709 0-1.325.704-1.531 1.699-.126.646-.054 1.292.206 1.758.18.329.448.554.752.635l.234.03c.677 0 1.335-.734 1.526-1.709.234-1.138-.186-2.188-.949-2.387a1.134 1.134 0 0 0-.238-.026zm-3.316 1.77c.108.1.275.377.304.813a1.31 1.31 0 0 1-.123.692l-.023-.023c-.115-.116-.259-.394-.289-.78-.025-.373.066-.606.131-.702m-.025-1.033h-.011c-.713.035-1.156.825-1.093 1.799.043.567.25 1.09.575 1.418.224.232.496.357.766.357h.013a.782.782 0 0 0 .196-.029c.564-.155.945-.917.881-1.774-.066-.995-.65-1.771-1.327-1.771zm-2.744 2.251c.078.045.246.214.328.547.074.309.026.554-.052.694a.34.34 0 0 1-.014.023c-.095-.06-.261-.239-.331-.525-.054-.23-.048-.463.009-.622l.06-.117m-.013-1.01a.91.91 0 0 0-.251.035c-.328.088-.589.363-.731.736a2.15 2.15 0 0 0-.049 1.206c.186.752.758 1.318 1.33 1.318a.776.776 0 0 0 .234-.03 1.07 1.07 0 0 0 .638-.542c.214-.385.262-.897.142-1.398-.19-.776-.732-1.325-1.313-1.325zM8.897 4.785l-.218.036c-.251.07-.469.297-.583.606-.11.291-.126.63-.045.979.154.618.611 1.073 1.091 1.073l.179-.024c.29-.081.508-.303.622-.612.109-.291.12-.64.038-.979-.152-.624-.61-1.079-1.084-1.079z"/></svg>