<svg xmlns="http://www.w3.org/2000/svg" viewBox="0 0 32 32"><path d="M13.545 18.582c.487 1.685.788 4.676 1.325 5.561.253.417.471.893.788 1.264.244.287.577.513.946.544.317.027.638-.096.882-.307.406-.351.521-.878.69-1.37.172-.503.337-.957.465-1.475.513-2.078 1.29-4.799 2.322-4.799h.075c.441 0 .853.056 1.26 1.033.433 1.039.765 2.226 1.087 3.578.216.905.419 1.655.65 2.397.28.901.805.983 1.093.983.602 0 1.253-.625 1.989-1.855.589-.984 1.209-4.898 1.793-6.44 1.308-3.459 2.09-4.411 2.09-6.834 0-1.782-.551-3.477-1.551-4.761C28.394 4.746 26.941 4 25.358 4c-1.243 0-2.555.829-3.513 1.435-.229.145-.686.495-.845.495m1.696.97c-.158 0-2.309-1.32-2.538-1.465C19.203 4.83 17.895 4 16.642 4c-1.583 0-3.036.746-4.091 2.101a6.996 6.996 0 0 0-.939 1.62m2.675 9.36L5 21l-4 8m6.5-18.5c-1.658 0-3 1.342-3 3" stroke="#333" stroke-linecap="round" stroke-linejoin="round" stroke-miterlimit="10" fill="none"/></svg>