<svg xmlns="http://www.w3.org/2000/svg" viewBox="0 0 32 32"><path stroke="#333" stroke-width="2" stroke-linecap="round" stroke-linejoin="round" stroke-miterlimit="10" d="M26.128 17.56c-.701.526-1.502.901-2.372.983l-.177.017a1.96 1.96 0 0 1-1.213-.284L18.681 16l3.498-2.161a2.603 2.603 0 0 1 1.616-.378l.518.049c.605.057 1.152.345 1.603.755a2.946 2.946 0 0 0 4.031-.066 2.974 2.974 0 0 0 .742-3.119c-.659-1.85-2.772-2.531-4.339-1.562a2.992 2.992 0 0 0 .585-4.603 2.924 2.924 0 0 0-3.098-.747 2.982 2.982 0 0 0-1.944 3.319c.148.868.117 1.756-.205 2.575l-.066.167a1.979 1.979 0 0 1-.801.96l-4.964 3.066-4.964-3.066a1.979 1.979 0 0 1-.801-.96l-.066-.167c-.323-.819-.354-1.708-.206-2.575a2.985 2.985 0 0 0-1.944-3.319 2.926 2.926 0 0 0-3.098.747 2.991 2.991 0 0 0 .584 4.603 2.95 2.95 0 0 0-4.339 1.561 2.973 2.973 0 0 0 .742 3.119 2.946 2.946 0 0 0 4.031.066c.451-.41.998-.698 1.603-.755l.518-.049a2.612 2.612 0 0 1 1.615.378L13.031 16l-3.684 2.276a1.963 1.963 0 0 1-1.214.284l-.177-.017c-.87-.082-1.671-.457-2.372-.983a2.945 2.945 0 0 0-3.819.241 2.974 2.974 0 0 0-.742 3.119 2.951 2.951 0 0 0 4.339 1.561 2.99 2.99 0 0 0-.584 4.602 2.924 2.924 0 0 0 3.098.747 2.984 2.984 0 0 0 1.944-3.319c-.148-.868-.117-1.756.205-2.575l.066-.167c.157-.399.438-.736.801-.96l4.964-3.066 4.964 3.066c.363.224.644.561.801.96l.066.167c.322.818.353 1.707.205 2.575a2.984 2.984 0 0 0 1.944 3.319 2.927 2.927 0 0 0 3.098-.747 2.99 2.99 0 0 0-.584-4.602 2.95 2.95 0 0 0 4.339-1.561 2.973 2.973 0 0 0-.742-3.119 2.946 2.946 0 0 0-3.819-.241z" fill="none"/></svg>