<svg xmlns="http://www.w3.org/2000/svg" viewBox="0 0 32 32"><path d="M7.45 28.256a6.676 6.676 0 0 0 3.162 2.364c2.726.966 5.918.01 7.996-1.98 2.079-1.99 3.132-4.86 3.345-7.711.214-2.851-.344-5.706-1.102-8.465-.317-1.156-.679-2.32-1.337-3.326-.659-1.006-1.659-1.848-2.85-2.075-2.047-.389-3.969 1.076-5.333 2.633a21.839 21.839 0 0 0-5.16 11.174c-.369 2.535-.226 5.301 1.279 7.386zm6.05-12.571c2.157.837 4.535 1.016 6.8.598 1.722-.318 4.313-.993 5.429-2.49.743-.996.829-2.347.744-3.598-.217-3.221-.112-6.459-.132-9.695m-7.755 16c-2.779 2.242-4.4 5.78-4.254 9.289m1.451-5.83c.104 1.109.458 2.171 1 3" stroke="#333" stroke-linecap="round" stroke-linejoin="round" stroke-miterlimit="10" fill="none"/></svg>