<svg xmlns="http://www.w3.org/2000/svg" viewBox="0 0 32 32"><path d="M4.191 13.925c.286-3.921 2.044-7.93 5.099-10.345 3.058-2.419 7.25-3.209 10.931-2.062 1.99.62 3.831 1.785 5.21 3.399 2.306 2.699 3.124 6.642 2.19 10.142-1.135 4.255-4.558 6.604-8.477 7.755.128 2.302-.135 4.21-1.87 5.865-2.142 2.044-6.05 2.463-8.835 2.284-1.002-.064-2.018-.368-2.786-1.04-.875-.765-1.345-1.937-1.508-3.113-.193-1.392-.304-3.702.408-4.97.556-.99 1.781-1.322 1.768-2.652-.012-1.188-.871-1.57-1.483-2.383-.567-.753-.713-1.815-.657-2.745l.01-.135zm.426 10.751a25.771 25.771 0 0 1 3.504-.019c1.064.067 2.1.168 3.103-.294.962-.444 1.17-1.561 1.623-2.418.779-1.475 2.673-4.497 4.772-3.461 1.472.726 1.181 2.913 1.049 4.225m-7.929-11.968c.991.391 1.687 1.26 1.756 2.204.081 1.117-.778 2.42-2.158 2.545-1.47.133-2.552-1.196-2.779-2.314-.369-1.813 1.066-3.27 3.181-2.435z" stroke="#333" stroke-linecap="round" stroke-linejoin="round" stroke-miterlimit="10" fill="none"/></svg>