<svg xmlns="http://www.w3.org/2000/svg" viewBox="0 0 32 32"><path d="M8.011 9.715A5.5 5.5 0 0 0 6.5 9.5a5.5 5.5 0 0 0-.606 10.965A5.463 5.463 0 0 0 5.5 22.5 5.5 5.5 0 0 0 11 28c1.66 0 3.144-.739 4.153-1.901a5.496 5.496 0 0 0 10.137-1.11l.21.011a5.5 5.5 0 0 0 5.5-5.5 5.494 5.494 0 0 0-3.104-4.945 5.5 5.5 0 0 0-8.908-5.287A5.495 5.495 0 0 0 8 9.5l.011.215a5.494 5.494 0 0 1 3.978 5.07M10.5 17.5c-.796.683-1.32 1.924-1.316 3m.294-1.496a3.202 3.202 0 0 0-2.275-1.814m16.559-4.69c.448 1.089.59 2.107.186 3.255-.324.92-.883 1.712-1.448 2.46m1.469-2.297c.589.318 1.057.898 1.31 1.574.236.629.285 1.345.137 2.007" stroke="#333" stroke-linecap="round" stroke-linejoin="round" stroke-miterlimit="10" fill="none"/></svg>