<svg xmlns="http://www.w3.org/2000/svg" viewBox="0 0 32 32"><path d="M11.984 11.217C11.366 10.413 11 9.34 11 8c0-3.314 5-7 5-7s5 3.686 5 7c0 1.348-.371 2.427-.996 3.232M12 11.423v5m8-5v5m-11.5-5.84C8.5 12.516 7.381 13.5 6 13.5s-2.5-.984-2.5-2.917L6 7s2.5 1.65 2.5 3.583zM5 13.5v3.25m2-3.25v3.25m21.5-6.167c0 1.933-1.119 2.917-2.5 2.917s-2.5-.984-2.5-2.917L26 7s2.5 1.65 2.5 3.583zM25 13.5v3.25m2-3.25v3.25M12.5 11h7M1 17v14h11v-5.408c0-1.642 1.114-3.175 2.969-4.086L16 21l1.031.507c1.855.91 2.969 2.444 2.969 4.085V31h11V17H1zm7.5 9.5h-5v-.833c0-1.082.468-2.135 1.333-3L6 21.5l1.167 1.167c.865.865 1.333 1.918 1.333 3v.833zm20 0h-5v-.833c0-1.082.468-2.135 1.333-3L26 21.5l1.167 1.167c.865.865 1.333 1.918 1.333 3v.833z" stroke="#333" stroke-linecap="round" stroke-linejoin="round" stroke-miterlimit="10" fill="none"/></svg>