<svg xmlns="http://www.w3.org/2000/svg" viewBox="0 0 32 32"><path d="M6.761 2.557a18.076 18.076 0 0 1 1.625 5.417c.149 1.109-.085 1.667-.823 2.412a9.01 9.01 0 0 0-1.337 1.769c-1.158 1.969-1.497 4.282-1.015 6.515.513 2.372 1.595 4.628 3.501 5.983.46 1.264 1.386 2.271 2.44 3.039 1.055.768 2.242 1.294 3.421 1.821 1.493.668 3.021 1.336 4.638 1.466 1.617.13 3.367-.377 4.391-1.707.839-1.09 1.081-2.566 1.104-3.971.077-4.674-2.063-9.331-5.584-12.155a20.981 20.981 0 0 1 7.876 2.833m-14.845-4.467c.186-2.452 1.547-4.773 3.542-6.037.472-1.467.33-3.187-.484-4.475m-6.17 23.226c.35-2.086.22-4.114.804-6.11m6.146-12.84c1.033.449 2.311.539 3.43.241 1.119-.298 2.061-.978 2.529-1.827" stroke="#333" stroke-linecap="round" stroke-linejoin="round" stroke-miterlimit="10" fill="none"/></svg>