<svg xmlns="http://www.w3.org/2000/svg" viewBox="0 0 32 32"><path d="M26.815 13.882c-1.309-.581-2.528-1.378-3.932-1.712a6.387 6.387 0 0 0-3.746.251c-1.177.456-2.191 1.276-2.846 2.302a4.092 4.092 0 0 0-.29.542 4.147 4.147 0 0 0-.29-.542c-.655-1.026-1.669-1.846-2.846-2.302a6.388 6.388 0 0 0-3.746-.251c-1.404.334-2.623 1.131-3.932 1.712s-2.873.943-4.187.371c.41 1.718 1.586 3.242 3.128 4.243S7.558 19.989 9.433 20a11.364 11.364 0 0 0 3.796-.63c.768-.268 1.516-.628 2.092-1.175.282-.267.516-.585.679-.929.162.344.397.662.679.929.576.547 1.325.907 2.092 1.175 1.211.423 2.504.637 3.796.63 1.875-.011 3.763-.502 5.305-1.503 1.542-1.001 2.718-2.525 3.128-4.243-1.314.571-2.876.209-4.185-.372zM16 15v2" stroke="#333" stroke-width="2" stroke-linejoin="round" stroke-miterlimit="10" fill="none"/></svg>