<svg xmlns="http://www.w3.org/2000/svg" viewBox="0 0 32 32"><path fill="#333" d="M20.049 10c.648 0 1.27.11 1.798.317.581.228.828.487.907.588.371.473.935.755 1.536.767.913.018 1.781.288 2.382.74.25.188.669.574.669 1.045a.894.894 0 0 1-.048.286 1.154 1.154 0 0 1-.165.316 2 2 0 0 0 .784 2.984 4.392 4.392 0 0 1 1.561 1.439c.34.527.527 1.104.527 1.624 0 1.102-.868 1.898-1.386 2.274-.267.195-.722.274-1.569.274l-.873-.016c-.354-.009-.718-.019-1.091-.019l-.546.007c-.354.01-.674.044-.978.104l-5.339 1.055c-.717.143-1.464.215-2.218.215s-1.501-.072-2.219-.214l-5.338-1.055a5.865 5.865 0 0 0-.978-.104 20.086 20.086 0 0 0-.546-.007c-.373 0-.738.01-1.092.019l-.873.016c-.847 0-1.301-.079-1.569-.274C2.868 22.004 2 21.208 2 20.106c0-.52.187-1.097.528-1.623a4.386 4.386 0 0 1 1.575-1.446l.13-.067a2.002 2.002 0 0 0 .643-2.909 1.228 1.228 0 0 1-.166-.318.894.894 0 0 1-.048-.286c0-.471.419-.857.668-1.045.6-.453 1.469-.722 2.382-.74a2.003 2.003 0 0 0 1.536-.766c.079-.101.325-.36.906-.588A4.955 4.955 0 0 1 11.951 10c.597 0 1.176.095 1.675.273.547.196.832.43.953.552.375.379.886.592 1.419.592H16c.533 0 1.043-.213 1.419-.59.122-.123.408-.358.956-.554A5.019 5.019 0 0 1 20.049 10m0-2c-.853 0-1.654.142-2.347.39-.694.248-1.28.602-1.702 1.027-.421-.425-1.006-.779-1.7-1.027A7.015 7.015 0 0 0 11.951 8c-.917 0-1.788.165-2.528.456-.741.291-1.352.709-1.749 1.216-1.389.027-2.642.46-3.547 1.143-.906.683-1.464 1.615-1.464 2.642 0 .31.051.618.15.916.099.298.246.585.439.854a.562.562 0 0 1-.043.021 6.409 6.409 0 0 0-2.36 2.15C.301 18.243 0 19.185 0 20.106c0 1.506.828 2.887 2.209 3.892.762.554 1.693.657 2.745.657l1.964-.035.489.007c.219.006.438.026.647.067l5.339 1.055c.85.167 1.729.251 2.607.251.878 0 1.757-.084 2.607-.252l5.339-1.055c.21-.042.428-.061.647-.067l.489-.007 1.964.035c1.053 0 1.983-.102 2.745-.657C31.172 22.993 32 21.612 32 20.106c0-.921-.302-1.863-.848-2.709a6.411 6.411 0 0 0-2.316-2.128l-.043-.022a.562.562 0 0 1-.043-.021c.193-.269.341-.556.439-.854a2.9 2.9 0 0 0 .149-.916c0-1.027-.559-1.96-1.465-2.642-.906-.683-2.159-1.116-3.547-1.143-.397-.507-1.009-.925-1.75-1.217A7.005 7.005 0 0 0 20.049 8z"/><path stroke="#333" stroke-width="2" stroke-linejoin="round" stroke-miterlimit="10" d="M16 10.3v15" fill="none"/></svg>