<svg xmlns="http://www.w3.org/2000/svg" viewBox="0 0 32 32"><path d="M4.594 17.552c0 .57 1.748 1.032 3.904 1.032 2.156 0 3.904-.462 3.904-1.032M8.441 18.76v1.206m1.222-1.146l.135 1.026m.983-1.178l.365.986m.77-1.297l.426.805m-5.045-.341l-.156 1.024M6.18 18.66l-.296 1.002m-.792-1.299l-.552.799m22.866-1.61c0 .57-1.748 1.032-3.904 1.032-2.156 0-3.904-.462-3.904-1.032m3.961 1.208v1.206m-1.222-1.146l-.135 1.026m-.983-1.178l-.365.986m-.77-1.297l-.427.805m5.046-.341l.156 1.024m.961-1.185l.296 1.002m.792-1.299l.552.799M18 13.794c1.286-.779 2.705-.732 4.069-.48 1.364.252 2.72.699 4.093.686 1.373-.013 2.802-.54 3.838-2m-16 1.794c-1.286-.779-2.705-.732-4.069-.48s-2.72.699-4.093.686c-1.372-.013-2.801-.54-3.838-2" stroke="#333" stroke-linecap="round" stroke-miterlimit="10" fill="none"/></svg>