<svg xmlns="http://www.w3.org/2000/svg" viewBox="0 0 32 32"><path d="M11.35 29.378c5.77-.962 11.699 2.74 17.359 1.275.599-.155 1.198-.376 1.655-.787.457-.411.745-1.047.598-1.639-.169-.679-.855-1.128-1.548-1.281-.693-.154-1.414-.08-2.125-.094-3.407-.067-6.403-2.113-9.165-4.078-1.578-1.122-3.189-2.279-4.276-3.868-1.307-1.912-1.734-4.275-1.885-6.575-.151-2.3-.059-4.623-.468-6.892-.249-1.383-.753-2.831-1.913-3.649C8.397.954 6.823.97 5.367 1.019c-1.543.052-3.375.274-4.085 1.624-.46.875-.265 1.93-.058 2.893l2.191 10.218c.334 1.557.663 3.205.143 4.712-.414 1.197-1.326 2.175-1.776 3.359a4.794 4.794 0 0 0 .345 4.078c.716 1.22 2.005 2.099 3.417 2.33 1.943.32 3.863-.531 5.806-.855zM5.5 23.5c0 1.658 1.342 3 3 3" stroke="#333" stroke-linejoin="round" stroke-miterlimit="10" fill="none"/></svg>