<svg xmlns="http://www.w3.org/2000/svg" viewBox="0 0 32 32"><path stroke="#333" stroke-width="2" stroke-linecap="round" stroke-linejoin="round" stroke-miterlimit="10" d="M18.375 5.682c-.221 0-3.233-1.681-3.553-1.865-1.338-.771-3.169-1.827-4.923-1.827-2.216 0-4.25.95-5.727 2.674C2.772 6.299 2 8.448 2 10.718c0 3.174 1.526 4.879 3.35 9.248.813 1.946 1.241 6.429 2.068 7.668.354.531.66 1.137 1.103 1.609.342.365.808.653 1.325.693a1.81 1.81 0 0 0 1.235-.391c.568-.447.73-1.118.966-1.745.241-.641.472-1.125.651-1.784.718-2.645 1.805-6.016 3.25-6.016h.105c.617 0 1.194-.022 1.763 1.222.606 1.323 1.072 2.788 1.522 4.508a41.78 41.78 0 0 0 .91 3.029c.392 1.146 1.127 1.24 1.53 1.24.843 0 1.754-.801 2.785-2.368.824-1.253 1.692-6.238 2.51-8.202C28.906 15.026 30 13.812 30 10.728c0-2.269-.771-4.428-2.172-6.062-1.477-1.725-3.511-2.675-5.727-2.675-1.741 0-3.576 1.055-4.918 1.827-.32.184-.96.63-1.183.63" fill="none"/></svg>