<svg xmlns="http://www.w3.org/2000/svg" viewBox="0 0 32 32"><path d="M30.964 14.509c-.063-.103-.199-.168-.323-.221-2.307-.978-4.619-1.957-7.022-2.728-4.684-1.502-9.593-1.809-14.524-1.394-.581.049-1.161.107-1.74.174-1.74.2-3.574.519-4.864 1.584-1.07.883-1.631 2.239-1.461 3.535.09.689.508 1.311 1.295 1.484.951.209 1.802-.217 2.65-.531a32.45 32.45 0 0 1 6.664-1.682 33.374 33.374 0 0 1 5.464-.33c1.816.04 3.603.3 5.405.443 2.549.202 5.115.309 7.672.174l.153-.008c.155-.009.316-.02.452-.087.136-.067.242-.206.208-.342a.187.187 0 0 0-.029-.071zm-5.958 4.488c0 1.417-4.032 2.565-9.006 2.565s-9.007-1.148-9.007-2.565M16.131 22v3m-2.819-2.85L13 24.699m-2.267-2.927l-.842 2.45M8.115 21l-.984 2m11.64-.848l.36 2.545m2.215-2.945l.684 2.49m1.827-3.229L25.131 23" stroke="#333" stroke-miterlimit="10" fill="none"/></svg>