<svg xmlns="http://www.w3.org/2000/svg" viewBox="0 0 32 32"><path fill="#333" d="M9.137 8.782c.844 0 1.52.148 1.844.399.075.059.274.214.274.775 0 .644-.511 1.417-1.051 2.236-.494.748-1.055 1.597-1.374 2.578-.468 1.438.339 6.948.913 8.658.211.589.459 1.134.675 1.599.234.504.342.949.313 1.287-.03.341-.257.64-.442.832a3.767 3.767 0 0 1-.913.69c-.145.077-.349.122-.664.146a3.13 3.13 0 0 1-.237.01l-.29-.02c-.151-.023-.278-.071-.347-.134-.053-.048-.158-.171-.265-.455-.114-.304-.195-.678-.255-1.178a17.559 17.559 0 0 1-.099-1.67 90.83 90.83 0 0 1-.013-.904 80.1 80.1 0 0 0-.014-.982 17.24 17.24 0 0 0-.13-1.936 8.44 8.44 0 0 0-.137-.763c-.319-1.375-1.03-2.789-1.717-4.157-.901-1.793-1.922-3.826-1.537-4.904.16-.449.656-.862 1.481-1.231l.452-.223c.225-.118.374-.196 1.088-.354.614-.138 1.537-.299 2.445-.299m0-2c-1.067 0-2.123.178-2.877.344-1.288.285-1.373.455-1.933.708-6.061 2.709-.304 8.465.649 12.566.044.191.077.385.104.579.077.567.099 1.141.112 1.712l.027 1.885c.013.622.039 1.245.112 1.863.066.558.17 1.118.369 1.646.173.46.425.899.796 1.235.386.349.877.551 1.394.628.193.029.389.041.585.041l.39-.015c.511-.039.993-.131 1.45-.373a5.727 5.727 0 0 0 1.414-1.066c.547-.566.928-1.266.996-2.049.069-.79-.16-1.588-.491-2.302-.212-.457-.43-.939-.607-1.432-.62-1.847-1.118-6.675-.894-7.363.59-1.811 2.524-3.362 2.524-5.434 0-1.031-.371-1.827-1.043-2.351-.807-.623-1.948-.822-3.077-.822zM12.221 1a.8.8 0 0 1 .136.012c.392.078.624.479.729.714.208.461.268 1.039.169 1.627-.158.945-.699 1.697-1.285 1.788a.633.633 0 0 1-.237-.008c-.378-.077-.607-.456-.713-.682-.221-.463-.286-1.052-.183-1.663.155-.941.695-1.69 1.285-1.782A.822.822 0 0 1 12.221 1m0-1l-.251.019C10.934.18 10.081 1.23 9.852 2.626c-.136.805-.043 1.607.267 2.257.315.672.817 1.11 1.417 1.231a1.667 1.667 0 0 0 .589.016c1.031-.16 1.884-1.211 2.118-2.611.13-.778.046-1.56-.244-2.202-.314-.704-.824-1.161-1.445-1.284A1.672 1.672 0 0 0 12.221 0zM7.942 2.67c.079.033.299.308.268.827-.022.436-.246.696-.304.72l-.103-.081c-.1-.117-.21-.385-.193-.743.027-.449.226-.702.332-.723m.014-1.001c-.738 0-1.286.722-1.344 1.664-.027.563.127 1.097.43 1.453a1.148 1.148 0 0 0 .85.432l.147-.011c.622-.096 1.127-.809 1.169-1.658.06-.993-.469-1.818-1.198-1.877l-.054-.003zM5.072 3.705a.81.81 0 0 1 .182.376c.056.26.049.642.018.744l-.009.021a1.519 1.519 0 0 1-.204-.485c-.057-.261-.032-.543.001-.628a.785.785 0 0 1 .012-.028m-.084-1.064a.97.97 0 0 0-.151.012c-.327.071-.566.367-.702.701-.133.315-.138.829-.054 1.218C4.248 5.33 4.836 6.1 5.4 6.1a.562.562 0 0 0 .092-.007l.026-.004c.331-.051.539-.544.678-.883.134-.321.118-.952.035-1.336-.167-.739-.679-1.229-1.243-1.229zM2.626 5.118a.843.843 0 0 1 .286.372c.084.198.093.37.067.495a.797.797 0 0 1-.282-.347.946.946 0 0 1-.077-.497.745.745 0 0 1 .006-.023m-.057-1.03a.886.886 0 0 0-.362.077c-.288.126-.488.41-.565.766-.067.343-.02.728.131 1.091.257.596.791 1.005 1.283 1.005a.817.817 0 0 0 .131-.01.757.757 0 0 0 .211-.06.978.978 0 0 0 .507-.578c.14-.377.11-.844-.073-1.277-.263-.614-.769-1.014-1.263-1.014zM.781 6.173a.829.829 0 0 0-.111.008l-.195.064c-.22.099-.387.334-.447.628-.059.277-.024.584.101.886.211.488.637.818 1.046.818a.708.708 0 0 0 .113-.009l.161-.047c.255-.114.423-.345.483-.639a1.515 1.515 0 0 0-.108-.885c-.211-.494-.638-.824-1.043-.824zm20.178 4.957c.944 0 2.304.42 3.729 1.152.673.346.799.461.991.636l.392.34c.699.561 1.068 1.074 1.098 1.525.073 1.113-1.604 2.866-2.951 4.275-1.079 1.128-2.194 2.294-2.91 3.528-.124.214-.24.441-.357.695-.285.62-.501 1.245-.691 1.828l-.298.938-.275.866a17.233 17.233 0 0 1-.581 1.574c-.204.463-.393.801-.595 1.063-.149.193-.297.328-.43.391a.757.757 0 0 1-.317.059l-.153-.009a2.69 2.69 0 0 1-.556-.138c-.317-.111-.514-.212-.64-.328a3.668 3.668 0 0 1-.705-.897c-.122-.222-.255-.551-.191-.861.047-.228.204-.611.684-1.145a19.62 19.62 0 0 0 1.158-1.385c1.044-1.456 3.446-6.546 3.395-8.061-.036-1.072-.405-2.064-.73-2.94-.328-.882-.637-1.715-.448-2.185.23-.572.49-.737.683-.813.183-.072.418-.108.698-.108m0-2c-.5 0-.984.072-1.425.244-.82.324-1.427.97-1.813 1.933-.789 1.956.972 4.04 1.036 5.936.024.72-1.87 5.222-3.022 6.829-.319.427-.676.831-1.019 1.213-.537.597-.995 1.302-1.156 2.078-.159.77.019 1.544.399 2.233a5.66 5.66 0 0 0 1.1 1.401c.385.354.838.571 1.336.745.316.11.644.195.978.235l.39.024c.408 0 .812-.079 1.18-.255.467-.223.845-.577 1.15-.973.351-.454.616-.964.844-1.482.252-.574.458-1.165.651-1.758l.572-1.802c.178-.545.366-1.09.607-1.614.082-.179.171-.356.271-.528 2.136-3.683 9.538-7.671 4.284-11.889-.484-.392-.52-.578-1.721-1.196-1.112-.572-2.972-1.374-4.642-1.374zm.297-6.12l.055.002a.806.806 0 0 1 .262.063c.568.248.882 1.082.763 2.033-.073.606-.308 1.152-.667 1.542-.281.309-.601.48-.902.48l-.064-.002a.744.744 0 0 1-.252-.06c-.565-.247-.878-1.083-.762-2.034.072-.586.299-1.123.641-1.513.203-.234.528-.511.926-.511m0-1c-.608 0-1.198.3-1.679.852-.474.54-.785 1.267-.88 2.049-.172 1.407.373 2.643 1.354 3.072a1.752 1.752 0 0 0 .716.146c.59 0 1.168-.284 1.643-.808.497-.54.822-1.286.919-2.095.175-1.401-.37-2.637-1.356-3.068a1.81 1.81 0 0 0-.717-.148zm3.969 3.766l.105.079c.073.116.124.357.051.672-.075.301-.235.561-.427.685a.316.316 0 0 1-.166.057c-.062-.031-.219-.325-.112-.759.114-.485.422-.729.563-.729l-.014-.005m.013-.995c-.676 0-1.33.619-1.537 1.5-.204.827.093 1.645.685 1.904a1.063 1.063 0 0 0 .411.083c.238 0 .482-.075.703-.221.405-.261.713-.733.849-1.28.22-.942-.139-1.8-.912-1.969a1.197 1.197 0 0 0-.199-.017zm2.575 2.739l.007.047c.005.081-.052.351-.177.576a1.663 1.663 0 0 1-.42.477l-.005-.039c-.001-.115.098-.47.226-.699.12-.211.266-.321.369-.362m.081-1.018c-.489 0-1 .325-1.319.884-.194.347-.392.948-.352 1.292.041.363.106.891.42 1.029l.024.011a.688.688 0 0 0 .279.055c.542 0 1.223-.529 1.567-1.138.197-.352.341-.846.299-1.184-.04-.356-.191-.705-.497-.861a1.026 1.026 0 0 0-.421-.088zm1.948 3.04a.919.919 0 0 1-.211.451.899.899 0 0 1-.468.297.848.848 0 0 1 .207-.434c.172-.204.36-.294.472-.314m.045-1.005c-.434 0-.918.244-1.28.67-.308.367-.473.808-.442 1.207a.95.95 0 0 0 .338.69.738.738 0 0 0 .193.114.995.995 0 0 0 .402.079c.44 0 .942-.242 1.295-.657.255-.308.413-.665.446-1.012.027-.362-.09-.688-.341-.886a.965.965 0 0 0-.611-.205zm1.224 2.485c-.358 0-.761.198-1.051.541-.209.248-.341.54-.364.821-.025.298.075.565.296.742l.147.088c.105.046.22.068.34.068.36 0 .76-.197 1.049-.535.212-.257.336-.542.358-.824.025-.298-.073-.568-.264-.722l-.176-.113a.852.852 0 0 0-.335-.066z"/></svg>