<svg xmlns="http://www.w3.org/2000/svg" viewBox="0 0 32 32"><g stroke="#333" stroke-linecap="round" stroke-linejoin="round" stroke-miterlimit="10" fill="none"><path d="M18.375 5.696c-.221 0-3.233-1.681-3.553-1.865-1.337-.771-3.169-1.828-4.922-1.828-2.216 0-4.25.95-5.727 2.674C2.771 6.313 2 8.463 2 10.732c0 3.174 1.526 4.879 3.35 9.248.813 1.946 1.241 6.429 2.068 7.669.354.531.66 1.136 1.103 1.61.342.365.808.653 1.325.692a1.81 1.81 0 0 0 1.235-.391c.568-.447.73-1.118.966-1.745.241-.641.472-1.132.651-1.792.718-2.645 1.805-6.023 3.25-6.023h.105c.617 0 1.194-.015 1.763 1.229.606 1.323 1.072 2.791 1.522 4.512.302 1.152.587 2.086.91 3.031.392 1.146 1.127 1.241 1.53 1.241.843 0 1.754-.801 2.785-2.368.824-1.253 1.692-6.238 2.51-8.202C28.906 15.04 30 13.826 30 10.742c0-2.269-.772-4.428-2.172-6.062-1.477-1.725-3.511-2.675-5.727-2.675-1.741 0-3.576 1.055-4.918 1.827-.32.184-.96.63-1.183.63"/><circle cx="10" cy="10.003" r="1.5"/><circle cx="10" cy="10.003" r="4.5"/></g></svg>