<svg xmlns="http://www.w3.org/2000/svg" viewBox="0 0 32 32"><path stroke="#333" stroke-width="2" stroke-linecap="round" stroke-linejoin="round" stroke-miterlimit="10" d="M2.247 23.411c-.733-1.896-1.64-6.906-1.066-9.138 2.458-9.547 9.587-9.895 9.587-9.895 13.444-1.98 17.213 4.469 17.213 4.469 2.045 1.569 3.915 9.338 2.556 13.884-.238.787-.728 2.973-1.133 4.839a.54.54 0 0 1-.526.43.544.544 0 0 1-.534-.475l-.295-2.151a.27.27 0 0 1-.003-.04c-.108-3.874-2.499-5.828-4.329-6.759-.496-.252-.915.452-.477.799l.044.035c.408.321.073.987-.416.823-1.574-.529-4.484-2.554-6.142-3.539-.495-.294-.961.419-.509.779.618.494 2.177 1.917 2.701 2.294.4.288.141.941-.339.849-7.341-1.407-8.594-3.63-11.596-5.52a.454.454 0 0 0-.689.322c-.214 1.285-.801 3.432-.867 3.671l-.015.063c-1.037 2.498-1.076 5.948-.93 8.377a.44.44 0 0 1-.435.472h-.003a.436.436 0 0 1-.416-.315c-.512-1.698-1.059-3.445-1.381-4.274z" fill="none"/></svg>