<svg xmlns="http://www.w3.org/2000/svg" viewBox="0 0 32 32"><path d="M24.457 28.207a1.342 1.342 0 0 0 .879-1.549c-.419-1.915-.455-3.873.215-5.754.889-2.491 2.758-4.609 3.292-7.197.332-1.609.112-3.298-.44-4.847-1.282-3.595-4.434-6.481-8.158-7.472S12.33 1.332 9.396 3.806C7.722 5.218 6.483 7.109 5.804 9.174c-.5 1.522-.339 3.149-.724 4.691-.358 1.429-1.943 2.447-2.074 3.844a1.678 1.678 0 0 0 .745 1.529c.53.344 1.171.299 1.738.111-.133 1.107.137 2.223.978 3.027.507.484.761 1.183.519 1.838-.311.841-.633 1.447.127 2.343 1.06 1.251 2.382.688 3.663.237.673-.237 1.497-.329 2.036.134.982.843.176 2.661 1.062 3.602.641.68 1.756.491 2.664.25 2.684-.716 5.301-1.653 7.919-2.573zM22.5 6.5c1.208.76 2.138 1.865 2.619 3.112a5.71 5.71 0 0 1 .078 3.888" stroke="#333" stroke-linecap="round" stroke-linejoin="round" stroke-miterlimit="10" fill="none"/></svg>