<svg xmlns="http://www.w3.org/2000/svg" viewBox="0 0 32 32"><g stroke="#333" stroke-linecap="round" stroke-linejoin="round" stroke-miterlimit="10" fill="none"><circle cx="16" cy="20" r="1.5"/><path d="M14 26h4v5h7l-5.281-14.583c-.1-.277-.207-.563-.258-.855L18.202 8.7c-.051-.294-.202-.592-.202-.892V3a2 2 0 1 0-4 0v4.808c0 .299-.151.598-.202.892l-1.321 6.861a5.199 5.199 0 0 1-.226.855L7 31h7v-5m5.771-12.422l3.037 1.54M8.766 8.001l4.409 2.235m-5.199-.587L2.032 6.63 3.646 3 9.59 6.019zM28.354 20l-5.944-3.019 1.614-3.63 5.944 3.019zm-1.56-4.518l-1.21 2.722M6.416 5.131l-1.21 2.722m7.025 5.725l-3.039 1.54m14.042-7.117l-4.26 2.159m5.069-.511L30 6.63 28.382 3l-5.957 3.019zM3.618 20l5.957-3.019-1.618-3.63L2 16.37zm1.563-4.518l1.213 2.722M25.606 5.131l1.213 2.722"/></g></svg>