<svg xmlns="http://www.w3.org/2000/svg" viewBox="0 0 32 32"><path d="M24.009 29C26.794 24.692 31 25.236 31 21.154 31 18.603 29.979 17 27.564 17 25.998 17 24 18.965 24 20.24c0-1.276-1.998-3.24-3.564-3.24C18.021 17 17 18.603 17 21.154c0 4.082 4.205 3.539 6.991 7.846h.018zM17 27.6c-.334.441-.662.903-.981 1.4h-.039c-5.474-8.559-13.501-8.285-14.796-15A10.498 10.498 0 0 1 1 12c0-5.527 2.188-9 7.363-9C11.718 3 16 7.257 16 10.021c0-.819.383-1.77 1-2.702C18.464 5.107 21.277 3 23.637 3 28.812 3 31 6.473 31 12c0 .734-.067 1.393-.184 2" stroke="#333" stroke-width="2" stroke-linecap="round" stroke-linejoin="round" stroke-miterlimit="10" fill="none"/></svg>