<svg xmlns="http://www.w3.org/2000/svg" viewBox="0 0 32 32"><path stroke="#333" stroke-width="2" stroke-linecap="round" stroke-linejoin="round" stroke-miterlimit="10" d="M10.879 7.529c-.731-.288-1.597-.194-2.321.108-.723.301-1.326.791-1.882 1.302-5.142 4.725-7.02 12.072-4.682 18.319.251.671.622 1.4 1.362 1.654 1.035.356 2.139-.435 2.661-1.308.523-.873.765-1.9 1.517-2.627 1.126-1.089 3.088-1.214 4.217-2.3.904-.87 1.067-2.148 1.142-3.332.179-2.79.131-5.592-.144-8.375-.13-1.336-.495-2.9-1.87-3.441zm10.241 0c.731-.288 1.597-.194 2.321.108s1.327.791 1.883 1.303c5.142 4.725 7.02 12.072 4.682 18.319-.251.671-.622 1.4-1.362 1.654-1.035.356-2.139-.435-2.661-1.308-.523-.873-.765-1.9-1.517-2.627-1.126-1.089-3.088-1.214-4.218-2.3-.904-.87-1.066-2.148-1.142-3.332a51.593 51.593 0 0 1 .144-8.375c.131-1.337.496-2.901 1.87-3.442z" fill="none"/><path fill="#333" d="M15.5 12.274c.028 0-.621-.038-.5-.11l.003-.312.011-1.114c.003-.922.041-2.152.095-3.382.052-1.23.137-2.46.23-3.382.076-.923.161-1.538.161-1.538a.505.505 0 0 1 1 0s.085.615.161 1.537c.093.922.178 2.152.23 3.382.054 1.23.091 2.46.095 3.382A454.099 454.099 0 0 0 17 12.163c.121.072-.528.11-.5.11h-1zm5.692 2.362l-.465-.238c-.315-.172-.639-.303-1.133-.486-.234-.097-.5-.168-.776-.252-.272-.093-.579-.129-.878-.209a11.76 11.76 0 0 0-1.941-.178c-.664.002-1.324.077-1.94.181-.299.08-.605.119-.877.21-.276.083-.541.156-.775.251a9.673 9.673 0 0 0-1.143.49l-.438.214-.056.025a.504.504 0 0 1-.597-.783l.37-.416c.118-.136.276-.284.471-.438.189-.165.41-.341.675-.498a5.6 5.6 0 0 1 .872-.483c.317-.163.673-.278 1.041-.401.375-.092.761-.216 1.167-.253.402-.069.817-.078 1.23-.099.413.025.827.031 1.23.101.406.041.791.164 1.166.256.368.122.723.241 1.041.402.323.147.616.306.872.482.261.153.491.336.69.506.207.162.364.312.465.433l.344.393a.508.508 0 0 1-.048.718.506.506 0 0 1-.567.072z"/><path stroke="#333" stroke-linecap="round" stroke-linejoin="round" stroke-miterlimit="10" d="M10.054 17.402a3.16 3.16 0 0 1-.214-1.499c.054-.543.298-.958.476-1.454l-.577.063a2.448 2.448 0 0 1-.597-.069c-.723-.176-1.382-.698-1.642-1.394m14.446 4.353a3.16 3.16 0 0 0 .214-1.499c-.053-.543-.298-.958-.476-1.454l.577.063c.201.002.402-.022.597-.069.723-.176 1.382-.697 1.642-1.393" fill="none"/></svg>