<svg xmlns="http://www.w3.org/2000/svg" viewBox="0 0 32 32"><path d="M29.947 22.578c.352-3.082-1.108-5.372-2.246-8.146a67.867 67.867 0 0 1-2.328-6.637c-.552-1.881-.522-5.114-2.766-5.14-.981-.011-1.598.829-1.845 1.647-.143.473-.24.947-.281 1.439-.028.339.434 3.263.582 3.583-.381-.829-1.366-3.946-1.782-4.759-.382-.746-.686-1.552-1.117-2.271a3.324 3.324 0 0 0-.917-.991c-.384-.272-.931-.438-1.354-.153-.265.179-.434.474-.521.782-.223.791-.099 1.667.023 2.464.156 1.02.409 2.024.693 3.015.177.619.37 1.233.573 1.843a57.12 57.12 0 0 0 .543 1.567l.128.44c-.765-1.024-1.296-2.28-1.905-3.402-.635-1.17-1.256-2.348-1.937-3.492-.554-.931-1.091-2.273-2.31-2.419-.631-.075-1.288.195-1.634.739-.52.817-.053 1.809.231 2.628.355 1.025.806 2.012 1.232 3.008.387.902.788 1.799 1.211 2.685.24.502.464 1.044.783 1.503l.019.026c-1.199-2.082-2.422-4.204-3.926-6.084-.437-.545-.842-1.293-1.539-1.535-1.328-.463-2.071 1.272-2.154 2.29-.111 1.377.447 2.733 1.002 3.961.494 1.095 1.026 2.173 1.532 3.263.258.557.511 1.118.747 1.685.162.388.406.745.521 1.152.296 1.044-.966.019-1.244-.145-.809-.476-1.711-.776-2.618-1.003-1.542-.349-3.493.721-3.333 2.246.096.916.87 1.607 1.592 2.205l7.086 5.876c1.978 1.641 4.027 3.321 6.505 4.098 2.766.868 5.924.476 8.375-1.038 2.373-1.466 3.958-3.968 4.348-6.684l.031-.246zm-4.435-3.189c.983 1.544.841 3.577-.349 5.007" stroke="#333" stroke-linecap="round" stroke-linejoin="round" stroke-miterlimit="10" fill="none"/></svg>