<svg xmlns="http://www.w3.org/2000/svg" viewBox="0 0 32 32"><path fill="#333" d="M16.001 2c2.892 0 3.598 2.289 3.68 4.208l.028.706c.17 4.49.514 9.083 2.632 11.589.599.705 1.285 1.273 1.948 1.823 1.153.954 2.148 1.778 2.504 3.14.363 1.387.33 2.245-.655 3.527a3.782 3.782 0 0 0-2.076-.919 4.226 4.226 0 0 0-.463-.026c-.736 0-1.479.189-2.21.563-.984.503-1.795 1.224-2.402 1.763-1.113.989-1.872 1.598-2.901 1.625h-.171c-1.03-.027-1.789-.636-2.916-1.638-.738-.656-1.476-1.283-2.388-1.749-.728-.372-1.471-.561-2.208-.561-.155 0-.311.009-.466.026a3.77 3.77 0 0 0-2.09.934c-.978-1.266-1.005-2.093-.641-3.483.351-1.34 1.285-2.1 2.468-3.062.676-.55 1.374-1.118 1.988-1.84 2.113-2.499 2.457-7.148 2.628-11.695l.028-.722C12.402 4.289 13.107 2 15.999 2h.002m0-2H16c-3.377 0-5.514 2.308-5.678 6.123-.123 2.906-.186 8.846-2.186 11.212-1.5 1.766-4.096 2.755-4.863 5.687-.699 2.67-.069 4.22 2.082 6.451a.912.912 0 0 0 .648.261c.26 0 .515-.108.656-.341l.223-.504c.236-.467.753-.764 1.282-.825l.24-.013c.45 0 .897.137 1.298.342.728.372 1.365.926 1.969 1.463C12.8 30.861 14.075 32 15.986 32l.014-.001.014.001c1.911 0 3.185-1.14 4.315-2.144.604-.537 1.241-1.092 1.969-1.464.401-.205.849-.344 1.3-.344l.238.013c.529.06 1.046.354 1.282.821l.223.496c.138.229.386.333.641.333a.937.937 0 0 0 .663-.268c2.151-2.231 2.781-3.813 2.082-6.483-.767-2.932-3.363-3.984-4.863-5.751-2-2.366-2.063-8.179-2.186-11.085C21.515 2.308 19.377 0 16.001 0z"/></svg>