<svg xmlns="http://www.w3.org/2000/svg" viewBox="0 0 32 32"><path d="M1 22h30v4H1zm26.826 0c.704-2.799 1.836-5.451 3.174-7.905-3.046-1.283-6.644-.523-9.127 1.93-1.004-2.659-2.72-4.994-4.689-6.741C15.215 7.536 12.866 6.395 10.429 6c1.098 2.142 1.843 4.466 2.386 6.887-1.838-1.673-4.241-2.637-6.558-2.547l1.082 4.071C5.399 13.3 3.125 12.848 1 13.27l2.581 5.919c.414.909.738 1.83 1.13 2.752m8.104-9.054l2.643 8.905m-8.119-7.381l2.119 7.381" stroke="#333" stroke-width="2" stroke-linecap="round" stroke-linejoin="round" stroke-miterlimit="10" fill="none"/></svg>