<svg xmlns="http://www.w3.org/2000/svg" viewBox="0 0 32 32"><path d="M9.144 6.314l6.348-5.155c.261-.212.756-.212 1.017 0l6.348 5.155c.34.277.036.686-.509.686H9.652c-.546 0-.849-.409-.508-.686zm12.643 6.575l4.988 4.915c.267.264.282.59.123.852-.16.261-.493.456-.922.456H6.025c-.429 0-.762-.195-.922-.456-.16-.261-.145-.588.123-.852l4.988-4.915h11.573zM23.891 25l6.801 4.739c.365.254.385.569.167.821-.217.252-.672.44-1.256.44H2.397c-.584 0-1.039-.188-1.257-.44-.217-.252-.198-.567.167-.821L8.109 25h15.782zM8.109 25v-5.889M23.891 25v-5.889m-13.678-6.222V7m11.574 5.889V7" stroke="#333" stroke-width="2" stroke-linecap="round" stroke-miterlimit="10" fill="none"/></svg>