<svg xmlns="http://www.w3.org/2000/svg" viewBox="0 0 32 32"><path d="M3.903 16c-1.807 0-3.229-1.707-2.838-3.646.229-1.134 1.116-2.051 2.213-2.287 1.481-.319 2.823.53 3.322 1.82.285.736.779 1.484 1.318 2.062.499.535 1.135.94 1.866 1.048.859.126 1.728.003 2.591.003h4.284a954.856 954.856 0 0 1 5.097.012c.511.003.987-.018 1.453-.261.504-.264.918-.76 1.277-1.19.398-.476.691-1.034.914-1.61.499-1.29 1.84-2.17 3.322-1.851 1.097.236 1.985 1.137 2.213 2.271.391 1.939-1.031 3.638-2.838 3.638M3.903 16c-1.807 0-3.229 1.707-2.838 3.646.229 1.134 1.116 2.051 2.213 2.287 1.58.34 3.001-.648 3.41-2.083.18-.632.495-1.191 1.094-1.513.57-.306 1.189-.337 1.819-.337h6.039c1.263 0 2.552.006 3.825.01.638.003 1.276-.003 1.913.006.614.009 1.215-.086 1.827.036.964.191 1.631.866 2.032 1.737l.163.386c.499 1.291 1.84 2.108 3.322 1.789 1.097-.236 1.985-1.169 2.213-2.303.391-1.939-1.031-3.653-2.838-3.653" stroke="#333" stroke-width="2" stroke-linecap="round" stroke-linejoin="round" stroke-miterlimit="10" fill="none"/></svg>