<svg xmlns="http://www.w3.org/2000/svg" viewBox="0 0 32 32"><path d="M21.055 31h-10.11a.947.947 0 0 1-.945-.945V6.198C10 3.339 12.339 1 15.198 1h1.603C19.661 1 22 3.339 22 6.198v23.857c0 .52-.425.945-.945.945zM18.997 8.5h-5.994a.504.504 0 0 1-.503-.503v-1.73A2.775 2.775 0 0 1 15.267 3.5h1.466A2.775 2.775 0 0 1 19.5 6.267v1.73a.504.504 0 0 1-.503.503zM12.5 23.444l2.319-.799a3.57 3.57 0 0 1 2.362 0l2.319.799m-7 3l2.319-.799a3.57 3.57 0 0 1 2.362 0l2.319.799" stroke="#333" stroke-miterlimit="10" fill="none"/></svg>