<svg xmlns="http://www.w3.org/2000/svg" viewBox="0 0 32 32"><path d="M11.785 4.204c.753 4.274.948 8.652.58 12.979-.16 1.88-.439 3.793-1.284 5.467-.845 1.674-2.349 3.091-4.158 3.365-.829.126-1.676.01-2.511.083-.835.073-1.723.391-2.161 1.128-.647 1.089.039 2.604 1.117 3.233 1.287.751 2.726.53 4.129.435 2.261-.153 4.874.031 7.035-.763 1.726-.634 2.988-2.157 4.056-3.694s2.063-3.188 3.547-4.297c1.277-.955 2.73-1.252 4.112-1.954 1.943-.986 4.452-2.851 3.571-5.415-.348-1.011-1.061-1.837-1.76-2.631C25.239 8.934 23.02 4.833 21.086 1m2.163 11.889c.419.452.908.805 1.191 1.372.315.629.302 1.468-.311 1.906-.314.224-.683.33-1.047.441" stroke="#333" stroke-linecap="round" stroke-linejoin="round" stroke-miterlimit="10" fill="none"/></svg>