<svg xmlns="http://www.w3.org/2000/svg" viewBox="0 0 32 32"><path d="M18.194 9.138a19.62 19.62 0 0 0-4.389 0 19.36 19.36 0 0 0-4.171.936 19.766 19.766 0 0 0-5.525 2.942 20.415 20.415 0 0 0-3.053 2.839.264.264 0 0 0-.054.113.51.51 0 0 0-.002.04.19.19 0 0 0 .004.041.264.264 0 0 0 .054.113 20.594 20.594 0 0 0 3.053 2.839c.555.419 1.132.809 1.728 1.169m7.966 2.708a19.651 19.651 0 0 0 4.389 0 19.36 19.36 0 0 0 4.171-.936 19.729 19.729 0 0 0 3.797-1.773 20.209 20.209 0 0 0 3.326-2.509c.509-.474.995-.974 1.455-1.499a.264.264 0 0 0 .054-.113.26.26 0 0 0-.001-.081.264.264 0 0 0-.054-.113 20.594 20.594 0 0 0-3.053-2.839 20.209 20.209 0 0 0-1.728-1.169M9.55 18.714A6.972 6.972 0 0 1 9 15.992a6.972 6.972 0 0 1 2.05-4.944A6.981 6.981 0 0 1 16 9m6.45 4.27c.354.837.55 1.756.55 2.722a6.969 6.969 0 0 1-2.05 4.944A6.992 6.992 0 0 1 16 22.984m2.5-6.992a2.493 2.493 0 0 1-2.5 2.497 2.495 2.495 0 0 1-2.5-2.497c0-.69.28-1.314.732-1.766A2.492 2.492 0 0 1 16 13.495a2.5 2.5 0 0 1 2.5 2.497zm7-9.492l-19 19" stroke="#333" stroke-linecap="round" stroke-miterlimit="10" fill="none"/></svg>