<svg xmlns="http://www.w3.org/2000/svg" viewBox="0 0 32 32"><g stroke="#333" stroke-linecap="round" stroke-miterlimit="10" fill="none"><circle cx="24" cy="15.992" r="3.5"/><path d="M24.498 14.173c.483.117.886.515 1.008.996M8 12c2.769 0 5.256 1.511 6.973 3.912a.155.155 0 0 1 0 .175C13.256 18.489 10.769 20 8 20s-5.256-1.511-6.973-3.912a.155.155 0 0 1 0-.175C2.744 13.511 5.231 12 8 12zm16 0c2.769 0 5.256 1.511 6.973 3.912a.155.155 0 0 1 0 .175C29.256 18.489 26.769 20 24 20s-5.256-1.511-6.973-3.912a.155.155 0 0 1 0-.175C18.744 13.511 21.231 12 24 12z"/><circle cx="8" cy="15.992" r="3.5"/><path d="M7.502 14.173a1.402 1.402 0 0 0-1.008.996"/></g></svg>