<svg xmlns="http://www.w3.org/2000/svg" viewBox="0 0 32 32"><g stroke="#333" stroke-linecap="round" stroke-linejoin="round" stroke-miterlimit="10" fill="none"><path d="M18.5 2v5.401c0 1.205-1.209 2.191-2.5 2.191s-2.5-.986-2.5-2.191V2"/><path d="M27.828 4.645c-1.477-1.726-3.511-2.677-5.727-2.677-.365 0-.734.055-1.101.135v5.604c0 2.499-2.19 4.543-4.867 4.543h-.267C13.19 12.25 11 10.205 11 7.707V2.102a5.186 5.186 0 0 0-1.101-.134c-2.216 0-4.25.951-5.727 2.677C2.772 6.281 2 8.433 2 10.704c0 3.177 1.526 4.883 3.35 9.256.813 1.948 1.241 6.435 2.068 7.675.353.531.66 1.137 1.103 1.611.342.365.808.654 1.325.693a1.81 1.81 0 0 0 1.234-.391c.568-.447.73-1.119.966-1.746.241-.642.472-1.265.651-1.925.719-2.648 1.806-6.16 3.251-6.16h.105c.617 0 1.194.117 1.763 1.361.606 1.324 1.072 2.859 1.522 4.582.302 1.153.587 2.12.91 3.066.392 1.147 1.127 1.258 1.53 1.258.843 0 1.754-.793 2.785-2.362.824-1.254 1.693-6.239 2.51-8.205C28.906 15.011 30 13.798 30 10.712c0-2.272-.772-4.431-2.172-6.067z"/></g></svg>