<svg xmlns="http://www.w3.org/2000/svg" viewBox="0 0 32 32"><path d="M30.41 29.877c.748-4.367.808-8.776.043-13.14-3.267-.713-6.626-1.22-9.959-.9-3.332.32-6.662 1.536-9.005 3.86A99.23 99.23 0 0 1 6.196 1.012L2.408 1l-.134.281C.319 7.388 1.016 12.385 1.728 17.91c.111.864.245 1.726.378 2.588l.549 3.553c.106.682.233 1.41.721 1.911.893.918 2.43.613 3.708.843.979.176 1.85.694 2.726 1.154 6.04 3.172 14.062 3.951 20.6 1.918zm.114-5.422a15.059 15.059 0 0 1-7.82 1.033c-2.641-.358-5.165-1.436-7.18-3.066" stroke="#333" stroke-linecap="round" stroke-linejoin="round" stroke-miterlimit="10" fill="none"/></svg>