<svg xmlns="http://www.w3.org/2000/svg" viewBox="0 0 32 32"><path d="M8.92 2l2.919.993c3.019 1.027 4.794 3.867 4.557 7.289L16 16l-.397 5.718c-.237 3.423 1.538 6.263 4.557 7.289l2.92.993M2 8.92l.993 2.919c1.027 3.019 3.867 4.794 7.289 4.557L16 16l5.718-.396c3.423-.237 6.263 1.538 7.289 4.557L30 23.08M7.176 15.689l8.513-8.513m-10.975 6.76l9.222-9.222M2.96 11.473l8.513-8.513m6.591 24.326l9.222-9.222M20.527 29.04l8.513-8.513m-12.729 4.297l8.513-8.513" stroke="#333" stroke-linecap="round" stroke-linejoin="round" stroke-miterlimit="10" fill="none"/></svg>