<svg xmlns="http://www.w3.org/2000/svg" viewBox="0 0 32 32"><path d="M14.843 14.261c.644-.64.996-1.55.924-2.441a3.013 3.013 0 0 0-1.338-2.244c-1.133-.742-2.636-.655-3.97-.361a15.12 15.12 0 0 0-6.66 3.357c-1.035.907-1.951 1.981-2.439 3.246C.375 18.38 1.476 21.54 3.865 23c.493-3.158 2.961-5.95 6.11-6.912 1.682-.514 3.637-.605 4.868-1.827zm2.314 0c-.644-.64-.996-1.55-.924-2.441a3.013 3.013 0 0 1 1.338-2.244c1.133-.742 2.636-.655 3.97-.361a15.12 15.12 0 0 1 6.66 3.357c1.035.907 1.951 1.981 2.439 3.246.986 2.561-.115 5.72-2.504 7.181-.493-3.158-2.961-5.95-6.11-6.912-1.683-.513-3.638-.604-4.869-1.826z" stroke="#333" stroke-width="2" stroke-linejoin="round" stroke-miterlimit="10" fill="none"/></svg>