<svg xmlns="http://www.w3.org/2000/svg" viewBox="0 0 32 32"><path stroke="#333" stroke-width="2" stroke-linecap="round" stroke-linejoin="round" stroke-miterlimit="10" d="M27.877 4.661c-1.483-1.725-3.525-2.675-5.751-2.675-1.748 0-3.591 1.056-4.939 1.828-.321.184-.964.63-1.188.63l2.384 1.236c-.222 0-3.247-1.681-3.568-1.865-1.343-.771-3.182-1.828-4.943-1.828-2.058 0-3.953.821-5.401 2.308.917.845 1.486 2.015 1.486 3.31 0 2.217-1.669 4.064-3.9 4.538.385 2.361 1.709 4.154 3.248 7.825.816 1.947 1.246 6.431 2.076 7.671.355.531.663 1.137 1.107 1.61.343.365.811.654 1.33.693.446.034.897-.123 1.24-.391.57-.447.733-1.118.97-1.745.242-.641.474-1.261.654-1.92.722-2.646 1.813-6.153 3.264-6.153h.106c.619 0 1.198.113 1.771 1.357.608 1.323 1.076 2.856 1.529 4.577.303 1.152.589 2.118.913 3.063.394 1.147 1.132 1.257 1.537 1.257.847 0 1.761-.793 2.797-2.36.705-1.067 1.441-4.83 2.151-7.14-2.138-.535-3.72-2.331-3.72-4.486 0-2.576 2.248-4.664 5.021-4.664.697 0 1.361.133 1.965.372.028-.309.044-.633.044-.983-.002-2.272-.777-4.43-2.183-6.065z" fill="none"/></svg>