<svg xmlns="http://www.w3.org/2000/svg" viewBox="0 0 32 32"><g stroke="#333" stroke-miterlimit="10" fill="none"><path d="M29.981 24.023c.515-12.678-9.326-22.519-22.004-22.004m-.761 3.349c11.542-.012 19.364 7.85 19.327 19.436m3.437-.782l-3.437.782-1.165.265-8.32 1.892-8.107 1.844L1.5 30.5 6.931 6.622l.285-1.253.762-3.349m8.929 24.924a4.093 4.093 0 0 0-1.129-2.338 3.987 3.987 0 0 0-5.708 0c-1.104 1.123-1.417 2.73-.975 4.146"/><ellipse transform="rotate(-45.001 11 14)" cx="11" cy="14" rx="2.5" ry="2.5"/><ellipse transform="rotate(-45.001 18 18)" cx="18" cy="18" rx="1.5" ry="1.5"/></g></svg>