<svg xmlns="http://www.w3.org/2000/svg" viewBox="0 0 32 32"><path d="M25 13c-1.79 2.491-2.085 5.8-2.232 8.919-.137 2.913-.238 5.963-1.485 8.539a.988.988 0 0 1-.894.542H11.61a.989.989 0 0 1-.894-.541c-1.247-2.577-1.348-5.627-1.485-8.539C9.085 18.8 8.79 15.491 7 13h18zm-4.51-.052a14.024 14.024 0 0 0-1.511-1.826c-1.436-1.459-3.125-2.592-4.429-4.217C13.157 5.173 12.531 3.066 11.745 1L9 2.02c.807 2.058 1.761 4.043 1.89 6.246.094 1.598-.185 3.126-.357 4.675m-.213-7.53l2.724-1.012m-2.188 6.343l5.39-2.004M9 20H6m20 0h-3m-16.5.083V22.5m19-2.333V22.5m-16.85-6h14.7" stroke="#333" stroke-linecap="round" stroke-linejoin="round" stroke-miterlimit="10" fill="none"/></svg>