<svg xmlns="http://www.w3.org/2000/svg" viewBox="0 0 32 32"><g stroke="#333" stroke-linecap="round" stroke-linejoin="round" stroke-miterlimit="10" fill="none"><path d="M27.06 19.735c1.38-.678 2.617-1.76 3.338-2.921.517-.832.755-1.81.497-2.722-.258-.912-1.062-1.737-2.136-2.009-1.63-.412-3.529.764-3.759 2.129M21 6c-2.764-1.333-7.236-1.333-10 0"/><circle cx="16" cy="3" r="1"/><path d="M7 14.497L2.819 10 1 11.404l4.357 5.964"/><path d="M17.5 9.042V15.5 9.042zm3 11.458h-6l.833-5h4.334zM27 20c0-3.496-2.441-6.519-6-8.01V9H11v2.99C7.441 13.48 5 16.504 5 20c0 3.158 1.992 5.931 5 7.538V30h12v-2.462c3.008-1.607 5-4.38 5-7.538z"/></g></svg>