<svg xmlns="http://www.w3.org/2000/svg" viewBox="0 0 32 32"><path stroke="#333" stroke-width="2" stroke-linecap="round" stroke-linejoin="round" stroke-miterlimit="10" d="M8.762 13.564L4.038 26 1 25 7 5.692m16.238 7.872L27.962 26 31 25 25 5.692m-12.986-1.25L7 5.692A56.164 56.164 0 0 1 9.355 23.51C9.278 26.093 9.314 28.763 8 31h16c-1.314-2.237-1.278-4.907-1.355-7.489A56.145 56.145 0 0 1 25 5.692l-5.045-1.239" fill="none"/><path stroke="#333" stroke-linecap="round" stroke-linejoin="round" stroke-miterlimit="10" d="M1.706 22.652l3.26.904m25.298-.924l-3.221.948" fill="none"/><path stroke="#333" stroke-width="2" stroke-linecap="round" stroke-linejoin="round" stroke-miterlimit="10" d="M13.687 1h4.626c1.012 0 1.796 1.02 1.674 2.178l-.333 3.169L16 9l-3.654-2.653-.333-3.169C11.891 2.02 12.675 1 13.687 1z" fill="none"/><path stroke="#333" stroke-linecap="round" stroke-linejoin="round" stroke-miterlimit="10" d="M11.5 25.5l2-4m7 4l-2-4" fill="none"/><path fill="#333" d="M17 9.229l-.5 2.408a.51.51 0 0 1-1 0L15 9.229a1.022 1.022 0 1 1 2 0z"/></svg>