<svg xmlns="http://www.w3.org/2000/svg" viewBox="0 0 32 32"><path d="M18.5 14h-5L11 11.5V4h10v7.5zm-.279 5h-4.656c0 .49.12 1.133-.066 1.592-.207.51-.573.732-.99 1.071a9.808 9.808 0 0 0-1.28 1.215c-.799.935-1.272 2.138-1.225 3.374.056 1.478.837 2.919 2.075 3.8s2.911 1.177 4.391.764c2.711-.757 4.226-3.452 4.474-6.005.033-.336.14-.838-.066-1.135-.194.096-.373.42-.526.588a8.47 8.47 0 0 1-.64.631c-.631.561-1.353 1.025-2.072 1.47-.532.329-1.191.742-1.839.722a1.779 1.779 0 0 1-1.475-.885c-.484-.872-.026-1.864.572-2.545.656-.748 1.55-1.227 2.321-1.84.448-.356.864-.836.981-1.411.089-.444.021-.952.021-1.406zM14.5 14v5m3-5v5M13.5.5V4m5-3.5V4m-2.604.104l-4.854 4.854m8.937-4.937L11.76 12.24m9.219-5.219l-6.958 6.958" stroke="#333" stroke-linecap="round" stroke-linejoin="round" stroke-miterlimit="10" fill="none"/></svg>