<svg xmlns="http://www.w3.org/2000/svg" viewBox="0 0 32 32"><path d="M16 7.002c-1.443.062-3.345-.159-4.73.282-.923.294-1.782 1.042-1.953 2.047-.128.753.138 1.512.4 2.225l3.519 9.587c.242.66.497 1.34.968 1.842.561.596 1.077.495 1.796.495M9.333 10.87c-1.73.452-3.86 1.732-5.187 3.025-.609.594-1.194 1.371-1.143 2.261.044.779.562 1.416 1.051 1.985l2.722 3.165c.868 1.009 1.789 2.056 2.996 2.48 1.206.424 3.036-.792 3.728-1.744m-10.073-4.46c-.831.903-1.681 1.837-2.134 3.003s-.423 2.635.392 3.555c.82.926 2.214 1.048 3.347.631s1.985-1.185 2.887-2.021M16 7.002c-1.443.062-3.345-.159-4.73.282-.923.294-1.782 1.042-1.953 2.047-.128.753.138 1.512.4 2.225l3.519 9.587c.242.66.497 1.34.968 1.842.561.596 1.062.475 1.796.495M9.333 10.87c-1.73.452-3.86 1.732-5.187 3.025-.609.594-1.194 1.371-1.143 2.261.044.779.562 1.416 1.051 1.985l2.722 3.165c.868 1.009 1.789 2.056 2.996 2.48 1.206.424 3.036-.792 3.728-1.744m-10.073-4.46c-.831.903-1.681 1.837-2.134 3.003s-.423 2.635.392 3.555c.82.926 2.214 1.048 3.347.631s1.985-1.185 2.887-2.021M16 7.002c1.443.062 3.345-.159 4.73.282.923.294 1.782 1.042 1.953 2.047.128.753-.138 1.512-.4 2.225l-3.519 9.587c-.242.66-.497 1.34-.968 1.842-.561.596-1.062.495-1.796.495m6.667-12.61c1.73.452 3.86 1.732 5.187 3.025.609.594 1.194 1.371 1.143 2.261-.044.779-.562 1.416-1.051 1.985l-2.722 3.165c-.868 1.009-1.79 2.056-2.996 2.48-1.206.424-3.036-.792-3.728-1.744m10.073-4.46c.831.903 1.681 1.837 2.134 3.003s.423 2.635-.392 3.555c-.82.926-2.215 1.048-3.347.631-1.133-.417-1.985-1.185-2.887-2.021M16 7.002c1.443.062 3.345-.159 4.73.282.923.294 1.782 1.042 1.953 2.047.128.753-.138 1.512-.4 2.225l-3.519 9.587c-.242.66-.497 1.34-.968 1.842-.561.596-1.062.495-1.796.495m6.667-12.61c1.73.452 3.86 1.732 5.187 3.025.609.594 1.194 1.371 1.143 2.261-.044.779-.562 1.416-1.051 1.985l-2.722 3.165c-.868 1.009-1.79 2.056-2.996 2.48-1.206.424-3.036-.792-3.728-1.744m10.073-4.46c.831.903 1.681 1.837 2.134 3.003s.423 2.635-.392 3.555c-.82.926-2.215 1.048-3.347.631-1.133-.417-1.985-1.185-2.887-2.021" stroke="#333" stroke-width="2" stroke-linecap="round" stroke-linejoin="round" stroke-miterlimit="10" fill="none"/></svg>