<svg xmlns="http://www.w3.org/2000/svg" viewBox="0 0 32 32"><g stroke="#333" stroke-linecap="round" stroke-linejoin="round" stroke-miterlimit="10" fill="none"><path d="M22 30H4a1 1 0 0 1-1-1V2h20v27a1 1 0 0 1-1 1zm1-21h5.6a1.4 1.4 0 0 1 1.4 1.4v11.2a1.4 1.4 0 0 1-1.4 1.4H23"/><path d="M13 13.706c0-1.772 1.312-3.206 2.934-3.206 1.971 0 3.566 1.743 3.566 3.897 0 3.926-2.876 4.086-6.5 7.103-3.624-3.017-6.5-3.177-6.5-7.103 0-2.154 1.595-3.897 3.566-3.897 1.622 0 2.934 1.434 2.934 3.206z"/></g></svg>