<svg xmlns="http://www.w3.org/2000/svg" viewBox="0 0 32 32"><path stroke="#333" stroke-width="2" stroke-linecap="round" stroke-linejoin="round" stroke-miterlimit="10" d="M19.526 9.54c2.392-.839 4.154-1.175 6.547-2.013 1.377-.483 3.081-.911 4.168.044.913.803.881 2.281.247 3.308-.635 1.027-1.72 1.698-2.79 2.289-1.07.591-2.286.994-3.5 1.253-.619.132-1.244.232-1.869.321-.379.054-1.484-.017-1.611.451-.18.664-.039 1.53-.001 2.217a8.8 8.8 0 0 0 .412 2.21c.691 2.147 2.347 3.775 3.816 5.406.338.375.512.334.959.208.711-.2 1.418-.424 2.162-.463.762-.04 1.562.125 2.154.609.449.367.802.868.781 1.473-.017.477-.23.931-.524 1.307-.587.753-1.451 1.359-2.326 1.719-1.893.778-3.046 1.344-5.092 1.038L16 26l-7.057 4.916c-2.047.306-3.199-.26-5.092-1.038-.876-.36-1.739-.966-2.326-1.719-.293-.376-.507-.83-.524-1.307-.021-.605.332-1.105.781-1.473.592-.484 1.392-.649 2.154-.609.743.039 1.45.263 2.162.463.447.126.622.167.96-.208 1.469-1.631 3.126-3.259 3.816-5.406.23-.715.371-1.459.412-2.21.037-.686.179-1.553-.001-2.217-.127-.468-1.232-.397-1.611-.451a28.19 28.19 0 0 1-1.87-.321c-1.215-.259-2.43-.661-3.501-1.253-1.07-.591-2.156-1.262-2.79-2.289-.635-1.026-.667-2.504.246-3.307 1.087-.956 2.79-.527 4.168-.044l6.547 2.013-.01-.004C11.56 8.631 11 7.381 11 6s.56-2.631 1.464-3.536A4.988 4.988 0 0 1 16 1c1.381 0 2.631.56 3.535 1.464C20.44 3.369 21 4.619 21 6s-.56 2.631-1.465 3.535l-.009.005z" fill="none"/><path fill="#333" d="M16 20a1 1 0 1 0 0 2 1 1 0 0 0 0-2zm0-4a1 1 0 1 0 0 2 1 1 0 0 0 0-2z"/></svg>