<svg xmlns="http://www.w3.org/2000/svg" viewBox="0 0 32 32"><path d="M17.586 20h-3.172A1.414 1.414 0 0 1 13 18.586v-5.172c0-.781.633-1.414 1.414-1.414h3.172c.781 0 1.414.633 1.414 1.414v5.172c0 .781-.633 1.414-1.414 1.414zm1.463-2.486L27.828 24a11.38 11.38 0 0 0 2.321-3.596C30.697 19.05 31 17.562 31 16s-.303-3.05-.851-4.404A11.38 11.38 0 0 0 27.828 8l-8.812 6.51m-6.047 2.991L4.172 24a11.38 11.38 0 0 1-2.321-3.596C1.303 19.05 1 17.562 1 16s.303-3.05.851-4.404A11.38 11.38 0 0 1 4.172 8l8.798 6.5" stroke="#333" stroke-width="2" stroke-linecap="round" stroke-linejoin="round" stroke-miterlimit="10" fill="none"/></svg>