<svg xmlns="http://www.w3.org/2000/svg" viewBox="0 0 32 32"><path d="M20.272 4c1.615-.002 2.325.028 3.456.478 1.748.697 3.097 1.955 4.397 3.181L31 10.391l-4.484 4.229L23 11.359V30c0 .552-.19 1-.742 1H9.742C9.19 31 9 30.552 9 30V11.359l-3.516 3.262-4.419-4.229L3.908 7.66c1.3-1.227 2.633-2.485 4.381-3.181 1.128-.45 1.837-.48 3.443-.478M19.261 1.5A4.13 4.13 0 0 1 20.5 2.836 8.928 8.928 0 0 1 18.419 7.5L16.5 5.982c1.39-1.007 2.582-2.719 2.761-4.482zM11.5 2.836A8.928 8.928 0 0 0 13.581 7.5L15.5 5.982c-1.39-1.008-2.582-2.719-2.761-4.482A4.13 4.13 0 0 0 11.5 2.836M12.739 1.5h6.522M14.5 6.812V31m3-24.218V31" stroke="#333" stroke-miterlimit="10" fill="none"/><path fill="#333" d="M16 9a.5.5 0 1 0 0 1 .5.5 0 0 0 0-1zm0 4a.5.5 0 1 0 0 1 .5.5 0 0 0 0-1zm0 4a.5.5 0 1 0 0 1 .5.5 0 0 0 0-1zm0 4a.5.5 0 1 0 0 1 .5.5 0 0 0 0-1zm0 4a.5.5 0 1 0 0 1 .5.5 0 0 0 0-1z"/></svg>