<svg xmlns="http://www.w3.org/2000/svg" viewBox="0 0 32 32"><path d="M27.626 3.42L28 5.384l-2.546.242.439 2.294-2.542.237.44 2.293-2.542.237.443 2.29-2.542.238.445 2.288-2.539.233.442 2.291-2.541.236.442 2.291-2.54.235.441 2.291-4.754-4.614L25.185 2.319a1.145 1.145 0 0 1 1.585 0l.546.53c.16.155.268.354.31.571zM8.546 18.466L3 23.849 9.339 30l3.961-6.92zm-1.188 9.611l1.981-1.922-2.377-2.306-2.08 2.018" stroke="#333" stroke-linecap="round" stroke-linejoin="round" stroke-miterlimit="10" fill="none"/></svg>