<svg xmlns="http://www.w3.org/2000/svg" viewBox="0 0 32 32"><path stroke="#333" stroke-width="2" stroke-linecap="round" stroke-linejoin="round" stroke-miterlimit="10" d="M13.525 21.908c.25.179.511.332.781.469a6.252 6.252 0 0 0 .879.375l.44.124c.179.045.354.097.535.127.335.056.673.09 1.014.092a6.433 6.433 0 0 0 2.071-.346 6.168 6.168 0 0 0 2.344-1.383 5.769 5.769 0 0 0 1.733-3.363l.021.003c.081-.933.237-1.866.434-2.783.321-1.5.739-3.223 1.879-4.366a4.9 4.9 0 0 1 2.737-1.378c.882-.126 1.859-.013 2.379-.861a1.622 1.622 0 0 0-.279-2.007c-.487-.455-1.084-.392-1.76-.441.085-.481.083-.94-.192-1.372-.581-.913-1.938-1.076-2.731-.317-.367.35-.521.815-.496 1.273.108 1.515-.782 2.734-1.462 3.382-.914.873-2.324 1.262-3.541 1.56-.959.235-1.936.389-2.914.531-.846.123-1.714.187-2.515.496a5.562 5.562 0 0 0-1.442.808c-.12.095-.258.201-.412.181a.331.331 0 0 1-.263-.238.548.548 0 0 1 .034-.358c.105-.259.325-.461.565-.618.241-.156.506-.273.755-.417a.45.45 0 0 0 .156-.126c.233-.339-.882-.165-1.043-.151-3.213.281-6.38 1.499-8.677 3.702C2.434 16.54 1 19.362 1 22.245c0 6.361 3.049 5.737 13.656 5.737 2 0 4 .03 6 .013 1.337-.012 2.695-.024 4.017-.238.833-.135 1.704-.363 2.353-.906.903-.757 1.101-1.961 1.228-3.044.187-1.591.118-3.226-.293-4.782a9.597 9.597 0 0 0-.918-2.285c-.205-.362-.441-.912-.767-1.325" fill="none"/></svg>