<svg xmlns="http://www.w3.org/2000/svg" viewBox="0 0 32 32"><path d="M22 5.5H10m6 9.5l-5.539 16L5.5 29.568 9.876 6.651A7.06 7.06 0 0 0 10 5.338V2h12v3.338c0 .441.042.88.124 1.313L26.5 29.568 21.539 31 16 15zm-6.5-4.539c.647.151 1.334-.151 1.816-.677s.778-1.25.941-1.996c.163-.746.204-1.52.243-2.288m10 4.961c-.648.151-1.334-.151-1.817-.677-.482-.526-.778-1.25-.941-1.996-.163-.746-.203-1.52-.242-2.288" stroke="#333" stroke-linecap="round" stroke-linejoin="round" stroke-miterlimit="10" fill="none"/></svg>