<svg xmlns="http://www.w3.org/2000/svg" viewBox="0 0 32 32"><path stroke="#333" stroke-width="2" stroke-linecap="round" stroke-linejoin="round" stroke-miterlimit="10" d="M24.61 1.413c-3.265-.256-5.892-.403-8.543-.413h-.135c-2.651.01-5.278.157-8.542.413-.294 5.431-.406 9.881-.388 14.398.017 4.518.164 9.103.388 14.806 1.889.152 4.031.276 5.631.357l2.616-20.747L18.44 31c1.765-.079 4.068-.213 6.169-.382.224-5.703.371-10.288.388-14.806.019-4.518-.093-8.968-.387-14.399z" fill="none"/><path stroke="#333" stroke-linecap="round" stroke-linejoin="round" stroke-miterlimit="10" d="M7 4.5c7.054-.307 11.081-.305 18 0M11.5 1.135v3.136m9-3.125v3.19" fill="none"/><path fill="#333" d="M16.896 1.219L16.396 6a.503.503 0 0 1-1 0l-.5-4.781a1.006 1.006 0 1 1 2 0z"/></svg>