<svg xmlns="http://www.w3.org/2000/svg" viewBox="0 0 32 32"><path d="M2.958 8.615a14.987 14.987 0 0 1 2.435-3.222 14.957 14.957 0 0 1 3.221-2.435 15.004 15.004 0 0 1 14.77 0 14.987 14.987 0 0 1 3.222 2.435 14.963 14.963 0 0 1 2.435 3.222 15.004 15.004 0 0 1 0 14.77 14.996 14.996 0 0 1-2.435 3.222 14.963 14.963 0 0 1-3.222 2.435 15.004 15.004 0 0 1-14.77 0 14.957 14.957 0 0 1-3.221-2.435 14.939 14.939 0 0 1-2.435-3.222 15.004 15.004 0 0 1 0-14.77zm20.427-5.657L17.23 9.113m5.657 5.657l6.155-6.155M9.113 17.23l-6.155 6.155m11.812-.498l-6.155 6.155m20.82-5.264l-.393-.393m0 0l-6.155-6.155a6.957 6.957 0 0 1-1.938 3.719 7.016 7.016 0 0 1-9.899 0 7.016 7.016 0 0 1 0-9.899 7.016 7.016 0 0 1 9.899 0 7.016 7.016 0 0 1 1.938 6.18m-5.657 5.657l6.155 6.155M8.615 2.958l6.155 6.155M2.958 8.615l6.155 6.155" stroke="#333" stroke-width="2" stroke-miterlimit="10" fill="none"/></svg>