<svg xmlns="http://www.w3.org/2000/svg" viewBox="0 0 32 32"><path d="M13.2 17.184c0 1.882-.627 3.586-1.64 4.82C10.546 23.237 9.146 24 7.6 24c-1.547 0-2.947-.763-3.96-1.997C2.627 20.77 2 19.066 2 17.184c0-1.882.627-3.586 1.64-4.82l9.56 4.82zM4 12.182v-4m24 4v-4m-9.2 9.002c0 1.882.627 3.586 1.64 4.82C21.453 23.237 22.853 24 24.4 24c1.546 0 2.946-.763 3.96-1.997 1.014-1.233 1.64-2.938 1.64-4.82 0-1.882-.627-3.586-1.64-4.82l-9.56 4.821zM13.2 20h5.6" stroke="#333" stroke-width="2" stroke-linecap="round" stroke-linejoin="round" stroke-miterlimit="10" fill="none"/></svg>