<svg xmlns="http://www.w3.org/2000/svg" viewBox="0 0 32 32"><path d="M3.753 12.252l.172-.208a6.218 6.218 0 0 1 1.456-1.179c3.888-2.244 9.554.026 12.656 5.071 2.659 4.325 2.563 9.278.034 12.019a6.468 6.468 0 0 1-1.013.872c-.146.104-.285.215-.443.306-3.887 2.244-9.554-.026-12.656-5.071-2.595-4.219-2.559-9.032-.206-11.81zm13.305 16.576c-1.437-1.112-2.603-2.69-3.509-4.316-1.46-2.62-2.486-5.517-4.286-7.9a14.104 14.104 0 0 0-5.51-4.359m17.221.396l.095.125c.234.274.501.515.809.707 2.16 1.347 5.308-.016 7.031-3.042 1.478-2.595 1.424-5.567.019-7.212a3.623 3.623 0 0 0-.563-.523l-.246-.184c-2.16-1.347-5.308.016-7.031 3.042-1.441 2.532-1.421 5.42-.114 7.087zm7.392-9.946c-.799.667-1.446 1.614-1.949 2.59-.811 1.572-1.381 3.31-2.381 4.74a7.956 7.956 0 0 1-3.061 2.615" stroke="#333" stroke-miterlimit="10" fill="none"/></svg>