<svg xmlns="http://www.w3.org/2000/svg" viewBox="0 0 32 32"><path d="M5 15c0-1.271.395-2.546 1.246-3.539.429-.5.997-.828 1.456-1.29a3.94 3.94 0 0 0 .261-.292C8.675 9.005 9 7.903 9 6.798V5h2v1.798c0 1.104.325 2.207 1.036 3.081l.261.292c.459.462 1.028.79 1.456 1.29C14.605 12.454 15 13.729 15 15v16H5V15zM9 2h2M5.156 24.5h9.781m-9.781-8h9.781m11.749-1.835c.202.717.314 1.507.314 2.335s-.112 1.618-.314 2.336a6.727 6.727 0 0 1-.857 1.907c-.362.543-.793.982-1.271 1.286A2.899 2.899 0 0 1 23 23a2.885 2.885 0 0 1-1.557-.472c-.479-.304-.91-.743-1.271-1.286a6.727 6.727 0 0 1-.857-1.907C19.112 18.618 19 17.828 19 17s.112-1.618.314-2.335h7.372zM23 23v7.844M20 31h6" stroke="#333" stroke-linecap="round" stroke-linejoin="round" stroke-miterlimit="10" fill="none"/></svg>