<svg xmlns="http://www.w3.org/2000/svg" viewBox="0 0 32 32"><g stroke="#333" stroke-miterlimit="10" fill="none"><path d="M7.288 20.975c-.576.471-1.228.83-1.661 1.466-.923 1.355-.785 3.221.109 4.538 1.662 2.445 4.843 3.332 7.533 3.768 2.847.462 5.794.27 8.576-.379 2.666-.621 5.172-1.972 7.212-3.87 1.05-.977 1.71-2.015 1.892-3.508.169-1.394-.103-2.837-.662-4.106-.887-2.013-2.149-3.474-3.865-4.757a16.938 16.938 0 0 0-5.396-2.7c-3.655-1.062-8.43-.264-10.074 3.808a22.977 22.977 0 0 1-1.012 2.184"/><path d="M7.375 20.902a22.648 22.648 0 0 0-4.03-.982c-.783-.113-1.675-.249-2.12-.966-.481-.775-.142-1.924.556-2.464.698-.54 1.629-.577 2.465-.382.835.195 1.617.596 2.433.873 1.042.353 2.133.497 3.225.508.322.003.644-.002.966-.021 1.757-.102 3.493-.5 5.251-.568 1.758-.068 3.606.23 5.028 1.37 1.421 1.139 2.275 3.282 1.635 5.083-.508 1.429-1.85 2.366-3.232 2.586-1.382.22-2.792-.184-4.067-.811-1.275-.627-2.449-1.472-3.678-2.201a23.436 23.436 0 0 0-4.432-2.025zM18.5 19.5c.647.046 1.265.4 1.63.932.412.601.488 1.404.188 2.068m-8.065-14c-.314-.24-.561-.656-.676-1.14a2.924 2.924 0 0 1 .045-1.498c.178-.577.533-1.009.727-1.575.319-.928.117-2.163-.457-2.787m4.361 7c-.314-.24-.561-.656-.676-1.14a2.924 2.924 0 0 1 .045-1.498c.178-.577.533-1.009.727-1.575.319-.928.117-2.163-.457-2.787m4.361 7c-.314-.24-.561-.656-.676-1.14a2.924 2.924 0 0 1 .045-1.498c.178-.577.533-1.009.727-1.575.319-.928.117-2.163-.457-2.787"/></g></svg>