<svg xmlns="http://www.w3.org/2000/svg" viewBox="0 0 32 32"><path stroke="#333" stroke-width="2" stroke-miterlimit="10" d="M21.723 20.773c.632 0 .86-.381.51-.85l-3.309-4.433c-.351-.472-.121-.852.51-.852.633 0 .86-.381.51-.85l-3.309-4.433c-.351-.472-.918-.472-1.269 0l-3.309 4.433c-.351.469-.12.85.51.85s.86.38.509.851l-3.309 4.435c-.35.469-.12.85.51.85s.881.392.557.877l-5.691 8.473c-.325.483-.075.876.555.876h20.603c.633 0 .881-.393.556-.876l-5.691-8.473c-.324-.486-.076-.878.557-.878" fill="none"/><path stroke="#333" stroke-miterlimit="10" d="M15.691.77c.17-.36.447-.36.617 0l.569 1.207c.17.36.619.703 1 .76l1.271.194c.38.057.466.335.191.615l-.92.939c-.275.28-.446.835-.382 1.231l.218 1.328c.065.395-.161.566-.5.38l-1.138-.626c-.339-.188-.895-.188-1.235 0l-1.138.626c-.339.187-.565.016-.5-.38l.218-1.328c.064-.396-.107-.951-.382-1.231l-.92-.939c-.275-.28-.189-.558.191-.615l1.272-.194c.379-.057.829-.4.999-.76L15.691.77z" fill="none"/></svg>