<svg xmlns="http://www.w3.org/2000/svg" viewBox="0 0 32 32"><path d="M22.011 21.633a25.883 25.883 0 0 1-.618 1.973 24.776 24.776 0 0 1-1.178 2.725 22.994 22.994 0 0 1-1.455 2.475 20.807 20.807 0 0 1-1.705 2.193H8.946a20.807 20.807 0 0 1-1.705-2.193 22.83 22.83 0 0 1-1.455-2.475 24.505 24.505 0 0 1-1.178-2.725 26.066 26.066 0 0 1-.875-2.94A28.112 28.112 0 0 1 3 14.272c0-1.112.064-2.204.188-3.272h19.625c.123 1.068.187 2.16.187 3.272 0 .438-.018.871-.037 1.303-.03.664-.075 1.322-.15 1.969a27.314 27.314 0 0 1-.544 3.123c-.078.327-.17.646-.258.966zM7.544 22.955a22.079 22.079 0 0 1-.569-2.205 23.263 23.263 0 0 1-.354-2.342 24.692 24.692 0 0 1 0-4.908m16.341 2.075A3.963 3.963 0 0 1 25 15a4 4 0 0 1 0 8 3.97 3.97 0 0 1-2.989-1.367M14.5 8.5c.683-.403 1.143-.901 1.379-1.808.264-1.017.074-2.088.291-3.129.187-.898.544-1.759 1.33-2.063m-8 7c.683-.403 1.143-.901 1.379-1.808.264-1.017.074-2.088.291-3.129.187-.898.544-1.759 1.33-2.063" stroke="#333" stroke-linecap="round" stroke-linejoin="round" stroke-miterlimit="10" fill="none"/></svg>