<svg xmlns="http://www.w3.org/2000/svg" viewBox="0 0 32 32"><path stroke="#333" stroke-width="2" stroke-linecap="round" stroke-linejoin="round" stroke-miterlimit="10" d="M13.587 30L16 14.919 18 30h10.829c.097-3.393.156-4.101.169-7.264a300.04 300.04 0 0 0-.112-9.6c-.09-3.298-.237-6.757-.449-10.558a240.125 240.125 0 0 0-6.502-.419A130.43 130.43 0 0 0 16.097 2h-.194c-1.914.007-3.82.062-5.837.16s-4.144.239-6.502.419c-.213 3.801-.359 7.26-.45 10.558-.09 3.299-.124 6.437-.112 9.6.013 3.162.072 3.87.169 7.264h10.416z" fill="none"/><path stroke="#333" stroke-linecap="round" stroke-linejoin="round" stroke-miterlimit="10" d="M3 6.9c5.095-.215 9.097-.321 13.074-.321 3.977 0 7.93.108 12.926.321M9.5 2.189v4.39m13-4.375V6.67" fill="none"/><path fill="#333" d="M17 2.08l-.5 6.503a.502.502 0 1 1-1 0L15 2.08a1.004 1.004 0 1 1 2 0z"/></svg>