<svg xmlns="http://www.w3.org/2000/svg" viewBox="0 0 32 32"><path stroke="#333" stroke-width="2" stroke-linecap="round" stroke-linejoin="round" stroke-miterlimit="10" d="M16 25l2.75 2H27a2.99 2.99 0 0 0 2.122-.879A2.998 2.998 0 0 0 30 24V8a.987.987 0 0 0-.293-.707A.987.987 0 0 0 29 7H3a.987.987 0 0 0-.707.293A.99.99 0 0 0 2 8v16a2.99 2.99 0 0 0 .879 2.122A2.998 2.998 0 0 0 5 27h8.25L16 25zm2-18v8c0 1.1-.9 2-2 2s-2-.9-2-2V7m2 10v7.906" fill="none"/><path d="M7.338 7c.008.331.021.663.037.995m.09 1.769c.046 1.037.062 2.075-.045 3.101-.15 1.441-.575 2.841-1.402 4.047-.418.61-1.044 1.107-1.741 1.471m-.812.355A6.329 6.329 0 0 1 2.5 19M24.662 7c-.008.331-.021.663-.037.995m-.09 1.769c-.046 1.037-.062 2.075.045 3.101.15 1.441.575 2.841 1.402 4.047.418.61 1.044 1.107 1.741 1.471m.812.355c.322.115.648.203.965.262" stroke="#333" stroke-linecap="round" stroke-linejoin="round" fill="none"/></svg>