<svg xmlns="http://www.w3.org/2000/svg" viewBox="0 0 32 32"><path d="M29 17.444v1.778c-7.185 2.37-18.814 2.37-25.999 0v-1.778m-.001 0C3 11.062 8.82 5 16 5s13 6.062 13 12.444M29 19c.418 1.928.624 3.868.929 5.811.117.747.114 1.528-.195 2.23-.928 2.109-3.641 2.044-5.75 1.895-1.65-.117-3.254-.531-4.885-.77a22.337 22.337 0 0 0-5.529-.087c-1.864.207-3.677.724-5.552.857-2.109.149-4.822.214-5.75-1.895-.309-.702-.312-1.483-.195-2.23.303-1.943.509-3.883.927-5.811M16.927 5.027C9.385 6.236 7.249 12.565 6.611 18.09a16.764 16.764 0 0 0-.111 2.028m8.573-15.091c7.542 1.208 9.678 7.537 10.316 13.063.078.673.115 1.351.111 2.028M14.5 5.08V4a1.5 1.5 0 0 1 3 0v1.109" stroke="#333" stroke-linecap="round" stroke-linejoin="round" stroke-miterlimit="10" fill="none"/></svg>