<svg xmlns="http://www.w3.org/2000/svg" viewBox="0 0 32 32"><g stroke="#333" stroke-linecap="round" stroke-linejoin="round" stroke-miterlimit="10" fill="none"><ellipse transform="rotate(-45.001 3.991 28.009)" cx="3.992" cy="28.008" rx=".499" ry=".499"/><path d="M30.307 5.722L26.459 9.57a2 2 0 0 1-2.828 0L22.43 8.369a2 2 0 0 1 0-2.828l3.856-3.856c-2.619-1.16-5.784-.849-8.107.949a7.978 7.978 0 0 0-2.49 9.447L1.996 25.773c-1.145 1.146-1.314 3.03-.23 4.234a2.991 2.991 0 0 0 4.341.117l13.811-13.812a7.977 7.977 0 0 0 8.753-1.702c2.404-2.404 2.943-5.958 1.636-8.888z"/></g></svg>