<svg xmlns="http://www.w3.org/2000/svg" viewBox="0 0 32 32"><path d="M24.134 14.26a2.106 2.106 0 0 0-1.525-1.303c-1.551-.311-2.736 1.199-2.753 2.64-.011.962.407 1.896 1.024 2.63 2.003 2.383 5.701 2.338 7.734.018 1.023-1.168 1.334-2.665 1.381-4.159.065-2.053-.737-4.136-1.811-5.876-1.23-1.994-3.026-3.675-5.164-4.734C20.862 2.406 18.408 2 16 2c-2.409 0-4.862.406-7.022 1.476C6.84 4.535 5.044 6.216 3.814 8.21c-1.073 1.74-1.876 3.823-1.811 5.876.047 1.494.359 2.991 1.381 4.159 2.032 2.32 5.73 2.365 7.734-.018.617-.734 1.036-1.668 1.024-2.63-.017-1.441-1.201-2.951-2.752-2.64a2.106 2.106 0 0 0-1.525 1.303m19.239-2.235a11.195 11.195 0 0 0-1.094-2.35 10.76 10.76 0 0 0-1.841-2.265M21 18.562c-2.078 3.51-1.575 8.5-.31 12.438h-9.38c1.265-3.937 1.768-8.928-.31-12.438" stroke="#333" stroke-linecap="round" stroke-linejoin="round" stroke-miterlimit="10" fill="none"/></svg>