<svg xmlns="http://www.w3.org/2000/svg" viewBox="0 0 32 32"><path d="M14.203 26h3.522c.369-5.354 4.027-13.414 9.275-15.217L26.286 8c-9.136 3.996-11.144 4.209-20.572 0L5 10.807c5.211 1.819 8.835 9.863 9.203 15.193zM5.5 9.344a11.613 11.613 0 0 1-3.249-.857c-.485-.209-.958-.457-1.3-.807-.342-.349-.538-.815-.413-1.25.175-.606 1.001-1.02 1.756-.913.754.106 1.35.684 1.4 1.306.048.591-.334 1.148-.775 1.62-.441.47-.959.904-1.264 1.443-.472.834-.342 1.874.327 2.614M26.5 9.344a11.597 11.597 0 0 0 3.248-.857c.485-.209.958-.457 1.3-.806.342-.349.538-.815.413-1.25-.175-.606-1.001-1.02-1.756-.913-.754.106-1.35.684-1.4 1.306-.048.591.334 1.148.775 1.62.441.471.96.905 1.264 1.444.472.835.342 1.874-.327 2.614" stroke="#333" stroke-linecap="round" stroke-linejoin="round" stroke-miterlimit="10" fill="none"/></svg>