<svg xmlns="http://www.w3.org/2000/svg" viewBox="0 0 32 32"><path stroke="#333" stroke-width="2" stroke-miterlimit="10" d="M1.031 26.853c-.311-2.728 1.811-5.508 3.154-7.74 1.75-2.91 2.873-6.128 2.522-9.539-.274-2.667-1.053-5.962 1.635-7.703 1.39-.901 3.176-1.043 4.8-.699s3.115 1.131 4.537 1.982c2.021 1.21 3.949 2.566 5.875 3.921 2.349 1.653 4.787 3.531 6.192 6.127 1.589 2.936 1.715 6.651.113 9.61-1.505 2.78-5.07 5.491-8.4 5.047-1.639-.218-3.292-.381-4.947-.291-2.442.133-4.394 1.064-6.531 2.153-1.575.802-3.326 1.506-5.071 1.211a4.737 4.737 0 0 1-3.196-2.142 4.613 4.613 0 0 1-.683-1.937z" fill="none"/><path fill="#333" d="M13.346 3.908s.145.325.375.902c.221.58.564 1.399.926 2.398a140.99 140.99 0 0 1 2.467 7.381c.82 2.707 1.564 5.438 2.059 7.505.255 1.031.425 1.903.564 2.508.129.608.19.959.19.959s-.145-.325-.376-.902c-.221-.58-.565-1.399-.927-2.398-.739-1.993-1.64-4.675-2.466-7.381a140.498 140.498 0 0 1-2.057-7.505c-.255-1.031-.426-1.903-.565-2.508-.129-.608-.19-.959-.19-.959zm-4.632 6.48s.128.229.33.638c.192.412.494.992.807 1.704a75.976 75.976 0 0 1 2.112 5.292 75.127 75.127 0 0 1 1.71 5.435c.208.75.339 1.39.451 1.831.102.444.147.703.147.703s-.129-.229-.33-.638c-.192-.412-.495-.991-.808-1.704-.641-1.42-1.413-3.343-2.111-5.293a75.938 75.938 0 0 1-1.709-5.436c-.208-.75-.34-1.39-.452-1.831a16.686 16.686 0 0 1-.147-.701zM5.84 21.457s.335.306.701.847c.374.534.772 1.302 1.058 2.113.28.812.446 1.661.485 2.312.049.649-.024 1.099-.024 1.099s-.256-.376-.531-.952a20.774 20.774 0 0 1-.874-2.131 21.116 21.116 0 0 1-.638-2.213c-.142-.621-.177-1.075-.177-1.075zm11.883-14.86s-.501.747-1.347 1.775a55.291 55.291 0 0 1-3.259 3.613 55.19 55.19 0 0 1-3.563 3.314 25.12 25.12 0 0 1-1.755 1.373s.5-.748 1.346-1.776a54.824 54.824 0 0 1 3.26-3.612 55.143 55.143 0 0 1 3.564-3.313 25.228 25.228 0 0 1 1.754-1.374zM5.666 27.708s.252-.312.709-.842c.466-.521 1.104-1.293 1.92-2.169.817-.875 1.748-1.918 2.786-2.996 1.03-1.085 2.156-2.216 3.28-3.348 1.138-1.118 2.274-2.239 3.365-3.264 1.081-1.034 2.132-1.959 3.011-2.772.88-.813 1.657-1.446 2.181-1.91.532-.455.847-.705.847-.705s-.251.313-.709.842c-.466.521-1.103 1.294-1.919 2.169-.817.875-1.746 1.92-2.786 2.996-1.03 1.085-2.157 2.215-3.281 3.348-1.139 1.118-2.275 2.238-3.366 3.263-1.083 1.033-2.132 1.959-3.011 2.772-.88.812-1.657 1.447-2.18 1.91-.533.456-.847.706-.847.706zm11.973-2.01s.137-.203.393-.542c.264-.332.619-.826 1.083-1.384a65.92 65.92 0 0 1 3.545-3.948c1.347-1.379 2.751-2.703 3.851-3.65.544-.479 1.03-.847 1.355-1.119.332-.265.532-.407.532-.407s-.136.204-.393.543c-.264.332-.618.827-1.083 1.384-.917 1.125-2.203 2.563-3.546 3.947a65.011 65.011 0 0 1-3.852 3.649c-.545.479-1.029.848-1.354 1.12-.332.265-.531.407-.531.407zm3.679-17.763s.487.815 1.094 2.084a61.966 61.966 0 0 1 2.018 4.732 61.42 61.42 0 0 1 1.619 4.883c.385 1.353.558 2.287.558 2.287s-.488-.815-1.095-2.084c-.615-1.266-1.353-2.985-2.017-4.732a61.877 61.877 0 0 1-1.617-4.883 27.936 27.936 0 0 1-.56-2.287z"/></svg>