<svg xmlns="http://www.w3.org/2000/svg" viewBox="0 0 32 32"><g stroke="#333" stroke-linecap="round" stroke-linejoin="round" stroke-miterlimit="10" fill="none"><path d="M14.395 12.351l3.614-2.391a1.365 1.365 0 0 1 1.703.158c.455.446.522 1.145.162 1.669l-2.43 3.53"/><path d="M12.029 5.341L25.294 2.07c1.626-.401 3.044.989 2.634 2.583L24.59 17.659c-.435 1.694-2.581 2.34-3.801 1.144l-9.928-9.734c-1.219-1.197-.561-3.302 1.168-3.728zm3.546 8.843l-2.278 2.234m0 0l2.278 2.233m0 0l-4.556 4.467m-6.075 5.957a3.117 3.117 0 0 1 0-4.468l3.797-3.722 4.556 4.467L9.5 29.075a3.268 3.268 0 0 1-4.556 0z"/></g></svg>