<svg xmlns="http://www.w3.org/2000/svg" viewBox="0 0 32 32"><path stroke="#333" stroke-width="2" stroke-linejoin="round" stroke-miterlimit="10" d="M26.857 24.011l-5.691-9.23c-.324-.529-.076-.955.558-.955.632 0 .86-.416.509-.928L18.924 8.07c-.351-.514-.121-.928.51-.928.633 0 .86-.416.509-.928l-3.309-4.829c-.351-.514-.919-.514-1.269 0l-3.309 4.829c-.351.511-.12.928.51.928s.86.414.51.927l-3.309 4.83c-.351.511-.12.928.51.928.631 0 .881.426.558.955l-5.692 9.23c-.325.527-.075.956.556.956h7.429v5.22c0 .447.376.813.835.813h4.074a.827.827 0 0 0 .835-.813v-5.22h7.429c.633-.001.881-.429.556-.957z" fill="none"/></svg>