<svg xmlns="http://www.w3.org/2000/svg" viewBox="0 0 32 32"><g stroke="#333" stroke-width="2" stroke-miterlimit="10" fill="none"><path d="M14.642 5.978L9.663 1c-1.964 1.964.509 9.044 6.401 14.936 5.892 5.892 12.972 8.365 14.936 6.401l-4.979-4.979"/><ellipse transform="rotate(-45.001 16.064 7.401)" cx="16.064" cy="7.401" rx="2.012" ry="2.012"/><ellipse transform="rotate(-45.001 18.91 10.246)" cx="18.909" cy="10.246" rx="2.012" ry="2.012"/><ellipse transform="rotate(-45.001 21.755 13.091)" cx="21.754" cy="13.091" rx="2.012" ry="2.012"/><ellipse transform="rotate(-45.001 24.599 15.936)" cx="24.599" cy="15.936" rx="2.012" ry="2.012"/><path d="M7.661 19.832L1.167 17C.018 19.49 4.9 25.126 12.586 28.477S27.85 31.625 29 29.136l-6.494-2.832"/><path d="M18.794 24.686c.46-.996 1.663-1.441 2.688-.994 1.025.447 1.483 1.616 1.023 2.612-.46.996-1.663 1.441-2.688.994-1.024-.447-1.482-1.616-1.023-2.612zm-3.711-1.618c.46-.996 1.663-1.441 2.688-.994 1.025.447 1.483 1.616 1.023 2.612-.46.996-1.663 1.441-2.688.994-1.024-.447-1.482-1.616-1.023-2.612zm0 0c-.46.996-1.663 1.441-2.688.994-1.025-.447-1.483-1.616-1.023-2.612.46-.996 1.663-1.441 2.688-.994 1.025.447 1.483 1.616 1.023 2.612z"/><ellipse transform="rotate(-65.834 9.517 20.64)" cx="9.517" cy="20.641" rx="1.999" ry="1.999"/></g></svg>