<svg xmlns="http://www.w3.org/2000/svg" viewBox="0 0 32 32"><path d="M17.427 12.757c.441-.698.865-1.406 1.261-2.131.368-.674.717-1.373.856-2.129s.045-1.586-.408-2.205c-.662-.904-1.898-1.15-3.014-1.153-.952-.003-1.933.131-2.759.608-.826.477-1.472 1.351-1.477 2.31-.004.789.417 1.531.979 2.08.562.549 1.257.935 1.944 1.315 2.487 1.375 7.541 3.651 10.189 4.841l-1.744 4.143c-3.147-.8-7.853-3.558-10.691-5.079-2.269-1.217-4.551-2.829-5.312-5.2-.751-2.348.243-5.01 2.127-6.684 1.884-1.674 4.519-2.436 7.096-2.472 2.515-.035 5.217.693 6.739 2.6 1.746 2.188 1.471 5.339.286 7.844-.533 1.127-1.221 2.17-1.958 3.187m-2.919 3.997c-2.239 3.415-2.544 8.363-2.949 12.371H8.091c.099-3.643 2.76-8.124 4.669-11.22a80.205 80.205 0 0 1 2.077-3.157m-3.101 10.238a10.442 10.442 0 0 0-.926 3.945m2.924-3.921a8.49 8.49 0 0 0-.591 3.954" stroke="#333" stroke-linecap="round" stroke-linejoin="round" stroke-miterlimit="10" fill="none"/></svg>