<svg xmlns="http://www.w3.org/2000/svg" viewBox="0 0 32 32"><g stroke="#333" stroke-linejoin="round" stroke-miterlimit="10" fill="none"><path d="M6 16.385L16 21l10-4.615L29 15v16H3V15zm20 0V1H6v15.385"/><circle cx="16" cy="10" r="1.3"/><path d="M16 3.5v5.2m0-3.467L14.267 3.5M16 5.233L17.733 3.5M16 16.5v-5.2m0 3.467l1.733 1.733M16 14.767L14.267 16.5"/><ellipse transform="rotate(-29.934 16 10)" cx="16" cy="10" rx="1.302" ry="1.303"/><path d="M21.633 6.739l-4.507 2.609m3.005-1.739l.634-2.376m-.634 2.376l2.369.636m-12.133 5.016l4.506-2.609m-3.004 1.739l-.634 2.376m.634-2.376L9.5 11.755"/><ellipse transform="rotate(-60.066 16 10)" cx="16" cy="10" rx="1.303" ry="1.302"/><path d="M10.367 6.739l4.506 2.609m-3.004-1.739l-.634-2.376m.634 2.376L9.5 8.245m12.133 5.016l-4.507-2.609m3.005 1.739l.634 2.376m-.634-2.376l2.369-.636"/></g></svg>