<svg xmlns="http://www.w3.org/2000/svg" viewBox="0 0 32 32"><g stroke="#333" stroke-linecap="round" stroke-linejoin="round" stroke-miterlimit="10" fill="none"><path d="M11.395 24.866l-4.258 4.26a3.02 3.02 0 0 1-4.259 0 3.022 3.022 0 0 1 0-4.26l4.259-4.26 4.258 4.26zm-2.364-9.131l13.74-13.737 7.23 7.232-13.74 13.736zm1.087 1.809l-1.446 4.313m1.473 1.473l4.311-1.447"/><path d="M14.816 15.013l7.955-7.953 2.169 2.17-7.955 7.952zM22.77 1.996v5.062M30 9.228h-5.061m-10.122 5.785l-5.783.723m7.952 1.447l-.723 5.785"/></g></svg>