<svg xmlns="http://www.w3.org/2000/svg" viewBox="0 0 32 32"><path d="M12.253 11.5c-.314-.24-.561-.656-.676-1.14a2.924 2.924 0 0 1 .045-1.498c.178-.577.533-1.009.727-1.575.319-.928.117-2.163-.457-2.787m4.361 7c-.314-.24-.561-.656-.676-1.14a2.924 2.924 0 0 1 .045-1.498c.178-.577.533-1.009.727-1.575.319-.928.117-2.163-.457-2.787m4.361 7c-.314-.24-.561-.656-.676-1.14a2.924 2.924 0 0 1 .045-1.498c.178-.577.533-1.009.727-1.575.319-.928.117-2.163-.457-2.787M27.751 23H30c0 2.2-3.592 4-5.539 4H7.539C5.592 27 2 25.2 2 23h25.751zM4.244 23c1.112-4.564 5.951-8 11.756-8 5.804 0 10.638 3.437 11.751 8m-20.022-.052a7.789 7.789 0 0 1 2.048-6.298m.692 6.323a21.947 21.947 0 0 1 4.331-8.036m-.745 7.999c.58-3.194 2.89-6.019 5.905-7.223m-2.071 7.115a6.69 6.69 0 0 1 2.03-3.59 6.679 6.679 0 0 1 3.759-1.696m-1.781 5.338c.246-.98 1.089-1.7 1.977-2.182.888-.483 1.865-.8 2.71-1.354s1.575-1.434 1.575-2.445c0-.61-.263-1.185-.496-1.749-.233-.564-.442-1.174-.331-1.774.112-.6.661-1.16 1.264-1.067" stroke="#333" stroke-linecap="round" stroke-linejoin="round" stroke-miterlimit="10" fill="none"/></svg>