<svg xmlns="http://www.w3.org/2000/svg" viewBox="0 0 32 32"><path stroke="#333" stroke-width="2" stroke-linecap="round" stroke-linejoin="round" stroke-miterlimit="10" d="M25 2.496v26.385c0 .618-.047 1.368-.668 1.735s-1.456.469-2.203.315c-1.018-.21-1.86-.899-2.105-1.722-.227-.765.035-1.563.301-2.319a164.223 164.223 0 0 1 1.892-5.106c.462-1.188-.038-2.823-.714-3.942-2.775-4.407-3.271-9.708-1.349-14.4.225-.55.488-1.1.926-1.56.438-.459 1.077-.822 1.793-.876C23.848.932 25 1.73 25 2.496m-13.892 9.523l.889 16.878A1.999 1.999 0 0 1 10 31a1.999 1.999 0 0 1-1.997-2.102l.889-16.877" fill="none"/><path fill="#333" d="M9.008 11.958l.5-11.475a.5.5 0 0 1 1 0l.5 11.475a1.002 1.002 0 1 1-2 0zm-.079.993l-.174-.012a3.215 3.215 0 0 1-1.394-.457c-.165-.106-.259-.161-.485-.364l-.167-.175c-.085-.1-.192-.23-.241-.321-.498-.825-.48-1.709-.46-2.47l.078-2.321c.043-1.584.111-3.186.165-4.367L6.337.483a.499.499 0 0 1 .518-.481c.262.01.47.225.482.482l.07 1.981c.039 1.196.097 2.764.178 4.35l.106 2.335c.016.709.143 1.274.315 1.458l.023.026.13.116.145.075c.125.059.244.093.342.11l.215.018.111-.002h.01a1 1 0 1 1-.053 2zm2.104-2l.135.001.188-.018c.184-.033.47-.139.689-.389l.026-.025.058-.085.042-.069a.83.83 0 0 0 .077-.246c.039-.216.045-.605.057-.971l.07-2.328.197-6.337a.5.5 0 0 1 .998-.01v.007l.303 6.341.114 2.328c.014.377.048.708.016 1.17a2.7 2.7 0 0 1-.155.716c-.043.12-.092.224-.165.356l-.064.11-.106.157a3.123 3.123 0 0 1-2.268 1.28l-.149.011a1.001 1.001 0 1 1-.07-2l.007.001z"/><path stroke="#333" stroke-width="2" stroke-linecap="round" stroke-linejoin="round" stroke-miterlimit="10" d="M11.064 11.951H8.951" fill="none"/></svg>