<svg xmlns="http://www.w3.org/2000/svg" viewBox="0 0 32 32"><path d="M5.533 26.847l.248.291a8.89 8.89 0 0 0 2.103 1.65c5.615 3.142 13.8-.036 18.281-7.099 3.841-6.055 3.702-12.989.049-16.827a9.192 9.192 0 0 0-1.464-1.221c-.211-.145-.412-.301-.64-.429-5.615-3.142-13.8.036-18.281 7.099-3.748 5.909-3.696 12.647-.296 16.536zM24.751 3.641c-2.076 1.557-3.759 3.766-5.069 6.043-2.109 3.668-3.591 7.724-6.19 11.06-2.08 2.669-4.858 4.767-7.959 6.103" stroke="#333" stroke-width="2" stroke-miterlimit="10" fill="none"/></svg>