<svg xmlns="http://www.w3.org/2000/svg" viewBox="0 0 32 32"><g stroke="#333" stroke-linecap="round" stroke-linejoin="round" stroke-miterlimit="10" fill="none"><path d="M16.49 1c1.383 0 2.636.707 3.542 1.778s1.467 2.503 1.467 3.954a5.47 5.47 0 0 1-.106 1.076c.45.175.916.31 1.395.44s.971.256 1.472.414c.477.15.874.347 1.203.63.329.284.591.655.795 1.152.189.46.319.951.428 1.449.108.498.193 1.005.292 1.496l.363 1.81.363 1.81.91 4.537.91 4.537.238 1.184.238 1.184-1.973.338-1.974.338-1.526-7.423L23 14.284V31H9V14.284l-1.527 7.423-1.589 7.423-1.942-.338-1.958-.338.245-1.184.241-1.184.912-4.537.911-4.537.364-1.81.363-1.81c.099-.492.184-.998.292-1.496a8.62 8.62 0 0 1 .428-1.449c.204-.498.465-.869.795-1.152.329-.284.727-.481 1.203-.63.502-.158.993-.284 1.472-.414s.945-.265 1.395-.44a5.457 5.457 0 0 1-.106-1.076c0-1.451.561-2.884 1.467-3.954S14.127 1 15.51 1h.98zM10 7.5c3.04 1.333 8.96 1.333 12 0m-8.5-2c.108-.997 1.003-1.892 2-2"/><path d="M14.176 8.5c-.233.365-.47.742-.596 1.207-.126.465-.116 1.044.115 1.413.168.268.423.386.596.645.166.247.241.617.196.957-.045.34-.21.641-.427.778m3.507-5c-.135.5-.06 1.148.177 1.517.174.272.417.394.576.694.205.385.221.99.12 1.484-.102.495-.302.906-.498 1.305m1.436 11.624c-1.022-.512-1.714-1.495-1.714-2.624h-3.329c0 1.13-.691 2.113-1.714 2.624-.205.102-.137.376.097.376h6.562c.235 0 .303-.273.098-.376z"/></g></svg>