<svg xmlns="http://www.w3.org/2000/svg" viewBox="0 0 32 32"><path d="M5 29h20M6 14H3c0 6.627 5.373 12 12 12s12-5.373 12-12H9m2.5 8.5a10.44 10.44 0 0 1-3.06-2.101A8.671 8.671 0 0 1 6.5 17.5m20.187-.5H28c1.1 0 2 .9 2 2v2c0 1.1-.9 2-2 2h-5m-6.5-12.5c.683-.403 1.143-.901 1.379-1.808.264-1.017.074-2.088.291-3.129.187-.898.544-1.759 1.33-2.063m-8 7c.683-.403 1.143-.901 1.379-1.808.264-1.017.074-2.088.291-3.129.187-.898.544-1.759 1.33-2.063" stroke="#333" stroke-linecap="round" stroke-linejoin="round" stroke-miterlimit="10" fill="none"/></svg>