<svg xmlns="http://www.w3.org/2000/svg" viewBox="0 0 32 32"><path d="M26 18v-8a6 6 0 0 0-6-6h-8a6 6 0 0 0-6 6v19a2 2 0 0 0 2 2h16a2 2 0 0 0 2-2V18zM6 17H3a2 2 0 0 0-2 2v6a2 2 0 0 0 2 2h3m20 0h3a2 2 0 0 0 2-2v-6a2 2 0 0 0-2-2h-3m-14.5-5.5v.799m14.442-.023a27.43 27.43 0 0 1-3.442.745m-4 .409a46.2 46.2 0 0 1-2.5.07 46.2 46.2 0 0 1-2.5-.07m-4-.408a27.65 27.65 0 0 1-3.362-.723M13.5 13.43v-.93h-4v2a1 1 0 0 0 1 1h2a1 1 0 0 0 1-1v-1.07zm9-.409V14.5a1 1 0 0 1-1 1h-2a1 1 0 0 1-1-1v-2h4v.521zm-2-1.521v.799m-9 3.201v2.042m9-2.042v2.042M13 4V3a2 2 0 0 1 2-2h2a2 2 0 0 1 2 2v1m-1.5 27.5v-8a1 1 0 0 1 1-1h3a1 1 0 0 1 1 1v8m-13 0v-8a1 1 0 0 1 1-1h3a1 1 0 0 1 1 1v8m-5-3h5m3 0h5M6 19.5H1m5 5H1m30-5h-5m5 5h-5" stroke="#333" stroke-linecap="round" stroke-miterlimit="10" fill="none"/></svg>