<svg xmlns="http://www.w3.org/2000/svg" viewBox="0 0 32 32"><g stroke="#333" stroke-linecap="round" stroke-linejoin="round" stroke-miterlimit="10" fill="none"><path d="M1.706 20.652l3.26.904m3.796-9.992L4.038 24 1 23 7 3.692m16.238 7.872L27.962 24 31 23 25 3.692m5.264 16.94l-3.221.948"/><circle cx="16" cy="11" r=".5"/><circle cx="16" cy="14" r=".5"/><circle cx="16" cy="20" r=".5"/><circle cx="16" cy="26" r=".5"/><circle cx="16" cy="23" r=".5"/><circle cx="16" cy="17" r=".5"/><path d="M24 28v3H8v-3c1.314-2.237 1.278-3.907 1.355-6.489A56.174 56.174 0 0 0 7 3.692L13.142 1h5.749L25 3.692a56.135 56.135 0 0 0-2.355 17.818c.077 2.583.041 4.253 1.355 6.49zm-16 .5h16M12.628 1.225l3.338 3.182m5.05-2.47L16 7l-4.998-5.062m3.873 3.561l4.547-4.265"/></g></svg>