<svg xmlns="http://www.w3.org/2000/svg" viewBox="0 0 32 32"><g stroke="#333" stroke-linecap="round" stroke-linejoin="round" stroke-miterlimit="10" fill="none"><path d="M26.807 29H5.193c-2.076 0-3.6-1.834-3.096-3.728l2.257-8.485C4.946 14.561 7.073 13 9.514 13h12.972c2.441 0 4.569 1.561 5.161 3.787l2.257 8.485C30.407 27.166 28.883 29 26.807 29zm-15.85-14l-.855-5.086c-.15-.896-.154-1.826.12-2.693A6.07 6.07 0 0 1 16 3a6.07 6.07 0 0 1 5.778 4.221c.273.867.27 1.797.12 2.693L21.043 15"/><path d="M13.469 22.5H11a8.997 8.997 0 0 1-7.124-3.516m24.271-.03C26.498 21.106 23.904 22.5 21 22.5h-2.406m-5.094-1h5v3h-5z"/></g></svg>