<svg xmlns="http://www.w3.org/2000/svg" viewBox="0 0 32 32"><g stroke="#333" stroke-linecap="round" stroke-linejoin="round" stroke-miterlimit="10" fill="none"><path d="M28 10l-3-2-9 17L7 8l-3 2v21h24z"/><circle cx="16" cy="16" r="1.5"/><circle cx="16" cy="11" r="1.5"/><path d="M17.571 4.85l3.712 2.008A1.162 1.162 0 0 0 23 5.841V2.159c0-.878-.943-1.436-1.717-1.017l-3.74 2.023m-3.062 1.657l-3.764 2.036A1.162 1.162 0 0 1 9 5.841V2.159c0-.878.943-1.436 1.717-1.017l3.751 2.029M16.551 6h-1.103a.949.949 0 0 1-.948-.949V2.949A.95.95 0 0 1 15.449 2h1.103c.523 0 .948.425.948.949v2.103a.949.949 0 0 1-.949.948zM21 22h4"/></g></svg>