<svg xmlns="http://www.w3.org/2000/svg" viewBox="0 0 32 32"><path d="M23.397 3.181c-2.485 1.545-4.459 4.034-5.948 6.614-2.104 3.647-3.582 7.68-6.175 10.997-1.704 2.18-3.883 3.969-6.319 5.28C.409 20.941 1.167 12.487 6.823 6.831c4.756-4.755 11.498-6.058 16.574-3.65zM7.282 28.083c2.352-1.3 4.453-3.056 6.108-5.174 2.593-3.317 4.071-7.35 6.175-10.997 1.598-2.77 3.755-5.439 6.506-6.942.169.15.345.289.507.451 5.066 5.065 4.434 13.909-1.411 19.754-5.18 5.179-12.711 6.254-17.885 2.908z" stroke="#333" stroke-width="2" stroke-linecap="round" stroke-linejoin="round" stroke-miterlimit="10" fill="none"/></svg>