<svg xmlns="http://www.w3.org/2000/svg" viewBox="0 0 32 32"><path stroke="#333" stroke-linecap="round" stroke-linejoin="round" stroke-miterlimit="10" d="M10.854 12.5h10.284" fill="none"/><path stroke="#333" stroke-width="2" stroke-linecap="round" stroke-linejoin="round" stroke-miterlimit="10" d="M10.689.858C11.693 2.131 13.693 3 16 3s4.306-.869 5.311-2.141c.685.75 1.552 1.681 1.954 2.148-1.476 1.953-2.195 4.467-2.33 6.9-.141 2.536.795 4.675 1.701 6.946.685 1.717 1.221 3.525 1.333 5.383.182 3.007-.435 6.049-1.714 8.765H9.745c-1.279-2.716-1.896-5.758-1.714-8.765.113-1.858.648-3.666 1.333-5.383.906-2.271 1.842-4.41 1.701-6.946-.135-2.432-.854-4.947-2.33-6.9.406-.471 1.272-1.403 1.954-2.149z" fill="none"/></svg>