<svg xmlns="http://www.w3.org/2000/svg" viewBox="0 0 32 32"><path stroke="#333" stroke-width="2" stroke-linecap="round" stroke-linejoin="round" stroke-miterlimit="10" d="M18 21.39V10.61a6.43 6.43 0 0 0 .603-.212c1.645-.673 2.84-1.946 3.246-3.458.406-1.512-.02-3.1-1.158-4.313C19.982 1.872 19.046 1.314 18 1v4h-4V1c-1.046.314-1.983.872-2.691 1.627-1.139 1.213-1.565 2.8-1.159 4.313.406 1.512 1.601 2.785 3.246 3.458.197.081.399.151.603.212v10.78c-1.046.314-1.983.872-2.691 1.627-1.139 1.213-1.565 2.8-1.159 4.313.406 1.512 1.601 2.785 3.246 3.458.199.081.401.151.605.212v-4h4v4a6.43 6.43 0 0 0 .603-.212c1.645-.673 2.84-1.946 3.246-3.458.406-1.513-.02-3.1-1.158-4.313-.709-.755-1.645-1.313-2.691-1.627z" fill="none"/></svg>