<svg xmlns="http://www.w3.org/2000/svg" viewBox="0 0 32 32"><path stroke="#333" stroke-width="2" stroke-linejoin="round" stroke-miterlimit="10" d="M31 24.001S27.885 11.572 12.087 7.879l1.601-1.416a.75.75 0 0 0 .237-.82.759.759 0 0 0-.67-.528l-3.686-.25L8.19 1.433c-.23-.578-1.187-.578-1.416 0L5.397 4.865l-3.688.25a.754.754 0 0 0-.669.528.76.76 0 0 0 .235.826l2.836 2.368-.906 3.594a.77.77 0 0 0 .745.952.793.793 0 0 0 .402-.118l3.129-1.972 3.135 1.972a.76.76 0 0 0 .85-.032.76.76 0 0 0 .292-.802l-.695-1.826c7.063 4.171 10.558 18.797 10.558 18.797 1.414-1.598 1.593-5.94 1.593-5.94L28.176 31c.726-5.564-.856-9.887-.856-9.887L31 24.001z" fill="none"/></svg>