<svg xmlns="http://www.w3.org/2000/svg" viewBox="0 0 32 32"><path stroke="#333" stroke-width="2" stroke-linejoin="round" stroke-miterlimit="10" d="M28.906 8.267l-9.461 5.156C18.639 12.465 17.396 12 16 12c-1.397 0-2.639.465-3.445 1.423L3.094 8.267C1.942 7.641 1 8.153 1 9.409V22.59c0 1.256.942 1.77 2.094 1.142l9.461-5.156C13.361 19.535 14.603 20 16 20c1.396 0 2.639-.465 3.445-1.424l9.461 5.156c1.152.628 2.094.114 2.094-1.142V9.409c0-1.256-.942-1.768-2.094-1.142z" fill="none"/><circle stroke="#333" stroke-linejoin="round" stroke-miterlimit="10" cx="16" cy="16" r="1.5" fill="none"/></svg>