<svg xmlns="http://www.w3.org/2000/svg" viewBox="0 0 32 32"><g stroke="#333" stroke-linecap="round" stroke-linejoin="round" stroke-miterlimit="10" fill="none"><path d="M16 27.835l11.782 3.106c.925.244 1.875-.296 2.123-1.206l.035-.129a1.704 1.704 0 0 0-1.226-2.09L22.961 26M16 24.165L4.218 21.059c-.925-.244-1.875.296-2.123 1.206l-.035.129a1.704 1.704 0 0 0 1.226 2.09L9.038 26"/><path d="M9.038 26L16 24.165l11.782-3.106c.925-.244 1.875.296 2.123 1.206l.035.129a1.704 1.704 0 0 1-1.226 2.09L22.961 26 16 27.835 4.218 30.941c-.925.244-1.875-.296-2.123-1.206l-.035-.129a1.704 1.704 0 0 1 1.226-2.09L9.038 26zm3.093-5.601c-2.112-.762-3.727-2.459-4.069-4.397-.397-2.252 1.14-4.133 3.179-5.432 1.376-.876 2.777-1.651 3.715-2.909 1.294-1.736 1.448-4.179-.16-5.815-.226-.23-.908-.582-.944-.836.891-.119 2.536.757 3.334 1.108 2.01.885 3.947 2.025 5.117 3.714 1.361 1.965 1.848 4.52 1.656 6.769-.225 2.642-1.366 5.761-4.024 7.314-2.25 1.316-5.318 1.381-7.804.484zm-.974-.578c-.233-3.379 2.606-6.596 5.515-7.927.151.844.201 2.133.547 2.918.465-.152 1.146-.834 1.572-1.075.137-.077.881 1.776.954 1.976a8.362 8.362 0 0 1 .456 3.912"/></g></svg>