<svg xmlns="http://www.w3.org/2000/svg" viewBox="0 0 32 32"><path d="M22.541 13.263c.992 1.039.611 3.331.626 4.762 1.612.018 3.947-1.345 5.248-2.709 1.302-1.364 2.602-3.811 2.585-5.501-1.365-.016-3.551.383-4.543-.656L20.582 3l-3.916 4.105 5.875 6.158zM9.836 17.001c1.117-.333 2.408-1.155 3.566-2.37 1.159-1.214 1.943-2.567 2.261-3.738l2.309-2.42 2.611 2.737L3.611 29 1 26.263l8.836-9.262zM23.153 5.78l-3.876 4.062m9.612.188c-.573 2.425-3.203 5.182-5.516 5.782" stroke="#333" stroke-linecap="round" stroke-linejoin="round" stroke-miterlimit="10" fill="none"/></svg>