<svg xmlns="http://www.w3.org/2000/svg" viewBox="0 0 32 32"><path fill="#333" d="M9.304 4.397l.293.151c.084.04.209.108.382.22.161.102.352.218.505.353a6.663 6.663 0 0 1 1.854 2.34c.481.958.684 2.034.652 2.853-.021.207-.019.393-.06.562l-.099.43-.129.368a.496.496 0 0 1-.955-.263l.017-.085.053-.264.028-.312-.011-.414c-.059-.611-.326-1.444-.807-2.144-.457-.716-1.097-1.269-1.602-1.561-.128-.088-.231-.122-.321-.167a1.734 1.734 0 0 0-.29-.122l-.309-.112a1.002 1.002 0 1 1 .799-1.833zm14.158-.426l.385.755c.249.471.576 1.183.766 1.907.197.724.282 1.446.321 1.98.041.534.04.885.04.885v.014a.501.501 0 0 1-.995.091s-.061-.329-.187-.804a9.282 9.282 0 0 0-.59-1.653 7.728 7.728 0 0 0-.917-1.437l-.526-.686A1.004 1.004 0 1 1 23.45 3.95l.012.021z"/><path stroke="#333" stroke-width="2" stroke-linecap="round" stroke-linejoin="round" stroke-miterlimit="10" d="M22.611 4.497A6 6 0 1 1 25 16v15H7V17A6 6 0 1 1 7 5c.666 0 1.305.113 1.904.314a7.994 7.994 0 0 1 13.707-.817z" fill="none"/><path stroke="#333" stroke-linecap="round" stroke-linejoin="round" stroke-miterlimit="10" d="M7.15 26.5h17.7m-12.432-3c.247-1.686-.07-3.411-.918-5m8.05 5c-.184-3.045.143-6.144.95-9m-4.1 9a29.094 29.094 0 0 0-.871-9.847" fill="none"/></svg>