<svg xmlns="http://www.w3.org/2000/svg" viewBox="0 0 32 32"><g stroke="#333" stroke-linecap="round" stroke-linejoin="round" stroke-miterlimit="10" fill="none"><path d="M6.508 6.002l8.992.038a1 1 0 0 1 .709.299l3.5 3.562A.987.987 0 0 1 20 10.6v17.419A1.99 1.99 0 0 1 18 30H4c-1.105 0-2-.887-2-1.981V10.602c0-.264.105-.517.293-.702l3.494-3.595a1 1 0 0 1 .721-.303zm4.736 3.081c-1.72-5.233 4.45-8.132 8.777-6.732 1.967.636 3.653 2.055 4.639 3.853 1.054 1.924.801 3.966.938 6.054a22.408 22.408 0 0 0 1.429 6.532"/><circle cx="11" cy="14" r=".5"/><circle cx="11" cy="18" r=".5"/><circle cx="11" cy="22" r=".5"/><circle cx="11" cy="26" r=".5"/><path d="M29 23.066h-4l1-3.962h2zM9 10.186a2.533 2.533 0 0 1 2.216-.977c.694.059 1.371.416 1.784.981"/></g></svg>