<svg xmlns="http://www.w3.org/2000/svg" viewBox="0 0 32 32"><path d="M24.736 31c.681-3.864.033-7.979-1.793-11.391-.613-1.147-1.361-2.232-1.738-3.49a6.486 6.486 0 0 1 .207-4.264c.547-1.332 1.338-2.454 2.572-3.065-.282-1.893-1.812-3.493-3.588-3.752-1.775-.26-3.65.843-4.396 2.586-.746-1.743-2.622-2.845-4.397-2.586-1.775.259-3.305 1.859-3.588 3.752 1.234.611 2.026 1.733 2.572 3.065a6.486 6.486 0 0 1 .207 4.264c-.377 1.258-1.124 2.343-1.738 3.49C7.231 23.021 6.584 27.136 7.264 31h17.472zM11 1v4m10-4v4M7.5 26.5l.482.129m1.86.39c4.1.696 9.34.637 13.248-.176m.928-.214l.482-.129M10.247 11.084c3.583.555 7.947.554 11.527-.003" stroke="#333" stroke-linecap="round" stroke-linejoin="round" fill="none"/></svg>