<svg xmlns="http://www.w3.org/2000/svg" viewBox="0 0 32 32"><g stroke="#333" stroke-linecap="round" stroke-linejoin="round" stroke-miterlimit="10" fill="none"><path d="M27.216 28H4.784A3.795 3.795 0 0 1 1 24.216v-.432A3.795 3.795 0 0 1 4.784 20h22.432A3.795 3.795 0 0 1 31 23.784v.432A3.795 3.795 0 0 1 27.216 28zM1.464 22.033c.17-.313.388-.608.652-.872L18.161 5.114a3.84 3.84 0 0 1 5.414 0l.309.309a3.84 3.84 0 0 1 0 5.413l-9.117 9.118"/><circle cx="5" cy="24" r="1.5"/><path d="M9.5 25v3m4-3v3m4-3v3m4-3v3m4-3v3m-18-1.5v1.479m4-1.479v1.479m4-1.479v1.479m4-1.479v1.479m4-1.479v1.479"/></g></svg>