<svg xmlns="http://www.w3.org/2000/svg" viewBox="0 0 32 32"><g stroke="#333" stroke-linejoin="round" stroke-miterlimit="10" fill="none"><circle cx="9" cy="23" r="3"/><circle cx="23" cy="23" r="3"/><path d="M11.829 22H20M2 22h4.146m23.812-5.5h-4.579L23 11"/><path d="M17.269 16l-.13-.003a33.194 33.194 0 0 1-8.292-1.282 33.525 33.525 0 0 1-7.732-3.326L1 11.322 2.731 5l.13.003c2.806.075 5.591.505 8.292 1.282a33.525 33.525 0 0 1 7.732 3.326l.115.067L17.269 16zM4 12.921V18h16v-7h7.552L29 16l2 1v5h-5"/></g></svg>