<svg xmlns="http://www.w3.org/2000/svg" viewBox="0 0 32 32"><g stroke="#333" stroke-miterlimit="10" fill="none"><path d="M6 19l3.328 2 3.331-2 3.332 2s1.666-2 3.333-2l3.338 2s1.669-2 3.338-2"/><path d="M18.724 5.242C24.037 6.168 28 9.733 28 14c0 1.806-.71 3.488-1.931 4.898L23 31H8L5.93 18.896C4.709 17.487 4 15.806 4 14c0-4.267 3.963-7.832 9.276-8.758A15.816 15.816 0 0 1 16 5c.938 0 1.847.089 2.724.242zm0 0C18.897 4.863 19 4.444 19 4a3 3 0 1 0-6 0c0 .444.103.863.276 1.242M16.5 24.5v4m-2-4v4m-2-3v3m6-3v3m2-2v2m-10-2v2"/></g></svg>