<svg xmlns="http://www.w3.org/2000/svg" viewBox="0 0 32 32"><g stroke="#333" stroke-linecap="round" stroke-linejoin="round" stroke-miterlimit="10" fill="none"><path d="M19 16.104v6.394c0 .446-.366.606-.818.606H8.597c-.374 2.019-1.759 3.744-3.815 4.531-.708.271-1.433.351-2.146.365 1.428-1.233 2.182-2.877 2.014-4.896H1.818c-.452 0-.818-.16-.818-.606v-9.691c0-.446.366-.807.818-.807h16.364c.452 0 .818.361.818.808v3.296zM13 12V5.808c0-.446.366-.808.818-.808h16.364c.452 0 .818.362.818.808v9.691c0 .446-.366.606-.818.606H27.35c-.168 2.019.586 3.663 2.014 4.896-.712-.014-1.438-.094-2.146-.365-2.056-.786-3.441-2.512-3.815-4.531H19"/><circle cx="6" cy="18" r=".5"/><circle cx="10" cy="18" r=".5"/><circle cx="14" cy="18" r=".5"/></g></svg>