<svg xmlns="http://www.w3.org/2000/svg" viewBox="0 0 32 32"><g stroke="#333" stroke-linecap="round" stroke-linejoin="round" stroke-miterlimit="10" fill="none"><circle cx="23" cy="17" r="2.5"/><path d="M19.973 25.637C21.551 28.084 23 30 23 30s1.448-1.916 3.027-4.363C27.92 22.704 30 19.007 30 16.923 30 13.099 26.866 10 23 10s-7 3.099-7 6.923c0 2.084 2.08 5.781 3.973 8.714z"/><circle cx="7" cy="7" r="1.5"/><path d="M4.838 12.946A55.5 55.5 0 0 0 7 16s1.035-1.341 2.162-3.054C10.514 10.893 12 8.305 12 6.846 12 4.17 9.761 2 7 2S2 4.17 2 6.846c0 1.459 1.486 4.047 2.838 6.1zM7 16h1.366c1.886 0 3.415 1.567 3.415 3.5S10.252 23 8.366 23H6.415C4.529 23 3 24.567 3 26.5S4.529 30 6.415 30H23"/></g></svg>