<svg xmlns="http://www.w3.org/2000/svg" viewBox="0 0 32 32"><path stroke="#333" stroke-width="2" stroke-linecap="round" stroke-linejoin="round" stroke-miterlimit="10" d="M5 11v8h4a5 5 0 0 1 5 5v4a3 3 0 1 0 6 0v-4a5 5 0 0 1 5-5h4v-8H5z" fill="none"/><path stroke="#333" stroke-linecap="round" stroke-linejoin="round" stroke-miterlimit="10" d="M5 14.5h24" fill="none"/><path stroke="#333" stroke-width="2" stroke-linecap="round" stroke-linejoin="round" stroke-miterlimit="10" d="M2 1h24M4.989 11A16.331 16.331 0 0 0 2 1m26.989 10A16.331 16.331 0 0 0 26 1" fill="none"/><path stroke="#333" stroke-linecap="round" stroke-linejoin="round" stroke-miterlimit="10" d="M21.489 11A16.338 16.338 0 0 0 18.5 1m6.989 10A16.338 16.338 0 0 0 22.5 1m-5.011 10A16.338 16.338 0 0 0 14.5 1m-1.011 10A16.338 16.338 0 0 0 10.5 1M9.489 11A16.331 16.331 0 0 0 6.5 1" fill="none"/><path fill="#333" d="M17 27a1 1 0 1 0 0 2 1 1 0 0 0 0-2z"/></svg>