<svg xmlns="http://www.w3.org/2000/svg" viewBox="0 0 32 32"><path d="M9.093 12c-3.682 1.616-6.229 5.033-6.229 9 0 5.523 4.925 10 11 10s11-4.477 11-10c0-3.901-2.462-7.271-6.046-8.92M30 22.354c-1.186-1.155-2.105-3.232-1.695-4.882.198-.797.57-1.542.782-2.336.212-.794.243-1.694-.203-2.384-.43-.665-1.248-1.014-2.041-1.017-1.224-.005-3.373.636-4.96.508l-3.066-.162L17.302 12H6.863m12 0V9L7.113 7l2.042 4.776M15.336 1c-1.162 1.58 1.107 2.551.585 4m-4.585-4c-1.162 1.58 1.107 2.551.585 4" stroke="#333" stroke-width="2" stroke-linecap="round" stroke-linejoin="round" stroke-miterlimit="10" fill="none"/></svg>