<svg xmlns="http://www.w3.org/2000/svg" viewBox="0 0 32 32"><path stroke="#333" stroke-width="2" stroke-linecap="round" stroke-linejoin="round" stroke-miterlimit="10" d="M25.057 16c.607 1.033.943 2.17.943 3.362s-.336 2.329-.943 3.362-1.486 1.964-2.572 2.746c-1.086.781-2.379 1.414-3.814 1.851A16.074 16.074 0 0 1 14 28c-1.657 0-3.235-.242-4.671-.679-1.436-.437-2.729-1.07-3.814-1.851-1.086-.782-1.964-1.712-2.572-2.746C2.336 21.691 2 20.555 2 19.362s.336-2.329.943-3.362h22.114z" fill="none"/><path stroke="#333" stroke-linecap="round" stroke-linejoin="round" stroke-miterlimit="10" d="M8.824 12.532c-1.226-2.083 1.414-3.464 1.559-5.398.076-1.021-.335-2.054-1.205-2.634m3.7 8.032c-1.226-2.083 1.415-3.464 1.559-5.398.076-1.021-.335-2.054-1.205-2.634m3.7 8.032c-1.226-2.083 1.414-3.464 1.559-5.398.076-1.021-.335-2.054-1.205-2.634" fill="none"/><path fill="#333" d="M20.646 15.647l8.616-9.353a1.002 1.002 0 1 1 1.416 1.412l-9.324 8.647a.5.5 0 0 1-.708-.706z"/><path stroke="#333" stroke-linecap="round" stroke-linejoin="round" stroke-miterlimit="10" d="M6.653 16.5c-.582 2.513.524 5.234 2.847 7" fill="none"/></svg>