<svg xmlns="http://www.w3.org/2000/svg" viewBox="0 0 32 32"><path d="M13 16.104v6.394c0 .446.366.606.818.606h9.585c.374 2.019 1.759 3.744 3.815 4.531.708.271 1.434.351 2.146.365-1.428-1.233-2.182-2.877-2.014-4.896h2.832c.452 0 .818-.16.818-.606v-9.691a.812.812 0 0 0-.818-.807H13.818a.812.812 0 0 0-.818.808v3.296zM19 12V5.808A.813.813 0 0 0 18.182 5H1.818A.813.813 0 0 0 1 5.808v9.691c0 .446.366.606.818.606H4.65c.168 2.018-.586 3.662-2.014 4.895.712-.014 1.438-.094 2.146-.365 2.056-.786 3.441-2.512 3.815-4.531H13m14.5-.604h-11m11 2h-11m11 2h-11" stroke="#333" stroke-linecap="round" stroke-linejoin="round" stroke-miterlimit="10" fill="none"/></svg>