<svg xmlns="http://www.w3.org/2000/svg" viewBox="0 0 32 32"><g stroke="#333" stroke-miterlimit="10" fill="none"><path d="M3.604 10.123C4.373 16.536 9.626 21.5 16 21.5c6.375 0 11.628-4.965 12.396-11.378"/><path d="M28.41 10H1c0 7.732 6.716 14 15 14 8.284 0 15-6.268 15-14h-2.59zM10.5 14a.5.5 0 0 1-1 0c0-.276.5-1.5.5-1.5s.5 1.224.5 1.5zm3 4a.5.5 0 0 1-1 0c0-.276.5-1.5.5-1.5s.5 1.224.5 1.5zm6 0a.5.5 0 0 1-1 0c0-.276.5-1.5.5-1.5s.5 1.224.5 1.5zm3-4a.5.5 0 0 1-1 0c0-.276.5-1.5.5-1.5s.5 1.224.5 1.5zm-6 0a.5.5 0 0 1-1 0c0-.276.5-1.5.5-1.5s.5 1.224.5 1.5z"/></g></svg>