<svg xmlns="http://www.w3.org/2000/svg" viewBox="0 0 32 32"><g stroke="#333" stroke-linecap="round" stroke-linejoin="round" stroke-miterlimit="10" fill="none"><path d="M30.259 13.706l-1.464-2.029a3.917 3.917 0 0 1-.691-1.668l-.399-2.47a3.92 3.92 0 0 0-3.244-3.244l-2.469-.4a3.917 3.917 0 0 1-1.668-.691L18.295 1.74a3.921 3.921 0 0 0-4.588 0l-2.029 1.464a3.917 3.917 0 0 1-1.668.691l-2.47.4A3.921 3.921 0 0 0 4.295 7.54l-.399 2.47a3.917 3.917 0 0 1-.691 1.668l-1.464 2.029a3.921 3.921 0 0 0 0 4.588l1.464 2.029a3.93 3.93 0 0 1 .691 1.668l.399 2.469a3.92 3.92 0 0 0 3.244 3.244l2.47.399a3.917 3.917 0 0 1 1.668.691l2.029 1.464a3.921 3.921 0 0 0 4.588 0l2.029-1.464a3.917 3.917 0 0 1 1.668-.691l2.469-.399a3.92 3.92 0 0 0 3.244-3.244l.399-2.469a3.917 3.917 0 0 1 .691-1.668l1.464-2.029a3.921 3.921 0 0 0 .001-4.589z"/><circle cx="16" cy="16" r="5"/><circle cx="16" cy="6" r="1.5"/><circle cx="16" cy="26" r="1.5"/><circle cx="26" cy="16" r="1.5"/><circle cx="6" cy="16" r="1.5"/><ellipse transform="rotate(-45.001 23.071 8.93)" cx="23.071" cy="8.929" rx="1.5" ry="1.5"/><ellipse transform="rotate(-45.001 8.929 23.071)" cx="8.929" cy="23.071" rx="1.5" ry="1.5"/><ellipse transform="rotate(-45.001 23.07 23.071)" cx="23.071" cy="23.071" rx="1.5" ry="1.5"/><ellipse transform="rotate(-45.001 8.929 8.93)" cx="8.929" cy="8.929" rx="1.5" ry="1.5"/></g></svg>