<svg xmlns="http://www.w3.org/2000/svg" viewBox="0 0 32 32"><g stroke="#333" stroke-miterlimit="10" fill="none"><path d="M7.291 8.368C4.662 10.747 3 14.175 3 18c0 7.18 5.82 13 13 13s13-5.82 13-13S23.18 5 16 5c-.338 0-.669.025-1 .05M15 2v14L7.291 8.368 5 6.101m0 0A14.168 14.168 0 0 1 15 2"/><circle cx="11" cy="7" r="1.5"/><circle cx="8" cy="16" r="1.5"/><circle cx="10" cy="23" r="1.5"/><circle cx="16" cy="26" r="1.5"/><circle cx="23" cy="22" r="1.5"/><circle cx="20" cy="11" r="1.5"/><circle cx="24" cy="16" r="1.5"/><circle cx="16" cy="20" r="1.5"/></g></svg>