<svg xmlns="http://www.w3.org/2000/svg" viewBox="0 0 32 32"><path d="M21.886 8.7c.726-.365 1.42-.812 2.071-1.342 1.624-1.325 4.015-4.113 1.514-5.869-.83-.582-2.081-.533-3.02-.411a7.564 7.564 0 0 0-3.353 1.301C17.506 3.483 16.449 5.211 16 7.121c-.449-1.91-1.506-3.638-3.096-4.742A7.54 7.54 0 0 0 9.55 1.078c-.939-.123-2.191-.17-3.02.411-2.502 1.755-.11 4.544 1.513 5.868.651.53 1.344.978 2.071 1.342M19 8.973v10.17l-3-1.871-3 1.871V8.973m6 0H5.614C4.712 8.973 4 9.486 4 10.422v18.903C4 30.26 4.712 31 5.614 31h20.772c.902 0 1.614-.74 1.614-1.676V10.422c0-.936-.712-1.448-1.614-1.448H19" stroke="#333" stroke-width="2" stroke-linejoin="round" stroke-miterlimit="10" fill="none"/></svg>