<svg xmlns="http://www.w3.org/2000/svg" viewBox="0 0 32 32"><g stroke="#333" stroke-linecap="round" stroke-linejoin="round" stroke-miterlimit="10" fill="none"><path d="M23.134 31H8.866c-2.818 0-4.753-2.837-3.724-5.461l4.55-11.6A4 4 0 0 1 13.549 11h4.903a4 4 0 0 1 3.857 2.939l4.55 11.6C27.887 28.163 25.953 31 23.134 31zM14.5 15l-3 12m6-12l3 12m0-21.5c-1.243 1.333-3.257 1.333-4.5 0-1.243 1.333-3.257 1.333-4.5 0"/><path d="M18.948 1h-.901c-.451.905-1.198 1.5-2.047 1.5s-1.596-.595-2.048-1.5h-.901c-1.354 0-2.336 1.257-1.977 2.53l1.692 6c.245.868 1.054 1.47 1.977 1.47h2.513c.923 0 1.732-.602 1.977-1.47l1.692-6c.36-1.273-.623-2.53-1.977-2.53z"/></g></svg>