<svg xmlns="http://www.w3.org/2000/svg" viewBox="0 0 32 32"><g stroke="#333" stroke-linecap="round" stroke-linejoin="round" stroke-miterlimit="10" fill="none"><path d="M19.182 18.837a21.33 21.33 0 0 0-.146 4.001c.164 2.749.88 5.36 1.964 7.162-2.764 1.333-7.236 1.333-10 0 1.084-1.802 1.8-4.413 1.964-7.162a21.334 21.334 0 0 0-.146-4.001"/><path d="M19.182 18.837A4.917 4.917 0 0 1 16 20a4.917 4.917 0 0 1-3.182-1.163 5.084 5.084 0 0 1-1.249-1.568A4.957 4.957 0 0 1 9 18a5 5 0 0 1-5-5c0-1.853 1.02-3.453 2.518-4.316A3 3 0 0 1 9 4c.395 0 .769.081 1.115.219a6.99 6.99 0 0 1 11.77 0C22.23 4.081 22.605 4 23 4a3 3 0 0 1 2.482 4.684C26.98 9.547 28 11.147 28 13a5 5 0 0 1-5 5 4.95 4.95 0 0 1-2.568-.731 5.09 5.09 0 0 1-1.25 1.568zM12.124 5.712A4.498 4.498 0 0 1 16 3.5m8.496 7.497A2.5 2.5 0 0 1 23 15.5m-5.5 12l1 3.208m-4-3.208l-1 3.208"/></g></svg>