<svg xmlns="http://www.w3.org/2000/svg" viewBox="0 0 32 32"><g stroke="#333" stroke-linecap="round" stroke-linejoin="round" stroke-miterlimit="10" fill="none"><path d="M14.768 19c-1.744.095-3.424.392-4.768.892v5.194C10 28.339 15.765 31 15.765 31h.469s5.765-2.661 5.765-5.914v-5.194c-1.339-.498-3.012-.795-4.75-.891M18 4.344v10.344c0 .519-.036 1.038-.108 1.553a11.727 11.727 0 0 1-.321 1.537 10.235 10.235 0 0 1-1.466 3.071L16 21l-.105-.151a10.235 10.235 0 0 1-1.466-3.071 11.373 11.373 0 0 1-.429-3.09V4.281m.5 11.219h3"/><path d="M19 1v1.143C19 3.721 17.657 5 16 5s-3-1.279-3-2.857V1h6z"/></g></svg>