<svg xmlns="http://www.w3.org/2000/svg" viewBox="0 0 32 32"><path d="M14.551 31h2.841c.298-4.31 3.248-9.796 7.48-11.248l-.576-2.24c-7.368 3.216-8.987 3.388-16.59 0l-.576 2.259c4.201 1.465 7.124 6.939 7.421 11.229zM7.532 18.594a9.358 9.358 0 0 1-2.62-.69c-.391-.168-.773-.368-1.049-.649-.276-.281-.434-.656-.333-1.006.141-.488.807-.821 1.416-.735s1.089.551 1.129 1.051c.039.476-.269.924-.625 1.304-.356.379-.774.729-1.02 1.162-.381.672-.276 1.508.264 2.104m19.774-2.541a9.358 9.358 0 0 0 2.62-.69c.391-.168.773-.368 1.049-.649.276-.281.434-.656.333-1.006-.141-.488-.807-.821-1.416-.735-.608.085-1.089.551-1.129 1.051-.039.476.269.924.625 1.304.356.379.774.729 1.02 1.162.381.672.276 1.508-.264 2.104M14 7.314c0 1.294-.448 2.466-1.172 3.314C12.105 11.476 11.105 12 10 12c-1.105 0-2.105-.524-2.828-1.373C6.448 9.779 6 8.608 6 7.314S6.448 4.848 7.172 4L14 7.314zM7 4V1m11 6.314c0 1.294.448 2.466 1.172 3.314C19.895 11.476 20.895 12 22 12c1.105 0 2.105-.524 2.828-1.373C25.552 9.779 26 8.608 26 7.314S25.552 4.848 24.828 4L18 7.314zM25 4V1M14 9h4" stroke="#333" stroke-linecap="round" stroke-linejoin="round" stroke-miterlimit="10" fill="none"/></svg>