<svg xmlns="http://www.w3.org/2000/svg" viewBox="0 0 32 32"><path stroke="#333" stroke-width="2" stroke-linecap="round" stroke-linejoin="round" stroke-miterlimit="10" d="M26 21.526C26 27.34 21.523 31 16 31S6 27.34 6 21.526 10.477 11 16 11s10 4.713 10 10.526z" fill="none"/><circle stroke="#333" stroke-width="2" stroke-linecap="round" stroke-linejoin="round" stroke-miterlimit="10" cx="16" cy="6" r="5" fill="none"/><path stroke="#333" stroke-width="2" stroke-linecap="round" stroke-linejoin="round" stroke-miterlimit="10" d="M25.083 16.958L31 14m-3 1v-2M6.879 16.939L1 14m3 1v-2" fill="none"/><path fill="#333" d="M16 17a1 1 0 1 0 0 2 1 1 0 0 0 0-2zm0 4a1 1 0 1 0 0 2 1 1 0 0 0 0-2zm0 4a1 1 0 1 0 0 2 1 1 0 0 0 0-2z"/></svg>