<svg xmlns="http://www.w3.org/2000/svg" viewBox="0 0 32 32"><g stroke="#333" stroke-linecap="round" stroke-linejoin="round" stroke-miterlimit="10" fill="none"><path d="M13.001 10.139C13.013 6.747 17.037 4 22 4c4.971 0 9 2.755 9 6.154 0 1.937-1.311 3.662-3.357 4.79L28.429 19l-3.927-2.938c-.795.157-1.633.246-2.502.246-.355 0-.704-.018-1.048-.045"/><path d="M13.001 10.139A14.372 14.372 0 0 0 11 10c-5.523 0-10 3.099-10 6.923 0 2.179 1.457 4.12 3.73 5.389L3.857 27l4.363-3.431a14.15 14.15 0 0 0 2.78.277c5.523 0 10-3.1 10-6.923 0-.223-.018-.443-.048-.66-.418-3.051-3.691-5.525-7.951-6.124zM6.5 14.5h9m-9 2h9m-9 2h9"/></g></svg>