<svg xmlns="http://www.w3.org/2000/svg" viewBox="0 0 32 32"><g stroke="#333" stroke-linecap="round" stroke-linejoin="round" stroke-miterlimit="10" fill="none"><path d="M4 13v6h8.481c.507 0 .903.274.853.794l-.763 7.765c0 1.949 1.535 3.485 3.429 3.485v-.022c1.893 0 3.429-1.591 3.429-3.541l-.763-7.682c-.051-.519.345-.799.853-.799H28v-6H4zm1.333 0L4 1l2.397 1.714L8.796 1l2.4 1.714L13.59 1l2.398 1.714L18.388 1s1.2 1.714 2.401 1.714L23.19 1l2.405 1.714L28 1l-1.333 12"/><circle cx="16" cy="28" r=".5"/></g></svg>