<svg xmlns="http://www.w3.org/2000/svg" viewBox="0 0 32 32"><g stroke="#333" stroke-linejoin="round" stroke-miterlimit="10" fill="none"><path d="M30.221 3.461c-1.254-1.134-4.024.185-6.923.149-3.289-.039-6.528-.851-8.372-.224-1.614.547-1.611 3.767-.86 6.204.25.813.679 1.222 1.783 1.222.061 2.482-.19 5.42-.303 5.703-.927 2.312-4.628 2.66-9.258 2.197-5.312-.528-5.775 4.22-4.984 6.948.731 2.517 2.194 3.39 6.409 3.334a774.278 774.278 0 0 1 14.977-.046l.001.015c1.269.011 3.523.022 4.892.036 3.426.028 3-4.139 2.474-7.659-.176-1.327-.606-8.946-.573-10.352 1.29 0 1.317-.738 1.334-.978.247-3.333.394-5.656-.597-6.549zm-8.554 25.422a7.602 7.602 0 0 1-.327-2.211c0-4.355 3.676-7.885 8.209-7.885l.481.013"/><path d="M15.849 10.812l13.635.177-13.635-.177zM18.5 3v8m3-8v8m3-8v8m3-8v8"/></g></svg>