<svg xmlns="http://www.w3.org/2000/svg" viewBox="0 0 32 32"><path d="M29 15c0 1.657-5.82 3-13 3S3 16.657 3 15m25.157 4.565C26.296 20.696 21.555 21.5 16 21.5c-5.581 0-10.341-.812-12.184-1.951M3 15c0-1.657 5.82-3 13-3s13 1.343 13 3M3 15c0 5.823 3.303 10.813 8 12.924V31h10v-3.076c4.697-2.11 8-7.1 8-12.924M13.253 7.5c-.314-.24-.561-.656-.676-1.14a2.924 2.924 0 0 1 .045-1.498c.178-.577.533-1.009.727-1.575.319-.928.117-2.163-.457-2.787m3.361 8c-.314-.24-.561-.656-.676-1.14a2.924 2.924 0 0 1 .045-1.498c.178-.577.533-1.009.727-1.575.319-.928.117-2.163-.457-2.787m3.361 8c-.314-.24-.561-.656-.676-1.14a2.924 2.924 0 0 1 .045-1.498c.178-.577.533-1.009.727-1.575.319-.928.117-2.163-.457-2.787" stroke="#333" stroke-linecap="round" stroke-linejoin="round" stroke-miterlimit="10" fill="none"/></svg>