<svg xmlns="http://www.w3.org/2000/svg" viewBox="0 0 32 32"><path stroke="#333" stroke-width="2" stroke-linecap="round" stroke-linejoin="round" stroke-miterlimit="10" d="M16 11.016c-4.88 0-9.317-.743-12.679-1.958C2.672 8.824 2 9.321 2 10.032v3.52c0 .699.591 1.206 1.218 1.057.876-.209 1.81-.324 2.782-.324 4.971 0 9 5.105 9 8.715h2c0-3.61 4.029-8.715 9-8.715.972 0 1.906.115 2.782.324.627.149 1.218-.358 1.218-1.057v-3.52c0-.711-.672-1.208-1.321-.973-3.362 1.214-7.799 1.957-12.679 1.957z" fill="none"/></svg>