<svg xmlns="http://www.w3.org/2000/svg" viewBox="0 0 32 32"><path d="M26.501 5.499a2.05 2.05 0 1 0-2.899 0l-6.76 6.76c-3.305-1.694-7.982-.714-11.358 2.661-4.003 4.003-4.652 9.843-1.449 13.045 3.202 3.202 9.043 2.553 13.045-1.449 3.376-3.376 4.355-8.053 2.661-11.358l6.76-6.76A2.05 2.05 0 0 0 29.4 5.499a2.05 2.05 0 0 0-2.899 0zM4.92 21.019c.262-1.443 1.075-2.985 2.376-4.286s2.843-2.113 4.286-2.376" stroke="#333" stroke-linecap="round" stroke-linejoin="round" stroke-miterlimit="10" fill="none"/></svg>