<svg xmlns="http://www.w3.org/2000/svg" viewBox="0 0 32 32"><g stroke="#333" stroke-linecap="round" stroke-linejoin="round" stroke-miterlimit="10" fill="none"><path d="M18.168 16.885c-.843 2.248-.528 5.194 1.022 7.025.463.546 1.009 1.016 1.475 1.56.466.544.858 1.188.924 1.902.105 1.144-.674 2.229-1.669 2.798-.996.569-2.172.717-3.316.789-1.42.089-2.889.072-4.204-.471-1.316-.543-2.454-1.714-2.592-3.133-.162-1.662.932-3.224 1.525-4.702.384-.957.65-1.962.789-2.984.127-.928.358-1.921-.374-2.62m-7.279-4.422c1.006-.532 2.043-1.038 3.18-1.429 1.505-.516 3.219-.821 4.888-.651 2.069.211 3.816 1.108 5.681 1.75 2.942 1.011 6.341 1.4 9.612 1.108"/><path d="M18.168 16.885c-1.757-.9-4.141-1.019-5.944-.109-.326.164-.653.324-1.003.428-1.257.374-2.463.746-3.778.579-1.497-.19-3.004-1.148-3.359-2.618-.302-1.248.267-2.531.89-3.652a29.531 29.531 0 0 1 4.963-6.574c1.445-1.44 3.071-2.788 4.995-3.482 1.793-.647 3.884-.662 5.523.311 1.274.757 2.155 2.017 2.973 3.254a118.815 118.815 0 0 1 2.736 4.337c.676 1.125 1.336 2.281 1.654 3.554.322 1.29.253 2.736-.474 3.849-.928 1.42-2.768 2.032-4.456 1.892-1.69-.14-3.257-.914-4.72-1.769zm-6.234-6.302c-.413 2.088.163 4.109 1.555 5.719m3.691-4.289c-1.099 1.029-1.318 2.785-.847 4.216m5.604-2.992c-.273 1.762-1.614 3.199-3.291 3.804m7.254-3.532a6.236 6.236 0 0 1-1.847 2.867c-.866.759-1.891 1.588-3.027 1.774M6.245 11.833c-.372 1.288.268 2.526 1.252 3.437s2.261 1.426 3.507 1.921"/></g></svg>