<svg xmlns="http://www.w3.org/2000/svg" viewBox="0 0 32 32"><path stroke="#333" stroke-width="2" stroke-linecap="round" stroke-linejoin="round" stroke-miterlimit="10" d="M3.257 17.634c1.342 2.832 4.965 2.047 8.169 1.083l-1.884 6.346 3.976-.48.16 5.417h4.644l.16-5.417 3.976.48-1.885-6.346c3.204.964 6.827 1.748 8.169-1.083l-.184-.038c-.958-.157-1.861-.635-2.529-1.339s-1.1-1.63-1.208-2.594c.54.684 1.47.969 2.34.925.871-.044 1.7-.371 2.498-.721.372-.163.752-.339 1.024-.64s.42-.717.235-1.078H31c-1.154.497-4.916-1.823-7.776-3.453-1.744-.995-5.033.604-5.778.487 1.253-.688 2.129-2.192 2.129-3.638C19.575 3.587 17.974 2 16 2c-1.974 0-3.575 1.587-3.575 3.545 0 1.447.875 2.951 2.129 3.638-.745.117-4.034-1.482-5.778-.488-2.86 1.63-6.622 3.95-7.776 3.453-.185.361-.036.777.235 1.078.272.301.652.478 1.023.64.798.35 1.627.677 2.498.721.871.044 1.8-.24 2.34-.925a4.524 4.524 0 0 1-1.208 2.594 4.522 4.522 0 0 1-2.528 1.339" fill="none"/></svg>