<svg xmlns="http://www.w3.org/2000/svg" viewBox="0 0 32 32"><path d="M4.165 7c-.413 2.535-.011 5.17.778 7.59C5.855 17.39 7.807 19.963 8 23v8h12v-8c.193-3.037 2.145-5.61 3.057-8.41.789-2.42 1.191-5.055.778-7.59H4.165zm2.765 5.739c.142.627.315 1.245.512 1.85.228.7.521 1.386.836 2.069l.963 2.048c.313.686.604 1.38.828 2.092.224.712.383 1.443.431 2.202v2M21.99 7c.035-.675-.018-1.356-.242-1.985-.278-.782-.852-1.474-1.604-1.712s-1.664.072-2.036.809c-.196-1.132-.927-2.119-1.977-2.383-1.05-.264-2.227.191-2.876 1.11-.184-.878-.994-1.538-1.81-1.765-.816-.227-1.74.072-2.301.742-.561.672-.734 1.685-.431 2.524-.786-.261-1.689.175-2.221.844-.384.483-.55 1.145-.474 1.771M20 24l8.252-6.62A2 2 0 0 0 29 15.82V14a2 2 0 0 0-2-2h-3.082" stroke="#333" stroke-linecap="round" stroke-linejoin="round" stroke-miterlimit="10" fill="none"/></svg>