<svg xmlns="http://www.w3.org/2000/svg" viewBox="0 0 32 32"><g stroke="#333" stroke-linecap="round" stroke-linejoin="round" stroke-miterlimit="10" fill="none"><path d="M10 16c0 5.415 1.66 10.353 4.392 14.146.82 1.138 2.396 1.138 3.216 0C20.34 26.353 22 21.415 22 16c0-5.415-1.66-10.353-4.392-14.146-.82-1.138-2.396-1.138-3.216 0C11.66 5.647 10 10.585 10 16z"/><ellipse cx="16" cy="16" rx="3.5" ry="5.5"/><path d="M6.714 6.714l18.572 18.572M6.729 6.7l-.029.029a2 2 0 0 1-2.828 0L1 3.857 3.857 1l2.872 2.872a2 2 0 0 1 0 2.828zM31 28.143L28.143 31l-2.872-2.872a2 2 0 0 1 0-2.828l.029-.029a2 2 0 0 1 2.828 0L31 28.143z"/></g></svg>