<svg xmlns="http://www.w3.org/2000/svg" viewBox="0 0 32 32"><g stroke="#333" stroke-width="2" stroke-linecap="round" stroke-linejoin="round" stroke-miterlimit="10" fill="none"><path d="M18.999 10.139C18.987 6.747 14.963 4 10 4c-4.971 0-9 2.755-9 6.154 0 1.937 1.311 3.662 3.357 4.79L3.571 19l3.927-2.938c.795.157 1.633.246 2.502.246.355 0 .704-.018 1.048-.045"/><path d="M18.999 10.139A14.361 14.361 0 0 1 21 10c5.523 0 10 3.099 10 6.923 0 2.179-1.457 4.12-3.73 5.389L28.143 27l-4.363-3.431c-.883.177-1.814.277-2.78.277-5.523 0-10-3.1-10-6.923 0-.223.018-.443.048-.66.418-3.051 3.691-5.525 7.951-6.124z"/></g></svg>