<svg xmlns="http://www.w3.org/2000/svg" viewBox="0 0 32 32"><g stroke="#333" stroke-miterlimit="10" fill="none"><path d="M19.791 29.791a4.156 4.156 0 0 1-5.861 0L2.209 18.07a4.156 4.156 0 0 1 0-5.861 4.156 4.156 0 0 1 5.861 0L19.791 23.93a4.156 4.156 0 0 1 0 5.861zM4.917 11h11.569c.987 0 1.952.292 2.773.84L21 13l-1.74 1.16a5 5 0 0 1-2.774.84H11m-7.346-3.768l1.368-6.006A6.776 6.776 0 0 1 7.989 1a6.886 6.886 0 0 1 .839 5.122l-1.107 4.86m13.321 16.437l2.489-1.201 2.489-1.201 2.489-1.201L31 20.615 29.236 18l-3.569.239-1.868.901c.125.262.201.551.201.86a1.994 1.994 0 1 1-3.792.872l-2.25 1.085"/><circle cx="17" cy="27" r=".5"/><circle cx="5" cy="15" r=".5"/></g></svg>