<svg xmlns="http://www.w3.org/2000/svg" viewBox="0 0 32 32"><path d="M18 14h4l-7 17-5.553-13.486L8 14h6.023zm0 0c0-1.132-.39-2.164-1.025-3.002A4.966 4.966 0 0 0 13.4 9.04L13 9a4.958 4.958 0 0 0-2.975 1.002C8.802 10.914 8 12.358 8 14m5.429-5.025A5 5 0 0 1 18 6c.311 0 .613.037.908.092A4.994 4.994 0 0 1 23 11c0 1.131-.39 2.162-1.023 3m-3.093-8.033A4.995 4.995 0 0 0 9 7c0 1.101.369 2.108.973 2.933" stroke="#333" stroke-width="2" stroke-linecap="round" stroke-linejoin="round" stroke-miterlimit="10" fill="none"/></svg>