<svg xmlns="http://www.w3.org/2000/svg" viewBox="0 0 32 32"><g stroke="#333" stroke-linecap="round" stroke-linejoin="round" stroke-miterlimit="10" fill="none"><path d="M1.706 21.652l3.26.904m3.796-9.992L4.038 25 1 24 7 4.692m16.238 7.872L27.962 25 31 24 25 4.692"/><path d="M13.142 2L7 4.692A56.164 56.164 0 0 1 9.355 22.51C9.278 25.093 9.314 27.763 8 30h16c-1.314-2.237-1.278-4.907-1.355-7.489A56.145 56.145 0 0 1 25 4.692L18.891 2h-5.749zm17.122 19.632l-3.221.948M21 3l-2.409 5.5L16 4.794 13.409 8.5 11 3"/><circle cx="16" cy="11" r=".5"/><circle cx="16" cy="16" r=".5"/><circle cx="16" cy="21" r=".5"/><circle cx="16" cy="26" r=".5"/></g></svg>