<svg xmlns="http://www.w3.org/2000/svg" viewBox="0 0 32 32"><path d="M19.141 17.699l7.424 4.016c1.549.839 3.435-.278 3.435-2.033v-7.364c0-1.755-1.886-2.872-3.435-2.034l-7.479 4.046m-6.124 3.314l-7.527 4.072C3.886 22.554 2 21.437 2 19.682v-7.364c0-1.755 1.886-2.872 3.435-2.034l7.502 4.059M17.103 20h-2.205A1.897 1.897 0 0 1 13 18.103v-4.205c0-1.049.849-1.898 1.897-1.898h2.205C18.15 12 19 12.849 19 13.897v4.205C19 19.15 18.15 20 17.103 20zM9 16h4m6 0h4" stroke="#333" stroke-width="2" stroke-linecap="round" stroke-linejoin="round" stroke-miterlimit="10" fill="none"/></svg>