<svg xmlns="http://www.w3.org/2000/svg" viewBox="0 0 32 32"><g stroke="#333" stroke-linecap="round" stroke-linejoin="round" stroke-miterlimit="10" fill="none"><path d="M6.235 27l.156-3.06-3.582-.44 1.404-3.275L1 18.605 3.456 16 1 13.395l3.213-1.62L2.809 8.5l3.582-.44-.182-3.551 3.519.793 1.063-3.397 3.031 1.93L16 1l2.178 2.835 3.031-1.93 1.063 3.397 3.519-.793-.182 3.551 3.582.44-1.404 3.275L31 13.395 28.543 16 31 18.605l-3.213 1.62 1.404 3.275-3.582.44.154 3.017"/><circle cx="16" cy="16" r="2.5"/><path d="M1 27h30v4H1zm6.5-14.55c.425-2.311 2.639-4.525 4.95-4.95"/></g></svg>