<svg xmlns="http://www.w3.org/2000/svg" viewBox="0 0 32 32"><g stroke="#333" stroke-linecap="round" stroke-linejoin="round" stroke-miterlimit="10" fill="none"><path d="M17 19.879H2.274c-.716 0-1.286-.62-1.274-1.385V8.385C1.013 7.62 1.768 7 2.484 7h15.242c.716 0 1.286.62 1.274 1.385v3.677M8 23l1-3h2l1 3M1.034 16.412H17M7 23h6"/><path d="M10.5 18a.51.51 0 0 1-.508.5.49.49 0 0 1-.492-.5.51.51 0 0 1 .508-.5.49.49 0 0 1 .492.5zm19.346 5H17.991c-.557 0-1-.482-.99-1.076v-7.849c.009-.594.596-1.075 1.153-1.075h11.855c.557 0 1 .481.991 1.075v7.849c-.01.594-.598 1.076-1.154 1.076zM17 20.5h14M22 26h4m-2-2.5v2"/></g></svg>