<svg xmlns="http://www.w3.org/2000/svg" viewBox="0 0 32 32"><path d="M28.246 12.22A5.968 5.968 0 0 0 30 7.987a5.968 5.968 0 0 0-1.754-4.233A5.968 5.968 0 0 0 24.013 2a5.971 5.971 0 0 0-4.233 1.753 5.882 5.882 0 0 0-1.456 2.395 6.077 6.077 0 0 0-.214 2.708l-.012-.012-.012-.012-7.62 7.62-7.62 7.62L2 30l5.927-.847 7.62-7.62 7.62-7.62-.012-.012-.012-.012a6.077 6.077 0 0 0 2.708-.214 5.863 5.863 0 0 0 2.395-1.455zM15.67 8.886l7.444 7.444m-10.25-.83l.707.707m-2.828 1.414l.707.707m-2.829 1.415l.707.707M6.5 21.864l.707.707" stroke="#333" stroke-linecap="round" stroke-linejoin="round" stroke-miterlimit="10" fill="none"/></svg>