<svg xmlns="http://www.w3.org/2000/svg" viewBox="0 0 32 32"><g stroke="#333" stroke-linecap="round" stroke-linejoin="round" stroke-miterlimit="10" fill="none"><path d="M14.712 22.379c2.547-1.327 5.085-3.177 7.413-5.504 2.328-2.328 4.177-4.866 5.504-7.413C28.956 6.915 29.761 4.36 30 2c-2.36.239-4.915 1.044-7.462 2.371s-5.085 3.177-7.413 5.504c-2.328 2.328-4.177 4.866-5.504 7.413"/><path d="M12.596 26.404C10.716 28.284 2 30 2 30s1.716-8.716 3.596-10.596c1.88-1.88 4.971-1.837 6.904.096s1.976 5.024.096 6.904zm5.763-6.638c-.526-2.859-3.266-5.599-6.125-6.125"/></g></svg>