<svg xmlns="http://www.w3.org/2000/svg" viewBox="0 0 32 32"><path d="M2.304 7.632a1.051 1.051 0 0 1 .063-1.537C8.907.38 18.861.648 25.107 6.893c6.245 6.245 6.514 16.2.798 22.74a1.051 1.051 0 0 1-1.537.063L2.304 7.632zm7.792 1.171c-.257-.257-.293-.617-.088-.788 2.926-2.436 8.079-1.52 11.787 2.188s4.624 8.862 2.188 11.787c-.171.205-.531.169-.788-.088L10.096 8.803zM5.979 9.1l-.736.736m2.943 1.471l-.736.736m2.943 1.471l-.736.736m2.943 1.471l-.736.736m2.943 1.471l-.735.736m2.942 1.471l-.735.736m2.942 1.472l-.735.735m2.942 1.471l-.735.736m2.942 1.472l-.735.735" stroke="#333" stroke-linecap="round" stroke-linejoin="round" stroke-miterlimit="10" fill="none"/></svg>