<svg xmlns="http://www.w3.org/2000/svg" viewBox="0 0 32 32"><g stroke="#333" stroke-linecap="round" stroke-linejoin="round" stroke-miterlimit="10" fill="none"><circle cx="16" cy="16" r="14"/><circle cx="16" cy="16" r="3.5"/><path d="M23.5 16a7.485 7.485 0 0 1-2.196 5.303A7.476 7.476 0 0 1 16 23.5M8.5 16a7.485 7.485 0 0 1 2.196-5.303A7.472 7.472 0 0 1 16 8.5M26.5 16a10.47 10.47 0 0 1-3.075 7.425A10.48 10.48 0 0 1 16 26.5M5.5 16a10.47 10.47 0 0 1 3.075-7.424c.95-.95 2.081-1.719 3.338-2.25A10.453 10.453 0 0 1 16 5.5"/></g></svg>