<svg xmlns="http://www.w3.org/2000/svg" viewBox="0 0 32 32"><path stroke="#333" stroke-width="2" stroke-linejoin="round" stroke-miterlimit="10" d="M16.906 23H6.109A2.109 2.109 0 0 1 4 20.89V3.109C4 1.944 4.944 1 6.109 1H17.89C19.056 1 20 1.944 20 3.109v9.828" fill="none"/><path stroke="#333" stroke-linecap="round" stroke-linejoin="round" stroke-miterlimit="10" d="M4 19.5h13M4 4.5h16" fill="none"/><path fill="#333" d="M12 2a1 1 0 1 0 0 2 1 1 0 0 0 0-2zm0 18a1 1 0 1 0 0 2 1 1 0 0 0 0-2z"/><path stroke="#333" stroke-width="2" stroke-linejoin="round" stroke-miterlimit="10" d="M25.163 31h-6.326A1.837 1.837 0 0 1 17 29.163V14.837c0-1.014.822-1.837 1.837-1.837h6.326c1.014 0 1.837.823 1.837 1.837v14.326A1.838 1.838 0 0 1 25.163 31z" fill="none"/><path stroke="#333" stroke-linecap="round" stroke-linejoin="round" stroke-miterlimit="10" d="M17 27.5h10m-5.457-12h1" fill="none"/><path fill="#333" d="M22 28a1 1 0 1 0 0 2 1 1 0 0 0 0-2z"/></svg>