<svg xmlns="http://www.w3.org/2000/svg" viewBox="0 0 32 32"><g stroke="#333" stroke-linecap="round" stroke-linejoin="round" stroke-miterlimit="10" fill="none"><circle cx="25" cy="23" r=".5"/><circle cx="21" cy="23" r=".5"/><circle cx="17" cy="23" r=".5"/><path d="M26.257 28H5.743A4.757 4.757 0 0 1 1 23.257v-.513A4.757 4.757 0 0 1 5.743 18h20.513A4.758 4.758 0 0 1 31 22.743v.513A4.758 4.758 0 0 1 26.257 28zM23.001 7.8C21.21 6.069 18.736 5 16 5c-2.736 0-5.21 1.069-7.001 2.8M11 11a7.172 7.172 0 0 1 5-2c1.954 0 3.721.764 5 2m-2.5 3c-.64-.618-1.523-1-2.5-1-.977 0-1.861.382-2.5 1"/></g></svg>