<svg xmlns="http://www.w3.org/2000/svg" viewBox="0 0 32 32"><g stroke="#333" stroke-linecap="round" stroke-linejoin="round" stroke-miterlimit="10" fill="none"><path d="M29 30H3a1 1 0 0 1-1-1V3a1 1 0 0 1 1-1h26a1 1 0 0 1 1 1v26a1 1 0 0 1-1 1z"/><circle cx="16" cy="16" r="11.5"/><circle cx="16" cy="16" r="2"/><path d="M15.526 13.632l.947-3.316S15.526 8.658 15.526 7m.948 18l-.947-3.316s.947-1.658.947-3.316m-2.842-1.894l-3.316-.947s-1.658.947-3.316.947m18-.948l-3.316.947s-1.658-.947-3.316-.947M17.34 13.99l3.014-1.675L22.029 9.3M9.971 22.699l1.675-3.014s1.842-.502 3.014-1.675m-.67-3.35l-1.675-3.014s-1.842-.502-3.015-1.675m13.399 12.058l-3.014-1.675-1.675-3.014"/></g></svg>