<svg xmlns="http://www.w3.org/2000/svg" viewBox="0 0 32 32"><g stroke="#333" stroke-linecap="round" stroke-miterlimit="10" fill="none"><path d="M5 11V1h12v10"/><path d="M8.5 4.5h1v1h-1zm4 0h1v1h-1zM27 21.648a7.175 7.175 0 0 0-5-1.998 7.175 7.175 0 0 0-5 1.998m2 2.202a4.301 4.301 0 0 1 3-1.2c1.172 0 2.233.458 3 1.2m-1.5 2.5c-.384-.433-.914-.7-1.5-.7s-1.116.267-1.5.7"/><circle cx="22" cy="23" r="8"/><path d="M20 15.262V14a3 3 0 0 0-3-3H5a3 3 0 0 0-3 3v14a3 3 0 0 0 3 3h12c.699 0 1.333-.249 1.843-.649"/></g></svg>