<svg xmlns="http://www.w3.org/2000/svg" viewBox="0 0 32 32"><g stroke="#333" stroke-linecap="round" stroke-linejoin="round" stroke-miterlimit="10" fill="none"><path d="M10.958 14H3.727A.726.726 0 0 1 3 13.273V2.727C3 2.325 3.325 2 3.727 2h16.547c.401 0 .726.325.726.727v9.148M10.999 20H1.753c-.514 0-.877-.482-.714-.948l1.756-4.8c.103-.294.391-.252.715-.252h7.448M5.5 16.5h6m-3-12l-3 3"/><path d="M29 23.273a.726.726 0 0 1-.727.727H11.727a.726.726 0 0 1-.727-.727V12.727c0-.402.325-.727.727-.727h16.547c.401 0 .726.325.726.727v10.546zM30.247 30H9.753c-.514 0-.877-.482-.714-.948l1.756-4.8c.103-.294.391-.252.715-.252h16.98c.324 0 .612-.042.714.252l1.756 4.92c.163.467-.2.828-.713.828zM13.5 26.5h13m-10-12l-3 3"/></g></svg>