<svg xmlns="http://www.w3.org/2000/svg" viewBox="0 0 32 32"><g stroke="#333" stroke-linejoin="round" stroke-miterlimit="10" fill="none"><path d="M21.001 2.998C19.722 1.763 17.955 1 16.001 1s-3.721.763-5 1.998m2 2.202a4.301 4.301 0 0 1 3-1.2c1.172 0 2.233.458 3 1.2m-1.5 2.5c-.384-.433-.914-.7-1.5-.7s-1.116.267-1.5.7m1.82 23.3h-.559a5.72 5.72 0 0 1-5.721-5.721V11.953c0-.527.427-.953.953-.953h10.093c.527 0 .954.427.954.953v13.326A5.72 5.72 0 0 1 16.321 31z"/><circle cx="16" cy="16" r="1.5"/></g></svg>