<svg xmlns="http://www.w3.org/2000/svg" viewBox="0 0 32 32"><g stroke="#333" stroke-linecap="round" stroke-linejoin="round" stroke-miterlimit="10" fill="none"><path d="M8.857 9.585l5.541-5.584 11.416 11.504-11.479 11.567a3.122 3.122 0 0 1-4.44 0l-6.976-7.03a3.18 3.18 0 0 1 0-4.474l3.801-3.83 2.137-2.153zM30 24.482a2.5 2.5 0 1 1-5 0c0-1.381 2.5-5.5 2.5-5.5s2.5 4.12 2.5 5.5zM17.649 12.429a18.633 18.633 0 0 1-5.788.606c-1.35-.071-2.736-.307-3.881-1.065-.65-.43-1.477-1.254-1.707-2.045-.239-.825-.178-1.899.311-2.61 1.748-2.542 5.102-3.819 8.003-3.741"/><ellipse cx="17.443" cy="12.437" rx=".524" ry=".527"/></g></svg>