<svg xmlns="http://www.w3.org/2000/svg" viewBox="0 0 32 32"><g stroke="#333" stroke-linejoin="round" stroke-miterlimit="10" fill="none"><path d="M29.225 29h-10.45c-.98 0-1.775-.795-1.775-1.775v-14.45c0-.98.795-1.775 1.775-1.775h10.45c.98 0 1.775.795 1.775 1.775v14.45c0 .98-.795 1.775-1.775 1.775zM17 14.5h14m-14 11h14M17 24H3.108A2.108 2.108 0 0 1 1 21.892V6.108C1 4.944 1.944 4 3.108 4h23.784C28.056 4 29 4.944 29 6.108v3.934M12 29l1-5h4M1 18.5h15.958M10 29h10"/><circle cx="15" cy="21" r=".5"/></g></svg>