<svg xmlns="http://www.w3.org/2000/svg" viewBox="0 0 32 32"><path stroke="#333" stroke-width="2" stroke-linejoin="round" stroke-miterlimit="10" d="M21 31H11a3 3 0 0 1-3-3V4a3 3 0 0 1 3-3h10a3 3 0 0 1 3 3v24a3 3 0 0 1-3 3z" fill="none"/><path stroke="#333" stroke-linecap="round" stroke-linejoin="round" stroke-miterlimit="10" d="M8 5.5h16m-16 20h16" fill="none"/><path fill="#333" d="M16 27a1 1 0 1 0 0 2 1 1 0 0 0 0-2z"/><path stroke="#333" stroke-linecap="round" stroke-linejoin="round" stroke-miterlimit="10" d="M15.5 3.5h1" fill="none"/><path stroke="#333" stroke-width="2" stroke-linecap="round" stroke-linejoin="round" stroke-miterlimit="10" d="M1 1l30 30" fill="none"/></svg>