<svg xmlns="http://www.w3.org/2000/svg" viewBox="0 0 32 32"><g stroke="#333" stroke-linecap="round" stroke-linejoin="round" stroke-miterlimit="10" fill="none"><path d="M25 26H7a1 1 0 0 1-1-1V7a1 1 0 0 1 1-1h18a1 1 0 0 1 1 1v18a1 1 0 0 1-1 1zM16 1v2m-3-2v2m-3-2v2m9-2v2m3-2v2m-6 26v2m-3-2v2m-3-2v2m9-2v2m3-2v2m9-15h-2m2-3h-2m2-3h-2m2 9h-2m2 3h-2M3 16H1m2-3H1m2-3H1m2 9H1m2 3H1"/><circle cx="9" cy="9" r=".5"/><circle cx="23" cy="9" r=".5"/><circle cx="23" cy="23" r=".5"/><circle cx="9" cy="23" r=".5"/></g></svg>