<svg xmlns="http://www.w3.org/2000/svg" viewBox="0 0 32 32"><g stroke="#333" stroke-linecap="round" stroke-linejoin="round" stroke-miterlimit="10" fill="none"><path d="M26.139 31H15.861a.86.86 0 0 1-.861-.861V9.861A.86.86 0 0 1 15.861 9H26.14a.86.86 0 0 1 .86.861V30.14a.86.86 0 0 1-.861.86z"/><circle cx="21" cy="28" r=".5"/><path d="M18.5 13.5h5m-5 3h5m-5 3h5M15 23H5.861A.86.86 0 0 1 5 22.139V1.861A.86.86 0 0 1 5.861 1H16.14a.86.86 0 0 1 .86.861V9"/><circle cx="11" cy="20" r=".5"/><path d="M8.5 5.5h5m-5 3h5m-5 3h5"/></g></svg>