<svg xmlns="http://www.w3.org/2000/svg" viewBox="0 0 32 32"><g stroke="#333" stroke-linecap="round" stroke-linejoin="round" stroke-miterlimit="10" fill="none"><path d="M10.059 18.182L24.124 3 30 8.825 14.686 22.77"/><path d="M14.089 23.851c.548-1.901-.687-4.219-2.616-4.959-1.413-.542-3.099-.197-4.198.816-2.211 2.039-.922 6.042-4.38 7.086-.243.073-.505.129-.693.298-.804.721 1.02 1.411 1.49 1.548.906.265 1.97.431 2.915.33 1.751-.187 3.341-.992 4.765-1.956 1.177-.797 2.32-1.789 2.717-3.163zm4.105-4.498c-.516-2.065-2.618-4.149-4.701-4.66"/></g></svg>