<svg xmlns="http://www.w3.org/2000/svg" viewBox="0 0 32 32"><g stroke="#333" stroke-linecap="round" stroke-linejoin="round" fill="none"><path d="M24 1H8v16h5.898L13 28c0 1.65 1.35 3 3 3s3-1.35 3-3l-.898-11H24V1z"/><circle cx="16" cy="27" r=".5"/><path d="M8 12.5h16M8 4.971c.16.435.348.876.665 1.185.317.31.794.458 1.167.241.525-.305.588-1.098.848-1.693.325-.745 1.065-1.237 1.804-1.202.74.035 1.439.596 1.707 1.37.131.379.17.807.387 1.133.255.383.726.542 1.145.452.419-.091.782-.402 1.031-.79.267-.416.495-.981.95-1.03.364-.039.669.291.893.614.224.323.458.691.814.782.436.11.848-.241 1.175-.582.327-.341.703-.721 1.148-.681.451.041.767.491 1.077.86.31.369.786.707 1.187.473"/></g></svg>