<svg xmlns="http://www.w3.org/2000/svg" viewBox="0 0 32 32"><g stroke="#333" stroke-linecap="round" stroke-linejoin="round" stroke-miterlimit="10" fill="none"><path d="M25 10v10.667C25 23.05 23.086 25 20.746 25h-5.492C12.914 25 11 23.05 11 20.667V10m7 15.062c.124 1.038.11 2.121-.596 2.957-.755.894-2.215 1.139-3.43.84-1.215-.299-2.226-1.041-3.118-1.829-.507-.448-.993-.92-1.567-1.299-.575-.379-1.256-.664-1.973-.675-1.41-.021-2.601 1.046-3.034 2.233-.433 1.188-.278 2.472-.119 3.711M22 1v9m-8-9v9m-5.048 0h18.096"/><circle cx="18" cy="14" r="1.5"/></g></svg>