<svg xmlns="http://www.w3.org/2000/svg" viewBox="0 0 32 32"><path stroke="#333" stroke-width="2" stroke-linecap="round" stroke-linejoin="round" stroke-miterlimit="10" d="M25 30H7a2 2 0 0 1-2-2V4a2 2 0 0 1 2-2h18a2 2 0 0 1 2 2v24a2 2 0 0 1-2 2z" fill="none"/><path stroke="#333" stroke-linecap="round" stroke-linejoin="round" stroke-miterlimit="10" d="M11.472 20.196a8.5 8.5 0 0 1-3.905-8.257 8.5 8.5 0 0 1 9.494-7.373 8.5 8.5 0 1 1-3.222 16.655" fill="none"/><circle stroke="#333" stroke-linecap="round" stroke-linejoin="round" stroke-miterlimit="10" cx="16" cy="13" r="1.5" fill="none"/><path stroke="#333" stroke-linecap="round" stroke-linejoin="round" stroke-miterlimit="10" d="M11.902 26.107c-.504 1.305-2.107 1.799-3.321 1.023l-.006-.004-.006-.004c-1.214-.775-1.434-2.433-.454-3.434l6.957-7.115c.185-.189.507.016.411.263l-3.581 9.271z" fill="none"/><path fill="#333" d="M8 4a1 1 0 1 0 0 2 1 1 0 0 0 0-2zm16 0a1 1 0 1 0 0 2 1 1 0 0 0 0-2zm0 22a1 1 0 1 0 0 2 1 1 0 0 0 0-2z"/></svg>