<svg xmlns="http://www.w3.org/2000/svg" viewBox="0 0 32 32"><g stroke="#333" stroke-linejoin="round" stroke-miterlimit="10" fill="none"><path d="M29.451 29h-4.902A1.55 1.55 0 0 1 23 27.451V14.549A1.55 1.55 0 0 1 24.549 13h4.902A1.55 1.55 0 0 1 31 14.549v12.902A1.55 1.55 0 0 1 29.451 29zM23 15.545h8m-8 10.91h8M22.958 24H3.108A2.108 2.108 0 0 1 1 21.892V6.108C1 4.944 1.944 4 3.108 4h23.784C28.056 4 29 4.944 29 6.108v6.059M12 29l1-5h4l1 5M1 18.5h21.875M10 29h10"/><circle cx="15" cy="21" r=".5"/></g></svg>