<svg xmlns="http://www.w3.org/2000/svg" viewBox="0 0 32 32"><g stroke="#333" stroke-linecap="round" stroke-linejoin="round" stroke-miterlimit="10" fill="none"><path d="M4.541 8.892C7.13 4.239 13.012 1.395 18.57 2.109c2.46.316 5.013 1.44 6.032 3.557.647 1.342.581 2.918.076 4.313-.505 1.395-1.418 2.63-2.43 3.758-1.229 1.37-2.723 2.9-2.421 4.665.264 1.54 2.24 2.889 3.879 2.221 1.367-.557 1.227-2.477 3.094-2.342.983.071 1.698.889 1.999 1.711.331.903.21 1.9-.07 2.817-1.284 4.213-5.943 7.124-10.629 7.189-4.686.066-9.175-2.413-11.938-5.95-3.373-4.319-4.261-10.411-1.621-15.156z"/><circle cx="20" cy="7" r="1.5"/><circle cx="15" cy="7" r="1.5"/><circle cx="10" cy="9" r="1.5"/><circle cx="8" cy="14" r="1.5"/><circle cx="9" cy="19" r="1.5"/><circle cx="13" cy="23" r="1.5"/></g></svg>