<svg xmlns="http://www.w3.org/2000/svg" viewBox="0 0 32 32"><g stroke="#333" stroke-miterlimit="10" fill="none"><circle cx="16" cy="16" r="14"/><circle cx="11" cy="13" r="1.5"/><circle cx="21" cy="13" r="1.5"/><path d="M23.5 21.5s-5.297-.876-6.104-1.296-1.128-1.429-.717-2.254a1.624 1.624 0 0 1 2.206-.732c.808.42 4.615 4.282 4.615 4.282zm-15 0s5.297-.876 6.104-1.296c.807-.42 1.128-1.429.717-2.254a1.624 1.624 0 0 0-2.206-.732C12.307 17.638 8.5 21.5 8.5 21.5zm10.578-.832a3.5 3.5 0 0 1-6.133.042"/></g></svg>