<svg xmlns="http://www.w3.org/2000/svg" viewBox="0 0 32 32"><g stroke="#333" stroke-linecap="round" stroke-linejoin="round" stroke-miterlimit="10" fill="none"><path d="M10 30h12m-6-4v4"/><circle cx="16" cy="14" r="12"/><circle cx="16" cy="14" r="2.5"/><path d="M16.02 11.439c.126-1.278.301-2.758.421-4.013.038-.403.082-.821.283-1.166.335-.574 1.044-.811 1.684-.75.641.061 1.233.366 1.809.665.594.309 1.219.646 1.569 1.235.351.589.282 1.506-.31 1.819-.272.144-.592.135-.894.179-1.341.192-2.218 1.694-2.526 3.093m-2.076 4.061c-.126 1.278-.301 2.758-.421 4.012-.038.403-.082.821-.283 1.166-.335.573-1.043.811-1.684.75-.641-.061-1.234-.366-1.809-.665-.594-.309-1.219-.646-1.569-1.235-.351-.589-.282-1.506.31-1.819.272-.144.592-.135.894-.179 1.341-.192 2.217-1.694 2.526-3.093m4.602-1.48c1.282.126 2.768.302 4.028.423.403.038.821.082 1.166.283.573.335.811 1.043.75 1.684-.061.641-.366 1.233-.665 1.809-.309.594-.646 1.219-1.235 1.569-.589.35-1.506.282-1.819-.31-.144-.272-.135-.592-.178-.894-.192-1.341-1.694-2.218-3.093-2.526m-4.031-2.074c-1.285-.126-2.779-.303-4.044-.424-.403-.038-.821-.082-1.166-.283-.574-.335-.811-1.043-.75-1.684.061-.641.366-1.234.665-1.809.309-.594.646-1.219 1.235-1.569.589-.351 1.506-.282 1.819.31.144.272.135.592.179.894.192 1.341 1.694 2.217 3.093 2.526"/></g></svg>