<svg xmlns="http://www.w3.org/2000/svg" viewBox="0 0 32 32"><g stroke="#333" stroke-miterlimit="10" fill="none"><path d="M19.74 20H30a1 1 0 0 0 1-1v-6a1 1 0 0 0-1-1H19.74M8.26 12H2a1 1 0 0 0-1 1v6a1 1 0 0 0 1 1h6.26"/><path d="M19.74 20c.792-1.134 1.26-2.512 1.26-4s-.468-2.866-1.26-4A6.987 6.987 0 0 0 14 9a6.987 6.987 0 0 0-5.74 3C7.468 13.134 7 14.512 7 16s.468 2.866 1.26 4A6.987 6.987 0 0 0 14 23a6.987 6.987 0 0 0 5.74-3z"/><circle cx="14" cy="16" r="4.5"/><path d="M11.5 16c0-1.378 1.122-2.5 2.5-2.5"/><circle cx="4" cy="16" r=".5"/><path d="M28.5 14.5v3m-2-3v3m-2-3v3"/></g></svg>