<svg xmlns="http://www.w3.org/2000/svg" viewBox="0 0 32 32"><g stroke="#333" stroke-miterlimit="10" fill="none"><path d="M23.5 21.5c-4.146 5.333-10.855 5.333-15 0h15zM6.135 6.069A13.955 13.955 0 0 1 16 2c3.849 0 7.334 1.555 9.865 4.069M2.032 15.365L2 16c0 7.732 6.268 14 14 14s14-6.268 14-14l-.032-.635M13 11.5h6"/><path d="M12.741 13.741A6 6 0 0 0 7 6c-.295 0-.582.028-.865.069-.296.043-.58.121-.86.205a5.974 5.974 0 0 0-2.499 1.501C1.688 8.859 1 10.342 1 12c0 1.247.381 2.405 1.032 3.365A5.993 5.993 0 0 0 7 18a5.985 5.985 0 0 0 4.243-1.757 6.006 6.006 0 0 0 1.498-2.502zm10.713-7.532a5.977 5.977 0 0 0-2.568 1.432A5.976 5.976 0 0 0 19 12a6 6 0 0 0 6 6c1.719 0 3.262-.73 4.356-1.889a6.02 6.02 0 0 0 .612-.747 5.968 5.968 0 0 0 .818-1.824A5.964 5.964 0 0 0 31 12a5.997 5.997 0 0 0-5.135-5.931A6.009 6.009 0 0 0 25 6a5.97 5.97 0 0 0-1.546.209zM7.5 13.5h2m16 0h2"/></g></svg>