<svg xmlns="http://www.w3.org/2000/svg" viewBox="0 0 32 32"><g stroke="#333" stroke-miterlimit="10" fill="none"><circle cx="16" cy="16" r="14"/><path d="M11.5 21.5h9M9.5 16c0-.759.07-1.483.196-2.141.127-.658.31-1.251.536-1.748.226-.498.496-.9.795-1.179.299-.278.628-.432.973-.432s.674.154.973.432c.299.278.569.681.795 1.179.226.498.409 1.09.536 1.748.126.658.196 1.382.196 2.141m3 0c0-.759.07-1.483.196-2.141.127-.658.31-1.251.536-1.748.226-.498.496-.9.795-1.179.299-.278.628-.432.973-.432s.674.154.973.432c.299.278.569.681.795 1.179.226.498.409 1.09.536 1.748.126.658.196 1.382.196 2.141"/></g></svg>