<svg xmlns="http://www.w3.org/2000/svg" viewBox="0 0 32 32"><path stroke="#333" stroke-width="2" stroke-linecap="round" stroke-linejoin="round" stroke-miterlimit="10" d="M3 3v6m6-6v6M6 19a5 5 0 0 1-5-5V9h10v5a5 5 0 0 1-5 5zM29.913 1c-2.189.829-4.546 1.038-6.695 1.976-2.03.885-3.639 2.428-4.076 4.732-.454 2.396-.033 4.929 1.003 7.064 2.155.498 4.719.19 6.633-.977 4.262-2.6 5.278-8.381 3.135-12.795zm-9.768 13.772c-.581 1.609-.552 3.429-.481 5.113.094 2.241.709 4.482-.144 6.654a7.102 7.102 0 0 1-3.611 3.824A6.971 6.971 0 0 1 13 31c-3.85 0-7-3.15-7-7v-5" fill="none"/><path fill="#333" d="M19.254 14.318l.267-.476.746-1.271a43.971 43.971 0 0 1 2.496-3.687c.977-1.293 2.028-2.516 2.888-3.39.86-.876 1.527-1.374 1.527-1.374l.017-.012a.5.5 0 0 1 .629.776s-.574.503-1.318 1.39c-.745.887-1.672 2.155-2.51 3.468a42.386 42.386 0 0 0-2.115 3.725l-.614 1.265-.229.496a1 1 0 1 1-1.817-.839.419.419 0 0 1 .033-.071z"/></svg>