<svg xmlns="http://www.w3.org/2000/svg" viewBox="0 0 32 32"><g stroke="#333" stroke-linecap="round" stroke-linejoin="round" stroke-miterlimit="10" fill="none"><path d="M24 7v8c0 1.1-.9 2-2 2h-6c-1.1 0-2-.9-2-2V7m-1.5 0h13m-9.438-6v6m6-6v6"/><circle cx="19" cy="10" r=".5"/><path d="M19.137 17.077c-1.289 1.788-.661 3.887 1.03 5.128.876.642 1.878 1.221 2.36 2.194.612 1.236.14 2.834-.9 3.741-2.934 2.559-6.651.114-9.057-1.844-.838-.682-1.819-1.29-2.9-1.304-2.213-.03-2.751 1.992-3.249 3.691-.258.881-.639 1.791-1.393 2.317"/></g></svg>