<svg xmlns="http://www.w3.org/2000/svg" viewBox="0 0 32 32"><circle stroke="#333" stroke-width="2" stroke-miterlimit="10" cx="16" cy="16" r="14" fill="none"/><path stroke="#333" stroke-linecap="round" stroke-linejoin="round" stroke-miterlimit="10" d="M16.317 24.462c1.039-.028 2.487-.263 3.475-.686a8.725 8.725 0 0 0 1.91-1.123c.316-.246 1.312-.94 1.39-1.398a.39.39 0 0 0 .005-.058c-.001-.149-.253-.444-.333-.572a6.578 6.578 0 0 0-.821-1.079c-.638-.662-1.458-1.088-2.388-1.111-.474 0-1.014.067-1.45.266a9.027 9.027 0 0 0-1.496.89c-.373.272-.784-.193-1.103-.377-.319-.183-.643-.36-.978-.513-.435-.199-.976-.266-1.449-.266-.93.023-1.75.449-2.388 1.111a6.578 6.578 0 0 0-.821 1.079c-.08.128-.332.422-.333.572a.29.29 0 0 0 .005.058c.078.459 1.074 1.153 1.39 1.398a8.725 8.725 0 0 0 1.91 1.123c.987.423 2.435.658 3.475.686M9.423 14.5c0-1.73 1.376-3.13 3.077-3.13m-2.945 2.236L7.5 12.935m2.949-.767l-1.667-1.494m2.942.8L11.261 9.5m11.316 5c0-1.73-1.376-3.13-3.077-3.13m2.945 2.236l2.055-.671m-2.949-.767l1.667-1.494m-2.942.8l.463-1.974m-10.92 12h13" fill="none"/></svg>