<svg xmlns="http://www.w3.org/2000/svg" viewBox="0 0 32 32"><g stroke="#333" stroke-linecap="round" stroke-linejoin="round" stroke-miterlimit="10" fill="none"><path d="M16.5 21.692c0 2.103-1.567 3.808-3.5 3.808s-3.5-1.705-3.5-3.808L13 14.5s3.5 5.089 3.5 7.192zm-7-6.615C9.5 16.415 8.381 17.5 7 17.5s-2.5-1.085-2.5-2.423L7 10.5s2.5 3.239 2.5 4.577zm10-3c0 1.338-1.119 2.423-2.5 2.423s-2.5-1.085-2.5-2.423L17 7.5s2.5 3.239 2.5 4.577zm3.692 13.115a13.028 13.028 0 0 1-4.132 2.786A12.969 12.969 0 0 1 14 29c-.898 0-1.774-.091-2.62-.264a12.873 12.873 0 0 1-4.648-1.957 13.028 13.028 0 0 1-5.467-8.159 13.065 13.065 0 0 1-.001-5.24 12.944 12.944 0 0 1 3.544-6.572A13.087 13.087 0 0 1 8.94 4.021a12.893 12.893 0 0 1 2.44-.757 13.073 13.073 0 0 1 5.24 0 12.966 12.966 0 0 1 8.159 5.467 13.033 13.033 0 0 1 1.579 3.222"/><path d="M26 18l-4-6h8z"/></g></svg>