<svg xmlns="http://www.w3.org/2000/svg" viewBox="0 0 32 32"><g stroke="#333" stroke-width="2" stroke-linecap="round" stroke-linejoin="round" stroke-miterlimit="10" fill="none"><path d="M23.192 25.192a13.028 13.028 0 0 1-4.132 2.786A12.969 12.969 0 0 1 14 29c-.898 0-1.774-.091-2.62-.264a12.873 12.873 0 0 1-4.648-1.957 13.028 13.028 0 0 1-5.467-8.159 13.065 13.065 0 0 1-.001-5.24 12.944 12.944 0 0 1 3.544-6.572A13.035 13.035 0 0 1 8.94 4.021a12.893 12.893 0 0 1 2.44-.757C12.226 3.091 13.102 3 14 3s1.774.091 2.62.264a12.966 12.966 0 0 1 8.159 5.467 13.033 13.033 0 0 1 1.579 3.222"/><path d="M26 18l-4-6h8z"/></g></svg>