<svg xmlns="http://www.w3.org/2000/svg" viewBox="0 0 32 32"><path d="M17 27v4h-6v-4m2.935-6h.136M9 10.917c4.008 1.259 4.699 8.009 4.867 10.875m.254.125c.027-3.31-.163-11.452 8.878-15.033M31 3.116c-1.437-1.143-3.347-1.48-5.062-.672-1.714.807-2.766 2.54-2.938 4.44 1.437 1.143 3.347 1.48 5.062.672 1.714-.807 2.765-2.54 2.938-4.44zM1 8.083c1.355-1.028 3.21-1.397 4.925-.789C7.64 7.901 8.746 9.319 9 10.917c-1.355 1.028-3.21 1.397-4.925.789C2.36 11.099 1.254 9.681 1 8.083zM22 22H6v1a4 4 0 0 0 4 4h8a4 4 0 0 0 4-4v-1z" stroke="#333" stroke-width="2" stroke-linecap="round" stroke-linejoin="round" stroke-miterlimit="10" fill="none"/></svg>