<svg xmlns="http://www.w3.org/2000/svg" viewBox="0 0 32 32"><g stroke="#333" stroke-linecap="round" stroke-linejoin="round" stroke-miterlimit="10" fill="none"><path d="M25 30H7a1 1 0 0 1-1-1V3a1 1 0 0 1 1-1h18a1 1 0 0 1 1 1v26a1 1 0 0 1-1 1zM9.5 5.5h13v5h-13z"/><circle cx="16" cy="15" r="1.5"/><circle cx="11" cy="15" r="1.5"/><circle cx="21" cy="15" r="1.5"/><circle cx="16" cy="20" r="1.5"/><circle cx="11" cy="20" r="1.5"/><circle cx="21" cy="20" r="1.5"/><circle cx="16" cy="25" r="1.5"/><circle cx="11" cy="25" r="1.5"/><circle cx="21" cy="25" r="1.5"/></g></svg>