<svg xmlns="http://www.w3.org/2000/svg" viewBox="0 0 32 32"><path d="M13.657 22.229c.66.48 1.465.771 2.343.771.878 0 1.683-.291 2.343-.771a3.988 3.988 0 0 0 1.478-2.106c.105-.358.179-.73.179-1.123a3.989 3.989 0 0 0-2.672-3.757A3.959 3.959 0 0 0 16 15c-.468 0-.911.095-1.328.243A3.989 3.989 0 0 0 12 19c0 .393.074.765.18 1.123a3.983 3.983 0 0 0 1.477 2.106zm3.671-6.986a20.153 20.153 0 0 0 1.657-8.806c-.041-1.056-.175-2.146-.665-3.042A2.706 2.706 0 0 0 16 2a2.65 2.65 0 0 0-2.32 1.395c-.49.896-.624 1.986-.665 3.042a20.136 20.136 0 0 0 1.657 8.806m5.148 4.88a22.249 22.249 0 0 1 8.885 4.613c.853.731 1.67 1.557 2.082 2.538a2.63 2.63 0 0 1-.429 2.76c-.601.693-1.673 1.119-2.757.915-1.084-.204-2.086-.818-2.995-1.484-2.645-1.936-4.818-4.46-6.264-7.236m-6.162-2.106a22.249 22.249 0 0 0-8.885 4.613c-.853.731-1.67 1.557-2.082 2.538a2.63 2.63 0 0 0 .428 2.76c.601.693 1.673 1.119 2.757.915 1.084-.204 2.086-.818 2.995-1.484 2.645-1.936 4.818-4.46 6.264-7.236m6.819 7.367A11.481 11.481 0 0 1 16 30.5a11.499 11.499 0 0 1-4.477-.904M22.43 9.464a11.528 11.528 0 0 1 4.836 7.218c.154.749.234 1.524.234 2.318m-23 0a11.499 11.499 0 0 1 .904-4.477 11.46 11.46 0 0 1 2.464-3.655c.52-.52 1.09-.991 1.702-1.404" stroke="#333" stroke-miterlimit="10" fill="none"/></svg>