<svg xmlns="http://www.w3.org/2000/svg" viewBox="0 0 32 32"><path d="M11 8.5h10m8.65 15.339L21 11.571V5H11v6.571L2.35 23.839C1.414 25.163 2.374 27 3.986 27h24.027c1.613 0 2.572-1.837 1.637-3.161zm-7.463-6.126a5.15 5.15 0 0 1-.984 5.186c-1.3 1.454-3.214 1.92-4.891 1.387a5.15 5.15 0 0 1 .984-5.186c1.3-1.454 3.214-1.919 4.891-1.387zm-12.375 0a5.15 5.15 0 0 0 .984 5.186c1.3 1.454 3.214 1.92 4.891 1.387a5.15 5.15 0 0 0-.984-5.186c-1.299-1.454-3.214-1.919-4.891-1.387zm8.641.438A4.438 4.438 0 0 0 16 13.5a4.438 4.438 0 0 0-2.463 4.578" stroke="#333" stroke-linecap="round" stroke-linejoin="round" stroke-miterlimit="10" fill="none"/></svg>