<svg xmlns="http://www.w3.org/2000/svg" viewBox="0 0 32 32"><path d="M17.811 18.659l-1.088-.923-1.088-.923-1.088-.922-1.088-.922 2.738-3.298 2.738-3.298s5.736-3.585 5.476-6.596l1.088.922 1.088.923 1.088.923 1.088.922c-2.98.263-5.476 6.596-5.476 6.596l-2.738 3.298-2.738 3.298zm7.688-15.96L27.325.5 29.5 2.345l-1.825 2.199M3 26.08l2.643-3.183c1.224-1.474 3.53-1.573 5.125-.22 1.595 1.353 1.899 3.666.676 5.14L8.801 31 3 26.08zm12.635-9.267l-4.867 5.864m-5.955 4.941l1.217-1.466m.958 3.31l1.217-1.465M22.464 6.044c.192-.94-.408-1.99-1.254-2.195-.844-.205-1.683.346-2.347.962-.664.616-1.298 1.344-2.131 1.599-.971.298-2.075-.167-2.681-1.064-.605-.897-.71-2.16-.325-3.196.226-.61.601-1.134.97-1.65" stroke="#333" stroke-linecap="round" stroke-linejoin="round" stroke-miterlimit="10" fill="none"/></svg>