<svg xmlns="http://www.w3.org/2000/svg" viewBox="0 0 32 32"><g stroke="#333" stroke-linecap="round" stroke-linejoin="round" stroke-miterlimit="10" fill="none"><path d="M24 24h-4a5 5 0 0 1-5-5v-5h14v5a5 5 0 0 1-5 5zm-10.644 3c-2.372-6.906-3.412-12.792-.152-17H26.69l1.225-5.201C28.376 2.806 26.894 1 24.886 1H6.146C4.117 1 2.639 2.946 3.129 4.955c.679 2.781 1.412 6.689 1.412 10.595C4.542 23.264 2 31 2 31h27v-4H13.356z"/><circle cx="9" cy="6" r="1.5"/><circle cx="13" cy="6" r=".5"/><circle cx="16" cy="6" r=".5"/><circle cx="19" cy="6" r=".5"/><path d="M22 10v7m1 4h-2l-1-4h4z"/></g></svg>