<svg xmlns="http://www.w3.org/2000/svg" viewBox="0 0 32 32"><g stroke="#333" stroke-linecap="round" stroke-linejoin="round" stroke-miterlimit="10" fill="none"><path d="M24.081 23.561C23.807 24.976 22.552 26 21.091 26H10.909c-1.461 0-2.717-1.024-2.99-2.439l-.292-1.512a34.516 34.516 0 0 1 0-13.098l.292-1.512C8.193 6.024 9.448 5 10.909 5h10.182c1.461 0 2.717 1.024 2.99 2.439l.292 1.512a34.516 34.516 0 0 1 0 13.098l-.292 1.512zM16 26v4m-4 0h8"/><path d="M20.5 22.5h-9a1 1 0 0 1-1-1v-12a1 1 0 0 1 1-1h9a1 1 0 0 1 1 1v12a1 1 0 0 1-1 1zm-2-2h-5c-.55 0-1-.45-1-1s.45-1 1-1h5c.55 0 1 .45 1 1s-.45 1-1 1zm0-4h-5c-.55 0-1-.45-1-1s.45-1 1-1h5c.55 0 1 .45 1 1s-.45 1-1 1zm0-4h-5c-.55 0-1-.45-1-1s.45-1 1-1h5c.55 0 1 .45 1 1s-.45 1-1 1zM12 5V3a1 1 0 0 1 1-1h6a1 1 0 0 1 1 1v2"/></g></svg>