<svg xmlns="http://www.w3.org/2000/svg" viewBox="0 0 32 32"><g stroke="#333" stroke-miterlimit="10" fill="none"><circle cx="16" cy="16" r="14"/><path d="M23.5 21.5c-4.146 5.333-10.855 5.333-15 0m2.5-9.342c0-.916.678-1.658 1.516-1.658 1.097 0 1.985.971 1.985 2.171 0 2.116-1.75 1.737-3.5 3.829-1.75-2.092-3.5-1.713-3.5-3.829 0-1.2.888-2.171 1.985-2.171.836 0 1.514.741 1.514 1.658zm10 0c0-.916.678-1.658 1.516-1.658 1.097 0 1.985.971 1.985 2.171 0 2.116-1.75 1.737-3.5 3.829-1.75-2.092-3.5-1.713-3.5-3.829 0-1.2.888-2.171 1.985-2.171.836 0 1.514.741 1.514 1.658z"/></g></svg>