<svg xmlns="http://www.w3.org/2000/svg" viewBox="0 0 32 32"><path d="M16 24.651c-.522-1.513-.466-3.175 0-4.762a10.355 10.355 0 0 1 1.994-3.724c2-2.379 4.945-3.141 7.525-2.269.965 2.794.486 6.107-1.513 8.487S18.58 25.522 16 24.651zm0-4.762a10.355 10.355 0 0 0-1.994-3.724c-2-2.379-4.945-3.141-7.525-2.269-.965 2.794-.486 6.107 1.513 8.487s5.426 3.141 8.006 2.27m3.774-10.043c.048-.347.072-.703.072-1.065C19.846 10.649 18.268 8.17 16 7c-2.268 1.17-3.846 3.649-3.846 6.545 0 .321.019.637.057.946" stroke="#333" stroke-width="2" stroke-linecap="round" stroke-linejoin="round" stroke-miterlimit="10" fill="none"/><circle stroke="#333" stroke-width="2" stroke-linecap="round" stroke-linejoin="round" stroke-miterlimit="10" cx="16" cy="16" r="14" fill="none"/></svg>