<svg xmlns="http://www.w3.org/2000/svg" viewBox="0 0 32 32"><path stroke="#333" stroke-width="2" stroke-linecap="round" stroke-linejoin="round" stroke-miterlimit="10" d="M28 31H4a1 1 0 0 1-1-1V2a1 1 0 0 1 1-1h24a1 1 0 0 1 1 1v28a1 1 0 0 1-1 1zM3.5 7h25" fill="none"/><circle stroke="#333" stroke-width="2" stroke-linecap="round" stroke-linejoin="round" stroke-miterlimit="10" cx="16" cy="19" r="8" fill="none"/><circle stroke="#333" stroke-linecap="round" stroke-linejoin="round" stroke-miterlimit="10" cx="16" cy="19" r="5.5" fill="none"/><path fill="#333" d="M7 3a1 1 0 1 0 0 2 1 1 0 0 0 0-2zm4 0a1 1 0 1 0 0 2 1 1 0 0 0 0-2zm4 0a1 1 0 1 0 0 2 1 1 0 0 0 0-2z"/></svg>