<svg xmlns="http://www.w3.org/2000/svg" viewBox="0 0 32 32"><g stroke="#333" stroke-linecap="round" stroke-linejoin="round" stroke-miterlimit="10" fill="none"><path d="M27.374 24.086l1.645-2.871c1.396-2.436 1.291-5.422-.244-7.777a22.802 22.802 0 0 0-2.444-3.139c-2.004-2.142-4.435-4.105-7.337-4.716-2.983-.628-6.25.112-8.684 1.966a10.685 10.685 0 0 0-3.848 5.872c-.271 1.09.251 2.223 1.251 2.772l16.165 8.857c1.237.678 2.803.246 3.496-.964zm-.926-5.271l.726-.582c.616-.494.766-1.421.4-2.41a11.341 11.341 0 0 0-.62-1.388c-.535-1.007-1.224-2.034-2.153-2.733-.955-.719-2.089-1.072-3.015-.939-.726.105-1.313.507-1.646 1.106-.158.284-.054.721.245 1.065l4.837 5.556c.372.425.92.57 1.226.325zM9.683 17.273l-2.512 4.384m1.987 2.529L3.51 22.051m4.601 3.962l-5.647-2.136"/><path d="M6.482 28L2 25.543l2.183-5.523 5.976 3.275zM16.75 17.787l11.205 6.141M11.135 7.029c.2 1.25 1.27 2.616 2.898 3.508M9.552 8.366c.317 1.157 1.339 2.368 2.827 3.184M8.166 9.837c.417 1.037 1.373 2.078 2.699 2.804m6.098-7.218L18.638 2.5l2.241 1.228-1.256 2.192"/></g></svg>