<svg xmlns="http://www.w3.org/2000/svg" viewBox="0 0 32 32"><path d="M15.775 5.412V2.403a.409.409 0 0 0-.206-.357.372.372 0 0 0-.398.023L7.169 7.668A.407.407 0 0 0 7 8.002c0 .131.063.255.169.33l7.998 5.598a.375.375 0 0 0 .398.023.401.401 0 0 0 .206-.353v-3.24c1.259.01 2.3.064 3.17.176 4.162.516 5.275 3.11 5.319 3.222.057.149.2.242.356.242l.076-.005A.4.4 0 0 0 25 13.6c0-6.554-7.489-7.951-9.225-8.188zm.45 21.176v3.009c0 .148.077.283.206.356.129.07.281.061.398-.023l8.002-5.598a.408.408 0 0 0 .169-.334.405.405 0 0 0-.169-.33l-7.998-5.598a.375.375 0 0 0-.398-.023.401.401 0 0 0-.206.353v3.24c-1.259-.01-2.3-.064-3.17-.176-4.162-.516-5.275-3.11-5.319-3.222A.379.379 0 0 0 7.384 18a.41.41 0 0 0-.076.005A.4.4 0 0 0 7 18.4c0 6.554 7.489 7.951 9.225 8.188z" stroke="#333" stroke-width="2" stroke-linejoin="round" stroke-miterlimit="10" fill="none"/></svg>