<svg xmlns="http://www.w3.org/2000/svg" viewBox="0 0 32 32"><g stroke="#333" stroke-linecap="round" stroke-linejoin="round" stroke-miterlimit="10" fill="none"><circle cx="23" cy="10" r="4.5"/><circle cx="23" cy="10" r="1.5"/><path d="M22.984 5.571l-.079.36a5 5 0 0 0 0 2.137l.071.324m-.186 3.179l.079.36a5 5 0 0 1 0 2.137l-.071.324m4.5-4.313l-.36-.079a5 5 0 0 0-2.137 0l-.324.071m-3.179-.186l-.36.079a5 5 0 0 1-2.137 0l-.235-.052m7.509-2.98l-.31.199a4.995 4.995 0 0 0-1.511 1.511l-.179.279m-2.38 2.116l-.199.311a4.995 4.995 0 0 1-1.511 1.511l-.279.179m6.231.131l-.199-.31a4.995 4.995 0 0 0-1.511-1.511l-.279-.179m-2.116-2.38l-.311-.199a4.995 4.995 0 0 1-1.511-1.511l-.178-.279"/><path d="M31 10a8 8 0 0 0-8-8 7.99 7.99 0 0 0-6.921 4H8v-.021L3.788 4.165C2.468 3.596 1 4.569 1 6.012v7.975c0 1.443 1.468 2.416 2.788 1.848L8 14.021V14h8.079a8.018 8.018 0 0 0 4.371 3.566L18 29a1 1 0 0 0 1 1h7a2 2 0 0 0 2-2l-1.653-10.741A7.993 7.993 0 0 0 31 10zM7.5 6v8"/></g></svg>