<svg xmlns="http://www.w3.org/2000/svg" viewBox="0 0 32 32"><g stroke="#333" stroke-miterlimit="10" fill="none"><path d="M8.222 31C6.231 28.456 5 24.941 5 21.059c0-3.882 1.231-7.397 3.222-9.941C10.212 8.574 12.962 7 16 7s5.788 1.574 7.778 4.118C25.769 13.662 27 17.177 27 21.059c0 3.882-1.231 7.397-3.222 9.941H8.222zM12.005.5c-.509.449-.652 1.188-.342 1.76.144.267.372.491.538.748.506.779.357 1.844-.349 2.492m2.153-5c-.509.449-.652 1.188-.342 1.76.144.267.372.491.538.748.506.779.357 1.844-.349 2.492m4.153-5c-.509.449-.652 1.188-.342 1.76.144.267.372.491.538.748.506.779.357 1.844-.349 2.492m2.153-5c-.509.449-.652 1.188-.342 1.76.144.267.372.491.538.748.506.779.357 1.844-.349 2.492"/><circle cx="16" cy="21" r="7.5"/><path d="M14.5 13.75v14.5m0-14.5v14.5m3-14.5v14.5m0-14.5v14.5m3-13.208v11.979m-9-11.938V27m11.75-7.5H8.75m14.5 0H8.75m14.5 3H8.75m14.5 0H8.75m13.208 3H9.979m11.938-9H10"/><circle cx="14" cy="11" r=".5"/><circle cx="18" cy="11" r=".5"/></g></svg>