<svg xmlns="http://www.w3.org/2000/svg" viewBox="0 0 32 32"><g stroke="#333" stroke-linecap="round" stroke-linejoin="round" stroke-miterlimit="10" fill="none"><path d="M19 15.5v14m-12 0v-14"/><ellipse cx="13" cy="15" rx="6" ry="2"/><path d="M7 30c3.316 1.333 8.684 1.333 12 0M6.5 23l4.331 1 4.334-1s2.167 1 4.334 1"/><circle cx="21" cy="6" r="1.5"/><path d="M19.913 3.377l-.013-.31a5.4 5.4 0 0 1 .086-.999 4.66 4.66 0 0 1 .101-.436l.134-.38.163-.313.187-.237.206-.15a.503.503 0 0 1 .445 0 .746.746 0 0 1 .206.15l.187.237.163.313.134.38.101.436a5.4 5.4 0 0 1 .086.999l-.013.31m-2.173 5.246l-.013.31a5.4 5.4 0 0 0 .086.999l.101.436.134.38.163.313.187.237.206.15a.503.503 0 0 0 .445 0 .746.746 0 0 0 .206-.15l.187-.237.163-.313.134-.38.101-.436a5.351 5.351 0 0 0 .086-.999l-.013-.31m1.537-1.536l.31.013a5.4 5.4 0 0 0 .999-.086 4.36 4.36 0 0 0 .436-.102 3.18 3.18 0 0 0 .38-.134l.313-.163.237-.187a.8.8 0 0 0 .15-.206A.516.516 0 0 0 26.5 6l-.052-.222a.746.746 0 0 0-.15-.206 1.332 1.332 0 0 0-.237-.187 2.178 2.178 0 0 0-.313-.163 3.118 3.118 0 0 0-.38-.134 4.36 4.36 0 0 0-.436-.102 5.351 5.351 0 0 0-.999-.086l-.31.013m-5.246 0l-.31-.013a5.4 5.4 0 0 0-.999.086 4.36 4.36 0 0 0-.436.102 3.18 3.18 0 0 0-.38.134l-.313.163a1.323 1.323 0 0 0-.237.187l-.15.206a.499.499 0 0 0 0 .444.746.746 0 0 0 .15.206l.237.187.313.163.38.134.436.102a5.4 5.4 0 0 0 .999.086l.31-.013m5.246-2.174l.229-.21c.125-.125.242-.253.35-.381a5.213 5.213 0 0 0 .532-.766l.174-.364.107-.337a1.31 1.31 0 0 0 .035-.299.797.797 0 0 0-.04-.252.516.516 0 0 0-.12-.194.516.516 0 0 0-.194-.12.766.766 0 0 0-.252-.04 1.304 1.304 0 0 0-.299.035l-.337.107-.364.174a4.347 4.347 0 0 0-.38.237 5.746 5.746 0 0 0-.768.645l-.21.229m-3.709 3.71l-.229.21a6.134 6.134 0 0 0-.35.381 5.213 5.213 0 0 0-.532.766l-.174.364-.106.337a1.31 1.31 0 0 0-.035.299.797.797 0 0 0 .04.252.504.504 0 0 0 .314.314l.252.04.3-.035.337-.106.364-.174.38-.237a5.746 5.746 0 0 0 .768-.645l.21-.229m3.707-1.537l.229.21c.125.125.242.253.35.381a5.213 5.213 0 0 1 .532.766l.174.364.107.337.035.299a.797.797 0 0 1-.04.252.516.516 0 0 1-.12.194.516.516 0 0 1-.194.12.766.766 0 0 1-.252.04 1.304 1.304 0 0 1-.299-.035l-.337-.106-.364-.174a4.347 4.347 0 0 1-.38-.237 5.746 5.746 0 0 1-.768-.645l-.21-.229m-3.709-3.711l-.229-.21a6.134 6.134 0 0 1-.35-.381 5.213 5.213 0 0 1-.532-.766 3.224 3.224 0 0 1-.174-.364 2.092 2.092 0 0 1-.106-.337 1.31 1.31 0 0 1-.035-.299.797.797 0 0 1 .04-.252.504.504 0 0 1 .314-.314.766.766 0 0 1 .252-.04l.3.035.337.107.364.174.38.237a5.746 5.746 0 0 1 .768.645l.21.229M19.9 8.933L11 26"/></g></svg>