<svg xmlns="http://www.w3.org/2000/svg" viewBox="0 0 32 32"><g stroke="#333" stroke-linecap="round" stroke-linejoin="round" stroke-miterlimit="10" fill="none"><path d="M21.276 8.244l1.787-.336c.561-.106 1.113.208 1.234.7l.44 1.797c.12.492-.237.976-.798 1.082l-1.745.328m.649 4.406L20.358 4.963l-6.25 1.335.338 7.347c.121 2.627.44 7.748.567 10.692"/><ellipse transform="rotate(-12.123 21.996 23.999)" cx="22.002" cy="23.999" rx="6.997" ry="6.999"/><ellipse transform="rotate(-12.058 22.177 23.721)" cx="22.18" cy="23.723" rx="1.41" ry="1.402"/><path d="M18.589 23.864a2.91 2.91 0 0 1 2.246-3.458M7 23.292V6.072C7 3.339 9.113 1 11.839 1h.205c2.596 0 4.743 2.028 4.941 4.582M6.643 30.906l-3.549-1.018 3.291-6.842 1.55 1.018z"/></g></svg>