<svg xmlns="http://www.w3.org/2000/svg" viewBox="0 0 32 32"><path d="M12 29h2l1 1h2l1-1h2v-4c0-.9-.067-1.916.502-2.684s1.311-1.381 1.977-2.065c3.196-3.281 4.597-8.466 2.585-12.753C23.344 3.833 19.901 2 15.994 2h.012c-3.907 0-7.35 1.833-9.07 5.498-2.012 4.288-.611 9.472 2.585 12.753.666.683 1.408 1.297 1.977 2.065.569.768.502 1.784.502 2.684v4zm7.5-23.5a8.19 8.19 0 0 1 3 3M12 23.5h8m-8 2l8-1m-8 3l8-1" stroke="#333" stroke-linecap="round" stroke-linejoin="round" stroke-miterlimit="10" fill="none"/></svg>