<svg xmlns="http://www.w3.org/2000/svg" viewBox="0 0 32 32"><g stroke="#333" stroke-linecap="round" stroke-linejoin="round" stroke-miterlimit="10" fill="none"><path d="M28.903 9.053h-7.071l-.452-2.538A2.003 2.003 0 0 0 19.438 5h-6.877a2 2 0 0 0-1.94 1.515l-.452 2.538H3.097C2.491 9.053 2 9.544 2 10.15v15.7c0 .606.491 1.097 1.097 1.097h25.805c.606 0 1.097-.491 1.097-1.097v-15.7a1.095 1.095 0 0 0-1.096-1.097z"/><circle cx="16" cy="18" r="6"/><path d="M12.5 17.5c0-1.658 1.342-3 3-3"/><circle cx="6" cy="13" r="1.5"/><path d="M24.5 9.5v-3h3v3"/></g></svg>