<svg xmlns="http://www.w3.org/2000/svg" viewBox="0 0 32 32"><g stroke="#333" stroke-width="2" stroke-miterlimit="10" fill="none"><path d="M2 16h28"/><ellipse cx="16" cy="16" rx="6" ry="14"/><path d="M6.636 5.614C3.796 8.176 2 11.874 2 16s1.796 7.824 4.636 10.386C9.118 28.625 12.394 30 16 30s6.882-1.375 9.364-3.614C28.204 23.824 30 20.126 30 16s-1.796-7.824-4.636-10.386C22.882 3.375 19.606 2 16 2S9.118 3.375 6.636 5.614zm18.728 0C23.428 7.044 19.964 8 16 8s-7.428-.956-9.364-2.386m18.728 20.772C23.428 24.956 19.964 24 16 24s-7.428.956-9.364 2.386"/></g></svg>