<svg xmlns="http://www.w3.org/2000/svg" viewBox="0 0 32 32"><g stroke="#333" stroke-miterlimit="10" fill="none"><circle cx="16" cy="16" r="14"/><path d="M8.5 13.5l1.011-.606 2.101-1.261L13.5 10.5m5 0l1.888 1.133 2.101 1.261 1.011.606m-13.989-.606L9.5 13a1.5 1.5 0 0 0 3 0c0-.61-.366-1.133-.888-1.367m8.776 0A1.499 1.499 0 0 0 21 14.5a1.5 1.5 0 0 0 1.5-1.5l-.011-.106m-1.079 8.491c.056.2.09.405.09.615 0 1.933-2.463 2.5-5.5 2.5-3.038 0-5.5-.567-5.5-2.5 0-.21.034-.415.09-.615.457-1.639 2.703-2.885 5.41-2.885s4.953 1.246 5.41 2.885z"/></g></svg>