<svg xmlns="http://www.w3.org/2000/svg" viewBox="0 0 32 32"><path d="M27.531 26H2.469c-.883 0-1.567-.741-1.457-1.581l1.108-8.492C2.487 13.112 4.986 11 7.948 11h14.103c2.962 0 5.461 2.112 5.828 4.927l1.108 8.492c.111.84-.572 1.581-1.456 1.581zM4.8 17.113c.262-2.064 2.047-3.613 4.163-3.613m-7.463 7h26.524M9 26l-.427 3H5.427L5 26m20 0l-.427 3h-3.146L21 26m.833-15.093l-.04-.499-.207-2.592c.389 0 .742-.165.998-.431.257-.266.416-.632.416-1.036V5.135c0-.403-.159-.77-.415-1.036a1.384 1.384 0 0 0-.999-.431l-1.932-.304a29.887 29.887 0 0 0-9.307 0l-1.933.304c-.389 0-.742.165-.999.431A1.492 1.492 0 0 0 7 5.135v1.214c0 .403.159.769.415 1.035.256.266.609.431.998.432l-.207 2.592-.047.593M26.625 13H31v3.072l-2.971.459" stroke="#333" stroke-linecap="round" stroke-linejoin="round" stroke-miterlimit="10" fill="none"/></svg>