<svg xmlns="http://www.w3.org/2000/svg" viewBox="0 0 32 32"><g stroke="#333" stroke-miterlimit="10" fill="none"><path d="M7.34 5.014A13.926 13.926 0 0 1 16 2c3.273 0 6.276 1.132 8.66 3.014M2.423 12.639A13.996 13.996 0 0 0 2 16c0 7.732 6.268 14 14 14s14-6.268 14-14c0-1.161-.157-2.283-.423-3.361"/><path d="M7.34 5.014c2.024.07 3.908.748 5.515 1.874.092.466.145.948.145 1.445C13 12.015 10.314 15 7 15c-1.836 0-3.476-.918-4.577-2.361C1.537 11.477 1 9.976 1 8.333c0-.497.053-.98.145-1.445C2.842 5.699 4.846 5 7 5l.34.014zm22.237 7.625C28.476 14.082 26.836 15 25 15c-3.314 0-6-2.985-6-6.667 0-.497.053-.98.145-1.445 1.607-1.126 3.49-1.804 5.515-1.874L25 5c2.154 0 4.158.699 5.854 1.888.093.466.146.948.146 1.445 0 1.643-.537 3.144-1.423 4.306zM13 9.5h6m5.5 9c0 3.294-3.806 7-8.5 7s-8.5-3.706-8.5-7h17zM11.123 6.062l-5.738 8.553m23.763-8.586l-5.763 8.586"/></g></svg>