<svg xmlns="http://www.w3.org/2000/svg" viewBox="0 0 32 32"><g stroke="#333" stroke-linecap="round" stroke-linejoin="round" stroke-miterlimit="10" fill="none"><path d="M21.891 1c.756 0 1.448.422 1.79 1.096C25.129 4.941 26 8.603 26 12.598c0 4.529-1.119 8.63-2.929 11.598C21.261 27.164 18.761 29 16 29s-5.261-1.836-7.071-4.804C7.119 21.228 6 17.127 6 12.598c0-3.995.871-7.657 2.318-10.502A2.007 2.007 0 0 1 10.109 1h11.782zM16 29v2m9.028-25c-1.988.907-5.29 1.5-9.028 1.5S8.96 6.907 6.972 6M12.5 1v3m-2-3v3m4-3v3m3-3v3m2-3v3m2-3v3"/><circle cx="16" cy="15" r="4.5"/><circle cx="16" cy="15" r="2.5"/><path d="M6 11H5m22 0h-1"/></g></svg>