<svg xmlns="http://www.w3.org/2000/svg" viewBox="0 0 32 32"><path d="M28 28H4a3 3 0 0 1-3-3V13a3 3 0 0 1 3-3h24a3 3 0 0 1 3 3v12a3 3 0 0 1-3 3zm-20.5-.5v3h-3v-3m23 0v3h-3v-3m-18-14h19m-19 2h19m-19 2h19m-15.378-15c-.617.509-.737 1.264-.525 1.948.329 1.063 1.518 1.955.5 3.049M13.122 2.5c-.617.509-.737 1.264-.525 1.948.329 1.063 1.518 1.955.5 3.049M16.122 2.5c-.617.509-.737 1.264-.525 1.948.329 1.063 1.518 1.955.499 3.049M19.122 2.5c-.617.509-.737 1.264-.525 1.948.329 1.063 1.518 1.955.5 3.049M22.122 2.5c-.617.509-.737 1.264-.525 1.948.329 1.063 1.518 1.955.5 3.049" stroke="#333" stroke-linecap="round" stroke-linejoin="round" stroke-miterlimit="10" fill="none"/></svg>