<svg xmlns="http://www.w3.org/2000/svg" viewBox="0 0 32 32"><g stroke="#333" stroke-miterlimit="10" fill="none"><circle cx="16" cy="16" r="14"/><path d="M23.5 22.5c-4.146-4-10.855-4-15 0h15zm-5.682-8.209l.202-.053.199-.06c.248-.091.481-.206.704-.339.222-.132.434-.282.637-.441a4.983 4.983 0 0 0 1.476-1.895l.073-.141.068-.143a1.98 1.98 0 0 0 .06-.199l.053-.202c.06-.211.113-.425.15-.644.038-.219.06-.443.06-.674m-11 0c0 .231.022.455.059.674.037.219.089.433.15.644l.053.202.06.199.068.143.073.141c.166.376.376.725.624 1.042.248.317.534.603.852.853.203.159.414.309.637.441.222.132.456.248.704.339l.199.06.202.053m-3.386-2.774a1.497 1.497 0 1 0 1.619 1.965m8.696-1.975a1.498 1.498 0 1 1-1.523 1.979"/></g></svg>