<svg xmlns="http://www.w3.org/2000/svg" viewBox="0 0 32 32"><g stroke="#333" stroke-linecap="round" stroke-linejoin="round" stroke-miterlimit="10" fill="none"><path d="M11 28h10m-5-4v4m12-4H4a2 2 0 0 1-2-2V6a2 2 0 0 1 2-2h24a2 2 0 0 1 2 2v16a2 2 0 0 1-2 2zM4.5 6.5h23v14h-23z"/><circle cx="11" cy="13" r="2.5"/><path d="M12.864 8.5l-.414 1m-2.9 7l-.414 1m6.364-2.636l-1-.414m-7-2.9l-1-.414m9 0l-1 .414m-7 2.9l-1 .414m6.364 2.636l-.414-1m-2.9-7l-.414-1m3.364 12l4.5-5 2.533 2.814M17.5 20.5l8.5-9 1.488 1.575"/></g></svg>