<svg xmlns="http://www.w3.org/2000/svg" viewBox="0 0 32 32"><g stroke="#333" stroke-width="2" stroke-linecap="round" stroke-linejoin="round" stroke-miterlimit="10" fill="none"><path d="M19.183 21.389a5.435 5.435 0 0 1-1.71 1.179 5.256 5.256 0 0 1-2.094.432 5.239 5.239 0 0 1-2.094-.432 5.435 5.435 0 0 1-2.367-1.993A5.558 5.558 0 0 1 10 17.5a5.578 5.578 0 0 1 .918-3.074 5.43 5.43 0 0 1 2.367-1.993A5.239 5.239 0 0 1 15.379 12a5.239 5.239 0 0 1 2.094.433 5.435 5.435 0 0 1 2.367 1.993 5.558 5.558 0 0 1 .653 1.363"/><path d="M20.345 18.346l-1.655-2.538H22zM25 6v22a2 2 0 0 1-2 2H9a2 2 0 0 1-2-2V6M4 6h24M13 6V3a1 1 0 0 1 1-1h4a1 1 0 0 1 1 1v3"/></g></svg>