<svg xmlns="http://www.w3.org/2000/svg" viewBox="0 0 32 32"><g stroke="#333" stroke-linecap="round" stroke-linejoin="round" stroke-miterlimit="10" fill="none"><path d="M13 31h6m-1.188-20.377l-.662-8.63C17.107 1.434 16.607 1 16.004 1h-.008c-.603 0-1.103.434-1.146.994l-.662 8.63m3.128 5.06l8.144 3.243c.525.209 1.14-.047 1.409-.586l.003-.007c.269-.539.1-1.179-.386-1.465l-7.543-4.432m-5.886-.001l-7.543 4.432c-.487.286-.655.926-.386 1.465l.003.007c.269.54.884.796 1.409.586l8.144-3.243"/><path d="M13.057 12.436A2.996 2.996 0 0 0 13 13c0 1.182.69 2.195 1.684 2.684.399.196.842.316 1.316.316.474 0 .917-.12 1.316-.316A2.992 2.992 0 0 0 19 13a2.987 2.987 0 0 0-1.188-2.377A2.976 2.976 0 0 0 16 10c-.684 0-1.307.238-1.812.623a2.988 2.988 0 0 0-1.131 1.813z"/><circle cx="16" cy="13" r=".5"/><path d="M16 16v15"/></g></svg>