<svg xmlns="http://www.w3.org/2000/svg" viewBox="0 0 32 32"><path d="M29 11.846C29 14.14 27.209 16 25 16s-4-1.86-4-4.154L25 4s4 5.552 4 7.846zM8.841 14c.706 0 1.403.149 2.047.438l11.752 5.273s1.101.36.672 1.641c-.391 1.165-1.716.687-1.716.687l-3.786-1.226s-1.147-.432-1.371-.004c-.326.641.914 1.216.914 1.216l4.374 2.372 7.31-1.346s1.502-.429 1.876.575c.247.713.008 1.239-1.224 1.675-1.019.35-5.142 1.799-6.901 2.418a4.987 4.987 0 0 1-1.655.281h-5.342a4.998 4.998 0 0 1-3.051-1.039L5 21H1v-7h7.841z" stroke="#333" stroke-width="2" stroke-linecap="round" stroke-linejoin="round" stroke-miterlimit="10" fill="none"/></svg>