<svg xmlns="http://www.w3.org/2000/svg" viewBox="0 0 32 32"><path d="M16 1a9.964 9.964 0 0 1 7.071 2.929A9.964 9.964 0 0 1 26 11a9.249 9.249 0 0 1-.512 2.974 11.474 11.474 0 0 1-1.354 2.705c-.538.797-1.224 1.476-1.862 2.187-.638.711-1.23 1.455-1.579 2.379a10.195 10.195 0 0 0-.51 1.935A14.05 14.05 0 0 0 20 25.5V29a2 2 0 0 1-2 2h-4a2 2 0 0 1-2-2v-3.5c0-.836-.064-1.61-.182-2.32a10.347 10.347 0 0 0-.51-1.935c-.349-.925-.941-1.668-1.579-2.379-.638-.711-1.324-1.391-1.862-2.187a11.436 11.436 0 0 1-1.354-2.705A9.223 9.223 0 0 1 6 11a9.964 9.964 0 0 1 2.929-7.071A9.964 9.964 0 0 1 16 1zm-4.091 26.5l8 1m-8-3l8 1m-8-3l8 1M16 24v-5.853c0-.859-.008-1.623.183-2.466.282-1.243.766-2.516 1.501-3.558M16 17.625c-.014-.942-.824-1.96-1.684-2.309m8-7.639c-1.208-.41-2.669-.106-3.705.889-1.037.995-1.353 2.397-.926 3.557 1.208.41 2.669.106 3.705-.889s1.352-2.398.926-3.557zM9.684 10.684c-.427 1.208-.11 2.668.926 3.705 1.037 1.037 2.497 1.353 3.705.926.427-1.208.11-2.668-.926-3.705-1.036-1.036-2.497-1.352-3.705-.926z" stroke="#333" stroke-linecap="round" stroke-linejoin="round" stroke-miterlimit="10" fill="none"/></svg>