<svg xmlns="http://www.w3.org/2000/svg" viewBox="0 0 32 32"><g stroke="#333" stroke-linejoin="round" stroke-miterlimit="10" fill="none"><path d="M5 31h22V9.542L18.792 1H5v22.5zM18 2v8h8"/><path d="M8.5 25.5c.287-.348.943-1.203 1.971-2.564l-1.608-2.433a5.474 5.474 0 0 0 .368 0l.415.664 1.021 1.514 1.394-1.784.106-.146a9.47 9.47 0 0 0 .171-.25 5.6 5.6 0 0 0 .184.003h.181l-1.623 2.1-.246.331c.188.297.414.642.677 1.035l1.016 1.53-.18-.004-.184.004a27.004 27.004 0 0 0-.527-.836 91.195 91.195 0 0 0-.999-1.473l-.728.921-.8 1.05-.245.338a5.466 5.466 0 0 0-.364 0zm5.389 0l.076-.678.209-2.687.111-1.632.23.004.233-.004.158.495.284.82.946 2.69.259.71 1.896-4.275.177-.439.233.004.233-.004-.034 2.12-.009 1.065c0 .764.007 1.368.022 1.812l-.169-.004-.169.004.061-3.219.01-1.028v-.483l-.61 1.365-1.457 3.364a5.401 5.401 0 0 0-.383 0l-1.567-4.413-.111-.292-.04.428-.051.725-.192 2.693-.018.346-.01.514-.16-.004-.158.003zm6.891 0l.075-1.161.093-2.624.022-1.212.157.004.16-.004-.126 2.855-.066 1.911.736.004 1.087-.007.582-.026-.014.26-1.282-.004-1.424.004z"/></g></svg>