<svg xmlns="http://www.w3.org/2000/svg" viewBox="0 0 32 32"><g stroke="#333" stroke-linecap="round" stroke-linejoin="round" stroke-miterlimit="10" fill="none"><path d="M16 16v14m5 0H11M22.45 2c.354 1.206.55 2.531.55 3.923 0 1.391-.196 2.717-.55 3.923-.354 1.206-.867 2.291-1.5 3.203-.633.912-1.388 1.65-2.225 2.16-.838.509-1.759.791-2.725.791-.967 0-1.887-.282-2.725-.792-.837-.51-1.592-1.248-2.225-2.16-.633-.912-1.146-1.998-1.5-3.203A13.952 13.952 0 0 1 9 5.923c0-1.392.196-2.717.55-3.923m-.519 2.5h13.938"/><circle cx="14" cy="8" r=".5"/><circle cx="19" cy="7" r=".5"/><circle cx="16" cy="12" r=".5"/></g></svg>