<svg xmlns="http://www.w3.org/2000/svg" viewBox="0 0 32 32"><path d="M29.058 8.056L8.056 29.058a3.241 3.241 0 0 1-4.569 0l-.545-.545a3.241 3.241 0 0 1 0-4.569L23.944 2.942a3.241 3.241 0 0 1 4.569 0l.545.545a3.241 3.241 0 0 1 0 4.569zM5.346 24.95l4.154-.745s-.48-2.929.745-4.154l4.151-.742.745-4.154s2.93.48 4.154-.745l.746-4.155 4.159-.75.75-4.159m3.783 3.104c1.524 2.315 1.27 5.48-.762 7.512L15.962 27.971c-2.007 2.007-5.116 2.28-7.423.82m-5.336-5.339c-1.454-2.306-1.178-5.41.826-7.414L16.038 4.029c1.969-1.969 5-2.269 7.293-.9" stroke="#333" stroke-linecap="round" stroke-linejoin="round" stroke-miterlimit="10" fill="none"/></svg>