<svg xmlns="http://www.w3.org/2000/svg" viewBox="0 0 32 32"><g stroke="#333" stroke-linecap="round" stroke-linejoin="round" stroke-miterlimit="10" fill="none"><path d="M8.083 31h16m-14 0v-4h12v4"/><circle cx="26.083" cy="14.125" r="2"/><path d="M16 27l9.744-10.905M3.083 4.841a5.857 5.857 0 0 1 8.284 0 5.857 5.857 0 0 1 0 8.284L3.083 4.841zm6.27-1.446L11.759 1 15 4.228 12.588 6.63M8.5 10.192l-1.645 1.645c-.822.823-2.101.89-2.841.15-.74-.74-.673-2.019.15-2.841L5.808 7.5m8.365-2.115l10.556 7.269"/></g></svg>