<svg xmlns="http://www.w3.org/2000/svg" viewBox="0 0 32 32"><g stroke="#333" stroke-width="2" stroke-linecap="round" stroke-linejoin="round" stroke-miterlimit="10" fill="none"><path d="M19.297 3.366l.003.003a4.663 4.663 0 0 0 3.297 1.366h.005a4.663 4.663 0 0 1 4.663 4.662v.005c0 1.236.491 2.422 1.366 3.297l.004.004a4.662 4.662 0 0 1 0 6.594l-.004.004a4.663 4.663 0 0 0-1.366 3.297v.005a4.663 4.663 0 0 1-4.663 4.663h-.005a4.66 4.66 0 0 0-3.297 1.366l-.004.004a4.662 4.662 0 0 1-6.594 0l-.004-.004a4.663 4.663 0 0 0-3.297-1.366h-.004a4.663 4.663 0 0 1-4.663-4.663v-.005a4.66 4.66 0 0 0-1.366-3.297l-.004-.004a4.662 4.662 0 0 1 0-6.594l.005-.003a4.663 4.663 0 0 0 1.366-3.297v-.006a4.663 4.663 0 0 1 4.663-4.662h.005A4.663 4.663 0 0 0 12.7 3.369l.004-.004a4.662 4.662 0 0 1 6.593.001zM21 11L11 21"/><circle cx="20" cy="20" r="2"/><circle cx="12" cy="12" r="2"/></g></svg>