<svg xmlns="http://www.w3.org/2000/svg" viewBox="0 0 32 32"><path d="M22.627 15c.234-.958.373-1.959.373-3 0-3.363-1.307-6.384-3.386-8.472-2.028-2.037-5.2-2.037-7.228 0C10.307 5.616 9 8.637 9 12c0 1.041.138 2.042.373 3M16 4.5c-.743 0-1.486.29-2.065.871a6.533 6.533 0 0 0-1.413 2.141C12.187 8.33 12 9.042 12 10m9.471 5H24a11.805 11.805 0 0 1-3.738 6.411c-2.391 2.119-6.133 2.119-8.524 0A11.805 11.805 0 0 1 8 15h13.471zM18 23l-2 5-2-5m1.605 4.013C12.476 27.149 10 28.88 10 31h12c0-2.12-2.476-3.851-5.605-3.987" stroke="#333" stroke-miterlimit="10" fill="none"/></svg>