<svg xmlns="http://www.w3.org/2000/svg" viewBox="0 0 32 32"><path d="M23.091 25H8.909c-1.358 0-2.674-.394-3.717-1.113L1.001 21H31l-4.191 2.887c-1.044.719-2.36 1.113-3.718 1.113zM3.883 20.652c.669-1.506 2.293-2.534 3.941-2.493 1.647.041 3.219 1.148 3.812 2.686m-5.545-2.519a4.53 4.53 0 0 1 3.24-2.655c1.247-.248 2.593.08 3.6.854M10.2 18.954c.942-1.82 3.15-2.887 5.161-2.494 2.011.393 3.656 2.212 3.844 4.252m8.726.096c-.383-1.466-1.847-2.574-3.362-2.544-1.515.03-2.934 1.195-3.258 2.675m5.164-2.315c-.56-1.835-2.232-3.281-4.128-3.571-1.897-.29-3.924.591-5.006 2.175m-6.305-1.844a3.027 3.027 0 0 1 1.14-2.88c.824-.619 1.812-.842 2.749-.349.608.32 1.168.781 1.847.891 1.447.234 2.198-1.104 2.415-2.312.2-1.111.62-3.578 2.397-2.733.866.412.657 1.478 1.236 2.112a1.23 1.23 0 0 0 1.238.339c.604-.185.986-.864.822-1.475" stroke="#333" stroke-linecap="round" stroke-linejoin="round" stroke-miterlimit="10" fill="none"/></svg>