<svg xmlns="http://www.w3.org/2000/svg" viewBox="0 0 32 32"><path d="M2 18c0 3.836 3.741 7.103 9 8.399V29h10v-2.601c5.259-1.295 9-4.562 9-8.399H2zm3.461 2.002c.312.401.669.786 1.067 1.15.398.365.837.709 1.313 1.031.476.322.989.622 1.534.896s1.123.523 1.728.744m-.603-5.854l1.75-2.717s-1.75-1.124-1.75-2.248l1.75-2.252S10.5 9.626 10.5 8.5M3 4h24M3 6l22 4M4.5 17.969l1.75-2.717S4.5 14.128 4.5 13.004l1.75-2.252S4.5 9.626 4.5 8.5V4.094m3 13.875l1.75-2.717S7.5 14.128 7.5 13.004l1.75-2.252S7.5 9.626 7.5 8.5V4.188m3 4.312V4.094" stroke="#333" stroke-linecap="round" stroke-linejoin="round" stroke-miterlimit="10" fill="none"/></svg>