<svg xmlns="http://www.w3.org/2000/svg" viewBox="0 0 32 32"><g stroke="#333" stroke-miterlimit="10" fill="none"><path d="M30.473 7H1.527A.527.527 0 0 1 1 6.473V3.527C1 3.236 1.236 3 1.527 3h28.946c.291 0 .527.236.527.527v2.946a.527.527 0 0 1-.527.527zM27 7v16.485c0 .284-.205.515-.458.515H5.458C5.205 24 5 23.769 5 23.485V7m11 16v3"/><circle cx="16" cy="28" r="2"/><circle cx="9" cy="20" r="1.5"/><circle cx="14" cy="15" r="1.5"/><circle cx="20" cy="18" r="1.5"/><circle cx="23" cy="11" r="1.5"/><path d="M10.134 18.905l2.79-2.794m2.461-.457l3.17 1.7m1.905-.821l1.879-4.072"/></g></svg>