<svg xmlns="http://www.w3.org/2000/svg" viewBox="0 0 32 32"><g stroke="#333" stroke-miterlimit="10" fill="none"><path d="M21.614 7.011a4.5 4.5 0 1 1 2.972 3.262M26 6l1.616 4m-3.232-8L26 6m4-1.616L26 6m1.686-3.971L26 6m0 0l-3.971-1.686M26 6l3.971 1.686"/><path d="M13 18.188V30m3 0h-6m7-16.917v1.122A3.806 3.806 0 0 1 13.205 18h-.411A3.806 3.806 0 0 1 9 14.205v-1.08m14.01-.896l-8.266.697a20.727 20.727 0 0 1-3.488 0l-8.266-.697A2.186 2.186 0 0 1 1 10.04V7h24v3.04a2.186 2.186 0 0 1-1.99 2.189z"/></g></svg>