<svg xmlns="http://www.w3.org/2000/svg" viewBox="0 0 32 32"><g stroke="#333" stroke-linejoin="round" stroke-miterlimit="10" fill="none"><path d="M5 31h22V9.542L18.792 1H5v22.5zM18 2v8h8"/><path d="M8.524 25.236a3.55 3.55 0 0 0-.024-.384c.506.256.967.384 1.385.384.238 0 .453-.041.646-.124a.973.973 0 0 0 .448-.368 1.004 1.004 0 0 0 .108-.858 1.07 1.07 0 0 0-.163-.29 6.15 6.15 0 0 0-.328-.381 11.998 11.998 0 0 0-.768-.723l-.317-.282a5.63 5.63 0 0 1-.317-.32 3.277 3.277 0 0 1-.253-.309 1.2 1.2 0 0 1-.228-.506 1.307 1.307 0 0 1 .147-.925 1.23 1.23 0 0 1 .526-.474c.232-.117.527-.175.886-.175.248 0 .565.038.95.115l.036.358a4.35 4.35 0 0 0-.615-.166 2.757 2.757 0 0 0-.466-.043c-.265 0-.483.046-.654.139a1.006 1.006 0 0 0-.398.371.928.928 0 0 0-.1.756c.027.087.07.175.131.264.061.09.142.188.243.295l.36.365.554.524.488.455.271.288c.085.102.156.204.209.305.053.101.093.205.118.313.025.108.038.222.038.342 0 .267-.064.502-.191.704a1.18 1.18 0 0 1-.561.459 2.13 2.13 0 0 1-.832.156c-.198 0-.39-.017-.577-.049a5.255 5.255 0 0 1-.752-.216zm10.074-.341a3.326 3.326 0 0 0-.057.375 39.35 39.35 0 0 1-1.116.141c-.271.028-.534.05-.788.066l-.63.023c-.424 0-.826-.058-1.204-.175-.378-.117-.7-.31-.966-.58a2.356 2.356 0 0 1-.572-.936 3.678 3.678 0 0 1-.172-1.145c0-.449.068-.88.202-1.295.135-.413.334-.759.598-1.038.263-.279.577-.487.943-.625a3.269 3.269 0 0 1 1.155-.207c.404 0 .786.072 1.148.215.36.144.658.359.894.646.235.287.402.604.502.951.098.347.148.718.148 1.113 0 .284-.026.558-.078.821a3.407 3.407 0 0 1-.22.715 2.61 2.61 0 0 1-.363.588 2.427 2.427 0 0 1-.405.392 3.707 3.707 0 0 1-.389.256c.201-.014.368-.033.502-.055a3.62 3.62 0 0 0 .393-.091l.475-.155zm-2.614-5.131c-.348 0-.677.055-.987.166-.31.111-.586.291-.829.54a2.568 2.568 0 0 0-.569.942 3.51 3.51 0 0 0-.205 1.192c0 .367.045.708.137 1.023.09.316.248.603.472.861.225.259.496.448.814.567a2.86 2.86 0 0 0 1.01.179 2.94 2.94 0 0 0 1.041-.185c.327-.124.608-.314.839-.571.233-.257.404-.566.511-.926.109-.359.162-.741.162-1.145 0-.364-.043-.704-.13-1.019a2.391 2.391 0 0 0-.435-.859 1.84 1.84 0 0 0-.794-.576 2.866 2.866 0 0 0-1.037-.189zm4.482 5.646l.084-1.352.104-3.057.024-1.412a3.83 3.83 0 0 0 .353 0l-.141 3.326-.074 2.226.821.004c.588 0 .992-.003 1.213-.009l.65-.03a3.18 3.18 0 0 0-.016.303 270.95 270.95 0 0 0-1.431-.004l-1.587.005z"/></g></svg>