<svg xmlns="http://www.w3.org/2000/svg" viewBox="0 0 32 32"><g stroke="#333" stroke-linejoin="round" stroke-miterlimit="10" fill="none"><path d="M5 31h22V9.542L18.792 1H5v22.5zM18 2v8h8"/><path d="M8.543 25.371a5.29 5.29 0 0 0-.043-.388c.327.088.57.144.731.17.161.026.317.039.471.039.192 0 .373-.023.544-.07.144-.04.269-.095.375-.164a.822.822 0 0 0 .221-.194c.077-.093.144-.207.202-.343.058-.138.096-.29.115-.452.026-.203.053-.712.082-1.527l.057-1.91.038-1.927a4.51 4.51 0 0 0 .434 0 98.997 98.997 0 0 0-.111 2.007l-.088 2.13c-.032.74-.064 1.212-.096 1.414-.036.203-.079.36-.13.474a1.312 1.312 0 0 1-.216.328 1.52 1.52 0 0 1-.332.274c-.144.09-.293.154-.447.194-.195.05-.414.075-.653.075a5.666 5.666 0 0 1-1.154-.13zm5.223-.18l-.029-.448c.607.299 1.161.448 1.662.448a2 2 0 0 0 .775-.144 1.16 1.16 0 0 0 .537-.43 1.148 1.148 0 0 0 .13-1.001 1.256 1.256 0 0 0-.196-.338 6.855 6.855 0 0 0-.394-.445c-.171-.18-.478-.462-.922-.843l-.38-.328a7.078 7.078 0 0 1-.381-.374 3.744 3.744 0 0 1-.304-.361c-.08-.111-.14-.21-.18-.299a1.379 1.379 0 0 1-.094-.291 1.617 1.617 0 0 1-.034-.329c0-.269.07-.519.212-.751.141-.233.351-.417.63-.553.279-.135.633-.204 1.063-.204.298 0 .678.045 1.14.134.003.126.017.266.043.418a5.55 5.55 0 0 0-.737-.194 3.38 3.38 0 0 0-.559-.05c-.318 0-.58.054-.786.162a1.201 1.201 0 0 0-.477.433 1.058 1.058 0 0 0-.12.882c.032.101.085.204.158.308.073.104.17.219.291.343l.432.426c.166.159.389.364.665.613l.586.53c.115.104.222.216.325.335.103.119.187.239.251.356.063.118.112.24.141.366.031.126.046.259.046.398 0 .312-.076.586-.228.822a1.408 1.408 0 0 1-.673.535c-.297.12-.63.181-.999.181-.238 0-.469-.019-.693-.057a6.005 6.005 0 0 1-.901-.25zm5.689.205c.044-.563.083-1.245.116-2.045l.09-2.478c.029-.852.043-1.608.043-2.269l.957.005 1.074-.005c.311 0 .564.019.757.058.194.038.369.127.527.269.157.14.276.315.358.519.082.206.123.423.123.652 0 .408-.102.77-.306 1.088a1.87 1.87 0 0 1-.821.708 2.816 2.816 0 0 1-1.172.234c-.247 0-.519-.03-.818-.09a4.753 4.753 0 0 0-.096-.308c.295.064.578.095.847.095.277 0 .541-.032.793-.098.252-.065.467-.172.646-.324a1.53 1.53 0 0 0 .417-.569 1.79 1.79 0 0 0 .149-.721c0-.173-.03-.339-.09-.499a1.045 1.045 0 0 0-.245-.392 1.001 1.001 0 0 0-.395-.23c-.159-.052-.424-.078-.796-.078h-.829l-.4-.005-.284-.005c-.041.79-.085 1.918-.13 3.386a155.889 155.889 0 0 0-.067 2.579l.005.522a4.567 4.567 0 0 0-.453.001z"/></g></svg>