<svg xmlns="http://www.w3.org/2000/svg" viewBox="0 0 32 32"><g stroke="#333" stroke-linejoin="round" stroke-miterlimit="10" fill="none"><path d="M5 31h22V9.542L18.792 1H5v22.5zM18 2v8h8"/><path d="M8.5 25.496l.051-.886.092-2.756.013-.783.004-.571.639.004.733-.004c.303 0 .525.046.665.137a.927.927 0 0 1 .329.392c.08.17.12.364.12.584 0 .274-.06.524-.182.752a1.264 1.264 0 0 1-.496.522c-.21.12-.45.179-.723.179l-.154-.007 1.537 2.438a4.334 4.334 0 0 0-.332 0l-.421-.725-1.224-1.973c.191.039.356.059.495.059.169 0 .333-.026.492-.079a1.052 1.052 0 0 0 .673-.63c.062-.157.093-.33.093-.515 0-.125-.015-.241-.045-.349a.805.805 0 0 0-.145-.284.646.646 0 0 0-.205-.175.925.925 0 0 0-.268-.075 2.57 2.57 0 0 0-.348-.024l-.528.004-.444-.007a176.52 176.52 0 0 0-.122 4.773l-.151-.004-.148.003zm3.407 0l1.077-2.405.948-2.13.196-.461a3.108 3.108 0 0 0 .346 0l.622 2.013.947 2.983-.145-.004-.145.004c-.06-.234-.173-.621-.337-1.162-.165-.54-.295-.948-.389-1.224h-1.815l-1.01 2.386-.148-.004-.147.004zm1.407-2.624h1.646l-.685-2.146-.961 2.146zm5.351 2.624l-1.071-3.598-.273-.904a19.259 19.259 0 0 0-.164-.494 2.849 2.849 0 0 0 .319 0l.167.656 1.191 4.058.161-.343 1.138-2.59a44.816 44.816 0 0 0-.3-1.013l-.238-.768a2.512 2.512 0 0 0 .268 0c.121.493.258.982.407 1.465l.56-1.465a2.666 2.666 0 0 0 .297 0l-.404.937-.346.842.048.188.726 2.435.109.334.196-.443.218-.532 1.371-3.336.164-.425a2.536 2.536 0 0 0 .292 0c-.12.262-.357.817-.712 1.667l-.825 1.967c-.194.462-.378.917-.552 1.366a4.438 4.438 0 0 0-.167-.004h-.167l-.356-1.237-.488-1.644-.083.183a6.676 6.676 0 0 0-.154.351l-1.024 2.347-.154-.004a7.522 7.522 0 0 0-.154.004z"/></g></svg>