<svg xmlns="http://www.w3.org/2000/svg" viewBox="0 0 32 32"><path d="M29 9.467L26 30h-8L15 9.467M14 9h16m-6-7l-2 2.525V9m-6.083 6.885h-3.139c0 1.856-1.691 3.361-3.778 3.361-2.086 0-3.778-1.505-3.778-3.361H1.444L3.963 30h10.074l2.125-11.91M2.773 15.834L.5 10.26l1.865-.76 2.573 6.308m6.685 2.371l-.297.059-1.382-8.389 1.767-.349 1.052 6.388m-4.75 2.965l.391-6.664 1.855.125-.405 6.905m-5.196-4.261L6.025 9.5l2.031.592-1.967 7.852" stroke="#333" stroke-linecap="round" stroke-linejoin="round" stroke-miterlimit="10" fill="none"/></svg>