<svg xmlns="http://www.w3.org/2000/svg" viewBox="0 0 32 32"><g stroke="#333" stroke-linejoin="round" stroke-miterlimit="10" fill="none"><path d="M5 31h22V9.542L18.792 1H5v22.5zM18 2v8h8"/><path d="M8.5 25.425l.072-.657.2-2.608.108-1.585.219.004.224-.004.152.48.273.796.906 2.612.248.689 1.816-4.151.169-.427.224.004.224-.004-.035 2.058-.008 1.034c0 .741.006 1.327.02 1.759a3.201 3.201 0 0 0-.324 0l.058-3.125.01-.999v-.469l-.584 1.326-1.396 3.268a3.417 3.417 0 0 0-.366 0L9.209 21.14l-.107-.284-.038.416-.049.704-.184 2.614-.017.336-.01.499a3.007 3.007 0 0 0-.153-.004l-.151.004zm6.608 0c.032-.403.059-.89.083-1.461l.065-1.77c.021-.61.031-1.15.031-1.621l.686.004.768-.004c.222 0 .403.013.542.041a.782.782 0 0 1 .377.192c.113.1.198.224.257.371s.088.302.088.466a1.4 1.4 0 0 1-.219.776 1.348 1.348 0 0 1-.589.506 2.022 2.022 0 0 1-.838.167 2.98 2.98 0 0 1-.585-.064 2.585 2.585 0 0 0-.069-.22c.212.044.414.067.607.067.198 0 .387-.023.567-.069.181-.047.335-.124.462-.232a1.12 1.12 0 0 0 .299-.407c.071-.163.107-.335.107-.515a.993.993 0 0 0-.064-.356.75.75 0 0 0-.176-.28.719.719 0 0 0-.283-.164c-.114-.036-.304-.055-.571-.055h-.593l-.287-.003-.203-.004c-.03.564-.061 1.37-.093 2.418a105.345 105.345 0 0 0-.048 1.842l.003.374a3.201 3.201 0 0 0-.162-.004l-.162.005zm6.864-2.672l.926.004.602-.004-.059 1.123-.039 1.372a9.09 9.09 0 0 1-.972.194 5.625 5.625 0 0 1-.735.059c-.351 0-.687-.052-1.007-.153a2.223 2.223 0 0 1-.82-.46 1.836 1.836 0 0 1-.503-.766 2.892 2.892 0 0 1-.162-.97c0-.391.07-.762.212-1.114.141-.352.336-.644.583-.876.248-.233.534-.401.857-.505a3.387 3.387 0 0 1 1.05-.156c.211 0 .426.012.645.039.219.026.477.073.773.142l.028.327a5.552 5.552 0 0 0-.841-.227 3.746 3.746 0 0 0-.652-.06c-.337 0-.659.054-.966.163a2.002 2.002 0 0 0-.778.49 2.163 2.163 0 0 0-.486.807c-.111.32-.167.648-.167.988 0 .32.049.617.146.892.098.274.244.499.44.675.195.175.433.309.713.403.281.093.589.14.923.14l.376-.02.406-.053a3.806 3.806 0 0 0 .672-.169l.084-2.068h-.41l-.33.003-.521.025.01-.206v-.039z"/></g></svg>