<svg xmlns="http://www.w3.org/2000/svg" viewBox="0 0 32 32"><g stroke="#333" stroke-linejoin="round" stroke-miterlimit="10" fill="none"><path d="M5 31h22V9.542L18.792 1H5v22.5zM18 2v8h8"/><path d="M8.5 25.5l.076-1.53.087-2.945.017-.87.005-.654 1.681.004 1.467-.004a3.389 3.389 0 0 0-.017.312 10.617 10.617 0 0 0-.815-.039 84.484 84.484 0 0 0-.823-.005H9.015L8.939 22.3l.897.014c.764 0 1.331-.005 1.702-.014a2.994 2.994 0 0 0-.022.304l-.749-.009a36.34 36.34 0 0 0-.699-.009c-.362 0-.744.006-1.146.017a115.163 115.163 0 0 0-.051 2.896 4.317 4.317 0 0 0-.185-.004L8.5 25.5zm5.148 0l.088-1.393.109-3.152.025-1.455a4.197 4.197 0 0 0 .37 0l-.148 3.429-.078 2.295.863.004c.618 0 1.043-.003 1.275-.009l.682-.03a3.389 3.389 0 0 0-.017.312l-1.503-.004-1.666.003zm6.442 0l-.148-.496a8.464 8.464 0 0 0-.088-.295 52.173 52.173 0 0 0-.241-.712L18.052 19.5a4.675 4.675 0 0 0 .38 0l.245.813 1.674 4.92 2.284-4.7.219-.475.248-.558a4.635 4.635 0 0 0 .398 0 66.034 66.034 0 0 0-.99 1.965l-1.103 2.247a45.52 45.52 0 0 0-.842 1.789 7.819 7.819 0 0 0-.475-.001z"/></g></svg>