<svg xmlns="http://www.w3.org/2000/svg" viewBox="0 0 32 32"><g stroke="#333" stroke-linejoin="round" stroke-miterlimit="10" fill="none"><path d="M5 31h22V9.542L18.792 1H5v22.5zM18 2v8h8"/><path d="M8.5 25.5l1.32-2.888 1.163-2.558.24-.554a4.684 4.684 0 0 0 .426 0l.763 2.418 1.161 3.582a4.082 4.082 0 0 0-.178-.004l-.177.004a39.01 39.01 0 0 0-.413-1.396 51.04 51.04 0 0 0-.476-1.47h-2.226L8.862 25.5a3.956 3.956 0 0 0-.362 0zm1.726-3.152h2.018l-.84-2.577-1.178 2.577zm4.986 3.152c.036-.498.068-1.101.095-1.807l.074-2.189c.024-.753.035-1.421.035-2.004l.785.004.878-.004c.254 0 .461.017.62.051a.885.885 0 0 1 .431.237c.129.125.226.277.293.459.067.182.101.374.101.576 0 .36-.084.681-.25.96-.166.28-.391.488-.673.626a2.152 2.152 0 0 1-.959.207 3.17 3.17 0 0 1-.669-.079 3.72 3.72 0 0 0-.079-.273c.242.056.474.084.694.084.226 0 .443-.029.649-.086a1.277 1.277 0 0 0 .871-.79c.082-.202.122-.414.122-.637 0-.153-.025-.3-.073-.441a.94.94 0 0 0-.201-.346.814.814 0 0 0-.324-.203c-.13-.045-.347-.068-.653-.068H16.3l-.328-.004-.232-.004c-.034.698-.07 1.695-.106 2.991a150.092 150.092 0 0 0-.055 2.279l.004.462a4.188 4.188 0 0 0-.371-.001zm4.87 0c.053-.912.097-1.964.133-3.158.035-1.194.052-2.049.052-2.565l-.004-.277.175.004.171-.004-.082 1.918-.091 3.365a38.61 38.61 0 0 0-.007.717 3.697 3.697 0 0 0-.347 0zm.461-3.189c.347-.392.753-.869 1.219-1.43.467-.56.838-1.021 1.113-1.381h.413l-2.369 2.789L23.5 25.5a7.132 7.132 0 0 0-.229-.004l-.225.004-.236-.33-.175-.231a35.098 35.098 0 0 0-.36-.464l-1.732-2.164z"/></g></svg>