<svg xmlns="http://www.w3.org/2000/svg" viewBox="0 0 32 32"><path d="M23 20.5h5m-23-9h5m21 10.484c0 .561-.455 1.016-1.016 1.016H2.016A1.016 1.016 0 0 1 1 21.984V10.016C1 9.455 1.455 9 2.016 9H30.5a.5.5 0 0 1 .5.5v12.484zm-16.875-2.505c.996 0 2.256.126 3.149-.242.753-.311 1.226-.887 1.226-1.496 0-.833-.848-1.495-1.992-1.673-.769-.12-1.547-.121-2.163-.5-.534-.328-.845-.807-.845-1.302 0-.72.698-1.382 1.672-1.634.819-.212 1.84-.104 2.703-.104M16.5 11v1m0 8v1" stroke="#333" stroke-miterlimit="10" fill="none"/></svg>