<svg xmlns="http://www.w3.org/2000/svg" viewBox="0 0 32 32"><path d="M11.5 31H28V9.542L19.792 1H6v10m13-9v8h8" stroke="#333" stroke-width="2" stroke-linecap="round" stroke-linejoin="round" stroke-miterlimit="10" fill="none"/><path stroke="#333" stroke-linecap="round" stroke-linejoin="round" stroke-miterlimit="10" d="M9.5 27.56l-.008-1.134-.027-3.968-.027-3.968a4.474 4.474 0 0 0-.284-1.543 4.124 4.124 0 0 0-.754-1.266 3.57 3.57 0 0 0-1.109-.859 3.082 3.082 0 0 0-1.349-.321 3.042 3.042 0 0 0-1.345.305 3.439 3.439 0 0 0-1.097.844 4.007 4.007 0 0 0-.737 1.257 4.392 4.392 0 0 0-.263 1.539l.012 1.701.019 2.834.019 2.834.019 2.834c.003.39.075.762.203 1.102.128.34.312.646.539.905.226.258.495.468.792.614a2.18 2.18 0 0 0 1.925.012c.295-.142.561-.349.784-.604.223-.255.403-.56.526-.898.124-.338.191-.71.188-1.099l-.019-2.834-.019-2.834v-.047l.012 1.747-.012-1.701-.012-1.701-.012-1.701a1.916 1.916 0 0 0-.122-.661 1.77 1.77 0 0 0-.323-.543 1.529 1.529 0 0 0-.475-.368 1.298 1.298 0 0 0-1.154-.007 1.468 1.468 0 0 0-.47.362 1.703 1.703 0 0 0-.316.539 1.902 1.902 0 0 0-.113.66l.012 1.701.012 1.701.023 3.401" fill="none"/></svg>