<svg xmlns="http://www.w3.org/2000/svg" viewBox="0 0 32 32"><g stroke="#333" stroke-linejoin="round" stroke-miterlimit="10" fill="none"><path d="M5 31h22V9.542L18.792 1H5v22.5zM18 2v8h8"/><path d="M5 31h22V9.542L18.792 1H5v22.5zM18 2v8h8"/><path d="M8.5 25.425l.063-.657.177-2.608.095-1.585a6.97 6.97 0 0 0 .393 0l.134.479.24.796.802 2.612.219.689 1.606-4.15.15-.426a6.83 6.83 0 0 0 .395 0l-.03 2.057-.007 1.035c0 .741.006 1.328.018 1.758a3.843 3.843 0 0 0-.286 0l.05-3.125.009-.998v-.469l-.517 1.325-1.234 3.267a3.997 3.997 0 0 0-.324 0l-1.328-4.283-.094-.284-.034.415-.043.704-.161 2.613-.016.336-.01.499a3.583 3.583 0 0 0-.267 0zm7.921-4.925c.291 0 .566.051.824.153.259.102.485.267.678.498.193.229.331.493.412.79.083.298.124.613.124.947 0 .368-.047.721-.14 1.059a2.256 2.256 0 0 1-.424.853c-.188.23-.425.404-.707.523a2.297 2.297 0 0 1-1.75.012 1.756 1.756 0 0 1-.688-.487 2.014 2.014 0 0 1-.406-.775 3.449 3.449 0 0 1-.13-.95c0-.372.053-.732.158-1.082.105-.349.258-.639.458-.868.2-.23.438-.399.717-.509.279-.109.569-.164.874-.164zm-.011.22c-.28 0-.545.051-.792.151-.248.101-.464.264-.646.49s-.317.492-.402.799a3.55 3.55 0 0 0-.128.961c0 .316.044.617.134.907.089.288.22.528.392.718.173.189.376.326.608.408.233.083.478.125.736.125.272 0 .53-.047.773-.139.243-.092.453-.246.631-.462.178-.215.308-.474.391-.777.082-.302.124-.62.124-.957 0-.32-.038-.624-.115-.913a1.884 1.884 0 0 0-.367-.738 1.483 1.483 0 0 0-.6-.439 2.074 2.074 0 0 0-.739-.134zm4.625 4.705l-.107-.401-.064-.239-.173-.576-1.127-3.635a3.632 3.632 0 0 0 .274 0l.177.657 1.21 3.977 1.651-3.799.158-.384.179-.451a3.646 3.646 0 0 0 .288 0c-.183.384-.421.913-.715 1.588l-.797 1.816c-.237.537-.44 1.019-.609 1.446a6.37 6.37 0 0 0-.17-.003l-.175.004z"/></g></svg>