<svg xmlns="http://www.w3.org/2000/svg" viewBox="0 0 32 32"><g stroke="#333" stroke-linejoin="round" stroke-miterlimit="10" fill="none"><path d="M5 31h22V9.542L18.792 1H5v22.5zM18 2v8h8"/><path d="M8.5 25.5l1.331-2.888 1.172-2.558.242-.554a6.915 6.915 0 0 0 .428 0l.769 2.418 1.17 3.582a4.134 4.134 0 0 0-.359 0 37.162 37.162 0 0 0-.417-1.396 47.605 47.605 0 0 0-.48-1.47h-2.244L8.865 25.5a4.01 4.01 0 0 0-.365 0zm1.74-3.152h2.034l-.847-2.578-1.187 2.578zm5.028 3.152c.037-.499.068-1.101.095-1.807l.075-2.189c.024-.754.036-1.422.036-2.004l.791.004.885-.004c.256 0 .464.017.625.051.16.033.305.112.435.237.13.124.228.277.296.459.067.181.101.374.101.576 0 .36-.084.68-.252.96a1.588 1.588 0 0 1-.679.626 2.2 2.2 0 0 1-.967.207c-.203 0-.429-.026-.675-.079a4.108 4.108 0 0 0-.079-.273c.244.055.477.084.7.084.228 0 .447-.029.654-.086.208-.058.386-.154.533-.287.147-.134.262-.302.344-.503s.123-.414.123-.637c0-.153-.025-.3-.073-.441a.948.948 0 0 0-.202-.346.819.819 0 0 0-.327-.203c-.131-.045-.35-.068-.658-.068h-.684l-.33-.004-.235-.005c-.035.698-.07 1.694-.107 2.991a142.932 142.932 0 0 0-.056 2.278l.004.463a4.242 4.242 0 0 0-.373 0zm4.893 0c.037-.499.069-1.101.095-1.807l.075-2.189c.024-.754.036-1.422.036-2.004l.791.004.885-.004c.256 0 .464.017.625.051.16.033.305.112.435.237.13.124.228.277.296.459.067.181.101.374.101.576 0 .36-.084.68-.252.96a1.588 1.588 0 0 1-.679.626 2.2 2.2 0 0 1-.967.207c-.203 0-.429-.026-.675-.079a4.108 4.108 0 0 0-.079-.273c.244.055.477.084.7.084.228 0 .447-.029.654-.086.208-.058.386-.154.533-.287a1.37 1.37 0 0 0 .344-.503c.082-.201.123-.414.123-.637 0-.153-.025-.3-.073-.441a.948.948 0 0 0-.202-.346.819.819 0 0 0-.327-.203c-.131-.045-.35-.068-.658-.068h-.684l-.33-.004-.234-.004c-.035.698-.07 1.694-.107 2.991a142.932 142.932 0 0 0-.056 2.278l.004.463a4.242 4.242 0 0 0-.374-.001z"/></g></svg>