<svg xmlns="http://www.w3.org/2000/svg" viewBox="0 0 32 32"><g stroke="#333" stroke-linecap="round" stroke-linejoin="round" stroke-miterlimit="10" fill="none"><path d="M23 26c-3.869-2.667-10.131-2.667-14 0"/><circle cx="11" cy="30" r="1"/><circle cx="16" cy="30" r="1"/><circle cx="21" cy="30" r="1"/><path d="M16 20v8.844M11 25v4m10-4v4M5 14h3m16 0h3m-16 4.326L9.257 3.229A2 2 0 0 1 11.244 1h9.512a2 2 0 0 1 1.987 2.23L21 18.308m4-4.225V16c0 2.209-4.029 4-9 4s-9-1.791-9-4v-1.917m3.5 1.417h11"/></g></svg>