<svg xmlns="http://www.w3.org/2000/svg" viewBox="0 0 32 32"><path fill="#333" d="M16 2c1.868 0 3.712.373 5.417 1.088l-6.929 11.061a2.26 2.26 0 0 0 2.402 3.404l13.045-2.892c.082.863.084 1.737.007 2.614-.599 6.807-6.201 12.266-13.031 12.697-.304.018-.609.028-.911.028-3.908 0-7.534-1.57-10.209-4.42-2.673-2.848-4.009-6.574-3.762-10.493.44-6.973 6.029-12.585 12.998-13.054.324-.022.651-.033.973-.033m0-2c-.366 0-.735.012-1.107.037C6.958.571.534 7.023.033 14.961-.555 24.268 6.819 32 16 32c.344 0 .691-.011 1.039-.033 7.81-.493 14.211-6.723 14.897-14.518.15-1.71.031-3.371-.319-4.945a.26.26 0 0 0-.312-.196l-14.847 3.291a.258.258 0 0 1-.274-.389l7.945-12.683a.26.26 0 0 0-.088-.363A15.928 15.928 0 0 0 16 0z"/><path stroke="#333" stroke-width="2" stroke-miterlimit="10" d="M20.52 12.4l5.122-7.66a.098.098 0 0 1 .143-.021c2.04 1.619 2.749 2.884 3.693 5.368a.097.097 0 0 1-.065.131l-8.789 2.329c-.135.036-.182-.03-.104-.147z" fill="none"/></svg>