<svg xmlns="http://www.w3.org/2000/svg" viewBox="0 0 32 32"><g stroke="#333" stroke-linejoin="round" stroke-miterlimit="10" fill="none"><path d="M5 31h22V9.542L18.792 1H5v22.5zM18 2v8h8"/><path d="M12.311 21.654l1.275.005.83-.005-.082 1.572-.053 1.92c-.495.126-.942.216-1.338.271a7.546 7.546 0 0 1-1.012.082c-.484 0-.946-.072-1.386-.214a3.029 3.029 0 0 1-1.129-.644 2.563 2.563 0 0 1-.692-1.072 4.094 4.094 0 0 1-.224-1.358c0-.547.097-1.067.292-1.56.194-.492.462-.901.804-1.226.341-.325.735-.56 1.18-.706a4.622 4.622 0 0 1 1.446-.219c.29 0 .587.018.889.055.302.037.656.103 1.064.199l.038.458a7.791 7.791 0 0 0-1.158-.318 5.105 5.105 0 0 0-.897-.084 3.88 3.88 0 0 0-1.331.229 2.738 2.738 0 0 0-1.071.687 3.039 3.039 0 0 0-.67 1.129 4.25 4.25 0 0 0-.23 1.383c0 .448.068.864.201 1.249.135.385.337.7.606.945.269.246.596.434.981.565.386.131.811.196 1.272.196.159 0 .331-.009.518-.027a7.644 7.644 0 0 0 1.018-.17l.467-.142.116-2.896h-.565l-.455.006-.717.034.014-.288v-.056zm4.45 3.742l.104-1.995.095-2.99.019-1.035.005-.771a5.75 5.75 0 0 0 .426 0l-.088 1.801-.111 3.706-.024 1.284a5.652 5.652 0 0 0-.426 0zm2.99 0l.084-1.731.098-3.333.019-.985.005-.741 1.892.005 1.651-.005a3.65 3.65 0 0 0-.019.353c-.271-.026-.577-.04-.917-.044l-.927-.006h-1.308l-.085 2.866 1.01.015c.859 0 1.498-.005 1.915-.015l-.024.343-.844-.01a38.764 38.764 0 0 0-2.075.01 128.229 128.229 0 0 0-.058 3.279 5.649 5.649 0 0 0-.417-.001z"/></g></svg>