<svg xmlns="http://www.w3.org/2000/svg" viewBox="0 0 32 32"><path d="M30.492 31H1.508A.509.509 0 0 1 1 30.492v-2.983c0-.281.228-.509.508-.509h28.983c.281 0 .509.228.509.508v2.983a.509.509 0 0 1-.508.509zM30.5 9h-29c-.276 0-.5-.206-.5-.459V5.823c0-.198.138-.374.344-.436L15.843 1h.314l14.499 4.359a.465.465 0 0 1 .344.437v2.745c0 .253-.224.459-.5.459zM7.8 24H4.2a.2.2 0 0 1-.2-.2V12.2a.2.2 0 0 1 .2-.2h3.6c.11 0 .2.09.2.2v11.6a.2.2 0 0 1-.2.2zm10 0h-3.6a.2.2 0 0 1-.2-.2V12.2a.2.2 0 0 1 .2-.2h3.6c.11 0 .2.09.2.2v11.6a.2.2 0 0 1-.2.2zm10 0h-3.6a.2.2 0 0 1-.2-.2V12.2a.2.2 0 0 1 .2-.2h3.6c.11 0 .2.09.2.2v11.6a.2.2 0 0 1-.2.2z" stroke="#333" stroke-width="2" stroke-miterlimit="10" fill="none"/></svg>