<svg xmlns="http://www.w3.org/2000/svg" viewBox="0 0 32 32"><g stroke="#333" stroke-linecap="round" stroke-linejoin="round" stroke-miterlimit="10" fill="none"><path d="M8.007 17.944c-2.528 2.543-5.477 3.735-6.585 2.661-1.109-1.074.042-4.006 2.571-6.549 2.528-2.543 5.477-3.735 6.585-2.661 1.109 1.074-.042 4.006-2.571 6.549zM10 11h13.5c2.75 0 5 2.25 5 5s-2.25 5-5 5H3m25.628-6.041L31.5 14.5c-.564.269-.998.758-1.169 1.318a2.005 2.005 0 0 0 .252 1.682L28.5 16.451m-15-2.951h7"/><circle cx="7" cy="17" r=".5"/><circle cx="4" cy="19" r=".5"/><circle cx="4" cy="16" r=".5"/><circle cx="8" cy="14" r=".5"/></g></svg>