<svg xmlns="http://www.w3.org/2000/svg" viewBox="0 0 32 32"><g stroke="#333" stroke-linejoin="round" stroke-miterlimit="10" fill="none"><path d="M5 31h22V9.542L18.792 1H5v22.5zM18 2v8h8"/><path d="M8.537 25.371a5.935 5.935 0 0 0-.037-.388c.283.088.494.144.632.17.138.025.275.038.408.038.166 0 .323-.023.47-.07a1.09 1.09 0 0 0 .325-.164.78.78 0 0 0 .191-.194c.066-.093.125-.207.175-.343.05-.139.083-.29.1-.452.022-.203.046-.712.071-1.527l.05-1.91.032-1.927a4.43 4.43 0 0 0 .375 0c-.04.69-.071 1.359-.096 2.006l-.076 2.131c-.027.74-.055 1.212-.083 1.414-.03.203-.068.361-.112.473a1.354 1.354 0 0 1-.474.602c-.125.09-.254.154-.387.194a1.95 1.95 0 0 1-.565.076 4.227 4.227 0 0 1-.999-.129zm4.821.025c.038-.564.072-1.246.1-2.045l.078-2.478c.025-.853.037-1.609.037-2.269l.829.005.928-.005c.268 0 .487.019.655.057a.913.913 0 0 1 .456.269c.136.141.239.314.31.52.071.206.106.423.106.652 0 .408-.088.771-.264 1.087a1.722 1.722 0 0 1-.711.709 2.152 2.152 0 0 1-1.013.234c-.213 0-.449-.03-.707-.09a4.68 4.68 0 0 0-.083-.308c.256.063.5.095.733.095.239 0 .468-.032.685-.097.218-.065.405-.174.558-.325a1.56 1.56 0 0 0 .361-.569c.086-.228.129-.469.129-.721 0-.174-.026-.34-.077-.499a1.109 1.109 0 0 0-.212-.392.848.848 0 0 0-.342-.23c-.137-.051-.367-.077-.69-.077h-.717l-.346-.005-.245-.005c-.036.79-.074 1.918-.112 3.385a181.882 181.882 0 0 0-.058 2.579l.004.523a4.792 4.792 0 0 0-.392 0zm8.295-3.742l1.119.005.728-.005-.072 1.572-.047 1.92a9.768 9.768 0 0 1-1.174.271 5.824 5.824 0 0 1-.888.082c-.424 0-.83-.072-1.217-.214a2.595 2.595 0 0 1-.991-.644 2.62 2.62 0 0 1-.607-1.072 4.65 4.65 0 0 1-.196-1.358c0-.547.085-1.067.256-1.56.171-.492.406-.901.705-1.226.3-.325.645-.56 1.036-.706a3.6 3.6 0 0 1 1.269-.219c.255 0 .515.018.78.055.265.037.576.103.934.199l.033.458a6.166 6.166 0 0 0-1.016-.318 3.954 3.954 0 0 0-.787-.084c-.408 0-.797.076-1.168.229-.37.152-.683.381-.94.687a3.135 3.135 0 0 0-.588 1.129 4.801 4.801 0 0 0-.202 1.383c0 .448.059.864.177 1.249.118.385.295.7.531.945.236.246.523.434.861.565.339.131.711.196 1.116.196l.455-.027a5.945 5.945 0 0 0 .894-.17 8.03 8.03 0 0 0 .41-.142l.102-2.896h-.496l-.399.006-.629.034.012-.288v-.056z"/></g></svg>