<svg xmlns="http://www.w3.org/2000/svg" viewBox="0 0 32 32"><g stroke="#333" stroke-linejoin="round" stroke-miterlimit="10" fill="none"><path d="M5 31h22V9.542L18.792 1H5v22.5zM18 2v8h8"/><path d="M10.003 25.5l.06-1.095.156-4.633c-.658 0-1.231.013-1.719.04l.02-.312 1.988.004 1.139-.004h.604a2.658 2.658 0 0 0-.021.312 19.99 19.99 0 0 0-1.472-.04h-.232l-.16 4.84-.003.202v.686a4.006 4.006 0 0 0-.36 0zm3.41 0c.319-.418 1.05-1.443 2.195-3.076l-1.79-2.92a4.614 4.614 0 0 0 .41 0l.462.796 1.137 1.817 1.552-2.141.118-.176.19-.301.205.004h.202l-1.807 2.52-.274.397c.209.356.46.77.754 1.242l1.131 1.836a4.448 4.448 0 0 0-.405 0 31.702 31.702 0 0 0-.587-1.003c-.212-.35-.583-.939-1.112-1.768l-.811 1.105-.891 1.261-.273.406a4.538 4.538 0 0 0-.406.001zm7.838 0l.06-1.095.156-4.633c-.658 0-1.231.013-1.719.04l.02-.312 1.988.004 1.139-.004h.605l-.02.312a19.99 19.99 0 0 0-1.472-.04h-.232l-.16 4.84a4.537 4.537 0 0 0-.004.202v.686a4.006 4.006 0 0 0-.361 0z"/></g></svg>