<svg xmlns="http://www.w3.org/2000/svg" viewBox="0 0 32 32"><path d="M5.474 28H2.526A.527.527 0 0 1 2 27.474v-4.948c0-.29.236-.526.526-.526h2.948c.29 0 .526.236.526.526v4.948c0 .29-.236.526-.526.526zm8.034 0h-3.017a.491.491 0 0 1-.491-.492v-9.017c0-.271.22-.491.492-.491h3.017c.271 0 .491.22.491.492v9.017c0 .271-.22.491-.492.491zm7.98 0h-2.976a.512.512 0 0 1-.512-.512V12.512c0-.283.229-.512.512-.512h2.976c.283 0 .512.229.512.512v14.976a.512.512 0 0 1-.512.512zm8.011 0h-2.997a.51.51 0 0 1-.502-.516V2.516c0-.285.224-.516.501-.516h2.997a.51.51 0 0 1 .502.516v24.968a.51.51 0 0 1-.501.516zM.5 31.5h31" stroke="#333" stroke-linecap="round" stroke-miterlimit="10" fill="none"/></svg>