<svg xmlns="http://www.w3.org/2000/svg" viewBox="0 0 32 32"><g stroke="#333" stroke-linejoin="round" stroke-miterlimit="10" fill="none"><path d="M5 31h22V9.542L18.792 1H5v22.5zM18 2v8h8"/><path d="M8.5 25.5l1.502-2.888 1.322-2.558.274-.554a6.098 6.098 0 0 0 .484 0l.868 2.418 1.321 3.582a5.283 5.283 0 0 0-.203-.004l-.202.004c-.084-.281-.24-.746-.47-1.396a46.579 46.579 0 0 0-.542-1.47h-2.533L8.911 25.5a5.106 5.106 0 0 0-.411 0zm1.964-3.152h2.295l-.954-2.577-1.341 2.577zm7.465 3.152l-.157-.497-.094-.295a56.177 56.177 0 0 0-.256-.712l-1.66-4.497.202.004.202-.004.261.813 1.78 4.919 2.43-4.699.233-.475.264-.558.211.004.211-.004c-.269.475-.619 1.13-1.052 1.965l-1.173 2.246a44.4 44.4 0 0 0-.895 1.789 8.818 8.818 0 0 0-.251-.004l-.256.005zm4.957 0l.099-1.763.09-2.642.018-.914.005-.681.201.004.202-.004-.083 1.591-.106 3.275-.022 1.134a5.02 5.02 0 0 0-.404 0z"/></g></svg>