<svg xmlns="http://www.w3.org/2000/svg" viewBox="0 0 32 32"><g stroke="#333" stroke-width="2" stroke-linecap="round" stroke-linejoin="round" stroke-miterlimit="10" fill="none"><path d="M17.682 17.682l.707.707m-4.243-4.243l.708.708M4.247 4.247L2.833 2.833m7.778 7.778l.707.707M7.075 7.075l.707.707m13.435 13.436l2.828 2.828a3 3 0 1 1 0 4.243"/><ellipse transform="rotate(-45.001 5.661 5.661)" cx="5.661" cy="5.661" rx="3" ry="2"/><path d="M7.782 7.782l2.122-2.121 2.828 2.829-2.121 2.121-2.121 2.121-2.829-2.828z"/><ellipse transform="rotate(-45.001 12.732 12.732)" cx="12.732" cy="12.732" rx="3" ry="2"/><ellipse transform="rotate(-45.001 19.803 19.804)" cx="19.803" cy="19.803" rx="3" ry="2"/><path d="M14.854 14.854l-2.122 2.121 2.829 2.828 2.121-2.121 2.121-2.121-2.828-2.829z"/></g></svg>