<svg xmlns="http://www.w3.org/2000/svg" viewBox="0 0 32 32"><g stroke="#333" stroke-linecap="round" stroke-linejoin="round" stroke-miterlimit="10" fill="none"><circle cx="25" cy="23.143" r="6"/><path d="M31 23.143C30.458 12.935 21.328 6.269 12.772 3.63c-1.473-.454-3.283-.735-4.716-.176-1.433.558-2.609 1.749-2.955 3.178-.522 2.148.955 3.663 2.707 4.608 2.418 1.304 4.674 2.698 6.658 4.63 1.914 1.864 3.463 4.104 4.326 6.645l.199.631M5.086 6.063c-1.404-.791-3.328-.479-4.586.58 1.343-1.131 2.194-2.499 2.324-4.287.249 1.619 1.84 2.047 3.218 2.262M9.5 9.5a17.889 17.889 0 0 1 7 5"/><circle cx="25" cy="23" r=".5"/><circle cx="22" cy="23" r=".5"/><circle cx="25" cy="20" r=".5"/><circle cx="27" cy="25" r=".5"/><circle cx="28" cy="22" r=".5"/><circle cx="24" cy="26" r=".5"/></g></svg>