<svg xmlns="http://www.w3.org/2000/svg" viewBox="0 0 32 32"><g stroke="#333" stroke-linecap="round" stroke-linejoin="round" stroke-miterlimit="10" fill="none"><path d="M5.972 11.229l22.419-9.143c.941-.384 1.906.581 1.522 1.522L20.77 26.027"/><path d="M10.74 21.26c-3.502-3.502-5.494-7.556-5.442-10.495.006-.345-.336-.58-.671-.484-.601.171-1.125.46-1.546.881-2.489 2.489-.532 8.482 4.372 13.386s10.897 6.861 13.386 4.372c.421-.421.71-.945.881-1.546.096-.335-.139-.677-.484-.671-2.941.051-6.994-1.94-10.496-5.443z"/><ellipse transform="rotate(-45.001 17 18)" cx="17" cy="18" rx="2.5" ry="2.5"/><ellipse transform="rotate(-45.001 22 9)" cx="22" cy="9" rx="1.5" ry="1.5"/><ellipse transform="rotate(-45.001 14 12)" cx="14" cy="12" rx=".5" ry=".5"/></g></svg>