<svg xmlns="http://www.w3.org/2000/svg" viewBox="0 0 32 32"><path d="M31.5 31.5H.5V.5m18.044 13.776c.398 1.048.542 2.222.575 3.37.043 1.5-.088 3.003.003 4.5.07 1.152.288 2.339.908 3.259.911 1.352 2.675 1.873 4.057 1.197M4 26.819c1.039.368 2.224.167 3.122-.528 1.679-1.302 2.069-3.886 2.111-6.182.041-2.296-.08-4.762 1.026-6.691.84-1.465 2.359-2.405 3.907-2.418.193-.002.386.011.578.038M9.913 26.819c1.039.368 2.224.167 3.122-.528 1.679-1.302 2.069-3.886 2.111-6.182.041-2.296-.08-4.762 1.026-6.691.84-1.465 2.359-2.405 3.907-2.418 1.549-.013 3.08.902 3.938 2.354.739 1.248.973 2.793 1.016 4.292.043 1.5-.088 3.003.003 4.5.07 1.152.288 2.339.907 3.259.91 1.352 2.675 1.873 4.057 1.197" stroke="#333" stroke-linecap="round" stroke-linejoin="round" stroke-miterlimit="10" fill="none"/></svg>