<svg xmlns="http://www.w3.org/2000/svg" viewBox="0 0 32 32"><g stroke="#333" stroke-linejoin="round" stroke-miterlimit="10" fill="none"><path d="M5 31h22V9.542L18.792 1H5v22.5zM18 2v8h8"/><path d="M8.5 25.41c.039-.483.073-1.068.101-1.753l.079-2.124c.025-.731.038-1.379.038-1.944l.834.004.935-.004c.271 0 .491.017.66.049.17.033.322.11.459.23.137.121.241.27.312.446.072.176.107.362.107.559 0 .35-.089.66-.266.932a1.626 1.626 0 0 1-.716.608c-.301.134-.641.2-1.021.2-.215 0-.453-.026-.713-.077a3.277 3.277 0 0 0-.084-.264 3.6 3.6 0 0 0 .739.081c.241 0 .471-.028.691-.083.22-.056.407-.148.563-.278.155-.13.277-.292.363-.488a1.5 1.5 0 0 0 .13-.618c0-.148-.026-.291-.078-.428a.903.903 0 0 0-.214-.336.867.867 0 0 0-.344-.197c-.139-.044-.371-.066-.695-.066h-.722l-.348-.004-.247-.005c-.036.677-.075 1.645-.114 2.902a127.518 127.518 0 0 0-.059 2.21l.005.448a4.787 4.787 0 0 0-.197-.004l-.198.004zm4.862-.174l-.025-.384c.529.256 1.012.384 1.448.384.249 0 .474-.041.675-.124a1.01 1.01 0 0 0 .469-.368.972.972 0 0 0 .114-.858 1.055 1.055 0 0 0-.17-.29 6.24 6.24 0 0 0-.343-.381 12.142 12.142 0 0 0-.803-.723l-.332-.282a5.893 5.893 0 0 1-.332-.32 3.232 3.232 0 0 1-.264-.309 1.628 1.628 0 0 1-.158-.256 1.264 1.264 0 0 1-.081-.25 1.247 1.247 0 0 1 .154-.925 1.27 1.27 0 0 1 .55-.474c.242-.117.551-.175.926-.175.26 0 .591.038.993.115l.038.358a4.687 4.687 0 0 0-.643-.166 3.01 3.01 0 0 0-.487-.043c-.277 0-.505.046-.684.139-.18.092-.318.216-.416.371a.9.9 0 0 0-.104.756.982.982 0 0 0 .137.264c.064.09.149.188.254.295l.376.365.579.524.51.455.283.288c.089.102.163.204.219.305a1.284 1.284 0 0 1 .164.655c0 .267-.067.502-.199.704a1.228 1.228 0 0 1-.587.459 2.317 2.317 0 0 1-.87.156 3.74 3.74 0 0 1-.604-.049 5.698 5.698 0 0 1-.787-.216zm4.957.174l.121-2.026.112-3.322.005-.473.927.004 1.149-.004c.539 0 .972.043 1.298.128.326.085.617.261.871.526.254.266.434.568.54.904.106.337.159.7.159 1.09 0 .463-.081.911-.245 1.341a2.781 2.781 0 0 1-.725 1.086c-.32.293-.682.49-1.086.593a5.39 5.39 0 0 1-1.322.153l-.889-.004-.915.004zm.36-.268l1.17.013c.282 0 .572-.014.87-.043.298-.028.564-.08.798-.153a1.93 1.93 0 0 0 .69-.406 2.7 2.7 0 0 0 .873-1.461c.07-.294.105-.592.105-.894 0-.29-.034-.569-.101-.836a2.006 2.006 0 0 0-.218-.542 2.03 2.03 0 0 0-.379-.485 1.6 1.6 0 0 0-.451-.299 2.146 2.146 0 0 0-.587-.143 6.278 6.278 0 0 0-.746-.047h-.997l-.809.004-.218 5.292z"/></g></svg>