<svg xmlns="http://www.w3.org/2000/svg" viewBox="0 0 32 32"><path d="M2 26c0-7.732 6.268-14 14-14s14 6.268 14 14H2zm14-16v2M1 29h30M7.5 21.5c0-2.764 2.236-5 5-5m-.5-14c-.882.635-1.228 1.861-.846 2.843l.501 1.051s.16.798-.081 1.107M15 2.5c-.882.635-1.228 1.861-.846 2.843l.501 1.051s.16.798-.081 1.107M18 2.5c-.882.635-1.228 1.861-.846 2.843l.501 1.051s.16.798-.081 1.107M21 2.5c-.882.635-1.228 1.861-.846 2.843l.501 1.051s.16.798-.081 1.107" stroke="#333" stroke-linejoin="round" stroke-miterlimit="10" fill="none"/></svg>