<svg xmlns="http://www.w3.org/2000/svg" viewBox="0 0 32 32"><g stroke="#333" stroke-linecap="round" stroke-linejoin="round" stroke-miterlimit="10" fill="none"><path d="M26 31H6a3 3 0 0 1-3-3v-2h26v2a3 3 0 0 1-3 3zm3-8H3c-1.1 0-2-.9-2-2s.9-2 2-2h26c1.1 0 2 .9 2 2s-.9 2-2 2zM3 11c0-4.418 5.82-9 13-9s13 4.582 13 9H3z"/><circle cx="11" cy="7" r=".5"/><circle cx="17" cy="5" r=".5"/><circle cx="22" cy="8" r=".5"/><path d="M1 14l3.748 2s1.874-2 3.749-2l3.749 2 3.747-2 3.748 2s1.874-2 3.749-2l3.755 2L31 14"/></g></svg>