<svg xmlns="http://www.w3.org/2000/svg" viewBox="0 0 32 32"><g stroke="#333" stroke-linejoin="round" stroke-miterlimit="10" fill="none"><path d="M5 31h22V9.542L18.792 1H5v22.5zM18 2v8h8"/><path d="M8.5 25.5l.067-1.064.121-3.31.017-.941.003-.685.832.004.953-.004c.397 0 .684.055.866.165.181.11.324.267.429.471.104.204.156.437.156.701 0 .328-.078.629-.236.903a1.582 1.582 0 0 1-.645.627 1.988 1.988 0 0 1-.941.215l-.201-.009 2 2.927a5.061 5.061 0 0 0-.432 0l-.548-.87-1.592-2.37c.248.047.463.07.644.07.221 0 .435-.032.641-.095.206-.063.383-.158.532-.284.148-.126.262-.284.343-.473.081-.19.122-.396.122-.619 0-.15-.019-.289-.058-.419a.9.9 0 0 0-.189-.341.789.789 0 0 0-.266-.209 1.232 1.232 0 0 0-.35-.09 3.408 3.408 0 0 0-.451-.029l-.687.004-.578-.009a199.15 199.15 0 0 0-.158 5.732l-.197-.004-.197.006zm4.434 0l1.4-2.888 1.233-2.558.255-.554a5.325 5.325 0 0 0 .452 0l.81 2.418 1.232 3.582a4.56 4.56 0 0 0-.189-.004l-.189.004a35.482 35.482 0 0 0-.438-1.396 54.43 54.43 0 0 0-.505-1.47h-2.362L13.318 25.5a4.462 4.462 0 0 0-.384 0zm1.831-3.152h2.14l-.89-2.577-1.25 2.577zm5.292 3.152l.067-1.064.121-3.31.017-.941.004-.686.832.004.953-.004c.397 0 .684.055.866.165.181.11.324.267.429.471.104.204.156.437.156.701 0 .328-.078.629-.236.903a1.582 1.582 0 0 1-.645.627 1.988 1.988 0 0 1-.941.215l-.201-.009 2 2.927a5.061 5.061 0 0 0-.432 0l-.548-.87-1.592-2.369c.248.047.463.07.645.07.221 0 .435-.032.641-.095.206-.063.384-.158.532-.284.148-.126.262-.284.343-.473.081-.19.122-.396.122-.619 0-.15-.019-.289-.059-.419a.9.9 0 0 0-.189-.341.798.798 0 0 0-.266-.209 1.232 1.232 0 0 0-.35-.09 3.397 3.397 0 0 0-.451-.029l-.687.004-.578-.009a199.15 199.15 0 0 0-.158 5.732 4.59 4.59 0 0 0-.197-.004l-.198.006z"/></g></svg>