<svg xmlns="http://www.w3.org/2000/svg" viewBox="0 0 32 32"><path d="M19 9.576V5h-6v4.576c0 .28-.059.557-.172.812l-3.412 7.676a3.997 3.997 0 0 0-.331 1.957L10 31h12l.915-10.979a3.997 3.997 0 0 0-.331-1.957l-3.412-7.676A2.013 2.013 0 0 1 19 9.576zM19 5h-6a1 1 0 0 1-1-1V2a1 1 0 0 1 1-1h6a1 1 0 0 1 1 1v2a1 1 0 0 1-1 1zm-.558 21.5h-4.884l-.667-4.587a2 2 0 0 1 1.979-2.288h2.26a2 2 0 0 1 1.979 2.288l-.667 4.587z" stroke="#333" stroke-linecap="round" stroke-linejoin="round" stroke-miterlimit="10" fill="none"/></svg>