<svg xmlns="http://www.w3.org/2000/svg" viewBox="0 0 32 32"><g stroke="#333" stroke-linejoin="round" stroke-miterlimit="10" fill="none"><path d="M5 31h22V9.542L18.792 1H5v22.5zM18 2v8h8"/><path d="M8.5 25.5l.079-.678.218-2.689.116-1.633.239.004.244-.004.165.494.297.821.987 2.692.27.711 1.978-4.278.184-.44.244.004.244-.004-.036 2.121-.008 1.066c0 .764.006 1.369.021 1.813l-.176-.004-.176.004.063-3.222.011-1.029v-.483l-.636 1.366-1.522 3.368a5.836 5.836 0 0 0-.4 0l-1.635-4.416-.116-.293-.041.428-.053.725-.2 2.696-.019.346-.011.515-.167-.004-.164.003zm7.198 0c.035-.415.065-.917.09-1.506l.07-1.824c.023-.628.034-1.184.034-1.67l.747.004.836-.004c.242 0 .439.014.591.042a.875.875 0 0 1 .411.198.99.99 0 0 1 .279.383c.064.152.096.311.096.48 0 .3-.08.567-.238.8a1.44 1.44 0 0 1-.641.522 2.3 2.3 0 0 1-.913.172c-.192 0-.405-.022-.637-.066a2.993 2.993 0 0 0-.075-.227c.231.046.451.07.661.07.216 0 .422-.024.618-.071.197-.048.365-.128.503-.239a1.14 1.14 0 0 0 .325-.419c.078-.168.116-.345.116-.531 0-.128-.023-.25-.069-.368a.777.777 0 0 0-.191-.288.805.805 0 0 0-.308-.17c-.124-.038-.331-.057-.622-.057h-.646l-.312-.004-.221-.004a105.65 105.65 0 0 0-.101 2.493c-.035 1.08-.052 1.713-.052 1.899l.004.385-.176-.004-.179.004zm6.55 0l.043-.634.053-1.282-1.098.004-1.065.011.015-.293c.275-.352.824-1.076 1.646-2.171.16-.213.312-.424.457-.635l.233.004.229-.004c-.051.841-.096 1.799-.136 2.875l.695-.004.18-.015-.008.202v.04l-.882-.015-.024.775-.016.811.007.33-.163-.004-.166.005zm.105-2.125l.022-.451.063-1.812.004-.4-2.005 2.663h1.916z"/></g></svg>