<svg xmlns="http://www.w3.org/2000/svg" viewBox="0 0 32 32"><g stroke="#333" stroke-width="2" stroke-linejoin="round" stroke-miterlimit="10" fill="none"><path d="M30 28H2L1 10h30zM3 10V4h9.5L14 6h15v4"/><path clip-rule="evenodd" d="M23 20.693c0-1.476-.938-2.725-2.231-3.151-.2-1.99-1.829-3.542-3.811-3.542-1.647 0-3.046 1.074-3.588 2.578a1.932 1.932 0 0 0-1.017-.297c-1.099 0-1.99.919-1.99 2.053l.017.171A2.982 2.982 0 0 0 9 21.035C9 22.672 10.287 24 11.874 24h8.151C21.687 23.878 23 22.439 23 20.693z"/></g></svg>