<svg xmlns="http://www.w3.org/2000/svg" viewBox="0 0 32 32"><path d="M16 31c3.235 0 7.14-.716 9.31-3.392 2.798-3.45 1.655-8.495-.078-12.188-.642-1.368-1.533-2.578-2.48-3.739-.931-1.141-1.991-2.286-2.337-3.774-.438-1.883 1.03-2.736 1.823-4.176.53-.963.806-1.964.117-2.49-.788-.601-2.057.019-3.284.779C17.845 2.781 16.616 4.045 16 4c-.616.045-1.845-1.219-3.071-1.98-1.226-.76-2.496-1.381-3.285-.778-.689.526-.413 1.528.117 2.49.793 1.44 2.262 2.293 1.823 4.176-.346 1.487-1.406 2.633-2.337 3.774-.948 1.161-1.839 2.371-2.48 3.739-1.733 3.694-2.875 8.739-.078 12.188C8.86 30.284 12.765 31 16 31zm-3.25-6.041c1.196 0 3.707.216 4.779-.415A3.001 3.001 0 0 0 19 21.979c0-1.429-1.018-2.563-2.39-2.868-.923-.205-1.856-.208-2.596-.857A2.986 2.986 0 0 1 13 16.021c0-1.234.838-2.369 2.007-2.802.983-.364 3.209-.178 4.243-.178M16 10.781v2m0 13v2" stroke="#333" stroke-width="2" stroke-linejoin="round" stroke-miterlimit="10" fill="none"/></svg>