<svg xmlns="http://www.w3.org/2000/svg" viewBox="0 0 32 32"><g stroke="#333" stroke-linecap="round" stroke-linejoin="round" stroke-miterlimit="10" fill="none"><path d="M19 30H3a2 2 0 0 1-2-2V4a2 2 0 0 1 2-2h16a2 2 0 0 1 2 2v24a2 2 0 0 1-2 2zm-2.5-19.5h-11a1 1 0 0 1-1-1v-3a1 1 0 0 1 1-1h11a1 1 0 0 1 1 1v3a1 1 0 0 1-1 1z"/><circle cx="6" cy="15" r="1.5"/><circle cx="16" cy="15" r="1.5"/><circle cx="11" cy="15" r="1.5"/><circle cx="6" cy="20" r="1.5"/><circle cx="16" cy="20" r="1.5"/><circle cx="11" cy="20" r="1.5"/><circle cx="6" cy="24.5" r="1.5"/><circle cx="16" cy="24.5" r="1.5"/><circle cx="11" cy="24.5" r="1.5"/><path d="M21 10h9a1 1 0 0 1 1 1v10a1 1 0 0 1-1 1h-9m10-8.5h-9m9 2h-9m5.5 4h1m-4 0h1m-4 0h1"/></g></svg>