<svg xmlns="http://www.w3.org/2000/svg" viewBox="0 0 32 32"><g stroke="#333" stroke-linecap="round" stroke-linejoin="round" stroke-miterlimit="10" fill="none"><path d="M16.946 16.096L2.149 10.062c-.672-.274-1.361.415-1.087 1.087l6.531 16.014m10.546-2.183c-.32.381-.665.758-1.033 1.126-3.503 3.503-7.783 4.901-9.562 3.123a2.5 2.5 0 0 1-.629-1.104c-.068-.24.099-.484.346-.479 2.1.037 4.995-1.385 7.497-3.887 1.096-1.096 1.985-2.267 2.634-3.415"/><ellipse transform="rotate(-45.001 11 21)" cx="11" cy="21" rx="1.5" ry="1.5"/><ellipse transform="rotate(-45.001 8 16)" cx="8" cy="16" rx=".5" ry=".5"/><path d="M30 9.467L27 30h-8L16 9.467M15 9h16m-6-7l-2 2.525V9"/></g></svg>