<svg xmlns="http://www.w3.org/2000/svg" viewBox="0 0 32 32"><g stroke="#333" stroke-linejoin="round" stroke-miterlimit="10" fill="none"><path d="M5 31h22V9.542L18.792 1H5v22.5zM18 2v8h8"/><path d="M8.5 25.41a80.2 80.2 0 0 0 .164-2.983c.05-1.218.074-2.164.074-2.838l1.976.004 1.729-.004a2.698 2.698 0 0 0-.019.303l-.379-.028a6.673 6.673 0 0 0-.512-.016l-.715-.002-1.706.004-.096 2.448c.477.009.915.013 1.313.013.474 0 1.059-.004 1.754-.013l-.023.281-1.788-.013-1.271.013-.095 2.563 1.359.004c.534 0 .905-.002 1.111-.007l.846-.032a2.209 2.209 0 0 0-.024.303l-1.663-.004-2.035.004zm6.056 0c.044-.483.082-1.068.114-1.753l.09-2.124c.028-.731.043-1.379.043-1.944l.943.004 1.057-.004c.306 0 .555.017.747.049a1.178 1.178 0 0 1 .872.676c.081.176.121.362.121.559 0 .35-.1.66-.301.932a1.8 1.8 0 0 1-.81.608c-.34.134-.725.2-1.154.2-.243 0-.512-.026-.806-.077a3.208 3.208 0 0 0-.095-.264c.291.054.57.081.835.081.273 0 .533-.028.781-.083a1.67 1.67 0 0 0 .636-.278c.176-.13.313-.292.411-.488.098-.195.147-.401.147-.618 0-.148-.029-.291-.088-.428a.9.9 0 0 0-.242-.336 1.02 1.02 0 0 0-.389-.197c-.157-.044-.419-.066-.786-.066h-.817l-.394-.004-.279-.004c-.041.677-.084 1.645-.128 2.902a110.721 110.721 0 0 0-.066 2.21l.005.448a6.096 6.096 0 0 0-.223-.004l-.224.003zm5.498-.174l-.029-.384c.598.256 1.144.384 1.638.384.281 0 .536-.041.764-.124a1.13 1.13 0 0 0 .53-.368.897.897 0 0 0 .188-.56.77.77 0 0 0-.059-.298 1.036 1.036 0 0 0-.193-.29 6.596 6.596 0 0 0-.388-.381 13.556 13.556 0 0 0-.908-.723l-.376-.282a6.731 6.731 0 0 1-.375-.32 3.485 3.485 0 0 1-.299-.309 1.563 1.563 0 0 1-.178-.256 1.155 1.155 0 0 1-.126-.531c0-.23.069-.445.209-.644.139-.199.345-.357.621-.474.274-.117.624-.175 1.047-.175.294 0 .668.038 1.123.115l.043.358a5.907 5.907 0 0 0-.727-.166 3.842 3.842 0 0 0-.551-.043c-.313 0-.571.046-.773.139-.203.092-.36.216-.471.371a.825.825 0 0 0-.165.489c0 .091.015.18.047.267a.937.937 0 0 0 .155.264c.073.09.169.188.288.295l.425.365.655.524.577.455c.113.09.219.185.32.288.101.102.184.204.247.305a1.194 1.194 0 0 1 .185.655c0 .267-.076.502-.225.704-.151.202-.372.355-.663.459-.293.104-.62.156-.984.156-.234 0-.461-.017-.683-.049a7.124 7.124 0 0 1-.889-.216z"/></g></svg>