<svg xmlns="http://www.w3.org/2000/svg" viewBox="0 0 32 32"><path d="M27.117 8.151a6.581 6.581 0 0 0 1.243-1.563c.369-.645.633-1.37.64-2.117.007-.747-.267-1.517-.825-1.999-.44-.381-1.061-.577-1.632-.413-.529.151-1.001.687-1.437 1.024-.996.768-2.038 1.485-3.197 1.984a13.645 13.645 0 0 1-4.849 1.098h-2.12a13.629 13.629 0 0 1-4.849-1.098C8.932 4.566 7.89 3.85 6.894 3.082c-.436-.337-.908-.873-1.437-1.024-.572-.163-1.192.033-1.632.413-.558.483-.832 1.253-.825 2 .007.747.27 1.472.639 2.118.333.581.755 1.11 1.243 1.562m22.235 0C24.416 10.653 20.856 12 17.235 12l-.175-.001h-2.12l-.175.001c-3.621 0-7.181-1.347-9.883-3.849" stroke="#333" stroke-width="2" stroke-linecap="round" stroke-linejoin="round" stroke-miterlimit="10" fill="none"/><path stroke="#333" stroke-linecap="round" stroke-linejoin="round" stroke-miterlimit="10" d="M3.5 2.256C2.775 1.936 2.243 1.251 2.138.5c.072.438-.073.905-.385 1.236A1.662 1.662 0 0 1 .5 2.239c.941-.081 1.906.448 2.3 1.261m25.7-1.244c.725-.32 1.256-1.005 1.362-1.756-.072.438.073.905.385 1.236a1.66 1.66 0 0 0 1.253.503c-.941-.081-1.906.448-2.3 1.261" fill="none"/><path stroke="#333" stroke-width="2" stroke-linecap="round" stroke-linejoin="round" stroke-miterlimit="10" d="M14 23h4v8h-4zm2-.062V15" fill="none"/><path fill="#333" d="M12 5.813V5a1 1 0 0 1 2 0v.813a1 1 0 0 1-2 0zm8 6.166V15a1 1 0 0 1-1 1h-6a1 1 0 0 1-1-1v-3.062a1 1 0 0 1 2 0V15l-1-1h6l-1 1v-3.021a1 1 0 0 1 2 0zM20 5v.844a1 1 0 0 1-2 0V5a1 1 0 0 1 2 0z"/></svg>