<svg xmlns="http://www.w3.org/2000/svg" viewBox="0 0 32 32"><g stroke="#333" stroke-linejoin="round" stroke-miterlimit="10" fill="none"><path d="M5 31h22V9.542L18.792 1H5v22.5zM18 2v8h8"/><path d="M7.5 24.5c.049-1.052.085-2.034.11-2.946.024-.913.036-1.596.036-2.05a3.913 3.913 0 0 0 .274 0l-.084 2.339h2.895l.059-1.837.007-.501a3.911 3.911 0 0 0 .274 0c-.08 1.513-.134 3.178-.165 4.996a3.583 3.583 0 0 0-.275 0c.051-.849.082-1.661.093-2.434H7.83l-.049 1.797-.007.636a3.813 3.813 0 0 0-.274 0zm5.943 0l.047-.912.122-3.861c-.513 0-.96.011-1.339.033l.015-.26 1.548.004.888-.004h.471a2.306 2.306 0 0 0-.015.26 14.95 14.95 0 0 0-1.146-.033h-.181l-.125 4.033a4.707 4.707 0 0 0-.003.168v.572a3.693 3.693 0 0 0-.282 0zm2.723 0l.066-.677.18-2.687.097-1.632a7.302 7.302 0 0 0 .401 0l.137.494.246.82.821 2.69.224.711 1.644-4.275.152-.439a7.171 7.171 0 0 0 .404 0l-.03 2.119-.007 1.065c0 .764.006 1.368.018 1.812a4.047 4.047 0 0 0-.294 0l.053-3.219.009-1.028v-.484l-.529 1.365-1.26 3.365a4.17 4.17 0 0 0-.332 0l-1.358-4.413-.097-.292-.034.428-.044.724-.167 2.693a19.585 19.585 0 0 0-.024.86 3.82 3.82 0 0 0-.276 0zm5.976 0l.065-1.16.08-2.625.019-1.211a3.492 3.492 0 0 0 .274 0l-.109 2.855-.058 1.91.638.004.943-.007.504-.026a2.87 2.87 0 0 0-.013.26l-1.112-.003-1.231.003z"/></g></svg>