<svg xmlns="http://www.w3.org/2000/svg" viewBox="0 0 32 32"><g stroke="#333" stroke-linejoin="round" stroke-miterlimit="10" fill="none"><path d="M5 31h22V9.542L18.792 1H5v22.5zM18 2v8h8"/><path d="M8.5 25.5c.037-.498.07-1.101.097-1.807l.076-2.189c.024-.753.036-1.421.036-2.004l.806.004.903-.004c.261 0 .473.017.637.051a.912.912 0 0 1 .443.237 1.2 1.2 0 0 1 .301.459c.069.182.103.374.103.576 0 .36-.086.681-.257.96-.171.28-.402.488-.692.626-.29.138-.618.207-.985.207-.207 0-.437-.026-.688-.079a3.184 3.184 0 0 0-.08-.272c.249.056.487.084.713.084.233 0 .455-.029.667-.086.212-.058.394-.153.543-.287.15-.134.267-.302.351-.503.084-.202.126-.414.126-.637 0-.153-.025-.3-.075-.441a.948.948 0 0 0-.206-.346.835.835 0 0 0-.333-.203c-.134-.045-.357-.068-.671-.068h-.697l-.337-.004-.239-.004a147.58 147.58 0 0 0-.109 2.991 149.24 149.24 0 0 0-.057 2.279l.004.46a4.438 4.438 0 0 0-.38 0zm4.989 0l.116-2.088.108-3.424.004-.488.894.004 1.11-.004c.521 0 .938.044 1.253.132.315.088.595.269.841.543a2.4 2.4 0 0 1 .522.932c.102.347.154.721.154 1.123 0 .477-.079.938-.237 1.382a2.893 2.893 0 0 1-.7 1.119 2.379 2.379 0 0 1-1.048.611c-.39.105-.815.158-1.277.158l-.858-.004-.882.004zm.347-.277c.477.009.854.013 1.129.013.272 0 .552-.015.84-.044a3.58 3.58 0 0 0 .772-.158c.227-.076.448-.216.666-.418a2.76 2.76 0 0 0 .534-.677c.139-.25.242-.525.31-.829.068-.304.101-.611.101-.921 0-.299-.032-.587-.097-.863a2.137 2.137 0 0 0-.21-.558 2.045 2.045 0 0 0-.366-.499 1.526 1.526 0 0 0-.435-.308 2.01 2.01 0 0 0-.567-.147 5.472 5.472 0 0 0-.72-.048h-.963l-.781.004-.213 5.453zm6.463.277l.072-1.53.084-2.945.016-.87.004-.655 1.616.004L23.5 19.5a3.358 3.358 0 0 0-.016.312 8.94 8.94 0 0 0-.783-.039 77.89 77.89 0 0 0-.791-.005h-1.117L20.72 22.3l.862.013c.734 0 1.279-.004 1.635-.013a3.03 3.03 0 0 0-.02.303l-.72-.009a33.477 33.477 0 0 0-.672-.009c-.347 0-.714.006-1.1.018-.033 1.257-.05 2.222-.05 2.897a4.017 4.017 0 0 0-.356 0z"/></g></svg>