<svg xmlns="http://www.w3.org/2000/svg" viewBox="0 0 32 32"><g stroke="#333" stroke-linejoin="round" stroke-miterlimit="10" fill="none"><path d="M5 31h22V9.542L18.792 1H5v22.5zM18 2v8h8"/><path d="M8.5 25.41c.034-.483.063-1.068.087-1.753l.069-2.124c.022-.731.033-1.379.033-1.944l.723.004.811-.004c.235 0 .426.017.572.049.147.033.279.11.398.23.119.121.209.27.27.446.062.176.093.362.093.559 0 .35-.077.66-.231.932a1.484 1.484 0 0 1-.621.608 1.91 1.91 0 0 1-.885.2c-.186 0-.392-.026-.618-.077a3.879 3.879 0 0 0-.073-.264c.223.054.437.081.64.081.209 0 .409-.028.599-.083a1.16 1.16 0 0 0 .488-.278c.135-.13.24-.292.315-.488.075-.195.113-.401.113-.618 0-.148-.023-.291-.068-.428a.927.927 0 0 0-.186-.336.738.738 0 0 0-.298-.197c-.12-.044-.321-.066-.602-.066h-.625l-.302-.004-.214-.005c-.031.677-.064 1.645-.098 2.902a143.213 143.213 0 0 0-.051 2.21l.004.448a3.578 3.578 0 0 0-.171-.004l-.172.004zm4.479 0l.084-1.68.101-3.454.011-.687.219.004.223-.004.302.559c.08.142.246.425.501.849l1.863 3.156c.189.321.382.64.577.955l.157-4.857.01-.661a3.196 3.196 0 0 0 .302 0l-.069 1.339-.117 3.642-.015.84a6.134 6.134 0 0 0-.437 0l-.665-1.16-2.304-3.889-.268-.431-.019.448-.131 3.991-.018 1.041a3.247 3.247 0 0 0-.153-.004l-.154.003zm8.908-3.206l.978.004.635-.004-.063 1.348-.04 1.646c-.38.108-.722.186-1.026.232a5.207 5.207 0 0 1-.775.071c-.371 0-.725-.061-1.062-.183a2.265 2.265 0 0 1-.866-.552 2.23 2.23 0 0 1-.53-.919 3.902 3.902 0 0 1-.17-1.164c0-.469.074-.914.224-1.337.149-.422.354-.772.615-1.051.262-.279.564-.48.905-.606a3.2 3.2 0 0 1 1.109-.188c.222 0 .45.016.681.047.232.031.503.088.816.171l.029.392a5.487 5.487 0 0 0-.887-.273 3.608 3.608 0 0 0-.688-.073c-.356 0-.696.065-1.02.196a2.115 2.115 0 0 0-.822.588 2.677 2.677 0 0 0-.513.968 4.013 4.013 0 0 0-.177 1.186c0 .384.052.74.155 1.07.103.33.258.6.464.81.206.21.457.372.753.484.295.112.62.168.974.168l.396-.023.429-.064a3.66 3.66 0 0 0 .709-.203l.09-2.482h-.434l-.349.005-.549.029.01-.247v-.046z"/></g></svg>