<svg xmlns="http://www.w3.org/2000/svg" viewBox="0 0 32 32"><path fill="#333" d="M7.52 4.754l6.845 12.166c.163.29.396.534.677.711l11.861 7.475c-2.701 3.049-6.631 4.83-10.795 4.83-7.88 0-14.292-6.279-14.292-13.997 0-4.397 2.152-8.558 5.704-11.185m.514-2.635a.483.483 0 0 0-.247.067C3.015 4.976-.184 10.09-.184 15.939c0 8.835 7.294 15.997 16.292 15.997 5.565 0 10.475-2.742 13.413-6.923a.507.507 0 0 0-.149-.714l-13.264-8.36-7.63-13.56a.51.51 0 0 0-.444-.26z"/><path stroke="#333" stroke-width="2" stroke-linejoin="round" stroke-miterlimit="10" d="M25.09 4.352C22.601 2.235 19.459.968 16.04.968c-1.883 0-3.21.221-4.864.919l5.883 11.106 8.031-8.641zm2.309 2.661l-8.325 7.773 10.68 6.257c.805-1.701 1.254-3.137 1.246-5.113-.013-3.411-1.37-6.524-3.601-8.917z" fill="none"/></svg>