<svg xmlns="http://www.w3.org/2000/svg" viewBox="0 0 32 32"><g stroke="#333" stroke-linejoin="round" stroke-miterlimit="10" fill="none"><path d="M5 31h22V9.542L18.792 1H5v22.5zM18 2v8h8"/><path d="M5 31h22V9.542L18.792 1H5v22.5zM18 2v8h8"/><path d="M8.5 25.5c.056-.794.105-1.817.15-3.073.045-1.254.067-2.229.067-2.923l1.804.004 1.579-.004a3.069 3.069 0 0 0-.017.312l-.346-.029a5.418 5.418 0 0 0-.467-.017l-.653-.002-1.558.004-.087 2.521c.436.009.836.013 1.199.013.433 0 .967-.004 1.601-.013a3.033 3.033 0 0 0-.021.29l-1.633-.013-1.161.013-.087 2.64 1.241.004a24.027 24.027 0 0 0 1.787-.04 2.678 2.678 0 0 0-.022.312l-1.519-.004L8.5 25.5zm4.786 0c.345-.418 1.136-1.443 2.375-3.076l-1.937-2.92a5.384 5.384 0 0 0 .443 0l.5.796 1.23 1.817 1.679-2.141.128-.176.206-.301.222.004h.218l-1.955 2.52-.295.399c.226.356.498.77.816 1.242l1.223 1.836a5.187 5.187 0 0 0-.437 0 30.853 30.853 0 0 0-.635-1.003c-.23-.35-.631-.939-1.203-1.768l-.877 1.105-.964 1.261a40.82 40.82 0 0 0-.295.406 5.284 5.284 0 0 0-.442-.001zm6.613 0c.056-.794.105-1.817.15-3.073.045-1.254.067-2.229.067-2.923l1.804.004 1.579-.004a3.069 3.069 0 0 0-.017.312l-.346-.029a5.418 5.418 0 0 0-.467-.017l-.653-.002-1.558.004-.087 2.521c.436.009.836.013 1.199.013.433 0 .967-.004 1.601-.013a2.739 2.739 0 0 0-.021.29l-1.633-.013-1.161.013-.087 2.64 1.241.004a23.908 23.908 0 0 0 1.787-.04 2.678 2.678 0 0 0-.022.312l-1.519-.004-1.857.005z"/></g></svg>