<svg xmlns="http://www.w3.org/2000/svg" viewBox="0 0 32 32"><g stroke="#333" stroke-linecap="round" stroke-linejoin="round" stroke-miterlimit="10" fill="none"><path d="M2 1v30m27-8H2V3h27a1 1 0 0 1 1 1v18a1 1 0 0 1-1 1z"/><circle cx="16" cy="18" r=".5"/><circle cx="16" cy="8" r=".5"/><circle cx="11" cy="13" r=".5"/><circle cx="21" cy="13" r=".5"/><ellipse transform="rotate(-45.001 12.464 16.536)" cx="12.464" cy="16.536" rx=".5" ry=".5"/><ellipse transform="rotate(-45.001 19.535 9.465)" cx="19.536" cy="9.464" rx=".5" ry=".5"/><ellipse transform="rotate(-45.001 12.464 9.465)" cx="12.464" cy="9.464" rx=".5" ry=".5"/><ellipse transform="rotate(-45.001 19.536 16.536)" cx="19.536" cy="16.536" rx=".5" ry=".5"/></g></svg>