<svg xmlns="http://www.w3.org/2000/svg" viewBox="0 0 32 32"><g stroke="#333" stroke-linejoin="round" stroke-miterlimit="10" fill="none"><path d="M5 31h22V9.542L18.792 1H5v22.5zM18 2v8h8"/><path d="M9.902 25.496l-.996-3.598-.254-.904A19.339 19.339 0 0 0 8.5 20.5l.147.004.15-.004.155.655 1.107 4.058.149-.344 1.058-2.59a51.574 51.574 0 0 0-.278-1.013l-.222-.766.123.004.126-.004c.113.493.24.982.378 1.465l.52-1.465.14.004.137-.004-.375.937-.322.842.045.188.675 2.434.102.335.182-.444.203-.531 1.274-3.336.152-.425.134.004.137-.004c-.111.261-.332.816-.662 1.666l-.767 1.967a48.93 48.93 0 0 0-.513 1.366 2.605 2.605 0 0 0-.155-.004h-.155l-.332-1.238-.454-1.644-.078.183-.143.351-.953 2.348a2.385 2.385 0 0 0-.143-.004l-.14.005zm4.898 0l1.001-2.405.882-2.13.182-.461a3.883 3.883 0 0 0 .322 0l.579 2.013.88 2.983a2.34 2.34 0 0 0-.269 0c-.056-.234-.16-.622-.313-1.162a44.274 44.274 0 0 0-.361-1.224h-1.688l-.939 2.386a2.283 2.283 0 0 0-.137-.004l-.139.004zm1.308-2.624h1.53l-.637-2.147-.893 2.147zm4.975 2.624l-.105-.414a7.947 7.947 0 0 0-.063-.245 52.208 52.208 0 0 0-.171-.593L19.639 20.5l.134.004.135-.004.173.677 1.187 4.096 1.618-3.913.155-.395.176-.465.14.004.141-.004c-.179.395-.413.941-.701 1.636l-.782 1.87a41.87 41.87 0 0 0-.596 1.49 3.931 3.931 0 0 0-.167-.004l-.169.004z"/></g></svg>