<svg xmlns="http://www.w3.org/2000/svg" viewBox="0 0 32 32"><g stroke="#333" stroke-linejoin="round" stroke-miterlimit="10" fill="none"><path d="M5 31h22V9.542L18.792 1H5v22.5zM18 2v8h8"/><path d="M11.5 25.5l1.637-3.369 1.442-2.985.299-.646a7.108 7.108 0 0 0 .528 0l.947 2.821 1.441 4.179a4.427 4.427 0 0 0-.442 0 39.787 39.787 0 0 0-.513-1.629 56.964 56.964 0 0 0-.591-1.715h-2.763L11.948 25.5a6.169 6.169 0 0 0-.448 0zm2.141-3.677h2.503l-1.04-3.008-1.463 3.008zM19.83 25.5l.107-2.056.098-3.083.02-1.067.005-.794a4.427 4.427 0 0 0 .439 0l-.09 1.857-.115 3.82-.023 1.323a6.106 6.106 0 0 0-.441 0z"/></g></svg>