<svg xmlns="http://www.w3.org/2000/svg" viewBox="0 0 32 32"><g stroke="#333" stroke-linejoin="round" stroke-miterlimit="10" fill="none"><path d="M5 31h22V9.542L18.792 1H5v22.5zM18 2v8h8"/><path d="M8.5 25.41l.08-.789.22-3.13.118-1.902.241.004.246-.004.167.576.3.955.997 3.134.273.827L13.14 20.1l.186-.512.246.004.246-.004-.036 2.469-.009 1.241c0 .89.007 1.593.022 2.111a3.862 3.862 0 0 0-.178-.004l-.178.004.063-3.75c.008-.452.011-.851.011-1.198v-.563l-.643 1.59-1.536 3.921a4.169 4.169 0 0 0-.404 0l-1.65-5.14-.117-.341-.042.499-.054.844-.203 3.138-.019.403-.011.599a3.648 3.648 0 0 0-.169-.004l-.165.003zm7.271 0c.035-.483.065-1.068.091-1.753l.071-2.124c.023-.731.034-1.379.034-1.944l.755.004.845-.004c.244 0 .443.017.597.049a.845.845 0 0 1 .415.23c.124.121.218.269.282.446.064.176.097.362.097.559 0 .35-.08.66-.241.932-.16.271-.376.474-.648.608s-.578.2-.922.2c-.194 0-.409-.026-.644-.077a3.339 3.339 0 0 0-.076-.264c.233.054.455.081.667.081.218 0 .426-.028.624-.083a1.227 1.227 0 0 0 .837-.766c.079-.196.117-.402.117-.618 0-.149-.024-.291-.07-.428a.928.928 0 0 0-.193-.336.787.787 0 0 0-.312-.197c-.125-.044-.334-.066-.628-.066h-.652l-.315-.004-.223-.004c-.033.677-.067 1.644-.102 2.902s-.053 1.995-.053 2.211l.004.448a3.862 3.862 0 0 0-.178-.004l-.179.002zm4.51-.132a3.337 3.337 0 0 0-.034-.35c.27.125.512.209.726.254.214.044.418.066.613.066.297 0 .567-.057.808-.171.24-.114.438-.286.592-.516.154-.23.231-.497.231-.802 0-.125-.016-.248-.049-.369a1.152 1.152 0 0 0-.397-.601 1.078 1.078 0 0 0-.308-.164 1.927 1.927 0 0 0-.343-.081 3.14 3.14 0 0 0-.438-.026 6.71 6.71 0 0 0-.469.021l.011-.235v-.047a2.062 2.062 0 0 0 1.121-.123 1.18 1.18 0 0 0 .576-.497c.136-.229.205-.477.205-.744 0-.173-.031-.338-.093-.493a.963.963 0 0 0-.691-.595 2.101 2.101 0 0 0-.534-.064c-.361 0-.742.066-1.144.196l.034-.303a7.77 7.77 0 0 1 .636-.109c.162-.019.312-.028.451-.028.341 0 .637.051.888.153.251.102.438.262.56.478.122.216.184.462.184.738a1.77 1.77 0 0 1-.159.74 1.47 1.47 0 0 1-.161.284 1.11 1.11 0 0 1-.425.339 3.204 3.204 0 0 1-.436.156c.111 0 .251.023.42.068.17.045.319.131.451.256s.23.28.295.465c.065.185.098.381.098.589 0 .267-.052.516-.157.748-.105.232-.25.422-.435.569a1.77 1.77 0 0 1-.633.32 2.736 2.736 0 0 1-.74.098c-.182 0-.368-.015-.559-.047a4.745 4.745 0 0 1-.695-.173z"/></g></svg>