<svg xmlns="http://www.w3.org/2000/svg" viewBox="0 0 32 32"><g stroke="#333" stroke-linejoin="round" stroke-miterlimit="10" fill="none"><path d="M5 31h22V9.542L18.792 1H5v22.5zM18 2v8h8"/><path d="M8.5 25.396c.349-.473 1.147-1.635 2.398-3.484l-1.956-3.307a5.476 5.476 0 0 0 .447 0l.505.902 1.242 2.058 1.696-2.424.129-.199.208-.341.224.005h.22l-1.974 2.855-.299.45c.228.403.503.872.823 1.407l1.235 2.08a5.334 5.334 0 0 0-.442 0 36.527 36.527 0 0 0-.641-1.136c-.232-.396-.637-1.064-1.215-2.002l-.886 1.252-.973 1.428-.296.456a5.4 5.4 0 0 0-.445 0zm6.847 0l.091-1.577.114-3.567.026-1.647a4.698 4.698 0 0 0 .384 0l-.153 3.881-.081 2.597.895.005c.641 0 1.082-.003 1.323-.01l.708-.035-.017.353-1.559-.005-1.731.005zm4.976-.205l-.026-.448c.552.299 1.055.448 1.51.448.259 0 .494-.048.704-.144.211-.096.373-.239.488-.43.116-.191.173-.409.173-.654 0-.122-.019-.238-.054-.348a1.258 1.258 0 0 0-.178-.338 6.898 6.898 0 0 0-.357-.445c-.155-.18-.435-.462-.837-.843l-.347-.329a7.233 7.233 0 0 1-.346-.373 3.844 3.844 0 0 1-.276-.361 1.882 1.882 0 0 1-.164-.299 1.689 1.689 0 0 1-.116-.619c0-.269.064-.52.192-.752.128-.232.319-.416.573-.553.252-.136.575-.204.965-.204.271 0 .616.045 1.035.134l.04.418a4.486 4.486 0 0 0-.67-.194 2.79 2.79 0 0 0-.508-.05c-.288 0-.526.054-.713.162a1.142 1.142 0 0 0-.434.433 1.144 1.144 0 0 0-.109.881c.029.101.077.204.143.308.067.105.155.219.265.344l.392.426.604.612.532.531c.104.104.202.216.295.336.093.119.17.238.228.356.058.118.101.239.129.365.027.127.042.259.042.399 0 .312-.07.586-.208.821a1.311 1.311 0 0 1-.612.535c-.27.121-.572.182-.907.182-.216 0-.425-.019-.629-.057a5.022 5.022 0 0 1-.819-.25z"/></g></svg>