<svg xmlns="http://www.w3.org/2000/svg" viewBox="0 0 32 32"><g stroke="#333" stroke-linejoin="round" stroke-miterlimit="10" fill="none"><path d="M5 31h22V9.542L18.792 1H5v22.5zM18 2v8h8"/><path d="M8.5 25.5a5.81 5.81 0 0 0 .021-.472l4.696-6.215-.33-.01-1.72.005a30.881 30.881 0 0 0-2.223.062l.016-.313V18.5c.597.004 1.411.005 2.444.005l1.439-.005h.764a4.939 4.939 0 0 0-.021.462l-4.308 5.707-.377.519c.674.004 1.457.005 2.351.005.498 0 .878-.003 1.138-.008.261-.005.563-.02.908-.044a3.14 3.14 0 0 0-.016.303v.056c-.617-.004-1.369-.005-2.255-.005-1.221 0-2.063.001-2.527.005zm7.299 0l.115-2.056.105-3.082.021-1.067.005-.795a5.22 5.22 0 0 0 .471 0l-.096 1.856-.123 3.821-.027 1.323a5.062 5.062 0 0 0-.471 0zm3.3 0c.048-.581.09-1.284.126-2.108l.098-2.554c.031-.878.047-1.658.047-2.338l1.041.005 1.169-.005c.338 0 .613.02.824.059.211.039.402.132.573.277.171.145.3.324.389.536.089.212.134.436.134.672 0 .42-.111.794-.333 1.121a2.01 2.01 0 0 1-.894.731 3.21 3.21 0 0 1-1.275.241c-.269 0-.565-.031-.89-.092a4.193 4.193 0 0 0-.105-.318c.321.065.629.097.922.097.301 0 .588-.033.862-.1s.509-.178.702-.334c.195-.156.345-.351.454-.587.108-.235.162-.483.162-.744 0-.178-.032-.35-.097-.514a1.07 1.07 0 0 0-.267-.404 1.077 1.077 0 0 0-.43-.236c-.173-.053-.462-.08-.867-.08h-.902l-.435-.005-.309-.005c-.045.814-.092 1.978-.141 3.49a151.548 151.548 0 0 0-.073 2.658l.005.539a5.509 5.509 0 0 0-.246-.005 3.394 3.394 0 0 0-.244.003z"/></g></svg>