<svg xmlns="http://www.w3.org/2000/svg" viewBox="0 0 32 32"><path d="M17.913 23.26L5.326 10.673a2.314 2.314 0 0 0-3.264 0l-.389.389a2.316 2.316 0 0 0 0 3.264l15.001 15.001a2.313 2.313 0 0 0 2.282.581m-.689-3.754c-.831-.365-1.859.472-2.624-.294l-.532-2.967-2.965-.53-.532-2.967s-2.092.343-2.967-.532.342-2.093-.533-2.968l-2.971-.535-.535-2.971m-2.703 2.217a4.284 4.284 0 0 0 .544 5.366l8.578 8.578c1.433 1.433 3.654 1.628 5.302.585m.769-11.561l-6.126-6.126a4.284 4.284 0 0 0-5.209-.643M30 9.467L27 30h-8L16 9.467M15 9h16m-6-7l-2 2.525V9" stroke="#333" stroke-linecap="round" stroke-linejoin="round" stroke-miterlimit="10" fill="none"/></svg>