<svg xmlns="http://www.w3.org/2000/svg" viewBox="0 0 32 32"><path d="M26.282 11.92l.325.138C29.321 13.331 31 15.088 31 17.029c0 .971-.42 1.895-1.179 2.736C28.497 21.233 26.371 22 24.206 22H7.793c-2.164 0-4.29-.767-5.615-2.234C1.42 18.925 1 18 1 17.029c0-1.941 1.679-3.698 4.393-4.971l.325-.138c1.372-.607 2.984-1.093 4.768-1.424.961-.178 1.97-.309 3.017-.392A32.252 32.252 0 0 1 16 10c.853 0 1.683.041 2.497.105 1.046.082 2.056.213 3.017.392 1.784.331 3.396.817 4.768 1.423zm-14.58-1.34c-.088 2.765-.801 4.92-1.668 4.92-.683 0-1.49-2.487-1.752-4.406m15.468.031c-.246 1.92-1.147 4.375-1.788 4.375-.813 0-1.481-2.156-1.564-4.92m-2.898-.457c-.018 2.98-.682 5.377-1.5 5.377s-1.482-2.397-1.5-5.377" stroke="#333" stroke-miterlimit="10" fill="none"/></svg>