<svg xmlns="http://www.w3.org/2000/svg" viewBox="0 0 32 32"><g stroke="#333" stroke-linejoin="round" stroke-miterlimit="10" fill="none"><path d="M5 31h22V9.542L18.792 1H5v22.5zM18 2v8h8"/><path d="M12.579 24.958a2.976 2.976 0 0 0-.051.35 5.331 5.331 0 0 1-1.369.192c-.378 0-.738-.067-1.078-.2a2.353 2.353 0 0 1-.875-.595 2.446 2.446 0 0 1-.537-.936A3.824 3.824 0 0 1 8.5 22.63c0-.444.066-.873.2-1.288a2.69 2.69 0 0 1 .585-1.034c.257-.274.564-.478.924-.61a3.297 3.297 0 0 1 1.148-.198l.446.021.392.047.41.085.035.367a4.378 4.378 0 0 0-.738-.205 3.678 3.678 0 0 0-.598-.051c-.334 0-.656.057-.965.171a2.125 2.125 0 0 0-.817.548 2.538 2.538 0 0 0-.543.934c-.126.37-.189.754-.189 1.149 0 .381.053.744.156 1.089.104.346.262.635.474.868.213.233.466.41.759.531.293.121.614.181.961.181.431.001.91-.092 1.439-.277zm1.621.278l-.023-.384c.491.256.938.384 1.344.384.231 0 .44-.041.626-.124a.949.949 0 0 0 .435-.368c.103-.163.154-.35.154-.56a.917.917 0 0 0-.206-.588 6.098 6.098 0 0 0-.318-.381 11.583 11.583 0 0 0-.745-.723l-.309-.282a6.226 6.226 0 0 1-.308-.32 3.247 3.247 0 0 1-.245-.309 1.61 1.61 0 0 1-.146-.256 1.374 1.374 0 0 1-.103-.531c0-.23.057-.445.171-.644.114-.199.283-.357.51-.474.225-.117.511-.175.859-.175.241 0 .548.038.921.115l.036.358a4.13 4.13 0 0 0-.596-.166 2.591 2.591 0 0 0-.452-.043c-.257 0-.468.046-.634.139a.986.986 0 0 0-.522.86l.039.267a.995.995 0 0 0 .127.264l.236.295.349.365.537.524.474.455.263.288c.083.102.151.204.203.305.052.101.09.205.115.313.024.108.037.222.037.342 0 .267-.062.502-.185.704a1.16 1.16 0 0 1-.544.459 2.01 2.01 0 0 1-.807.156c-.192 0-.378-.017-.56-.049a4.826 4.826 0 0 1-.733-.216zm6.152.174l-.137-.482a10.742 10.742 0 0 0-.081-.286 88.4 88.4 0 0 0-.222-.691l-1.44-4.362a3.956 3.956 0 0 0 .35 0l.226.789 1.545 4.772 2.108-4.559.202-.461.229-.542a3.95 3.95 0 0 0 .366 0 64.407 64.407 0 0 0-.913 1.906l-1.018 2.179a46.226 46.226 0 0 0-.777 1.736 6.671 6.671 0 0 0-.218-.004l-.22.005z"/></g></svg>