<svg xmlns="http://www.w3.org/2000/svg" viewBox="0 0 32 32"><path d="M26.526 28h2.948c.29 0 .526-.236.526-.526v-4.948a.527.527 0 0 0-.526-.526h-2.948a.527.527 0 0 0-.526.526v4.948c0 .29.236.526.526.526zm-8.034 0h3.017c.271 0 .491-.22.491-.492v-9.017a.491.491 0 0 0-.492-.491h-3.017a.491.491 0 0 0-.491.492v9.017c0 .271.22.491.492.491zm-7.98 0h2.976a.512.512 0 0 0 .512-.512V12.512a.512.512 0 0 0-.512-.512h-2.976a.512.512 0 0 0-.512.512v14.976c0 .283.229.512.512.512zm-8.011 0h2.997A.51.51 0 0 0 6 27.484V2.516A.51.51 0 0 0 5.499 2H2.501A.51.51 0 0 0 2 2.516v24.968c0 .285.224.516.501.516zM31.5 31.5H.5" stroke="#333" stroke-linecap="round" stroke-miterlimit="10" fill="none"/></svg>