<svg xmlns="http://www.w3.org/2000/svg" viewBox="0 0 32 32"><path d="M2.504 28.014h2.992A.504.504 0 0 0 6 27.51v-7.002a.504.504 0 0 0-.504-.504H2.504a.504.504 0 0 0-.504.504v7.002c0 .278.226.504.504.504zm8.008 0h2.976a.512.512 0 0 0 .512-.512V12.506a.512.512 0 0 0-.512-.512h-2.976a.512.512 0 0 0-.512.512v14.996c0 .283.229.512.512.512zm7.969 0h3.039a.481.481 0 0 0 .481-.481v-9.051a.48.48 0 0 0-.481-.481h-3.039a.481.481 0 0 0-.481.481v9.051a.48.48 0 0 0 .481.481zm8.043-.037h2.952a.524.524 0 0 0 .524-.524V2.543a.525.525 0 0 0-.524-.524h-2.952a.524.524 0 0 0-.524.524v24.911c0 .289.235.523.524.523zm4.976 3.541H.5" stroke="#333" stroke-linecap="round" stroke-miterlimit="10" fill="none"/></svg>