<svg xmlns="http://www.w3.org/2000/svg" viewBox="0 0 32 32"><path d="M30 16.866C30 23.419 23.732 27 16 27S2 23.419 2 16.866C2 10.312 8.268 5 16 5s14 5.312 14 11.866zm-10-2.229C20 16.646 18.209 17 16 17s-4-.354-4-2.363S13.791 11 16 11s4 1.628 4 3.637zM2 18.855c.998-.398 2.32-.098 2.939.668.355.44.97 1.65 1.726 1.286.387-.187.273-.708.534-.996.708-.778 1.89-.074 2.223.699.193.447.226.928.315 1.397.093.489.27 1 .714 1.328.444.328 1.223.376 1.585-.016.336-.364.176-.881.086-1.334-.09-.454.014-1.047.544-1.17.408-.095.82.171 1.031.478.211.307.302.666.531.964.229.298.683.532 1.07.388.787-.293.22-1.539.974-1.887.438-.202.995.102 1.208.48.213.378.215.815.364 1.214s.546.8 1.044.761c.461-.035.766-.432.852-.811.086-.38.027-.776.125-1.154.098-.378.433-.764.896-.769.918-.011 1.192 1.348 2.109 1.318.433-.014.745-.358.89-.699.144-.341.191-.716.419-1.023.228-.308.742-.518 1.098-.312.402.233.395.859.876.934.234.037.465-.099.593-.267.128-.168.181-.367.266-.553.435-.95 1.831-1.506 2.989-1.19" stroke="#333" stroke-linecap="round" stroke-linejoin="round" stroke-miterlimit="10" fill="none"/></svg>