<svg xmlns="http://www.w3.org/2000/svg" viewBox="0 0 32 32"><g stroke="#333" stroke-linejoin="round" stroke-miterlimit="10" fill="none"><path d="M5 31h22V9.542L18.792 1H5v22.5zM18 2v8h8"/><path d="M5 31h22V9.542L18.792 1H5v22.5zM18 2v8h8"/><path d="M13.324 24.958a2.832 2.832 0 0 0-.06.35 7.376 7.376 0 0 1-1.619.192c-.448 0-.872-.067-1.274-.2a2.847 2.847 0 0 1-1.035-.595 2.392 2.392 0 0 1-.635-.936A3.252 3.252 0 0 1 8.5 22.63c0-.444.079-.873.237-1.288.157-.415.388-.76.692-1.034a2.88 2.88 0 0 1 1.093-.61 4.546 4.546 0 0 1 1.358-.198l.527.021.464.047.486.085.041.367a5.946 5.946 0 0 0-.872-.205 5.139 5.139 0 0 0-.707-.051c-.396 0-.776.057-1.141.171a2.573 2.573 0 0 0-.967.548c-.28.252-.493.563-.642.934a3.056 3.056 0 0 0-.223 1.149c0 .381.062.744.184 1.09.123.345.31.634.562.868.251.233.551.41.898.531.347.121.726.181 1.137.181.505 0 1.071-.093 1.697-.278zm1.729.278l-.028-.384c.58.256 1.11.384 1.589.384.273 0 .52-.041.741-.124.221-.082.392-.205.513-.368a.916.916 0 0 0 .182-.56.791.791 0 0 0-.057-.299c-.039-.093-.1-.19-.188-.29a6.07 6.07 0 0 0-.376-.381 12.981 12.981 0 0 0-.881-.723l-.363-.282a6.554 6.554 0 0 1-.364-.32 3.306 3.306 0 0 1-.291-.31 1.506 1.506 0 0 1-.172-.256 1.072 1.072 0 0 1-.09-.25 1.25 1.25 0 0 1-.032-.282c0-.23.067-.445.202-.644a1.37 1.37 0 0 1 .602-.474c.267-.116.605-.175 1.016-.175.285 0 .648.038 1.09.115l.041.358a5.618 5.618 0 0 0-.705-.166 3.638 3.638 0 0 0-.534-.043c-.304 0-.555.046-.751.139a1.116 1.116 0 0 0-.456.371.815.815 0 0 0 .036 1.02c.07.09.163.188.279.294l.413.365.636.525.56.455.311.288c.098.102.178.204.24.305.061.101.107.206.135.313.029.108.044.222.044.342 0 .267-.073.502-.218.704-.146.202-.361.355-.644.459a2.76 2.76 0 0 1-.955.156c-.227 0-.448-.016-.662-.049a6.13 6.13 0 0 1-.863-.213zm5.103 0a3.16 3.16 0 0 0-.027-.384c.58.256 1.11.384 1.589.384.273 0 .52-.041.741-.124.221-.082.392-.205.513-.368a.916.916 0 0 0 .182-.56.791.791 0 0 0-.057-.299c-.039-.093-.1-.19-.188-.29-.087-.099-.212-.226-.376-.381s-.457-.396-.881-.723l-.362-.281a6.554 6.554 0 0 1-.364-.32 3.306 3.306 0 0 1-.291-.31 1.506 1.506 0 0 1-.172-.256 1.072 1.072 0 0 1-.09-.25 1.25 1.25 0 0 1-.032-.282c0-.23.067-.445.202-.644a1.37 1.37 0 0 1 .602-.474c.267-.116.605-.175 1.016-.175.285 0 .648.038 1.09.115l.041.358a5.618 5.618 0 0 0-.705-.166 3.638 3.638 0 0 0-.534-.043c-.304 0-.555.046-.751.139a1.116 1.116 0 0 0-.456.371.815.815 0 0 0 .036 1.02c.07.09.163.188.279.294l.413.365.635.525.56.455.311.288c.098.102.178.204.24.305.061.101.107.206.135.313.029.108.044.222.044.342 0 .267-.073.502-.218.704-.146.202-.361.355-.644.459a2.765 2.765 0 0 1-.955.156c-.227 0-.448-.016-.662-.049a6.349 6.349 0 0 1-.864-.214z"/></g></svg>