<svg xmlns="http://www.w3.org/2000/svg" viewBox="0 0 32 32"><g stroke="#333" stroke-linecap="round" stroke-linejoin="round" stroke-miterlimit="10" fill="none"><path d="M10 28a2 2 0 1 0 4 0 2 2 0 1 0 4 0 2 2 0 1 0 4 0 2 2 0 1 0 4 0 2 2 0 1 0 2-2 2 2 0 1 0 0-4 2 2 0 1 0 0-4 2 2 0 1 0 0-4 2 2 0 1 0 0-4 2 2 0 1 0 0-4 2 2 0 1 0-2-2 2 2 0 1 0-4 0 2 2 0 1 0-4 0 2 2 0 1 0-4 0 2 2 0 1 0-4 0 2 2 0 1 0-4 0 2 2 0 1 0-2 2 2 2 0 1 0 0 4 2 2 0 1 0 0 4 2 2 0 1 0 0 4 2 2 0 1 0 0 4 2 2 0 1 0 0 4 2 2 0 1 0 2 2 2 2 0 1 0 4 0z"/><circle cx="10" cy="10" r="1.5"/><circle cx="16" cy="10" r="1.5"/><circle cx="22" cy="10" r="1.5"/><circle cx="10" cy="16" r="1.5"/><circle cx="16" cy="16" r="1.5"/><circle cx="22" cy="16" r="1.5"/><circle cx="10" cy="22" r="1.5"/><circle cx="16" cy="22" r="1.5"/><circle cx="22" cy="22" r="1.5"/></g></svg>