<svg xmlns="http://www.w3.org/2000/svg" viewBox="0 0 32 32"><g stroke="#333" stroke-linejoin="round" stroke-miterlimit="10" fill="none"><path d="M5 31h22V9.542L18.792 1H5v22.5zM18 2v8h8"/><path d="M8.5 25.396l.096-2.363.089-3.876.003-.552.736.005.914-.005c.429 0 .772.05 1.031.149.259.1.49.304.692.615.201.31.346.662.43 1.055.084.393.127.817.127 1.271 0 .541-.065 1.062-.195 1.565-.13.503-.322.925-.576 1.266-.254.341-.542.572-.863.691a3 3 0 0 1-1.051.179l-.707-.006-.726.006zm.286-.314l.93.015c.224 0 .455-.017.691-.05.237-.033.448-.093.635-.179.187-.087.369-.244.548-.473.178-.229.325-.484.44-.767.114-.282.199-.594.255-.938.056-.344.083-.692.083-1.043 0-.339-.027-.664-.08-.976a3.132 3.132 0 0 0-.173-.632 2.394 2.394 0 0 0-.302-.565 1.347 1.347 0 0 0-.358-.349 1.316 1.316 0 0 0-.466-.167 3.347 3.347 0 0 0-.593-.055h-.793l-.643.005-.174 6.174zm7.592-6.582c.317 0 .618.072.901.214.283.142.531.375.741.697.211.322.362.691.452 1.107.09.416.135.858.135 1.326 0 .514-.051 1.008-.153 1.483-.102.475-.257.873-.463 1.194a2.088 2.088 0 0 1-.775.731 2.037 2.037 0 0 1-1.914.018 2 2 0 0 1-.753-.682 3.148 3.148 0 0 1-.445-1.085 6.541 6.541 0 0 1 .031-2.846c.116-.489.282-.895.501-1.216a2.074 2.074 0 0 1 1.742-.941zm-.012.309c-.306 0-.595.07-.867.211-.271.141-.506.37-.706.687a3.45 3.45 0 0 0-.441 1.119c-.093.43-.14.878-.14 1.346 0 .441.049.864.146 1.269.098.405.242.739.431 1.005.188.266.411.456.665.572.255.116.523.174.805.174.298 0 .58-.065.845-.194.266-.129.496-.345.69-.647.195-.302.337-.664.427-1.087.09-.423.135-.87.135-1.341 0-.448-.042-.874-.125-1.279a2.953 2.953 0 0 0-.402-1.032 1.692 1.692 0 0 0-.657-.614 1.766 1.766 0 0 0-.806-.189zm7.081 6.059a5.496 5.496 0 0 0-.043.408 3.567 3.567 0 0 1-.638.174c-.199.033-.377.05-.535.05-.324 0-.632-.078-.923-.234a2.12 2.12 0 0 1-.75-.694 3.216 3.216 0 0 1-.46-1.092 5.9 5.9 0 0 1-.147-1.328c0-.517.057-1.018.171-1.502.114-.484.282-.886.501-1.206.22-.32.484-.557.791-.712.307-.154.635-.231.984-.231l.382.025.336.055.352.1.03.428a3.052 3.052 0 0 0-.632-.239 2.315 2.315 0 0 0-.511-.06c-.287 0-.563.066-.827.199-.265.132-.498.346-.7.639a3.357 3.357 0 0 0-.466 1.09 5.876 5.876 0 0 0-.029 2.612c.089.403.225.741.407 1.012.182.272.399.478.65.619.251.141.526.211.824.211.369-.001.779-.108 1.233-.324z"/></g></svg>