<svg xmlns="http://www.w3.org/2000/svg" viewBox="0 0 32 32"><g stroke="#333" stroke-miterlimit="10" fill="none"><path d="M25 31H7a1 1 0 0 1-1-1V2a1 1 0 0 1 1-1h18a1 1 0 0 1 1 1v28a1 1 0 0 1-1 1zM22.034 7.5H9.965a.465.465 0 0 1-.465-.465v-2.07c0-.257.208-.465.465-.465h12.069c.257 0 .466.208.466.465v2.069a.465.465 0 0 1-.466.466z"/><ellipse cx="11" cy="13" rx="1.496" ry="1.5"/><ellipse cx="21" cy="13" rx="1.496" ry="1.5"/><ellipse cx="16" cy="13" rx="1.496" ry="1.5"/><ellipse cx="11" cy="19" rx="1.496" ry="1.5"/><ellipse cx="21" cy="19" rx="1.496" ry="1.5"/><ellipse cx="16" cy="19" rx="1.496" ry="1.5"/><ellipse cx="11" cy="25" rx="1.496" ry="1.5"/><ellipse cx="21" cy="25" rx="1.496" ry="1.5"/><ellipse cx="16" cy="25" rx="1.496" ry="1.5"/></g></svg>