<svg xmlns="http://www.w3.org/2000/svg" viewBox="0 0 32 32"><path d="M18 9.761c4.095 1.601 7 5.576 7 10.239 0 6.075-4.925 11-11 11S3 26.075 3 20c0-4.662 2.905-8.637 7-10.239C11.241 9.276 12.587 9 14 9s2.759.276 4 .761zm0 0V6h-8v3.761m4-4.059c.089-1.016.254-1.788.919-2.533.614-.688 1.457-1.125 2.328-1.166 1.088-.051 2.25.517 2.89 1.518.513.802.38 1.764.693 2.622.293.803.974 1.472 1.805 1.697 2.075.562 3.793-1.596 3.865-3.495m3-.845h-1m-4 0h-1m3-2v-1M5.673 21.713A8.478 8.478 0 0 1 5.5 20m8.5 8.5a8.478 8.478 0 0 1-6.01-2.49 8.58 8.58 0 0 1-1.822-2.702" stroke="#333" stroke-miterlimit="10" fill="none"/></svg>