<svg xmlns="http://www.w3.org/2000/svg" viewBox="0 0 32 32"><g stroke="#333" stroke-linecap="round" stroke-linejoin="round" stroke-miterlimit="10" fill="none"><ellipse transform="rotate(-74.888 21.001 21)" cx="21" cy="21" rx=".5" ry=".5"/><path d="M12.985 18.659l-1.948 7.217c-.15.556.179 1.129.735 1.279l14.105 3.808a1.043 1.043 0 0 0 1.279-.736l3.808-14.104a1.043 1.043 0 0 0-.736-1.279l-10.18-2.748"/><path d="M12.985 18.659l-4.999 2.255a.974.974 0 0 1-1.289-.488l-5.61-12.44a.975.975 0 0 1 .487-1.29l12.44-5.61a.974.974 0 0 1 1.289.488l4.745 10.522.865 1.918a.974.974 0 0 1-.488 1.289l-7.44 3.356z"/><ellipse transform="rotate(-24.273 16 13)" cx="16" cy="13" rx=".5" ry=".5"/><ellipse transform="rotate(-24.273 11 11)" cx="11" cy="11" rx=".5" ry=".5"/><ellipse transform="rotate(-24.273 10 16)" cx="10" cy="16" rx=".5" ry=".5"/><ellipse transform="rotate(-24.273 6 9)" cx="6" cy="9" rx=".5" ry=".5"/><ellipse transform="rotate(-24.273 13 6)" cx="13" cy="6" rx=".5" ry=".5"/></g></svg>