<svg xmlns="http://www.w3.org/2000/svg" viewBox="0 0 32 32"><path d="M24 31H8a1 1 0 0 1-1-1V2a1 1 0 0 1 1-1h16a1 1 0 0 1 1 1v28a1 1 0 0 1-1 1zm-5.556-16.978l-.015.001a2.666 2.666 0 0 0 .626-1.697c0-1.561-1.368-2.826-3.056-2.826s-3.056 1.265-3.056 2.826c0 .64.239 1.223.626 1.697l-.015-.001c-1.688 0-3.056 1.265-3.056 2.826s1.368 2.826 3.056 2.826a3.126 3.126 0 0 0 2.444-1.146 3.126 3.126 0 0 0 2.444 1.146c1.688 0 3.056-1.265 3.056-2.826s-1.366-2.826-3.054-2.826zM14.167 22.5h3.666L16 18.632z" stroke="#333" stroke-linecap="round" stroke-linejoin="round" stroke-miterlimit="10" fill="none"/></svg>