<svg xmlns="http://www.w3.org/2000/svg" viewBox="0 0 32 32"><g stroke="#333" stroke-linecap="round" stroke-linejoin="round" stroke-miterlimit="10" fill="none"><circle cx="19" cy="6" r="5"/><path d="M12.089 8.919a7.488 7.488 0 0 1-.437-4.431c.1-.489.247-.959.437-1.408m13.822.001a7.488 7.488 0 0 1 .437 4.431c-.1.488-.248.959-.437 1.407M9.726 8.07l-.033-.155C9.566 7.296 9.5 6.656 9.5 6s.066-1.296.193-1.915m18.614 0a9.59 9.59 0 0 1 0 3.83M7 23h24v8H7zm10 0V10.583m4 0V23M7 26.986c-1.622 0-4.73.493-5.021-1.843-.076-.613.16-1.231.527-1.754.806-1.149 2.34-2.165 1.1-3.598-.584-.676-1.699-.982-2.606-.695"/><circle cx="12" cy="27" r="1.5"/></g></svg>