<svg xmlns="http://www.w3.org/2000/svg" viewBox="0 0 32 32"><path d="M16 11c0-4.422 3.131-7 7-7s7 3.578 7 8c0 8.844-7.762 10.535-14 16-6.238-5.465-14-7.156-14-16 0-4.422 3.131-8 7-8s7 2.578 7 7zm0 0c0-4.422 3.131-7 7-7s7 3.578 7 8c0 8.844-7.762 10.535-14 16-6.238-5.465-14-7.156-14-16 0-4.422 3.131-8 7-8s7 2.578 7 7zm-8.135 7.342a11.41 11.41 0 0 1-1.025-1.045M16 24.145a37.054 37.054 0 0 0-.959-.702 102.39 102.39 0 0 0-1.419-.981 53.442 53.442 0 0 0-.463-.31l-.455-.303-.447-.296c-.596-.394-1.156-.768-1.681-1.129a37.32 37.32 0 0 1-1.465-1.055" stroke="#333" stroke-linecap="round" stroke-linejoin="round" stroke-miterlimit="10" fill="none"/></svg>