<svg xmlns="http://www.w3.org/2000/svg" viewBox="0 0 32 32"><g stroke="#333" stroke-linecap="round" stroke-linejoin="round" stroke-miterlimit="10" fill="none"><circle cx="16" cy="16" r="14"/><circle cx="16" cy="16" r="9.5"/><path d="M21.358 3.066l-1.723 4.157m-7.271 17.554l-1.722 4.157m18.292-7.576l-4.157-1.723m-17.554-7.27l-4.157-1.723m25.868 0l-4.157 1.723m-17.554 7.27l-4.157 1.723m18.292 7.576l-1.723-4.157M12.364 7.223l-1.722-4.157M11.5 12.5v7m3.5 0c-.825 0-1.5-.675-1.5-1.5v-4c0-.825.675-1.5 1.5-1.5s1.5.675 1.5 1.5v4c0 .825-.675 1.5-1.5 1.5zm5 0c-.825 0-1.5-.675-1.5-1.5v-4c0-.825.675-1.5 1.5-1.5s1.5.675 1.5 1.5v4c0 .825-.675 1.5-1.5 1.5zm-8.5-7l-1 1"/></g></svg>