<svg xmlns="http://www.w3.org/2000/svg" viewBox="0 0 32 32"><path d="M13 16a5.985 5.985 0 0 1-1.757 4.243A5.985 5.985 0 0 1 7 22a5.985 5.985 0 0 1-4.243-1.757C1.672 19.157 1 17.657 1 16s.672-3.157 1.757-4.243A5.985 5.985 0 0 1 7 10c1.657 0 3.157.672 4.243 1.757A5.985 5.985 0 0 1 13 16zM30 6a3.997 3.997 0 0 1-6.828 2.829 4.003 4.003 0 0 1-.858-4.386 4.003 4.003 0 0 1 7.371-.001C29.888 4.922 30 5.448 30 6zm0 20a3.997 3.997 0 0 1-6.828 2.829 4.003 4.003 0 0 1-.858-4.386 4.003 4.003 0 0 1 5.243-2.129A4.003 4.003 0 0 1 30 26zM11.243 11.757L22 6M11.243 20.243L22 26" stroke="#333" stroke-width="2" stroke-linecap="round" stroke-linejoin="round" stroke-miterlimit="10" fill="none"/></svg>