<svg xmlns="http://www.w3.org/2000/svg" viewBox="0 0 32 32"><path d="M5 4.692c2.838 1.806 6.715 1.937 9.676.326 1.346-.733 2.499-1.785 3.899-2.415 2.676-1.205 6.101-.555 8.147 1.498a.5.5 0 0 1 .058.623c-.589.914-1.281 1.808-1.561 2.87a4.352 4.352 0 0 0 .379 3.145c.299.56.696 1.071.963 1.647.386.832.423 1.748.44 2.646.008.441-.512.683-.864.406-2.072-1.634-5.126-2.073-7.561-.977-1.4.63-2.552 1.682-3.899 2.415-2.962 1.611-6.839 1.48-9.677-.326M5 2v28" stroke="#333" stroke-width="2" stroke-linecap="round" stroke-miterlimit="10" fill="none"/></svg>