<svg xmlns="http://www.w3.org/2000/svg" viewBox="0 0 32 32"><path d="M5 22.996l5.14-.009c1.859.019 3.73.036 5.562-.263 1.832-.3 3.642-.938 5.044-2.093 1.402-1.155 2.349-2.875 2.247-4.63.102-1.756-.845-3.475-2.247-4.63-1.402-1.155-3.212-1.794-5.044-2.093-1.832-.3-3.703-.282-5.562-.263-1.713.015-3.427-.028-5.14-.011-2.667 3.867-2.667 10.125 0 13.992m15.772-2.52a12.39 12.39 0 0 1-.775.024c-4.137 0-7.49-2.015-7.49-4.5s3.353-4.5 7.49-4.5c.308 0 .612.011.91.033M8.5 12.5l-.112.203c-1.184 2.155-1.184 4.439 0 6.593l.112.204m-2-7l-.112.203c-1.184 2.155-1.184 4.439 0 6.593l.112.204M27 31V21m2 8l-2 2-2-2m2-28v10m2-8l-2-2-2 2" stroke="#333" stroke-linecap="round" stroke-linejoin="round" stroke-miterlimit="10" fill="none"/></svg>