<svg xmlns="http://www.w3.org/2000/svg" viewBox="0 0 32 32"><g stroke="#333" stroke-linejoin="round" stroke-miterlimit="10" fill="none"><path d="M22.996 24l-.009-5.14c.019-1.859.036-3.73-.263-5.562-.3-1.832-.938-3.642-2.093-5.044C19.475 6.853 17.756 5.905 16 6.008c-1.756-.102-3.475.845-4.63 2.247-1.155 1.402-1.794 3.212-2.093 5.044-.3 1.832-.282 3.703-.263 5.562L9.004 24c3.867 2.667 10.125 2.667 13.992 0m-2.52-15.772c.016.255.024.514.024.776 0 4.137-2.015 7.49-4.5 7.49s-4.5-3.353-4.5-7.49c0-.308.011-.612.033-.91M12.5 20.5l.203.112c2.155 1.184 4.439 1.184 6.593 0l.204-.112m-7 2l.203.112c2.155 1.184 4.439 1.184 6.593 0l.204-.112"/><circle cx="16" cy="16" r="14"/></g></svg>