<svg xmlns="http://www.w3.org/2000/svg" viewBox="0 0 32 32"><path stroke="#333" stroke-width="2" stroke-linejoin="round" stroke-miterlimit="10" d="M19.998 7.92c0-1.059-.856-1.917-1.961-1.92-1.105.003-2.04.861-2.04 1.92v1c0 4.852.016 9.697-.46 14.525l-2.864-3.455c-.569-.882-1.78-1.16-2.719-.619-.941.544-1.238 1.719-.66 2.614l5.374 7.373A4.005 4.005 0 0 0 17.901 31h7.374a4 4 0 0 0 3.909-3.149l1.775-7.934c.266-1.191-1.071-2.27-2.215-1.963-.293.078-.532.286-.74.482-.03-.929-.006-1.865-.006-2.796 0-1.06-.923-1.92-2-1.92s-2 .86-2 1.92v-2.88c0-1.061-.924-1.92-2.002-1.92-1.068 0-1.999.845-1.999 1.893V7.92z" fill="none"/><path d="M14 7.5h-4m2-2l2 2-2 2m-11-2h4m-2 2l-2-2 2-2M7.5 14v-4m2 2l-2 2-2-2m2-11v4m-2-2l2-2 2 2" stroke="#333" stroke-width="2" stroke-linecap="round" stroke-linejoin="round" stroke-miterlimit="10" fill="none"/></svg>