<svg xmlns="http://www.w3.org/2000/svg" viewBox="0 0 32 32"><g stroke="#333" stroke-linecap="round" stroke-linejoin="round" stroke-miterlimit="10" fill="none"><path d="M23 25c.675-.346 1.707-.827 2.7-.44 1.09.425 2.356 1.483 3.424.38.972-1.004.231-2.582-.592-3.408-.885-.888-2.195-1.505-2.374-2.897-.261-2.035 1.885-3.223 3.342-4.135M17 31H5a2 2 0 0 1-2-2V3a2 2 0 0 1 2-2h12a2 2 0 0 1 2 2v26a2 2 0 0 1-2 2zm2-8h2a2 2 0 1 1 0 4h-2M6.5 5.5v21m2-21v21"/><circle cx="14" cy="7" r="1.5"/><circle cx="14" cy="12" r="1.5"/><circle cx="14" cy="17" r="1.5"/></g></svg>