<svg xmlns="http://www.w3.org/2000/svg" viewBox="0 0 32 32"><path d="M16 9.783C16 6.034 13.409 3 10.207 3 5.671 3 2 7.298 2 12.609 2 21.669 8.759 21.652 16 29c7.241-7.348 14-7.331 14-16.391C30 7.298 26.329 3 21.793 3 18.591 3 16 6.034 16 9.783zM7.721 6.346a6.05 6.05 0 0 0-.508.352c-.328.253-.633.54-.911.857-.279.318-.53.666-.752 1.039a7.427 7.427 0 0 0-.567 1.193 7.68 7.68 0 0 0-.358 1.318 8.04 8.04 0 0 0-.125 1.417M10.655 5.5c-.425 0-.84.049-1.241.142" stroke="#333" stroke-linecap="round" stroke-linejoin="round" stroke-miterlimit="10" fill="none"/></svg>