<svg xmlns="http://www.w3.org/2000/svg" viewBox="0 0 32 32"><g stroke="#333" stroke-linecap="round" stroke-linejoin="round" stroke-miterlimit="10" fill="none"><circle cx="16" cy="16" r="14"/><circle cx="16" cy="16" r="9.5"/><path d="M21.358 3.066l-1.723 4.157m-7.27 17.554l-1.723 4.157m18.292-7.576l-4.157-1.723m-17.554-7.27l-4.157-1.723m25.868 0l-4.157 1.723m-17.554 7.27l-4.157 1.723m18.292 7.576l-1.723-4.157m-7.27-17.554l-1.723-4.157M18 19.5c-.825 0-1.5-.675-1.5-1.5v-4c0-.825.675-1.5 1.5-1.5s1.5.675 1.5 1.5v4c0 .825-.675 1.5-1.5 1.5zm-6.5 0h2a1 1 0 0 0 1-1v-5a1 1 0 0 0-1-1h-2m1 3.5h2"/></g></svg>