<svg xmlns="http://www.w3.org/2000/svg" viewBox="0 0 32 32"><g stroke="#333" stroke-linecap="round" stroke-linejoin="round" stroke-miterlimit="10" fill="none"><path d="M16.002 7c4.602.249 11.281 2.386 11.951 7.855.321 2.621-1.057 5.142-2.622 7.257-2.267 3.065-5.009 5.726-7.817 8.302a2.277 2.277 0 0 1-3.038.008c-2.714-2.465-5.37-5.004-7.578-7.932-.98-1.3-1.877-2.69-2.411-4.233-.534-1.543-.684-3.261-.175-4.813.553-1.685 1.841-3.049 3.333-3.987 2.446-1.536 5.476-2.303 8.33-2.457M8.009 1.445c-.109 1.674.813 3.46 2.555 4.575 1.742 1.115 3.833 1.258 5.427.535.109-1.674-.813-3.46-2.555-4.575C11.694.865 9.603.723 8.009 1.445zm15.982 0c.109 1.674-.813 3.46-2.555 4.575-1.742 1.115-3.833 1.258-5.427.535-.109-1.674.813-3.46 2.555-4.575 1.742-1.115 3.833-1.257 5.427-.535z"/><circle cx="10" cy="15" r="1.5"/><circle cx="12" cy="21" r="1.5"/><circle cx="20" cy="21" r="1.5"/><circle cx="16" cy="25" r="1.5"/><circle cx="16" cy="12" r="1.5"/><circle cx="16" cy="18" r="1.5"/><circle cx="22" cy="15" r="1.5"/></g></svg>