<svg xmlns="http://www.w3.org/2000/svg" viewBox="0 0 32 32"><path d="M7.486 19.155c.48.117.913.402 1.192.834l.514.62 2.351 2.836c.473-4.798.46-9.612.459-14.433V7.92c0-.391.129-.754.346-1.058.37-.518.998-.86 1.694-.862.69.002 1.283.337 1.631.847.209.306.33.675.33 1.073v4.813c0-1.048.931-1.893 1.999-1.893 1.077 0 2.002.86 2.002 1.92v2.88c0-1.061.923-1.92 2-1.92s2 .86 2 1.92c0 .931-.024 1.867.005 2.796.207-.196.447-.404.74-.483 1.144-.307 2.481.772 2.215 1.963l-1.775 7.934A4 4 0 0 1 21.28 31h-7.375a4.001 4.001 0 0 1-3.232-1.644L6.259 23.3 5.3 21.983a1.841 1.841 0 0 1-.215-.492 1.852 1.852 0 0 1 .875-2.122 2.077 2.077 0 0 1 1.526-.214zm8.517-10.144c1.476-.739 2.499-2.249 2.499-4.011a4.5 4.5 0 0 0-9 0c0 1.763 1.024 3.274 2.501 4.012m3.67-2.165A2.485 2.485 0 0 0 16.502 5a2.5 2.5 0 1 0-5 0c0 .744.331 1.404.846 1.862M20.5 4.5h2m2 0h2m2 0h2" stroke="#333" stroke-miterlimit="10" fill="none"/></svg>