<svg xmlns="http://www.w3.org/2000/svg" viewBox="0 0 32 32"><path d="M25 31H7V16a9 9 0 0 1 9-9 9 9 0 0 1 9 9v15zM21 1c-2.764 1.333-7.236 1.333-10 0l5 6 5-6zm-7.25 24.188c1.196 0 2.707.194 3.779-.372.904-.476 1.471-1.36 1.471-2.295 0-1.279-1.018-2.294-2.39-2.567-.923-.184-1.856-.186-2.596-.767-.641-.504-1.014-1.239-1.014-1.999 0-1.105.838-2.121 2.007-2.508.983-.326 2.208-.159 3.243-.159M16 13v1.333m0 11.334V27" stroke="#333" stroke-width="2" stroke-linecap="round" stroke-linejoin="round" stroke-miterlimit="10" fill="none"/></svg>