<svg xmlns="http://www.w3.org/2000/svg" viewBox="0 0 32 32"><g stroke="#333" stroke-linecap="round" stroke-linejoin="round" stroke-miterlimit="10" fill="none"><path d="M29 27H1V13h30v12a2 2 0 0 1-2 2zM16.287 13c.212-.686.307-1.349-.074-1.961-.407-.653-1.222-.876-1.213-1.863.014-1.477 1.855-1.568 1.994-2.985.057-.581-.286-.872-.605-1.191"/><circle cx="6" cy="17" r=".5"/><circle cx="6" cy="20" r=".5"/><circle cx="6" cy="23" r=".5"/><circle cx="9" cy="17" r=".5"/><circle cx="9" cy="20" r=".5"/><circle cx="12" cy="17" r=".5"/><circle cx="12" cy="20" r=".5"/><circle cx="15" cy="17" r=".5"/><circle cx="15" cy="20" r=".5"/><circle cx="18" cy="17" r=".5"/><circle cx="18" cy="20" r=".5"/><circle cx="18" cy="23" r=".5"/><circle cx="23" cy="17" r=".5"/><circle cx="23" cy="20" r=".5"/><circle cx="23" cy="23" r=".5"/><circle cx="26" cy="17" r=".5"/><circle cx="26" cy="20" r=".5"/><circle cx="26" cy="23" r=".5"/><path d="M9 23h6"/></g></svg>