<svg xmlns="http://www.w3.org/2000/svg" viewBox="0 0 32 32"><path d="M24 31H8a1 1 0 0 1-1-1V2a1 1 0 0 1 1-1h16a1 1 0 0 1 1 1v28a1 1 0 0 1-1 1zm-9.773-8.5h3.546L16 17.754zm1.774-13l3.677 3.367c.841.771 1.855 1.443 2.42 2.463.568 1.026.534 2.37-.091 3.363-.798 1.268-2.282 1.733-3.683 1.303-1.22-.375-2.322-1.398-2.322-2.747H16c0 1.349-1.102 2.373-2.322 2.747-1.401.43-2.885-.035-3.683-1.303-.625-.993-.659-2.337-.091-3.363.565-1.02 1.578-1.693 2.42-2.463L16.001 9.5" stroke="#333" stroke-linecap="round" stroke-linejoin="round" stroke-miterlimit="10" fill="none"/></svg>