<svg xmlns="http://www.w3.org/2000/svg" viewBox="0 0 32 32"><path fill="#333" d="M16 18a1 1 0 1 0 0 2 1 1 0 0 0 0-2zm-2 2a1 1 0 1 0 0 2 1 1 0 0 0 0-2zm4 0a1 1 0 1 0 0 2 1 1 0 0 0 0-2zm-2 4c.551 0 1 .449 1 1s-.449 1-1 1c-.551 0-1-.449-1-1s.449-1 1-1m0-1a2 2 0 1 0-.001 3.999A2 2 0 0 0 16 23z"/><path stroke="#333" stroke-width="2" stroke-linejoin="round" stroke-miterlimit="10" d="M21.687 31H10.312a1.207 1.207 0 0 1-.733-.248 1.354 1.354 0 0 1-.354-.392 1.489 1.489 0 0 1-.198-.519A1.565 1.565 0 0 1 9 29.548v-2.709c0-.45.057-.897.168-1.329l.363-1.406a5.345 5.345 0 0 0 0-2.659l-.363-1.406A5.357 5.357 0 0 1 9 18.709V2.452a1.573 1.573 0 0 1 .224-.812 1.417 1.417 0 0 1 .355-.392 1.293 1.293 0 0 1 .469-.219L10.312 1h11.376a1.223 1.223 0 0 1 .511.114 1.293 1.293 0 0 1 .417.311 1.481 1.481 0 0 1 .358.734l.026.293v16.257c0 .45-.057.897-.168 1.329l-.363 1.406a5.345 5.345 0 0 0 0 2.659l.363 1.406c.111.433.168.88.168 1.33v2.709a1.555 1.555 0 0 1-.385 1.026 1.298 1.298 0 0 1-.663.396l-.265.03z" fill="none"/><path stroke="#333" stroke-linejoin="round" stroke-miterlimit="10" d="M11.5 3.5h9v13h-9z" fill="none"/></svg>