<svg xmlns="http://www.w3.org/2000/svg" viewBox="0 0 32 32"><path stroke="#333" stroke-width="2" stroke-linejoin="round" stroke-miterlimit="10" d="M8.65 9.899c-.55-.892-1.72-1.172-2.657-.604-.934.573-1.28 1.778-.731 2.67l.519.842c2.519 4.086 5.049 8.157 7.153 12.468l-4.22-1.431c-.94-.448-2.11-.058-2.623.882-.514.944-.156 2.087.798 2.542l8.379 3.434a3.991 3.991 0 0 0 3.59-.284l6.245-3.808a3.94 3.94 0 0 0 1.675-4.67l-2.617-7.598c-.393-1.14-2.086-1.358-2.895-.51-.207.217-.302.516-.376.788-.507-.767-.973-1.568-1.456-2.352-.551-.893-1.779-1.14-2.691-.584s-1.247 1.757-.697 2.65l-1.495-2.425c-.551-.893-1.78-1.139-2.692-.583-.904.551-1.254 1.744-.71 2.626l-1.98-3.211-.519-.842z" fill="none"/><path d="M9.145 5.647L6.5 4.645 7.502 2M25.5 4c-4.975-2.667-14.025-2.022-19 .645" stroke="#333" stroke-width="2" stroke-linecap="round" stroke-linejoin="round" stroke-miterlimit="10" fill="none"/></svg>