<svg xmlns="http://www.w3.org/2000/svg" viewBox="0 0 32 32"><path d="M27.355 6.647L30 5.645 28.998 3M11 5c4.975-2.667 14.025-2.022 19 .645M2 18.793l3.756-3.743c1.343-1.37 2.695-2.748 4.25-3.865 1.555-1.118 3.341-1.972 5.206-2.152 1.865-.18 3.811.383 5.017 1.739 1.355 1.206 1.919 3.152 1.739 5.017-.18 1.865-1.035 3.651-2.152 5.206-1.118 1.555-2.496 2.907-3.865 4.25l-3.743 3.756C7.44 28.125 2.875 23.559 2 18.793m13.343-9.667c-.197.175-.392.357-.583.548-3.018 3.018-3.994 6.934-2.181 8.747 1.813 1.813 5.729.836 8.747-2.181.225-.225.438-.454.64-.688m-9.756 8.345l-.23-.067c-2.436-.708-4.102-2.374-4.81-4.81l-.067-.23m3.648 6.566l-.23-.067c-2.436-.708-4.102-2.374-4.81-4.81l-.067-.23" stroke="#333" stroke-linecap="round" stroke-linejoin="round" stroke-miterlimit="10" fill="none"/></svg>