<svg xmlns="http://www.w3.org/2000/svg" viewBox="0 0 32 32"><g stroke="#333" stroke-miterlimit="10" fill="none"><path d="M20.476 13.228c.016.255.024.514.024.775 0 4.137-2.015 7.49-4.5 7.49s-4.5-3.354-4.5-7.49c0-.308.011-.612.033-.91M12.5 25.5l.203.112c2.155 1.184 4.439 1.184 6.593 0l.204-.112m-7 2l.203.112c2.155 1.184 4.439 1.184 6.593 0l.204-.112"/><path d="M11.481 13.132c1.153-1.332 2.816-2.223 4.519-2.124 1.702-.099 3.366.793 4.518 2.124l.112.123c.413.502.74 1.068 1.029 1.657.322.655.591 1.342.781 2.059.116.438.211.882.283 1.328.3 1.832.282 3.703.263 5.562l.009 5.14c-3.867 2.667-10.125 2.667-13.992 0l.009-5.14c-.019-1.859-.036-3.73.263-5.562.073-.446.168-.891.283-1.328.189-.717.458-1.403.78-2.059.289-.589.616-1.155 1.029-1.657l.114-.123zM22.44 16.97A9.465 9.465 0 0 0 25.5 10c0-5.247-4.253-9.5-9.5-9.5S6.5 4.753 6.5 10a9.467 9.467 0 0 0 3.06 6.97m.78-2.059A7.464 7.464 0 0 1 8.5 10a7.5 7.5 0 0 1 15 0c0 1.88-.697 3.595-1.84 4.911"/></g></svg>