<svg xmlns="http://www.w3.org/2000/svg" viewBox="0 0 32 32"><path fill="#333" d="M16 16c.551 0 1 .449 1 1s-.449 1-1 1c-.551 0-1-.449-1-1s.449-1 1-1m0-1a2 2 0 1 0-.001 3.999A2 2 0 0 0 16 15zm5-3a1 1 0 1 0 0 2 1 1 0 0 0 0-2zm4 0a1 1 0 1 0 0 2 1 1 0 0 0 0-2zm-2-2a1 1 0 1 0 0 2 1 1 0 0 0 0-2zm0 4a1 1 0 1 0 0 2 1 1 0 0 0 0-2z"/><circle stroke="#333" stroke-linejoin="round" stroke-miterlimit="10" cx="9" cy="13" r="2.5" fill="none"/><path stroke="#333" stroke-width="2" stroke-linecap="round" stroke-linejoin="round" stroke-miterlimit="10" d="M16.54 20.616c2.814 0 3.703-.184 5.82 1.317 1.626 1.153 2.809 2.847 4.644 3.691.934.429 2.145.578 2.961-.022.718-.527.905-1.453.976-2.297.342-4.085-.854-8.136-2.141-12.057-.37-1.127-.757-2.269-1.462-3.251-.705-.982-1.781-1.799-3.044-1.964-1.462-.191-2.868.494-4.205 1.074-1.337.58-1.931 1.166-3.546 1.166h-1.087c-1.616 0-2.209-.586-3.546-1.166-1.337-.58-2.742-1.265-4.204-1.074-1.263.165-2.339.981-3.044 1.963-.705.982-1.092 2.124-1.462 3.252C1.913 15.169.717 19.22 1.059 23.305c.071.845.258 1.77.976 2.297.816.6 2.027.451 2.961.022 1.836-.843 3.018-2.538 4.644-3.691 2.118-1.502 3.007-1.317 5.82-1.317h1.08z" fill="none"/></svg>