<svg xmlns="http://www.w3.org/2000/svg" viewBox="0 0 32 32"><path stroke="#333" stroke-width="2" stroke-miterlimit="10" d="M29.723 19.253L27.179 18.2c.187-1.553.122-3.005-.15-4.337l2.694-1.116a.45.45 0 0 0 .243-.587l-1.375-3.32a.45.45 0 0 0-.587-.243l-2.698 1.117a11.154 11.154 0 0 0-3.022-3.018l1.119-2.701a.45.45 0 0 0-.243-.587l-3.32-1.374a.45.45 0 0 0-.587.243l-1.119 2.701a11.177 11.177 0 0 0-4.271-.003l-1.118-2.698a.45.45 0 0 0-.587-.243L8.84 3.409a.45.45 0 0 0-.243.587L9.713 6.69c-1.135.75-2.207 1.73-3.173 2.961L3.996 8.597a.45.45 0 0 0-.587.243l-1.375 3.32a.45.45 0 0 0 .243.587L4.821 13.8c-.187 1.553-.122 3.005.15 4.337l-2.694 1.116a.45.45 0 0 0-.243.587l1.375 3.32a.45.45 0 0 0 .587.243l2.698-1.118a11.154 11.154 0 0 0 3.022 3.018l-1.119 2.701a.45.45 0 0 0 .243.587l3.32 1.375a.45.45 0 0 0 .587-.243l1.119-2.701c1.387.27 2.835.282 4.271.003l1.117 2.698a.45.45 0 0 0 .587.243l3.32-1.375a.45.45 0 0 0 .243-.587l-1.116-2.694c1.135-.75 2.207-1.73 3.173-2.961l2.544 1.054a.45.45 0 0 0 .587-.243l1.375-3.32a.45.45 0 0 0-.244-.587zm-16.019 2.289a5.998 5.998 0 1 1 4.591-11.083 5.998 5.998 0 1 1-4.591 11.083z" fill="none"/></svg>