<svg xmlns="http://www.w3.org/2000/svg" viewBox="0 0 32 32"><g stroke="#333" stroke-width="2" stroke-linejoin="round" stroke-miterlimit="10" fill="none"><path d="M16.001 7.536c0-.847-.623-1.534-1.426-1.536-.804.002-1.484.689-1.484 1.536v.8c0 3.881.012 7.757-.334 11.62l-2.084-2.764c-.414-.705-1.295-.928-1.978-.495-.684.435-.901 1.375-.48 2.091l3.91 5.898c.547.825 1.42 1.314 2.35 1.314h5.365c1.369 0 2.553-1.049 2.844-2.52l1.291-6.347c.194-.953-.779-1.816-1.611-1.57-.213.063-.387.229-.538.386-.022-.743-.004-1.492-.004-2.237 0-.848-.672-1.536-1.455-1.536s-1.455.688-1.455 1.536v-2.304c0-.848-.673-1.536-1.456-1.536-.777 0-1.454.676-1.454 1.515V7.536z"/><circle cx="16" cy="16" r="14"/></g></svg>