<svg xmlns="http://www.w3.org/2000/svg" viewBox="0 0 32 32"><path fill="#333" d="M12 15c.551 0 1 .449 1 1 0 .551-.449 1-1 1-.551 0-1-.449-1-1 0-.551.449-1 1-1m0-1a2 2 0 1 0-.001 3.999A2 2 0 0 0 12 14zm7.839 1.105c.516 0 .935.401.935.895 0 .493-.42.895-.935.895-.516 0-.936-.401-.936-.895 0-.493.42-.895.936-.895m0-1c-1.069 0-1.936.848-1.936 1.895s.867 1.895 1.936 1.895 1.935-.848 1.935-1.895-.866-1.895-1.935-1.895zM16 15a1 1 0 1 0 0 2 1 1 0 0 0 0-2zm9-5a1 1 0 1 0 0 2 1 1 0 0 0 0-2zm0 4a1 1 0 1 0 0 2 1 1 0 0 0 0-2zm-2-2a1 1 0 1 0 0 2 1 1 0 0 0 0-2zm4 0a1 1 0 1 0 0 2 1 1 0 0 0 0-2z"/><path stroke="#333" stroke-width="2" stroke-linejoin="round" stroke-miterlimit="10" d="M21.306 19.106c-.913 1.278-2.394 1.135-3.326-.106h-3.961c-.932 1.241-2.413 1.384-3.326.106l-1.979.361-.338 1.01c-.359 1.075-.731 2.174-1.45 3.07-.719.896-1.865 1.566-3.042 1.437-1.43-.157-2.486-1.454-2.773-2.798-.287-1.344.026-2.731.338-4.07l1.4-6.017c.219-.943.443-1.896.882-2.768.441-.871 1.123-1.665 2.044-2.071.92-.406 2.097-.355 2.863.279.708.666 1.884.827 2.76.377h9.205c.876.45 2.052.29 2.76-.377.765-.634 1.942-.685 2.863-.279.92.406 1.602 1.2 2.042 2.071.439.871.662 1.824.882 2.768l1.4 6.017c.312 1.339.624 2.726.338 4.07-.287 1.344-1.342 2.641-2.773 2.798-1.176.129-2.323-.541-3.042-1.437-.719-.896-1.091-1.995-1.45-3.07l-.375-1.121-1.942-.25z" fill="none"/><path d="M5 13h4m-2-2v4" stroke="#333" stroke-width="2" stroke-linecap="round" stroke-linejoin="round" stroke-miterlimit="10" fill="none"/></svg>