<svg xmlns="http://www.w3.org/2000/svg" viewBox="0 0 32 32"><path d="M8.009 1.445c-.109 1.674.813 3.46 2.555 4.575 1.742 1.115 3.833 1.258 5.427.535.109-1.674-.813-3.46-2.555-4.575C11.694.865 9.603.723 8.009 1.445zm15.982 0c.109 1.674-.813 3.46-2.555 4.575-1.742 1.115-3.833 1.258-5.427.535-.109-1.674.813-3.46 2.555-4.575 1.742-1.115 3.833-1.257 5.427-.535z" stroke="#333" stroke-width="2" stroke-linecap="round" stroke-linejoin="round" stroke-miterlimit="10" fill="none"/><circle stroke="#333" stroke-width="2" stroke-linecap="round" stroke-linejoin="round" stroke-miterlimit="10" cx="7" cy="25" r="6" fill="none"/><circle stroke="#333" stroke-width="2" stroke-linecap="round" stroke-linejoin="round" stroke-miterlimit="10" cx="25" cy="25" r="6" fill="none"/><path stroke="#333" stroke-width="2" stroke-linecap="round" stroke-linejoin="round" stroke-miterlimit="10" d="M25 19L16 7 7 19" fill="none"/><path stroke="#333" stroke-linecap="round" stroke-linejoin="round" stroke-miterlimit="10" d="M3.5 25a3.487 3.487 0 0 1 1.025-2.474A3.479 3.479 0 0 1 7 21.5" fill="none"/></svg>