<svg xmlns="http://www.w3.org/2000/svg" viewBox="0 0 32 32"><g stroke="#333" stroke-linecap="round" stroke-linejoin="round" stroke-miterlimit="10" fill="none"><circle cx="16" cy="16" r="15"/><ellipse transform="rotate(-78.802 15.999 16)" cx="16" cy="16" rx="10.5" ry="10.5"/><path d="M18.913 1.286L18.039 5.7M13.96 26.3l-.873 4.414m17.627-11.801l-4.414-.874M5.7 13.96l-4.414-.873m27.179-5.431l-3.74 2.503M7.275 21.841l-3.74 2.503m20.809 4.121l-2.503-3.74M10.159 7.275l-2.503-3.74m16.667-.014l-2.497 3.744M10.174 24.736l-2.497 3.743m20.802-4.156l-3.743-2.497M7.264 10.174L3.521 7.677m27.188 5.384l-4.413.882M5.704 18.057l-4.413.882m17.648 11.77l-.882-4.413M13.943 5.703l-.882-4.412"/><ellipse transform="rotate(-45.001 16 16)" cx="16" cy="16" rx="2.519" ry="2.519"/><ellipse transform="rotate(-45.001 20.988 20.989)" cx="20.988" cy="20.988" rx="1.512" ry="1.512"/><ellipse transform="rotate(-45.001 11.012 11.012)" cx="11.012" cy="11.012" rx="1.512" ry="1.512"/><ellipse transform="rotate(-45.001 11.011 20.988)" cx="11.012" cy="20.988" rx="1.512" ry="1.512"/><ellipse transform="rotate(-45.001 20.988 11.012)" cx="20.988" cy="11.012" rx="1.512" ry="1.512"/><path d="M19.449 11.126l-2.499 2.499m3.954-1.104l-2.499 2.499m-4.799 1.949l-2.47 2.47m3.895-1.045l-2.483 2.483m8.326-1.456l-2.499-2.498m1.104 3.954l-2.499-2.499m-1.949-4.799l-2.47-2.471m1.045 3.896l-2.483-2.483"/></g></svg>