<svg xmlns="http://www.w3.org/2000/svg" viewBox="0 0 32 32"><path stroke="#333" stroke-width="2" stroke-linecap="round" stroke-linejoin="round" stroke-miterlimit="10" d="M3 29h26M5 31l-2-2 2-2m22 4l2-2-2-2" fill="none"/><path stroke="#333" stroke-width="2" stroke-linejoin="round" stroke-miterlimit="10" d="M14.001 2.92c0-1.059-.856-1.917-1.961-1.92-1.105.003-2.04.861-2.04 1.92v1c0 4.852.016 9.697-.46 14.525L6.676 14.99c-.569-.882-1.78-1.16-2.719-.619-.94.544-1.238 1.719-.66 2.614l5.374 7.373A4.008 4.008 0 0 0 11.904 26h7.374a4 4 0 0 0 3.909-3.149l1.775-7.934c.266-1.191-1.071-2.27-2.215-1.963-.293.078-.532.286-.74.482-.03-.929-.005-1.865-.005-2.796 0-1.06-.923-1.92-2-1.92s-2 .86-2 1.92V7.76c0-1.061-.925-1.92-2.002-1.92-1.068 0-1.999.845-1.999 1.893V2.92z" fill="none"/></svg>