<svg xmlns="http://www.w3.org/2000/svg" viewBox="0 0 32 32"><path stroke="#333" stroke-width="2" stroke-linejoin="round" stroke-miterlimit="10" d="M20.004 7.919c0-1.059-.856-1.917-1.961-1.919-1.105.003-2.04.861-2.04 1.919v1c0 4.852.016 9.697-.46 14.525l-2.864-3.455c-.569-.882-1.78-1.16-2.719-.619-.941.544-1.238 1.719-.66 2.614l5.374 7.373A4.006 4.006 0 0 0 17.907 31h7.374a4 4 0 0 0 3.909-3.149l1.775-7.934c.266-1.191-1.071-2.27-2.215-1.963-.293.078-.532.286-.74.482-.03-.929-.005-1.865-.005-2.796 0-1.06-.923-1.92-2-1.92s-2 .86-2 1.92v-2.88c0-1.061-.924-1.92-2.002-1.92-1.068 0-1.999.845-1.999 1.893V7.919z" fill="none"/><path d="M11.247 1l-2.671.932.932 2.67m-.25-2.412a5.985 5.985 0 0 1 1.985 1.318A5.985 5.985 0 0 1 13 7.751a5.985 5.985 0 0 1-1.757 4.243A5.975 5.975 0 0 1 7 13.751a5.985 5.985 0 0 1-4.243-1.757A5.985 5.985 0 0 1 1 7.751a5.985 5.985 0 0 1 1.757-4.243" stroke="#333" stroke-width="2" stroke-linecap="round" stroke-linejoin="round" stroke-miterlimit="10" fill="none"/></svg>