<svg xmlns="http://www.w3.org/2000/svg" viewBox="0 0 32 32"><g stroke="#333" stroke-width="2" stroke-linecap="round" stroke-linejoin="round" stroke-miterlimit="10" fill="none"><circle cx="24" cy="14" r="2"/><circle cx="20" cy="21" r="2"/><circle cx="12" cy="21" r="2"/><circle cx="16" cy="14" r="2"/><circle cx="8" cy="14" r="2"/><circle cx="16" cy="28" r="2"/><path d="M10.007 2.297c-.082 1.116.61 2.307 1.917 3.05s2.875.838 4.07.356c.082-1.116-.61-2.307-1.917-3.05s-2.875-.838-4.07-.356zm12.986 0c.082 1.116-.61 2.307-1.917 3.05-1.306.743-2.875.838-4.07.356-.082-1.116.61-2.307 1.917-3.05s2.875-.838 4.07-.356zm-7 3.703c.071.718-.382 1.765-.976 2.185-.594.419-1.313.621-2.017.815m4.007-3c-.071.718.382 1.765.976 2.185.594.419 1.313.621 2.017.815"/></g></svg>