<svg xmlns="http://www.w3.org/2000/svg" viewBox="0 0 32 32"><path d="M25.994 27.2l-.013-7.196c.027-2.603.052-5.222-.376-7.787-.428-2.565-1.34-5.099-2.99-7.061C20.965 3.194 18.508 1.867 16 2.01c-2.508-.143-4.965 1.183-6.615 3.146-1.65 1.962-2.562 4.497-2.99 7.061-.428 2.565-.403 5.184-.376 7.787L6.006 27.2c5.524 3.733 14.464 3.733 19.988 0M22.395 5.12c.022.357.034.719.034 1.086 0 5.792-2.878 10.486-6.429 10.486-3.55 0-6.429-4.695-6.429-10.486 0-.431.016-.856.047-1.274M11 22.3l.29.156c3.078 1.658 6.341 1.658 9.419 0L21 22.3m-10 2.8l.29.156c3.078 1.658 6.341 1.658 9.419 0L21 25.1" stroke="#333" stroke-linecap="round" stroke-linejoin="round" stroke-miterlimit="10" fill="none"/></svg>