<svg xmlns="http://www.w3.org/2000/svg" viewBox="0 0 32 32"><path stroke="#333" stroke-width="2" stroke-linecap="round" stroke-linejoin="round" stroke-miterlimit="10" d="M21.333 11.739l-.032.003c.846-1.02 1.366-2.277 1.366-3.655C22.667 4.725 19.682 2 16 2S9.333 4.725 9.333 8.087c0 1.378.521 2.635 1.366 3.655l-.033-.003C6.985 11.739 4 14.464 4 17.826c0 3.362 2.985 6.087 6.667 6.087 2.191 0 4.118-.978 5.333-2.468 1.215 1.49 3.142 2.468 5.333 2.468 3.682 0 6.667-2.725 6.667-6.087 0-3.362-2.985-6.087-6.667-6.087z" fill="none"/><path stroke="#333" stroke-linecap="round" stroke-linejoin="round" stroke-miterlimit="10" d="M13.67 5.212a4.184 4.184 0 0 0-1.753 2.616 4.148 4.148 0 0 0-.085.84M16 4.5c-.288 0-.568.029-.84.085" fill="none"/><path stroke="#333" stroke-width="2" stroke-linecap="round" stroke-linejoin="round" stroke-miterlimit="10" d="M12 30h8l-4-8.331z" fill="none"/></svg>