<svg xmlns="http://www.w3.org/2000/svg" viewBox="0 0 32 32"><path d="M16.001 7.919c0-1.059-.856-1.917-1.961-1.919-1.105.003-2.04.861-2.04 1.919v1c0 4.852.016 9.697-.46 14.525l-2.864-3.455c-.569-.882-1.78-1.16-2.719-.619-.941.544-1.238 1.719-.66 2.614l5.374 7.373A4.006 4.006 0 0 0 13.904 31h7.374a4 4 0 0 0 3.909-3.149l1.775-7.934c.266-1.191-1.071-2.27-2.215-1.963-.293.078-.532.286-.74.482-.03-.929-.006-1.865-.006-2.796 0-1.06-.923-1.92-2-1.92s-2 .86-2 1.92v-2.88c0-1.061-.925-1.92-2.002-1.92-1.068 0-1.999.845-1.999 1.893V7.919zm-3.502-1.321A3 3 0 0 1 14 1a3 3 0 0 1 1.502 5.597M4 4h7M6 6L4 4l2-2m18 2h-7m5 2l2-2-2-2" stroke="#333" stroke-width="2" stroke-linejoin="round" stroke-miterlimit="10" fill="none"/></svg>