<svg xmlns="http://www.w3.org/2000/svg" viewBox="0 0 32 32"><g stroke="#333" stroke-linecap="round" stroke-linejoin="round" stroke-miterlimit="10" fill="none"><path d="M26 2H6m20 28H6m17 0v-8a6.989 6.989 0 0 0-3.408-6A6.989 6.989 0 0 0 23 10V2M9 2v8a6.989 6.989 0 0 0 3.408 6A6.989 6.989 0 0 0 9 22v8m14-1.5c-1.429-3.352-3.985-5.161-7-7-3.015 1.839-5.571 3.648-7 7M9 8.848c1.499-2.022 3.981-2.935 6.199-1.948 1.153.513 2.112 1.463 3.22 2.09 1.843 1.043 3.016.341 4.581-.809"/><circle cx="16" cy="19" r=".5"/><circle cx="16" cy="16" r=".5"/></g></svg>