<svg xmlns="http://www.w3.org/2000/svg" viewBox="0 0 32 32"><path d="M12.182 30h7.636L16 19.778zm3.82-28l7.919 7.253c1.812 1.66 3.995 3.108 5.212 5.306 1.223 2.21 1.149 5.104-.197 7.243-1.718 2.731-4.914 3.732-7.932 2.806-2.628-.807-5.002-3.012-5.002-5.917h-.004c0 2.905-2.374 5.11-5.002 5.917-3.017.926-6.214-.075-7.932-2.806-1.346-2.139-1.419-5.033-.197-7.243 1.216-2.198 3.399-3.646 5.212-5.306L15.998 2m-.742 4.18l.742-.68m-8.061 7.278l.529-.467.538-.456.535-.454.521-.461.742-.68.742-.68.742-.68.742-.68.742-.68" stroke="#333" stroke-linecap="round" stroke-linejoin="round" stroke-miterlimit="10" fill="none"/></svg>