<svg xmlns="http://www.w3.org/2000/svg" viewBox="0 0 32 32"><path stroke="#333" stroke-width="2" stroke-linecap="round" stroke-linejoin="round" stroke-miterlimit="10" d="M16 22H2a1 1 0 0 1-1-1V11a1 1 0 0 1 1-1h14a1 1 0 0 1 1 1v10a1 1 0 0 1-1 1zm-5 0v4m-4-4v4m-2 0h8m8-20h10v20H21z" fill="none"/><path fill="#333" d="M26 21c.551 0 1 .449 1 1s-.449 1-1 1c-.551 0-1-.449-1-1s.449-1 1-1m0-1a2 2 0 1 0-.001 3.999A2 2 0 0 0 26 20z"/><path stroke="#333" stroke-linecap="round" stroke-miterlimit="10" d="M23 9.5h6m-6 3h6m-6 3h6" fill="none"/><path stroke="#333" stroke-linecap="round" stroke-linejoin="round" stroke-miterlimit="10" d="M3.5 12.5v7m11-7v7m0-7h-11m11 7h-11" fill="none"/></svg>