<svg xmlns="http://www.w3.org/2000/svg" viewBox="0 0 32 32"><path d="M11.487 19.155c.48.117.913.402 1.192.834l.514.62 2.351 2.836c.473-4.798.46-9.612.459-14.433V7.92c0-.391.129-.754.346-1.058.37-.518.998-.86 1.694-.862.69.002 1.283.337 1.631.847.209.306.33.675.33 1.073v4.813c0-1.048.931-1.893 1.999-1.893 1.077 0 2.002.86 2.002 1.92v2.88c0-1.061.923-1.92 2-1.92s2 .86 2 1.92c0 .931-.024 1.867.005 2.796.207-.196.447-.404.74-.483 1.143-.307 2.481.772 2.215 1.963L29.19 27.85A3.999 3.999 0 0 1 25.282 31h-7.375a4.001 4.001 0 0 1-3.232-1.644L10.261 23.3l-.959-1.316a1.793 1.793 0 0 1-.215-.492 1.852 1.852 0 0 1 .875-2.122 2.07 2.07 0 0 1 1.525-.215zm8.518-10.144C21.48 8.272 22.503 6.762 22.503 5a4.5 4.5 0 0 0-9 0c0 1.763 1.024 3.274 2.501 4.012m3.671-2.165A2.484 2.484 0 0 0 20.503 5a2.5 2.5 0 1 0-5 0c0 .744.331 1.404.846 1.862M9.502 4.5h2m-6 0h2m-6 0h2" stroke="#333" stroke-miterlimit="10" fill="none"/></svg>