<svg xmlns="http://www.w3.org/2000/svg" viewBox="0 0 32 32"><path d="M5 15.042C5 13.752 5.894 13 7 13s2 1.044 2 2.333c0 2.58-2.218 3.073-4 4.667-1.782-1.594-4-2.087-4-4.667C1 14.044 1.895 13 3 13s2 .752 2 2.042zm11 0c0-1.29.895-2.042 2-2.042s2 1.044 2 2.333c0 2.58-2.218 3.073-4 4.667-1.782-1.594-4-2.087-4-4.667 0-1.289.894-2.333 2-2.333s2 .752 2 2.042zm11 0c0-1.29.895-2.042 2-2.042s2 1.044 2 2.333c0 2.58-2.218 3.073-4 4.667-1.782-1.594-4-2.087-4-4.667 0-1.289.895-2.333 2-2.333s2 .752 2 2.042z" stroke="#333" stroke-width="2" stroke-linecap="round" stroke-linejoin="round" stroke-miterlimit="10" fill="none"/></svg>