<svg xmlns="http://www.w3.org/2000/svg" viewBox="0 0 32 32"><path stroke="#333" stroke-width="2" stroke-linejoin="round" stroke-miterlimit="10" d="M16.001 4.15A2.132 2.132 0 0 0 13.862 2c-1.206.003-2.226.964-2.226 2.15v1.12c0 5.434.018 10.86-.502 16.268l-3.126-3.87c-.621-.988-1.943-1.299-2.966-.694a2.098 2.098 0 0 0-.72 2.927l5.864 8.258A4.33 4.33 0 0 0 13.713 30h8.047c2.053 0 3.829-1.468 4.266-3.527l1.937-8.886c.291-1.334-1.169-2.542-2.417-2.199-.319.088-.581.321-.807.54-.032-1.04-.006-2.089-.006-3.132 0-1.188-1.007-2.15-2.183-2.15-1.175 0-2.183.963-2.183 2.15V9.571c0-1.188-1.009-2.15-2.184-2.15-1.165 0-2.181.947-2.181 2.12V4.15z" fill="none"/></svg>