<svg xmlns="http://www.w3.org/2000/svg" viewBox="0 0 32 32"><path d="M23 24H9a7.975 7.975 0 0 1-5.657-2.343A7.975 7.975 0 0 1 1 16c0-2.209.895-4.209 2.343-5.657A7.975 7.975 0 0 1 9 8h14c2.209 0 4.209.895 5.657 2.343A7.975 7.975 0 0 1 31 16a7.975 7.975 0 0 1-2.343 5.657A7.975 7.975 0 0 1 23 24zm-2.063-4.518l-4.928.009-4.929.009c-.986.002-1.879-.34-2.526-.895-.647-.554-1.049-1.321-1.052-2.169l-.001-.42-.001-.419c-.003-.848.395-1.617 1.04-2.175.645-.557 1.537-.903 2.523-.905l4.928-.009 4.929-.008c.986-.002 1.879.34 2.526.894.647.554 1.049 1.321 1.052 2.169l.001.42.001.42c.002.848-.395 1.617-1.04 2.175-.645.557-1.537.903-2.523.904zM13.5 19.5v5m5-5v5m-5-17v5m5-5v5m-9.96.922l-5.197-3.079m5.211 8.262l-5.211 3.052m20.117-3.079l5.197 3.079m-5.211-8.263l5.211-3.051" stroke="#333" stroke-linecap="round" stroke-linejoin="round" stroke-miterlimit="10" fill="none"/></svg>