<svg xmlns="http://www.w3.org/2000/svg" viewBox="0 0 32 32"><path d="M6.645 1c-.757 1.895.197 4.017 1.361 5.707 1.164 1.69 2.599 3.327 2.924 5.334.284 1.748-.333 3.525-1.202 5.081-.869 1.556-1.991 2.97-2.846 4.533A15.374 15.374 0 0 0 5.13 31M25.355 1c.757 1.895-.197 4.017-1.361 5.707-1.164 1.69-2.599 3.327-2.924 5.334-.284 1.748.333 3.525 1.202 5.081.869 1.556 1.991 2.97 2.847 4.533a15.378 15.378 0 0 1 1.752 9.344M16 31.5c0-1.658-1.118-3-2.5-3m2.5 3c0-1.658 1.118-3 2.5-3M31 13h-4m0 2l-2-2 2-2M1 13h4m0 2l2-2-2-2" stroke="#333" stroke-linecap="round" stroke-linejoin="round" stroke-miterlimit="10" fill="none"/></svg>