<svg xmlns="http://www.w3.org/2000/svg" viewBox="0 0 32 32"><path d="M1.247 18.348c-.385.479-.288 1.232.07 1.733.358.501.916.803 1.467 1.056 2.44 1.123 5.113 1.628 7.78 1.794 2.667.166 5.341.001 8.007-.163 2.128-.131 4.254.017 6.386.068 1.624.039 3.294.071 4.82-.506.524-.198 1.078-.536 1.198-1.099.094-.439-.106-.88-.249-1.304-.248-.733-.338-1.512-.402-2.286-.171-2.062-.208-4.245-1.262-6.005-.17-.285-.379-.565-.676-.7-.443-.201-.975-.019-1.343.305s-.613.767-.877 1.186c-.264.419-.571.835-1.005 1.054-.464.233-1.018.207-1.51.043-.491-.163-.933-.452-1.368-.738l-1.493-.981c-.697-.458-.772-1.48-1.21-2.204-.125-.207-.261-.424-.473-.53-.414-.208-.889.089-1.258.372a836.4 836.4 0 0 1-2.107 1.611c-2.995 2.283-6.112 4.6-9.737 5.474-.99.239-2.038.337-3.044.493-.369.057-.745.117-1.076.294-.331.177-.601.65-.638 1.033zm.231-.039c2.54 1.024 6.451 2.172 9.252 2.071 1.909-.069 3.823-.232 5.699-.604 2.956-.587 5.802-.994 8.741-.875 1.97.08 3.445.168 5.17.436m-7.523-.572c1.572-1.405 3.625-2.373 5.715-2.502.27-.017 1.192-.038 1.462-.021M17.5 12.5a1 1 0 0 0 1 1" stroke="#333" stroke-miterlimit="10" fill="none"/></svg>