<svg xmlns="http://www.w3.org/2000/svg" viewBox="0 0 32 32"><path d="M26.594 8.448c-.593-.191-1.188-.319-1.711-.333-1.267-.035-2.125 1.179-2.517 2.304-.757 2.175-1.582 4.113-3.002 5.851-1.488 1.82-3.332 3.286-5.357 4.384-3.623 1.966-7.767 2.805-11.931 3.176-.502.045-1.147.263-1.071.813.043.307.31.534.556.714 5.392 3.947 12.385 4.669 17.968 2.254 2.951-1.276 5.503-3.385 7.484-6.002 1.054-1.392 2.028-2.947 2.767-4.607.692-1.556 1.649-3.607 1.009-5.448-.353-1.017-1.288-1.716-2.162-2.211a11.151 11.151 0 0 0-2.033-.895zm1.149.21c.983-.81 1.61-1.996 1.636-3.095.026-1.098-.55-2.081-1.503-2.563m-2.256 7.725c-.488 2.37-1.538 4.498-3.029 6.134" stroke="#333" stroke-linecap="round" stroke-linejoin="round" stroke-miterlimit="10" fill="none"/></svg>