<svg xmlns="http://www.w3.org/2000/svg" viewBox="0 0 32 32"><path stroke="#333" stroke-width="2" stroke-miterlimit="10" d="M31 7.938C30.992 4.105 24.994 1.983 15.988 2 6.982 2.017.992 4.163 1 7.996c.003 1.78 1.251 3.019 1.251 3.019.889.884 1.618 2.627 1.62 3.874l.026 12.839A2.291 2.291 0 0 0 6.188 30h19.71c1.258-.003 2.284-1.073 2.283-2.319l-.025-12.839c-.003-1.247.72-2.993 1.605-3.879-.001 0 1.243-1.245 1.239-3.025z" fill="none"/><circle stroke="#333" stroke-miterlimit="10" cx="10" cy="12" r="1.5" fill="none"/><circle stroke="#333" stroke-miterlimit="10" cx="14" cy="24" r="1.5" fill="none"/><circle stroke="#333" stroke-miterlimit="10" cx="22" cy="17" r="1.5" fill="none"/><circle stroke="#333" stroke-miterlimit="10" cx="18" cy="9" r="1.5" fill="none"/></svg>