<svg xmlns="http://www.w3.org/2000/svg" viewBox="0 0 32 32"><path d="M16 14.168c.339-.785 1.059-1.488 1.883-1.634.824-.146 1.724.197 2.219.888.269.375.404.825.397 1.274-.014.865-.598 1.473-1.139 2.124l-1.851 2.209-1.047 1.256a.603.603 0 0 1-.925 0l-1.047-1.256-1.851-2.209c-.541-.65-1.125-1.258-1.139-2.124a2.132 2.132 0 0 1 .397-1.274c.496-.691 1.395-1.035 2.219-.888.824.145 1.545.849 1.884 1.634zM9 8h14v16H9zm11 17v6h-8v-6m0-18V1h8v6" stroke="#333" stroke-linecap="round" stroke-linejoin="round" stroke-miterlimit="10" fill="none"/></svg>