<svg xmlns="http://www.w3.org/2000/svg" viewBox="0 0 32 32"><path d="M16.001 31H16c-.656 0-1.219-.423-1.343-1.009L11.1 13.182c-.316-1.492.122-3.072 1.304-4.147.92-.837 2.192-1.355 3.597-1.355 1.404 0 2.676.518 3.596 1.355 1.182 1.075 1.62 2.655 1.304 4.147l-3.557 16.809c-.124.586-.688 1.009-1.343 1.009zm-.989-23.833L13.174 1m2.849 6.167V2.341m1.195 4.826l1.608-2.413m-5.357 7.277c.276-.391.724-.391 1 0m2 6c.276-.391.724-.391 1 0m-2.188 4.875c.276-.391.724-.391 1 0" stroke="#333" stroke-linecap="round" stroke-linejoin="round" stroke-miterlimit="10" fill="none"/></svg>