<svg xmlns="http://www.w3.org/2000/svg" viewBox="0 0 32 32"><path d="M4.574 27.741c-2.721-.89-4.211-3.819-3.312-6.509l4.58-13.697c.9-2.691 3.862-4.164 6.583-3.274 2.721.89 4.211 3.819 3.312 6.509l-4.58 13.697c-.899 2.69-3.862 4.163-6.583 3.274zm-.836-13.298l9.4 3.073M24.063 28h-.126C20.122 28 17 24.878 17 21.063v-.126C17 17.122 20.122 14 23.937 14h.126C27.878 14 31 17.122 31 20.937v.126C31 24.878 27.878 28 24.063 28zM22.02 14.432l3.96 13.135" stroke="#333" stroke-width="2" stroke-linecap="round" stroke-linejoin="round" stroke-miterlimit="10" fill="none"/></svg>