<svg xmlns="http://www.w3.org/2000/svg" viewBox="0 0 32 32"><g stroke="#333" stroke-width="2" stroke-linejoin="round" stroke-miterlimit="10" fill="none"><path d="M15.891 15.437c-1.344-.916-2.571-2.079-2.754-3.166.898-1.672.62-4.894-1.831-7.345-2.434-2.429-6.785-4.14-9.16-1.843l-.064.06.002.002c-2.3 2.369-.586 6.713 1.848 9.142 2.453 2.449 5.681 2.726 7.356 1.83 1.11.185 2.297 1.452 3.222 2.822m1.685 2.591l10.014 9.996.002-.002.02.025a1.549 1.549 0 0 0 2.187 0l.179-.179a1.542 1.542 0 0 0 0-2.183l-.026-.019.003-.003-10.205-10.187m5.285-2.491L31 7.158"/><path d="M18.484 9.329a3.82 3.82 0 0 0-.444 2.228c-.261 4.318-3.99 5.269-4.546 5.824-.612.616-10.085 10.067-10.085 10.067l.001.001-.026.02a1.483 1.483 0 0 0 .001 2.097 1.494 1.494 0 0 0 2.104.001l.016-.022.001.001L15.58 19.5c.643-.645 2.163-4.504 6.123-4.541a.066.066 0 0 1 .021-.003 3.852 3.852 0 0 0 1.931-.468l-5.171-5.159zm0 0L25.83 2m-4.674 9.821l7.259-7.242"/></g></svg>