<svg xmlns="http://www.w3.org/2000/svg" viewBox="0 0 32 32"><g stroke="#333" stroke-linecap="round" stroke-linejoin="round" stroke-miterlimit="10" fill="none"><path d="M16 9.244c-.052-.827-.052-1.656-.111-2.482-.056-.789-.138-1.611-.495-2.322a4.5 4.5 0 0 0-1.06-1.373A4.45 4.45 0 0 0 11.672 2"/><path d="M16 27.537c.385 1.255 1.958 2.38 3.295 2.456 1.338.076 2.646-.51 3.664-1.36 2.827-2.361 4.784-6.371 5.647-9.844.603-2.425.567-5.062-.488-7.337-1.055-2.275-3.225-4.119-5.756-4.459-2.451-.329-5.047.854-6.362 2.902-1.315-2.048-3.911-3.231-6.363-2.902-2.53.34-4.7 2.184-5.755 4.459-1.055 2.275-1.09 4.912-.488 7.337.863 3.473 2.82 7.483 5.647 9.844 1.018.85 2.327 1.436 3.664 1.36 1.337-.076 2.91-1.201 3.295-2.456zM6.864 14.369c0-1.628 1.264-2.945 2.825-2.945"/></g></svg>