<svg xmlns="http://www.w3.org/2000/svg" viewBox="0 0 32 32"><path stroke="#333" stroke-width="2" stroke-linecap="round" stroke-linejoin="round" stroke-miterlimit="10" d="M16.136 8.161c-5.183 2.735-8.269 7.715-8.153 12.418 3.873 2.721 9.764 2.962 14.947.227 4.719-2.491 7.661-6.821 8.062-11.127a1.984 1.984 0 0 0-1.041-1.937c-3.829-2.073-9.096-2.071-13.815.419zM1 18.468l3.491 1.056 3.491 1.056-1.065 3.46-1.065 3.46-.802-2.645a12.256 12.256 0 0 0-2.284-4.251L1 18.468zM19.02 6.289c-.858-1.085-2.207-1.762-3.563-1.788a4.453 4.453 0 0 0-3.529 1.652c1.428.081 2.777 1.148 3.209 2.536" fill="none"/><path fill="#333" d="M25.722 8.058a1 1 0 1 0 1.003 1 .997.997 0 0 0-.998-1h-.005"/><path stroke="#333" stroke-linecap="round" stroke-linejoin="round" stroke-miterlimit="10" d="M23.5 11.5c0 1.658 1.342 3 3 3" fill="none"/></svg>