<svg xmlns="http://www.w3.org/2000/svg" viewBox="0 0 32 32"><path d="M23.759 21.043c-.915 1.061-1.827 2.12-2.727 3.172l-3.491 4.083c-.8.935-2.282.935-3.082 0l-3.49-4.083c-1.025-1.199-2.067-2.406-3.109-3.616m-4.574-5.336c-1.237-1.518-2.252-3.106-2.285-5.127a6.807 6.807 0 0 1 1.324-4.14C3.977 3.75 6.976 2.633 9.722 3.108 12.468 3.583 14.871 5.87 16 8.42c1.129-2.55 3.531-4.837 6.278-5.312 2.746-.475 5.745.641 7.397 2.888a6.807 6.807 0 0 1 1.324 4.14c-.034 2.04-1.067 3.639-2.321 5.17M1 18h8l4-6 5 9 2-3h11" stroke="#333" stroke-width="2" stroke-linecap="round" stroke-linejoin="round" stroke-miterlimit="10" fill="none"/></svg>