<svg xmlns="http://www.w3.org/2000/svg" viewBox="0 0 32 32"><path d="M31 15c0 4.142-1.679 7.892-4.393 10.607S20.142 30 16 30a14.957 14.957 0 0 1-10.607-4.393A14.957 14.957 0 0 1 1 15l10.676.712c2.879.192 5.768.192 8.647 0L31 15zM12 1.5c-.782.375-1.434 1.184-1.76 2.182-.326.998-.32 2.17.016 3.163.272.805.739 1.467 1.12 2.193.381.726.69 1.594.576 2.462M15 1.5c-.782.375-1.434 1.184-1.76 2.182a5.162 5.162 0 0 0 .016 3.163c.272.805.739 1.467 1.12 2.193.381.726.69 1.594.576 2.462M18 1.5c-.782.375-1.434 1.184-1.76 2.182a5.162 5.162 0 0 0 .016 3.163c.272.805.739 1.467 1.12 2.193.381.726.69 1.594.576 2.462M21 1.5c-.782.375-1.434 1.184-1.76 2.182a5.162 5.162 0 0 0 .016 3.163c.272.805.739 1.467 1.12 2.193.381.726.69 1.594.576 2.462" stroke="#333" stroke-linecap="round" stroke-linejoin="round" stroke-miterlimit="10" fill="none"/></svg>