<svg xmlns="http://www.w3.org/2000/svg" viewBox="0 0 32 32"><path d="M15.525 2.033c1.228 2.377.972 5.438-.634 7.581-1.668 2.227-4.434 3.288-6.997 4.393-2.562 1.105-5.254 2.55-6.367 5.096-.889 2.033-.572 4.427.339 6.449.911 2.023 2.363 3.75 3.796 5.448M22.32 1l-.091 3.915c3.072.072 6.066 1.558 7.598 4.205 1.532 2.648 1.565 6.091.083 8.767C28.429 20.563 25.07 22.87 22 23c-2.587.109-4.673-1.383-6.983-2.546-1.351-.68-2.886-1.443-4.308-.925-1.669.608-2.274 2.793-1.737 4.478.537 1.685 1.882 2.973 3.177 4.184m13.662-11.904a4.249 4.249 0 0 0 0-6.038" stroke="#333" stroke-linecap="round" stroke-linejoin="round" stroke-miterlimit="10" fill="none"/></svg>