<svg xmlns="http://www.w3.org/2000/svg" viewBox="0 0 32 32"><path stroke="#333" stroke-width="2" stroke-linecap="round" stroke-miterlimit="10" d="M22.57 31H9.43C8.64 31 8 30.36 8 29.57V2.43C8 1.64 8.64 1 9.43 1h13.14c.79 0 1.43.64 1.43 1.43v27.14c0 .79-.64 1.43-1.43 1.43z" fill="none"/><path fill="#333" d="M21 4v10H11V4h10m.111-1H10.889a.889.889 0 0 0-.889.889v10.222c0 .491.398.889.889.889h10.222a.889.889 0 0 0 .889-.889V3.889A.889.889 0 0 0 21.111 3z"/><circle stroke="#333" stroke-linecap="round" stroke-miterlimit="10" cx="16" cy="24" r="4.5" fill="none"/><circle stroke="#333" stroke-linecap="round" stroke-miterlimit="10" cx="16" cy="24" r="1.5" fill="none"/></svg>