<svg xmlns="http://www.w3.org/2000/svg" viewBox="0 0 32 32"><path d="M26.658 14.436s-1.501-2.957-2.091-5.482c-.549-2.356-.88-7.198-.88-7.198A.818.818 0 0 0 22.892 1H20.41a.752.752 0 0 0-.743.757v2.762c0 .416-.064 1.091-.143 1.5 0 0-.186.962-.733 1.589A3.685 3.685 0 0 1 16 8.872a3.686 3.686 0 0 1-2.684-1.145c-.609-.643-.829-1.71-.829-1.71a8.952 8.952 0 0 1-.153-1.498V1.757A.753.753 0 0 0 11.59 1H9.107a.817.817 0 0 0-.794.756s-.319 4.744-.85 7.069c-.591 2.583-2.122 5.612-2.122 5.612C5.153 14.805 5 15.45 5 15.866v14.378c0 .415.334.756.743.756h20.514a.752.752 0 0 0 .743-.757V15.866c0-.416-.153-1.06-.342-1.43zM15.57 25L18 17h-4" stroke="#333" stroke-width="2" stroke-linejoin="round" stroke-miterlimit="10" fill="none"/></svg>