<svg xmlns="http://www.w3.org/2000/svg" viewBox="0 0 32 32"><path d="M11 5H5.945c-2.291 0-4.1 1.844-3.934 4.087L3.439 28.34C3.55 29.857 4.838 31 6.389 31h19.192c1.549 0 2.836-1.173 2.951-2.688L29.99 9.093C30.159 6.848 28.349 5 26.055 5H21m-9.804-.364A5 5 0 0 1 16.003 1a5 5 0 0 1 4.807 3.636c.123.434.193.891.193 1.364a5 5 0 0 1-10 0c0-.473.07-.93.193-1.364zm4.807 17.009v8.871m0-21.834V11" stroke="#333" stroke-width="2" stroke-linecap="round" stroke-linejoin="round" stroke-miterlimit="10" fill="none"/></svg>