<svg xmlns="http://www.w3.org/2000/svg" viewBox="0 0 32 32"><path d="M16 31V9.771M16 1c-1.163.587-2 2.148-2 4s.837 3.413 2 4c1.163-.587 2-2.148 2-4s-.837-3.413-2-4zm6.862 7.138c-1.252-.412-2.967.106-4.293 1.431-1.325 1.325-1.843 3.041-1.431 4.293 1.252.412 2.967-.106 4.293-1.431 1.325-1.325 1.843-3.041 1.431-4.293zm-13.724 0c1.252-.412 2.967.106 4.293 1.431s1.843 3.041 1.431 4.293c-1.252.412-2.967-.106-4.293-1.431S8.726 9.39 9.138 8.138zm13.724 8c-1.252-.412-2.967.105-4.293 1.431-1.325 1.325-1.843 3.041-1.431 4.293 1.252.412 2.967-.105 4.293-1.431 1.325-1.326 1.843-3.041 1.431-4.293zm-13.724 0c1.252-.412 2.967.105 4.293 1.431 1.325 1.325 1.843 3.041 1.431 4.293-1.252.412-2.967-.105-4.293-1.431-1.325-1.326-1.843-3.041-1.431-4.293zm13.724 8c-1.252-.412-2.967.105-4.293 1.431-1.325 1.325-1.843 3.041-1.431 4.293 1.252.412 2.967-.105 4.293-1.431 1.325-1.326 1.843-3.041 1.431-4.293zm-13.724 0c1.252-.412 2.967.105 4.293 1.431 1.325 1.325 1.843 3.041 1.431 4.293-1.252.412-2.967-.105-4.293-1.431-1.325-1.326-1.843-3.041-1.431-4.293z" stroke="#333" stroke-width="2" stroke-linecap="round" stroke-linejoin="round" stroke-miterlimit="10" fill="none"/></svg>