<svg xmlns="http://www.w3.org/2000/svg" viewBox="0 0 32 32"><path d="M16 8.42c1.129-2.55 3.531-4.837 6.278-5.312 2.746-.475 5.745.641 7.397 2.888a6.807 6.807 0 0 1 1.324 4.14c-.047 2.813-1.993 4.787-3.797 6.902-2.044 2.396-4.139 4.803-6.17 7.178l-3.491 4.083c-.8.935-2.282.935-3.082 0l-3.491-4.083c-2.031-2.376-4.126-4.782-6.17-7.178-1.804-2.114-3.75-4.089-3.797-6.902a6.8 6.8 0 0 1 1.324-4.14C3.977 3.75 6.976 2.633 9.722 3.108S14.871 5.87 16 8.42zM5.087 10.195c0-1.658 1.342-3 3-3" stroke="#333" stroke-linecap="round" stroke-linejoin="round" stroke-miterlimit="10" fill="none"/></svg>