<svg xmlns="http://www.w3.org/2000/svg" viewBox="0 0 32 32"><path d="M16.282 15.194l1.681 5.489c.039.127.153.291.282.291h5.457c.285 0 .406.298.177.475l-4.427 3.374a.282.282 0 0 0-.105.32l1.687 5.446c.088.283-.226.511-.457.336l-4.403-3.336a.29.29 0 0 0-.351-.001l-4.403 3.351c-.231.176-.545-.057-.458-.341l1.688-5.479a.314.314 0 0 0-.105-.339L8.12 21.449c-.229-.176-.108-.475.177-.475h5.457c.129 0 .243-.164.282-.291l1.681-5.45c.089-.283.477-.323.565-.039zm-.403-3.21L5.357 9.109A.496.496 0 0 1 5 8.625V2.501A.49.49 0 0 1 5.478 2h21.043a.49.49 0 0 1 .479.501v6.124a.498.498 0 0 1-.358.485L16.12 11.984a.469.469 0 0 1-.241 0zM21.5 4.5v3m-11-3v3" stroke="#333" stroke-linecap="round" stroke-miterlimit="10" fill="none"/></svg>