<svg xmlns="http://www.w3.org/2000/svg" viewBox="0 0 32 32"><g stroke="#333" stroke-linecap="round" stroke-linejoin="round" stroke-miterlimit="10" fill="none"><path d="M1.5 29.5l4.831 1 4.83-1s2.415 1 4.83 1l4.834-1 4.838 1s2.419-1 4.838-1M1.5 27.5l4.831 1 4.83-1s2.415 1 4.83 1l4.834-1 4.838 1s2.419-1 4.838-1M6 21v5m10-5v5m10-5v5m3-5H3a1 1 0 0 1-1-1v-8a1 1 0 0 1 1-1h26a1 1 0 0 1 1 1v8a1 1 0 0 1-1 1zM11.5 11L9 .5 6.5 11m.781-2.625l3.185-1.31"/><path d="M10.466 7.065L7.953 5l2.513 2.065zM26.5 8.5h-7a1 1 0 0 1-1-1v-1a1 1 0 0 1 1-1h7a1 1 0 0 1 1 1v1a1 1 0 0 1-1 1zm-1 0V11m-5-2.5V11m-16 2.5h3v2h-3zm5 0h3v2h-3zm5 0h3v2h-3z"/></g></svg>