<svg xmlns="http://www.w3.org/2000/svg" viewBox="0 0 32 32"><g stroke="#333" stroke-linecap="round" stroke-linejoin="round" stroke-miterlimit="10" fill="none"><path d="M27 8.515V5H13v3.515c-2.443 2.018-4 5.07-4 8.485 0 6.075 4.925 11 11 11s11-4.925 11-11c0-3.416-1.557-6.468-4-8.485zM13 8.5h14M15.5 5v3.5m9-3.5v3.5m-3-3.5v3.5m-3-3.5v3.5M20 28v3m8-6.452V31m-16-6.455V31m9.5-19.5h7.833m-7.833 3h9m-9 3h9.208m-9.208 3h8.708m-8.708 3h7.125M4 19V3a2 2 0 0 1 2-2h12a2 2 0 0 1 2 2v2"/><circle cx="4" cy="22" r="3"/><path d="M4 22l1.156-2.5M1 22h3l1.643 2.51"/></g></svg>