<svg xmlns="http://www.w3.org/2000/svg" viewBox="0 0 32 32"><g stroke="#333" stroke-linecap="round" stroke-linejoin="round" stroke-miterlimit="10" fill="none"><path d="M22.894 28.956l-.536.153a23.127 23.127 0 0 1-12.715 0l-.536-.153c-.362-.103-.635-.44-.696-.859l-1.053-7.193a33.875 33.875 0 0 1 0-9.81L8.41 3.902c.061-.419.335-.756.696-.859l.536-.153a23.127 23.127 0 0 1 12.715 0l.536.153c.362.103.635.44.696.859l1.053 7.193a33.875 33.875 0 0 1 0 9.81l-1.053 7.193c-.06.418-.334.756-.695.858zM7 2l1.459 1.571m15.072.011L25 2m0 28l-1.454-1.565m-15.101.009L7 30"/><path d="M20.63 18.5h-9.26l-.723-1.757a1.951 1.951 0 0 1 0-1.486l.723-1.757h9.26l.723 1.757a1.951 1.951 0 0 1 0 1.486L20.63 18.5z"/></g></svg>