<svg xmlns="http://www.w3.org/2000/svg" viewBox="0 0 32 32"><g stroke="#333" stroke-linecap="round" stroke-linejoin="round" stroke-miterlimit="10" fill="none"><path d="M13.454 17.157l-7.868 3.576a1.002 1.002 0 0 0-.586.911V30h22v-8.356a1 1 0 0 0-.586-.91l-7.868-3.576m2.038-7.541c.265.731.416 1.535.416 2.383 0 2.196-.987 4.112-2.454 5.157C17.8 17.689 16.931 18 16 18s-1.8-.311-2.546-.843C11.987 16.112 11 14.196 11 12c0-.846.15-1.649.414-2.378"/><path d="M21.163 9.443C19.77 9.79 17.969 10 16 10c-1.969 0-3.77-.21-5.163-.557C9.103 9.011 8 8.367 8 7.647c0-.699 1.843-1.325 3.749-1.756l-.016-.127C11.733 3.685 13.644 2 16 2c2.356 0 4.267 1.685 4.267 3.765l-.016.128C22.146 6.323 24 6.949 24 7.647c0 .72-1.103 1.364-2.837 1.796zM8.5 30v-4.5a1 1 0 0 1 1-1h13a1 1 0 0 1 1 1V30m-13-11.5v6m11-6v6"/><circle cx="11" cy="27" r=".5"/><circle cx="21" cy="27" r=".5"/></g></svg>