<svg xmlns="http://www.w3.org/2000/svg" viewBox="0 0 32 32"><path d="M9.5 11l3.25-2L16 11v4l-3.25 2-3.25-2zm6.5 0l3.25-2 3.25 2v4l-3.25 2L16 15zm6.5 0l3.25-2L29 11v4l-3.25 2-3.25-2zm-3.25-6l3.25-2 3.25 2v4l-3.25 2-3.25-2zm-13 0L9.5 3l3.25 2v4L9.5 11 6.25 9zm0 12l3.25-2 3.25 2v4L9.5 23l-3.25-2zm6.5 0L16 15l3.25 2v4L16 23l-3.25-2zm6.5 0l3.25-2 3.25 2v4l-3.25 2-3.25-2zM3 11l3.25-2 3.25 2v4l-3.25 2L3 15zm6.5 12l3.25-2L16 23v4l-3.25 2-3.25-2zm6.5 0l3.25-2 3.25 2v4l-3.25 2L16 27zm6.5 0l3.25-2L29 23v4l-3.25 2-3.25-2zM3 23l3.25-2 3.25 2v4l-3.25 2L3 27z" stroke="#333" stroke-width="2" stroke-linecap="round" stroke-linejoin="round" stroke-miterlimit="10" fill="none"/></svg>