<svg xmlns="http://www.w3.org/2000/svg" viewBox="0 0 32 32"><path d="M22 30H2M2 2h20M3 30V2m18 24.241V30m0-17.432V2M2 10.5h20m-20 11h16m3.5-9.756c.215-.431.427-.848.631-1.244C23.171 8.476 24 7 24 7s6 10.686 6 14-2.686 6-6 6a5.972 5.972 0 0 1-2.5-.551 5.997 5.997 0 0 1-3.475-4.949A6.34 6.34 0 0 1 18 21c0-1.842 1.853-5.96 3.5-9.256zm0 0c.215-.431.427-.848.631-1.244C23.171 8.476 24 7 24 7s6 10.686 6 14-2.686 6-6 6a5.972 5.972 0 0 1-2.5-.551 5.997 5.997 0 0 1-3.475-4.949A6.34 6.34 0 0 1 18 21c0-1.842 1.853-5.96 3.5-9.256zm0 0c.215-.431.427-.848.631-1.244C23.171 8.476 24 7 24 7s6 10.686 6 14-2.686 6-6 6a5.972 5.972 0 0 1-2.5-.551 5.997 5.997 0 0 1-3.475-4.949A6.34 6.34 0 0 1 18 21c0-1.842 1.853-5.96 3.5-9.256zm0 0c.215-.431.427-.848.631-1.244C23.171 8.476 24 7 24 7s6 10.686 6 14-2.686 6-6 6a5.972 5.972 0 0 1-2.5-.551 5.997 5.997 0 0 1-3.475-4.949A6.34 6.34 0 0 1 18 21c0-1.842 1.853-5.96 3.5-9.256zm.23 11.551a3.946 3.946 0 0 1-.711-1.959l-.007-.083a32.013 32.013 0 0 0-.006-.083l-.004-.084L21 21c0-.074.01-.242.074-.551.064-.308.181-.757.397-1.392.215-.635.529-1.457.984-2.511M5.5 12.5v7m0 4v4m0-23v4" stroke="#333" stroke-linecap="round" stroke-linejoin="round" stroke-miterlimit="10" fill="none"/></svg>