<svg xmlns="http://www.w3.org/2000/svg" viewBox="0 0 32 32"><path d="M3 17h26v14H3zm2.25 0L6 5h4l.75 12m2.5 0L14 5h4l.75 12M26 17v-3a2 2 0 1 0-4 0v3m-2 14v-7h5v7M6.5 21.5h4v3h-4zm6 0h4v3h-4zm2.858-20.483c.311-.217.643-.368.981-.449s.684-.091 1.023-.024.672.212.984.44c.172.125.338.266.501.414l.481.464.478.474c.16.155.323.306.49.445s.342.266.523.374c.181.107.366.195.554.255.188.06.378.093.567.089.189-.003.377-.043.56-.125m-1-1.701a3.441 3.441 0 0 1 1.403-.158c.237.023.47.071.689.146l.351.138.337.155.334.158.343.148.366.125.388.085c.131.02.264.031.397.03.132-.001.264-.014.392-.042" stroke="#333" stroke-linecap="round" stroke-linejoin="round" stroke-miterlimit="10" fill="none"/></svg>