<svg xmlns="http://www.w3.org/2000/svg" viewBox="0 0 32 32"><path d="M30 30H2a5 5 0 0 1 3.061-4.609C5.365 22.92 7.447 21 10 21a4.97 4.97 0 0 1 1.78.341 4.983 4.983 0 0 1 7.72-.906A4.979 4.979 0 0 1 23 19a5 5 0 0 1 5 5 4.97 4.97 0 0 1-.341 1.78A4.985 4.985 0 0 1 30 30zM16.998 19C17.081 13.71 14.609 8.265 10 5.5m-8-1c.491 1.225 1.932 2.227 3.744 2.453C7.556 7.18 9.208 6.564 10 5.5c-.491-1.224-1.932-2.227-3.744-2.453C4.444 2.82 2.792 3.436 2 4.5zm25.998-1.88c-1.66-1.01-4.198-.801-6.463.731-2.264 1.531-3.59 3.935-3.533 6.029 1.66 1.01 4.198.8 6.463-.731s3.59-3.935 3.533-6.029zm-9.996 6.76c-1.199.59-1.956 1.743-2.246 3.022m6.644 9.167c.816-.19 1.727.022 2.352.546.697.584 1.037 1.547.741 2.385" stroke="#333" stroke-linecap="round" stroke-linejoin="round" stroke-miterlimit="10" fill="none"/></svg>