<svg xmlns="http://www.w3.org/2000/svg" viewBox="0 0 32 32"><g stroke="#333" stroke-linecap="round" stroke-linejoin="round" stroke-miterlimit="10" fill="none"><circle cx="9" cy="27" r="3"/><circle cx="23" cy="27" r="3"/><path d="M26 27h2l3-16H1l3 16h2m14 0h-8M1.75 14.5h28.5m-1.788-3.538c.025-.168.038-.34.038-.514 0-1.702-1.224-3.12-2.879-3.543.06-.214.101-.435.101-.668 0-1.453-1.244-2.632-2.778-2.632-.629 0-1.202.205-1.668.539l.001-.013c0-1.453-1.244-2.632-2.778-2.632-.99 0-1.853.494-2.345 1.232a2.883 2.883 0 0 0-.989-.18c-1.534 0-2.778 1.178-2.778 2.632l.019.177a4.046 4.046 0 0 0-1.13-.177c-1.765 0-3.239 1.122-3.714 2.648l-.173-.015c-1.939 0-3.546 1.344-3.841 3.102M14.5 6A1.5 1.5 0 0 1 16 4.5m6 1A1.5 1.5 0 0 1 23.5 7"/></g></svg>