<svg xmlns="http://www.w3.org/2000/svg" viewBox="0 0 32 32"><g stroke="#333" stroke-linecap="round" stroke-linejoin="round" stroke-miterlimit="10" fill="none"><path d="M2 14h28v16H2zm15.414-6.586A1.994 1.994 0 0 1 16 8a1.994 1.994 0 0 1-1.414-.586C14.224 7.052 14 6.552 14 6s.224-1.052.586-1.414A1.994 1.994 0 0 1 16 4V2"/><path d="M15.5 8l-11 6m12-6l11 6m-11-6l-5 6m4-6l5 6m-13 13.5h-1a1 1 0 0 1-1-1v-9a1 1 0 0 1 1-1h1a1 1 0 0 1 1 1v9a1 1 0 0 1-1 1zm18 0h-1a1 1 0 0 1-1-1v-9a1 1 0 0 1 1-1h1a1 1 0 0 1 1 1v9a1 1 0 0 1-1 1zm-6 0h-1a1 1 0 0 1-1-1v-9a1 1 0 0 1 1-1h1a1 1 0 0 1 1 1v9a1 1 0 0 1-1 1zm-6 0h-1a1 1 0 0 1-1-1v-9a1 1 0 0 1 1-1h1a1 1 0 0 1 1 1v9a1 1 0 0 1-1 1z"/></g></svg>