<svg xmlns="http://www.w3.org/2000/svg" viewBox="0 0 32 32"><path d="M17 9l3 22H6L9 9M8 9h10m-7.273 14.5h7.585m-7-6h6.334M25.5 6.891c-.524 1.39-2.04 1.749-3.402 1.565-2.7-.365-2.491-2.854-4.326-3.81-2.117-1.103-3.782.439-4.632 2.284.027-.06-.237-.497-.271-.573-.412-.916-.533-1.921-.087-2.852 1.061-2.213 4.468-2.523 6.261-1.276.761.53 1.753 1.643 2.165 2.877.153.458.323.921.619 1.305.792 1.024 2.61 1.093 3.673.48" stroke="#333" stroke-linecap="round" stroke-linejoin="round" stroke-miterlimit="10" fill="none"/></svg>