<svg xmlns="http://www.w3.org/2000/svg" viewBox="0 0 32 32"><g stroke="#333" stroke-linejoin="round" stroke-miterlimit="10" fill="none"><path d="M1.5 21.778c5.93-.646 12.039-.148 17.763 1.321A47.787 47.787 0 0 1 28.5 26.5m-27-2.722c5.93-.646 12.039-.148 17.763 1.321A47.787 47.787 0 0 1 28.5 28.5m-27-2.722c5.93-.646 12.039-.148 17.763 1.321A47.787 47.787 0 0 1 28.5 30.5"/><circle cx="23" cy="9" r="3"/><path d="M23 1.5v2m0 11v2M30.5 9h-2m-11 0h-2m12.803-5.303l-1.414 1.414m-7.778 7.778l-1.414 1.414m10.606 0l-1.414-1.414m-7.778-7.778l-1.414-1.414M6 21.5V16"/><ellipse cx="6" cy="12" rx="3" ry="4"/></g></svg>