<svg xmlns="http://www.w3.org/2000/svg" viewBox="0 0 32 32"><g stroke="#333" stroke-linecap="round" stroke-linejoin="round" stroke-miterlimit="10" fill="none"><circle cx="6" cy="26" r="4"/><circle cx="6" cy="26" r="1.5"/><path d="M6 22L1 11h23v6.438zM31 8h-4l-3 3m0 6.438c0 4.094-.774 7.353-2.352 7.553-1.453.184-2.865-2.448-3.321-6.028M21.5 11V9.5a2.682 2.682 0 0 0-2.671-2.692 2.63 2.63 0 0 0-1.604.552l.001-.013a2.682 2.682 0 0 0-2.671-2.692c-.2 0-.394.026-.581.068C13.752 3.46 12.665 2.5 11.349 2.5a2.682 2.682 0 0 0-2.671 2.692l.001.013a2.634 2.634 0 0 0-1.604-.551 2.682 2.682 0 0 0-2.603 3.278 2.653 2.653 0 0 0-1.603.957c-.26.325-.369.746-.369 1.162V11m12.377-2.975c-.355-.598-1.055-1.005-1.86-1.005-.158 0-.311.018-.459.048-.175-.89-1.033-1.568-2.072-1.568"/></g></svg>