<svg xmlns="http://www.w3.org/2000/svg" viewBox="0 0 32 32"><g stroke="#333" stroke-linecap="round" stroke-linejoin="round" stroke-miterlimit="10" fill="none"><path d="M30 14l-4 14H6L2 14m20.179 1.543c.165-.027.349-.043.56-.043l3.38 1s1.69-1 3.38-1M2.5 15.5l3.374 1c1.265 0 1.581-.562 2.372-.844"/><path d="M17.516 4.13c-1.72.387-2.702 1.583-4 2.699a39.856 39.856 0 0 1-3.173 2.462c-.918.641-2.664 1.226-2.292 2.415.163.52.721.689 1.204.667.279-.012.551-.049.823-.119.187-.048 1.682-.836 1.829-.973-.381.355-1.889 1.455-2.256 1.825-.336.34-.718.65-1.031 1.012a1.915 1.915 0 0 0-.376.668c-.08.253-.076.573.15.743a.77.77 0 0 0 .511.13c.464-.029.915-.257 1.322-.47.522-.272 1.02-.592 1.504-.926a34.474 34.474 0 0 0 1.645-1.223l.215-.149c-.42.594-1.005 1.108-1.504 1.637-.521.552-1.048 1.099-1.547 1.671-.406.466-1.036.998-.905 1.669a.918.918 0 0 0 .679.725c.529.123.983-.308 1.375-.61.491-.378.944-.799 1.408-1.209.419-.372.833-.75 1.238-1.138.229-.22.483-.439.675-.693l.011-.015c-.915 1.02-1.847 2.059-2.601 3.203-.218.331-.551.684-.562 1.096-.021.787 1.041.857 1.603.711.76-.197 1.395-.744 1.961-1.265.505-.465.993-.945 1.493-1.415.255-.24.514-.477.779-.707.181-.157.331-.353.531-.489.511-.35.176.506.136.684-.117.516-.124 1.047-.09 1.568.077.878.989 1.709 1.783 1.342.476-.221.715-.758.914-1.25l1.945-4.832c.543-1.349 1.095-2.742 1.088-4.195-.008-1.621-.763-3.215-2-4.227-1.198-.98-2.817-1.351-4.347-1.052l-.138.03z"/></g></svg>