<svg xmlns="http://www.w3.org/2000/svg" viewBox="0 0 32 32"><path d="M30 9l-4 14H6L2 9m.5 1.5l3.374 1s1.687-1 3.374-1l3.37 1 3.374-1s1.687 1 3.374 1 1.687-1 3.375-1l3.38 1s1.69-1 3.38-1" stroke="#333" stroke-linecap="round" stroke-linejoin="round" stroke-miterlimit="10" fill="none"/><path d="M15.536 14.07l-2.602 6.509h-1.03l2.671-6.309h-3.672v-.85h4.634v.65zm3.228-.771c1.556 0 2.334 1.237 2.334 3.711 0 2.461-.778 3.691-2.334 3.691-1.553 0-2.329-1.231-2.329-3.691 0-2.474.776-3.711 2.329-3.711zm0 6.68c.452 0 .796-.218 1.03-.654.234-.436.352-1.208.352-2.314 0-1.11-.117-1.886-.352-2.327-.234-.441-.578-.662-1.03-.662-.449 0-.791.221-1.025.662s-.352 1.217-.352 2.327c0 1.107.117 1.878.352 2.314.234.435.576.654 1.025.654z" fill="#333"/></svg>