<svg xmlns="http://www.w3.org/2000/svg" viewBox="0 0 32 32"><path d="M8.169 29.331L7.5 30.5m2.008-3.508l-.67 1.17m2.008-3.508l-.669 1.169m2.677-4.677l-.669 1.169-.669 1.169m11.315 5.847L23.5 30.5m-2.008-3.508l.669 1.17m-2.007-3.508l.669 1.169m-2.677-4.677l.669 1.169.669 1.169m-.536 5.847l.375 1.169m-1.125-3.508l.375 1.17m-1.125-3.508l.375 1.169m-1.5-4.677l.375 1.169.375 1.169m-5.021 5.847l-.375 1.169m1.125-3.508l-.375 1.17m1.125-3.508l-.375 1.169m1.5-4.677l-.375 1.169-.375 1.169M5 30l22-6m0 6L5 24M25.75 2H8L2 21h28v-4a8 8 0 0 0-8-8H6" stroke="#333" stroke-linecap="round" stroke-linejoin="round" stroke-miterlimit="10" fill="none"/></svg>