<svg xmlns="http://www.w3.org/2000/svg" viewBox="0 0 32 32"><path d="M30 9l-4 14H6L2 9m.5 1.5l3.374 1s1.687-1 3.374-1l3.37 1 3.374-1s1.687 1 3.374 1 1.687-1 3.375-1l3.38 1s1.69-1 3.38-1" stroke="#333" stroke-linecap="round" stroke-linejoin="round" stroke-miterlimit="10" fill="none"/><path d="M14.213 16.648c.436.114.773.336 1.008.664.236.329.354.714.354 1.157 0 .661-.226 1.198-.679 1.611-.453.413-1.014.62-1.685.62-.674 0-1.222-.184-1.646-.552-.423-.368-.651-.854-.684-1.46h.952c0 .351.119.654.356.908.238.254.578.381 1.021.381.43 0 .773-.138 1.028-.415.255-.277.383-.635.383-1.074 0-.449-.133-.795-.398-1.038s-.652-.364-1.16-.364h-.352v-.716h.21c.892 0 1.338-.41 1.338-1.231 0-.361-.098-.638-.293-.83-.195-.192-.47-.288-.825-.288-.729 0-1.136.379-1.221 1.138h-.947c.068-.605.299-1.067.693-1.384.394-.317.879-.476 1.455-.476.638 0 1.146.173 1.523.52.377.347.566.793.566 1.34 0 .306-.082.595-.247.867-.16.272-.412.479-.75.622zm4.57-3.349c1.556 0 2.334 1.237 2.334 3.711 0 2.461-.778 3.691-2.334 3.691-1.553 0-2.329-1.231-2.329-3.691 0-2.474.776-3.711 2.329-3.711zm0 6.68c.453 0 .796-.218 1.03-.654.234-.436.352-1.208.352-2.314 0-1.11-.117-1.886-.352-2.327s-.578-.662-1.03-.662c-.449 0-.791.221-1.025.662s-.351 1.217-.351 2.327c0 1.107.117 1.878.351 2.314.234.435.576.654 1.025.654z" fill="#333"/></svg>