<svg xmlns="http://www.w3.org/2000/svg" viewBox="0 0 32 32"><path d="M30 9l-4 14H6L2 9m.5 1.5l3.374 1s1.687-1 3.374-1l3.37 1 3.374-1s1.687 1 3.374 1 1.687-1 3.375-1l3.38 1s1.69-1 3.38-1" stroke="#333" stroke-linecap="round" stroke-linejoin="round" stroke-miterlimit="10" fill="none"/><path d="M12.064 16.258c.354-.287.798-.43 1.328-.43.596 0 1.115.211 1.558.632.442.421.664.984.664 1.687 0 .736-.222 1.345-.667 1.829-.443.483-1.035.725-1.774.725-.605 0-1.123-.167-1.553-.503-.43-.335-.679-.835-.747-1.499h.952c.052.433.202.754.452.964.248.21.547.315.896.315.442 0 .802-.167 1.077-.503.274-.335.412-.75.412-1.245 0-.501-.14-.897-.42-1.187-.28-.289-.643-.434-1.089-.434-.511 0-.944.197-1.299.591h-.723l.303-3.779h3.838v.85H12.22l-.156 1.987zm6.729-2.959c1.556 0 2.334 1.237 2.334 3.711 0 2.461-.778 3.691-2.334 3.691-1.553 0-2.329-1.231-2.329-3.691 0-2.474.776-3.711 2.329-3.711zm0 6.68c.452 0 .796-.218 1.03-.654.234-.436.352-1.208.352-2.314 0-1.11-.117-1.886-.352-2.327-.234-.441-.578-.662-1.03-.662-.449 0-.791.221-1.025.662-.234.441-.352 1.217-.352 2.327 0 1.107.117 1.878.352 2.314.234.435.576.654 1.025.654z" fill="#333"/></svg>