<svg xmlns="http://www.w3.org/2000/svg" viewBox="0 0 32 32"><path d="M30 9l-4 14H6L2 9m.5 1.5l3.374 1s1.687-1 3.374-1l3.37 1 3.374-1s1.687 1 3.374 1 1.687-1 3.375-1l3.38 1s1.69-1 3.38-1" stroke="#333" stroke-linecap="round" stroke-linejoin="round" stroke-miterlimit="10" fill="none"/><path d="M14.633 17.278c-.472.521-1.016.781-1.631.781-.596 0-1.1-.217-1.511-.652-.412-.435-.618-.987-.618-1.658 0-.68.204-1.259.613-1.736.409-.477.951-.715 1.628-.715.775 0 1.377.298 1.807.894s.644 1.455.644 2.578c0 2.621-.845 3.931-2.534 3.931-.534 0-.987-.15-1.36-.449-.373-.299-.598-.744-.676-1.333h.947c.078.707.459 1.06 1.143 1.06.439 0 .794-.232 1.064-.696.27-.464.432-1.132.484-2.005zm.01-.708c-.013-.824-.155-1.454-.425-1.892-.27-.438-.631-.657-1.084-.657-.397 0-.714.16-.952.479-.238.319-.356.716-.356 1.191 0 .482.121.877.364 1.184.243.308.567.461.974.461.503.001.997-.255 1.479-.766zm4.15-3.271c1.556 0 2.334 1.237 2.334 3.711 0 2.461-.778 3.691-2.334 3.691-1.553 0-2.329-1.231-2.329-3.691 0-2.474.776-3.711 2.329-3.711zm0 6.68c.453 0 .796-.218 1.03-.654.234-.436.352-1.208.352-2.314 0-1.11-.117-1.886-.352-2.327-.234-.441-.578-.662-1.03-.662-.449 0-.791.221-1.025.662-.234.441-.352 1.217-.352 2.327 0 1.107.117 1.878.352 2.314.234.435.576.654 1.025.654z" fill="#333"/></svg>