<svg xmlns="http://www.w3.org/2000/svg" viewBox="0 0 32 32"><path d="M30 9l-4 14H6L2 9m.5 1.5l3.374 1s1.687-1 3.374-1l3.37 1 3.374-1s1.687 1 3.374 1 1.687-1 3.375-1l3.38 1s1.69-1 3.38-1" stroke="#333" stroke-linecap="round" stroke-linejoin="round" stroke-miterlimit="10" fill="none"/><path d="M14.106 16.819c.993.459 1.489 1.079 1.489 1.86 0 .602-.218 1.09-.651 1.462-.436.373-1.006.559-1.712.559-.703 0-1.272-.187-1.706-.559-.436-.373-.652-.86-.652-1.462 0-.781.496-1.401 1.489-1.86-.808-.465-1.211-1.048-1.211-1.748 0-.518.191-.942.573-1.274.383-.332.885-.498 1.507-.498.625 0 1.128.166 1.509.498.381.332.571.757.571 1.274-.001.7-.403 1.283-1.206 1.748zm.537 1.861c0-.309-.112-.575-.337-.798-.225-.223-.583-.443-1.074-.662-.488.218-.845.438-1.069.662a1.084 1.084 0 0 0-.337.798c0 .404.129.721.386.952.257.231.598.347 1.02.347.423 0 .765-.116 1.023-.347.259-.231.388-.549.388-.952zm-1.412-2.242c.755-.338 1.133-.794 1.133-1.367 0-.329-.101-.586-.3-.771-.201-.186-.479-.278-.833-.278-.351 0-.628.093-.827.278-.201.186-.301.443-.301.771.001.573.376 1.029 1.128 1.367zm5.562-3.139c1.556 0 2.334 1.237 2.334 3.711 0 2.461-.778 3.691-2.334 3.691-1.553 0-2.329-1.231-2.329-3.691 0-2.474.776-3.711 2.329-3.711zm0 6.68c.452 0 .796-.218 1.03-.654.234-.436.352-1.208.352-2.314 0-1.11-.117-1.886-.352-2.327-.234-.441-.578-.662-1.03-.662-.449 0-.791.221-1.025.662-.234.441-.352 1.217-.352 2.327 0 1.107.117 1.878.352 2.314.234.435.576.654 1.025.654z" fill="#333"/></svg>