<svg xmlns="http://www.w3.org/2000/svg" viewBox="0 0 32 32"><path d="M30 9l-4 14H6L2 9m.5 1.5l3.374 1s1.687-1 3.374-1l3.37 1 3.374-1s1.687 1 3.374 1 1.687-1 3.375-1l3.38 1s1.69-1 3.38-1" stroke="#333" stroke-linecap="round" stroke-linejoin="round" stroke-miterlimit="10" fill="none"/><path d="M11.82 16.717c.472-.518 1.014-.776 1.626-.776.599 0 1.105.217 1.516.652.412.435.618.987.618 1.658 0 .68-.204 1.259-.612 1.736-.409.477-.952.715-1.629.715-.774 0-1.377-.299-1.807-.896-.43-.597-.644-1.456-.644-2.576 0-2.621.843-3.931 2.529-3.931.537 0 .991.15 1.362.449.371.299.598.744.679 1.333h-.947c-.081-.707-.462-1.06-1.142-1.06-.439 0-.795.232-1.066.696-.274.464-.434 1.131-.483 2zm-.009.713c.013.82.154 1.45.425 1.89.271.44.632.659 1.084.659.398 0 .715-.16.952-.479s.356-.716.356-1.191c0-.482-.121-.877-.363-1.186a1.176 1.176 0 0 0-.975-.464c-.505-.001-.998.257-1.479.771zm6.967-4.131c1.556 0 2.334 1.237 2.334 3.711 0 2.461-.778 3.691-2.334 3.691-1.553 0-2.329-1.231-2.329-3.691 0-2.474.777-3.711 2.329-3.711zm0 6.68c.452 0 .796-.218 1.03-.654.234-.436.352-1.208.352-2.314 0-1.11-.117-1.886-.352-2.327s-.578-.662-1.03-.662c-.449 0-.791.221-1.025.662-.234.441-.351 1.217-.351 2.327 0 1.107.117 1.878.351 2.314.234.435.576.654 1.025.654z" fill="#333"/></svg>