<svg xmlns="http://www.w3.org/2000/svg" viewBox="0 0 32 32"><path d="M24.357 15.593C25.916 14.257 27 12.551 27 9.769 27 6.028 24.093 3 20.5 3S14 6.028 14 9.769C14 6.028 11.093 3 7.5 3S1 6.028 1 9.769c0 8.419 9.898 7 13 15.231a10.842 10.842 0 0 1 2.292-3.674m8.065-5.733c.397.717.643 1.529.643 2.407a5 5 0 0 1-5 5 4.967 4.967 0 0 1-3.708-1.674m8.065-5.733C23.505 14.054 21.884 13 20 13a5 5 0 0 0-5 5c0 1.283.497 2.441 1.292 3.326m7.333.299L31 29" stroke="#333" stroke-width="2" stroke-miterlimit="10" fill="none"/></svg>