<svg xmlns="http://www.w3.org/2000/svg" viewBox="0 0 32 32"><path d="M16 11c0-4.422 3.354-8 7.5-8S31 6.578 31 11c0 9.949-11.42 8.273-15 18-3.58-9.727-15-8.051-15-18 0-4.422 3.354-8 7.5-8S16 6.578 16 11zM5.025 13.715a5.327 5.327 0 0 1-.282-.788 7.372 7.372 0 0 1-.243-1.972c0-.338.026-.667.074-.985a6.07 6.07 0 0 1 .213-.917c.092-.292.205-.57.337-.83.131-.26.28-.502.446-.723m1.93 9a14.449 14.449 0 0 1-1.148-.965" stroke="#333" stroke-linecap="round" stroke-linejoin="round" stroke-miterlimit="10" fill="none"/></svg>