<svg xmlns="http://www.w3.org/2000/svg" viewBox="0 0 32 32"><g stroke="#333" stroke-width="2" stroke-linecap="round" stroke-miterlimit="10" fill="none"><circle cx="23" cy="9" r="8"/><path d="M27 9h-8m7 7.74V31h1.516C29.44 31 31 29.564 31 27.794v-3.74C31 22.282 29.44 21 27.516 21h-1.182M5.833 21H4.484C2.56 21 1 22.282 1 24.053v3.74C1 29.564 2.56 31 4.484 31H6V16.74c0-1.339.204-2.618.718-3.782.514-1.164 1.218-2.214 2.135-3.097a10.144 10.144 0 0 1 3.199-2.093 10.263 10.263 0 0 1 3.138-.74"/></g></svg>