<svg xmlns="http://www.w3.org/2000/svg" viewBox="0 0 32 32"><path d="M16 25v6m-3 0h6m-3-10c-2.75 0-5-2.357-5-5.238V6.238C11 3.357 13.25 1 16 1s5 2.357 5 5.238v9.524C21 18.643 18.75 21 16 21zm8.295-5.1c0 2.39-.933 4.562-2.437 6.138-1.504 1.575-3.577 2.553-5.859 2.553-2.281 0-4.355-.978-5.859-2.553A8.88 8.88 0 0 1 7.705 15.9m3.162-9.336h3.266m3.734 0h3.266m-10.266 7.71h3.266m3.734 0h3.266m-10.266-3.838h3.266M10.867 8.5h1.866m6.534 0h1.866m-10.266 4.355h1.866m6.534 0h1.866m-3.266-2.419h3.266" stroke="#333" stroke-linecap="round" stroke-miterlimit="10" fill="none"/></svg>