<svg xmlns="http://www.w3.org/2000/svg" viewBox="0 0 32 32"><g stroke="#333" stroke-width="2" stroke-miterlimit="10" fill="none"><circle cx="16" cy="16" r="3"/><path d="M29.097 13.742h-2.959a10.336 10.336 0 0 0-1.373-3.313l2.093-2.093a.902.902 0 0 0 0-1.277l-1.916-1.916a.902.902 0 0 0-1.277 0l-2.093 2.093a10.313 10.313 0 0 0-3.313-1.373v-2.96A.904.904 0 0 0 17.355 2h-2.71a.903.903 0 0 0-.903.903v2.959a10.336 10.336 0 0 0-3.313 1.373L8.336 5.142a.902.902 0 0 0-1.277 0L5.142 7.058a.902.902 0 0 0 0 1.277l2.093 2.093a10.313 10.313 0 0 0-1.373 3.313H2.903a.904.904 0 0 0-.903.904v2.71c0 .499.404.903.903.903h2.959a10.336 10.336 0 0 0 1.373 3.313l-2.093 2.093a.902.902 0 0 0 0 1.277l1.916 1.916a.902.902 0 0 0 1.277 0l2.093-2.093a10.313 10.313 0 0 0 3.313 1.373v2.959c0 .499.404.903.903.903h2.71a.903.903 0 0 0 .903-.903v-2.959a10.336 10.336 0 0 0 3.313-1.373l2.093 2.093a.902.902 0 0 0 1.277 0l1.916-1.916a.902.902 0 0 0 0-1.277l-2.093-2.093a10.313 10.313 0 0 0 1.373-3.313h2.959a.903.903 0 0 0 .903-.903v-2.71a.9.9 0 0 0-.901-.903z"/></g></svg>