<svg xmlns="http://www.w3.org/2000/svg" viewBox="0 0 32 32"><path stroke="#333" stroke-width="2" stroke-linecap="round" stroke-miterlimit="10" d="M14.009 29.622c.82-.007 1.562-.787 1.563-1.642.001-.855-.739-1.633-1.559-1.639-.894-.007-1.666.852-1.743 1.781-.077.928.447 1.84 1.192 2.352.841.578 1.96.69 2.892.289.933-.401 1.653-1.302 1.861-2.331.136-.671.065-1.365-.006-2.046l-.512-4.883c-.425-4.052-.725-8.228-1.137-12.281-.129-1.268-.258-2.544-.169-3.816.089-1.272.409-2.553 1.107-3.602.313-.47.824-.929 1.351-.77.351.106.577.454.746.792 1.088 2.182.915 4.988-.432 7.012-1.004 1.508-2.535 2.522-3.987 3.561-1.451 1.039-2.916 2.21-3.667 3.87a5.931 5.931 0 0 0-.112 4.539c.567 1.44 1.733 2.61 3.135 3.145 1.486.566 3.237.395 4.543-.541 1.306-.935 2.098-2.64 1.892-4.276-.205-1.636-1.449-3.1-3.003-3.413-1.554-.313-3.284.622-3.854 2.163-.569 1.541.174 3.501 1.635 4.134" fill="none"/></svg>