<svg xmlns="http://www.w3.org/2000/svg" viewBox="0 0 32 32"><path d="M14.234 10.85a.998.998 0 0 1-.506.137H7.435C6.642 10.988 6 11.771 6 12.612v6.6c0 .841.642 1.775 1.435 1.775h6.295c.177 0 .351.047.504.137l4.74 2.769 5.319 3.063c.159.093.336.062.474-.024a.527.527 0 0 0 .233-.445l-2.405-8.797a6.452 6.452 0 0 1 0-3.4L25 5.497a.511.511 0 0 0-.232-.436.45.45 0 0 0-.471-.013l-5.321 3.02-4.742 2.782zm8.646 2.573c1.478.156 2.62 1.207 2.62 2.48 0 1.292-1.176 2.355-2.685 2.486M14.5 11.065v9.845" stroke="#333" stroke-linecap="round" stroke-miterlimit="10" fill="none"/></svg>