<svg xmlns="http://www.w3.org/2000/svg" viewBox="0 0 32 32"><path d="M22.309 13.851C23.296 15.841 24 17.761 24 19.2c0 2.844-1.232 5.366-3.135 6.975C19.516 27.315 17.833 28 16 28s-3.516-.685-4.865-1.825C9.232 24.566 8 22.044 8 19.2c0-1.439.704-3.359 1.691-5.349C12.039 9.122 16 4 16 4s3.961 5.122 6.309 9.851zm-12.618 0C8.302 11.687 7 10 7 10s-6 7.755-6 11.4C1 25.045 3.686 28 7 28c1.604 0 3.058-.697 4.135-1.825m11.174-12.324C23.698 11.687 25 10 25 10s6 7.755 6 11.4c0 3.645-2.686 6.6-6 6.6-1.604 0-3.058-.697-4.135-1.825M16 16v8m4-4h-8" stroke="#333" stroke-width="2" stroke-linecap="round" stroke-linejoin="round" stroke-miterlimit="10" fill="none"/></svg>