<svg xmlns="http://www.w3.org/2000/svg" viewBox="0 0 32 32"><g stroke="#333" stroke-width="2" stroke-miterlimit="10" fill="none"><ellipse transform="rotate(-45.001 16.743 15.27)" cx="16.743" cy="15.271" rx="2" ry="2"/><path d="M8.676 19.301c.229 2.009 2.027 3.818 4.02 4.045M30.631 4.198l-2.432 2.433c-.504.504-1.335.49-1.856-.031l-.943-.943c-.521-.521-.535-1.352-.031-1.855l2.432-2.433c.504-.504 1.334-.49 1.855.031l.944.943c.521.521.535 1.351.031 1.855zM3.836 27.899c1.834 1.747 3.845 3.267 6.66 3.086 2.425-.156 4.932-1.707 6.026-3.997.554-1.16.735-2.424 1.072-3.646.337-1.222.893-2.491 1.935-3.258.953-.702 2.182-.884 3.107-1.626 1.224-.982 1.597-2.743 1.244-4.156-.403-1.612-1.544-2.805-2.635-3.939l.23.232c-1.124-1.101-2.307-2.251-3.906-2.658-1.4-.357-3.148.019-4.123 1.252-.736.932-.918 2.17-1.614 3.131-.761 1.05-2.02 1.61-3.232 1.949-1.212.339-2.466.521-3.617 1.079-2.272 1.102-3.812 3.627-3.968 6.072-.181 2.839 1.326 4.866 3.058 6.717l-.237-.238zm14.336-14.056l7.698-7.692M10.02 21.988l5.267-5.262"/></g></svg>