<svg xmlns="http://www.w3.org/2000/svg" viewBox="0 0 32 32"><path d="M29.842 14.434L14.433 29.841a.54.54 0 0 1-.872-.152l-1.47-3.119a.54.54 0 0 1 .107-.613l13.759-13.758a.542.542 0 0 1 .613-.107l3.119 1.47c.339.16.417.607.153.872zM16.783 4.546L4.546 16.784a.541.541 0 0 1-.765 0l-1.147-1.147a2.163 2.163 0 0 1 0-3.059l9.943-9.943a2.163 2.163 0 0 1 3.059 0l1.147 1.147a.538.538 0 0 1 0 .764zm-12.62 12.62l6.884 6.884m6.119-19.887l6.884 6.884m-.323 12.68l6 6" stroke="#333" stroke-width="2" stroke-miterlimit="10" fill="none"/></svg>