<svg xmlns="http://www.w3.org/2000/svg" viewBox="0 0 32 32"><g stroke="#333" stroke-linecap="round" stroke-miterlimit="10" fill="none"><path d="M11 25v6m-3 0h6m-.692-10.595A4.775 4.775 0 0 1 11 21c-2.75 0-5-2.357-5-5.238V6.238C6 3.357 8.25 1 11 1s5 2.357 5 5.238v9.524c0 .323-.028.639-.082.947M13 24.334a7.877 7.877 0 0 1-2 .257c-2.281 0-4.355-.978-5.859-2.553A8.878 8.878 0 0 1 2.704 15.9m3.163-9.336h3.266m3.734 0h3.266m-10.266 7.71h3.266m3.734 0h3.266M5.867 10.436h3.266M5.867 8.5h1.866m6.534 0h1.866M5.867 12.855h1.866m6.534 0h1.866m-3.266-2.419h3.266"/><circle cx="21" cy="23" r="8"/><path d="M21 19v8m4-4h-8"/></g></svg>