<svg xmlns="http://www.w3.org/2000/svg" viewBox="0 0 32 32"><path d="M6.46 7.088L1 12v19h30V12l-5.362-4.86M1.5 14L16 22l14.5-8M7 17V1h18v16m-7.85-1.572l.487-.846 1.703-2.963 1.703-2.963c.234-.407.376-.845.431-1.287a3.512 3.512 0 0 0-.647-2.499 3.358 3.358 0 0 0-.999-.905 3.322 3.322 0 0 0-2.561-.351 3.363 3.363 0 0 0-2.059 1.585l-.73 1.27-1.218 2.115-1.216 2.116-1.216 2.116a2.463 2.463 0 0 0-.247 1.857c.079.304.214.592.401.847.187.255.427.477.713.646a2.38 2.38 0 0 0 2.664-.157c.251-.19.469-.433.637-.724l1.216-2.116 1.216-2.116.02-.035-.75 1.305.73-1.27.73-1.27.73-1.27a1.485 1.485 0 0 0-.521-2.011 1.437 1.437 0 0 0-1.097-.151 1.45 1.45 0 0 0-.883.679l-.73 1.27-.73 1.27-1.46 2.539" stroke="#333" stroke-linecap="round" stroke-linejoin="round" stroke-miterlimit="10" fill="none"/></svg>