<svg xmlns="http://www.w3.org/2000/svg" viewBox="0 0 32 32"><g stroke="#333" stroke-miterlimit="10" fill="none"><path d="M25.646 5.906l-4.855-3.718A.913.913 0 0 0 20.236 2H6.909a.916.916 0 0 0-.643.264.952.952 0 0 0-.195.288.884.884 0 0 0-.071.351v7.677c0 .25.203.42.454.42h1.364c.251 0 .182.234.182.484v1.806c0 .25.069.71-.182.71H6.454c-.251 0-.454-.056-.454.193v14.903a.913.913 0 0 0 .071.352.874.874 0 0 0 .195.287.842.842 0 0 0 .135.11.893.893 0 0 0 .508.155h18.182a.916.916 0 0 0 .508-.154.881.881 0 0 0 .245-.244.874.874 0 0 0 .156-.505V6.622a.902.902 0 0 0-.354-.716zM8.5 4.5v4m2-4v4m2-4v4m2-4v4m2-4v4m2-4v4m2-4v4m2-2v2"/><path d="M8.5 24.5h15v3h-15z"/></g></svg>