<svg xmlns="http://www.w3.org/2000/svg" viewBox="0 0 32 32"><g stroke="#333" stroke-linecap="round" stroke-linejoin="round" stroke-miterlimit="10" fill="none"><path d="M22.817 14.685L11.126 25 7 20.874 17.368 9.13"/><ellipse transform="rotate(-45.001 24.193 7.808)" cx="24.192" cy="7.808" rx="6.808" ry="6.808"/><path d="M26.255 5.057a2.916 2.916 0 0 0-4.126 0"/><ellipse transform="rotate(-45.001 16 16)" cx="16" cy="16" rx="1.5" ry="1.5"/><path d="M9 23c-.81.231-1.522.863-1.909 1.695s-.443 1.85-.149 2.729c.261.781.791 1.564.566 2.359-.201.709-.954 1.057-1.613.985-.659-.072-1.253-.456-1.845-.79-.592-.334-1.245-.632-1.898-.515-.654.117-1.266.808-1.134 1.537"/></g></svg>