<svg xmlns="http://www.w3.org/2000/svg" viewBox="0 0 32 32"><path d="M26.751 6.072l3.997 2.459c.337.207.337.731 0 .938l-3.997 2.459c-.335.206-.751-.054-.751-.469V6.541c0-.415.416-.675.751-.469zm0 14l3.997 2.459c.337.207.337.731 0 .938l-3.997 2.459c-.335.206-.751-.054-.751-.469v-4.918c0-.415.416-.675.751-.469zM1 23h3.531c.726 0 1.428-.282 1.958-.788L19.511 9.788A2.84 2.84 0 0 1 21.469 9H26m-11.382 8.553l1.618 1.553 1.618 1.553 1.618 1.553a2.885 2.885 0 0 0 .425.336 2.726 2.726 0 0 0 .479.247 2.737 2.737 0 0 0 .518.152 3.003 3.003 0 0 0 .543.053H26M1 9h3.561a2.742 2.742 0 0 1 .542.052 2.963 2.963 0 0 1 .518.152 2.84 2.84 0 0 1 .905.584l1.618 1.553 1.618 1.553 1.618 1.553" stroke="#333" stroke-width="2" stroke-linecap="round" stroke-miterlimit="10" fill="none"/></svg>