<svg xmlns="http://www.w3.org/2000/svg" viewBox="0 0 32 32"><g stroke="#333" stroke-linecap="round" stroke-linejoin="round" stroke-miterlimit="10" fill="none"><path d="M2.333 16.886h4.495l3.379-6.645 2.896 11.518 3.862-7.974 2.897 5.759 3.379-4.43 1.931 1.772h4.536"/><path d="M16 10.587C16 6.507 19.201 3 23.059 3 27.448 3 31 6.757 31 11.4c0 9.77-4.849 4.879-14.623 17.413a.474.474 0 0 1-.754 0C5.849 16.281 1 21.254 1 11.484c0-4.643 3.552-8.4 7.941-8.4 3.857 0 7.059 3.423 7.059 7.503zm-12.304.118a6.82 6.82 0 0 1 1.741-3.151 6.562 6.562 0 0 1 3.107-1.793"/></g></svg>