<svg xmlns="http://www.w3.org/2000/svg" viewBox="0 0 32 32"><path stroke="#333" stroke-width="2" stroke-linecap="round" stroke-linejoin="round" stroke-miterlimit="10" d="M27 23h-8m0 0l3 4m-3-4l3-4" fill="none"/><g stroke="#333" stroke-linejoin="round" stroke-miterlimit="10" fill="none"><path d="M12.652 11.62L1.6 21m21.9-6.167l-4.223-3.164M31 3.333V2a1 1 0 0 0-1-1H2a1 1 0 0 0-1 1v1.333m0 0L16 14 31 3.333"/><circle cx="23" cy="23" r="8"/><path d="M31 23V2a1 1 0 0 0-1-1H2a1 1 0 0 0-1 1v18a1 1 0 0 0 1 1h13.079"/></g></svg>