<svg xmlns="http://www.w3.org/2000/svg" viewBox="0 0 32 32"><g fill="none"><path stroke="#333" stroke-width="2" stroke-linecap="round" stroke-linejoin="round" stroke-miterlimit="10" d="M26 19.742c0 5.683-4.477 10.29-10 10.29S6 25.425 6 19.742L16 1.968s10 12.091 10 17.774z"/><path stroke="#333" stroke-linecap="round" stroke-linejoin="round" stroke-miterlimit="10" d="M26 19.742c0 5.683-4.477 10.29-10 10.29S6 25.425 6 19.742L16 1.968s10 12.091 10 17.774z"/><path d="M26 19.742c0 5.683-4.477 10.29-10 10.29S6 25.425 6 19.742L16 1.968s10 12.091 10 17.774z"/><path stroke="#333" stroke-width="2" stroke-linecap="round" stroke-linejoin="round" stroke-miterlimit="10" d="M16 15v10m5-5H11"/></g></svg>