<svg xmlns="http://www.w3.org/2000/svg" viewBox="0 0 32 32"><path d="M26.751 6.072l3.997 2.459c.337.207.337.731 0 .938l-3.997 2.459c-.335.206-.751-.054-.751-.469V6.541c0-.415.416-.675.751-.469zM1 19v-8.182a1.768 1.768 0 0 1 .549-1.285 1.929 1.929 0 0 1 .947-.496c.122-.024.248-.037.377-.037H26M5.249 25.928l-3.997-2.459c-.337-.207-.337-.731 0-.938l3.997-2.459c.335-.206.751.054.751.469v4.918c0 .415-.416.675-.751.469zM31 13v8.182a1.768 1.768 0 0 1-.549 1.285 1.912 1.912 0 0 1-.595.39 1.885 1.885 0 0 1-.729.143H6" stroke="#333" stroke-width="2" stroke-linecap="round" stroke-miterlimit="10" fill="none"/></svg>