<svg xmlns="http://www.w3.org/2000/svg" viewBox="0 0 32 32"><g stroke="#333" stroke-miterlimit="10" fill="none"><path d="M23.143 12.691a3.501 3.501 0 0 1-.011 6.622M28.5 16c0 1.795-.727 3.42-1.904 4.596"/><path d="M23 24.941V27H1V5h22v2.058zm0-17.883c4.5.498 8 4.309 8 8.941s-3.501 8.444-8 8.941m-12.266-5.745c-.746.295-1.494.788-1.922 1.523-.296.509-.414 1.173-.212 1.743.198.56.778.897 1.313 1.001 1.232.242 2.799-.729 3.367-1.887.316-.645.311-1.496-.148-2.04-.619-.733-1.605-.653-2.398-.34zm2.766 1.289V8.5"/></g></svg>