<svg xmlns="http://www.w3.org/2000/svg" viewBox="0 0 32 32"><g stroke="#333" stroke-miterlimit="10" fill="none"><circle cx="16" cy="16" r="3"/><path d="M16 31C7.716 31 1 24.284 1 16S7.716 1 16 1c8.284 0 15 6.716 15 15M11.134 27.518a12.532 12.532 0 0 1-6.652-6.652"/><path d="M28.532 19.748c-2.294-2.397-2.884-6.659-1.349-9.748-1.358 1.139-2.341 2.848-2.718 4.724-.377 1.876-.145 3.904.643 5.606.4.864.935 1.644 1.283 2.536.608 1.558.588 3.42-.055 4.961-.642 1.54-1.894 2.731-3.336 3.173 2.075-.167 4.099-1.073 5.722-2.561.844-.774 1.595-1.727 1.994-2.878s.406-2.519-.155-3.578c-.49-.922-1.332-1.507-2.029-2.235zm-5.574 2.858c-1.434-1.255-1.802-3.488-.843-5.106a4.286 4.286 0 0 0-1.699 2.475 4.13 4.13 0 0 0 .402 2.937c.25.453.584.861.802 1.328.38.816.367 1.792-.034 2.598-.401.807-1.184 1.431-2.085 1.662a6.654 6.654 0 0 0 3.576-1.341c.528-.406.997-.905 1.246-1.507.249-.603.254-1.32-.097-1.874-.306-.484-.833-.791-1.268-1.172zM7.161 7.161a12.532 12.532 0 0 1 3.973-2.679A12.474 12.474 0 0 1 16 3.5"/></g></svg>