<svg xmlns="http://www.w3.org/2000/svg" viewBox="0 0 32 32"><path d="M21 11h-2a1 1 0 0 1-1-1V5h4v5a1 1 0 0 1-1 1zM20 1v3m-3.885 9.036c1.939 1.379 5.798 1.379 7.737 0 .102-.072.148-.033.148.092v5.51c0 .675-.274 1.242-.716 1.687-.441.446-1.05.675-1.72.675h-3.256c-.67 0-1.215-.229-1.656-.674-.443-.445-.652-1.012-.652-1.688v-5.51c0-.125.014-.164.115-.092zM20.144 21c0 .906-.221 1.346.055 2.035.528 1.319 1.977 2.011 2.576 3.273.768 1.618-.556 3.35-2.027 4.126-1.369.723-3.091.726-4.524.16-2.548-1.008-3.13-3.138-3.228-5.528-.064-1.561-1.542-2.903-3.248-2.729-1.535.156-2.813 1.63-2.744 3.165M18.5 18.5h3m-3-2h3" stroke="#333" stroke-linecap="round" stroke-miterlimit="10" fill="none"/></svg>