<svg xmlns="http://www.w3.org/2000/svg" viewBox="0 0 32 32"><g stroke="#333" stroke-linecap="round" stroke-linejoin="round" stroke-miterlimit="10" fill="none"><path d="M21 21V2H11v28h10zm0 0h9V11h-9m-10 0H2v10h9"/><circle cx="18" cy="5" r=".5"/><circle cx="14" cy="5" r=".5"/><circle cx="18" cy="8" r=".5"/><circle cx="14" cy="8" r=".5"/><circle cx="18" cy="27" r=".5"/><circle cx="14" cy="27" r=".5"/><circle cx="18" cy="24" r=".5"/><circle cx="14" cy="24" r=".5"/><circle cx="5" cy="18" r=".5"/><circle cx="5" cy="14" r=".5"/><circle cx="8" cy="18" r=".5"/><circle cx="8" cy="14" r=".5"/><circle cx="27" cy="18" r=".5"/><circle cx="27" cy="14" r=".5"/><circle cx="24" cy="18" r=".5"/><circle cx="24" cy="14" r=".5"/></g></svg>