<svg xmlns="http://www.w3.org/2000/svg" viewBox="0 0 32 32"><path stroke="#333" stroke-width="2" stroke-miterlimit="10" d="M29 26H3a2 2 0 0 1-2-2V8a2 2 0 0 1 2-2h26a2 2 0 0 1 2 2v16a2 2 0 0 1-2 2z" fill="none"/><path stroke="#333" stroke-linejoin="round" stroke-miterlimit="10" d="M28 23.5H4a.5.5 0 0 1-.5-.5v-2a.5.5 0 0 1 .5-.5h24a.5.5 0 0 1 .5.5v2a.5.5 0 0 1-.5.5z" fill="none"/><path fill="#333" d="M10 15c.551 0 1 .449 1 1 0 .551-.449 1-1 1-.551 0-1-.449-1-1 0-.551.449-1 1-1m0-2a3 3 0 1 0 0 6 3 3 0 0 0 0-6zm12 2c.551 0 1 .449 1 1 0 .551-.449 1-1 1-.551 0-1-.449-1-1 0-.551.449-1 1-1m0-2a3 3 0 1 0 0 6 3 3 0 0 0 0-6z"/><path stroke="#333" stroke-linecap="round" stroke-linejoin="round" stroke-miterlimit="10" d="M6 8.5h19m-19 2h19" fill="none"/></svg>