<svg xmlns="http://www.w3.org/2000/svg" viewBox="0 0 32 32"><g fill="none"><path stroke="#333" stroke-width="2" stroke-linecap="round" stroke-linejoin="round" stroke-miterlimit="10" d="M26 19.742c0 5.683-4.477 10.29-10 10.29S6 25.425 6 19.742L16 1.968s10 12.091 10 17.774z"/><path stroke="#333" stroke-linecap="round" stroke-linejoin="round" stroke-miterlimit="10" d="M26 19.742c0 5.683-4.477 10.29-10 10.29S6 25.425 6 19.742L16 1.968s10 12.091 10 17.774z"/><path d="M26 19.742c0 5.683-4.477 10.29-10 10.29S6 25.425 6 19.742L16 1.968s10 12.091 10 17.774z"/><path stroke="#333" stroke-linecap="round" stroke-linejoin="round" stroke-miterlimit="10" d="M9.81 16.838c.154-.361.327-.737.516-1.126.272-.558.578-1.141.91-1.74s.691-1.214 1.068-1.836c.377-.622.773-1.25 1.181-1.877a86.297 86.297 0 0 1 2.518-3.657M9 19.806c0-.325.057-.702.162-1.122"/></g></svg>