<svg xmlns="http://www.w3.org/2000/svg" viewBox="0 0 32 32"><g stroke="#333" stroke-linecap="round" stroke-linejoin="round" stroke-miterlimit="10" fill="none"><path d="M30.699 20.4L20.4 30.699a1.027 1.027 0 0 1-1.454 0L1.301 13.054a1.027 1.027 0 0 1 0-1.454L11.6 1.301a1.027 1.027 0 0 1 1.454 0l17.644 17.644a1.03 1.03 0 0 1 .001 1.455z"/><circle cx="8" cy="12" r="1.5"/><circle cx="12" cy="8" r="1.5"/><circle cx="12" cy="16" r="1.5"/><circle cx="16" cy="12" r="1.5"/><circle cx="16" cy="20" r="1.5"/><circle cx="20" cy="16" r="1.5"/><circle cx="20" cy="24" r="1.5"/><circle cx="24" cy="20" r="1.5"/></g></svg>