<svg xmlns="http://www.w3.org/2000/svg" viewBox="0 0 32 32"><circle stroke="#333" stroke-miterlimit="10" cx="16" cy="16" r="5.5" fill="none"/><path fill="#333" d="M16 15c.551 0 1 .449 1 1 0 .551-.449 1-1 1-.551 0-1-.449-1-1 0-.551.449-1 1-1m0-1a2 2 0 1 0-.001 3.999A2 2 0 0 0 16 14z"/><circle stroke="#333" stroke-width="2" stroke-miterlimit="10" cx="16" cy="16" r="15" fill="none"/><path stroke="#333" stroke-linecap="round" stroke-miterlimit="10" d="M7.161 7.161a12.532 12.532 0 0 1 3.973-2.679A12.474 12.474 0 0 1 16 3.5" fill="none"/><path stroke="#333" stroke-miterlimit="10" d="M18.647 27.5h-3.294a.853.853 0 0 1-.853-.853v-1.294c0-.471.382-.853.853-.853h3.294c.471 0 .853.382.853.853v1.294a.853.853 0 0 1-.853.853z" fill="none"/><path stroke="#333" stroke-linecap="round" stroke-miterlimit="10" d="M30.958 15.367l-6.499 8.873a.996.996 0 0 1-.495.359L19.5 26.062" fill="none"/></svg>