<svg xmlns="http://www.w3.org/2000/svg" viewBox="0 0 32 32"><g stroke="#333" stroke-miterlimit="10" fill="none"><path d="M8.62 4.593a5.15 5.15 0 0 1 .974-.093m-.399 11.898l-.801-.801-.801-.801-.801-.801-.801-.801a5.111 5.111 0 0 1-1.118-1.685 5.075 5.075 0 0 1-.28-2.887 5.106 5.106 0 0 1 1.398-2.629c.248-.249.516-.467.799-.653"/><path d="M10.814 21.185l-6.667-6.669a7.33 7.33 0 0 1 0-10.367 7.335 7.335 0 0 1 10.374 0l6.665 6.667 6.667 6.669a7.331 7.331 0 0 1 0 10.367 7.335 7.335 0 0 1-10.374 0l-6.665-6.667zm10.372-10.37l-10.372 10.37"/></g></svg>