<svg xmlns="http://www.w3.org/2000/svg" viewBox="0 0 32 32"><path stroke="#333" stroke-width="2" stroke-linecap="round" stroke-linejoin="round" stroke-miterlimit="10" d="M5.833 15H4.484C2.56 15 1 16.282 1 18.053v3.74C1 23.564 2.56 25 4.484 25H6V10.74c0-1.339.205-2.618.719-3.782.514-1.164 1.217-2.214 2.135-3.097.917-.883 1.989-1.598 3.199-2.093S14.571 1 15.963 1h.078c1.392 0 2.721.274 3.931.769s2.302 1.21 3.219 2.093c.917.883 1.579 1.933 2.093 3.097S26 9.401 26 10.74V25h1.515C29.44 25 31 23.564 31 21.794v-3.74C31 16.282 29.44 15 27.516 15h-1.182" fill="none"/><path stroke="#333" stroke-width="2" stroke-linecap="round" stroke-miterlimit="10" d="M26 25c0 2.463-2.497 3.69-6.937 3.968M17.75 31h-3.5c-.688 0-1.25-.9-1.25-2s.562-2 1.25-2h3.5c.687 0 1.25.9 1.25 2s-.563 2-1.25 2z" fill="none"/></svg>