<svg xmlns="http://www.w3.org/2000/svg" viewBox="0 0 32 32"><path stroke="#333" stroke-width="2" stroke-linecap="round" stroke-linejoin="round" stroke-miterlimit="10" d="M5.833 18H4.484C2.56 18 1 19.282 1 21.053v3.74C1 26.564 2.56 28 4.484 28H6V13.74c0-1.339.205-2.618.719-3.782.514-1.164 1.217-2.214 2.135-3.097.917-.883 1.989-1.598 3.199-2.093S14.571 4 15.963 4h.079c1.392 0 2.721.274 3.931.769s2.302 1.21 3.219 2.093c.918.883 1.579 1.933 2.093 3.097.513 1.164.715 2.442.715 3.781V28h1.516C29.44 28 31 26.564 31 24.794v-3.74C31 19.282 29.44 18 27.516 18h-1.182" fill="none"/></svg>