<svg xmlns="http://www.w3.org/2000/svg" viewBox="0 0 32 32"><g stroke="#333" stroke-linejoin="round" stroke-miterlimit="10" fill="none"><path d="M23.006 28C24.996 25.538 28 24.706 28 22.374 28 20.916 27.271 20 25.546 20 24.427 20 23 21.123 23 21.852 23 21.123 21.572 20 20.454 20 18.729 20 18 20.916 18 22.374c0 2.332 3.004 3.165 4.993 5.626h.013zM12.652 11.62L1.6 21m21.9-6.167l-4.223-3.164M31 3.333V2a1 1 0 0 0-1-1H2a1 1 0 0 0-1 1v1.333m0 0L16 14 31 3.333"/><circle cx="23" cy="23" r="8"/><path d="M31 23V2a1 1 0 0 0-1-1H2a1 1 0 0 0-1 1v18a1 1 0 0 0 1 1h13.079"/></g></svg>