<svg xmlns="http://www.w3.org/2000/svg" viewBox="0 0 32 32"><path d="M27.742 4C28.989 4 30 5.22 30 6.724v16.345c0 1.505-1.011 2.724-2.258 2.724h-7.577c-.434 0-.859.151-1.224.435l-1.717 1.336c-.72.56-1.728.56-2.448 0l-1.717-1.336a1.989 1.989 0 0 0-1.224-.435H4.258C3.011 25.794 2 24.574 2 23.069V6.724C2 5.22 3.011 4 4.258 4h23.484zM16 5.19v22.682M2 7.5h11m-11 2h11m-11 3h11m-11 2h11m-11 3h11m-11 2h11m-11 3h11m6-15h11m-11 2h11m-11 3h11m-11 2h11m-11 3h11m-11 2h11m-11 3h11" stroke="#333" stroke-linecap="round" stroke-miterlimit="10" fill="none"/></svg>