<svg xmlns="http://www.w3.org/2000/svg" viewBox="0 0 32 32"><path d="M22.5 14l2.007 6.111H31l-5.253 3.778L27.753 30 22.5 26.223 17.247 30l2.006-6.111L14 20.111h6.493zm-7.235 13.359C5.73 15.401 1 20.134 1 10.484c0-4.643 3.552-8.4 7.941-8.4C12.798 2.084 16 5.507 16 9.587 16 5.507 19.201 2 23.059 2 27.448 2 31 5.757 31 10.4c0 4.316-.946 5.771-2.845 7.13M3.696 9.706a6.818 6.818 0 0 1 1.741-3.152 6.562 6.562 0 0 1 3.107-1.793" stroke="#333" stroke-linecap="round" stroke-linejoin="round" stroke-miterlimit="10" fill="none"/></svg>