<svg xmlns="http://www.w3.org/2000/svg" viewBox="0 0 32 32"><path d="M22.111 23.5H9.889a.389.389 0 0 1-.389-.389V16.89c0-.215.174-.389.389-.389H22.11c.215 0 .389.174.389.389v6.221a.387.387 0 0 1-.388.389zm-7.534-3.268L9.541 23.5m12.959 0l-5.039-3.237M22.5 18v-1.15c0-.193-.194-.35-.433-.35H9.933c-.239 0-.433.157-.433.35V18m0-.683L16 21.05l6.5-3.733M27 29H5V6a5 5 0 0 1 5-5h12a5 5 0 0 1 5 5v23zM8 30v1m16-1v1M10.5 5.5h11M6 10h20" stroke="#333" stroke-linejoin="round" stroke-miterlimit="10" fill="none"/></svg>