<svg xmlns="http://www.w3.org/2000/svg" viewBox="0 0 32 32"><path fill="#333" d="M16 8c1.654 0 3 1.346 3 3s-1.346 3-3 3-3-1.346-3-3 1.346-3 3-3m0-1a4 4 0 1 0 0 8 4 4 0 0 0 0-8z"/><circle stroke="#333" stroke-width="2" stroke-linejoin="round" stroke-miterlimit="10" cx="16" cy="11" r="7" fill="none"/><path fill="#333" d="M16 23c1.103 0 2 .897 2 2s-.897 2-2 2-2-.897-2-2 .897-2 2-2m0-2a4 4 0 1 0 0 8 4 4 0 0 0 0-8zm0-11c.551 0 1 .449 1 1s-.449 1-1 1c-.551 0-1-.449-1-1s.449-1 1-1m0-1a2 2 0 1 0-.001 3.999A2 2 0 0 0 16 9zm0 15a1 1 0 1 0 0 2 1 1 0 0 0 0-2z"/><path stroke="#333" stroke-width="2" stroke-linecap="round" stroke-linejoin="round" stroke-miterlimit="10" d="M24 31H8a2 2 0 0 1-2-2V3a2 2 0 0 1 2-2h16a2 2 0 0 1 2 2v26a2 2 0 0 1-2 2z" fill="none"/></svg>