<svg xmlns="http://www.w3.org/2000/svg" viewBox="0 0 32 32"><circle stroke="#333" stroke-miterlimit="10" cx="16" cy="16" r="9.5" fill="none"/><circle stroke="#333" stroke-width="2" stroke-linecap="round" stroke-miterlimit="10" cx="16" cy="16" r="3" fill="none"/><circle stroke="#333" stroke-width="2" stroke-miterlimit="10" cx="16" cy="16" r="12" fill="none"/><path stroke="#333" stroke-width="2" stroke-linecap="round" stroke-miterlimit="10" d="M21.111 5.111l3.014-3.014c1.459-1.459 3.843-1.463 5.298-.008l.488.488c1.455 1.455 1.451 3.839-.008 5.298l-2.983 2.983M10.889 5.111L7.875 2.097C6.416.637 4.031.634 2.577 2.089l-.488.488C.634 4.031.637 6.416 2.097 7.875l2.983 2.983m5.809 16.031l-3.014 3.014c-1.459 1.459-3.844 1.463-5.298.008l-.488-.488c-1.455-1.455-1.451-3.839.008-5.298l2.983-2.983m16.031 5.747l3.014 3.014c1.459 1.459 3.843 1.463 5.298.008l.488-.488c1.455-1.455 1.451-3.839-.008-5.298l-2.983-2.983" fill="none"/><path fill="#333" d="M27 26c.551 0 1 .449 1 1s-.449 1-1 1c-.551 0-1-.449-1-1s.449-1 1-1m0-1a2 2 0 1 0-.001 3.999A2 2 0 0 0 27 25zM5 26c.551 0 1 .449 1 1s-.449 1-1 1c-.551 0-1-.449-1-1s.449-1 1-1m0-1a2 2 0 1 0-.001 3.999A2 2 0 0 0 5 25zM27 4c.551 0 1 .449 1 1s-.449 1-1 1c-.551 0-1-.449-1-1s.449-1 1-1m0-1a2 2 0 1 0-.001 3.999A2 2 0 0 0 27 3zM5 4c.551 0 1 .449 1 1s-.449 1-1 1c-.551 0-1-.449-1-1s.449-1 1-1m0-1a2 2 0 1 0-.001 3.999A2 2 0 0 0 5 3z"/></svg>