<svg xmlns="http://www.w3.org/2000/svg" viewBox="0 0 32 32"><path d="M11.468 23.403c-1.492.52-2.988 1.391-3.843 2.687-.592.898-.828 2.069-.425 3.076.396.989 1.557 1.582 2.627 1.767 2.463.426 5.597-1.286 6.733-3.33.633-1.139.623-2.64-.296-3.6-1.238-1.293-3.21-1.153-4.796-.6zM17 25.677V1c0 1.978 1.506 3.508 3.138 4.79s3.535 2.469 4.361 4.18c.408.846.52 1.768.498 2.675-.055 2.251-.93 4.486-2.49 6.355.555-1.573 1.113-3.161 1.237-4.794.125-1.632-.218-3.335-1.339-4.699-1.121-1.364-3.113-2.324-5.136-2.177" stroke="#333" stroke-width="2" stroke-linecap="round" stroke-linejoin="round" stroke-miterlimit="10" fill="none"/></svg>