<svg xmlns="http://www.w3.org/2000/svg" viewBox="0 0 32 32"><g stroke="#333" stroke-miterlimit="10" fill="none"><path d="M11.5 6A2.5 2.5 0 0 1 14 3.5M16.349 29H1m15.786-14.327v-4.392m-5.572.063v4.878c0 1.473-1.247 2.667-2.786 2.667H5.032c-1.278 0-2.392.833-2.702 2.02L1 26h12.947"/><circle cx="14" cy="6" r="5"/><path d="M16.786 14.673A8.951 8.951 0 0 1 22 13a9 9 0 0 1 9 9 9 9 0 0 1-9 9 8.956 8.956 0 0 1-5.651-2m-2.402-3a9.021 9.021 0 0 0 2.402 3m.437-14.327A8.981 8.981 0 0 0 13 22c0 1.439.346 2.794.947 4M18 18l8 8m0-8l-8 8"/></g></svg>