<svg xmlns="http://www.w3.org/2000/svg" viewBox="0 0 32 32"><path stroke="#333" stroke-width="2" stroke-linecap="round" stroke-linejoin="round" stroke-miterlimit="10" d="M20 22.921V20.17c1.327 0 3-.561 3-1.169 0 .608 1.673 1.169 3 1.169v2.751c0 1.847-1.242 3.426-3 4.079-1.758-.653-3-2.232-3-4.079z" fill="none"/><g stroke="#333" stroke-linejoin="round" stroke-miterlimit="10" fill="none"><path d="M12.652 11.62L1.6 21m21.9-6.167l-4.223-3.164M31 3.333V2a1 1 0 0 0-1-1H2a1 1 0 0 0-1 1v1.333m0 0L16 14 31 3.333"/><circle cx="23" cy="23" r="8"/><path d="M31 23V2a1 1 0 0 0-1-1H2a1 1 0 0 0-1 1v18a1 1 0 0 0 1 1h13.079"/></g></svg>