<svg xmlns="http://www.w3.org/2000/svg" viewBox="0 0 32 32"><path stroke="#333" stroke-width="2" stroke-linecap="round" stroke-linejoin="round" stroke-miterlimit="10" d="M18.299 26.857l.973-1.693 3.406-5.925 3.406-5.925c.468-.815.751-1.69.862-2.573a7.01 7.01 0 0 0-1.295-5 6.735 6.735 0 0 0-1.997-1.81 6.623 6.623 0 0 0-2.535-.875 6.703 6.703 0 0 0-2.587.174 6.754 6.754 0 0 0-4.12 3.169l-1.46 2.539-2.433 4.232-2.433 4.232-2.433 4.232a4.897 4.897 0 0 0-.616 1.838 5.014 5.014 0 0 0 .925 3.571c.375.51.853.953 1.427 1.293.573.34 1.189.545 1.81.625.622.08 1.25.036 1.848-.124a4.834 4.834 0 0 0 2.942-2.263l2.433-4.232 2.433-4.232.04-.07-1.5 2.609 1.46-2.539 1.46-2.539 1.46-2.539c.201-.349.322-.724.369-1.103a3.003 3.003 0 0 0-.555-2.143 2.89 2.89 0 0 0-.856-.776 2.833 2.833 0 0 0-1.086-.375 2.875 2.875 0 0 0-2.11.563c-.302.228-.563.52-.764.869l-1.46 2.539-1.46 2.539-2.919 5.079" fill="none"/></svg>