<svg xmlns="http://www.w3.org/2000/svg" viewBox="0 0 32 32"><g stroke="#333" stroke-linecap="round" stroke-linejoin="round" stroke-miterlimit="10" fill="none"><circle cx="8" cy="15" r="7"/><path d="M10.475 17.475a3.501 3.501 0 0 1-3.837.75 3.486 3.486 0 0 1-1.112-.75m-.001-4.95A3.496 3.496 0 0 1 8 11.5a3.487 3.487 0 0 1 2.475 1.025m8.025-1.532c1.226-.54 2.85-.575 4.316-.397 1.467.179 2.86.548 4.317.757 1.457.209 3.063.243 4.367-.218m-13 2.858c1.226-.54 2.85-.575 4.316-.397 1.467.179 2.86.548 4.317.757 1.457.209 3.063.243 4.367-.218m-13 2.858c1.226-.54 2.85-.575 4.316-.397 1.467.179 2.86.548 4.317.757 1.457.209 3.063.243 4.367-.218m-13 2.858c1.226-.54 2.85-.575 4.316-.397 1.467.179 2.86.548 4.317.757 1.457.209 3.063.243 4.367-.218"/></g></svg>