<svg xmlns="http://www.w3.org/2000/svg" viewBox="0 0 32 32"><g stroke="#333" stroke-width="2" stroke-linecap="round" stroke-miterlimit="10" fill="none"><path d="M15.575 21.302c-1.194.39-2.391 1.043-3.074 2.015-.474.673-.662 1.552-.34 2.307.317.742 1.245 1.187 2.101 1.326 1.97.319 4.478-.964 5.387-2.497.506-.854.498-1.98-.237-2.7-.991-.971-2.569-.865-3.837-.451zM20 23V11m5.896-3H19V2.125"/><path d="M19.938 2L26 7.419v21.678c0 .499-.448.903-1 .903H7c-.552 0-1-.404-1-.903V2.903C6 2.404 6.448 2 7 2h12.938z"/></g></svg>