<svg xmlns="http://www.w3.org/2000/svg" viewBox="0 0 32 32"><path d="M16 8C9.58 8 3.995 11.681 1 17.143m3.75 2.283c2.246-4.097 6.435-6.857 11.25-6.857m0 0c4.815 0 9.004 2.761 11.25 6.857M31 17.143C28.005 11.681 22.42 8 16 8m0 4.569c-4.815 0-9.004 2.761-11.25 6.857m3.75 2.283c1.498-2.731 4.29-4.572 7.5-4.572m0 .001c3.21 0 6.002 1.84 7.5 4.572m3.75-2.284c-2.246-4.097-6.435-6.857-11.25-6.857m0 4.569c-3.21 0-6.002 1.84-7.5 4.572M12.263 24c.749-1.365 2.132-2.294 3.737-2.294m0 0c1.605 0 2.988.928 3.737 2.294m3.763-2.291c-1.498-2.731-4.29-4.572-7.5-4.572m0 4.569c-1.605 0-2.988.928-3.737 2.294" stroke="#333" stroke-width="2" stroke-linecap="round" stroke-linejoin="round" stroke-miterlimit="10" fill="none"/></svg>