<svg xmlns="http://www.w3.org/2000/svg" viewBox="0 0 32 32"><path stroke="#333" stroke-width="2" stroke-linecap="round" stroke-linejoin="round" stroke-miterlimit="10" d="M21 10.333C21 12.911 18.761 15 16 15s-5-2.089-5-4.667C11 7.756 16 1 16 1s5 6.756 5 9.333zM10.502 16.44c1.2 2.46.157 5.558-2.329 6.921-2.487 1.363-5.476.474-6.676-1.986L1.652 10s7.649 3.98 8.85 6.44zm10.996 0c-1.2 2.46-.158 5.558 2.329 6.921 2.487 1.363 5.476.474 6.676-1.986C31.704 18.916 30.348 10 30.348 10s-7.649 3.98-8.85 6.44zM16 15c-.68 5.36-1.499 10.874 1 16m-7.781-8.381a12.622 12.622 0 0 0 6.08 2.882m7.993-2.439c-2.007 2.101-4.549 3.758-7.333 4.588" fill="none"/><path fill="#333" d="M15 15l.5-5.333a.502.502 0 0 1 1 0L17 15a1.005 1.005 0 1 1-2 0zm-6.478 8.313l-.204-.158c-.117-.092-.365-.284-.582-.485a9.958 9.958 0 0 1-2.884-4.54l-.004-.013a.5.5 0 0 1 .937-.345s.151.322.43.769a8.485 8.485 0 0 0 2.648 2.671c.224.144.362.215.519.302l.227.122a1.003 1.003 0 1 1-1.087 1.677zm14.15-1.035l.218-.145c.149-.102.285-.189.499-.357a9.036 9.036 0 0 0 1.381-1.329 8.8 8.8 0 0 0 1.078-1.62c.244-.476.364-.814.364-.814a.5.5 0 0 1 .965.256l-.003.014s-.071.399-.256.98c-.18.582-.502 1.335-.919 2.042a10.732 10.732 0 0 1-1.356 1.82c-.2.223-.432.439-.542.544l-.192.179a1.003 1.003 0 1 1-1.237-1.57z"/></svg>