<svg xmlns="http://www.w3.org/2000/svg" viewBox="0 0 32 32"><path d="M22 17.177a6 6 0 1 1-12 0c0-3.314 6-12 6-12s6 8.686 6 12zm-6 3.321c-1.93 0-3.5-1.597-3.5-3.56m9.144 2.092c1.735.228 3.297.557 4.609.964 1.312.407 2.374.892 3.107 1.43.734.538 1.14 1.13 1.14 1.752s-.406 1.213-1.14 1.752c-.734.538-1.795 1.023-3.107 1.43-1.312.407-2.874.737-4.609.964m-11.288.001c-1.735-.228-3.297-.557-4.609-.964-1.312-.407-2.374-.892-3.108-1.43-.733-.539-1.139-1.131-1.139-1.752s.406-1.213 1.139-1.752c.734-.538 1.796-1.023 3.108-1.43 1.312-.407 2.874-.737 4.609-.964M26.5 23.177c0 1.381-4.701 2.5-10.5 2.5s-10.5-1.119-10.5-2.5" stroke="#333" stroke-linecap="round" stroke-linejoin="round" stroke-miterlimit="10" fill="none"/></svg>