<svg xmlns="http://www.w3.org/2000/svg" viewBox="0 0 32 32"><path fill="#333" d="M2.02 12.002l9.17.078 4.442.038c.767-.007 1.661.051 2.314-.036a6.688 6.688 0 0 0 2.15-.622 6.465 6.465 0 0 0 1.855-1.339c.332-.357.517-.596.719-.932.208-.327.37-.686.494-1.058.528-1.486.317-3.238-.533-4.601a5.941 5.941 0 0 0-.736-.923c-.362-.359-.581-.487-.944-.709a4.103 4.103 0 0 0-2.236-.472c-1.518.095-3.004 1.196-3.386 2.539-.437 1.373.169 2.97 1.256 3.639 1.085.696 2.546.339 3.211-.575a1.962 1.962 0 0 0-.287-2.635 1.427 1.427 0 0 0-1.032-.315 1.438 1.438 0 0 0-.863.403 1.111 1.111 0 0 0-.023 1.554.503.503 0 1 1-.688.729l-.024-.027-.147-.164a2.213 2.213 0 0 1-.323-.556 2.136 2.136 0 0 1 .469-2.273c.67-.734 2.182-1.14 3.371-.155 1.038.83 1.524 2.722.459 4.154a3.612 3.612 0 0 1-2.107 1.347 3.66 3.66 0 0 1-2.652-.433c-1.626-.985-2.436-3.116-1.881-5.063.585-2.002 2.461-3.361 4.527-3.57a5.533 5.533 0 0 1 3.037.589c.431.225.976.616 1.263.906.405.39.705.766 1.001 1.201 1.124 1.73 1.43 3.967.785 5.907a6.39 6.39 0 0 1-.62 1.389 6.854 6.854 0 0 1-.884 1.194c-.7.76-1.469 1.32-2.332 1.758a8.41 8.41 0 0 1-2.679.826c-.992.128-1.724.065-2.531.091l-4.442.038-9.17.078a.999.999 0 1 1-.003-2zm.001 6a90113.792 90113.792 0 0 0 10.208.096l.528.013c.194.015.41.027.596.055.386.047.774.128 1.159.237 1.535.421 3.045 1.421 4.063 2.75 1.122 1.478 1.593 3.295 1.396 5.126-.201 1.817-1.098 3.589-2.628 4.742-1.57 1.166-3.797 1.296-5.448.349a5.254 5.254 0 0 1-1.12-.835l-.262-.267-.193-.232a4.734 4.734 0 0 1-.972-3.26 4.685 4.685 0 0 1 .906-2.453c.521-.717 1.276-1.254 2.143-1.433 1.741-.378 3.434.7 3.901 2.17.478 1.46-.132 2.982-1.274 3.639a2.307 2.307 0 0 1-1.781.194 2.373 2.373 0 0 1-1.229-.868 2.191 2.191 0 0 1-.243-2.108c.095-.236.213-.395.291-.501l.13-.151.024-.027a.503.503 0 1 1 .706.711s-.112.095-.212.346c-.104.23-.141.717.13 1.092.307.44 1.016.725 1.65.359.614-.346 1.063-1.396.715-2.312-.29-.903-1.453-1.623-2.538-1.342-1.085.225-1.943 1.474-2.004 2.771a3.4 3.4 0 0 0 .445 1.896c.084.159.159.246.26.389l.197.228.167.158c.246.242.535.433.834.599 1.209.664 2.792.523 3.879-.312 1.11-.864 1.823-2.288 1.942-3.702.149-1.412-.321-2.895-1.095-3.877a6.156 6.156 0 0 0-4.15-2.301l-.428-.033-.484-.003-1.936.018-8.272.078a1 1 0 1 1-.001-1.999zM2.011 15l21.367.243 2.001.023.249.003.284.014c.145.002.386.042.589.074.39.088.766.199 1.115.382 1.409.684 2.375 2.17 2.379 3.677.073 1.578-1.054 2.96-2.365 3.38a3.485 3.485 0 0 1-.998.196l-.277.008-.206-.013a3.16 3.16 0 0 1-.524-.095 2.939 2.939 0 0 1-1.587-1.076 2.798 2.798 0 0 1-.559-1.685c0-.59.251-1.169.601-1.55.713-.788 1.772-.945 2.487-.698.756.257 1.13.843 1.258 1.235.134.407.105.639.105.639l-.013.107a.496.496 0 0 1-.987-.108c-.006.001.01-.113-.059-.302a.965.965 0 0 0-.628-.58c-.378-.119-.953-.012-1.342.43-.186.227-.3.494-.297.821.01.34.121.693.356.986.458.615 1.371.857 2.249.518.858-.307 1.534-1.194 1.458-2.17-.025-1.016-.703-1.997-1.673-2.442-.51-.234-.958-.306-1.617-.284l-2.001.023L2.011 17a1 1 0 1 1-.022-2h.022z"/></svg>