<svg xmlns="http://www.w3.org/2000/svg" viewBox="0 0 32 32"><g stroke="#333" stroke-linecap="round" stroke-linejoin="round" stroke-miterlimit="10" fill="none"><path d="M14 22.738V31h4v-8.262"/><path d="M11.598 8.323A7.962 7.962 0 0 1 16 7c1.627 0 3.139.489 4.402 1.323A7.99 7.99 0 0 1 24 15c0 3.726-2.551 6.848-6 7.738A7.992 7.992 0 0 1 16 23c-.692 0-1.36-.097-2-.262-3.449-.89-6-4.012-6-7.738a7.99 7.99 0 0 1 3.598-6.677zm0 0A4.94 4.94 0 0 1 11 6a5 5 0 0 1 10 0 4.94 4.94 0 0 1-.598 2.323M10.5 15A5.5 5.5 0 0 1 16 9.5"/></g></svg>