<svg xmlns="http://www.w3.org/2000/svg" viewBox="0 0 32 32"><g stroke="#333" stroke-width="2" stroke-linecap="round" stroke-linejoin="round" stroke-miterlimit="10" fill="none"><path d="M12.285 19.06C12.1 18.086 12 17.06 12 16c0-.904.086-1.776.223-2.619C12.73 10.234 14.116 7.577 16 6c1.884 1.577 3.269 4.234 3.777 7.381.136.843.223 1.715.223 2.619 0 1.06-.1 2.086-.286 3.06m4.886.354c2.225-2.756 3.303-5.747 3.067-8.414-2.447-.217-5.306.515-7.89 2.381M7.399 19.414C5.175 16.658 4.096 13.667 4.333 11c2.447-.217 5.306.515 7.89 2.381"/><path d="M16 19.805a15.887 15.887 0 0 1 3.714-.745c.424-.032.85-.06 1.286-.06 1.261 0 2.465.155 3.6.414 2.713.619 4.99 1.902 6.4 3.586-2 2.389-5.724 4-10 4-1.797 0-3.485-.298-5-.805A15.765 15.765 0 0 1 11 27c-4.276 0-8.001-1.611-10-4 1.41-1.684 3.686-2.967 6.399-3.586A16.164 16.164 0 0 1 11 19c.436 0 .862.028 1.285.06a15.741 15.741 0 0 1 3.715.745z"/></g></svg>