<svg xmlns="http://www.w3.org/2000/svg" viewBox="0 0 32 32"><g stroke="#333" stroke-linecap="round" stroke-linejoin="round" stroke-miterlimit="10" fill="none"><path d="M14.29 15.22a17.566 17.566 0 0 0-5.463-5.75c-1.083-.712-2.282-1.317-3.578-1.447-1.295-.13-2.704.289-3.496 1.307-.654.841-.81 1.965-.737 3.021a8.346 8.346 0 0 0 2.264 5.132 8.59 8.59 0 0 0 5.049 2.566c-.696.761-1.36 1.558-1.829 2.472-.469.914-.694 1.991-.401 2.973.333 1.114 1.32 1.979 2.448 2.319 1.128.34 2.37.195 3.458-.254.927-.382 1.751-.973 2.484-1.653m3.205-10.658a17.556 17.556 0 0 1 5.48-5.778c1.083-.713 2.282-1.318 3.577-1.448 1.296-.13 2.704.289 3.496 1.307.654.841.81 1.965.737 3.021a8.346 8.346 0 0 1-2.264 5.132 8.59 8.59 0 0 1-5.049 2.566c.696.761 1.36 1.558 1.829 2.472.469.914.694 1.991.401 2.973-.333 1.114-1.32 1.979-2.448 2.319-1.128.34-2.37.195-3.458-.254-.936-.386-1.767-.984-2.505-1.673"/><ellipse cx="16" cy="20" rx="2" ry="8"/><circle cx="16" cy="10" r="2"/><path d="M14.5 8.5c-1.239-2.094-2.979-3.833-5-5m8 5c1.239-2.094 2.979-3.833 5-5"/><circle cx="5" cy="12" r=".5"/><circle cx="27" cy="12" r=".5"/><circle cx="22" cy="24" r=".5"/><circle cx="10" cy="24" r=".5"/><path d="M14.138 21.988a3.644 3.644 0 0 0 3.657.039m-3.686-3.056a3.642 3.642 0 0 0 3.776.004m-3.535-2.869a3.648 3.648 0 0 0 3.306-.003"/></g></svg>