<svg xmlns="http://www.w3.org/2000/svg" viewBox="0 0 32 32"><g stroke="#333" stroke-width="2" stroke-linecap="round" stroke-linejoin="round" stroke-miterlimit="10" fill="none"><path d="M12.136 10.103l5.414 6.732c1.174 1.405 2.088 2.982 2.437 4.806C20.651 25.12 19.47 28.52 17 31h-6c2.03-2.902 4.093-5.87 5.216-9.346 1.122-3.477-2.215-8.51-4.08-11.551"/><path d="M12.136 10.103c.682.012 1.672-.418 2.143-.936.471-.518.736-1.253.72-1.999-.019-.927-.449-1.806-.959-2.57C12.855 2.822 11.023 1.54 8.603 1 7.229 3.155 6.77 5.411 7.104 7.55c.144.92.421 1.864 1.025 2.543.486.546 1.165.879 1.848.906.683.027 1.678-.388 2.159-.896zm10.927 2.198c.345.401 1.077.725 1.587.697.51-.027 1.025-.299 1.402-.739.468-.547.699-1.303.831-2.039.305-1.711.021-3.51-.948-5.22-1.819.451-3.219 1.49-4.149 2.919-.4.615-.744 1.32-.782 2.061-.031.596.148 1.181.485 1.591.338.41 1.065.745 1.574.73zM9.965 21.759c.409-.176.862-.706.98-1.15.118-.444.046-.966-.196-1.419-.301-.564-.83-.987-1.372-1.318-1.258-.771-2.745-1.064-4.35-.744-.143 1.691.289 3.198 1.155 4.419.372.526.832 1.03 1.402 1.283.459.204.966.226 1.379.059.413-.167.875-.69 1.002-1.13zm13.015-9.395c-1.317.72-2.271 1.938-3.153 3.153-.548.755-.996 1.598-1.195 2.509m-8.563 3.865c1.357 1.224 3.241 1.895 5.056 2.109"/></g></svg>