<svg xmlns="http://www.w3.org/2000/svg" viewBox="0 0 32 32"><path stroke="#333" stroke-width="2" stroke-linejoin="round" stroke-miterlimit="10" d="M25.075 20C27.243 20 29 18.209 29 16c0-1.89-1.29-3.464-3.019-3.882.045-.367.075-.738.075-1.118 0-4.971-3.953-9-8.83-9-3.851 0-7.118 2.518-8.325 6.023C5.602 8.252 3 10.837 3 14c0 3.314 2.855 6 6.377 6h15.698z" fill="none"/><path d="M11.314 25.5c1.313 1.253 2.925 2 4.675 2s3.361-.747 4.675-2M23 28.143C21.03 29.932 18.613 31 15.988 31c-2.614 0-5.023-1.059-6.988-2.836M13.655 23c.657.622 1.458 1 2.333 1s1.677-.378 2.333-1m2.342 2.5c-1.313 1.253-2.925 2-4.675 2s-3.361-.747-4.675-2m7.009-2.5c-.657.622-1.458 1-2.333 1s-1.677-.378-2.333-1" stroke="#333" stroke-width="2" stroke-linecap="round" stroke-miterlimit="10" fill="none"/></svg>