<svg xmlns="http://www.w3.org/2000/svg" viewBox="0 0 32 32"><g stroke="#333" stroke-width="2" stroke-linecap="round" stroke-miterlimit="10" fill="none"><ellipse cx="16" cy="6" rx="12" ry="4"/><path d="M17.531 16.968C17.03 16.989 16.519 17 16 17c-6.627 0-12-1.791-12-4m11.063 10.988C8.874 23.829 4 22.104 4 20m16.315 10.734A34.072 34.072 0 0 1 16 31c-6.627 0-12-1.791-12-4m0 0V6m24 10.625V6"/><circle cx="23" cy="23" r="8"/></g><path stroke="#333" stroke-width="2" stroke-linecap="round" stroke-linejoin="round" stroke-miterlimit="10" d="M19 22.901v-3.439c1.769 0 4-.701 4-1.462 0 .76 2.231 1.462 4 1.462v3.439c0 2.309-1.656 4.282-4 5.099-2.344-.817-4-2.79-4-5.099z" fill="none"/></svg>