<svg xmlns="http://www.w3.org/2000/svg" viewBox="0 0 32 32"><path stroke="#333" stroke-width="2" stroke-linecap="round" stroke-linejoin="round" stroke-miterlimit="10" d="M22.08 20.074c2.765-1.892 5.761-3.482 5.914-7.313.102-2.562-1.135-5.14-3.029-6.966-1.894-1.826-4.387-2.941-6.93-3.446-4.397-.875-8.442.047-12.623 1.062-1.016 4.18-1.937 8.224-1.063 12.62.506 2.542 1.621 5.035 3.447 6.928 1.826 1.893 4.405 3.131 6.968 3.028 3.833-.153 5.424-3.148 7.316-5.913z" fill="none"/><path fill="#333" d="M5.698 3.001l.32.218c.209.143.516.344.905.637.788.568 1.85 1.405 3.094 2.461 2.485 2.109 5.66 5.056 8.653 8.209.75.787 1.48 1.598 2.185 2.418a49.272 49.272 0 0 1 1.995 2.455c1.252 1.645 2.276 3.338 2.927 4.931.315.8.565 1.558.705 2.258.158.694.226 1.322.248 1.839.033.518.015.927-.008 1.206l-.025.427a1 1 0 0 1-1.996-.118l.002-.024.008-.096.03-.345a6.41 6.41 0 0 0 .04-.982 8.415 8.415 0 0 0-.154-1.535c-.096-.593-.29-1.255-.542-1.969-.527-1.424-1.408-3.021-2.551-4.632a46.855 46.855 0 0 0-1.854-2.447 59.192 59.192 0 0 0-2.068-2.411c-2.867-3.178-5.947-6.188-8.341-8.326-1.196-1.068-2.231-1.927-2.96-2.481-.357-.285-.665-.498-.87-.646l-.315-.227a.5.5 0 0 1 .572-.82z"/><path stroke="#333" stroke-linecap="round" stroke-linejoin="round" stroke-miterlimit="10" d="M19.947 17.182c-3.095.034-6.135 1.606-7.95 4.113m3.421-8.779a7.482 7.482 0 0 0-5.323 2.794m1.271-6.91a7.921 7.921 0 0 0-3.22 1.452m11.936 7.195c.034-3.094 1.607-6.134 4.114-7.948m-8.603 3.241a7.48 7.48 0 0 1 2.795-5.322M11.476 8.29a7.921 7.921 0 0 1 1.452-3.22" fill="none"/></svg>