<svg xmlns="http://www.w3.org/2000/svg" viewBox="0 0 32 32"><path d="M12 9v2.957C12 18.292 1 30 1 30h30S20 18.292 20 11.957V9h-8zm9.124 7.292l-2.268 1.488-1.597-1.28-1.949 2-.578-3.375-4.031 1.548M11.5 20.5a28.876 28.876 0 0 1-2.225 3.687C8.49 25.292 7.589 26.673 6.5 27.5M25.211 6.914c.135.52.227 1.059.289 1.586m-6.995-1.925a2.663 2.663 0 0 1 .311-1.445c.225-.415.554-.76.942-1.024a3.532 3.532 0 0 1 1.29-.538 3.183 3.183 0 0 1 1.354.012c.533.128.978.367 1.349.688.371.321.668.722.906 1.174M4.736 7.368A7.172 7.172 0 0 0 4.5 8.5m9-1.856a3.247 3.247 0 0 0-.211-.729 3.617 3.617 0 0 0-.374-.677 3.96 3.96 0 0 0-1.164-1.088 4.396 4.396 0 0 0-1.243-.514 4.82 4.82 0 0 0-1.343-.132 4.66 4.66 0 0 0-1.317.249 4.063 4.063 0 0 0-1.166.63 5.107 5.107 0 0 0-.864.862c-.16.202-.305.414-.436.634M15.5 4.5a4.875 4.875 0 0 0-1.999-2.307 4.983 4.983 0 0 0-3.001-.671m7 1.978c.79-1.341 2.452-2.028 4-1.999" stroke="#333" stroke-linecap="round" stroke-linejoin="round" stroke-miterlimit="10" fill="none"/></svg>