<svg xmlns="http://www.w3.org/2000/svg" viewBox="0 0 32 32"><g stroke="#333" stroke-miterlimit="10" fill="none"><path d="M11.919 17.783L10.5 16.217m1.419 1.566l1.42-1.566m6.742 0l1.419 1.566m-1.419-1.566l-1.42 1.566m1.383-1.388c.024.198.036.4.036.605 0 2.485-1.827 4.5-4.081 4.5-1.544 0-2.889-.946-3.582-2.342m-.463-1.57A4.953 4.953 0 0 1 11.92 17c0-2.485 1.827-4.5 4.081-4.5 1.543 0 2.886.944 3.579 2.337"/><path d="M26.472 26C28.973 26 31 24.01 31 21.556c0-2.1-1.488-3.849-3.483-4.314.052-.408.087-.82.087-1.242 0-5.523-4.562-10-10.189-10-4.444 0-8.213 2.797-9.606 6.692C4.003 12.947 1 15.819 1 19.333 1 23.015 4.294 26 8.358 26h18.114z"/></g></svg>