<svg xmlns="http://www.w3.org/2000/svg" viewBox="0 0 32 32"><path stroke="#333" stroke-width="2" stroke-linecap="round" stroke-linejoin="round" stroke-miterlimit="10" d="M1 31h30m-15 0v-5.917M26 25H6c-1.65 0-3-1.35-3-3v-4c0-1.65 1.35-3 3-3h20c1.65 0 3 1.35 3 3v4c0 1.65-1.35 3-3 3zm0-14H6c-1.65 0-3-1.35-3-3V4c0-1.65 1.35-3 3-3h20c1.65 0 3 1.35 3 3v4c0 1.65-1.35 3-3 3z" fill="none"/><circle stroke="#333" stroke-linecap="round" stroke-linejoin="round" stroke-miterlimit="10" cx="24" cy="20" r="1.5" fill="none"/><circle stroke="#333" stroke-linecap="round" stroke-linejoin="round" stroke-miterlimit="10" cx="24" cy="6" r="1.5" fill="none"/><path fill="#333" d="M20 19a1 1 0 1 0 0 2 1 1 0 0 0 0-2zm-3 0a1 1 0 1 0 0 2 1 1 0 0 0 0-2zm-3 0a1 1 0 1 0 0 2 1 1 0 0 0 0-2zm6-14a1 1 0 1 0 0 2 1 1 0 0 0 0-2zm-3 0a1 1 0 1 0 0 2 1 1 0 0 0 0-2zm-3 0a1 1 0 1 0 0 2 1 1 0 0 0 0-2z"/></svg>