<svg xmlns="http://www.w3.org/2000/svg" viewBox="0 0 32 32"><path fill="#333" d="M13.195 31.334l-.065-.182-.183-.535a15.477 15.477 0 0 1-.509-2.015c-.316-1.674-.416-3.972.048-6.186a15.538 15.538 0 0 1 2.37-5.651 13.82 13.82 0 0 1 1.253-1.587c.329-.361.53-.554.53-.554l.008-.008a.5.5 0 0 1 .712.702s-.176.189-.46.54c-.285.349-.674.866-1.07 1.53a14.122 14.122 0 0 0-1.57 3.789c-.126.485-.218.98-.296 1.494-.303 2.024-.089 4.081.277 5.546.18.73.39 1.341.544 1.727l.198.486.075.178a1 1 0 1 1-1.843.779l-.019-.053z"/><path stroke="#333" stroke-width="2" stroke-linecap="round" stroke-linejoin="round" stroke-miterlimit="10" d="M12.675 26.78c-3.527-.73-5.909-3.495-6.535-7.557-.667-4.326 1.074-8.778 4.749-11.036 1.651-1.014 3.545-1.511 5.213-2.493 1.668-.983 3.18-2.697 3.13-4.721 2.387 3.06 3.496 6.752 3.042 10.677 1.176-.187 2.057-1.003 2.681-2.065a6.054 6.054 0 0 1-.664 3.668 5.64 5.64 0 0 1-2.669 2.471c1.537-.045 2.978-.474 4.378-1.143a7.547 7.547 0 0 1-1.769 4.095 6.968 6.968 0 0 1-3.718 2.238c1.079 1.113 2.583 1.604 3.877.78-1.615 3.816-6.146 5.299-9.833 5.279a9.664 9.664 0 0 1-1.882-.193z" fill="none"/></svg>