<svg xmlns="http://www.w3.org/2000/svg" viewBox="0 0 32 32"><path d="M14.655 30.966c-2.671-.132-5.865-.683-7.736-2.475-1.577-1.509-2.228-3.833-1.781-5.927.52-2.434 2.384-4.367 3.338-6.63.764-1.811.971-3.96-.215-5.585 1.445.723 2.352 1.986 2.992 3.337a5.982 5.982 0 0 1 .323 4.305c1.065-1.767 1.441-3.807 1.047-5.777-.26-1.297-.839-2.54-.995-3.85-.194-1.628.302-3.313 1.37-4.652 1.067-1.34 2.697-2.322 4.5-2.714-2.047 1.345-3.064 3.534-2.681 5.759.246 1.428 1.052 2.745 2.071 3.877 1.019 1.131 2.252 2.097 3.477 3.056.111-1.142.479-2.131 1.355-2.977.876-.847 2.074-1.429 3.354-1.631-1.543 1.143-1.902 3.075-1.444 4.806.565 2.137 2.509 3.611 3.092 5.742.839 3.067-.281 6.454-2.638 8.645-2.249 2.091-5.473 2.774-8.498 2.722a27.91 27.91 0 0 1-.931-.031zm-3.624-.56c-.45-.838-.602-1.764-.36-2.683.258-.981.74-1.893 1.099-2.845.359-.952.594-1.99.337-2.97.794 1.226 1.165 2.654 1.004 4.084.806-1.019 1.62-1.996 2.134-3.212.696-1.647 1.123-3.675.129-5.28 1.368 1.491 1.96 3.57 1.791 5.538-.098 1.138-.535 2.316-.118 3.431.21.562.592 1.041 1.066 1.335-.059-.926-.135-1.848.052-2.764.177-.864 1.02-1.816 1.773-2.072-.594 2.5.219 5.438 1.875 6.625" stroke="#333" stroke-linecap="round" stroke-linejoin="round" stroke-miterlimit="10" fill="none"/></svg>