<svg xmlns="http://www.w3.org/2000/svg" viewBox="0 0 32 32"><path d="M23.818 9.517A4.467 4.467 0 0 0 25 6.5 4.5 4.5 0 0 0 20.5 2c-1.449 0-2.724.697-3.547 1.761A4.462 4.462 0 0 0 15.5 3.5a4.497 4.497 0 0 0-4.386 3.519A6.495 6.495 0 0 0 11.5 20a6.485 6.485 0 0 0 5.269-2.705A5.493 5.493 0 0 0 21.5 20a5.5 5.5 0 0 0 5.5-5.5 5.499 5.499 0 0 0-3.182-4.983zM17 8v22m-.094-14.5l-1.351-1.25L14.203 13l-1.351-1.25m4.21-.25l1.36-1.25L19.781 9l1.36-1.25L22.5 6.5" stroke="#333" stroke-linecap="round" stroke-linejoin="round" stroke-miterlimit="10" fill="none"/></svg>