<svg xmlns="http://www.w3.org/2000/svg" viewBox="0 0 32 32"><path fill="#333" d="M21.898 2.453l-.094.18c-.07.124-.133.272-.287.525-.284.508-.701 1.108-1.248 1.808-1.074 1.396-2.685 2.963-3.648 4.822a9.843 9.843 0 0 0-.588 1.443 9.642 9.642 0 0 0-.327 1.48c-.131.976-.081 1.902.096 2.66.167.761.448 1.351.681 1.735.109.199.219.337.289.436l.108.151.028.039a.5.5 0 0 1-.794.604l-.139-.171c-.089-.112-.229-.272-.372-.499a6.842 6.842 0 0 1-.922-2.009c-.256-.88-.373-1.951-.285-3.082.049-.564.137-1.144.281-1.722.157-.605.339-1.133.589-1.71.499-1.108 1.167-2.106 1.809-2.973.644-.872 1.251-1.638 1.715-2.306.461-.659.815-1.245.991-1.612.099-.172.182-.386.236-.495l.084-.185a1 1 0 1 1 1.797.881z"/><path stroke="#333" stroke-width="2" stroke-linecap="round" stroke-linejoin="round" stroke-miterlimit="10" d="M15.868 30.013c.614-2.355-.677-4.763-2.232-6.782-1.555-2.019-3.44-3.927-4.239-6.242-.85-2.463-.317-5.243 1.41-7.35 1.727-2.107 4.918-4.029 7.934-4.209.178 2.967 2.194 5.85 3.338 8.657a12.384 12.384 0 0 1 .152 8.981c-1.075 2.905-3.462 5.154-6.363 6.945z" fill="none"/></svg>