<svg xmlns="http://www.w3.org/2000/svg" viewBox="0 0 32 32"><g stroke="#333" stroke-linecap="round" stroke-linejoin="round" stroke-miterlimit="10" fill="none"><path d="M24 29H8a3 3 0 0 1-3-3V4a3 3 0 0 1 3-3h16a3 3 0 0 1 3 3v22a3 3 0 0 1-3 3zm-11.5.5v2h-5v-2m17 0v2h-5v-2M5 10.5h22m-22 9h22"/><circle cx="10" cy="15" r="1.5"/><circle cx="10" cy="6" r="1.5"/><circle cx="10" cy="24" r="1.5"/><circle cx="23" cy="15" r=".5"/><circle cx="20" cy="15" r=".5"/><circle cx="17" cy="15" r=".5"/><circle cx="23" cy="6" r=".5"/><circle cx="20" cy="6" r=".5"/><circle cx="17" cy="6" r=".5"/><circle cx="23" cy="24" r=".5"/><circle cx="20" cy="24" r=".5"/><circle cx="17" cy="24" r=".5"/></g></svg>