<svg xmlns="http://www.w3.org/2000/svg" viewBox="0 0 32 32"><path d="M1 5.025l1.582 1.298a2.948 2.948 0 0 0 4.064-.298L8.497 4l1.559 1.705a2.95 2.95 0 0 0 4.378 0L15.993 4l1.559 1.705a2.95 2.95 0 0 0 4.378 0L23.49 4l1.859 2.03a2.948 2.948 0 0 0 4.06.298L31 5.025M7 11c1.105 1.333 2.894 1.333 4 0M1 16c1.105 1.333 2.894 1.333 4 0m16-5c1.105 1.333 2.894 1.333 4 0M7 21c1.105 1.333 2.894 1.333 4 0m10 0c1.105 1.333 2.894 1.333 4 0m2-5c1.105 1.333 2.894 1.333 4 0m-17 0c1.105 1.333 2.894 1.333 4 0M1 26c1.105 1.333 2.894 1.333 4 0m22 0c1.105 1.333 2.894 1.333 4 0m-17 0c1.105 1.333 2.894 1.333 4 0" stroke="#333" stroke-width="2" stroke-linecap="round" stroke-linejoin="round" stroke-miterlimit="10" fill="none"/></svg>