<svg xmlns="http://www.w3.org/2000/svg" viewBox="0 0 32 32"><g stroke="#333" stroke-width="2" stroke-linecap="round" stroke-miterlimit="10" fill="none"><path d="M24 30l-8-18-8 18"/><circle cx="16" cy="9" r="3"/><path d="M24.5 4.314c1.253 1.313 2 2.925 2 4.674 0 1.75-.747 3.362-2 4.675M27.143 16C28.932 14.031 30 11.613 30 8.988 30 6.374 28.941 3.965 27.164 2M22 6.655c.622.657 1 1.458 1 2.333s-.378 1.677-1 2.333m2.5 2.342c1.253-1.313 2-2.925 2-4.675s-.747-3.361-2-4.674M22 11.322c.622-.656 1-1.458 1-2.333s-.378-1.677-1-2.333M7.5 4.314c-1.253 1.313-2 2.925-2 4.674 0 1.75.747 3.362 2 4.675M4.857 16C3.068 14.031 2 11.613 2 8.988 2 6.374 3.059 3.965 4.836 2M10 6.655c-.622.656-1 1.458-1 2.333s.378 1.677 1 2.333m-2.5 2.342c-1.253-1.313-2-2.925-2-4.675s.747-3.361 2-4.674m2.5 7.008c-.622-.656-1-1.458-1-2.333s.378-1.677 1-2.333"/></g></svg>