<svg xmlns="http://www.w3.org/2000/svg" viewBox="0 0 32 32"><g stroke="#333" stroke-linecap="round" stroke-linejoin="round" stroke-miterlimit="10" fill="none"><path d="M27.115 10.5h-6.231c-.765 0-1.385-.922-1.385-1.75s.62-1.625 1.385-1.625l.284-.03-.003-.063c0-1.657 1.24-3.016 2.769-3.016 1.529 0 2.769 1.335 2.769 2.992l-.007.073a1.27 1.27 0 0 1 .418-.079c.765 0 1.385.921 1.385 1.749.001.828-.619 1.749-1.384 1.749zM23.64 31H4.36A3.37 3.37 0 0 1 1 27.64v-3.28A3.37 3.37 0 0 1 4.36 21h19.28A3.37 3.37 0 0 1 27 24.36v3.28A3.37 3.37 0 0 1 23.64 31zm1.351-15.915L27 24M1 24L4.69 7.626A2 2 0 0 1 6.655 6H17"/><circle cx="22" cy="26" r="1.5"/><circle cx="24" cy="8" r="7"/></g></svg>