<svg xmlns="http://www.w3.org/2000/svg" viewBox="0 0 32 32"><g stroke="#333" stroke-width="2" stroke-linecap="round" stroke-miterlimit="10" fill="none"><path d="M5.958 15c2.814-2.505 6.267-4 10.017-4 3.749 0 7.203 1.495 10.017 4M31 9.714C26.78 6.135 21.599 4 15.975 4 10.373 4 5.211 6.118 1 9.672M10.975 20c1.407-1.244 3.125-2 5-2s3.593.756 5 2m5.017-5c-2.814-2.505-6.267-4-10.017-4-3.75 0-7.203 1.495-10.017 4m15.017 5c-1.407-1.244-3.125-2-5-2s-3.593.756-5 2"/><circle cx="16" cy="26" r="2"/></g></svg>