<svg xmlns="http://www.w3.org/2000/svg" viewBox="0 0 32 32"><path stroke="#333" stroke-width="2" stroke-linecap="round" stroke-linejoin="round" stroke-miterlimit="10" d="M23 15.901v-3.439c1.769 0 4-.701 4-1.462 0 .76 2.231 1.462 4 1.462v3.439c0 2.309-1.656 4.282-4 5.099-2.344-.817-4-2.79-4-5.099zM19.75 20H2.029A1.032 1.032 0 0 1 1 18.971v-5.942C1 12.463 1.463 12 2.029 12h17.638m-.042-3H2.029A1.032 1.032 0 0 1 1 7.971V2.029C1 1.463 1.463 1 2.029 1h19.942C22.537 1 23 1.463 23 2.029v5.942C23 8.537 22.537 9 21.971 9h-2.346m2.346 22H2.029A1.032 1.032 0 0 1 1 29.971v-5.942C1 23.463 1.463 23 2.029 23h19.942c.566 0 1.029.463 1.029 1.029v5.942c0 .566-.463 1.029-1.029 1.029z" fill="none"/><circle stroke="#333" stroke-linecap="round" stroke-linejoin="round" stroke-miterlimit="10" cx="5" cy="5" r="1.5" fill="none"/><circle stroke="#333" stroke-linecap="round" stroke-linejoin="round" stroke-miterlimit="10" cx="5" cy="16" r="1.5" fill="none"/><circle stroke="#333" stroke-linecap="round" stroke-linejoin="round" stroke-miterlimit="10" cx="5" cy="27" r="1.5" fill="none"/></svg>