<svg xmlns="http://www.w3.org/2000/svg" viewBox="0 0 32 32"><g stroke="#333" stroke-linecap="round" stroke-linejoin="round" stroke-miterlimit="10" fill="none"><path d="M21.5 7.767h5V11.5h-5zm4.537-.311V6.367c0-1.031-.912-1.867-2.037-1.867s-2.037.836-2.037 1.867v1.089M23.64 31H4.36A3.37 3.37 0 0 1 1 27.64v-3.28A3.37 3.37 0 0 1 4.36 21h19.28A3.37 3.37 0 0 1 27 24.36v3.28A3.37 3.37 0 0 1 23.64 31zm1.351-15.915L27 24M1 24L4.69 7.626A2 2 0 0 1 6.655 6H17"/><circle cx="22" cy="26" r="1.5"/><circle cx="24" cy="8" r="7"/></g></svg>