<svg xmlns="http://www.w3.org/2000/svg" viewBox="0 0 32 32"><g stroke="#333" stroke-linecap="round" stroke-linejoin="round" stroke-miterlimit="10" fill="none"><path d="M13 31c2.364-2.591 3.874-6.367 4.238-9.865A16.75 16.75 0 0 0 15.044 11c2.592 2.547 4.44 5.67 5.339 9.202A20.252 20.252 0 0 1 20.141 31H13zm4.084-10.034c-.358.022-.719.034-1.084.034-7.18 0-13-4.477-13-10S8.82 1 16 1s13 4.477 13 10c0 4.308-3.542 7.98-8.508 9.387"/><circle cx="24" cy="9" r=".5"/><circle cx="18" cy="8" r=".5"/><circle cx="13" cy="5" r=".5"/><circle cx="12" cy="16" r=".5"/><circle cx="11" cy="11" r=".5"/><circle cx="7" cy="9" r=".5"/><circle cx="23" cy="15" r=".5"/></g></svg>