<svg xmlns="http://www.w3.org/2000/svg" viewBox="0 0 32 32"><g stroke="#333" stroke-linecap="round" stroke-linejoin="round" stroke-miterlimit="10" fill="none"><path d="M17.75 20H2.029A1.032 1.032 0 0 1 1 18.971v-5.942C1 12.463 1.463 12 2.029 12h15.638m1.958-3H2.029A1.032 1.032 0 0 1 1 7.971V2.029C1 1.463 1.463 1 2.029 1h19.942C22.537 1 23 1.463 23 2.029v5.942C23 8.537 22.537 9 21.971 9h-2.346m2.346 22H2.029A1.032 1.032 0 0 1 1 29.971v-5.942C1 23.463 1.463 23 2.029 23h19.942c.566 0 1.029.463 1.029 1.029v5.942c0 .566-.463 1.029-1.029 1.029z"/><circle cx="24" cy="16" r="4"/><path d="M27 19l4 4"/><circle cx="5" cy="5" r="1.5"/><circle cx="5" cy="16" r="1.5"/><circle cx="5" cy="27" r="1.5"/></g></svg>