<svg xmlns="http://www.w3.org/2000/svg" viewBox="0 0 32 32"><path d="M27.146 27C29.275 27 31 25.311 31 23.227c0-1.782-1.267-3.267-2.964-3.662.044-.346.074-.696.074-1.054 0-4.688-3.882-8.489-8.671-8.489-3.782 0-6.99 2.375-8.175 5.681-3.24.217-5.795 2.655-5.795 5.638 0 3.125 2.804 5.659 6.263 5.659h15.414zM21.102 7.486A8.739 8.739 0 0 0 14.97 5c-1.891 0-3.638.594-5.061 1.601s-2.521 2.427-3.114 4.08c-1.62.108-3.069.772-4.112 1.782C1.639 13.472 1 14.827 1 16.318c0 1.563.701 2.978 1.834 4.002" stroke="#333" stroke-width="2" stroke-linejoin="round" stroke-miterlimit="10" fill="none"/></svg>