<svg xmlns="http://www.w3.org/2000/svg" viewBox="0 0 32 32"><g stroke="#333" stroke-linecap="round" stroke-linejoin="round" stroke-miterlimit="10" fill="none"><path d="M27 12.472c0 6.336-4.925 4.172-11 4.172S5 18.808 5 12.472 9.925 1 16 1s11 5.136 11 11.472zm-6 4.536c-1.291 3.312-1.965 6.777-1.6 10.336.083.814.213 1.658-.053 2.432C19.014 30.745 18.141 31 17 31h-2c-1.141 0-2.014-.255-2.347-1.225-.266-.774-.136-1.618-.053-2.432.365-3.559-.309-7.024-1.6-10.336m7.967-15.443c.342.587.533 1.243.533 1.936 0 2.485-2.462 4.062-5.5 4.062-2.724 0-4.985-1.183-5.423-3.309m18.266 9.237l-.343.01c-2.485 0-3.969-1.567-3.969-3.5 0-1.61.866-2.965 2.768-3.374M5.188 11.505a3.5 3.5 0 0 1 2.8 5.319"/><ellipse cx="17" cy="12.5" rx="2.5" ry="2"/></g></svg>