<svg xmlns="http://www.w3.org/2000/svg" viewBox="0 0 32 32"><g stroke="#333" stroke-miterlimit="10" fill="none"><path d="M27.812 7.5c-1.313-1.253-2.925-2-4.674-2-1.75 0-3.361.747-4.674 2m-2.339-2.643C18.095 3.068 20.512 2 23.137 2c2.614 0 5.023 1.059 6.988 2.836M25.471 10c-.657-.622-1.458-1-2.333-1-.875 0-1.677.378-2.333 1m-2.342-2.5c1.313-1.253 2.925-2 4.674-2 1.75 0 3.361.747 4.674 2M20.804 10c.656-.622 1.458-1 2.333-1 .875 0 1.677.378 2.333 1m4.453 20H2.077A1.08 1.08 0 0 1 1 28.923v-7.846A1.08 1.08 0 0 1 2.077 20h27.846A1.08 1.08 0 0 1 31 21.077v7.846A1.08 1.08 0 0 1 29.923 30z"/><circle cx="7" cy="25" r="1.5"/><path d="M23 19v-6"/></g></svg>