<svg xmlns="http://www.w3.org/2000/svg" viewBox="0 0 32 32"><path d="M16 29.488c-1.378-3.073-1.426-6.816 0-10.299.332-.81.715-1.611 1.209-2.379a14.134 14.134 0 0 1 4.204-4.221c2.249-1.46 4.808-2.198 7.302-2.061 1.952 3.854 1.728 8.929-1.001 13.175s-7.227 6.516-11.506 6.283h-.416c-4.279.234-8.777-2.036-11.506-6.283-2.729-4.246-2.953-9.32-1.001-13.175 2.494-.136 5.053.601 7.302 2.061a14.123 14.123 0 0 1 4.204 4.221c.494.768.877 1.569 1.209 2.379m5.898-6.95C21.403 7.858 19.153 4.123 16 2c-3.135 2.111-5.378 5.816-5.889 10.166" stroke="#333" stroke-width="2" stroke-linecap="round" stroke-linejoin="round" stroke-miterlimit="10" fill="none"/></svg>