<svg xmlns="http://www.w3.org/2000/svg" viewBox="0 0 32 32"><g stroke="#333" stroke-width="2" stroke-linecap="round" stroke-linejoin="round" stroke-miterlimit="10" fill="none"><path d="M5.667 16a8.87 8.87 0 0 1 1.788-5.333L3.683 8C2.002 10.247 1 13.005 1 16s1.002 5.753 2.683 8l3.772-2.667A8.87 8.87 0 0 1 5.667 16zm1.788 5.333l3.779-2.671c-.56-.749-.901-1.664-.901-2.662s.34-1.913.901-2.662l-3.779-2.671C6.335 12.165 5.667 14.004 5.667 16s.668 3.835 1.788 5.333zM26.333 16a8.87 8.87 0 0 0-1.788-5.333L28.317 8C29.998 10.247 31 13.005 31 16s-1.002 5.753-2.683 8l-3.772-2.667A8.87 8.87 0 0 0 26.333 16zm-1.788 5.333l-3.779-2.671c.56-.749.901-1.664.901-2.662s-.34-1.913-.901-2.662l3.779-2.671c1.12 1.498 1.788 3.337 1.788 5.333s-.668 3.835-1.788 5.333z"/><circle cx="16" cy="16" r="2"/></g></svg>