<svg xmlns="http://www.w3.org/2000/svg" viewBox="0 0 32 32"><g stroke="#333" stroke-miterlimit="10" fill="none"><path d="M18.017 20.568c.331-.146.637-.333.926-.544a4.969 4.969 0 0 0 2.001-3.477c.021-.182.056-.36.056-.547 0-.187-.035-.365-.055-.547a4.967 4.967 0 0 0-2.001-3.477A4.932 4.932 0 0 0 16 11a4.96 4.96 0 0 0-2.017.432 4.987 4.987 0 0 0-.926.544 4.973 4.973 0 0 0-2.002 3.477c-.02.182-.055.36-.055.547 0 .187.035.365.055.547a4.968 4.968 0 0 0 2.002 3.477A4.932 4.932 0 0 0 16 21a4.96 4.96 0 0 0 2.017-.432zm-4.034-9.136C13.38 10.334 13 8.758 13 7c0-3.314 1.343-6 3-6s3 2.686 3 6c0 1.758-.38 3.334-.983 4.432m-4.034 9.136C13.38 21.666 13 23.242 13 25c0 3.314 1.343 6 3 6s3-2.686 3-6c0-1.758-.38-3.334-.983-4.432m-5.01-9.08c-.642-1.083-1.807-2.215-3.319-3.104-2.842-1.673-5.81-1.855-6.631-.406-.82 1.449.818 3.98 3.66 5.653 1.519.894 3.063 1.348 4.307 1.369m9.956 1c1.242.021 2.784.475 4.3 1.369 2.837 1.673 4.473 4.204 3.654 5.653s-3.783 1.267-6.62-.406c-1.508-.89-2.672-2.021-3.313-3.104M20.975 15c1.244-.021 2.788-.474 4.307-1.369 2.842-1.673 4.481-4.204 3.66-5.653-.82-1.449-3.789-1.267-6.631.406-1.511.89-2.677 2.021-3.319 3.104M11.011 16c-1.239.021-2.776.475-4.289 1.369-2.83 1.673-4.462 4.204-3.645 5.653.817 1.449 3.773 1.267 6.603-.406 1.504-.89 2.665-2.021 3.304-3.104"/><circle cx="16" cy="16" r=".5"/><circle cx="15" cy="14" r=".5"/><circle cx="14" cy="17" r=".5"/><circle cx="17" cy="18" r=".5"/><circle cx="18" cy="15" r=".5"/></g></svg>