<svg xmlns="http://www.w3.org/2000/svg" viewBox="0 0 32 32"><g stroke="#333" stroke-width="2" stroke-linecap="round" stroke-miterlimit="10" fill="none"><path d="M16 31V18"/><circle cx="16" cy="16" r="2"/><path d="M8.929 23.071C7.119 21.261 6 18.761 6 16s1.119-5.261 2.929-7.071A9.968 9.968 0 0 1 16 6a9.968 9.968 0 0 1 7.071 2.929C24.881 10.739 26 13.239 26 16s-1.119 5.261-2.929 7.071M5.393 26.607C2.679 23.892 1 20.142 1 16S2.679 8.108 5.393 5.393A14.957 14.957 0 0 1 16 1c4.142 0 7.892 1.679 10.607 4.393C29.321 8.108 31 11.858 31 16s-1.679 7.892-4.393 10.607"/></g></svg>