<svg xmlns="http://www.w3.org/2000/svg" viewBox="0 0 32 32"><path d="M22 6v10h-3V4a3 3 0 1 0-6 0v8h-3v-2a3 3 0 1 0-6 0v6a2 2 0 0 0 2 2h7v13h6v-9h7a2 2 0 0 0 2-2V6a3 3 0 1 0-6 0zm-6.5-2.5v7m-9-1v2m18-6v9m-22-3h1.458m-1.458 2h1.458m-1.458 2h1.458m7.542 6h1.458m-1.458 2h1.458m-1.458 2h1.458m-1.458 2h1.458m15.084-21H29.5m-1.458 2H29.5m-1.458 2H29.5m-1.458 2H29.5m-1.458 2H29.5m-1.458 2H29.5m-1.458 2H29.5m-10.458 7H20.5m-1.458 2H20.5" stroke="#333" stroke-linecap="round" stroke-linejoin="round" stroke-miterlimit="10" fill="none"/></svg>