<svg xmlns="http://www.w3.org/2000/svg" viewBox="0 0 32 32"><g stroke="#333" stroke-linecap="round" stroke-miterlimit="10" fill="none"><path d="M27.013 8.938c-.844-.783-1.88-1.25-3.005-1.25s-2.161.467-3.005 1.25M19.5 7.286C20.766 6.167 22.32 5.5 24.007 5.5c1.681 0 3.229.662 4.493 1.772M25.508 10.5c-.422-.389-.938-.625-1.5-.625s-1.078.236-1.5.625m-1.506-1.562c.844-.783 1.88-1.25 3.005-1.25s2.161.467 3.005 1.25M22.507 10.5c.422-.389.938-.625 1.5-.625.563 0 1.078.236 1.5.625M23.64 31H4.36A3.37 3.37 0 0 1 1 27.64v-3.28A3.37 3.37 0 0 1 4.36 21h19.28A3.37 3.37 0 0 1 27 24.36v3.28A3.37 3.37 0 0 1 23.64 31zm1.351-15.915L27 24M1 24L4.69 7.626A2 2 0 0 1 6.655 6H17"/><circle cx="22" cy="26" r="1.5"/><circle cx="24" cy="8" r="7"/></g></svg>