<svg xmlns="http://www.w3.org/2000/svg" viewBox="0 0 32 32"><path stroke="#333" stroke-width="2" stroke-linejoin="round" stroke-miterlimit="10" d="M26.472 26C28.973 26 31 24.01 31 21.556c0-2.1-1.488-3.849-3.483-4.314.052-.408.087-.82.087-1.242 0-5.523-4.562-10-10.189-10-4.444 0-8.213 2.797-9.606 6.692C4.003 12.947 1 15.819 1 19.333 1 23.015 4.294 26 8.358 26h18.114z" fill="none"/><path fill="#333" d="M12 17a1 1 0 1 0 0 2 1 1 0 0 0 0-2zm4 0a1 1 0 1 0 0 2 1 1 0 0 0 0-2zm4 0a1 1 0 1 0 0 2 1 1 0 0 0 0-2z"/></svg>