<svg xmlns="http://www.w3.org/2000/svg" viewBox="0 0 32 32"><g stroke="#333" stroke-linecap="round" stroke-linejoin="round" stroke-miterlimit="10" fill="none"><path d="M20.5 7.911V4.815c1.548 0 3.5-.631 3.5-1.315 0 .684 1.952 1.315 3.5 1.315V7.91c0 2.078-1.449 3.854-3.5 4.589-2.051-.734-3.5-2.51-3.5-4.588zM23.64 31H4.36A3.37 3.37 0 0 1 1 27.64v-3.28A3.37 3.37 0 0 1 4.36 21h19.28A3.37 3.37 0 0 1 27 24.36v3.28A3.37 3.37 0 0 1 23.64 31zm1.351-15.915L27 24M1 24L4.69 7.626A2 2 0 0 1 6.655 6H17"/><circle cx="22" cy="26" r="1.5"/><circle cx="24" cy="8" r="7"/></g></svg>