<svg xmlns="http://www.w3.org/2000/svg" viewBox="0 0 32 32"><path d="M24.384 21.782a12.115 12.115 0 0 0-6.336-.38c-.255-3.881-.062-7.809.693-11.489-2.014 3.024-3.499 6.424-4.424 9.983a5.526 5.526 0 0 0-1.983-.914c-1.577-.37-3.119-.082-4.718.177 1.391.727 2.787 1.457 4.059 2.376a12.904 12.904 0 0 1 1.957 1.734c-.344 2.223-.493 5.479-.383 7.729h6.128c-.396-1.578-.715-4.207-.952-5.863a13.405 13.405 0 0 1 5.959-3.353zm-5.759 3.656C19.452 26.042 21.497 27 23 27c2.937 0 5-2.239 5-5 0-.469-.086-.915-.207-1.346A4.99 4.99 0 0 0 31 16c0-2.45-1.765-4.48-4.092-4.908A4.994 4.994 0 0 0 22 7a5 5 0 0 0-5-5 4.992 4.992 0 0 0-4.655 3.206A4.979 4.979 0 0 0 11 5c-.915 0-1.762.264-2.5.694A4.946 4.946 0 0 0 6 5a5 5 0 0 0-5 5c0 1.884 1.055 3.505 2.594 4.358A4.969 4.969 0 0 0 2 18a5 5 0 0 0 5 5l.1-.01c0 3.448 3.463 5.01 6.025 3.883" stroke="#333" stroke-width="2" stroke-linecap="round" stroke-linejoin="round" stroke-miterlimit="10" fill="none"/></svg>