<svg xmlns="http://www.w3.org/2000/svg" viewBox="0 0 32 32"><path d="M8.342 26.992c.262-.747 1.072-1.439 1.406-2.242.164-.395.286-.877.057-1.236-.187-.292-.545-.399-.875-.462-1.285-.244-2.565-.222-3.802.212a1.672 1.672 0 0 0 1.406-.874 1.824 1.824 0 0 0-.007-1.708c-.361-.653-1.073-.98-1.698-1.36-1.147-.698-2.15-1.64-2.831-2.83a6.275 6.275 0 0 0 3.778 1.112c.288-.011.582-.043.843-.17s.488-.362.546-.657c.064-.322-.082-.657-.298-.898s-.493-.407-.759-.585c-.967-.647-1.675-1.548-2.345-2.522.308.27.623.545.995.706.372.161.817.192 1.165-.02.596-.363.66-1.226.605-1.944-.147-1.955-.558-3.91-1.388-5.673.348 1.327 1.559 2.171 2.68 2.895l4.844 3.126c.829-2.218.357-4.884-1.255-6.568.473.605 1.091 1.269 1.832 1.158.626-.094 1.04-.707 1.377-1.265L17.088 1c-.213 1.185-.343 2.424-.026 3.583.317 1.159 1.171 2.226 2.305 2.45 1.057.209 2.248-.063 3.203-.579-1.848 1.286-2.931 3.615-2.798 5.928.878-1.257 2.332-1.908 3.742-2.412 1.409-.504 2.801-.796 3.941-1.797-.839 1.204-1.669 2.536-1.684 4.025-.008.789.233 1.592.732 2.185s1.216 1.022 1.968.937c-1.756.569-3.301 1.637-4.567 3.029 2.085-.141 4.169.327 6.094 1.175a15.254 15.254 0 0 0-3.43 1.269c-.581.298-1.17.66-1.5 1.24-.331.581-.422 1.471.104 1.865-.717-.773-2.194-1.333-2.943-.595-.365.36-.456.931-.439 1.456.024.742.222 1.394.578 2.038-2.615-.523-4.994-2.225-6.404-4.582.277.463-2.914 3.036-3.294 3.29-1.191.796-2.881 1.586-4.328 1.487zm7.623-4.772c-.039 3.032-.958 5.872-1.727 8.78" stroke="#333" stroke-width="2" stroke-linecap="round" stroke-linejoin="round" stroke-miterlimit="10" fill="none"/></svg>