<svg xmlns="http://www.w3.org/2000/svg" viewBox="0 0 32 32"><path d="M8.804 1C6.457 2 5.003 4.288 5 6.661c-.003 2.373 1.26 4.635 3.025 6.328 1.22 1.169 2.696 2.129 3.646 3.503 1.846 2.671 1.241 6.292-.358 9.1a16.266 16.266 0 0 1-4.898 5.305c4.372.348 9.148-.05 12.354-3.196 2.67-2.62 4.022-6.941 2.126-10.382-.705-1.28-1.785-2.272-2.547-3.527-.615-1.013-1.051-2.163-1.06-3.348-.026-3.368 3.275-4.279 5.469-6.013C23.822 3.589 24.671 2 25 1H8.804zm2.305 2.323a5.584 5.584 0 0 0-1.857 2.684A5.265 5.265 0 0 0 9 7.595a6.035 6.035 0 0 0 .212 1.576m3.148 9.579c-2.016 0-3.695 1.206-4.077 2.807a3.61 3.61 0 0 0-1.123-.182c-1.723 0-3.12 1.175-3.12 2.625 0 .35.085.682.233.987C3.49 25.624 3 26.512 3 27.5 3 29.433 4.862 31 7.16 31h17.68c2.297 0 4.16-1.567 4.16-3.5 0-.974-.475-1.854-1.238-2.488.117-.322.198-.658.198-1.012 0-1.171-.707-2.2-1.677-2.809-1.394-.875-2.824-.685-4.346-.348" stroke="#333" stroke-linecap="round" stroke-linejoin="round" stroke-miterlimit="10" fill="none"/></svg>