<svg xmlns="http://www.w3.org/2000/svg" viewBox="0 0 32 32"><g stroke="#333" stroke-linecap="round" stroke-linejoin="round" stroke-miterlimit="10" fill="none"><path d="M8 31h14m-7 0V10m3 9.599c2.265.881 4.515 2.028 6.937.987 1.461-.628 2.639-1.916 3.157-3.45.563-1.667.358-3.485.358-5.249C28.45 10.123 28.737 8.198 30 7c-1.105 1.242-2.56 2.092-4.016 2.866s-2.954 1.504-4.222 2.57c-1.021.858-1.904 1.974-2.303 3.281-.399 1.309-.702 3.08-1.691 4.077-1.067 1.076-1.944 2.192-2.601 3.577M10 19.999c-.457-.86-.706-1.836-.973-2.773-.266-.934-.854-1.731-1.535-2.344-.846-.761-1.844-1.283-2.815-1.835-.97-.553-1.94-1.16-2.677-2.047.842.856 1.033 2.231 1.033 3.491 0 1.26-.137 2.559.238 3.749.345 1.096 1.131 2.016 2.105 2.465 1.614.743 3.114-.077 4.624-.706m.109-.002c.013.087-.077-.042 0 0 1.459.802 2.951 1.503 4.583 1.826"/><circle cx="15" cy="7" r="3"/><path d="M13.5 2a1.5 1.5 0 0 1 3 0m3.75 3.75a1.5 1.5 0 0 1 0 3m-10.5 0a1.5 1.5 0 0 1 0-3m10.023 4.152a1.5 1.5 0 1 1-2.121 2.121m-7.425-7.425a1.5 1.5 0 1 1 2.121-2.121m0 9.546a1.5 1.5 0 1 1-2.121-2.121m7.425-7.425a1.5 1.5 0 1 1 2.121 2.121"/></g></svg>