<svg xmlns="http://www.w3.org/2000/svg" viewBox="0 0 32 32"><path stroke="#333" stroke-width="2" stroke-linecap="round" stroke-linejoin="round" stroke-miterlimit="10" d="M29.411 10.879c-1.103-.715-2.464-.87-3.771-.879a20.086 20.086 0 0 0-6.479 1.037 22.943 22.943 0 0 0 1.621-2.061c.62-.902 1.191-1.9 1.218-2.987.04-1.605-1.299-3.132-2.925-3.334-1.173-.146-2.37.418-3.089 1.329.059-.38.046-.778-.04-1.149-.189-.813-.85-1.504-1.665-1.741-1.279-.371-2.686.391-3.401 1.494-.715 1.105-.871 2.466-.88 3.772a20.086 20.086 0 0 0 1.037 6.479 22.943 22.943 0 0 0-2.061-1.621c-.902-.62-1.9-1.191-2.987-1.218-1.606-.04-3.132 1.299-3.334 2.924-.146 1.173.418 2.37 1.328 3.089a3.082 3.082 0 0 0-1.149.04c-.813.189-1.504.85-1.741 1.666-.371 1.279.391 2.686 1.494 3.4s2.467.872 3.774.881c2.196.014 4.392-.34 6.479-1.037a22.943 22.943 0 0 0-1.621 2.061c-.62.902-1.19 1.9-1.218 2.987-.04 1.606 1.299 3.132 2.925 3.334 1.173.146 2.37-.418 3.089-1.329-.059.38-.046.778.04 1.149.189.813.85 1.504 1.666 1.741 1.279.371 2.686-.391 3.4-1.494.715-1.103.871-2.464.879-3.771a20.086 20.086 0 0 0-1.037-6.479c.66.576 1.341 1.126 2.061 1.621.902.62 1.9 1.191 2.987 1.218 1.606.04 3.132-1.299 3.334-2.925.146-1.173-.418-2.37-1.329-3.089.38.059.778.046 1.149-.04.813-.189 1.504-.85 1.741-1.666.37-1.28-.392-2.687-1.495-3.402z" fill="none"/><circle stroke="#333" stroke-linecap="round" stroke-linejoin="round" stroke-miterlimit="10" cx="16" cy="16" r="2.5" fill="none"/><path fill="#333" d="M16.847 4.493l-.114.151-.216.31a4.368 4.368 0 0 0-.485 1.179c-.255.95-.223 2.024-.223 2.024a.502.502 0 0 1-.986.147l-.006-.023s-.304-1.107-.272-2.337a6.121 6.121 0 0 1 .279-1.718c.062-.217.187-.487.225-.577l.077-.173a1.006 1.006 0 1 1 1.721 1.017zm-1.694 23.015l.114-.151.215-.309c.175-.277.359-.705.479-1.18.249-.952.217-2.03.217-2.03a.503.503 0 0 1 .986-.149l.007.024s.304 1.105.28 2.335a6.028 6.028 0 0 1-.272 1.722c-.061.218-.188.49-.225.579l-.077.173a1.007 1.007 0 1 1-1.724-1.014zm12.364-10.647l-.151-.114-.31-.216a4.368 4.368 0 0 0-1.179-.485c-.95-.255-2.024-.224-2.024-.224a.503.503 0 0 1-.148-.986l.023-.006s1.108-.304 2.337-.273a6.121 6.121 0 0 1 1.718.279c.217.062.487.187.577.225l.173.077a1.006 1.006 0 1 1-1.016 1.723zM4.493 15.165l.151.114.31.216c.278.176.705.362 1.179.485.95.255 2.024.223 2.024.223a.502.502 0 0 1 .147.986l-.023.006s-1.107.304-2.337.272a6.121 6.121 0 0 1-1.718-.279c-.217-.062-.487-.187-.576-.225l-.173-.077a1.006 1.006 0 1 1 1.016-1.721z"/></svg>