<svg xmlns="http://www.w3.org/2000/svg" viewBox="0 0 32 32"><g stroke="#333" stroke-width="2" stroke-linecap="round" stroke-miterlimit="10" fill="none"><ellipse cx="12" cy="7.724" rx="11" ry="3.724"/><path d="M23 14.241c0 2.057-4.925 3.724-11 3.724S1 16.298 1 14.241m22 6.518c0 2.057-4.925 3.724-11 3.724S1 22.816 1 20.759m22 6.517C23 29.333 18.075 31 12 31S1 29.333 1 27.276m0 0V7.724M23 21.5V7.724m0 19.552V21.5M9.223 3.974C10.249 2.277 14.684 1 20 1c6.075 0 11 1.667 11 3.724 0 1.689-3.323 3.116-7.877 3.572M31 11.241c0 1.697-3.352 3.129-7.937 3.578M31 17.759c0 1.674-3.261 3.09-7.749 3.559M31 24.276c0 1.706-3.387 3.143-8.008 3.585M31 24.276V4.724"/></g></svg>