<svg xmlns="http://www.w3.org/2000/svg" viewBox="0 0 32 32"><g stroke="#333" stroke-width="2" stroke-linejoin="round" stroke-miterlimit="10" fill="none"><circle cx="23" cy="23" r="8"/><path d="M23.006 28C24.996 25.538 28 24.706 28 22.374 28 20.916 27.271 20 25.546 20 24.427 20 23 21.123 23 21.852 23 21.123 21.572 20 20.454 20 18.729 20 18 20.916 18 22.374c0 2.332 3.004 3.165 4.993 5.626h.013zm-8.131-5H1V1h30v22"/><circle cx="9" cy="9" r="3"/><path d="M6.5 22.969l6.289-6.971a1.664 1.664 0 0 1 2.373 0l1.687 1.768m.108.005l6.72-7.466a2.42 2.42 0 0 1 3.604 0l3.628 4.031"/></g></svg>