<svg xmlns="http://www.w3.org/2000/svg" viewBox="0 0 32 32"><g stroke="#333" stroke-miterlimit="10" fill="none"><path d="M23.006 28C24.996 25.538 28 24.706 28 22.374 28 20.916 27.271 20 25.546 20 24.427 20 23 21.123 23 21.852 23 21.123 21.572 20 20.454 20 18.729 20 18 20.916 18 22.374c0 2.332 3.004 3.165 4.993 5.626h.013zM15 21a6 6 0 1 1 6-6m-6.5-3.5c-1.658 0-3 1.342-3 3M29 17.55V7.909a.999.999 0 0 0-.905-.995l-6.325-.602-1.315-3.944A1.998 1.998 0 0 0 18.558 1h-7.117a2 2 0 0 0-1.897 1.368L8.229 6.312l-6.324.602A1 1 0 0 0 1 7.909V24a1 1 0 0 0 1 1h13.042"/><circle cx="23" cy="23" r="8"/></g></svg>