<svg xmlns="http://www.w3.org/2000/svg" viewBox="0 0 32 32"><path fill="#333" d="M2.32 23.132s.257-.441.725-1.158c.457-.691 1.116-1.597 1.895-2.413.775-.82 1.688-1.516 2.426-1.931.737-.42 1.261-.614 1.261-.614l.023-.008a.5.5 0 0 1 .401.913s-.452.232-1.054.677c-.604.442-1.321 1.136-1.918 1.938-.6.799-1.099 1.685-1.442 2.368-.329.661-.552 1.168-.552 1.168a1.002 1.002 0 1 1-1.783-.908l.018-.032zm12.957 8.559l-.251-.293a19.217 19.217 0 0 1-.68-.841 12.514 12.514 0 0 1-1.627-2.876c-.445-1.133-.63-2.358-.604-3.267.015-.455.059-.83.103-1.09l.077-.406a.499.499 0 0 1 .989.129l-.003.037-.026.357c-.012.227-.013.552.017.938.066.772.336 1.777.818 2.691a10.888 10.888 0 0 0 1.674 2.308c.267.271.485.496.678.669l.282.264a1.002 1.002 0 1 1-1.447 1.38zm2.916-22.755l.027-.377c.015-.245.025-.543.009-.939-.022-.776-.184-1.796-.576-2.718-.37-.931-.969-1.745-1.467-2.306-.506-.559-.893-.889-.893-.889a1.002 1.002 0 1 1 1.38-1.45l.034.037s.407.434.929 1.164c.514.732 1.12 1.796 1.436 2.961.341 1.156.387 2.361.313 3.227-.03.428-.09.815-.131 1.046l-.069.372a.502.502 0 0 1-.992-.128zM2.86 8.01l.36-.029c.205-.019.623-.043 1.038-.038a11.4 11.4 0 0 1 3.072.439c1.082.31 2.089.795 2.792 1.224.707.426 1.135.762 1.135.762l.014.01a.5.5 0 0 1-.568.822s-.434-.263-1.118-.57a10.51 10.51 0 0 0-2.59-.786 9.694 9.694 0 0 0-2.649-.06c-.37.043-.604.083-.852.134l-.354.072a1.002 1.002 0 1 1-.28-1.98zm26.315 15.975l-.367.043c-.213.027-.625.066-1.046.082-.861.039-2.012-.01-3.13-.234a12.337 12.337 0 0 1-2.955-.969c-.764-.366-1.232-.681-1.232-.681l-.016-.011a.5.5 0 0 1 .509-.859s.457.235 1.179.482c.719.253 1.716.479 2.722.553a11.82 11.82 0 0 0 3.628-.29l.359-.086a1.003 1.003 0 1 1 .349 1.97zm.649-15.155l-.128.35c-.07.203-.226.587-.417.995-.385.801-1.032 1.838-1.911 2.647-.861.827-1.892 1.407-2.677 1.741-.788.339-1.329.489-1.329.489l-.021.006a.499.499 0 0 1-.322-.944s.487-.199 1.153-.583c.667-.38 1.488-.985 2.11-1.742.641-.744 1.057-1.635 1.297-2.325.112-.345.188-.597.245-.85l.087-.362a1.001 1.001 0 1 1 1.913.578z"/><path stroke="#333" stroke-width="2" stroke-miterlimit="10" d="M16 1c8.284 0 15 6.716 15 15 0 8.284-6.716 15-15 15-5.437 0-10.198-2.892-12.828-7.222A14.93 14.93 0 0 1 1 16C1 7.716 7.716 1 16 1z" fill="none"/><circle stroke="#333" stroke-linecap="round" stroke-miterlimit="10" cx="16" cy="16" r="4.5" fill="none"/></svg>