<svg xmlns="http://www.w3.org/2000/svg" viewBox="0 0 32 32"><g stroke="#333" stroke-linecap="round" stroke-linejoin="round" stroke-miterlimit="10" fill="none"><path d="M19 18.782V29a2 2 0 0 1-2 2H5a2 2 0 0 1-2-2V3a2 2 0 0 1 2-2h12a2 2 0 0 1 2 2v6.025M9.5 3.5h3"/><circle cx="11" cy="27.5" r="1"/><path d="M19 24.5H3m0-19h16m3 7.318C22 10.708 23.511 9 25.379 9 27.381 9 29 10.83 29 13.091c0 4.372-4.302 5.326-7 7.909-2.698-2.583-7-3.538-7-7.909C15 10.83 16.619 9 18.621 9 20.489 9 22 10.708 22 12.818z"/></g></svg>