<svg xmlns="http://www.w3.org/2000/svg" viewBox="0 0 32 32"><g stroke="#333" stroke-linecap="round" stroke-miterlimit="10" fill="none"><path d="M12.295 25v6m0-10c-2.75 0-5-2.357-5-5.238V6.238c0-2.881 2.25-5.238 5-5.238s5 2.357 5 5.238v9.524c0 2.881-2.25 5.238-5 5.238zm8.296-5.1c0 2.39-.933 4.562-2.437 6.138-1.504 1.575-3.577 2.553-5.859 2.553-2.281 0-4.355-.978-5.859-2.553A8.877 8.877 0 0 1 4 15.9"/><circle cx="24" cy="5" r="4"/><circle cx="24" cy="5" r="4"/><circle cx="24" cy="5" r="1.5"/></g></svg>