<svg xmlns="http://www.w3.org/2000/svg" viewBox="0 0 32 32"><g stroke="#333" stroke-width="2" stroke-miterlimit="10" fill="none"><circle cx="16" cy="16" r="14"/><path d="M22.769 19.958c-.498-.448-1.029-.85-1.553-1.261-1.044-.82-1.999-.883-2.778.435-.437.74-1.05.773-1.69.448-1.766-.895-3.129-2.274-3.927-4.28-.353-.887-.349-1.683.478-2.311.438-.332.879-.725.843-1.45-.046-.946-2.1-4.106-2.911-4.44a1.33 1.33 0 0 0-1.011-.001c-1.902.715-2.69 2.464-1.936 4.534 2.251 6.178 6.212 10.478 11.665 13.103.311.149.656.209.831.263 1.241.014 2.696-1.323 3.116-2.65.404-1.275-.451-1.782-1.127-2.39z"/></g></svg>