<svg xmlns="http://www.w3.org/2000/svg" viewBox="0 0 32 32"><g stroke="#333" stroke-linecap="round" stroke-linejoin="round" stroke-miterlimit="10" fill="none"><path d="M21 24H11a1 1 0 0 1-1-1V5a1 1 0 0 1 1-1h10a1 1 0 0 1 1 1v18a1 1 0 0 1-1 1zm1-18h7a1 1 0 0 1 1 1v14a1 1 0 0 1-1 1h-7m-12 0H3a1 1 0 0 1-1-1V7a1 1 0 0 1 1-1h7m3.5-2.083V2.5a1 1 0 0 1 1-1h3a1 1 0 0 1 1 1v1.375"/><circle cx="26" cy="10" r=".5"/><circle cx="16" cy="11" r="3.5"/><circle cx="16" cy="11" r="1.5"/><path d="M12.5 17.5h3v4h-3zM13 24v6m6-6v6"/></g></svg>