<svg xmlns="http://www.w3.org/2000/svg" viewBox="0 0 32 32"><g stroke="#333" stroke-linecap="round" stroke-linejoin="round" stroke-miterlimit="10" fill="none"><path d="M8.5 3.5h3"/><circle cx="10" cy="27.5" r="1"/><path d="M18 24.5H2m0-19h16m0 5.766V3a2 2 0 0 0-2-2H4a2 2 0 0 0-2 2v26a2 2 0 0 0 2 2h12a2 2 0 0 0 2-2v-9"/><path d="M18 20h-1c-2.209 0-4-1.99-4-4.444s1.791-4.444 4-4.444c.347 0 .679.062 1 .155.468.137.906.354 1.292.655C19.771 10.789 20.799 10 22 10c1.657 0 3 1.492 3 3.333l-.019.211A2.71 2.71 0 0 1 26 13.333c1.657 0 3 1.492 3 3.333C29 18.508 27.657 20 26 20h-8z"/></g></svg>