<svg xmlns="http://www.w3.org/2000/svg" viewBox="0 0 32 32"><g stroke="#333" stroke-linecap="round" stroke-linejoin="round" stroke-miterlimit="10" fill="none"><circle cx="16" cy="16" r="10"/><path d="M16 1v2m0 26v2m15-15h-2M3 16H1M26.607 5.393l-1.415 1.415M6.808 25.192l-1.415 1.415m21.214 0l-1.415-1.415M6.808 6.808L5.393 5.393M21.74 2.142l-.765 1.848m-9.95 24.02l-.765 1.848m19.598-8.118l-1.848-.765m-24.02-9.95l-1.848-.765m27.716 0l-1.848.765m-24.02 9.95l-1.848.765m19.598 8.118l-.765-1.848m-9.95-24.02l-.765-1.848M9.5 14.5c0-2.764 2.236-5 5-5"/></g></svg>