<svg xmlns="http://www.w3.org/2000/svg" viewBox="0 0 32 32"><path d="M10.828 4.783c1.126 1.126 1.515 2.673 1.175 4.02 1.346-.34 2.893.049 4.02 1.175 1.126 1.126 1.515 2.673 1.175 4.02 1.346-.34 2.893.049 4.02 1.175.535.535.89 1.169 1.098 1.828l.386-.344c3.313-3.313 3.009-8.989-.68-12.678s-9.365-3.993-12.678-.68L9 3.685a4.456 4.456 0 0 1 1.828 1.098zM12 14v13m4.023-17.023L9 17m3 10v4m0-4l-4 4m4-4l4 4" stroke="#333" stroke-width="2" stroke-linecap="round" stroke-linejoin="round" stroke-miterlimit="10" fill="none"/></svg>