<svg xmlns="http://www.w3.org/2000/svg" viewBox="0 0 32 32"><g stroke="#333" stroke-linejoin="round" stroke-miterlimit="10" fill="none"><path d="M10.938 18H1V4h20v9.969"/><circle cx="6" cy="9" r="2.5"/><path d="M4.667 17.98l4.193-4.436a1.147 1.147 0 0 1 1.582 0l.553.553m1.296-.117l3.827-4.059a1.664 1.664 0 0 1 2.402 0l2.419 2.565M11 14h20v14H11z"/><circle cx="16" cy="19" r="2.5"/><path d="M14.667 27.98l4.193-4.436a1.147 1.147 0 0 1 1.582 0l4.434 4.436m-3.238-3.308l4.48-4.751a1.664 1.664 0 0 1 2.402 0l2.419 2.565"/></g></svg>