<svg xmlns="http://www.w3.org/2000/svg" viewBox="0 0 32 32"><path d="M13.175 18.824c1.171 1.129 2.559 2.037 4.133 2.746 1.121.505 2.192.455 2.958-.697 1.363-2.052 3.035-1.952 4.862-.677.916.639 1.847 1.264 2.718 1.961 1.183.946 2.679 1.735 1.971 3.72-.735 2.064-3.28 4.144-5.453 4.122-.306-.083-.91-.176-1.455-.409-4.789-2.049-8.919-4.755-12.345-8.157M30 2L13.175 18.824l-2.609 2.61L2 30m9.378-13.378a12.705 12.705 0 0 1-.942-1.709c-.618-1.38-.61-2.618.836-3.595.766-.516 1.537-1.127 1.476-2.256-.081-1.471-3.675-6.388-5.095-6.907-.588-.214-1.173-.2-1.77 0-3.329 1.112-4.708 3.832-3.387 7.053 1.576 3.845 3.641 7.215 6.151 10.145" stroke="#333" stroke-width="2" stroke-linecap="round" stroke-linejoin="round" stroke-miterlimit="10" fill="none"/></svg>