<svg xmlns="http://www.w3.org/2000/svg" viewBox="0 0 32 32"><g stroke="#333" stroke-linecap="round" stroke-linejoin="round" stroke-miterlimit="10" fill="none"><path d="M22.771 9.311l-1.315-3.944A2 2 0 0 0 19.559 4h-7.117a2 2 0 0 0-1.897 1.367L9.229 9.311l-6.324.603a1 1 0 0 0-.905.995V27a1 1 0 0 0 1 1h26a1 1 0 0 0 1-1V10.909a.999.999 0 0 0-.905-.995l-6.324-.603z"/><circle cx="16" cy="18" r="6"/><circle cx="16" cy="18" r="2.5"/><circle cx="26" cy="13" r=".5"/><path d="M13.5 6.5h5m-5 2h5"/></g></svg>