<svg xmlns="http://www.w3.org/2000/svg" viewBox="0 0 32 32"><path d="M29 30H3a1 1 0 0 1-1-1V3a1 1 0 0 1 1-1h26a1 1 0 0 1 1 1v26a1 1 0 0 1-1 1zm-5.384-9.602c-.56-.498-1.158-.944-1.747-1.401-1.175-.911-2.249-.982-3.125.484-.492.823-1.181.859-1.902.498-1.986-.994-3.52-2.526-4.418-4.755-.397-.986-.392-1.87.538-2.568.492-.369.988-.805.949-1.611-.052-1.051-2.363-4.563-3.275-4.933a1.514 1.514 0 0 0-1.14-.001c-2.14.794-3.026 2.737-2.177 5.038 2.532 6.864 6.989 11.642 13.124 14.559.35.166.738.233.935.292 1.397.016 3.033-1.47 3.505-2.945.455-1.418-.507-1.981-1.267-2.657z" stroke="#333" stroke-width="2" stroke-miterlimit="10" fill="none"/></svg>