<svg xmlns="http://www.w3.org/2000/svg" viewBox="0 0 32 32"><path stroke="#333" stroke-width="2" stroke-linecap="round" stroke-linejoin="round" stroke-miterlimit="10" d="M21.06 5.022c1.555.658 2.956 1.61 4.132 2.786s2.128 2.577 2.786 4.132S29 15.205 29 17a12.954 12.954 0 0 1-3.808 9.192A12.954 12.954 0 0 1 16 30a12.954 12.954 0 0 1-9.192-3.808A12.954 12.954 0 0 1 3 17a12.954 12.954 0 0 1 3.808-9.192" fill="none"/><path fill="#333" d="M6.384 4.68l10.384 11.68a1.001 1.001 0 1 1-1.536 1.281L5.616 5.32a.5.5 0 0 1 .768-.64z"/><circle stroke="#333" stroke-width="2" stroke-linecap="round" stroke-linejoin="round" stroke-miterlimit="10" cx="16" cy="4" r="2" fill="none"/></svg>