<svg xmlns="http://www.w3.org/2000/svg" viewBox="0 0 32 32"><path d="M22.736 5.001h-4.147c-.501 0-.905.312-.905.846v4.196c0 .535.404.958.905.958h4.147l3.141 1.932 3.359 1.99a.283.283 0 0 0 .299.006.313.313 0 0 0 .148-.272L27.87 7.99l1.813-6.667a.323.323 0 0 0-.147-.276.284.284 0 0 0-.298-.008l-3.361 2.013-3.141 1.949zm5.609 1.362C29.278 6.462 30 7.13 30 7.939c0 .821-.743 1.497-1.696 1.581m-5.12-4.519v6m3.663 12.156c-.871-.697-1.802-1.322-2.718-1.961-1.827-1.275-3.498-1.374-4.862.677-.766 1.152-1.837 1.202-2.958.697-3.09-1.392-5.475-3.537-6.873-6.657-.618-1.38-.61-2.618.836-3.595.766-.516 1.537-1.127 1.476-2.256-.081-1.471-3.675-6.388-5.095-6.907-.588-.215-1.173-.201-1.77-.001C1.554 4.266.176 6.987 1.496 10.208c3.939 9.61 10.872 16.299 20.414 20.383.544.233 1.148.326 1.455.409 2.172.022 4.718-2.058 5.453-4.122.707-1.986-.788-2.775-1.971-3.721z" stroke="#333" stroke-miterlimit="10" fill="none"/></svg>