<svg xmlns="http://www.w3.org/2000/svg" viewBox="0 0 32 32"><g stroke="#333" stroke-miterlimit="10" fill="none"><path d="M19 18.084L13 21l2.51-4.258-.01-.005c-1.537-.923-2.5-2.225-2.5-3.672 0-1.381.875-2.632 2.292-3.545.762-.493 1.682-.885 2.708-1.148.32-.082.662-.134 1-.19A12.1 12.1 0 0 1 21 8c4.418 0 8 2.268 8 5.065s-3.582 5.065-8 5.065c-.622 0-1.219-.058-1.799-.144l-.201.098zm0-9.902V3a2 2 0 0 0-2-2H5a2 2 0 0 0-2 2v26a2 2 0 0 0 2 2h12a2 2 0 0 0 2-2V18.084M9.5 3.5h3"/><circle cx="11" cy="27.5" r="1"/><path d="M19 24.5H3m0-19h16"/></g></svg>