<svg xmlns="http://www.w3.org/2000/svg" viewBox="0 0 32 32"><path d="M4.903 27.844c.951-.104 1.895-.285 2.839-.45 1.882-.328 2.956-1.263 2.539-3.293-.234-1.14.385-1.807 1.372-2.173 2.719-1.009 5.468-1.152 8.209-.128 1.213.453 1.959 1.194 1.674 2.634-.151.762-.249 1.584.473 2.218.941.827 6.105 1.612 7.281 1.077.487-.222.833-.578 1.075-1.051 1.345-2.64.531-5.076-2.224-6.206-8.22-3.371-16.485-3.226-24.752.019-.471.185-.894.489-1.13.622-1.331 1.278-1.614 4.028-.807 5.692.773 1.6 2.159 1.18 3.451 1.039zM26 4L16 14 6 4m0 6V4h6" stroke="#333" stroke-width="2" stroke-miterlimit="10" fill="none"/></svg>