<svg xmlns="http://www.w3.org/2000/svg" viewBox="0 0 32 32"><g stroke="#333" stroke-linecap="round" stroke-linejoin="round" stroke-miterlimit="10" fill="none"><path d="M7.5 3.5h3"/><circle cx="9" cy="27.5" r="1"/><path d="M17 24.5H1m0-19h16m0 8.064V3a2 2 0 0 0-2-2H3a2 2 0 0 0-2 2v26a2 2 0 0 0 2 2h12a2 2 0 0 0 2-2v-8.74"/><path d="M17 20.26c-.315.147-.613.31-.936.448-.388.166-.82.233-1.039.292-1.552.015-3.37-1.47-3.895-2.945-.505-1.418.563-1.982 1.408-2.657.622-.498 1.287-.944 1.941-1.401.907-.633 1.758-.845 2.52-.433.335.181.655.47.952.917.547.823 1.312.859 2.113.498 2.207-.994 3.911-2.526 4.909-4.755.442-.986.436-1.87-.597-2.568-.547-.369-1.098-.805-1.054-1.611.057-1.051 2.625-4.563 3.639-4.933.42-.153.837-.144 1.264-.001 2.378.794 3.362 2.737 2.419 5.038C27.965 12.688 23.324 17.313 17 20.26z"/></g></svg>