<svg xmlns="http://www.w3.org/2000/svg" viewBox="0 0 32 32"><g stroke="#333" stroke-linecap="round" stroke-linejoin="round" stroke-miterlimit="10" fill="none"><path d="M22 31H10a2 2 0 0 1-2-2V3a2 2 0 0 1 2-2h12a2 2 0 0 1 2 2v26a2 2 0 0 1-2 2zM14.5 3.5h3"/><circle cx="16" cy="27.5" r="1"/><path d="M24 24.5H8m0-19h16m-4.5 10.923V21.5h-7v-11h7zm-5-5.923v-2h3v2"/></g><path stroke="#333" stroke-linecap="round" stroke-linejoin="round" stroke-miterlimit="10" d="M14 17.5h4m-4 2h4m-4-4h4m-4-2h4" fill="none"/></svg>