<svg xmlns="http://www.w3.org/2000/svg" viewBox="0 0 32 32"><g stroke="#333" stroke-linecap="round" stroke-linejoin="round" stroke-miterlimit="10" fill="none"><path d="M19.385 12.656l-.657-1.972a1 1 0 0 0-.949-.684h-3.558a1 1 0 0 0-.949.684l-.657 1.972-3.162.301a.5.5 0 0 0-.453.498V21.5a.5.5 0 0 0 .5.5h13a.5.5 0 0 0 .5-.5v-8.045a.5.5 0 0 0-.453-.498l-3.162-.301z"/><circle cx="16" cy="17" r="2.5"/><path d="M28 23c1.854-1.791 3-4.265 3-7s-1.146-5.21-3-7m-2 2.285c1.236 1.206 2 2.873 2 4.715s-.764 3.509-2 4.715M4 23c-1.854-1.791-3-4.265-3-7s1.146-5.21 3-7m2 2.285C4.764 12.491 4 14.158 4 16s.764 3.509 2 4.715"/></g></svg>