<svg xmlns="http://www.w3.org/2000/svg" viewBox="0 0 32 32"><path stroke="#333" stroke-width="2" stroke-miterlimit="10" d="M27.847 22.157c-.871-.697-1.802-1.322-2.718-1.961-1.827-1.275-3.498-1.374-4.862.677-.766 1.152-1.837 1.202-2.958.697-3.09-1.392-5.475-3.537-6.873-6.657-.618-1.38-.61-2.618.836-3.595.766-.516 1.537-1.127 1.476-2.256-.081-1.471-3.675-6.388-5.095-6.907-.587-.215-1.172-.201-1.77-.001-3.329 1.113-4.708 3.833-3.387 7.054 3.939 9.61 10.872 16.299 20.414 20.383.544.233 1.148.326 1.455.409 2.173.022 4.718-2.058 5.453-4.122.707-1.986-.788-2.775-1.971-3.721z" fill="none"/></svg>