<svg xmlns="http://www.w3.org/2000/svg" viewBox="0 0 32 32"><g stroke="#333" stroke-linecap="round" stroke-linejoin="round" stroke-miterlimit="10" fill="none"><path d="M24 30H4a1 1 0 0 1-1-1V7a1 1 0 0 1 1-1h20a1 1 0 0 1 1 1v22a1 1 0 0 1-1 1zM7 5.938V3a1 1 0 0 1 1-1h20a1 1 0 0 1 1 1v22a1 1 0 0 1-1 1h-2.875"/><path d="M20.5 24.5h-13a1 1 0 0 1-1-1V10.441a1 1 0 0 1 1-1h13a1 1 0 0 1 1 1V23.5a1 1 0 0 1-1 1z"/><circle cx="14" cy="14" r="2.5"/><path d="M17.5 22.5h-7V21a3.5 3.5 0 1 1 7 0v1.5z"/></g></svg>