<svg xmlns="http://www.w3.org/2000/svg" viewBox="0 0 32 32"><g stroke="#333" stroke-linecap="round" stroke-linejoin="round" stroke-miterlimit="10" fill="none"><path d="M21.32 6.984l-1.033-2.958C20.073 3.413 19.472 3 18.796 3h-5.592c-.676 0-1.277.413-1.491 1.026L10.68 6.984l-4.969.451c-.403.037-.711.36-.711.747V20.25c0 .414.352.75.786.75h20.428c.434 0 .786-.336.786-.75V8.182c0-.387-.308-.71-.711-.747l-4.969-.451z"/><circle cx="16" cy="14" r="4"/><path d="M16.179 11.875c-1.303 0-2.357 1.006-2.357 2.25M1 28l3.748 2s1.874-2 3.748-2 1.874 2 3.749 2l3.747-2 3.748 2 3.749-2 3.755 2s1.877-2 3.755-2M1 24l3.748 2s1.874-2 3.748-2 1.874 2 3.749 2l3.747-2 3.748 2 3.749-2 3.755 2s1.877-2 3.755-2"/></g></svg>