<svg xmlns="http://www.w3.org/2000/svg" viewBox="0 0 32 32"><g stroke="#333" stroke-miterlimit="10" fill="none"><path d="M18 4.367V3a2 2 0 0 0-2-2H4a2 2 0 0 0-2 2v26a2 2 0 0 0 2 2h12a2 2 0 0 0 2-2V14.708M8.5 3.5h3"/><circle cx="10" cy="27" r="1.5"/><path d="M15.5 15.896V23.5h-11v-18h10.792"/><path d="M18 4.372A12.089 12.089 0 0 1 21 4c4.418 0 8 2.268 8 5.065 0 2.797-3.582 5.065-8 5.065-.622 0-1.219-.058-1.799-.144L13 17l2.51-4.258-.01-.005c-1.537-.923-2.5-2.225-2.5-3.672 0-1.381.875-2.632 2.292-3.545.762-.493 1.682-.885 2.708-1.148z"/><circle cx="18" cy="9" r=".5"/><circle cx="21" cy="9" r=".5"/><circle cx="24" cy="9" r=".5"/></g></svg>