<svg xmlns="http://www.w3.org/2000/svg" viewBox="0 0 32 32"><g stroke="#333" stroke-miterlimit="10" fill="none"><path d="M10.5 3.5h3"/><circle cx="12" cy="27.5" r="1"/><path d="M20 24.5H4m0-19h16M16 15a1.994 1.994 0 0 1-1.222 1.843 1.994 1.994 0 0 1-1.557 0 2.005 2.005 0 0 1-1.064-2.621 2.005 2.005 0 0 1 2.621-1.065A2.005 2.005 0 0 1 16 15zm11-5a1.994 1.994 0 0 1-1.222 1.843 1.994 1.994 0 0 1-1.557 0 1.994 1.994 0 0 1-1.065-1.065 2.012 2.012 0 0 1 .001-1.556 2.005 2.005 0 0 1 2.621-1.065A2.005 2.005 0 0 1 27 10zm0 10a1.994 1.994 0 0 1-1.222 1.843 1.994 1.994 0 0 1-1.557 0 1.994 1.994 0 0 1-1.065-1.065 2.012 2.012 0 0 1 .001-1.556 2.005 2.005 0 0 1 2.621-1.065A2.005 2.005 0 0 1 27 20zm-7-7.735V3a2 2 0 0 0-2-2H6a2 2 0 0 0-2 2v26a2 2 0 0 0 2 2h12a2 2 0 0 0 2-2V18.23m-4.157-4.008L20 12.265l3.157-1.487m-7.314 5L20 18.23 23 20"/></g></svg>