<svg xmlns="http://www.w3.org/2000/svg" viewBox="0 0 32 32"><path d="M27 20H5c-2.2 0-4-1.8-4-4s1.8-4 4-4h22c2.2 0 4 1.8 4 4s-1.8 4-4 4zM9 12.208v7.584m14-7.584v7.584M16 9V5m3.869 4l.262-2.989M23.739 9l.521-2.954M12.131 9l-.262-2.989M8.26 9l-.52-2.954M27.487 9l1.026-2.819M4.513 9L3.487 6.181M16 23v4m3.869-4l.262 2.989M23.739 23l.521 2.954M12.131 23l-.262 2.989M8.26 23l-.52 2.954M27.487 23l1.026 2.819M4.513 23l-1.026 2.819" stroke="#333" stroke-width="2" stroke-linecap="round" stroke-linejoin="round" stroke-miterlimit="10" fill="none"/></svg>