<svg xmlns="http://www.w3.org/2000/svg" viewBox="0 0 32 32"><path d="M16 25v6m-3.494-11.506C13.41 20.422 14.642 21 16 21c2.75 0 5-2.357 5-5.238V11m0-4v-.762C21 3.357 18.75 1 16 1s-5 2.357-5 5.238v9.524c0 .384.045.756.121 1.117m13.174-.979c0 2.39-.933 4.562-2.437 6.138-1.504 1.575-3.577 2.553-5.859 2.553-2.281 0-4.355-.978-5.859-2.553l-.083-.096a8.759 8.759 0 0 1-1.583-2.417 8.943 8.943 0 0 1-.77-3.625m4.802 3.594L21 11M10.058 21.942L2 30m10.506-10.506l-2.448 2.448M21 11l9-9" stroke="#333" stroke-width="2" stroke-linecap="round" stroke-linejoin="round" stroke-miterlimit="10" fill="none"/></svg>