<svg xmlns="http://www.w3.org/2000/svg" viewBox="0 0 32 32"><g stroke="#333" stroke-linecap="round" stroke-linejoin="round" stroke-miterlimit="10" fill="none"><path d="M23.224 7.447l-1.947-3.894A1.001 1.001 0 0 0 20.382 3h-8.764a.998.998 0 0 0-.894.553L8.776 7.447A.998.998 0 0 1 7.882 8H3a2 2 0 0 0-2 2v18a2 2 0 0 0 2 2h26a2 2 0 0 0 2-2V10a2 2 0 0 0-2-2h-4.882a.998.998 0 0 1-.894-.553z"/><circle cx="16" cy="19" r="7.5"/><circle cx="16" cy="19" r="5.5"/><path d="M15.5 15.5c-1.658 0-3 1.342-3 3m-3.666-2H1.167m29.667 0h-7.667"/><circle cx="27" cy="12" r="1.5"/><path d="M3.5 7.917V5.5h3v2.458"/></g></svg>