<svg xmlns="http://www.w3.org/2000/svg" viewBox="0 0 32 32"><g stroke="#333" stroke-linejoin="round" stroke-miterlimit="10" fill="none"><path d="M21 21v8a2 2 0 0 1-2 2H7a2 2 0 0 1-2-2V3a2 2 0 0 1 2-2h12a2 2 0 0 1 2 2v6m-9.5-5.5h3"/><circle cx="13" cy="27.5" r="1"/><path d="M21 24.5H5m0-19h16m6.5 10.8v-2.6h-2.387c-.076-.24-.17-.47-.285-.69l1.687-1.687-1.838-1.838-1.687 1.687a4.314 4.314 0 0 0-.69-.285V8.5h-2.6v2.387c-.24.076-.47.17-.69.285l-1.687-1.687-1.838 1.838 1.687 1.687c-.115.22-.208.45-.285.69H14.5v2.6h2.387c.076.24.17.47.285.69l-1.687 1.687 1.838 1.838 1.687-1.687c.22.115.449.208.69.285V21.5h2.6v-2.387c.24-.076.47-.17.69-.285l1.687 1.687 1.838-1.838-1.687-1.687c.115-.22.208-.449.285-.69H27.5z"/><circle cx="21" cy="15" r="1.5"/></g></svg>