<svg xmlns="http://www.w3.org/2000/svg" viewBox="0 0 32 32"><path d="M20 8.947V4a2 2 0 0 0-2-2h-4a2 2 0 0 0-2 2v4.947c-2.952 1.469-4.987 4.503-5 8.021-.017 4.801 3.923 8.884 8.722 9.029A9.002 9.002 0 0 0 25 17c0-3.532-2.039-6.58-5-8.053zM30 17h-2M4 17H2m14 14v-2m9.899-2.101l-1.414-1.414M7.515 8.515L6.1 7.101m0 19.798l1.415-1.414m16.97-16.97l1.414-1.414m3.035 4.541l-1.847.766M4.913 21.592l-1.847.766m18.292 7.576l-.766-1.847m8.342-5.729l-1.847-.766M4.913 12.408l-1.847-.766m7.576 18.292l.766-1.847" stroke="#333" stroke-width="2" stroke-linecap="round" stroke-linejoin="round" stroke-miterlimit="10" fill="none"/></svg>