<svg xmlns="http://www.w3.org/2000/svg" viewBox="0 0 32 32"><path d="M23.22 2.346l-3.473 5.589L15.993 1l-3.747 6.936L8.78 2.347C7.631 4.114 7 6.417 7 8.942c0 5.56 4.029 10.067 9 10.067s9-4.507 9-10.067c0-2.526-.631-4.828-1.78-6.596zM16 19.094V31m-2.655-8.345c1.881 1.881 2.466 4.578 2.648 6.149a1.062 1.062 0 0 1-1.188 1.188c-1.571-.182-4.269-.767-6.149-2.648-1.881-1.881-2.466-4.578-2.648-6.149a1.063 1.063 0 0 1 1.188-1.188c1.571.182 4.268.768 6.149 2.648zm10 4.69c1.881-1.881 2.466-4.578 2.648-6.149a1.063 1.063 0 0 0-1.188-1.188c-1.571.182-4.269.767-6.149 2.648-1.881 1.881-2.466 4.578-2.648 6.149a1.062 1.062 0 0 0 1.188 1.188c1.571-.182 4.268-.768 6.149-2.648z" stroke="#333" stroke-width="2" stroke-linejoin="round" stroke-miterlimit="10" fill="none"/></svg>