<svg xmlns="http://www.w3.org/2000/svg" viewBox="0 0 32 32"><g stroke="#333" stroke-linecap="round" stroke-linejoin="round" stroke-miterlimit="10" fill="none"><path d="M23.929 1c1.778.03 3.568.74 4.95 2.121A7.175 7.175 0 0 1 31 8.071m-2.828 0c-.106-.979-.585-1.999-1.414-2.828-.829-.829-1.849-1.309-2.828-1.414m-.602 2.934c.463.026.935.228 1.308.601s.575.845.601 1.308M10.362 31L1 21.638l10.699-10.699a6.62 6.62 0 0 1 9.362 9.362L10.362 31z"/><ellipse transform="rotate(-45.001 16 16)" cx="16" cy="16" rx="2.5" ry="2.5"/><path d="M21.968 12.429a1.758 1.758 0 0 1-2.485-2.485M6.101 22.364l3.535 3.535M7.515 20.95l3.535 3.535m-2.121-4.95l3.535 3.536"/></g></svg>