<svg xmlns="http://www.w3.org/2000/svg" viewBox="0 0 32 32"><path d="M1.149 13.915c-.088.66-.149 1.327-.149 2.01 0 .683.061 1.351.149 2.01m16.936-9.837a8.066 8.066 0 0 1 5.77 5.818H31A15.062 15.062 0 0 0 18.085 1v7.098zM1.149 17.935c.897 6.713 6.202 12.019 12.915 12.915.66.089 1.327.15 2.011.15.683 0 1.351-.061 2.01-.149a14.957 14.957 0 0 0 4.962-1.567l-4.1-5.806c-.28.108-.568.199-.862.276a7.986 7.986 0 0 1-2.01.265 8.067 8.067 0 0 1-7.78-6.082 8.124 8.124 0 0 1-.26-2.01c0-.695.096-1.366.26-2.01a8.08 8.08 0 0 1 1.637-3.205 8.057 8.057 0 0 1 4.133-2.613V1a14.957 14.957 0 0 0-4.962 1.567 15.086 15.086 0 0 0-3.279 2.327 15.018 15.018 0 0 0-4.675 9.021m22.705 4.02a8.08 8.08 0 0 1-1.637 3.205l4.107 5.816a15.018 15.018 0 0 0 4.675-9.021h-7.145z" stroke="#333" stroke-width="2" stroke-linecap="round" stroke-linejoin="round" stroke-miterlimit="10" fill="none"/></svg>