<svg xmlns="http://www.w3.org/2000/svg" viewBox="0 0 32 32"><path d="M6.268 21.119a11.044 11.044 0 0 0 4.613 4.613A10.95 10.95 0 0 0 16 27c6.075 0 11-4.925 11-11a10.95 10.95 0 0 0-1.268-5.119 11.044 11.044 0 0 0-4.613-4.613A10.947 10.947 0 0 0 16 5C9.925 5 5 9.925 5 16c0 1.85.461 3.589 1.268 5.119zm0 0c-3.298 4.275-4.962 7.638-3.993 8.606.968.968 4.331-.695 8.606-3.993 2.418-1.865 5.126-4.248 7.864-6.987 2.739-2.739 5.122-5.446 6.987-7.864 3.298-4.275 4.962-7.638 3.993-8.606-.968-.968-4.331.695-8.606 3.993M8.168 12.691A8.455 8.455 0 0 1 9.99 9.989a8.58 8.58 0 0 1 2.702-1.822A8.424 8.424 0 0 1 16 7.5M7.5 16c0-.587.059-1.16.173-1.713" stroke="#333" stroke-miterlimit="10" fill="none"/></svg>