<svg xmlns="http://www.w3.org/2000/svg" viewBox="0 0 32 32"><g stroke="#333" stroke-miterlimit="10" fill="none"><ellipse transform="rotate(-45.001 16 16)" cx="16" cy="16" rx="14" ry="14"/><path d="M15.182 2.299a10.391 10.391 0 0 1-.234 6.998 10.11 10.11 0 0 1-2.248 3.404 10.13 10.13 0 0 1-3.404 2.248 10.28 10.28 0 0 1-3.884.731 10.434 10.434 0 0 1-3.029-.471m27.266 1.524a10.303 10.303 0 0 0-7.001.263 10.23 10.23 0 0 0-3.396 2.255 10.23 10.23 0 0 0-3.007 7.259c0 1.096.174 2.191.523 3.242M11.38 11.38l2.64 2.64m3.96 3.96l2.64 2.64M8.611 12.988l1.578 3.384m5.439 5.439l3.384 1.578M5.278 14.14l.325 3.72m8.537 8.537l3.72.325M12.988 8.611l3.384 1.578m5.439 5.439l1.578 3.384M14.14 5.278l3.72.325m8.537 8.537l.325 3.72"/></g></svg>