<svg xmlns="http://www.w3.org/2000/svg" viewBox="0 0 32 32"><path d="M11.262 29.979a7.915 7.915 0 0 0 3.292-3.946c.796-2.101.665-4.559-.35-6.556-.528-1.038-1.301-2.029-1.313-3.202-.014-1.325 1.048-2.502 2.288-2.816 1.664-.422 3.467.551 4.396 2.046.929 1.494 1.09 3.393.802 5.147-.288 1.753-.988 3.401-1.681 5.027l-2.255 5.292m-7.668-3.777a9.946 9.946 0 0 0 1.304-2.128c.467-1.053.708-2.256.484-3.408-.267-1.374-1.157-2.56-1.696-3.827-1.3-3.057.386-6.374 3.224-7.652 3.275-1.474 8.12-.89 10.545 2.007 2.08 2.484 1.897 6.302 1.396 9.339-.565 3.432-1.939 6.723-3.997 9.474m6.269-4.947c.854-2.401 1.405-4.951 1.585-7.417.23-3.142-.037-6.913-1.991-9.457-2.834-3.689-7.599-4.604-11.882-3.762-2.561.504-5.246 1.757-7.191 3.643-1.973 1.913-3.183 4.479-2.727 7.574.194 1.319.677 2.57 1.097 3.831.42 1.261.784 2.573.726 3.906M28 5.911C24.564 1.439 18.789.33 13.597 1.351c-3.064.603-6.275 2.09-8.624 4.327" stroke="#333" stroke-width="2" stroke-linecap="round" stroke-linejoin="round" stroke-miterlimit="10" fill="none"/></svg>