<svg xmlns="http://www.w3.org/2000/svg" viewBox="0 0 32 32"><g stroke="#333" stroke-linecap="round" stroke-linejoin="round" stroke-miterlimit="10" fill="none"><path d="M12 25H2a1 1 0 0 1-1-1V8a1 1 0 0 1 1-1h10a1 1 0 0 1 1 1v16a1 1 0 0 1-1 1zm18 0H20a1 1 0 0 1-1-1V8a1 1 0 0 1 1-1h10a1 1 0 0 1 1 1v16a1 1 0 0 1-1 1z"/><circle cx="16" cy="19" r="1.5"/><circle cx="16" cy="13" r="1.5"/><path d="M7 21c-1.1 0-2-.9-2-2v-6c0-1.1.9-2 2-2s2 .9 2 2v6c0 1.1-.9 2-2 2zm18 0c-1.1 0-2-.9-2-2v-6c0-1.1.9-2 2-2s2 .9 2 2v6c0 1.1-.9 2-2 2z"/></g></svg>