<svg xmlns="http://www.w3.org/2000/svg" viewBox="0 0 32 32"><g stroke="#333" stroke-linejoin="round" stroke-miterlimit="10" fill="none"><path d="M12.096 10.814l-.864-.894a6.095 6.095 0 0 0 .718-1.823l1.316.022a.202.202 0 0 0 .206-.199L13.5 6.3a.202.202 0 0 0-.199-.206l-1.318-.022a5.037 5.037 0 0 0-.708-1.793l.949-.917a.203.203 0 0 0 .005-.287l-1.127-1.166a.203.203 0 0 0-.287-.005l-.949.917a5.018 5.018 0 0 0-1.768-.769L8.12.734a.202.202 0 0 0-.199-.206L6.3.5a.203.203 0 0 0-.207.199l-.022 1.316a6.136 6.136 0 0 0-1.846.655l-.864-.893a.203.203 0 0 0-.287-.005L1.909 2.899a.203.203 0 0 0-.005.287l.864.894a6.08 6.08 0 0 0-.718 1.822L.734 5.88a.202.202 0 0 0-.206.199L.5 7.7a.203.203 0 0 0 .199.207l1.318.022c.12.649.365 1.255.708 1.793l-.949.917a.203.203 0 0 0-.005.287l1.127 1.166c.078.08.206.083.287.005l.949-.917a5.037 5.037 0 0 0 1.768.769l-.022 1.317a.202.202 0 0 0 .199.206L7.7 13.5a.202.202 0 0 0 .206-.199l.022-1.316a6.082 6.082 0 0 0 1.846-.655l.864.894a.203.203 0 0 0 .287.005l1.166-1.127a.204.204 0 0 0 .005-.288z"/><circle cx="7" cy="7" r="1.5"/><path d="M30.802 23.324l-1.817-.753a9.663 9.663 0 0 0-.107-3.098l1.924-.797a.321.321 0 0 0 .174-.419l-.982-2.371a.321.321 0 0 0-.419-.174l-1.927.798a7.98 7.98 0 0 0-2.159-2.156l.799-1.929a.32.32 0 0 0-.174-.419l-2.371-.982a.32.32 0 0 0-.419.174l-.799 1.929a7.968 7.968 0 0 0-3.051-.002l-.798-1.927a.321.321 0 0 0-.419-.174l-2.371.982a.321.321 0 0 0-.174.419l.797 1.924a9.663 9.663 0 0 0-2.267 2.115l-1.817-.753a.32.32 0 0 0-.419.174l-.982 2.371a.32.32 0 0 0 .174.419l1.817.753a9.663 9.663 0 0 0 .107 3.098l-1.924.797a.321.321 0 0 0-.174.419l.982 2.371a.321.321 0 0 0 .419.174l1.927-.798a7.99 7.99 0 0 0 2.158 2.156l-.799 1.929a.32.32 0 0 0 .174.419l2.371.982a.32.32 0 0 0 .419-.174l.799-1.929a7.968 7.968 0 0 0 3.051.002l.798 1.927a.321.321 0 0 0 .419.174l2.371-.982a.322.322 0 0 0 .174-.419l-.797-1.924a9.663 9.663 0 0 0 2.267-2.115l1.817.753a.32.32 0 0 0 .419-.174l.982-2.371a.32.32 0 0 0-.173-.419z"/><circle cx="21" cy="21" r="2"/></g></svg>