<svg xmlns="http://www.w3.org/2000/svg" viewBox="0 0 32 32"><g stroke="#333" stroke-linecap="round" stroke-linejoin="round" stroke-miterlimit="10" fill="none"><circle cx="23" cy="23" r="8"/><circle cx="23" cy="23" r="4.5"/><path d="M29.582 18.328l-2.533 2.533m.648-4.419l-2.518 2.518m-4.253 8.024l-2.623 2.623m.702-4.473l-2.588 2.587m1.886-11.279l2.559 2.559m-4.317-.546l2.422 2.422m8.021 4.25l2.594 2.594m-4.488-.717l2.603 2.603m-11.995-3.236a8 8 0 1 1-6.118-12.35"/><circle cx="9" cy="22" r="4.5"/><path d="M15.583 17.328l-2.534 2.533m-.334-3.437l-1.536 1.536m-4.253 8.024l-2.623 2.623m.702-4.473l-2.587 2.587m1.885-11.279l2.559 2.559m-4.317-.546l2.422 2.422m8.021 4.25l2.595 2.594m-4.489-.717l2.603 2.603m4.215-11.837a8 8 0 1 1 3.27-1.675"/><circle cx="16" cy="9" r="4.5"/><path d="M22.582 4.328l-2.533 2.533m.648-4.419L18.179 4.96m-4.253 8.024l-2.623 2.623m.702-4.473l-2.587 2.587m1.885-11.279l2.559 2.559m-4.317-.546l2.422 2.422m8.021 4.25l2.594 2.594m-4.488-.717l2.603 2.603"/></g></svg>