<svg xmlns="http://www.w3.org/2000/svg" viewBox="0 0 32 32"><path d="M7 26.5h18M11 14h10m-8.009.001c-.102-.789-.306-1.558-.665-2.281a8.907 8.907 0 0 0-1.352-1.963 11.41 11.41 0 0 0-.923-.917C9.951 8.752 9.077 7.947 9 8c3.869-2.667 10.131-2.667 14 0-1.653 1.193-3.143 2.8-3.753 4.785-.286.931-.295 1.919-.292 2.885.002.881.077 1.76.177 2.635.236 2.072.772 4.325 2.15 5.955C22.222 25.372 23.539 26 25 26v5H7v-5c1.461 0 2.778-.628 3.719-1.741 1.378-1.63 1.913-3.883 2.15-5.955.159-1.399.305-2.884.122-4.303zM16 1v4.75M17.5 3h-3" stroke="#333" stroke-linecap="round" stroke-linejoin="round" stroke-miterlimit="10" fill="none"/></svg>