<svg xmlns="http://www.w3.org/2000/svg" viewBox="0 0 32 32"><path fill="#333" d="M14.236 21.746l1.902-4.212.862 1.508h-4a1 1 0 0 1-.835-1.551l2.667-4.042a1 1 0 1 1 1.669 1.101l-2.667 4.042-.834-1.55h4.105a.944.944 0 0 1 .757 1.508l-2.764 3.704a.503.503 0 0 1-.862-.508z"/><path d="M9 26h12m0 0l4-5m0 0h3m0 0v2m0 0h3m-3-10h3m0 10V13m-3 0v2m-3-2v2m3 0h-3m0-2h-2m0 0l-3-3m0 0h-4m-3 0H9m7 0V6m-3 4V6m-3 0h9M9 10l-2 3m0 9l2 4M7 13H4m3 9H4m0-9v9m0-5H1m0 5v-9" stroke="#333" stroke-width="2" stroke-linecap="round" stroke-linejoin="round" stroke-miterlimit="10" fill="none"/></svg>