<svg xmlns="http://www.w3.org/2000/svg" viewBox="0 0 32 32"><g stroke="#333" stroke-linecap="round" stroke-linejoin="round" stroke-miterlimit="10" fill="none"><path d="M1 12.032l5.5 1.673 1.9 2.542c.378.505.97.803 1.6.803h12c.629 0 1.222-.297 1.6-.803l1.9-2.542 5.5-1.673-5.5-1.673-1.9-2.542a2 2 0 0 0-1.6-.803H10c-.63 0-1.222.297-1.6.803l-1.9 2.542L1 12.032zm12.146-5.091a3.012 3.012 0 0 1-.146-.93A3.005 3.005 0 0 1 16 3c1.657 0 3 1.348 3 3.011 0 .343-.057.673-.163.981"/><circle cx="16" cy="12.032" r=".501"/><circle cx="20" cy="12.032" r=".501"/><circle cx="12" cy="12.032" r=".501"/><path d="M12.244 17.173l-1.686 4.109-1.686 4.109L7.186 29.5m7.372-8.218l-1.686 4.109-1.686 4.109m8.57-12.327l1.686 4.109 1.686 4.109 1.686 4.109m-7.372-8.218l1.686 4.109 1.686 4.109"/></g></svg>