<svg xmlns="http://www.w3.org/2000/svg" viewBox="0 0 32 32"><g stroke="#333" stroke-linecap="round" stroke-miterlimit="10" fill="none"><path d="M16.452 23.088c-2.955 1.622-6.984.973-9.767-1.81-3.302-3.302-3.6-8.359-.664-11.294 2.935-2.935 7.992-2.638 11.294.664 2.788 2.788 3.434 6.828 1.801 9.785m-8.239 3.311l8.904-8.904"/><path d="M26.451 29.402l-1.012 1.012a2 2 0 0 1-2.951-.134l-5.447-6.536a1.937 1.937 0 1 1 2.74-2.74l6.536 5.447a2 2 0 0 1 .134 2.951z"/><circle cx="23" cy="4.963" r="3"/></g></svg>