<svg xmlns="http://www.w3.org/2000/svg" viewBox="0 0 32 32"><path fill="#333" d="M24.282 7.641l-14.133 14.84A1.001 1.001 0 0 1 8.7 21.102l.035-.035 14.84-14.133a.5.5 0 0 1 .707.707z"/><path stroke="#333" stroke-width="2" stroke-linecap="round" stroke-linejoin="round" stroke-miterlimit="10" d="M3.768 21.791a4 4 0 0 1 5.657 5.657l-5.657-5.657zm3.182 3.182l-1.555.141-.14 1.554-1.554.14-.144 1.558L2 28.509" fill="none"/><path fill="#333" d="M16.513 2.279l9.072 18.376a1 1 0 0 1-1.794.886l-.021-.044-8.164-18.798a.5.5 0 0 1 .907-.42z"/><path stroke="#333" stroke-width="2" stroke-linecap="round" stroke-linejoin="round" stroke-miterlimit="10" d="M30 23.044a4 4 0 0 0-7.258 3.366L30 23.044zm-4.083 1.893l1.412.667-.403 1.507 1.411.667-.401 1.511 1.413.671" fill="none"/></svg>