<svg xmlns="http://www.w3.org/2000/svg" viewBox="0 0 32 32"><g stroke="#333" stroke-miterlimit="10" fill="none"><path d="M22.929 22.125L28 31H4l4.493-7.862L12 17v-6c1.062.318 2.461.512 4 .512 1.539 0 2.938-.195 4-.512v6l2.929 5.125z"/><circle cx="18" cy="7" r="1.5"/><circle cx="12" cy="4" r="2.5"/><circle cx="22" cy="2" r="1.5"/><path d="M8.493 23.138c1.581-1.09 3.638-1.577 5.541-1.13 1.117.263 2.176.713 3.291.983 1.12.27 2.325.339 3.453.071.753-.179 1.466-.544 2.151-.936"/><circle cx="21" cy="28" r=".5"/><circle cx="16" cy="25" r=".5"/><circle cx="12" cy="27" r=".5"/></g></svg>