<svg xmlns="http://www.w3.org/2000/svg" viewBox="0 0 32 32"><g stroke="#333" stroke-width="2" stroke-linecap="round" stroke-linejoin="round" stroke-miterlimit="10" fill="none"><path d="M19.873 17.952c1.841.146 3.735-.192 5.475-1.141 3.676-2.004 5.463-6.328 4.298-10.4a10.04 10.04 0 0 0-1.855-3.569c-1.288-1.591-3.883-.779-3.848 1.195a13.882 13.882 0 0 1-4.672 10.673m-6.756.363a9.783 9.783 0 0 0-5.864 1.116c-3.676 2.005-5.463 6.328-4.298 10.4a10.04 10.04 0 0 0 1.855 3.569c1.288 1.591 3.883.779 3.848-1.195a13.884 13.884 0 0 1 4.301-10.328m1.716 1.85c-.23 1.962.1 4.001 1.116 5.864 2.004 3.676 6.328 5.463 10.4 4.298a10.04 10.04 0 0 0 3.569-1.855c1.591-1.288.779-3.883-1.195-3.848a13.884 13.884 0 0 1-10.328-4.301m.292-7.128a9.783 9.783 0 0 0-1.116-5.864c-2.005-3.676-6.328-5.463-10.4-4.298a10.056 10.056 0 0 0-3.569 1.855c-1.591 1.288-.779 3.883 1.195 3.848a13.884 13.884 0 0 1 10.328 4.301"/><path d="M17.927 13.515A3.957 3.957 0 0 0 16 13a3.998 3.998 0 0 0-3.485 2.073A3.957 3.957 0 0 0 12 17a3.998 3.998 0 0 0 2.073 3.485A3.957 3.957 0 0 0 16 21a3.97 3.97 0 0 0 1.635-.357 3.994 3.994 0 0 0 2.238-2.691c.076-.307.127-.622.127-.952a3.967 3.967 0 0 0-2.073-3.485z"/></g></svg>