<svg xmlns="http://www.w3.org/2000/svg" viewBox="0 0 1200 8"><path stroke="#000" stroke-miterlimit="10" d="M0 1l6.377 6 6.378-6 6.378 6 6.38-6 6.381 6 6.383-6 6.381 6 6.38-6 6.379 6 6.378-6 6.378 6 6.379-6 6.379 6 6.38-6 6.382 6 6.383-6 6.382 6 6.38-6 6.379 6 6.379-6 6.38 6 6.38-6 6.381 6 6.384-6 6.382 6 6.381-6 6.38 6 6.38-6 6.38 6 6.382-6 6.384 6 6.382-6 6.382 6 6.381-6 6.38 6 6.382-6 6.384 6 6.383-6 6.382 6 6.381-6 6.382 6 6.383-6 6.384 6 6.382-6 6.382 6 6.382-6 6.385 6 6.383-6 6.382 6 6.383-6 6.385 6 6.383-6 6.383 6 6.384-6 6.384 6 6.383-6 6.384 6 6.384-6 6.383 6 6.385-6 6.384 6 6.384-6 6.378 6 6.381-6 6.386 6 6.381-6 6.379 6 6.383-6 6.385 6 6.381-6 6.383 6 6.385-6 6.382 6 6.386-6 6.384 6 6.385-6 6.384 6 6.387-6 6.384 6 6.387-6 6.388 6 6.386-6 6.387 6 6.388-6 6.381 6 6.386-6 6.387 6 6.388-6 6.388 6 6.389-6 6.386 6 6.392-6 6.396 6L600 1l6.377 6 6.378-6 6.378 6 6.38-6 6.381 6 6.383-6 6.381 6 6.38-6 6.379 6 6.378-6 6.378 6 6.379-6 6.379 6 6.38-6 6.382 6 6.383-6 6.382 6 6.38-6 6.379 6 6.379-6 6.38 6 6.38-6 6.381 6 6.384-6 6.382 6 6.381-6 6.38 6 6.38-6 6.38 6 6.382-6 6.384 6 6.382-6 6.382 6 6.381-6 6.38 6 6.382-6 6.384 6 6.383-6 6.382 6 6.381-6 6.382 6 6.383-6 6.384 6 6.382-6 6.382 6 6.382-6 6.385 6 6.383-6 6.382 6 6.383-6 6.385 6 6.383-6 6.383 6 6.384-6 6.384 6 6.383-6 6.384 6 6.384-6 6.383 6 6.385-6 6.384 6 6.384-6 6.378 6 6.381-6 6.386 6 6.381-6 6.379 6 6.383-6 6.384 6 6.382-6 6.383 6 6.385-6 6.382 6 6.386-6 6.384 6 6.385-6 6.384 6 6.387-6 6.384 6 6.387-6 6.388 6 6.386-6 6.387 6 6.388-6 6.382 6 6.385-6 6.387 6 6.388-6 6.388 6 6.389-6 6.386 6 6.392-6 6.396 6L1200 1" fill="none"/></svg>