<svg xmlns="http://www.w3.org/2000/svg" viewBox="0 0 32 32"><path d="M5 29V3h22v26M17.277 6.112c.043 1.814.654 3.482 1.891 4.72 1.237 1.237 2.905 1.849 4.72 1.891m-.217 3.522c-2.658-.127-5.122-1.082-6.978-2.938-1.849-1.849-2.803-4.301-2.936-6.947M20.7 6c.024.904.324 1.738.943 2.357.619.619 1.453.919 2.357.943m-.112 3.423c-1.814-.043-3.482-.654-4.72-1.891-1.237-1.237-1.848-2.905-1.891-4.72M24 9.3c-.904-.024-1.738-.324-2.357-.943-.619-.619-.919-1.453-.943-2.357" stroke="#333" stroke-width="2" stroke-linecap="round" stroke-miterlimit="10" fill="none"/></svg>