<svg xmlns="http://www.w3.org/2000/svg" viewBox="0 0 32 32"><g stroke="#333" stroke-linecap="round" stroke-linejoin="round" stroke-miterlimit="10" fill="none"><path d="M12.644 25.785a5.564 5.564 0 0 0 2.332-2.762 5.72 5.72 0 0 0-.248-4.589c-.374-.727-.922-1.42-.93-2.242-.01-.928.742-1.751 1.621-1.971 1.179-.295 2.456.386 3.114 1.432.658 1.046.772 2.375.568 3.603-.204 1.227-.7 2.38-1.191 3.519l-1.597 3.704m-5.432-2.643a6.94 6.94 0 0 0 .923-1.489c.33-.737.501-1.579.343-2.386-.189-.962-.819-1.792-1.201-2.679-.921-2.14.274-4.462 2.284-5.356 2.32-1.032 5.752-.623 7.47 1.405 1.473 1.739 1.343 4.412.989 6.537-.4 2.402-1.373 4.706-2.832 6.632m4.44-3.464a19.85 19.85 0 0 0 1.123-5.192c.163-2.199-.026-4.84-1.41-6.62-2.008-2.582-5.382-3.223-8.416-2.633-1.814.353-3.716 1.23-5.093 2.55-1.397 1.339-2.254 3.135-1.932 5.302.137.923.479 1.799.777 2.682.298.883.555 1.801.514 2.734M24.5 8.938c-2.434-3.13-6.524-3.906-10.202-3.192-2.171.422-4.445 1.463-6.109 3.029"/><circle cx="16" cy="16" r="15"/></g></svg>