<svg xmlns="http://www.w3.org/2000/svg" viewBox="0 0 32 32"><g stroke="#333" stroke-linecap="round" stroke-linejoin="round" stroke-miterlimit="10" fill="none"><path d="M18 12.5h-4m5.25 3h-6.5M16 2c.872 0 1.745.286 2.277.859a2.602 2.602 0 0 1 .671 1.918c-.067.995-.887 1.861-1.192 2.8a7.144 7.144 0 0 0-.298 3.056c.195 1.625 1.005 3.126 1.716 4.574.479.975.935 2.043 1.272 3.178.337 1.135.554 2.338.554 3.584 0 1.776-.329 3.464-.819 4.992A21.942 21.942 0 0 1 18.4 31h-4.801a22.01 22.01 0 0 1-1.781-4.039c-.489-1.528-.818-3.216-.818-4.992 0-1.246.217-2.449.554-3.585.337-1.135.793-2.203 1.272-3.178.711-1.448 1.521-2.948 1.716-4.574a7.144 7.144 0 0 0-.298-3.056c-.306-.938-1.125-1.804-1.192-2.8a2.6 2.6 0 0 1 .671-1.918C14.255 2.286 15.127 2 16 2zm10.6 12.414h-3.2m4.2 2.689h-5.2"/><path d="M25 5c.698 0 1.396.257 1.822.77.187.226.331.499.423.794.092.295.133.612.114.925-.054.892-.709 1.669-.954 2.51a7.129 7.129 0 0 0-.238 2.74c.156 1.457.804 2.802 1.373 4.1a19.6 19.6 0 0 1 1.017 2.849c.269 1.019.443 2.098.443 3.215 0 1.592-.263 3.105-.655 4.476A20.98 20.98 0 0 1 26.92 31h-3.841a20.901 20.901 0 0 1-1.424-3.621c-.392-1.371-.655-2.884-.655-4.476 0-1.117.173-2.196.443-3.214a19.6 19.6 0 0 1 1.017-2.849c.569-1.298 1.217-2.643 1.373-4.1a7.148 7.148 0 0 0-.238-2.74c-.244-.841-.9-1.618-.954-2.51-.019-.313.022-.63.114-.925.092-.295.236-.568.423-.794C23.604 5.257 24.302 5 25 5zM8.6 14.414H5.4m4.2 2.689H4.4M7 5c.698 0 1.396.257 1.822.77.187.226.331.499.423.794.092.295.132.612.114.926-.054.892-.71 1.668-.954 2.51a7.129 7.129 0 0 0-.238 2.74c.156 1.457.804 2.802 1.373 4.1a19.6 19.6 0 0 1 1.017 2.849c.269 1.018.443 2.097.443 3.214 0 1.592-.263 3.105-.655 4.476A20.98 20.98 0 0 1 8.92 31H5.079a20.901 20.901 0 0 1-1.424-3.621C3.263 26.008 3 24.495 3 22.903c0-1.117.173-2.196.443-3.214A19.6 19.6 0 0 1 4.46 16.84c.569-1.298 1.217-2.643 1.373-4.1A7.148 7.148 0 0 0 5.595 10c-.245-.841-.9-1.618-.954-2.51-.019-.313.022-.63.114-.925.092-.296.236-.569.423-.795C5.604 5.257 6.302 5 7 5z"/></g></svg>