<svg xmlns="http://www.w3.org/2000/svg" viewBox="0 0 32 32"><g stroke="#333" stroke-width="2" stroke-linecap="round" stroke-linejoin="round" stroke-miterlimit="10" fill="none"><path d="M11 10.19l-4.541 4.541a.917.917 0 0 1-1.297 0L1.27 10.839a.919.919 0 0 1 0-1.298L5.81 5 11 10.19zm16 16l-4.541 4.541a.917.917 0 0 1-1.297 0l-3.892-3.892a.919.919 0 0 1 0-1.298L21.81 21 27 26.19zm-4.083-10.502c-3.587-.064-6.541-3.019-6.605-6.606m-1.967 15.47c-3.745-.067-6.83-3.152-6.896-6.897"/><path d="M4 21.103L17.103 8c3.745.067 6.83 3.151 6.897 6.897L10.897 28c-3.746-.067-6.83-3.152-6.897-6.897zm25.999-9.854c.042-2.407-.835-4.799-2.642-6.605-1.807-1.807-4.198-2.684-6.606-2.642m.188 2.83a6.133 6.133 0 0 1 4.436 1.793 6.138 6.138 0 0 1 1.794 4.436"/></g></svg>