<svg xmlns="http://www.w3.org/2000/svg" viewBox="0 0 32 32"><g stroke="#333" stroke-linecap="round" stroke-linejoin="round" stroke-miterlimit="10" fill="none"><circle cx="7" cy="27" r="3"/><circle cx="16" cy="27" r="3"/><circle cx="25" cy="27" r="3"/><path d="M1 27v-3a3 3 0 0 1 3-3h24a3 3 0 0 1 3 3v3M9 7v10M9 3h4v4H9zM7 21v-3a1 1 0 0 1 1-1h2a1 1 0 0 1 1 1v3m2.266-14.5H15a1.5 1.5 0 0 0 0-3h-1.734M23 21l-6-6"/><circle cx="17" cy="15" r="1"/><path d="M17 15l6.844-2.906M30.125 14h-4.25A1.88 1.88 0 0 1 24 12.125v-.25A1.88 1.88 0 0 1 25.875 10h4.25"/></g></svg>