<svg xmlns="http://www.w3.org/2000/svg" viewBox="0 0 32 32"><g stroke="#333" stroke-linecap="round" stroke-linejoin="round" stroke-miterlimit="10" fill="none"><circle cx="16" cy="11" r="10"/><circle cx="16" cy="30" r="1"/><circle cx="6" cy="28" r="1"/><circle cx="26" cy="28" r="1"/><path d="M6 28l7.25-7.25M26 28l-7.229-7.229M16 30v-9m9.579-12.615A14.442 14.442 0 0 1 16 12a14.441 14.441 0 0 1-9.473-3.522M18.5 17.5v-3m2 2v-2m2 1v-1m-9 3v-3m-2 2v-2m-2 1v-1m9.991-12.752a3.5 3.5 0 1 1-6.979-.035"/></g></svg>