<svg xmlns="http://www.w3.org/2000/svg" viewBox="0 0 32 32"><path d="M21.264 14.062A10.955 10.955 0 0 1 23 20c0 6.08-4.92 11-11 11S1 26.08 1 20 5.92 9 12 9c2.184 0 4.219.635 5.93 1.731m-1.375 2.089A8.467 8.467 0 0 0 12 11.5c-4.698 0-8.5 3.802-8.5 8.5s3.802 8.5 8.5 8.5 8.5-3.802 8.5-8.5a8.466 8.466 0 0 0-1.372-4.636m-2.22 2.149c.378.746.592 1.591.592 2.487 0 3.04-2.46 5.5-5.5 5.5S6.5 23.04 6.5 20s2.46-5.5 5.5-5.5a5.48 5.48 0 0 1 2.366.533M12 17.5c-1.382 0-2.5 1.118-2.5 2.5s1.118 2.5 2.5 2.5 2.5-1.118 2.5-2.5m-2.438-.062l9.844-9.844M22 10c-.552-.552-.828-1.276-.828-2s.276-1.448.828-2l2-2 2-2 1.333 2.667L30 6l-2 2-2 2a2.82 2.82 0 0 1-2 .828A2.82 2.82 0 0 1 22 10zm5.333-5.333l-2 2" stroke="#333" stroke-linecap="round" stroke-linejoin="round" stroke-miterlimit="10" fill="none"/></svg>