<svg xmlns="http://www.w3.org/2000/svg" viewBox="0 0 32 32"><g stroke="#333" stroke-linecap="round" stroke-linejoin="round" stroke-miterlimit="10" fill="none"><path d="M10.422 26v-.037C10.146 24.368 10 19.706 10 18s.146-3.368.422-4.963a27.068 27.068 0 0 1 1.203-4.569 24.246 24.246 0 0 1 1.891-4.053A20.961 20.961 0 0 1 16 1a20.961 20.961 0 0 1 2.484 3.415 24.325 24.325 0 0 1 1.891 4.053 27.068 27.068 0 0 1 1.203 4.569C21.854 14.632 22 16.294 22 18s-.146 6.368-.422 7.963V26m-.078 0c-3.04 2.667-7.96 2.667-11 0m2 3.5v2m2-1v1m3-1v1m2-2v2"/><circle cx="16" cy="20" r="2.5"/><circle cx="16" cy="12" r="1.5"/><path d="M9.838 18c-3.377 1.472-5.77 4.56-6.617 7.917a7.469 7.469 0 0 0-.138 2.909c.265 1.62 1.291 1.413 2.306.297 1.281-1.409 2.965-2.497 4.817-3.167M22.161 18c3.377 1.472 5.771 4.56 6.617 7.917.231.914.289 1.982.138 2.909-.265 1.62-1.291 1.413-2.306.297-1.294-1.423-2.999-2.518-4.873-3.188"/></g></svg>