<svg xmlns="http://www.w3.org/2000/svg" viewBox="0 0 32 32"><g stroke="#333" stroke-linecap="round" stroke-linejoin="round" stroke-miterlimit="10" fill="none"><path d="M16 9.473C16 4.79 19.354 3 23.5 3c4.145 0 7.5 3.79 7.5 8.473C31 21.161 21.107 21.726 16 29c-5.107-7.274-15-7.839-15-17.527C1 6.79 4.354 3 8.5 3S16 4.79 16 9.473zM4.079 19.045l3.587-3.128m2.634-.168l4.299 2.716m2.461-.525l6.055-7.728m2.043-.26l5.681 3.548"/><circle cx="16" cy="19" r="1.5"/><circle cx="24" cy="9" r="1.5"/><circle cx="9" cy="15" r="1.5"/></g></svg>