<svg xmlns="http://www.w3.org/2000/svg" viewBox="0 0 4.676 1198.68"><path stroke="#000" stroke-miterlimit="10" d="M.383.339l2.944 3.192c1.131 1.202 1.131 3.168 0 4.37L1.438 9.909c-1.131 1.202-1.131 3.168 0 4.37l1.889 2.008c1.131 1.202 1.131 3.169 0 4.371l-1.889 2.009c-1.13 1.202-1.131 3.169 0 4.371l1.89 2.01c1.13 1.202 1.13 3.169 0 4.372l-1.891 2.011c-1.13 1.202-1.13 3.169 0 4.372l1.89 2.01c1.13 1.202 1.13 3.169 0 4.371l-1.889 2.009c-1.13 1.202-1.13 3.169 0 4.371l1.889 2.008c1.13 1.202 1.13 3.169 0 4.37L1.438 60.95c-1.131 1.202-1.131 3.168 0 4.37l1.889 2.008c1.131 1.202 1.131 3.168 0 4.37l-1.889 2.008c-1.131 1.202-1.131 3.168 0 4.37l1.889 2.009c1.13 1.202 1.131 3.169 0 4.371l-1.89 2.009c-1.13 1.202-1.13 3.169 0 4.371l1.89 2.01c1.13 1.202 1.13 3.169 0 4.372L1.436 99.23c-1.13 1.202-1.13 3.17 0 4.372l1.89 2.01c1.13 1.202 1.13 3.169 0 4.371l-1.89 2.009c-1.13 1.202-1.13 3.169 0 4.371l1.889 2.009c1.13 1.202 1.13 3.169 0 4.371l-1.889 2.009c-1.13 1.202-1.13 3.169 0 4.371l1.889 2.009c1.13 1.202 1.131 3.169 0 4.371l-1.89 2.009c-1.13 1.202-1.13 3.169 0 4.371l1.89 2.01c1.13 1.202 1.13 3.169 0 4.372l-1.891 2.011c-1.13 1.202-1.13 3.17 0 4.372l1.89 2.011c1.13 1.202 1.13 3.169 0 4.371l-1.89 2.01c-1.13 1.202-1.13 3.169 0 4.371l1.89 2.009c1.13 1.202 1.13 3.169 0 4.371l-1.89 2.009c-1.13 1.202-1.13 3.169 0 4.371l1.89 2.009c1.13 1.202 1.13 3.169 0 4.371l-1.89 2.01c-1.13 1.202-1.13 3.169 0 4.372l1.891 2.012c1.13 1.202 1.13 3.17 0 4.372l-1.891 2.011c-1.13 1.202-1.13 3.169 0 4.371l1.89 2.01c1.13 1.202 1.13 3.169 0 4.371l-1.89 2.01c-1.13 1.202-1.13 3.169 0 4.371l1.89 2.01c1.13 1.202 1.13 3.169 0 4.371l-1.89 2.01c-1.13 1.202-1.13 3.169 0 4.372l1.891 2.012c1.13 1.202 1.13 3.17 0 4.372l-1.891 2.011c-1.13 1.202-1.13 3.169 0 4.372l1.89 2.01c1.13 1.202 1.13 3.169 0 4.371l-1.89 2.01c-1.13 1.202-1.13 3.169 0 4.371l1.89 2.01c1.13 1.202 1.13 3.169 0 4.372l-1.891 2.011c-1.13 1.202-1.13 3.17 0 4.372l1.891 2.012c1.13 1.202 1.13 3.17 0 4.372l-1.89 2.011c-1.13 1.202-1.13 3.169 0 4.371l1.89 2.01c1.13 1.202 1.13 3.169 0 4.372l-1.89 2.011c-1.13 1.202-1.13 3.17 0 4.372l1.891 2.012c1.13 1.202 1.13 3.17 0 4.372l-1.891 2.011c-1.13 1.202-1.13 3.169 0 4.372l1.89 2.011c1.13 1.202 1.13 3.169 0 4.372l-1.89 2.011c-1.13 1.202-1.13 3.17 0 4.372l1.891 2.013c1.13 1.202 1.13 3.17 0 4.372l-1.891 2.011c-1.13 1.202-1.13 3.17 0 4.372l1.89 2.011c1.13 1.202 1.13 3.17 0 4.372l-1.891 2.012c-1.13 1.202-1.13 3.17 0 4.372l1.891 2.012c1.13 1.202 1.13 3.17 0 4.372l-1.891 2.011c-1.13 1.202-1.13 3.17 0 4.372l1.891 2.012c1.13 1.202 1.13 3.17 0 4.372l-1.891 2.012c-1.13 1.202-1.13 3.17 0 4.372l1.891 2.011c1.13 1.202 1.13 3.17 0 4.372l-1.891 2.012c-1.13 1.202-1.13 3.17 0 4.372l1.891 2.012c1.13 1.202 1.13 3.17 0 4.372l-1.891 2.012c-1.13 1.202-1.13 3.169.001 4.371l1.889 2.008c1.131 1.202 1.131 3.169 0 4.371l-1.89 2.01c-1.13 1.202-1.131 3.169-.001 4.372l1.891 2.013c1.13 1.202 1.129 3.17-.001 4.372l-1.89 2.01c-1.13 1.202-1.13 3.169 0 4.371l1.889 2.009c1.13 1.202 1.131 3.169 0 4.371l-1.89 2.011c-1.13 1.202-1.13 3.17 0 4.372l1.891 2.012c1.13 1.202 1.13 3.17-.001 4.372l-1.89 2.01c-1.13 1.202-1.13 3.169 0 4.371l1.89 2.011c1.13 1.202 1.13 3.17 0 4.372l-1.891 2.013c-1.13 1.202-1.13 3.17 0 4.372l1.89 2.011c1.13 1.202 1.13 3.17.001 4.372l-1.891 2.013c-1.13 1.203-1.13 3.17 0 4.372l1.891 2.012c1.13 1.202 1.13 3.17 0 4.372l-1.891 2.013c-1.13 1.202-1.13 3.17 0 4.372l1.891 2.012c1.13 1.202 1.13 3.17 0 4.373l-1.892 2.014c-1.13 1.203-1.13 3.17 0 4.373l1.891 2.013c1.13 1.202 1.13 3.17 0 4.373l-1.892 2.014c-1.13 1.203-1.13 3.17 0 4.373l1.892 2.014c1.13 1.203 1.13 3.171 0 4.373l-1.892 2.014c-1.13 1.203-1.13 3.17 0 4.373l1.892 2.014c1.13 1.203 1.13 3.17 0 4.373l-1.892 2.014c-1.13 1.203-1.129 3.17.001 4.372l1.89 2.01c1.13 1.202 1.13 3.169.001 4.372l-1.891 2.013c-1.13 1.202-1.13 3.17 0 4.373l1.892 2.014c1.13 1.203 1.13 3.171 0 4.373l-1.892 2.014c-1.13 1.203-1.13 3.171 0 4.373l1.892 2.015c1.13 1.203 1.13 3.171 0 4.374l-1.893 2.016c-1.129 1.203-1.129 3.171.001 4.373l1.892 2.013c1.13 1.203 1.13 3.171.001 4.374l-1.893 2.017c-1.129 1.203-1.13 3.172-.001 4.375l1.895 2.02c1.129 1.203 1.129 3.173 0 4.376l-1.895 2.02c-1.129 1.203-1.127 3.171.003 4.373l1.888 2.007c1.131 1.202 1.131 3.168 0 4.37l-1.889 2.008c-1.131 1.202-1.131 3.168 0 4.37l1.889 2.008c1.131 1.202 1.131 3.169 0 4.371l-1.889 2.009c-1.13 1.202-1.131 3.169 0 4.371l1.89 2.01c1.13 1.202 1.13 3.169 0 4.372l-1.891 2.011c-1.13 1.202-1.13 3.169 0 4.372l1.89 2.01c1.13 1.202 1.13 3.169 0 4.371l-1.889 2.009c-1.13 1.202-1.13 3.169 0 4.371l1.889 2.008c1.13 1.202 1.13 3.169 0 4.37l-1.889 2.008c-1.131 1.202-1.131 3.168 0 4.37l1.889 2.008c1.131 1.202 1.131 3.168 0 4.37l-1.889 2.008c-1.131 1.202-1.131 3.169 0 4.37l1.889 2.009c1.13 1.202 1.131 3.169 0 4.371l-1.89 2.009c-1.13 1.202-1.13 3.169 0 4.371l1.89 2.01c1.13 1.202 1.13 3.169 0 4.372l-1.891 2.011c-1.13 1.202-1.13 3.17 0 4.372l1.89 2.01c1.13 1.202 1.13 3.169 0 4.371l-1.89 2.009c-1.13 1.202-1.13 3.169 0 4.371l1.889 2.009c1.13 1.202 1.13 3.169 0 4.371l-1.889 2.009c-1.13 1.202-1.13 3.169 0 4.371l1.889 2.009c1.13 1.202 1.131 3.169 0 4.371l-1.89 2.009c-1.13 1.202-1.13 3.169 0 4.371l1.89 2.01c1.13 1.202 1.13 3.169 0 4.372l-1.891 2.011c-1.13 1.202-1.13 3.17 0 4.372l1.89 2.011c1.13 1.202 1.13 3.169 0 4.371l-1.89 2.01c-1.13 1.202-1.13 3.169 0 4.371l1.89 2.009c1.13 1.202 1.13 3.169 0 4.371l-1.89 2.009c-1.13 1.202-1.13 3.169 0 4.371l1.89 2.009c1.13 1.202 1.13 3.169 0 4.371l-1.89 2.01c-1.13 1.202-1.13 3.169 0 4.372l1.891 2.012c1.13 1.202 1.13 3.17 0 4.372l-1.891 2.011c-1.13 1.202-1.13 3.169 0 4.372l1.89 2.01c1.13 1.202 1.13 3.169 0 4.371l-1.89 2.01c-1.13 1.202-1.13 3.169 0 4.371l1.89 2.01c1.13 1.202 1.13 3.169 0 4.371l-1.89 2.01c-1.13 1.202-1.13 3.169 0 4.372l1.891 2.012c1.13 1.202 1.13 3.17 0 4.372l-1.891 2.011c-1.13 1.202-1.13 3.169 0 4.372l1.89 2.01c1.13 1.202 1.13 3.169 0 4.371l-1.89 2.01c-1.13 1.202-1.13 3.169 0 4.371l1.89 2.01c1.13 1.202 1.13 3.169 0 4.372l-1.891 2.011c-1.13 1.202-1.13 3.17 0 4.372l1.891 2.012c1.13 1.202 1.13 3.17 0 4.372l-1.89 2.011c-1.13 1.202-1.13 3.169 0 4.371l1.89 2.01c1.13 1.202 1.13 3.169 0 4.372l-1.89 2.011c-1.13 1.202-1.13 3.17 0 4.372l1.891 2.012c1.13 1.202 1.13 3.17 0 4.372l-1.891 2.011c-1.13 1.202-1.13 3.169 0 4.372l1.89 2.011c1.13 1.202 1.13 3.169 0 4.372l-1.89 2.011c-1.13 1.202-1.13 3.17 0 4.372l1.891 2.013c1.13 1.202 1.13 3.17 0 4.372l-1.891 2.011c-1.13 1.202-1.13 3.17 0 4.372l1.89 2.011c1.13 1.202 1.13 3.17 0 4.372l-1.891 2.012c-1.13 1.202-1.13 3.17 0 4.372l1.891 2.012c1.13 1.202 1.13 3.17 0 4.372l-1.891 2.011c-1.13 1.202-1.13 3.17 0 4.372l1.891 2.012c1.13 1.202 1.13 3.17 0 4.372l-1.891 2.012c-1.13 1.202-1.13 3.17 0 4.372l1.891 2.011c1.13 1.202 1.13 3.17 0 4.372l-1.891 2.012c-1.13 1.202-1.13 3.17 0 4.372l1.891 2.012c1.13 1.202 1.13 3.17 0 4.372l-1.891 2.012c-1.13 1.202-1.13 3.169.001 4.371l1.889 2.008c1.131 1.202 1.131 3.169 0 4.371l-1.89 2.01c-1.13 1.202-1.131 3.169-.001 4.372l1.891 2.013c1.13 1.203 1.129 3.17-.001 4.372l-1.89 2.01c-1.13 1.202-1.13 3.169 0 4.371l1.889 2.009c1.13 1.202 1.131 3.169 0 4.371l-1.89 2.011c-1.13 1.202-1.13 3.17 0 4.372l1.891 2.012c1.13 1.202 1.13 3.17-.001 4.372l-1.89 2.01c-1.13 1.202-1.13 3.169 0 4.371l1.89 2.011c1.13 1.202 1.13 3.17 0 4.372l-1.891 2.013c-1.13 1.202-1.13 3.17 0 4.372l1.89 2.011c1.13 1.202 1.13 3.17.001 4.372l-1.891 2.013c-1.13 1.202-1.13 3.17 0 4.372l1.891 2.012c1.13 1.202 1.13 3.17 0 4.372l-1.891 2.013c-1.13 1.202-1.13 3.17 0 4.372l1.891 2.012c1.13 1.202 1.13 3.17 0 4.373l-1.892 2.014c-1.13 1.203-1.13 3.17 0 4.373l1.891 2.012c1.13 1.202 1.13 3.17 0 4.373l-1.892 2.014c-1.13 1.203-1.13 3.171 0 4.373l1.892 2.014c1.13 1.203 1.13 3.171 0 4.373l-1.892 2.014c-1.13 1.203-1.13 3.17 0 4.373l1.892 2.014c1.13 1.203 1.13 3.17 0 4.373l-1.892 2.014c-1.13 1.203-1.129 3.17.001 4.372l1.89 2.01c1.13 1.202 1.13 3.169.001 4.372l-1.891 2.013c-1.13 1.203-1.13 3.17 0 4.373l1.892 2.014c1.13 1.203 1.13 3.171 0 4.373l-1.892 2.015c-1.13 1.203-1.13 3.171 0 4.373l1.892 2.015c1.13 1.203 1.13 3.171 0 4.374l-1.893 2.016c-1.129 1.203-1.129 3.171.001 4.373l1.892 2.013c1.13 1.203 1.13 3.171.001 4.374l-1.893 2.017c-1.129 1.203-1.13 3.172-.001 4.375l1.895 2.02c1.129 1.203 1.129 3.173 0 4.376l-2.947 3.208" fill="none"/></svg>