<svg xmlns="http://www.w3.org/2000/svg" viewBox="0 0 32 32"><g stroke="#333" stroke-linecap="round" stroke-linejoin="round" stroke-miterlimit="10" fill="none"><path d="M23.268 25.413L26 30H6l2.732-4.587c-.692-.35-1.336-.757-1.924-1.22s-1.12-.982-1.587-1.557a9.535 9.535 0 0 1-1.199-1.888 10.028 10.028 0 0 1-.757-2.214A11.788 11.788 0 0 1 3 16a12.944 12.944 0 0 1 3.808-9.192 13.087 13.087 0 0 1 4.132-2.787 12.893 12.893 0 0 1 2.44-.757 13.073 13.073 0 0 1 5.24 0 12.966 12.966 0 0 1 8.159 5.467 12.893 12.893 0 0 1 1.956 4.648c.174.847.265 1.723.265 2.621 0 .897-.091 1.742-.264 2.534a10.08 10.08 0 0 1-.757 2.214 9.519 9.519 0 0 1-1.199 1.888 10.079 10.079 0 0 1-1.587 1.557c-.589.463-1.233.87-1.925 1.22z"/><circle cx="14" cy="18" r="2"/><path d="M14.914 16.231l6.092-12.232m-5.37 15.147L25.5 23.75m-1.147-12.278a9.342 9.342 0 0 1 .719 1.704c.093.297.171.601.234.91A9.738 9.738 0 0 1 25.5 16m-2.783-6.717c.215.215.42.44.613.675"/></g></svg>