<svg xmlns="http://www.w3.org/2000/svg" viewBox="0 0 32 32"><path stroke="#333" stroke-width="2" stroke-linecap="round" stroke-linejoin="round" stroke-miterlimit="10" d="M27 19.554C27 24.21 22.48 28.208 16 30 9.52 28.208 5 24.21 5 19.554V5.627c7.333-4.836 14.667-4.836 22 0v13.927z" fill="none"/><path fill="#333" d="M15.999 10l1.416 4.202h4.582l-3.707 2.597L19.706 21l-3.707-2.597L12.292 21l1.416-4.202L10 14.202h4.582L15.999 10m5.998 4.202h.005M15.999 8a2 2 0 0 0-1.895 1.361l-.957 2.84H10a1.999 1.999 0 0 0-1.147 3.638l2.481 1.738-.938 2.783a2 2 0 0 0 3.043 2.278l2.56-1.793 2.56 1.793a1.992 1.992 0 0 0 2.345-.037 2 2 0 0 0 .697-2.24l-.938-2.783 2.44-1.709a1.998 1.998 0 0 0-1.1-3.667h-3.151l-.957-2.84A2.002 2.002 0 0 0 15.999 8z"/></svg>