<svg xmlns="http://www.w3.org/2000/svg" viewBox="0 0 32 32"><g stroke="#333" stroke-linecap="round" stroke-linejoin="round" stroke-miterlimit="10" fill="none"><circle cx="5" cy="26" r="4"/><circle cx="27" cy="26" r="4"/><circle cx="16" cy="26" r="4"/><path d="M5 22v-4a2 2 0 0 1 2-2h18a2 2 0 0 1 2 2v4M7.5 18.5h17M22 10.284C20.94 11.344 19.475 12 17.858 12s-3.082-.656-4.142-1.716A5.839 5.839 0 0 1 12 6.142 5.84 5.84 0 0 1 13.716 2L22 10.284zm-8.65-.359L12 16m4.308-4.152L17 16m1-10l2-2M9 26h3m8 0h3"/></g></svg>