<svg xmlns="http://www.w3.org/2000/svg" viewBox="0 0 32 32"><g stroke="#333" stroke-miterlimit="10" fill="none"><path d="M1 9.5h30"/><circle cx="27" cy="7" r=".5"/><circle cx="24" cy="7" r=".5"/><circle cx="21" cy="7" r=".5"/><path d="M30 29a1 1 0 0 0 1-1V5a1 1 0 0 0-1-1H2a1 1 0 0 0-1 1v23a1 1 0 0 0 1 1h28zm-5 0v-4h-2.294a6.993 6.993 0 0 0-.548-1.33l1.62-1.62-2.828-2.828-1.62 1.62a6.993 6.993 0 0 0-1.33-.548V18h-4v2.294a6.993 6.993 0 0 0-1.33.548l-1.62-1.62-2.828 2.828 1.62 1.62c-.227.419-.41.865-.548 1.33H7v4m6.098-.042a3.5 3.5 0 1 1 5.87-.102"/></g></svg>