<svg xmlns="http://www.w3.org/2000/svg" viewBox="0 0 32 32"><g stroke="#333" stroke-miterlimit="10" fill="none"><ellipse transform="rotate(-45.001 16 16)" cx="16" cy="16" rx="14" ry="14"/><path d="M15.182 2.299a10.391 10.391 0 0 1-.234 6.998 10.11 10.11 0 0 1-2.248 3.404 10.13 10.13 0 0 1-3.404 2.248 10.28 10.28 0 0 1-3.884.731 10.434 10.434 0 0 1-3.029-.471m27.266 1.524a10.303 10.303 0 0 0-7.001.263 10.23 10.23 0 0 0-3.396 2.255 10.23 10.23 0 0 0-3.007 7.259c0 1.096.174 2.191.523 3.242"/></g></svg>