<svg xmlns="http://www.w3.org/2000/svg" viewBox="0 0 32 32"><path d="M13 25h6.031v-2.875c.043-1.102.723-2.218 1.558-2.898 1.175-.955 2.4-1.862 3.159-3.199.801-1.411 1.279-3.022 1.25-4.656a9.755 9.755 0 0 0-2.726-6.627C20.629 3.049 18.382 2 15.919 2h.162c-2.463 0-4.71 1.049-6.353 2.745a9.756 9.756 0 0 0-2.727 6.627c-.028 1.634.449 3.245 1.25 4.656.759 1.337 1.985 2.243 3.159 3.199.835.68 1.515 1.796 1.558 2.898V25m.522-19.957a6.75 6.75 0 0 0-2.116 1.481 7.107 7.107 0 0 0-1.447 2.197M13 28h6m-4 3h2" stroke="#333" stroke-linecap="round" stroke-linejoin="round" stroke-miterlimit="10" fill="none"/></svg>