<svg xmlns="http://www.w3.org/2000/svg" viewBox="0 0 32 32"><g stroke="#333" stroke-width="2" stroke-linecap="round" stroke-linejoin="round" stroke-miterlimit="10" fill="none"><path d="M9 30H7a1 1 0 0 1-1-1v-3.97a1 1 0 0 1 1-1h2a1 1 0 0 1 1 1V29a1 1 0 0 1-1 1zM8.475 8.236l-1.971-.339a.995.995 0 0 1-.815-1.149l.681-3.922a1 1 0 0 1 1.156-.811l1.971.339a.996.996 0 0 1 .815 1.15L9.63 7.425a.998.998 0 0 1-1.155.811zm16 0l-1.971-.339a.996.996 0 0 1-.815-1.15l.681-3.922a1 1 0 0 1 1.156-.811l1.971.339a.996.996 0 0 1 .815 1.15l-.682 3.922a.998.998 0 0 1-1.155.811zM25 30h-2a1 1 0 0 1-1-1v-3.97a1 1 0 0 1 1-1h2a1 1 0 0 1 1 1V29a1 1 0 0 1-1 1zM16 6.12v19.9"/><circle cx="16" cy="5" r="1"/><ellipse cx="16" cy="27.015" rx="2" ry="1.99"/><path d="M10.125 27.015H21.75M10.125 5H21.75"/></g></svg>