<svg xmlns="http://www.w3.org/2000/svg" viewBox="0 0 32 32"><path d="M14.821 9.679L17.5 7l7.5 7.5-2.679 2.679-5.142 5.142L14.5 25 7 17.5l2.679-2.679zm-.16.012L8.143 1 1 8.143l8.711 6.533m7.643 7.654L23.857 31 31 23.857l-8.711-6.533M1 24.373A4.686 4.686 0 1 1 7.627 31L1 24.373zm4.916-1.146l3.405-3.405m2.858 2.857l-3.437 3.436m-4.428 1.571L1 31m9.286-27.143l-6.429 6.429m24.286 11.428l-6.429 6.429m3.907-8.192l-5.693 5.692M12.049 6.379l-5.692 5.693" stroke="#333" stroke-linecap="round" stroke-linejoin="round" stroke-miterlimit="10" fill="none"/></svg>