<svg xmlns="http://www.w3.org/2000/svg" viewBox="0 0 32 32"><g stroke="#333" stroke-linecap="round" stroke-linejoin="round" stroke-miterlimit="10" fill="none"><path d="M24.9 15.267a8.974 8.974 0 0 1-2.516 5.075A9 9 0 0 1 7 14c0-.431.041-.852.099-1.267a8.974 8.974 0 0 1 2.516-5.075A9 9 0 0 1 25 14c0 .431-.041.852-.1 1.267zM6.849 6.759a44.44 44.44 0 0 1 2.767.9M24.9 15.267c4.198 2.749 6.661 5.188 5.989 6.229-.642.996-3.998.461-8.506-1.154-2.468-.884-5.275-2.087-8.185-3.552-2.669-1.344-5.083-2.735-7.1-4.056C2.901 9.985.438 7.545 1.11 6.504c.25-.388.912-.543 1.891-.495"/><path d="M3.001 6.009L3 6a2 2 0 1 1 .001.009z"/><circle cx="27" cy="3" r="2.5"/><circle cx="4" cy="28" r="3.5"/></g></svg>