<svg xmlns="http://www.w3.org/2000/svg" viewBox="0 0 32 32"><g stroke="#333" stroke-width="2" stroke-miterlimit="10" fill="none"><circle cx="16" cy="16" r="3"/><path d="M24.117 16.776a1.354 1.354 0 0 1 0-1.552l5.638-8.053a1.353 1.353 0 0 0-.152-1.732l-1.522-1.522-1.522-1.522a1.353 1.353 0 0 0-1.732-.152l-8.052 5.638a1.354 1.354 0 0 1-1.552 0L7.172 2.245a1.353 1.353 0 0 0-1.733.151L3.918 3.918 2.396 5.439a1.353 1.353 0 0 0-.151 1.733l5.638 8.053a1.354 1.354 0 0 1 0 1.552l-5.626 8.037a1.351 1.351 0 0 0 .143 1.723l1.518 1.546 1.522 1.522a1.353 1.353 0 0 0 1.732.152l8.052-5.638a1.354 1.354 0 0 1 1.552 0l8.052 5.638a1.352 1.352 0 0 0 1.732-.152l1.522-1.522 1.518-1.546c.457-.465.517-1.19.143-1.723l-5.626-8.038z"/></g></svg>