<svg xmlns="http://www.w3.org/2000/svg" viewBox="0 0 32 32"><path stroke="#333" stroke-width="2" stroke-linecap="round" stroke-linejoin="round" stroke-miterlimit="10" d="M30.996 19.024c-.081-2.479-2.188-4.467-4.778-4.467l-.017.001.017-.45c0-3.925-3.3-7.108-7.368-7.108-2.688 0-5.04 1.389-6.327 3.463a5.31 5.31 0 0 0-1.959-.372c-2.61 0-4.767 1.87-5.114 4.296-2.485.164-4.45 2.16-4.45 4.601v.875C1 22.701 3.157 25 5.817 25h20.366C28.842 25 31 22.701 31 19.864v-.839h-.004z" fill="none"/><path d="M13 22h-2.5a3 3 0 0 1-1.165-.237 2.916 2.916 0 0 1-.509-.278 3.06 3.06 0 0 1-1.089-1.32 2.889 2.889 0 0 1-.175-.562 3 3 0 0 1 .174-1.768c.076-.179.169-.35.278-.509a3.06 3.06 0 0 1 1.32-1.089c.179-.076.367-.135.562-.176.196-.04.398-.061.604-.061h4a3 3 0 0 1 1.165.237 2.983 2.983 0 0 1 .953.645 3.06 3.06 0 0 1 .645.953c.077.179.135.367.175.562.041.195.062.397.062.603m1.5-3h2.5a3 3 0 0 1 1.165.237 2.961 2.961 0 0 1 .954.645 3.06 3.06 0 0 1 .645.953A2.959 2.959 0 0 1 24.5 19a3 3 0 0 1-.236 1.165c-.076.179-.169.35-.278.509a3.06 3.06 0 0 1-1.321 1.089A3 3 0 0 1 21.5 22h-4a3 3 0 0 1-1.165-.237 2.983 2.983 0 0 1-.953-.645 3.06 3.06 0 0 1-.644-.953A3.035 3.035 0 0 1 14.5 19" stroke="#333" stroke-width="2" stroke-linecap="round" stroke-linejoin="round" stroke-miterlimit="10" fill="none"/></svg>