<svg xmlns="http://www.w3.org/2000/svg" viewBox="0 0 32 32"><path d="M25.117 6.788c5.042 5.084 5.042 13.327 0 18.412-5.042 5.084-13.216 5.084-18.258 0s-5.042-13.328 0-18.412 13.216-5.084 18.258 0zm-4.894-3.122c1.312-.603 2.686-1.108 4.099-1.411 1.419-.304 3.228-.51 4.459.441 1.156.892 1.319 2.568 1.173 3.913-.2 1.848-.935 3.63-1.781 5.269-1.782 3.457-4.279 6.554-7.028 9.293-3.375 3.364-7.41 6.567-11.971 8.15-1.341.465-2.823.821-4.25.623-4.841-.671-2.498-7.132-1.236-9.849" stroke="#333" stroke-width="2" stroke-linecap="round" stroke-linejoin="round" stroke-miterlimit="10" fill="none"/></svg>