<svg xmlns="http://www.w3.org/2000/svg" viewBox="0 0 7.373 1200.685"><path stroke="#000" stroke-miterlimit="10" d="M.686.343l6 6.377-6 6.378 6 6.378-6 6.38 6 6.381-6 6.384 6 6.381-6 6.38 6 6.379-6 6.378 6 6.378-6 6.378 6 6.379-6 6.38 6 6.382-6 6.383 6 6.382-6 6.38 6 6.38-6 6.379 6 6.379-6 6.38 6 6.382-6 6.383 6 6.382-6 6.381 6 6.381-6 6.379 6 6.381-6 6.381 6 6.384-6 6.383 6 6.381-6 6.381 6 6.381-6 6.381 6 6.384-6 6.383 6 6.382-6 6.381 6 6.382-6 6.383 6 6.384-6 6.382 6 6.382-6 6.383 6 6.384-6 6.384 6 6.382-6 6.383 6 6.385-6 6.383 6 6.382-6 6.384 6 6.384-6 6.383 6 6.384-6 6.385 6 6.383-6 6.384 6 6.384-6 6.384 6 6.379-6 6.38 6 6.386-6 6.381 6 6.38-6 6.382 6 6.385-6 6.381 6 6.383-6 6.385 6 6.383-6 6.385 6 6.384-6 6.385 6 6.385-6 6.386 6 6.385-6 6.386 6 6.388-6 6.387 6 6.387-6 6.387 6 6.382-6 6.385 6 6.388-6 6.387 6 6.388-6 6.39 6 6.386-6 6.391 6 6.396-6 6.396 6 6.377-6 6.378 6 6.378-6 6.38 6 6.381-6 6.384 6 6.381-6 6.38 6 6.379-6 6.378 6 6.378-6 6.378 6 6.379-6 6.38 6 6.382-6 6.383 6 6.382-6 6.38 6 6.38-6 6.379 6 6.379-6 6.38 6 6.382-6 6.383 6 6.382-6 6.381 6 6.381-6 6.379 6 6.381-6 6.381 6 6.384-6 6.383 6 6.381-6 6.381 6 6.381-6 6.381 6 6.384-6 6.383 6 6.382-6 6.381 6 6.382-6 6.383 6 6.384-6 6.382 6 6.382-6 6.383 6 6.384-6 6.383 6 6.383-6 6.383 6 6.385-6 6.383 6 6.382-6 6.384 6 6.384-6 6.383 6 6.384-6 6.385 6 6.383-6 6.384 6 6.384-6 6.384 6 6.379-6 6.38 6 6.386-6 6.381 6 6.38-6 6.382 6 6.385-6 6.381 6 6.383-6 6.385 6 6.383-6 6.385 6 6.384-6 6.385 6 6.385-6 6.386 6 6.385-6 6.386 6 6.388-6 6.387 6 6.387-6 6.387 6 6.382-6 6.385 6 6.388-6 6.387 6 6.388-6 6.39 6 6.386-6 6.391 6 6.396-6 6.396" fill="none"/></svg>