<svg xmlns="http://www.w3.org/2000/svg" viewBox="0 0 32 32"><g stroke="#333" stroke-width="2" stroke-linecap="round" stroke-linejoin="round" stroke-miterlimit="10" fill="none"><path d="M11.672 14.328a4.68 4.68 0 0 1-1.375-3.32 4.68 4.68 0 0 1 1.375-3.32l2.656-2.656 2.656-2.656C17.901 1.458 19.103 1 20.304 1s2.403.458 3.32 1.375C24.542 3.292 25 4.494 25 5.695s-.458 2.403-1.375 3.32l-2.656 2.656-2.656 2.656m-3.985-2.655a4.68 4.68 0 0 1 1.375 3.32 4.68 4.68 0 0 1-1.375 3.32l-2.656 2.656-2.656 2.656C8.099 24.542 6.897 25 5.695 25s-2.403-.458-3.32-1.375C1.458 22.708 1 21.506 1 20.305s.458-2.403 1.375-3.32l2.656-2.656 2.656-2.656"/><circle cx="24" cy="24" r="7"/><path d="M28 24h-8"/></g></svg>