<svg xmlns="http://www.w3.org/2000/svg" viewBox="0 0 32 32"><path stroke="#333" stroke-linecap="round" stroke-linejoin="round" stroke-miterlimit="10" d="M1 9.5h30" fill="none"/><circle stroke="#333" stroke-linecap="round" stroke-linejoin="round" stroke-miterlimit="10" cx="27" cy="7" r=".5" fill="none"/><circle stroke="#333" stroke-linecap="round" stroke-linejoin="round" stroke-miterlimit="10" cx="24" cy="7" r=".5" fill="none"/><circle stroke="#333" stroke-linecap="round" stroke-linejoin="round" stroke-miterlimit="10" cx="21" cy="7" r=".5" fill="none"/><path stroke="#333" stroke-width="2" stroke-miterlimit="10" d="M30 29a1 1 0 0 0 1-1V5a1 1 0 0 0-1-1H2a1 1 0 0 0-1 1v23a1 1 0 0 0 1 1h28z" fill="none"/><path d="M16 11.5v3M27.5 23h-3m-17 0h-3m19.632-8.132L22.01 16.99m-12.02 0l-2.122-2.122m12.533-2.493l-1.148 2.772m-11.106 4.6l-2.772-1.148m21.25 0l-2.772 1.148m-11.106-4.6l-1.148-2.772m3.152 11.704L16 19.5l1.252 4.592" stroke="#333" stroke-linecap="round" stroke-linejoin="round" stroke-miterlimit="10" fill="none"/><circle stroke="#333" stroke-linecap="round" stroke-linejoin="round" stroke-miterlimit="10" cx="16" cy="25" r="1.5" fill="none"/></svg>