<svg xmlns="http://www.w3.org/2000/svg" viewBox="0 0 32 32"><path d="M2.73 30.37l-1.647-3.9a1.046 1.046 0 0 1 .523-1.36l24.307-11.02a1.017 1.017 0 0 1 1.356.539l1.647 3.9a1.046 1.046 0 0 1-.523 1.36L4.086 30.91a1.016 1.016 0 0 1-1.356-.54zm18.521-14.166l2.455 5.811M27 3l1.236 2.633L31 6.056l-2 2.05.472 2.894L27 9.633 24.528 11 25 8.106l-2-2.05 2.764-.423zM18 .5l1.082 2.304 2.418.37-1.75 1.793.413 2.533L18 6.304 15.837 7.5l.413-2.533-1.75-1.793 2.418-.37zm-8 0l.773 1.646 1.727.264-1.25 1.281.295 1.809L10 4.646 8.455 5.5l.295-1.809L7.5 2.41l1.728-.264z" stroke="#333" stroke-linecap="round" stroke-linejoin="round" stroke-miterlimit="10" fill="none"/></svg>