<svg xmlns="http://www.w3.org/2000/svg" viewBox="0 0 32 32"><path d="M8.514 8.514c-4.837 4.837-6.97 11.34-6.432 17.664a4.125 4.125 0 0 0 3.741 3.741c6.324.538 12.827-1.595 17.663-6.432 4.837-4.837 6.97-11.34 6.432-17.664a4.125 4.125 0 0 0-3.741-3.741c-6.324-.539-12.826 1.595-17.663 6.432zM18.62 2.899c.9 4.893 5.588 9.581 10.481 10.481M13.38 29.101c-.9-4.893-5.588-9.581-10.481-10.481m15.721-5.24l-5.989 5.989m-.374-1.872l2.246 2.246M13.754 16L16 18.246m-.749-3.743l2.246 2.246m-.748-3.744l2.245 2.246" stroke="#333" stroke-linecap="round" stroke-miterlimit="10" fill="none"/></svg>