<svg xmlns="http://www.w3.org/2000/svg" viewBox="0 0 32 32"><g stroke="#333" stroke-linecap="round" stroke-linejoin="round" stroke-miterlimit="10" fill="none"><circle cx="16" cy="4" r="1"/><path d="M26.135 20.036C29.125 21.084 31 22.59 31 24.264 31 27.432 24.284 30 16 30c-8.284 0-15-2.568-15-5.736C1 22.571 2.917 21.05 5.967 20M26 19c0 5.523-4.477 7-10 7S6 24.523 6 19 10.477 9 16 9s10 4.477 10 10zM16 5v4"/><circle cx="11" cy="20" r="1.5"/><circle cx="21" cy="20" r="1.5"/><circle cx="16" cy="20" r="1.5"/></g></svg>