<svg xmlns="http://www.w3.org/2000/svg" viewBox="0 0 32 32"><path d="M25.068 25.12L31 31M20.337 19.034L18 18l1.034 2.337 1.037 2.343 3.24 7.32 1.771-4.918L30 23.312l-7.32-3.241zm4.048-2.25c.398-1.189.615-2.46.615-3.784 0-3.314-1.343-6.314-3.515-8.485S16.314 1 13 1 6.686 2.343 4.515 4.515 1 9.686 1 13s1.343 6.314 3.515 8.485A11.959 11.959 0 0 0 13 25c1.324 0 2.595-.217 3.784-.615m-.523-2.46A9.473 9.473 0 0 1 13 22.5a9.474 9.474 0 0 1-6.718-2.782C4.563 17.998 3.5 15.623 3.5 13s1.063-4.998 2.782-6.718C8.002 4.563 10.377 3.5 13 3.5s4.998 1.063 6.717 2.782A9.47 9.47 0 0 1 22.5 13a9.473 9.473 0 0 1-.575 3.261M10.75 17.97c1.196 0 2.707.18 3.779-.346.904-.444 1.471-1.267 1.471-2.136 0-1.191-1.018-2.136-2.39-2.39-.923-.171-1.856-.173-2.596-.714C10.373 11.915 10 11.23 10 10.522c0-1.029.838-1.974 2.007-2.335.983-.302 2.208-.147 3.243-.147M13 6v2m0 10v2" stroke="#333" stroke-linecap="round" stroke-linejoin="round" stroke-miterlimit="10" fill="none"/></svg>