<svg xmlns="http://www.w3.org/2000/svg" viewBox="0 0 32 32"><g stroke="#333" stroke-miterlimit="10" fill="none"><ellipse transform="rotate(-45.001 26 6)" cx="26" cy="6" rx="5" ry="5"/><path d="M25.708 1.107a3.677 3.677 0 0 1-.083 2.499 3.613 3.613 0 0 1-.803 1.216 3.604 3.604 0 0 1-1.216.803 3.702 3.702 0 0 1-2.469.093m9.738.544a3.692 3.692 0 0 0-2.501.093 3.676 3.676 0 0 0-2.019 2.019 3.672 3.672 0 0 0-.081 2.538"/><ellipse transform="rotate(-45.001 10 12)" cx="10" cy="12" rx="7.814" ry="10.046"/><path d="M17.937 23.018l3.094-3.091m-2.264-3.48l1.642 2.638c.155.302.357.577.597.817l7.288 7.284c.77.77.958 2.01.321 2.893a2.19 2.19 0 0 1-3.332.281l-7.371-7.366a3.278 3.278 0 0 0-.817-.596l-2.674-1.662"/></g></svg>