<svg xmlns="http://www.w3.org/2000/svg" viewBox="0 0 32 32"><g stroke="#333" stroke-linecap="round" stroke-linejoin="round" stroke-miterlimit="10" fill="none"><path d="M9.596 20.931L6 31h10l-3.01-8.427"/><path d="M9.596 20.931c-.487-.35-.951-.73-1.374-1.153A10.962 10.962 0 0 1 5 12c0-3.038 1.231-5.788 3.222-7.778l15.556 15.556a10.965 10.965 0 0 1-10.788 2.795 10.924 10.924 0 0 1-3.394-1.642zM7.678 9.942c.059-.286.131-.567.217-.842m1.106 7.526a8.89 8.89 0 0 1-.81-1.492 8.628 8.628 0 0 1-.512-1.649 8.937 8.937 0 0 1-.179-1.772m8-.213l3.794-3.794"/><circle cx="20" cy="7" r="1"/><path d="M26.5 7c0-3.593-2.907-6.5-6.5-6.5m0 2c2.487 0 4.5 2.013 4.5 4.5"/></g></svg>