<svg xmlns="http://www.w3.org/2000/svg" viewBox="0 0 32 32"><path d="M12.446 25.785c1.108-.622 2-1.607 2.469-2.762a5.43 5.43 0 0 0-.263-4.589c-.396-.727-.976-1.42-.985-2.242-.01-.928.786-1.751 1.716-1.971 1.248-.295 2.6.386 3.297 1.432.697 1.046.818 2.375.602 3.603-.216 1.227-.741 2.38-1.261 3.519l-1.691 3.704m-5.75-2.643a6.91 6.91 0 0 0 .978-1.489c.35-.737.531-1.579.363-2.386-.2-.962-.868-1.792-1.272-2.679-.975-2.14.29-4.462 2.418-5.356 2.456-1.032 6.09-.623 7.909 1.405 1.56 1.738 1.422 4.412 1.047 6.537a14.741 14.741 0 0 1-2.998 6.632m4.701-3.464a18.875 18.875 0 0 0 1.189-5.192c.172-2.199-.028-4.84-1.493-6.62-2.126-2.582-5.699-3.223-8.912-2.633-1.921.353-3.935 1.23-5.393 2.55-1.479 1.339-2.387 3.135-2.045 5.302.145.923.507 1.799.822 2.682.315.883.588 1.801.545 2.734M25 8.938c-2.577-3.13-6.908-3.906-10.802-3.192-2.298.422-4.707 1.463-6.468 3.029M2 8V6a4 4 0 0 1 4-4h2m22 6V6a4 4 0 0 0-4-4h-2m6 22v2a4 4 0 0 1-4 4h-2M2 24v2a4 4 0 0 0 4 4h2" stroke="#333" stroke-linecap="round" stroke-linejoin="round" stroke-miterlimit="10" fill="none"/></svg>