<svg xmlns="http://www.w3.org/2000/svg" viewBox="0 0 32 32"><g stroke="#333" stroke-width="2" stroke-linecap="round" stroke-linejoin="round" stroke-miterlimit="10" fill="none"><circle cx="16" cy="16" r="4"/><path d="M14.02 6.198C9.446 7.117 6 11.155 6 16c0 5.523 4.477 10 10 10s10-4.477 10-10c0-4.845-3.446-8.883-8.02-9.802m9.64 19.283A14.935 14.935 0 0 0 31 16c0-8.284-6.716-15-15-15S1 7.716 1 16c0 8.284 6.716 15 15 15 2.622 0 5.084-.676 7.228-1.858"/><path d="M14.02 6.198L14 6a2 2 0 1 1 4 0l-.02.198C17.879 7.208 17.037 8 16 8s-1.879-.792-1.98-1.802zm9.208 22.944A3 3 0 0 1 26 25c.598 0 1.152.18 1.62.481A2.993 2.993 0 0 1 29 28a3 3 0 0 1-5.772 1.142z"/></g></svg>