<svg xmlns="http://www.w3.org/2000/svg" viewBox="0 0 32 32"><path d="M30 21H2a1 1 0 0 1-1-1V4a1 1 0 0 1 1-1h28a1 1 0 0 1 1 1v16a1 1 0 0 1-1 1zM5.028 29c-.04-.865-.037-2.306.01-3.166.048-.859.142-1.71.286-2.538.144-.828.338-1.635.586-2.407.251-.78.46-1.632.628-2.526.168-.894.296-1.829.385-2.777.089-.947.139-1.907.151-2.848.012-.94-.013-1.863-.074-2.738m3 4l-.75-1-.75-1-.75-1L7 10l-.75 1-.75 1-.75 1L4 14m10.028 15c-.04-.865-.037-2.306.01-3.166.048-.859.142-1.71.286-2.538.144-.828.338-1.635.586-2.407.251-.78.46-1.632.628-2.526.168-.894.296-1.829.385-2.777.089-.947.139-1.907.151-2.848.012-.94-.013-1.863-.074-2.738m3 4l-.75-1-.75-1-.75-1-.75-1-.75 1-.75 1-.75 1-.75 1m10.028 15c-.04-.865-.038-2.306.01-3.166.048-.859.142-1.71.286-2.538.144-.828.338-1.635.586-2.407.251-.78.46-1.632.628-2.526.168-.894.296-1.829.385-2.777.089-.947.139-1.907.151-2.848.012-.94-.013-1.863-.074-2.738m3 4l-.75-1-.75-1-.75-1-.75-1-.75 1-.75 1-.75 1-.75 1" stroke="#333" stroke-width="2" stroke-linecap="round" stroke-linejoin="round" stroke-miterlimit="10" fill="none"/></svg>