<svg xmlns="http://www.w3.org/2000/svg" viewBox="0 0 32 32"><g stroke="#333" stroke-linecap="round" stroke-linejoin="round" stroke-miterlimit="10" fill="none"><path d="M21.103 10.203l-1.429-.134a3.76 3.76 0 0 0-.404-.998l.924-1.095a.395.395 0 0 0 0-.56l-.588-.588a.397.397 0 0 0-.561 0l-1.09.905a3.776 3.776 0 0 0-1.008-.425l-.12-1.412a.395.395 0 0 0-.395-.395h-.833a.395.395 0 0 0-.396.395l-.131 1.408c-.36.091-.699.234-1.009.419l-1.087-.917a.396.396 0 0 0-.56 0l-.588.589a.395.395 0 0 0 0 .56l.911 1.098c-.181.307-.32.642-.409.997l-1.434.122a.395.395 0 0 0-.395.396v.832c0 .219.177.396.395.396l1.445.135c.091.347.229.673.408.973l-.942 1.119a.396.396 0 0 0 0 .561l.588.587a.395.395 0 0 0 .56 0l1.131-.938c.297.175.62.31.962.4l.125 1.471c0 .219.178.396.396.396h.831a.396.396 0 0 0 .396-.396l.137-1.466c.342-.087.665-.222.962-.395l1.128.95a.396.396 0 0 0 .559 0l.588-.588a.395.395 0 0 0 0-.56l-.931-1.123a3.72 3.72 0 0 0 .413-.971l1.449-.124a.396.396 0 0 0 .397-.396V10.6a.394.394 0 0 0-.395-.397z"/><circle cx="16" cy="11" r="1.5"/><path d="M26 11c0 5.523-10 20-10 20S6 16.523 6 11 10.477 1 16 1s10 4.477 10 10z"/></g></svg>