<svg xmlns="http://www.w3.org/2000/svg" viewBox="0 0 32 32"><g stroke="#333" stroke-miterlimit="10" fill="none"><path d="M10.878 14.05a7.964 7.964 0 0 1 2.246.583 7.983 7.983 0 0 1 1.776 1.052 8.019 8.019 0 0 1 1.414 1.414c.421.542.78 1.136 1.052 1.776a8 8 0 1 1-6.488-4.825zm6.488 4.826L29.793 6.45M14.9 15.686l9.943-9.943M30.5 2.914L16.314 17.1m9.943-15.6L13.124 14.634m-2.246-.584l9.015-9.014"/><circle cx="7" cy="24" r="1.5"/><path d="M17 25.5a1.5 1.5 0 1 1 .839-2.744"/><circle cx="12" cy="19" r="1.5"/><path d="M5.393 15.552a1.501 1.501 0 1 1-1.834 1.865m5.993 12.476A1.5 1.5 0 1 1 12.5 29.5"/></g></svg>