<svg xmlns="http://www.w3.org/2000/svg" viewBox="0 0 32 32"><circle stroke="#333" stroke-width="2" stroke-linecap="round" stroke-miterlimit="10" cx="16" cy="16" r="14" fill="none"/><circle stroke="#333" stroke-linecap="round" stroke-miterlimit="10" cx="16" cy="16" r="1.5" fill="none"/><circle stroke="#333" stroke-linecap="round" stroke-miterlimit="10" cx="11" cy="16" r="1.5" fill="none"/><circle stroke="#333" stroke-linecap="round" stroke-miterlimit="10" cx="6" cy="16" r="1.5" fill="none"/><circle stroke="#333" stroke-linecap="round" stroke-miterlimit="10" cx="21" cy="16" r="1.5" fill="none"/><circle stroke="#333" stroke-linecap="round" stroke-miterlimit="10" cx="26" cy="16" r="1.5" fill="none"/><circle stroke="#333" stroke-linecap="round" stroke-miterlimit="10" cx="16" cy="8" r="1.5" fill="none"/><circle stroke="#333" stroke-linecap="round" stroke-miterlimit="10" cx="11" cy="8" r="1.5" fill="none"/><path stroke="#333" stroke-linecap="round" stroke-miterlimit="10" d="M5.777 6.516a1.5 1.5 0 1 1-1.274 1.578" fill="none"/><circle stroke="#333" stroke-linecap="round" stroke-miterlimit="10" cx="21" cy="8" r="1.5" fill="none"/><path stroke="#333" stroke-linecap="round" stroke-miterlimit="10" d="M27.5 8A1.5 1.5 0 1 1 26 6.5" fill="none"/><circle stroke="#333" stroke-linecap="round" stroke-miterlimit="10" cx="16" cy="24" r="1.5" fill="none"/><circle stroke="#333" stroke-linecap="round" stroke-miterlimit="10" cx="11" cy="24" r="1.5" fill="none"/><path stroke="#333" stroke-linecap="round" stroke-miterlimit="10" d="M4.51 23.827a1.5 1.5 0 1 1 1.304 1.662" fill="none"/><circle stroke="#333" stroke-linecap="round" stroke-miterlimit="10" cx="21" cy="24" r="1.5" fill="none"/><path stroke="#333" stroke-linecap="round" stroke-miterlimit="10" d="M26.233 25.482a1.5 1.5 0 1 1 1.264-1.575" fill="none"/><circle stroke="#333" stroke-linecap="round" stroke-miterlimit="10" cx="18" cy="20" r="1.5" fill="none"/><circle stroke="#333" stroke-linecap="round" stroke-miterlimit="10" cx="13" cy="20" r="1.5" fill="none"/><circle stroke="#333" stroke-linecap="round" stroke-miterlimit="10" cx="8" cy="20" r="1.5" fill="none"/><path stroke="#333" stroke-linecap="round" stroke-miterlimit="10" d="M2.317 18.664a1.5 1.5 0 1 1 .854 2.826" fill="none"/><circle stroke="#333" stroke-linecap="round" stroke-miterlimit="10" cx="23" cy="20" r="1.5" fill="none"/><path stroke="#333" stroke-linecap="round" stroke-miterlimit="10" d="M28.962 21.151a1.5 1.5 0 1 1 .498-1.497" fill="none"/><circle stroke="#333" stroke-linecap="round" stroke-miterlimit="10" cx="18" cy="28" r="1.5" fill="none"/><circle stroke="#333" stroke-linecap="round" stroke-miterlimit="10" cx="13" cy="28" r="1.5" fill="none"/><path stroke="#333" stroke-linecap="round" stroke-miterlimit="10" d="M7.125 26.781a1.5 1.5 0 0 1 2.344 1.521m12.225.437a1.5 1.5 0 0 1 2.593-1.509" fill="none"/><circle stroke="#333" stroke-linecap="round" stroke-miterlimit="10" cx="18" cy="12" r="1.5" fill="none"/><circle stroke="#333" stroke-linecap="round" stroke-miterlimit="10" cx="13" cy="12" r="1.5" fill="none"/><circle stroke="#333" stroke-linecap="round" stroke-miterlimit="10" cx="8" cy="12" r="1.5" fill="none"/><path stroke="#333" stroke-linecap="round" stroke-miterlimit="10" d="M3.205 10.514a1.5 1.5 0 1 1-.904 2.814" fill="none"/><circle stroke="#333" stroke-linecap="round" stroke-miterlimit="10" cx="23" cy="12" r="1.5" fill="none"/><path stroke="#333" stroke-linecap="round" stroke-miterlimit="10" d="M29.456 12.364a1.5 1.5 0 1 1-.495-1.516" fill="none"/><circle stroke="#333" stroke-linecap="round" stroke-miterlimit="10" cx="18" cy="4" r="1.5" fill="none"/><circle stroke="#333" stroke-linecap="round" stroke-miterlimit="10" cx="13" cy="4" r="1.5" fill="none"/><path stroke="#333" stroke-linecap="round" stroke-miterlimit="10" d="M9.471 3.706a1.5 1.5 0 0 1-2.272 1.563m17.045-.43A1.499 1.499 0 0 1 21.5 4c0-.256.064-.497.177-.707" fill="none"/></svg>