<svg xmlns="http://www.w3.org/2000/svg" viewBox="0 0 32 32"><path d="M29 14.116c0 6.289-9.799 14.586-12.382 16.664a.979.979 0 0 1-1.236 0C12.799 28.702 3 20.405 3 14.116 3 6.872 8.82 1 16 1s13 5.872 13 13.116zm-16.922-2.194c1.531 1.53.693 4.85.693 4.85s-3.319.838-4.85-.693l-.693-4.85s3.32-.838 4.85.693zm7.844 0c-1.531 1.53-.693 4.85-.693 4.85s3.319.838 4.85-.693l.693-4.85s-3.32-.838-4.85.693z" stroke="#333" stroke-width="2" stroke-linecap="round" stroke-linejoin="round" stroke-miterlimit="10" fill="none"/></svg>