<svg xmlns="http://www.w3.org/2000/svg" viewBox="0 0 32 32"><g stroke="#333" stroke-linecap="round" stroke-linejoin="round" stroke-miterlimit="10" fill="none"><circle cx="16" cy="16" r="14"/><path d="M7.694 7.694c0 1.278.639 2.556 1.917 3.833C10.25 8.333 12.806 6.417 16 4.5c-.639.639-1.917 1.917-1.278 3.833 2.556-1.278 5.75-1.278 9.583-.639-1.278 0-2.556.639-3.833 1.917 3.195.639 5.111 3.195 7.028 6.389-.639-.639-1.917-1.917-3.833-1.278 1.278 2.556 1.278 5.75.639 9.583 0-1.278-.639-2.556-1.917-3.833-.639 3.195-3.195 5.111-6.389 7.028.639-.639 1.917-1.917 1.278-3.833-2.556 1.278-5.75 1.278-9.583.639 1.278 0 2.556-.639 3.833-1.917C8.333 21.75 6.417 19.194 4.5 16c.639.639 1.917 1.917 3.833 1.278-1.277-2.556-1.277-5.75-.639-9.584z"/></g></svg>