<svg xmlns="http://www.w3.org/2000/svg" viewBox="0 0 32 32"><path d="M4.085 6.913l4.302 4.302m-1.473 16.7a14.921 14.921 0 0 0 18.173 0 15.057 15.057 0 0 0 2.828-2.828 14.921 14.921 0 0 0 0-18.174 15.057 15.057 0 0 0-2.828-2.828 14.921 14.921 0 0 0-18.173 0 15.062 15.062 0 0 0-2.829 2.828 14.921 14.921 0 0 0 0 18.174 15.062 15.062 0 0 0 2.829 2.828zm16.699-16.7a8.945 8.945 0 0 1 0 9.57 9.025 9.025 0 0 1-2.828 2.828 8.945 8.945 0 0 1-9.57 0 9.025 9.025 0 0 1-2.828-2.828 8.945 8.945 0 0 1 0-9.57 9.025 9.025 0 0 1 2.828-2.828 8.945 8.945 0 0 1 9.57 0 9.025 9.025 0 0 1 2.828 2.828zm4.302 13.872l-4.302-4.302M6.914 4.085l4.301 4.302m13.872 19.528l-4.302-4.302m7.13-16.7l-4.302 4.302m1.474-7.13l-4.302 4.302m-9.57 15.226l-4.301 4.302m1.473-7.13l-4.302 4.302" stroke="#333" stroke-width="2" stroke-miterlimit="10" fill="none"/></svg>