<svg xmlns="http://www.w3.org/2000/svg" viewBox="0 0 32 32"><g stroke="#333" stroke-width="2" stroke-linecap="round" stroke-linejoin="round" stroke-miterlimit="10" fill="none"><path d="M31 31H11v-3l20-3zm-7.558-4.903a7.014 7.014 0 0 0 .979-4.087c-.172-2.387-1.508-4.601-3.347-6.132-1.301-1.083-2.836-1.843-4.454-2.359m1.369-2.623c3.572.441 6.906 2.57 8.767 5.654 1.585 2.626 2.072 5.877 1.396 8.863"/><path d="M12.438 12.54A2.989 2.989 0 0 0 15 14c.598 0 1.152-.18 1.62-.481A2.993 2.993 0 0 0 18 11l-.011-.104a2.994 2.994 0 0 0-1.427-2.446A2.952 2.952 0 0 0 15 8a3 3 0 0 0-3 3c0 .566.166 1.089.438 1.54zm4.124-4.091l1.898-1.882a1.82 1.82 0 0 0 0-2.587l-2.463-2.444a1.855 1.855 0 0 0-2.608 0L2.304 12.532l5.071 5.031 5.063-5.022m-6.222 3.872L3.608 19 1 16.413l2.608-2.588"/></g></svg>