<svg xmlns="http://www.w3.org/2000/svg" viewBox="0 0 32 32"><path d="M7.1 24.235c5.335-1.639 12.466-1.639 17.801 0a6.16 6.16 0 0 1-.933-1.335c-.861-1.68-.866-3.71-.773-5.632s.254-3.907-.331-5.722c-.511-1.585-1.761-2.885-3.209-3.677C16 5.868 10.467 7.418 9.137 11.546c-.585 1.815-.424 3.8-.331 5.722.093 1.922.088 3.952-.773 5.632a6.17 6.17 0 0 1-.933 1.335zM18 23.068V24c0 1.1-.9 2-2 2s-2-.9-2-2v-.937M2.756 11.756C1.671 12.842 1 14.342 1 16s.671 3.158 1.756 4.244m2.415-1.415C4.447 18.105 4 17.105 4 16s.447-2.106 1.171-2.829m24.073-1.415C30.329 12.842 31 14.342 31 16s-.671 3.158-1.756 4.244m-2.415-1.415C27.553 18.105 28 17.105 28 16s-.447-2.106-1.171-2.829M16 5v2" stroke="#333" stroke-width="2" stroke-linecap="round" stroke-linejoin="round" stroke-miterlimit="10" fill="none"/></svg>