<svg xmlns="http://www.w3.org/2000/svg" viewBox="0 0 32 32"><path d="M9 26h12m0 0l4-5m0 0h3m0 0v2m0 0h3m-3-10h3m0 10V13m-3 0v2m-3-2v2m3 0h-3m0-2h-2m0 0l-3-3m0 0h-4m-3 0H9m7 0V6m-3 4V6m-3 0h9M9 10l-2 3m0 9l2 4M7 13H4m3 9H4m0-9v9m0-5H1m0 5v-9m12.385 1c-.457.481-.923.973-1.187 1.562-.264.589-.295 1.304.095 1.832.25.339.642.565.952.86.542.515.82 1.251.741 1.961-.079.71-.514 1.381-1.157 1.785m4.556-8c-.458.481-.923.973-1.187 1.562-.264.589-.295 1.304.095 1.832.25.339.642.565.952.86.542.515.82 1.251.741 1.961-.079.71-.514 1.381-1.157 1.785" stroke="#333" stroke-width="2" stroke-linecap="round" stroke-linejoin="round" stroke-miterlimit="10" fill="none"/></svg>