<svg xmlns="http://www.w3.org/2000/svg" viewBox="0 0 32 32"><g stroke="#333" stroke-width="2" stroke-linecap="round" stroke-linejoin="round" stroke-miterlimit="10" fill="none"><path d="M16.908 13.249a7.484 7.484 0 0 0-1.747.704 7.356 7.356 0 0 0-1.484 1.093 7.23 7.23 0 0 0-1.154 1.416 5.152 5.152 0 0 0-.945-.276 5.123 5.123 0 0 0-1.013-.096c-.652 0-1.277.117-1.851.33-.575.213-1.1.523-1.554.908a5.055 5.055 0 0 0-1.13 1.363 4.834 4.834 0 0 0-.578 1.695 4.882 4.882 0 0 0-1.744.445 4.786 4.786 0 0 0-1.413 1.002 4.592 4.592 0 0 0-.947 1.429A4.426 4.426 0 0 0 1 24.988v.877c0 .709.135 1.385.379 1.999s.597 1.168 1.032 1.633c.436.465.955.841 1.531 1.101.576.258 1.21.402 1.875.402h20.365c.665 0 1.299-.144 1.875-.404a4.823 4.823 0 0 0 1.531-1.101 5.178 5.178 0 0 0 1.033-1.633A5.398 5.398 0 0 0 31 25.864v-.84h-.004a4.464 4.464 0 0 0-.416-1.744 4.606 4.606 0 0 0-1.032-1.419 4.805 4.805 0 0 0-1.502-.954 4.915 4.915 0 0 0-1.828-.349h-.016a3.958 3.958 0 0 0 .012-.224 2.13 2.13 0 0 0 .003-.113l.001-.113a6.87 6.87 0 0 0-.579-2.767 7.126 7.126 0 0 0-1.579-2.259"/><circle cx="8" cy="25" r="2"/><circle cx="18" cy="19" r="2"/><circle cx="22" cy="9" r="2"/><circle cx="29" cy="3" r="2"/><path d="M9.857 24.257l6.425-4.234m2.778-2.719l2.334-6.398m1.517-3.686l4.388-3.168"/></g></svg>