<svg xmlns="http://www.w3.org/2000/svg" viewBox="0 0 32 32"><g stroke="#333" stroke-linecap="round" stroke-linejoin="round" stroke-miterlimit="10" fill="none"><path d="M27.86 27.86c-2.854 2.854-7.524 2.854-10.377 0L4.14 14.517c-2.854-2.854-2.854-7.523 0-10.377 2.854-2.854 7.524-2.854 10.377 0L27.86 17.483c2.853 2.853 2.853 7.523 0 10.377zm-3.757-14.194l1.271-1.271a1.02 1.02 0 0 1 1.442 0l2.885 2.885a1.02 1.02 0 0 1 0 1.442l-1.303 1.303m-10.39 10.389l-1.287 1.287a1.02 1.02 0 0 1-1.442 0l-2.885-2.885a1.02 1.02 0 0 1 0-1.442l1.209-1.209m.373-20.564l1.303-1.303a1.02 1.02 0 0 1 1.442 0l2.884 2.884a1.02 1.02 0 0 1 0 1.442l-1.24 1.24M7.85 18.381l-1.224 1.225a1.02 1.02 0 0 1-1.442 0L2.3 16.721a1.02 1.02 0 0 1 0-1.442l1.24-1.24"/><ellipse transform="rotate(-45.001 12 9)" cx="12" cy="9" rx=".5" ry=".5"/><ellipse transform="rotate(-45.001 9 12)" cx="9" cy="12" rx=".5" ry=".5"/><ellipse transform="rotate(-45.001 10 7)" cx="10" cy="7" rx=".5" ry=".5"/><ellipse transform="rotate(-45.001 7 10)" cx="7" cy="10" rx=".5" ry=".5"/><ellipse transform="rotate(-45.001 25 22)" cx="25" cy="22" rx=".5" ry=".5"/><ellipse transform="rotate(-45.001 22 25)" cx="22" cy="25" rx=".5" ry=".5"/><ellipse transform="rotate(-45.001 23 20)" cx="23" cy="20" rx=".5" ry=".5"/><ellipse transform="rotate(-45.001 20 23)" cx="20" cy="23" rx=".5" ry=".5"/></g></svg>