<svg xmlns="http://www.w3.org/2000/svg" viewBox="0 0 32 32"><g stroke="#333" stroke-width="2" stroke-linecap="round" stroke-linejoin="round" stroke-miterlimit="10" fill="none"><ellipse transform="rotate(-45.001 25 10)" cx="25" cy="10" rx="2" ry="2"/><ellipse transform="rotate(-45.001 25 10)" cx="25" cy="10" rx="2" ry="2"/><path d="M12.727 25l-1.363-1.364-2.182-2.181L7 19.273l4.364-4.364 4.363-4.364 5.727-5.727.507-.506L26.636 4l2.182 2.182L31 8.364l-.312 4.675-6.234 6.234-4.363 4.363L15.727 28l-2.182-2.182zm8.727-20.182L20.636 4l-4.675.312-.506.506-5.728 5.727-4.363 4.364L1 19.273l2.182 2.182 2.182 2.181L6.727 25l.818.818L9.727 28l3-3"/></g></svg>