<svg xmlns="http://www.w3.org/2000/svg" viewBox="0 0 32 32"><g stroke="#333" stroke-linecap="round" stroke-linejoin="round" stroke-miterlimit="10" fill="none"><circle cx="16" cy="22" r="9"/><path d="M16.991 13.028L21 1h8l-5.372 16.116m-8.616-4.078L11 1H3l5.386 16.158M7 1l4.407 13.222M25 1l-4.399 13.196M16 16.5l1.373.891h1.631l.678 1.499 1.373.892-.233 1.631.678 1.5-1.068 1.245-.232 1.632-1.566.464-1.069 1.246L16 27.036l-1.566.464-1.068-1.246-1.566-.464-.232-1.632-1.068-1.245.678-1.5-.233-1.631 1.373-.892.678-1.499h1.631z"/></g></svg>