<svg xmlns="http://www.w3.org/2000/svg" viewBox="0 0 32 32"><path d="M26 11C26 5.101 20.893.396 14.859 1.063c-4.471.495-8.148 4.061-8.761 8.517A10.001 10.001 0 0 0 12 20.162V26a1 1 0 0 0 1 1h6a1 1 0 0 0 1-1v-5.838c3.53-1.543 6-5.062 6-9.162zm-6.5 18.5h-7m7 2h-7m4.939-4.5c-.506-1.729-.474-5.102-.436-6.929l.069-3.342c.032-1.525.065-3.064.385-4.542.095-.438.221-.881.474-1.221.253-.34.662-.556 1.031-.427.495.172.71 1.004.379 1.469-.298.418-.829.443-1.294.435l-2.008-.037h-.079l-2.008.037c-.465.009-.996-.016-1.294-.435-.331-.465-.116-1.297.379-1.469.369-.128.778.087 1.031.427.253.34.379.784.474 1.221.321 1.478.354 3.018.385 4.542l.069 3.342c.038 1.827.07 5.2-.436 6.929" stroke="#333" stroke-linecap="round" stroke-linejoin="round" stroke-miterlimit="10" fill="none"/></svg>