<svg xmlns="http://www.w3.org/2000/svg" viewBox="0 0 32 32"><path d="M22.774 24.103c.428-.255.777-.623.981-1.173a60.327 60.327 0 0 0 1.802-5.681 47.913 47.913 0 0 0 1.299-7.091c.191-1.799.374-4.152-.72-5.709-1.097-1.562-3.208-2.474-5-2.894-2.25-.527-4.994-.691-7.284-.438-1.639.181-3.221.652-4.322 1.963-1.633 1.944-1.282 4.37-.497 6.59.658 1.863 1.546 3.724 1.481 5.69.02-1.266-.219-2.601-1.063-3.578-.844-.977-2.422-1.452-3.556-.793-2.256 1.31.383 4.242 1.07 5.68a20.598 20.598 0 0 1 1.851 6.31c.132 1.068-.154 1.497 1.057 1.726 1.23.232 2.485.364 3.734.431 1.601.086 3.209.047 4.804-.118 1.361-.142 3.158-.196 4.363-.915zm-11.699.907l-.067 5.856 9.616.134.275-6.177m-6.39.395l.024 2.743a.502.502 0 0 0 .493.498c1.886.031 3.768.005 5.654.03m.312-22.447c.749.226 1.398.811 1.733 1.564s.352 1.662.044 2.429" stroke="#333" stroke-linejoin="round" stroke-miterlimit="10" fill="none"/></svg>