<svg xmlns="http://www.w3.org/2000/svg" viewBox="0 0 32 32"><path d="M21 30H11a1.982 1.982 0 0 1-1.118-.342 1.98 1.98 0 0 1-.724-.88A1.982 1.982 0 0 1 9 28V7.533c0-.853.084-1.704.251-2.541l.315-1.58A2 2 0 0 1 11.477 2h9.046c.878 0 1.653.573 1.912 1.412l.315 1.58c.166.837.25 1.688.25 2.541V28a1.982 1.982 0 0 1-.342 1.118 1.98 1.98 0 0 1-.88.724A1.982 1.982 0 0 1 21 30zM9.094 12.437l.836-2.655c.24-.761.975-1.283 1.809-1.283h8.523c.834 0 1.569.521 1.809 1.283l.874 2.775M9.11 21.615l.819 2.602c.24.761.975 1.283 1.809 1.283h8.523c.834 0 1.569-.521 1.809-1.283l.863-2.74M23 12l6 2M3 14l6-2m14 8l6 2M3 22l6-2" stroke="#333" stroke-linecap="round" stroke-linejoin="round" stroke-miterlimit="10" fill="none"/></svg>