<svg xmlns="http://www.w3.org/2000/svg" viewBox="0 0 32 32"><g stroke="#333" stroke-width="2" stroke-miterlimit="10" fill="none"><circle cx="21" cy="6" r="5"/><path d="M19.553 19.449c.87.87-2.235 3.974-3.104 3.104l-6.714-5.385a26.242 26.242 0 0 1-2.146-1.923l-4.931-4.931a2.224 2.224 0 0 1-.432-2.554l.026-.053a5.426 5.426 0 0 1 2.455-2.454l.053-.026a2.226 2.226 0 0 1 2.555.432l4.931 4.931c.68.68 1.322 1.396 1.923 2.146l5.384 6.713zm3.903 8.559l-6.985-5.432m3.105-3.105l5.432 6.985"/><ellipse transform="rotate(-45.001 25.396 28.397)" cx="25.396" cy="28.396" rx="3.293" ry="1.646"/></g></svg>