<svg xmlns="http://www.w3.org/2000/svg" viewBox="0 0 32 32"><path d="M21.5 28.875A14.035 14.035 0 0 0 30 16c0-7.732-6.268-14-14-14-.558 0-1.105.042-1.645.105a13.902 13.902 0 0 0-5.191 1.684 13.999 13.999 0 0 0-2.605 1.895 14.056 14.056 0 0 0-2.463 2.974 13.884 13.884 0 0 0-1.933 5.317A14.088 14.088 0 0 0 2 16c0 7.732 6.268 14 14 14 1.953 0 3.812-.402 5.5-1.125zm-7.145-26.77l9.801 9.801m1.282 8.156L9.164 3.789m4.055 13.992L4.096 8.658m2.463-2.974l7.097 7.097m1.891 14.578L2.163 13.975m10.868 6.431l8.469 8.469m7.798-8.514l-8.657-8.658" stroke="#333" stroke-miterlimit="10" fill="none"/></svg>