<svg xmlns="http://www.w3.org/2000/svg" viewBox="0 0 32 32"><g stroke="#333" stroke-miterlimit="10" fill="none"><circle cx="6" cy="22" r="5"/><circle cx="26" cy="22" r="5"/><path d="M17.5 8.5h-3c-.55 0-1-.45-1-1v-1c0-.55.45-1 1-1h3c.55 0 1 .45 1 1v1c0 .55-.45 1-1 1zm3.936 2.29l-2.539-1.598a1.003 1.003 0 0 1-.314-1.379l.533-.846a1.003 1.003 0 0 1 1.379-.314l2.539 1.598c.465.293.607.913.314 1.379l-.533.846a1.004 1.004 0 0 1-1.379.314zm-10-4.137L8.897 8.251a1.002 1.002 0 0 0-.314 1.379l.533.846c.293.465.913.607 1.379.314l2.539-1.598c.465-.293.607-.913.314-1.379l-.533-.846a1.003 1.003 0 0 0-1.379-.314zm14.673 6.998l.022-.018c.43-.352.494-.991.141-1.421l-1.923-2.343a1.016 1.016 0 0 0-1.424-.141l-.783.64A1.011 1.011 0 0 0 22 11.789l1.923 2.343c.353.43.993.493 1.424.141l.762-.622m0 0a.844.844 0 0 1 .199.188c.192.259.246.639.135.953-.073.208-.209.379-.335.552-.126.173-.248.362-.284.582-.036.22.038.979.217 1.075M5.076 13.552l.066.081.783.64c.43.352 1.071.288 1.424-.141l1.923-2.343a1.011 1.011 0 0 0-.141-1.421l-.783-.64a1.017 1.017 0 0 0-1.424.141l-1.923 2.343c-.33.401-.282.977.075 1.34m0 0a.843.843 0 0 0-.384.287 1.061 1.061 0 0 0-.135.953c.073.208.209.379.335.552.126.173.248.362.284.582.036.22-.038 1.092-.217 1.188"/></g></svg>