<svg xmlns="http://www.w3.org/2000/svg" viewBox="0 0 32 32"><g stroke="#333" stroke-linecap="round" stroke-linejoin="round" stroke-miterlimit="10" fill="none"><path d="M14 5h2m-2 4h2m-2 4h2m-2 4h2m-2 4h2m5.923 5.233l-.014-.072a3.704 3.704 0 0 0-.569-1.357l-.06-.087a3.662 3.662 0 0 0-.276-.335 4.017 4.017 0 0 0-.987-.82C20.044 23.398 20 3 20 3c0-1.1-.9-2-2-2s-2 .9-2 2c0 0-.012 20.377.027 20.54a3.99 3.99 0 0 0-1.054.872 3.762 3.762 0 0 0-.198.24l-.141.201a3.796 3.796 0 0 0-.56 1.41A4.047 4.047 0 0 0 14 27a4 4 0 0 0 8 0c0-.267-.032-.52-.077-.767z"/><circle cx="18" cy="27" r="1.5"/><path d="M8.5 14.5v-3l3 1.5z"/></g></svg>