<svg xmlns="http://www.w3.org/2000/svg" viewBox="0 0 32 32"><g stroke="#333" stroke-width="2" stroke-miterlimit="10" fill="none"><circle cx="16" cy="16" r="3"/><path d="M25.821 13.81a10.004 10.004 0 0 0-1.329-3.205l2.645-3.267-.309-.309-.928-.928-.928-.928-.309-.309-3.267 2.645a10.004 10.004 0 0 0-3.205-1.329L17.75 2h-3.5l-.44 4.179a10.004 10.004 0 0 0-3.205 1.329L7.338 4.863l-.309.309-.929.929-.928.928-.309.309 2.645 3.267A10.002 10.002 0 0 0 6.18 13.81L2 14.25v3.5l4.179.44a10.024 10.024 0 0 0 1.328 3.205l-2.645 3.267.309.309.929.928.928.928.309.309 3.267-2.645a10.004 10.004 0 0 0 3.205 1.329L14.25 30h3.5l.44-4.179a10.004 10.004 0 0 0 3.205-1.329l3.267 2.645.309-.309.928-.928.928-.928.309-.309-2.645-3.267a10.004 10.004 0 0 0 1.329-3.205L30 17.75v-3.5l-4.179-.44z"/></g></svg>