<svg xmlns="http://www.w3.org/2000/svg" viewBox="0 0 32 32"><path d="M3 3v4h2v5.321c0 4.527 2.905 8.385 7 9.94V25h-1.604C8.521 25 7 26.38 7 28.082V29h18v-.918C25 26.38 23.48 25 21.604 25H20v-2.739c4.095-1.554 7-5.413 7-9.939V7h2V3H3zm13 5l1.545 3.292L21 11.82l-2.5 2.562.59 3.618L16 16.292 12.91 18l.59-3.618L11 11.82l3.455-.528zM5.672 16H4c-1.65 0-3-1.35-3-3s1.35-3 3-3h1m21.329 6H28c1.65 0 3-1.35 3-3s-1.35-3-3-3h-1" stroke="#333" stroke-width="2" stroke-linecap="round" stroke-linejoin="round" stroke-miterlimit="10" fill="none"/></svg>