<svg xmlns="http://www.w3.org/2000/svg" viewBox="0 0 32 32"><g stroke="#333" stroke-linecap="round" stroke-linejoin="round" stroke-miterlimit="10" fill="none"><path d="M27.553 25.532c1.073-.488 2.009-1.256 2.671-2.567.882-1.748.984-3.912.45-5.826-.674-2.416-2.402-4.7-4.318-6.025-2.592-1.791-5.91-2.57-8.912-1.844-1.471.356-2.876 1.106-3.964 2.276-1.584 1.704-2.149 4.094-2.866 6.329-.332 1.035-.742 2.037-1.36 2.903-1.148 1.61-2.493 2.51-2.219 4.813.216 1.818 1.291 3.577 2.723 4.484 2.567 1.625 5.8.972 8.1-.891 1.221-.989 2.516-2.017 4.017-2.369 1.86-.438 3.946-.496 5.678-1.283zM6.5.5l7 7m-9-5l7 7m-9-5l7 7m-9-5l7 7"/><circle cx="25" cy="20" r="2.5"/><path d="M13.061 27.061A1.499 1.499 0 0 1 10.5 26c0-.414.168-.789.439-1.061M17.5 14a1.5 1.5 0 0 1 3 0"/><circle cx="17" cy="20" r="1.5"/></g></svg>