<svg xmlns="http://www.w3.org/2000/svg" viewBox="0 0 32 32"><path d="M28 13.513c0 4.991-7.395 12.789-10.575 15.91a2.05 2.05 0 0 1-2.851 0C11.395 26.302 4 18.504 4 13.513 4 7.155 9.373 2 16 2s12 5.155 12 11.513zM8.181 11.181c-.44 1.574-.081 3.302 1.128 4.511 1.209 1.209 2.937 1.568 4.511 1.128.44-1.574.081-3.303-1.128-4.511-1.209-1.209-2.937-1.568-4.511-1.128zm15.638 0c.44 1.574.081 3.302-1.128 4.511-1.209 1.209-2.937 1.568-4.511 1.128-.44-1.574-.081-3.303 1.128-4.511 1.209-1.209 2.937-1.568 4.511-1.128z" stroke="#333" stroke-width="2" stroke-linecap="round" stroke-linejoin="round" stroke-miterlimit="10" fill="none"/></svg>