<svg xmlns="http://www.w3.org/2000/svg" viewBox="0 0 32 32"><path d="M16 1c2.229 1.16 4.302 2.569 4.867 5.119C21.547 9.189 19.568 13 16 13s-5.547-3.811-4.867-6.881C11.697 3.569 13.771 2.16 16 1zm3.009 11c0 3.076-.227 3.244.122 6.304.236 2.072.772 4.325 2.15 5.955C22.222 25.372 23.539 26 25 26v5H7v-5c1.461 0 2.778-.628 3.719-1.741 1.378-1.63 1.913-3.883 2.15-5.955.349-3.061.122-3.228.122-6.304M7 26.5h18M11 16h10" stroke="#333" stroke-linecap="round" stroke-linejoin="round" stroke-miterlimit="10" fill="none"/></svg>