<svg xmlns="http://www.w3.org/2000/svg" viewBox="0 0 32 32"><path d="M29.359 8.983c-1.444-1.047-3.925-1.491-6-1.483-2.074.008-4.099.42-6.072.871-1.973.45-3.944.945-6.002 1.127-3.011.266-6.138-.171-8.78-1.22M23.5 18.656L22.534 2M17.5 19.737l-.966-16.678M10.5 20.781L9.534 4.074M3.236 19.271c2.787 1.12 6.128 1.594 9.342 1.319 2.131-.182 4.171-.677 6.214-1.127 2.042-.45 4.139-.863 6.286-.871 1.728-.006 3.512.28 4.922.937l-.966-16.046C27.591 2.436 25.433 1.992 23.359 2c-2.074.008-4.099.42-6.072.871-1.973.45-3.944.945-6.002 1.127-3.206.283-6.542-.231-9.285-1.43L3.931 30m-1.15-16.821c2.811 1.12 6.519 1.594 9.761 1.319 2.15-.182 4.208-.677 6.269-1.127s4.175-.863 6.342-.871c1.512-.005 3.066.209 4.379.695" stroke="#333" stroke-linecap="round" stroke-linejoin="round" stroke-miterlimit="10" fill="none"/></svg>