<svg xmlns="http://www.w3.org/2000/svg" viewBox="0 0 32 32"><path d="M14.451 17.549a5.462 5.462 0 0 1-1.605-3.874c0-1.402.535-2.804 1.605-3.873l3.099-3.099 3.099-3.099A5.46 5.46 0 0 1 24.522 2c1.402 0 2.804.535 3.874 1.605C29.465 4.674 30 6.076 30 7.478s-.535 2.804-1.605 3.874l-3.099 3.099-3.099 3.099m-4.648-3.099a5.46 5.46 0 0 1 1.604 3.874 5.465 5.465 0 0 1-1.604 3.874l-3.099 3.099-3.099 3.099A5.464 5.464 0 0 1 7.478 30a5.465 5.465 0 0 1-3.874-1.604C2.535 27.326 2 25.924 2 24.522s.535-2.804 1.604-3.874l3.099-3.099 3.099-3.099" stroke="#333" stroke-width="2" stroke-linecap="round" stroke-linejoin="round" stroke-miterlimit="10" fill="none"/></svg>