<svg xmlns="http://www.w3.org/2000/svg" viewBox="0 0 32 32"><g stroke="#333" stroke-width="2" stroke-linecap="round" stroke-linejoin="round" stroke-miterlimit="10" fill="none"><path d="M24 24v4H8v-4"/><circle cx="16" cy="6" r="2"/><path d="M27.933 11.686L24 24H8L4.066 11.686m.193-.144C9.212 12.83 13.899 11.278 16 8c2.101 3.278 6.788 4.83 11.74 3.542m-23.481 0C4.708 11.175 5 10.625 5 10a2 2 0 1 0-2 2c.393 0 .757-.118 1.066-.314m.193-.144a2.113 2.113 0 0 1-.193.145m23.674-.145l.193.145m0-.001c.31.196.674.314 1.067.314a2 2 0 1 0-2-2c0 .625.292 1.175.74 1.542"/></g></svg>