<svg xmlns="http://www.w3.org/2000/svg" viewBox="0 0 32 32"><g stroke="#333" stroke-linecap="round" stroke-linejoin="round" stroke-miterlimit="10" fill="none"><circle cx="9" cy="23" r="8"/><path d="M17.158 22.851c3.466-.658 6.626-2.686 8.615-5.57l-3.608.112c2.771-1.821 5.176-4.156 7.226-6.76a26.956 26.956 0 0 1-6.651 2.338C26.424 9.764 29.223 5.575 31 1c-4.574 1.777-8.762 4.577-11.969 8.263a26.97 26.97 0 0 1 2.338-6.653c-2.603 2.051-4.938 4.456-6.758 7.228l.112-3.61c-2.906 2.005-4.942 5.2-5.583 8.699"/><circle cx="8" cy="27" r="1.5"/><circle cx="13" cy="19" r="1.5"/><path d="M3.249 17.521A1.5 1.5 0 0 1 3 20.5a1.5 1.5 0 0 1-1.306-.761"/></g></svg>