<svg xmlns="http://www.w3.org/2000/svg" viewBox="0 0 32 32"><g stroke="#333" stroke-linecap="round" stroke-linejoin="round" stroke-miterlimit="10" fill="none"><path d="M11 25h10l2 4h3v-6l-3.518-3.431c.336-1.44.518-2.975.518-4.569s-.182-3.129-.518-4.569-.827-2.786-1.447-4-1.366-2.299-2.214-3.216S17.024 1.547 16 1c-1.024.547-1.973 1.298-2.821 2.215s-1.595 2.001-2.214 3.216-1.11 2.56-1.446 4C9.182 11.871 9 13.406 9 15s.182 3.129.518 4.569L6 23v6h3l2-4zm6.5 2.5v4m3-3v3m-9-3v3m3-4v4m-4-24h11"/><circle cx="16" cy="14" r="3.5"/></g></svg>