<svg xmlns="http://www.w3.org/2000/svg" viewBox="0 0 32 32"><g stroke="#333" stroke-linecap="round" stroke-linejoin="round" stroke-miterlimit="10" fill="none"><circle cx="17" cy="18" r="6.5"/><circle cx="17" cy="18" r="6.5"/><circle cx="17" cy="18" r="2.5"/><path d="M21.596 13.404c1.491-1.491 4.637-.759 7.033 1.637m-16.225 7.555c-1.491 1.491-4.637.759-7.033-1.637m16.225 1.637c1.491 1.491.759 4.637-1.637 7.033m-14.016-16.3A11.967 11.967 0 0 0 5 18c0 6.627 5.373 12 12 12s12-5.373 12-12S23.627 6 17 6m-4.596 7.404c-.642-.642-.849-1.597-.712-2.66"/><path d="M5.943 13.329l-2.764-1.168a15.016 15.016 0 0 1 3.215-4.768 15.021 15.021 0 0 1 4.768-3.215A14.966 14.966 0 0 1 17 3v6a8.974 8.974 0 0 0-3.503.707 8.956 8.956 0 0 0-1.805 1.036c-.373.273-.73.567-1.056.893a9.025 9.025 0 0 0-1.929 2.861l-2.764-1.168z"/><circle cx="14" cy="6" r=".5"/><circle cx="7" cy="11" r=".5"/></g></svg>