<svg xmlns="http://www.w3.org/2000/svg" viewBox="0 0 32 32"><path d="M19 4a3 3 0 1 0-6 0m13.091 7.017c.583 1.57.909 3.388.909 5.445C27 24.491 22.075 31 16 31S5 24.491 5 16.462c0-2.057.326-3.875.909-5.444 1.309-3.521 3.924-5.783 7.13-6.631a11.533 11.533 0 0 1 5.922 0c3.206.847 5.821 3.109 7.13 6.63zm-20.182 0C8.733 11.632 12.216 12 16 12s7.266-.368 10.091-.983M16 12v19M5 19l-4 2m5 2l-4 4m6 0l-2 4m21-12l4 2m-5 2l4 4m-6 0l2 4M3 2c.217 1.176.439 2.367 1.027 3.46C4.614 6.552 5.62 7.552 7 8m22-6c-.217 1.176-.439 2.367-1.027 3.46C27.386 6.552 26.38 7.552 25 8" stroke="#333" stroke-width="2" stroke-miterlimit="10" fill="none"/></svg>