<svg xmlns="http://www.w3.org/2000/svg" viewBox="0 0 32 32"><g stroke="#333" stroke-linejoin="round" stroke-miterlimit="10" fill="none"><path d="M21.302 23.324l-1.817-.753a9.663 9.663 0 0 0-.107-3.098l1.924-.797a.321.321 0 0 0 .174-.419l-.982-2.371a.321.321 0 0 0-.419-.174l-1.927.798a7.99 7.99 0 0 0-2.158-2.156l.799-1.929a.32.32 0 0 0-.174-.419l-2.371-.982a.32.32 0 0 0-.419.174l-.799 1.929a7.963 7.963 0 0 0-3.05-.002l-.798-1.927a.321.321 0 0 0-.419-.174l-2.371.982a.321.321 0 0 0-.174.419l.797 1.924a9.663 9.663 0 0 0-2.267 2.115l-1.817-.753a.32.32 0 0 0-.419.174l-.982 2.371a.32.32 0 0 0 .173.419l1.817.753a9.663 9.663 0 0 0 .107 3.098l-1.924.797a.321.321 0 0 0-.174.419l.982 2.371a.322.322 0 0 0 .419.174l1.927-.798a7.99 7.99 0 0 0 2.158 2.156l-.799 1.929a.32.32 0 0 0 .174.419l2.371.982a.32.32 0 0 0 .419-.174l.799-1.929a7.963 7.963 0 0 0 3.05.002l.798 1.927a.321.321 0 0 0 .419.174l2.371-.982a.322.322 0 0 0 .174-.419l-.797-1.924a9.663 9.663 0 0 0 2.267-2.115l1.817.753a.32.32 0 0 0 .419-.174l.982-2.371a.32.32 0 0 0-.173-.419z"/><circle cx="11.5" cy="21" r="2"/><path d="M29.596 11.814l-.864-.894a6.095 6.095 0 0 0 .718-1.823l1.316.022a.202.202 0 0 0 .206-.199L31 7.3a.202.202 0 0 0-.199-.206l-1.318-.022a5.037 5.037 0 0 0-.708-1.793l.949-.917a.203.203 0 0 0 .005-.287l-1.127-1.166a.203.203 0 0 0-.287-.005l-.949.917a5.037 5.037 0 0 0-1.768-.769l.022-1.318a.202.202 0 0 0-.199-.206L23.8 1.5a.202.202 0 0 0-.206.199l-.022 1.316a6.136 6.136 0 0 0-1.846.655l-.864-.894a.203.203 0 0 0-.287-.005l-1.166 1.127a.203.203 0 0 0-.005.287l.864.894a6.095 6.095 0 0 0-.718 1.823l-1.316-.022a.202.202 0 0 0-.206.199L18 8.7a.202.202 0 0 0 .199.206l1.318.022c.12.649.365 1.255.708 1.793l-.949.917a.203.203 0 0 0-.005.287l1.127 1.166c.078.08.206.083.287.005l.949-.917a5.037 5.037 0 0 0 1.768.769l-.022 1.318a.202.202 0 0 0 .199.206l1.621.028a.202.202 0 0 0 .206-.199l.022-1.316a6.082 6.082 0 0 0 1.846-.655l.864.894a.203.203 0 0 0 .287.005l1.166-1.127a.204.204 0 0 0 .005-.288z"/><circle cx="24.5" cy="8" r="1.5"/><path d="M15.028 7.641l-.598-.619a4.23 4.23 0 0 0 .497-1.262l.911.016a.141.141 0 0 0 .143-.138L16 4.515a.141.141 0 0 0-.138-.143l-.912-.015a3.492 3.492 0 0 0-.49-1.241l.657-.635a.14.14 0 0 0 .003-.198l-.78-.807a.14.14 0 0 0-.198-.003l-.657.635a3.482 3.482 0 0 0-1.224-.532l.016-.912a.141.141 0 0 0-.138-.143L11.015.5a.14.14 0 0 0-.143.138l-.016.911a4.218 4.218 0 0 0-1.278.454l-.597-.619a.14.14 0 0 0-.199-.003l-.807.78a.14.14 0 0 0-.003.198l.598.619a4.23 4.23 0 0 0-.497 1.262l-.911-.016a.14.14 0 0 0-.143.138L7 5.485a.141.141 0 0 0 .138.143l.912.015c.083.449.253.869.49 1.241l-.656.635a.14.14 0 0 0-.003.199l.78.807a.14.14 0 0 0 .198.003l.657-.635c.364.25.778.434 1.224.532l-.016.912a.141.141 0 0 0 .138.143l1.123.02a.141.141 0 0 0 .143-.138l.016-.911a4.218 4.218 0 0 0 1.278-.454l.598.619a.14.14 0 0 0 .198.003l.807-.78a.14.14 0 0 0 .003-.198z"/><circle cx="11.5" cy="5" r="1.5"/></g></svg>