<svg xmlns="http://www.w3.org/2000/svg" viewBox="0 0 32 32"><g stroke="#333" stroke-linecap="round" stroke-linejoin="round" stroke-miterlimit="10" fill="none"><path d="M31 29v-6h-6.057A12.926 12.926 0 0 0 27 16c0-7.18-5.82-13-13-13S1 8.82 1 16c0 7.123 5.731 12.901 12.833 12.992L31 29zm-2.5-6v5.999"/><circle cx="14" cy="16" r="6.5"/><circle cx="14" cy="16" r="1.5"/><path d="M14 9.5l-.898 5.304m1.054 2.711l.82 4.845m5.493-6.469l-5.303-.898m-2.712 1.054l-4.845.82m10.949-5.511l-4.385 3.115m-1.172 2.663l-2.846 4.005m8.459-.69l-3.116-4.385m-2.662-1.172L8.83 12.046"/></g></svg>