<svg xmlns="http://www.w3.org/2000/svg" viewBox="0 0 32 32"><path stroke="#333" stroke-width="2" stroke-linejoin="round" stroke-miterlimit="10" d="M5.275 15.706l3.958 3.777-.971 5.544L8 25a3 3 0 1 0 3 3c0-.364-.075-.709-.194-1.032L16 24.295l5.193 2.673A2.997 2.997 0 0 0 21 28a3 3 0 1 0 3-3l-.262.026-.971-5.544 3.958-3.777c.388.184.817.295 1.275.295a3 3 0 1 0-2.937-3.611l-4.881-.694-2.6-5.156A2.989 2.989 0 0 0 19 4a3 3 0 1 0-6 0 2.99 2.99 0 0 0 1.417 2.539l-2.6 5.156-4.881.694A2.999 2.999 0 0 0 1 13a3 3 0 0 0 3 3c.458 0 .887-.111 1.275-.294z" fill="none"/></svg>