<svg xmlns="http://www.w3.org/2000/svg" viewBox="0 0 32 32"><path d="M20 31h-8a1 1 0 0 1-1-1v-2a1 1 0 0 1 1-1h8a1 1 0 0 1 1 1v2a1 1 0 0 1-1 1zm-2-14.75V27m-4 0V16.281M16 18c-4.896-3.83-7.914-9.865-8-16C12.422.667 19.578.667 24 2c-.086 6.135-3.104 12.17-8 16m-.891-4.37a18.672 18.672 0 0 1-2.188-3.425 18.739 18.739 0 0 1-1.398-3.807 18.012 18.012 0 0 1-.376-1.992M23.771 5H28l-3 8h-4.375m-9.333 0H7L4 5h4.267" stroke="#333" stroke-linecap="round" stroke-linejoin="round" stroke-miterlimit="10" fill="none"/></svg>