<svg xmlns="http://www.w3.org/2000/svg" viewBox="0 0 32 32"><g stroke="#333" stroke-linecap="round" stroke-linejoin="round" stroke-miterlimit="10" fill="none"><path d="M16.52 2.031l.431 1.539 4.42 1.237m5.656 5.657l-4.419-1.237-1.237-4.42m0 0l1.175-1.175m4.481 6.832l1.238 4.42 1.704.477m-1.715-6.124l-1.227 1.227M8.718 4.065l.455 1.626 4.419 1.238m0 0l1.238 4.419 4.419 1.237m-2.475-8.838l4.42 1.237 1.237 4.419m-8.839-2.474l3.182-3.182m2.475 8.838l3.182-3.182m5.657 5.657l-3.182 3.182m-13.435-3.535l-4.419-1.238L5.814 9.05m8.839 2.475l4.42 1.237 1.237 4.42m-8.839-2.475l1.238 4.419 4.419 1.238m-5.657-5.657l3.182-3.182m2.475 8.839l1.237 4.419 4.42 1.237m-2.475-8.838l4.419 1.237 1.238 4.419m-8.839-2.474l3.182-3.182m7.578 6.194l-1.921-.538m-3.182 3.182l.533 1.904m-.533-1.904l3.182-3.182M8.524 4.183l.472 1.685m0 0L5.814 9.05m-1.785-.274l1.609.451 1.237 4.419m-3.182 3.182l3.182-3.182M18.189 24.96l-1.238-4.42-4.419-1.237M9.35 22.485l3.182-3.182m5.657 5.657l-3.182 3.182M4.754 21.424l-1.238-4.419-1.485-.416m2.723 4.835l4.419 1.238 1.237 4.419m-5.656-5.657l-1.125 1.125m11.663 7.42l-.462-1.65-4.42-1.238m0 0l-1.176 1.177"/><circle cx="16" cy="16" r="14"/></g></svg>