<svg xmlns="http://www.w3.org/2000/svg" viewBox="0 0 32 32"><g stroke="#333" stroke-width="2" stroke-miterlimit="10" fill="none"><path d="M3 13V8.385C3 5.423 5.25 3 8 3s5 2.423 5 5.385V13"/><circle cx="8" cy="17" r="1"/><path d="M8 18.071v2M15 20v-5a2 2 0 0 0-2-2H3a2 2 0 0 0-2 2v6a2 2 0 0 0 2 2h7m0 0v-1a2 2 0 0 1 2-2h3m-5 3v5a2 2 0 0 0 2 2h10a2 2 0 0 0 2-2v-6a2 2 0 0 0-2-2h-7m6 0v-4.615C21 12.423 23.25 10 26 10s5 2.423 5 5.385V17"/><circle cx="17" cy="24" r="1"/><path d="M17 25.071v2"/></g></svg>