<svg xmlns="http://www.w3.org/2000/svg" viewBox="0 0 32 32"><g stroke="#333" stroke-linecap="round" stroke-linejoin="round" stroke-miterlimit="10" fill="none"><path d="M31.103 5.203l-1.428-.134a3.794 3.794 0 0 0-.404-.998l.924-1.095a.395.395 0 0 0 0-.56l-.588-.588a.397.397 0 0 0-.561 0l-1.09.905a3.776 3.776 0 0 0-1.008-.425l-.12-1.412a.395.395 0 0 0-.395-.395H25.6a.395.395 0 0 0-.396.395l-.131 1.408c-.36.091-.699.234-1.009.419l-1.087-.917a.396.396 0 0 0-.56 0l-.588.589a.395.395 0 0 0 0 .56l.911 1.098c-.181.307-.32.642-.409.997l-1.434.122a.395.395 0 0 0-.395.396V6.4c0 .219.177.396.395.396l1.445.135c.091.347.229.673.408.973l-.942 1.119a.396.396 0 0 0 0 .561l.588.587a.395.395 0 0 0 .56 0l1.131-.938c.297.175.62.31.962.4l.125 1.471c0 .219.178.396.396.396h.83a.396.396 0 0 0 .396-.396l.137-1.466c.342-.087.665-.222.962-.395l1.128.95a.396.396 0 0 0 .559 0l.588-.588a.395.395 0 0 0 0-.56l-.931-1.123a3.72 3.72 0 0 0 .413-.971l1.449-.124a.396.396 0 0 0 .397-.396v-.832a.394.394 0 0 0-.395-.396z"/><circle cx="26" cy="6" r="1.5"/><path d="M22.206 18.407l-2.857-.268a7.534 7.534 0 0 0-.808-1.996l1.847-2.19a.792.792 0 0 0 0-1.121l-1.176-1.177a.792.792 0 0 0-1.121 0l-2.18 1.81a7.505 7.505 0 0 0-2.016-.849l-.24-2.824a.79.79 0 0 0-.79-.79h-1.666a.791.791 0 0 0-.792.79l-.263 2.815a7.528 7.528 0 0 0-2.018.838L5.952 11.61a.794.794 0 0 0-1.121 0l-1.177 1.179a.79.79 0 0 0 0 1.12l1.823 2.197a7.578 7.578 0 0 0-.818 1.994l-2.869.244a.79.79 0 0 0-.79.792v1.665a.79.79 0 0 0 .79.792l2.889.27a7.53 7.53 0 0 0 .816 1.947l-1.884 2.238a.791.791 0 0 0 0 1.122l1.176 1.175a.79.79 0 0 0 1.12 0l2.262-1.876c.594.35 1.24.62 1.923.799l.25 2.941c0 .438.356.792.793.792H12.8a.791.791 0 0 0 .792-.792l.274-2.932a7.572 7.572 0 0 0 1.925-.789l2.257 1.9a.791.791 0 0 0 1.119 0l1.176-1.177a.79.79 0 0 0 0-1.12l-1.862-2.246a7.558 7.558 0 0 0 .827-1.942l2.898-.248a.793.793 0 0 0 .794-.793v-1.663a.792.792 0 0 0-.794-.792z"/><circle cx="12" cy="20" r="3"/></g></svg>