<svg xmlns="http://www.w3.org/2000/svg" viewBox="0 0 32 32"><path d="M10.533 6.532c2.709 2.717 3.337 6.493 1.401 8.434-1.935 1.941-5.7 1.311-8.409-1.406C.816 10.843.188 7.067 2.124 5.126c1.934-1.94 5.699-1.311 8.409 1.406zm1.528 8.491l7.686 7.709m4.97 3.615l-1.366 1.37a.964.964 0 0 1-1.366 0l-2.732-2.739a.971.971 0 0 1 0-1.37l1.366-1.37a.964.964 0 0 1 1.366 0l2.731 2.74c.378.377.378.99.001 1.369zm-3.25-19.815c-2.709 2.717-3.337 6.493-1.402 8.434 1.935 1.941 5.7 1.311 8.409-1.406 2.709-2.717 3.337-6.493 1.401-8.434-1.933-1.94-5.698-1.311-8.408 1.406zm-1.528 8.491l-7.687 7.709m-4.969 3.615l1.366 1.37a.964.964 0 0 0 1.366 0l2.732-2.739a.971.971 0 0 0 0-1.37l-1.366-1.37a.964.964 0 0 0-1.366 0l-2.732 2.74a.97.97 0 0 0 0 1.369z" stroke="#333" stroke-width="2" stroke-linejoin="round" stroke-miterlimit="10" fill="none"/></svg>