<svg xmlns="http://www.w3.org/2000/svg" viewBox="0 0 32 32"><g stroke="#333" stroke-miterlimit="10" fill="none"><circle cx="16" cy="9" r="8"/><path d="M10.133 3.795c.54.278 1.032.636 1.459 1.057a5.875 5.875 0 0 1 1.274 1.865c.301.701.467 1.473.467 2.283s-.166 1.582-.467 2.284a5.875 5.875 0 0 1-1.274 1.865c-.415.41-.892.759-1.414 1.034M21.811 3.781a5.896 5.896 0 0 0-2.723 2.935A5.848 5.848 0 0 0 18.627 9a5.84 5.84 0 0 0 1.718 4.148c.443.443.956.815 1.521 1.099M16 1v15.911m7.956-7.956l-15.912.001M10.5 15c2.852 4.118 3.732 11.303 2.375 16M21.5 15c-2.852 4.118-3.732 11.303-2.375 16M10 31h12"/></g></svg>