<svg xmlns="http://www.w3.org/2000/svg" viewBox="0 0 32 32"><path d="M16 11l2.277 2.372 3.185-.752.646 3.239 3.082 1.108L24 20.045l2 2.614-2.648 1.94.283 3.292-3.265.185L18.846 31 16 29.372 13.154 31l-1.524-2.924-3.265-.185.283-3.292L6 22.659l2-2.614-1.19-3.078 3.082-1.108.646-3.239 3.185.752zm-4.531 1.748L10 1l6 3 6-3-1.469 11.748M16 4v7m0 10h2m-3 4h1a2 2 0 0 0 2-2v-4a2 2 0 0 0-2-2h-1" stroke="#333" stroke-width="2" stroke-linecap="round" stroke-linejoin="round" stroke-miterlimit="10" fill="none"/></svg>