<svg xmlns="http://www.w3.org/2000/svg" viewBox="0 0 32 32"><g stroke="#333" stroke-miterlimit="10" fill="none"><path d="M24.219 14.656C28.3 15.371 31 16.601 31 18c0 2.209-6.716 3-15 3-8.284 0-15-.791-15-3 0-1.399 2.699-2.629 6.781-3.344C10.142 14.242 12.963 14 16 14c3.036 0 5.858.242 8.219.656zm0 0A8.96 8.96 0 0 0 25 11a9 9 0 0 0-9-9 9 9 0 0 0-9 9 8.96 8.96 0 0 0 .781 3.656m7.241-10.083c.319-.048.646-.073.978-.073M9.5 11a6.496 6.496 0 0 1 .511-2.53 6.566 6.566 0 0 1 1.393-2.066 6.549 6.549 0 0 1 2.066-1.393"/><circle cx="16" cy="18" r=".5"/><circle cx="21" cy="18" r=".5"/><circle cx="11" cy="18" r=".5"/><path d="M4.5 23.5v5m4-5v5m-2-5v7m17-7v5m4-5v5m-2-5v7"/></g></svg>