<svg xmlns="http://www.w3.org/2000/svg" viewBox="0 0 32 32"><path d="M1 25l2.997 2 2.998-2 3 2s1.5-2 2.999-2l2.996 2 2.999-2 3 2s1.5-2 3-2l3.005 2 3.005-2M1 20l2.997 2 2.998-2 3 2s1.5-2 2.999-2l2.996 2 2.999-2 3 2s1.5-2 3-2l3.005 2 3.005-2M24 17V8m0 0a2.99 2.99 0 0 1 .879-2.122 2.998 2.998 0 0 1 3.289-.642c.359.152.682.371.954.643M15 17V8m0 0a2.99 2.99 0 0 1 .879-2.122 2.998 2.998 0 0 1 3.289-.642c.359.152.682.371.954.643M15 13h9" stroke="#333" stroke-width="2" stroke-linecap="round" stroke-linejoin="round" stroke-miterlimit="10" fill="none"/></svg>