<svg xmlns="http://www.w3.org/2000/svg" viewBox="0 0 32 32"><g stroke="#333" stroke-linecap="round" stroke-linejoin="round" stroke-miterlimit="10" fill="none"><path d="M28.877 26.496l-9.506 4.317a2.089 2.089 0 0 1-2.765-1.038l-4.317-9.506a2.089 2.089 0 0 1 1.038-2.765l9.506-4.317a2.089 2.089 0 0 1 2.765 1.038l4.317 9.506a2.089 2.089 0 0 1-1.038 2.765z"/><ellipse transform="rotate(-24.425 16.862 20.241)" cx="16.862" cy="20.241" rx="1.5" ry="1.5"/><ellipse transform="rotate(-24.425 24.806 23.223)" cx="24.806" cy="23.223" rx="1.5" ry="1.5"/><ellipse transform="rotate(-24.425 20.834 21.5)" cx="20.834" cy="21.5" rx="1.5" ry="1.5"/><path d="M14.523 25.333L2.888 20.686a3 3 0 0 1-1.673-3.899L6.407 3.786a3 3 0 0 1 3.899-1.673l13.001 5.192a3 3 0 0 1 1.673 3.899L24.281 13"/><ellipse transform="rotate(-68.229 10.309 7.498)" cx="10.309" cy="7.498" rx="1.5" ry="1.5"/><ellipse transform="rotate(-68.229 19.596 11.206)" cx="19.596" cy="11.207" rx="1.5" ry="1.5"/><ellipse transform="rotate(-68.229 14.952 9.352)" cx="14.952" cy="9.352" rx="1.5" ry="1.5"/><ellipse transform="rotate(-68.229 8.454 12.141)" cx="8.454" cy="12.141" rx="1.5" ry="1.5"/><ellipse transform="rotate(-68.229 13.098 13.995)" cx="13.098" cy="13.996" rx="1.5" ry="1.5"/><ellipse transform="rotate(-68.229 6.6 16.784)" cx="6.6" cy="16.785" rx="1.5" ry="1.5"/></g></svg>