<svg xmlns="http://www.w3.org/2000/svg" viewBox="0 0 32 32"><g stroke="#333" stroke-linecap="round" stroke-linejoin="round" stroke-miterlimit="10" fill="none"><path d="M13 6v9.364l-8.252 9.734C3.097 27.056 4.487 30 7.092 30h17.817c2.605 0 3.995-2.944 2.343-4.902L19 15.364V6m.093 0h-6.186A1.912 1.912 0 0 1 11 4.093v-.186C11 2.858 11.858 2 12.907 2h6.186C20.142 2 21 2.858 21 3.907v.186A1.912 1.912 0 0 1 19.093 6zM9.579 19.298c1.812-1.007 5.049-1.143 6.749.067.679.483 1.26 1.119 1.97 1.548a4.064 4.064 0 0 0 2.737.536c.934-.152 1.466-.512 2.115-1.249"/><circle cx="12" cy="25" r="2.5"/><circle cx="18" cy="24" r="1.5"/><path d="M13 8.5h2.5m-2.5 2h2.5m-2.5 2h2.5m-2.5 2h2.5"/></g></svg>