<svg xmlns="http://www.w3.org/2000/svg" viewBox="0 0 32 32"><g stroke="#333" stroke-miterlimit="10" fill="none"><circle cx="4" cy="29" r="2"/><circle cx="16" cy="29" r="2"/><circle cx="28" cy="29" r="2"/><path d="M9.479 23.521l-4.021 4.021m17.01-4.073l4.04 4.039M16 24.125V27m8.895-13.823C28.592 14.269 31 16.02 31 18c0 2.526-3.907 4.683-9.432 5.568A35.361 35.361 0 0 1 16 24c-1.969 0-3.845-.156-5.568-.432C4.907 22.683 1 20.526 1 18c0-1.98 2.408-3.731 6.105-4.823"/><path d="M7.105 13.177l.078.552c.099.523.335 1.212.542 1.766.081.215.224.401.42.52 4.353 2.647 11.356 2.647 15.709 0 .196-.119.34-.305.42-.52.208-.553.444-1.243.542-1.766l.078-.552c.063-.463.106-.933.106-1.415 0-.674-.063-1.332-.183-1.967a10.374 10.374 0 0 0-.524-1.832 9.991 9.991 0 0 0-.83-1.658 9.771 9.771 0 0 0-1.099-1.445 9.217 9.217 0 0 0-1.332-1.192c-.479-.351-.99-.653-1.529-.9s-1.103-.44-1.689-.57a8.368 8.368 0 0 0-3.628 0 8.414 8.414 0 0 0-1.689.569 8.799 8.799 0 0 0-1.529.9c-.479.351-.925.75-1.332 1.192a9.703 9.703 0 0 0-1.099 1.445 10.07 10.07 0 0 0-.83 1.658 10.374 10.374 0 0 0-.524 1.832C7.063 10.43 7 11.088 7 11.762c0 .482.043.952.105 1.415zm3.357-5.481a6.85 6.85 0 0 0-.451.903M16 4.5a6.356 6.356 0 0 0-2.53.527 6.452 6.452 0 0 0-1.621 1.019 6.78 6.78 0 0 0-.445.419"/><circle cx="16" cy="14" r=".5"/><circle cx="21" cy="13" r=".5"/><circle cx="11" cy="13" r=".5"/></g></svg>