<svg xmlns="http://www.w3.org/2000/svg" viewBox="0 0 32 32"><path d="M9 23a1 1 0 0 0 1-1V11.684c0-1.563.675-2.984 1.762-4.015A6.16 6.16 0 0 1 16 6c1.65 0 3.15.64 4.237 1.67C21.325 8.7 22 10.121 22 11.684V22a1 1 0 0 0 1 1h2a1 1 0 0 0 1-1V12c0-2.75-1.125-5.25-2.938-7.062A9.966 9.966 0 0 0 16 2a9.97 9.97 0 0 0-7.063 2.938A9.969 9.969 0 0 0 6 12v10a1 1 0 0 0 1 1h2zm-3-4.5h4m12 0h4M8 26v4m2-2H6m20 0h-4" stroke="#333" stroke-linecap="round" stroke-linejoin="round" stroke-miterlimit="10" fill="none"/></svg>