<svg xmlns="http://www.w3.org/2000/svg" viewBox="0 0 32 32"><g stroke="#333" stroke-linecap="round" stroke-linejoin="round" stroke-miterlimit="10" fill="none"><path d="M6.101 25.899C3.567 23.366 2 19.866 2 16s1.567-7.366 4.101-9.899"/><circle cx="16" cy="16" r="11"/><path d="M25.899 6.101C28.433 8.634 30 12.134 30 16s-1.567 7.366-4.101 9.899M14.5 13.5v6m0-6H16c.825 0 1.5.675 1.5 1.5s-.675 1.5-1.5 1.5h-1.5m5 3h1.2c.247 0 .484-.042.699-.118a1.86 1.86 0 0 0 .572-.322c.163-.136.295-.298.387-.477a1.271 1.271 0 0 0 0-1.165 1.53 1.53 0 0 0-.387-.477 1.86 1.86 0 0 0-.572-.322l-.798-.237a1.86 1.86 0 0 1-.572-.322 1.545 1.545 0 0 1-.387-.477A1.287 1.287 0 0 1 19.5 15c0-.206.051-.403.142-.582a1.53 1.53 0 0 1 .387-.477 1.86 1.86 0 0 1 .572-.322c.215-.076.451-.118.699-.118h1.2M9.5 16.5h3m-3 3h3m-3-6h3m-3 0v6"/></g></svg>