<svg xmlns="http://www.w3.org/2000/svg" viewBox="0 0 32 32"><g stroke="#333" stroke-width="2" stroke-linejoin="round" stroke-miterlimit="10" fill="none"><path d="M28.233 31l1.729-7.619c.19-.945-.431-1.888-1.352-2.243L21 18.241V10c0-1.105-.829-2-1.964-2h.01C17.91 8 17 8.895 17 10v8.687c0 1.092-.001 2.183-.075 3.272l-.263 3.171-2.915-3.599c-.584-.918-1.814-1.208-2.765-.65l-.006.005a1.939 1.939 0 0 0-.674 2.722L16.043 31h12.19z"/><circle cx="19" cy="3" r="2"/><circle cx="11" cy="3" r="2"/><circle cx="3" cy="3" r="2"/><circle cx="11" cy="11" r="2"/><circle cx="3" cy="11" r="2"/><circle cx="3" cy="19" r="2"/></g></svg>