<svg xmlns="http://www.w3.org/2000/svg" viewBox="0 0 32 32"><path stroke="#333" stroke-width="2" stroke-linecap="round" stroke-linejoin="round" stroke-miterlimit="10" d="M20.311 14.347c1.405 3.588.663 7.824-2.236 10.723-3.906 3.906-10.239 3.906-14.145 0-3.906-3.906-3.906-10.239 0-14.145 2.899-2.899 7.135-3.642 10.723-2.237a9.976 9.976 0 0 1 5.658 5.659zm-.021-.245l2.516-2.511L17.204 6l-2.562 2.558" fill="none"/><path fill="#333" d="M19.148 7.894l.32-.316c.208-.2.511-.476.88-.786.388-.318.759-.636 1.309-1.026.57-.391 1.321-.716 2.135-.731.4-.004.8.057 1.149.182.428.157.679.329.953.507.525.355.944.721 1.303 1.037a24.856 24.856 0 0 1 1.138 1.089l.011.012a.5.5 0 0 1-.681.731s-.471-.392-1.201-.917c-.365-.257-.8-.555-1.265-.798-.22-.118-.496-.237-.646-.268a1.845 1.845 0 0 0-.667-.031c-.425.06-.835.284-1.183.585-.36.321-.793.724-1.094 1.021-.317.311-.563.575-.73.763l-.261.302-.01.012a1 1 0 1 1-1.46-1.368z"/><path d="M30.558 6.434l-.701.694m-3.151 3.124l-.7.694m4.552 0l-.701-.694M31.5 8.69h-.99m-4.456 0h-.99m3.218 3.19v-.981m0-4.417V5.5M3.652 16.489a7.475 7.475 0 0 1 2.045-3.792 7.57 7.57 0 0 1 1.11-.916c.399-.27.825-.502 1.274-.691" stroke="#333" stroke-linecap="round" stroke-linejoin="round" stroke-miterlimit="10" fill="none"/></svg>