<svg xmlns="http://www.w3.org/2000/svg" viewBox="0 0 32 32"><path d="M23 31H9l1-5h12zm-2.963-5c-1.083-.618-1.836-2.675-2.002-3.811-.166-1.136.258-2.329 1.127-3.174.649-.63 1.505-1.053 2.265-1.575 2.618-1.797 4.006-4.729 4.415-7.649.408-2.921-.051-5.876-.511-8.791H6.669c-.46 2.915-.92 5.87-.511 8.791.409 2.921 1.797 5.853 4.414 7.649.76.522 1.616.945 2.265 1.575.869.844 1.293 2.038 1.127 3.174-.166 1.136-.919 3.193-2.002 3.811M8.094 15H8a7 7 0 0 1-7-7 3 3 0 0 1 3-3h2.063m19.875 0H28a3 3 0 0 1 3 3 7 7 0 0 1-7 7M9.618 5.5c-.356 2.376.102 4.839 1.303 7" stroke="#333" stroke-linecap="round" stroke-linejoin="round" stroke-miterlimit="10" fill="none"/></svg>