<svg xmlns="http://www.w3.org/2000/svg" viewBox="0 0 32 32"><path d="M10 31V16.213c0-3.978 1.58-7.794 4.393-10.607L16 4l1.607 1.607A14.999 14.999 0 0 1 22 16.213V31M10 19l-.803.714C7.79 20.964 7 22.66 7 24.428V31m18 0v-6.572c0-1.768-.79-3.464-2.197-4.714L22 19m-8 12v-6.572c0-1.768.527-3.464 1.464-4.714L16 19l.536.714C17.473 20.964 18 22.66 18 24.428V31M16 1v3m-4.869 6.5h9.738M7 28.5h3m12 0h2.781M14 28.5h4" stroke="#333" stroke-linecap="round" stroke-linejoin="round" stroke-miterlimit="10" fill="none"/></svg>