<svg xmlns="http://www.w3.org/2000/svg" viewBox="0 0 32 32"><path stroke="#333" stroke-width="2" stroke-linecap="round" stroke-linejoin="round" stroke-miterlimit="10" d="M6.121 6.121a3 3 0 1 0-4.242-4.242A3 3 0 0 0 6.121 6.12zm13.414 6.344A4.98 4.98 0 0 0 16 11c-1.381 0-2.631.56-3.536 1.465C11.56 13.369 11 14.619 11 16s.56 2.631 1.464 3.535A4.985 4.985 0 0 0 16 21a4.98 4.98 0 0 0 3.535-1.465C20.44 18.631 21 17.381 21 16s-.56-2.631-1.465-3.535zm4.637 11.707a4 4 0 1 0 5.656 5.656 4 4 0 0 0-5.656-5.656zm-16.344 0a4 4 0 1 0-5.656 5.656 4 4 0 0 0 5.656-5.656zM6.121 6.121l6.343 6.344m11.708 11.707l-4.637-4.637M7.828 24.172l4.636-4.637" fill="none"/></svg>