<svg xmlns="http://www.w3.org/2000/svg" viewBox="0 0 32 32"><path d="M24 30H4a2.003 2.003 0 0 1-1.844-1.222A2.012 2.012 0 0 1 2 28V10a1.994 1.994 0 0 1 1.222-1.843A1.98 1.98 0 0 1 4 8h16.5l5.5 5v15a1.994 1.994 0 0 1-1.222 1.843A1.994 1.994 0 0 1 24 30zM5 8V6a3 3 0 0 1 3-3h4a3 3 0 0 1 3 3v2m9.709 3.73l1.144-1.144A1.999 1.999 0 0 1 27.267 10H28a1 1 0 0 0 1-1V7a1 1 0 0 0-1-1h-1.319c-.796 0-1.559.316-2.121.879l-2.476 2.476M6 26l16-12m0 12L6 14" stroke="#333" stroke-width="2" stroke-linecap="round" stroke-linejoin="round" stroke-miterlimit="10" fill="none"/></svg>