<svg xmlns="http://www.w3.org/2000/svg" viewBox="0 0 32 32"><g stroke="#333" stroke-width="2" stroke-linecap="round" stroke-linejoin="round" stroke-miterlimit="10" fill="none"><circle cx="16" cy="16" r="4"/><path d="M13.941 24.81C9.962 23.873 7 20.284 7 16c0-4.997 4.029-9.048 9-9.048s9 4.051 9 9.048c0 4.282-2.959 7.869-6.933 8.808M28.479 7.674A14.927 14.927 0 0 1 31 16c0 8.284-6.716 15-15 15S1 24.284 1 16 7.716 1 16 1c3.08 0 5.943.928 8.324 2.52"/><circle cx="16" cy="25" r="2"/><circle cx="27" cy="5" r="3"/></g></svg>