<svg xmlns="http://www.w3.org/2000/svg" viewBox="0 0 32 32"><circle stroke="#333" stroke-width="2" stroke-linecap="round" stroke-miterlimit="10" cx="20" cy="20" r="11" fill="none"/><path stroke="#333" stroke-linecap="round" stroke-miterlimit="10" d="M16.787 12.398a8.254 8.254 0 0 0-4.389 4.389" fill="none"/><circle stroke="#333" stroke-linecap="round" stroke-miterlimit="10" cx="24" cy="24" r="1.5" fill="none"/><circle stroke="#333" stroke-linecap="round" stroke-miterlimit="10" cx="22" cy="19" r="1.5" fill="none"/><circle stroke="#333" stroke-linecap="round" stroke-miterlimit="10" cx="27" cy="21" r="1.5" fill="none"/><path stroke="#333" stroke-linecap="round" stroke-linejoin="round" stroke-miterlimit="10" d="M8 12.5H4m5.25 3h-6.5" fill="none"/><path stroke="#333" stroke-width="2" stroke-linecap="round" stroke-linejoin="round" stroke-miterlimit="10" d="M10.533 25.715c-.497 2.034-1.322 3.843-2.132 5.285H3.599C2.317 28.72 1 25.521 1 21.969c0-2.492.868-4.812 1.825-6.762.565-1.149 1.641-3.802 1.705-3.935.293-.604.448-1.372.409-1.926-.119-1.672-1.775-2.897-1.887-4.569a2.603 2.603 0 0 1 .671-1.918c1.064-1.146 3.491-1.145 4.554 0 .468.504.718 1.219.671 1.918-.113 1.672-1.768 2.897-1.887 4.569-.04.565.103 1.329.395 1.927.067.138 1.122 2.729 1.672 3.84.164.331.326.672.481 1.024" fill="none"/></svg>