<svg xmlns="http://www.w3.org/2000/svg" viewBox="0 0 32 32"><g stroke="#333" stroke-linecap="round" stroke-linejoin="round" stroke-miterlimit="10" fill="none"><path d="M25 31H7a2 2 0 0 1-2-2V3a2 2 0 0 1 2-2h18a2 2 0 0 1 2 2v26a2 2 0 0 1-2 2z"/><circle cx="10" cy="6" r="1.5"/><circle cx="22" cy="26" r="1.5"/><path d="M19.445 13.545c.028-.179.055-.358.055-.545a3.5 3.5 0 1 0-7 0c0 .187.027.366.055.545A3.488 3.488 0 0 0 9.5 17a3.5 3.5 0 0 0 3.5 3.5c.873 0 1.662-.329 2.272-.86L14.5 23.5h3l-.772-3.86c.61.531 1.398.86 2.272.86a3.5 3.5 0 0 0 3.5-3.5 3.489 3.489 0 0 0-3.055-3.455z"/></g></svg>