<svg xmlns="http://www.w3.org/2000/svg" viewBox="0 0 32 32"><g stroke="#333" stroke-linecap="round" stroke-linejoin="round" stroke-miterlimit="10" fill="none"><path d="M7 26.5h18M11 14h10M17.768 3.917C18.554 5.062 19.009 6.525 19 8c1.33-1.075 2.356-.671 4 0-1.653 1.193-3.143 2.8-3.753 4.785-.286.931-.295 1.919-.292 2.885.002.881.077 1.76.177 2.635.236 2.072.772 4.325 2.15 5.955C22.222 25.372 23.539 26 25 26v5H7v-5c1.461 0 2.778-.628 3.719-1.741 1.378-1.63 1.913-3.883 2.15-5.955.16-1.4.306-2.884.122-4.303-.102-.789-.306-1.558-.665-2.281a8.907 8.907 0 0 0-1.352-1.963 11.41 11.41 0 0 0-.923-.917C9.951 8.752 9.077 7.947 9 8c1.644-.671 2.67-1.075 4 0-.009-1.475.446-2.938 1.232-4.083"/><path d="M14.232 3.917A1.993 1.993 0 0 0 16 5c.772 0 1.434-.442 1.768-1.083.143-.276.232-.585.232-.917a2 2 0 1 0-4 0c0 .332.089.641.232.917z"/></g></svg>