<svg xmlns="http://www.w3.org/2000/svg" viewBox="0 0 32 32"><circle stroke="#333" stroke-width="2" stroke-linecap="round" stroke-miterlimit="10" cx="16" cy="16" r="14" fill="none"/><path d="M28.004 8.511c-1.415 5.197-6.811 8.417-11.885 7.333-1.437-5.079-6.928-8.41-12.124-7.032M18 30c-3.881-3.205-4.849-9.748-1.88-14.156m3.626.073A11.542 11.542 0 0 0 8.197 4.368m16.236 9.473c0-5.961-4.404-10.884-10.139-11.696m.363 18.339c6.035 2.082 12.603-1.116 14.685-7.151M15.09 25.591c5.635 1.944 11.725-.613 14.363-5.77m-15.53-7.9c-5.222 3.672-6.127 11.899-2.455 17.121M9.53 9.281C4.654 12.71 2.781 20.01 5.415 25.168" stroke="#333" stroke-linecap="round" stroke-miterlimit="10" fill="none"/></svg>