<svg xmlns="http://www.w3.org/2000/svg" viewBox="0 0 32 32"><path d="M31 20.374c-8.291 6.169-21.709 6.169-30 0L6.137 7c.616.241 1.244.458 1.883.651a26.938 26.938 0 0 0 3.931.867A28.274 28.274 0 0 0 16 8.807a28.723 28.723 0 0 0 4.051-.289 26.495 26.495 0 0 0 3.931-.867c.638-.193 1.267-.41 1.882-.651L31 20.374zM20.649 8.498l-.924 2.307 1.714.148-1.423 1.614 2.101.541-1.675 1.25 2.539.625-1.493 1.782 1.688.095-.51 1.061M5.603 22.902l2.585-.723a4.16 4.16 0 0 0-1.453-1.964l1.923.486a2.354 2.354 0 0 0-1.073-1.787l1.858-.018-1.336-1.665h1.666l-.824-1.008 1.403.02-.293-.766" stroke="#333" stroke-linecap="round" stroke-linejoin="round" stroke-miterlimit="10" fill="none"/></svg>