<svg xmlns="http://www.w3.org/2000/svg" viewBox="0 0 32 32"><path d="M9 26h12m0 0l4-5m0 0h3m0 0v2m0 0h3m-3-10h3m0 10V13m-3 0v2m-3-2v2m3 0h-3m0-2h-2m0 0l-3-3m0 0h-4m-3 0H9m7 0V6m-3 4V6m-3 0h9M9 10l-2 3m0 9l2 4M7 13H4m3 9H4m0-9v9m0-5H1m0 5v-9m17.547 6.569c.964-.963 1.187-2.387.713-3.638l-2.178 2.176a.504.504 0 0 1-.712-.02l-1.465-1.462a.504.504 0 0 1-.021-.711l2.178-2.176c-1.49-.562-3.226-.138-4.136 1.342-.544.885-.613 2.019-.228 3.019L10.5 20.316l2.16 2.184 2.24-2.212c1.253.475 2.683.245 3.647-.719z" stroke="#333" stroke-linecap="round" stroke-linejoin="round" stroke-miterlimit="10" fill="none"/></svg>