<svg xmlns="http://www.w3.org/2000/svg" viewBox="0 0 32 32"><g stroke="#333" stroke-linecap="round" stroke-linejoin="round" stroke-miterlimit="10" fill="none"><path d="M.97 8h30.061v16H.97zM16 8v15.75"/><circle cx="16" cy="16" r="2.5"/><path d="M1 10.5h3.156c2.939 0 5.344 2.405 5.344 5.344v.313c0 2.939-2.405 5.344-5.344 5.344H1M31 10.5h-3.156c-2.939 0-5.344 2.405-5.344 5.344v.313c0 2.939 2.405 5.344 5.344 5.344H31M6 14.5a84.386 84.386 0 0 0-2.838-.735l-.837-.207L1 13.219m0 5.562c1.583-.406 3.418-.87 5-1.281m0 0a1.5 1.5 0 1 1 .001-3.001A1.5 1.5 0 0 1 6 17.5m0-3v3m20-3a83.767 83.767 0 0 1 2.838-.735l.837-.207 1.325-.34m0 5.563c-1.583-.406-3.419-.87-5-1.281m0 0a1.5 1.5 0 1 0-.001-3.001A1.5 1.5 0 0 0 26 17.5m0-3v3"/></g></svg>