<svg xmlns="http://www.w3.org/2000/svg" viewBox="0 0 1198.679 4.673"><path stroke="#000" stroke-miterlimit="10" d="M.339.38l3.192 2.944c1.202 1.131 3.168 1.131 4.37 0l2.008-1.889c1.202-1.131 3.168-1.131 4.37 0l2.008 1.889c1.202 1.131 3.169 1.131 4.371 0l2.009-1.889c1.202-1.13 3.169-1.131 4.371 0l2.01 1.89c1.202 1.13 3.169 1.13 4.372 0l2.011-1.891c1.202-1.13 3.169-1.13 4.372 0l2.01 1.89c1.202 1.13 3.169 1.13 4.371 0l2.009-1.889c1.202-1.13 3.169-1.13 4.371 0l2.008 1.889c1.202 1.13 3.169 1.13 4.37 0l2.008-1.889c1.202-1.131 3.168-1.131 4.37 0l2.008 1.889c1.202 1.131 3.168 1.131 4.37 0l2.008-1.889c1.202-1.131 3.168-1.131 4.37 0l2.009 1.889c1.202 1.13 3.169 1.131 4.371 0l2.009-1.89c1.202-1.13 3.169-1.13 4.371 0l2.01 1.89c1.202 1.13 3.169 1.13 4.372 0l2.012-1.891c1.202-1.13 3.17-1.13 4.372 0l2.01 1.89c1.202 1.13 3.169 1.13 4.371 0l2.009-1.89c1.202-1.13 3.169-1.13 4.371 0l2.009 1.889c1.202 1.13 3.169 1.13 4.371 0l2.009-1.889c1.202-1.13 3.169-1.13 4.371 0l2.009 1.889c1.202 1.13 3.169 1.131 4.371 0l2.009-1.89c1.202-1.13 3.169-1.13 4.371 0l2.01 1.89c1.202 1.13 3.169 1.13 4.372 0l2.011-1.891c1.202-1.13 3.17-1.13 4.372 0l2.011 1.89c1.202 1.13 3.169 1.13 4.371 0l2.01-1.89c1.202-1.13 3.169-1.13 4.371 0l2.009 1.89c1.202 1.13 3.169 1.13 4.371 0l2.009-1.889c1.202-1.13 3.169-1.13 4.371 0l2.009 1.89c1.202 1.13 3.169 1.13 4.371 0l2.01-1.89c1.202-1.13 3.169-1.13 4.372 0l2.012 1.891c1.202 1.13 3.17 1.13 4.372 0l2.011-1.891c1.202-1.13 3.169-1.13 4.371 0l2.01 1.89c1.202 1.13 3.169 1.13 4.371 0l2.01-1.89c1.202-1.13 3.169-1.13 4.371 0l2.01 1.89c1.202 1.13 3.169 1.13 4.371 0l2.01-1.89c1.202-1.13 3.169-1.13 4.372 0l2.012 1.891c1.202 1.13 3.17 1.13 4.372 0l2.011-1.891c1.202-1.13 3.169-1.13 4.372 0l2.01 1.89c1.202 1.13 3.169 1.13 4.371 0l2.01-1.89c1.202-1.13 3.169-1.13 4.371 0l2.01 1.89c1.202 1.13 3.169 1.13 4.372 0l2.011-1.891c1.202-1.13 3.17-1.13 4.372 0l2.012 1.891c1.202 1.13 3.17 1.13 4.372 0l2.011-1.89c1.202-1.13 3.169-1.13 4.371 0l2.01 1.89c1.202 1.13 3.169 1.13 4.372 0l2.011-1.89c1.202-1.13 3.17-1.13 4.372 0l2.012 1.891c1.202 1.13 3.17 1.13 4.372 0l2.011-1.891c1.202-1.13 3.169-1.13 4.372 0l2.011 1.89c1.202 1.13 3.169 1.13 4.372 0l2.011-1.89c1.202-1.13 3.17-1.13 4.372 0l2.013 1.891c1.202 1.13 3.17 1.13 4.372 0l2.011-1.891c1.202-1.13 3.17-1.13 4.372 0l2.011 1.89c1.202 1.13 3.17 1.13 4.372 0l2.012-1.891c1.202-1.13 3.17-1.13 4.372 0l2.012 1.891c1.202 1.13 3.17 1.13 4.372 0l2.011-1.891c1.202-1.13 3.17-1.13 4.372 0l2.012 1.891c1.202 1.13 3.17 1.13 4.372 0l2.012-1.891c1.202-1.13 3.17-1.13 4.372 0l2.011 1.891c1.202 1.13 3.17 1.13 4.372 0l2.012-1.891c1.202-1.13 3.17-1.13 4.372 0l2.012 1.891c1.202 1.13 3.17 1.13 4.372 0l2.012-1.891c1.202-1.13 3.169-1.13 4.371.001l2.008 1.889c1.202 1.131 3.169 1.131 4.371 0l2.01-1.89c1.202-1.13 3.169-1.131 4.372-.001l2.013 1.891c1.202 1.13 3.17 1.129 4.372-.001l2.01-1.89c1.202-1.13 3.169-1.13 4.371 0l2.009 1.889c1.202 1.13 3.169 1.131 4.371 0l2.011-1.89c1.202-1.13 3.17-1.13 4.372 0l2.012 1.891c1.202 1.13 3.17 1.13 4.372-.001l2.01-1.89c1.202-1.13 3.169-1.13 4.371 0l2.011 1.89c1.202 1.13 3.17 1.13 4.372 0l2.013-1.891c1.202-1.13 3.17-1.13 4.372 0l2.011 1.89c1.202 1.13 3.17 1.13 4.372.001l2.013-1.891c1.202-1.13 3.17-1.13 4.372 0l2.012 1.891c1.202 1.13 3.17 1.13 4.372 0l2.013-1.891c1.202-1.13 3.17-1.13 4.372 0l2.012 1.891c1.202 1.13 3.17 1.13 4.373 0l2.014-1.892c1.203-1.13 3.17-1.13 4.373 0l2.013 1.891c1.202 1.13 3.17 1.13 4.373 0l2.014-1.892c1.203-1.13 3.17-1.13 4.373 0l2.014 1.892c1.203 1.13 3.171 1.13 4.373 0l2.014-1.892c1.203-1.13 3.17-1.13 4.373 0l2.014 1.892c1.203 1.13 3.17 1.13 4.373 0l2.014-1.892c1.203-1.13 3.17-1.129 4.372.001l2.01 1.89c1.202 1.13 3.169 1.13 4.372.001l2.013-1.891c1.202-1.13 3.17-1.13 4.373 0l2.014 1.892c1.203 1.13 3.171 1.13 4.373 0l2.014-1.892c1.203-1.13 3.171-1.13 4.373 0l2.015 1.892c1.203 1.13 3.171 1.13 4.374 0l2.016-1.893c1.203-1.129 3.171-1.129 4.373.001l2.013 1.892c1.203 1.13 3.171 1.13 4.374.001l2.017-1.893c1.203-1.129 3.172-1.13 4.375-.001l2.02 1.895c1.203 1.129 3.173 1.129 4.376 0l2.02-1.895c1.203-1.129 3.171-1.127 4.373.003l2.007 1.889c1.202 1.131 3.168 1.131 4.37 0l2.008-1.889c1.202-1.131 3.168-1.131 4.37 0l2.008 1.889c1.202 1.131 3.169 1.131 4.371 0l2.009-1.889c1.202-1.13 3.169-1.131 4.371 0l2.01 1.89c1.202 1.13 3.169 1.13 4.372 0l2.011-1.891c1.202-1.13 3.169-1.13 4.372 0l2.01 1.89c1.202 1.13 3.169 1.13 4.371 0l2.009-1.889c1.202-1.13 3.169-1.13 4.371 0l2.008 1.889c1.202 1.13 3.169 1.13 4.37 0l2.008-1.889c1.202-1.131 3.168-1.131 4.37 0l2.008 1.889c1.202 1.131 3.168 1.131 4.37 0l2.008-1.889c1.202-1.131 3.169-1.131 4.37 0l2.008 1.889c1.202 1.13 3.169 1.131 4.371 0l2.009-1.89c1.202-1.13 3.169-1.13 4.371 0l2.01 1.89c1.202 1.13 3.169 1.13 4.372 0l2.012-1.891c1.202-1.13 3.169-1.13 4.372 0l2.01 1.89c1.202 1.13 3.169 1.13 4.371 0l2.009-1.89c1.202-1.13 3.169-1.13 4.371 0l2.009 1.889c1.202 1.13 3.169 1.13 4.371 0l2.009-1.889c1.202-1.13 3.169-1.13 4.371 0l2.009 1.889c1.202 1.13 3.169 1.131 4.371 0l2.009-1.89c1.202-1.13 3.169-1.13 4.371 0l2.01 1.89c1.202 1.13 3.169 1.13 4.372 0l2.011-1.891c1.202-1.13 3.17-1.13 4.372 0l2.011 1.89c1.202 1.13 3.169 1.13 4.371 0l2.01-1.89c1.202-1.13 3.169-1.13 4.371 0l2.009 1.89c1.202 1.13 3.169 1.13 4.371 0l2.009-1.889c1.202-1.13 3.169-1.13 4.371 0l2.009 1.89c1.202 1.13 3.169 1.13 4.371 0l2.01-1.89c1.202-1.13 3.169-1.13 4.372 0l2.012 1.891c1.202 1.13 3.17 1.13 4.372 0l2.011-1.891c1.202-1.13 3.169-1.13 4.371 0l2.01 1.89c1.202 1.13 3.169 1.13 4.371 0l2.01-1.89c1.202-1.13 3.169-1.13 4.371 0l2.01 1.89c1.202 1.13 3.169 1.13 4.371 0l2.01-1.89c1.202-1.13 3.169-1.13 4.372 0l2.012 1.891c1.202 1.13 3.17 1.13 4.372 0l2.011-1.891c1.202-1.13 3.169-1.13 4.372 0l2.01 1.89c1.202 1.13 3.169 1.13 4.371 0l2.01-1.89c1.202-1.13 3.169-1.13 4.371 0l2.01 1.89c1.202 1.13 3.169 1.13 4.372 0l2.011-1.891c1.202-1.13 3.17-1.13 4.372 0l2.012 1.891c1.202 1.13 3.17 1.13 4.372 0l2.011-1.89c1.202-1.13 3.169-1.13 4.371 0l2.01 1.89c1.202 1.13 3.169 1.13 4.372 0l2.011-1.89c1.202-1.13 3.17-1.13 4.372 0l2.012 1.891c1.202 1.13 3.17 1.13 4.372 0l2.011-1.891c1.202-1.13 3.169-1.13 4.372 0l2.011 1.89c1.202 1.13 3.169 1.13 4.372 0l2.011-1.89c1.202-1.13 3.17-1.13 4.372 0l2.013 1.891c1.202 1.13 3.17 1.13 4.372 0l2.011-1.891c1.202-1.13 3.17-1.13 4.372 0l2.011 1.89c1.202 1.13 3.17 1.13 4.372 0l2.012-1.891c1.202-1.13 3.17-1.13 4.372 0l2.012 1.891c1.202 1.13 3.17 1.13 4.372 0l2.011-1.891c1.202-1.13 3.17-1.13 4.372 0l2.012 1.891c1.202 1.13 3.17 1.13 4.372 0l2.012-1.891c1.202-1.13 3.17-1.13 4.372 0l2.011 1.891c1.202 1.13 3.17 1.13 4.372 0l2.012-1.891c1.202-1.13 3.17-1.13 4.372 0l2.012 1.891c1.202 1.13 3.17 1.13 4.372 0l2.012-1.891c1.202-1.13 3.169-1.13 4.371.001l2.008 1.889c1.202 1.131 3.169 1.131 4.371 0l2.01-1.89c1.202-1.13 3.169-1.131 4.372-.001l2.013 1.891c1.202 1.13 3.17 1.129 4.372-.001l2.01-1.89c1.202-1.13 3.169-1.13 4.371 0l2.009 1.889c1.202 1.13 3.169 1.131 4.371 0l2.011-1.89c1.202-1.13 3.17-1.13 4.372 0l2.012 1.891c1.202 1.13 3.17 1.13 4.372-.001l2.01-1.89c1.202-1.13 3.169-1.13 4.371 0l2.011 1.89c1.202 1.13 3.17 1.13 4.372 0l2.013-1.891c1.202-1.13 3.17-1.13 4.372 0l2.011 1.89c1.202 1.13 3.17 1.13 4.372.001l2.013-1.891c1.203-1.13 3.17-1.13 4.372 0l2.012 1.891c1.202 1.13 3.17 1.13 4.372 0l2.013-1.891c1.202-1.13 3.17-1.13 4.372 0l2.012 1.891c1.202 1.13 3.17 1.13 4.373 0l2.014-1.892c1.203-1.13 3.17-1.13 4.373 0l2.012 1.891c1.202 1.13 3.17 1.13 4.373 0l2.014-1.892c1.203-1.13 3.17-1.13 4.373 0l2.014 1.892c1.203 1.13 3.171 1.13 4.373 0l2.014-1.892c1.203-1.13 3.17-1.13 4.373 0l2.014 1.892c1.203 1.13 3.171 1.13 4.373 0l2.014-1.892c1.203-1.13 3.17-1.129 4.372.001l2.01 1.89c1.202 1.13 3.17 1.13 4.372.001l2.013-1.891c1.202-1.13 3.17-1.13 4.373 0l2.015 1.892c1.203 1.13 3.171 1.13 4.373 0l2.014-1.892c1.203-1.13 3.171-1.13 4.373 0l2.015 1.892c1.203 1.13 3.171 1.13 4.374 0l2.016-1.893c1.203-1.129 3.171-1.129 4.373.001l2.013 1.892c1.203 1.13 3.171 1.13 4.374.001l2.017-1.893c1.203-1.129 3.172-1.13 4.375-.001l2.02 1.895c1.203 1.129 3.173 1.129 4.376 0l3.208-2.947" fill="none"/></svg>