<svg xmlns="http://www.w3.org/2000/svg" viewBox="0 0 32 32"><path d="M26.209 29L13.578 16.368a1.973 1.973 0 1 1 2.791-2.79L29 26.209M16.667 14.574c-.976.181-1.912 1.117-2.093 2.093m4.186 0c-.976.181-1.912 1.117-2.093 2.093m2.964-1.986A8.974 8.974 0 0 0 21 12a8.974 8.974 0 0 0-2.636-6.364A8.978 8.978 0 0 0 12 3a8.974 8.974 0 0 0-6.364 2.636A8.974 8.974 0 0 0 3 12a8.974 8.974 0 0 0 2.636 6.364A8.974 8.974 0 0 0 12 21a8.978 8.978 0 0 0 4.765-1.363M6.011 9.47A6.508 6.508 0 0 1 9.47 6.011" stroke="#333" stroke-linecap="round" stroke-linejoin="round" stroke-miterlimit="10" fill="none"/></svg>