<svg xmlns="http://www.w3.org/2000/svg" viewBox="0 0 32 32"><path d="M16.62 26.736c-.846.173-1.722.264-2.62.264s-1.774-.091-2.62-.264a12.873 12.873 0 0 1-4.648-1.957 13.028 13.028 0 0 1-5.468-8.159C1.091 15.774 1 14.898 1 14s.091-1.774.264-2.62a12.952 12.952 0 0 1 3.544-6.572A13.035 13.035 0 0 1 8.94 2.021 12.969 12.969 0 0 1 14 1a12.896 12.896 0 0 1 7.268 2.221 13.028 13.028 0 0 1 5.468 8.159c.173.846.264 1.722.264 2.62s-.091 1.774-.264 2.62M14 22a7.998 7.998 0 0 1-4.473-1.367 7.986 7.986 0 0 1-2.161-2.161 7.991 7.991 0 0 1-1.204-2.861 8.054 8.054 0 0 1 .466-4.725 7.96 7.96 0 0 1 1.715-2.543 8.049 8.049 0 0 1 2.543-1.715A7.936 7.936 0 0 1 14 6a8.009 8.009 0 0 1 4.473 1.366 7.986 7.986 0 0 1 2.161 2.161 7.991 7.991 0 0 1 1.204 2.861c.106.52.162 1.06.162 1.612m-.25 16.25L15 15l15.25 6.75L24 24zM24 24l7 7" stroke="#333" stroke-width="2" stroke-linecap="round" stroke-linejoin="round" stroke-miterlimit="10" fill="none"/></svg>