<svg xmlns="http://www.w3.org/2000/svg" viewBox="0 0 32 32"><g stroke="#333" stroke-width="2" stroke-linecap="round" stroke-linejoin="round" stroke-miterlimit="10" fill="none"><path d="M20.95 3.05A6.983 6.983 0 0 1 23 8a6.987 6.987 0 0 1-2.05 4.95A6.987 6.987 0 0 1 16 15a6.987 6.987 0 0 1-4.95-2.05A6.983 6.983 0 0 1 9 8a6.983 6.983 0 0 1 2.05-4.95m14.675 24.4A6.987 6.987 0 0 1 23 28a6.987 6.987 0 0 1-4.95-2.05A6.987 6.987 0 0 1 16 21a6.987 6.987 0 0 1 2.05-4.95A6.987 6.987 0 0 1 23 14a6.987 6.987 0 0 1 4.95 2.05 7.003 7.003 0 0 1 1.5 2.225M2 21a6.987 6.987 0 0 1 2.05-4.95A6.983 6.983 0 0 1 9 14a6.983 6.983 0 0 1 4.95 2.05A6.987 6.987 0 0 1 16 21a6.987 6.987 0 0 1-2.05 4.95A6.98 6.98 0 0 1 9 28"/><circle cx="16" cy="16" r="6"/></g></svg>