<svg xmlns="http://www.w3.org/2000/svg" viewBox="0 0 32 32"><g stroke="#333" stroke-linecap="round" stroke-linejoin="round" stroke-miterlimit="10" fill="none"><path d="M24.875 26h-18a3 3 0 0 1-3-3V5a3 3 0 0 1 3-3h18a3 3 0 0 1 3 3v18a3 3 0 0 1-3 3zm-21-6a3 3 0 0 1 3-3h18a3 3 0 0 1 3 3M3.75 18H1v-6h2.75m24.5 6H31v-6h-2.75M11 26v3c0 1.1-.9 2-2 2s-2-.9-2-2v-3m18 0v3c0 1.1-.9 2-2 2s-2-.9-2-2v-3"/><circle cx="8" cy="22" r="1.5"/><circle cx="24" cy="22" r="1.5"/><path d="M24 17v-6.255C24 9.781 23.211 9 22.238 9H9.761C8.789 9 8 9.781 8 10.745V17m4.5 6.5h7m-7-2h7m-7-2h7"/></g></svg>