<svg xmlns="http://www.w3.org/2000/svg" viewBox="0 0 32 32"><path stroke="#333" stroke-width="2" stroke-linecap="round" stroke-linejoin="round" stroke-miterlimit="10" d="M23 9V8c0-3.85-3.15-7-7-7S9 4.15 9 8v1h3V8c0-2.2 1.8-4 4-4s4 1.8 4 4v1.813c0 .732-.4 1.405-1.042 1.756L9 17v12a2 2 0 0 0 2 2h10a2 2 0 0 0 2-2V9" fill="none"/><path stroke="#333" stroke-linecap="round" stroke-linejoin="round" stroke-miterlimit="10" d="M9 23.5h14m-14-3h14" fill="none"/><circle stroke="#333" stroke-linecap="round" stroke-linejoin="round" stroke-miterlimit="10" cx="16" cy="27" r="1.5" fill="none"/></svg>