<svg xmlns="http://www.w3.org/2000/svg" viewBox="0 0 32 32"><path stroke="#333" stroke-width="2" stroke-linecap="round" stroke-linejoin="round" stroke-miterlimit="10" d="M6 18H5m1.535 10c-.277 0-.547-.11-.736-.312A14.04 14.04 0 0 1 2 18.059c0-3.882 1.567-7.397 4.1-9.941C8.634 5.574 12.134 4 16 4s7.366 1.574 9.899 4.118A14.043 14.043 0 0 1 30 18.059a14.04 14.04 0 0 1-3.799 9.629 1.008 1.008 0 0 1-.736.312H6.535z" fill="none"/><circle stroke="#333" stroke-width="2" stroke-linecap="round" stroke-linejoin="round" stroke-miterlimit="10" cx="16" cy="23" r="2" fill="none"/><path fill="#333" d="M16.746 20.84l6.9-6.193a.5.5 0 0 1 .707.707l-6.193 6.9a1 1 0 1 1-1.414-1.414z"/><path stroke="#333" stroke-width="2" stroke-linecap="round" stroke-linejoin="round" stroke-miterlimit="10" d="M16 7v1m11 10h-1M8.929 10.929l-.707-.707m14.849.707l.707-.707" fill="none"/></svg>