<svg xmlns="http://www.w3.org/2000/svg" viewBox="0 0 32 32"><g stroke="#333" stroke-width="2" stroke-linecap="round" stroke-linejoin="round" stroke-miterlimit="10" fill="none"><circle cx="14" cy="11" r="3"/><path d="M23.221 16.987C24.284 14.834 25 12.845 25 11.385 25 5.649 20.075 1 14 1S3 5.649 3 11.385C3 17.12 14 31 14 31s.938-1.184 2.262-2.997"/><path d="M16.262 28.003A6.964 6.964 0 0 1 15 24a7 7 0 0 1 7-7c.397 0 .784.041 1.163.104C26.474 17.659 29 20.531 29 24a7 7 0 0 1-7 7 6.989 6.989 0 0 1-5.738-2.997z"/></g><path fill="#333" d="M21.999 21l.708 2.292h2.291l-1.853 1.416.707 2.292-1.853-1.416L20.145 27l.708-2.292L19 23.292h2.291L21.999 21m2.998 2.292h.005M21.999 20a.999.999 0 0 0-.955.705l-.49 1.587H19a.998.998 0 0 0-.947.68.998.998 0 0 0 .34 1.115l1.299.993-.502 1.626a1 1 0 0 0 1.562 1.09l1.246-.952 1.246.952a.998.998 0 0 0 1.563-1.091l-.502-1.626 1.273-.973a.998.998 0 0 0-.576-1.814h-1.558l-.49-1.587a1 1 0 0 0-.955-.705z"/></svg>