<svg xmlns="http://www.w3.org/2000/svg" viewBox="0 0 32 32"><g stroke="#333" stroke-linecap="round" stroke-linejoin="round" stroke-miterlimit="10" fill="none"><path d="M16 29l7.5 2m0-18l7.5-2v18l-7.5 2m0-18l-.822-.219M8.5 13l.822-.219M8.5 13L1 11v18l7.5 2m7.5-2l-7.5 2m0-18v18m15-18v18M16 29v-6M9.322 12.781C8.533 11.18 8 9.699 8 8.615 8 4.41 11.582 1 16 1s8 3.41 8 7.615c0 1.084-.533 2.565-1.322 4.165m-13.356.001C11.594 17.392 16 23 16 23m0 0s4.406-5.608 6.678-10.219"/><ellipse cx="16" cy="8.857" rx="2.4" ry="2.357"/></g></svg>