<svg xmlns="http://www.w3.org/2000/svg" viewBox="0 0 32 32"><g stroke="#333" stroke-linecap="round" stroke-linejoin="round" stroke-miterlimit="10" fill="none"><path d="M27 26H5a2 2 0 0 1-2-2v-8a2 2 0 0 1 2-2h22a2 2 0 0 1 2 2v8a2 2 0 0 1-2 2zM5 14V6a2 2 0 0 1 2-2h18a2 2 0 0 1 2 2v8M20 4c0-1.657-1.791-3-4-3s-4 1.343-4 3m14 22v3c0 1.1-.9 2-2 2s-2-.9-2-2v-3m-12 0v3c0 1.1-.9 2-2 2s-2-.9-2-2v-3"/><circle cx="8" cy="19" r="2.5"/><circle cx="24" cy="19" r="2.5"/><path d="M10.5 25.917V22.5h11v3.417"/></g></svg>