<svg xmlns="http://www.w3.org/2000/svg" viewBox="0 0 32 32"><path d="M2.677 19.388c-.275-.539-.437-1.158-.544-1.761-.241-1.357-.191-2.823.463-4.029.968-1.785 3.097-2.647 5.089-2.596 1.592.041 3.463.158 4.834 1.081 4.653 3.133-2.905 8.019-5.587 8.709-.913.235-1.899.321-2.782-.013-.696-.262-1.158-.774-1.473-1.391zM27.43 16.5c.127-.614.101-1.278-.244-1.824-.511-.808-1.634-1.198-2.685-1.175M4.57 16.5c-.127-.614-.101-1.278.244-1.824.511-.808 1.634-1.198 2.686-1.175m21.823 5.887c.275-.539.437-1.158.544-1.761.241-1.357.191-2.823-.463-4.029-.968-1.785-3.097-2.647-5.089-2.596-1.592.041-3.462.158-4.834 1.081-4.653 3.133 2.905 8.019 5.587 8.709.913.235 1.899.321 2.782-.013.696-.262 1.158-.774 1.473-1.391zM13.587 13h4.825m-4.573 2.5h4.3M2 15H1m30 0h-1" stroke="#333" stroke-linecap="round" stroke-linejoin="round" stroke-miterlimit="10" fill="none"/></svg>