<svg xmlns="http://www.w3.org/2000/svg" viewBox="0 0 32 32"><g stroke="#333" stroke-linecap="round" stroke-linejoin="round" stroke-miterlimit="10" fill="none"><ellipse cx="8" cy="26" rx="6" ry="5"/><ellipse cx="24" cy="26" rx="6" ry="5"/><path d="M14 26V5c0-2.209-2.686-4-6-4S2 2.791 2 5v21m12-8.5c0-1.657-2.686-3-6-3s-6 1.343-6 3m12 2c0-1.657-2.686-3-6-3s-6 1.343-6 3m28-2c0-1.657-2.686-3-6-3s-6 1.343-6 3m12 2c0-1.657-2.686-3-6-3s-6 1.343-6 3m0 6.5V5c0-2.209 2.686-4 6-4s6 1.791 6 4v21M14 10h4m-4 3h4"/></g></svg>