<svg xmlns="http://www.w3.org/2000/svg" viewBox="0 0 32 32"><path stroke="#333" stroke-width="2" stroke-linecap="round" stroke-linejoin="round" stroke-miterlimit="10" d="M24 31H8l2-21h12z" fill="none"/><path stroke="#333" stroke-linecap="round" stroke-linejoin="round" stroke-miterlimit="10" d="M21.3 6.5H10.7" fill="none"/><path stroke="#333" stroke-width="2" stroke-linecap="round" stroke-linejoin="round" stroke-miterlimit="10" d="M11 10V6a5 5 0 0 1 10 0v4" fill="none"/><path stroke="#333" stroke-linecap="round" stroke-linejoin="round" stroke-miterlimit="10" d="M14.5 6.5v3.333m3-3.333v3.333M9.513 16.5h13" fill="none"/><path d="M8.5 4.5l-.46-.197m-1.52-.652l-3.8-1.628m-.76-.326L1.5 1.5m0 8l.46-.197m1.52-.652l3.8-1.628m.76-.326L8.5 6.5m15-2l.46-.197m1.52-.652l3.8-1.628m.76-.326l.46-.197m0 8l-.46-.197m-1.52-.652l-3.8-1.628m-.76-.326L23.5 6.5" stroke="#333" stroke-linecap="round" stroke-linejoin="round" fill="none"/><path stroke="#333" stroke-linecap="round" stroke-linejoin="round" stroke-miterlimit="10" d="M13.5 31v-4c0-1.375 1.125-2.5 2.5-2.5s2.5 1.125 2.5 2.5v4" fill="none"/></svg>