<svg xmlns="http://www.w3.org/2000/svg" viewBox="0 0 32 32"><g stroke="#333" stroke-linecap="round" stroke-miterlimit="10" fill="none"><circle cx="16" cy="16" r="10"/><path d="M9.089 13.081A7.52 7.52 0 0 1 13.08 9.09M16 1l2.368 3.095 3.372-1.953 1.004 3.765 3.863-.514-.514 3.863 3.765 1.004-1.953 3.372L31 16l-3.095 2.368 1.953 3.372-3.765 1.004.514 3.863-3.863-.514-1.004 3.765-3.372-1.953L16 31l-2.368-3.095-3.372 1.953-1.004-3.765-3.863.514.514-3.863-3.765-1.004 1.953-3.372L1 16l3.095-2.368-1.953-3.372 3.765-1.004-.514-3.863 3.863.514 1.004-3.765 3.372 1.953z"/></g></svg>