<svg xmlns="http://www.w3.org/2000/svg" viewBox="0 0 32 32"><g stroke="#333" stroke-width="2" stroke-linecap="round" stroke-linejoin="round" stroke-miterlimit="10" fill="none"><circle cx="16" cy="16" r="11"/><path d="M16 1v12m0 6v12m15-15H19m-6 0H1M26.607 5.393l-8.486 8.486m-4.242 4.242l-8.486 8.486m12.728-8.486l8.486 8.486M5.393 5.393l8.486 8.486M16 13a2.99 2.99 0 0 0-2.121.879M19 16c0 .828-.336 1.579-.879 2.121M13 16c0-.828.336-1.578.879-2.121M13 16c0 .828.336 1.579.879 2.121M19 16a2.99 2.99 0 0 0-.879-2.121M16 19a2.99 2.99 0 0 1-2.121-.879m4.242-4.242A2.989 2.989 0 0 0 16 13m0 6a2.99 2.99 0 0 0 2.121-.879"/></g></svg>