<svg xmlns="http://www.w3.org/2000/svg" viewBox="0 0 32 32"><g stroke="#333" stroke-linecap="round" stroke-linejoin="round" stroke-miterlimit="10" fill="none"><path d="M13 4a3.002 3.002 0 0 1 3.544-2.952 3.013 3.013 0 0 1 2.408 2.408 3.004 3.004 0 0 1-2.193 3.447c-.435.113-.759.471-.759.92V10M6.875 20H3.038c-1.041 0-1.432-1.34-.549-1.882l12.962-7.963a1.053 1.053 0 0 1 1.098 0l12.962 7.963c.883.542.492 1.882-.549 1.882h-3.899"/><path d="M24 31H8a1 1 0 0 1-1-1V20a1 1 0 0 1 1-1h16a1 1 0 0 1 1 1v10a1 1 0 0 1-1 1zM9.5 28.5h13"/></g></svg>