<svg xmlns="http://www.w3.org/2000/svg" viewBox="0 0 32 32"><g stroke="#333" stroke-linecap="round" stroke-linejoin="round" stroke-miterlimit="10" fill="none"><path d="M27.939 28H4.061c-1.29 0-2.263-1.138-2.025-2.369l2.318-12C4.536 12.686 5.387 12 6.379 12h19.243c.991 0 1.842.686 2.025 1.631l2.318 12c.237 1.231-.736 2.369-2.026 2.369zM14 12v-2c0-1.1.9-2 2-2s2 .9 2 2v2"/><path d="M17.938 9.355c3.13-.471 6.155-2.09 8.562-4.855m-21 0c2.4 2.757 5.414 4.374 8.535 4.851M13.5 14.5h5v7h-5zm-2 7h-5l1-7h4zm14 0h-5v-7h4z"/></g></svg>