<svg xmlns="http://www.w3.org/2000/svg" viewBox="0 0 32 32"><g stroke="#333" stroke-width="2" stroke-linecap="round" stroke-linejoin="round" stroke-miterlimit="10" fill="none"><circle cx="14" cy="11" r="3"/><path d="M23.221 16.987C24.284 14.834 25 12.845 25 11.385 25 5.649 20.075 1 14 1S3 5.649 3 11.385C3 17.12 14 31 14 31s.938-1.184 2.262-2.997"/><path d="M16.262 28.003A6.964 6.964 0 0 1 15 24a7 7 0 0 1 7-7c.397 0 .784.041 1.163.104C26.474 17.659 29 20.531 29 24a7 7 0 0 1-7 7 6.989 6.989 0 0 1-5.738-2.997zM25 22l-4.041 4L19 24.061"/></g></svg>