<svg xmlns="http://www.w3.org/2000/svg" viewBox="0 0 32 32"><path d="M11.477 25h18.042c.415 0 .815-.102 1.108-.397.293-.295.429-.737.352-1.145m-2.918-1.479h-11a5 5 0 0 1-5-5v-5a2 2 0 0 1 2-2h6c5.523 0 10 4.477 10 10a2 2 0 0 1-2 2zM12.406 19H6v-2l5.981-1.495M17 22.062v2.876m9-2.876v2.876M8.182 21.182a4.559 4.559 0 0 1-1.43.965 4.515 4.515 0 0 1-2.659.262 4.456 4.456 0 0 1-2.275-1.227 4.559 4.559 0 0 1-.965-1.43 4.515 4.515 0 0 1-.262-2.659 4.456 4.456 0 0 1 1.227-2.275A4.49 4.49 0 0 1 5 13.5a4.515 4.515 0 0 1 1.752.353m11.529-3.915L17 7H7m12.719 2.938L21 7h10m-1.656 9.5H20.5v-6.438" stroke="#333" stroke-linecap="round" stroke-linejoin="round" stroke-miterlimit="10" fill="none"/></svg>