<svg xmlns="http://www.w3.org/2000/svg" viewBox="0 0 32 32"><path d="M2 19C2 11.268 8.268 5 16 5s14 6.268 14 14M16 5v2m14 12h-2M4 19H2m23.899-9.899l-1.414 1.414m-16.97 0L6.1 9.101" stroke="#333" stroke-width="2" stroke-linecap="round" stroke-linejoin="round" stroke-miterlimit="10" fill="none"/><circle stroke="#333" stroke-width="2" stroke-linecap="round" stroke-linejoin="round" stroke-miterlimit="10" cx="16" cy="23" r="1" fill="none"/><path fill="#333" d="M15.594 23.914l-8.797-4.457a.5.5 0 0 1 .406-.914l9.203 3.543a1.002 1.002 0 1 1-.812 1.828z"/><path d="M28.5 22.5v4m0-4h2m-2 2h2m-29-2v4m0-4h2m-2 2h2m-2 2h2" stroke="#333" stroke-linecap="round" stroke-linejoin="round" stroke-miterlimit="10" fill="none"/></svg>