<svg xmlns="http://www.w3.org/2000/svg" viewBox="0 0 32 32"><circle stroke="#333" stroke-width="2" stroke-linecap="round" stroke-linejoin="round" stroke-miterlimit="10" cx="16" cy="16" r="14" fill="none"/><circle stroke="#333" stroke-width="2" stroke-linecap="round" stroke-linejoin="round" stroke-miterlimit="10" cx="16" cy="18" r="1" fill="none"/><path fill="#333" d="M15.485 17.139l6.756-4.068a.501.501 0 0 1 .569.823l-6.187 4.89a1.002 1.002 0 1 1-1.138-1.645z"/><path stroke="#333" stroke-width="2" stroke-linecap="round" stroke-linejoin="round" stroke-miterlimit="10" d="M16 5v2m11 9h-2M7 16H5m18.778-7.778l-1.414 1.414m-12.728 0L8.222 8.222" fill="none"/><path d="M22.5 19.5v4m0-4h2m-2 2h2m-16-2v4m0-4h2m-2 2h2m-2 2h2" stroke="#333" stroke-linecap="round" stroke-linejoin="round" stroke-miterlimit="10" fill="none"/></svg>