<svg xmlns="http://www.w3.org/2000/svg" viewBox="0 0 32 32"><g stroke="#333" stroke-linecap="round" stroke-linejoin="round" stroke-miterlimit="10" fill="none"><path d="M15.854 31c-1.1 0-2-.9-2-2v-8c0-1.1.9-2 2-2s2 .9 2 2v8c0 1.1-.9 2-2 2zm2.063-6H21a2 2 0 0 0 2-2v-9a6.997 6.997 0 0 0-4.156-6.392A1.4 1.4 0 0 0 19 7c0-1.105-1.343-2-3-2s-3 .895-3 2c0 .213.063.415.156.608A6.997 6.997 0 0 0 9 14v9a2 2 0 0 0 2 2h2.792M5 8h3m16 0h3"/><circle cx="7" cy="3" r="2"/><circle cx="25" cy="3" r="2"/><path d="M8.185 4.611l3.268 3.936M23.5 4.611l-3.152 3.82M9 15.5h13.906m-8.406-2h-3v-2l3 1zm6 0h-3v-1l3-1z"/></g></svg>