<svg xmlns="http://www.w3.org/2000/svg" viewBox="0 0 32 32"><g stroke="#333" stroke-linecap="round" stroke-linejoin="round" stroke-miterlimit="10" fill="none"><path d="M14 15c.888 0 1.567.836 1.345 1.696C14.556 19.743 11.692 22 8.28 22 4.259 22 1 18.866 1 15a7 7 0 0 1 7-7h12a7 7 0 0 1 7 7c0 3.866-3.259 7-7.28 7-3.412 0-6.277-2.257-7.065-5.304C12.432 15.836 13.111 15 14 15zM3.5 15c0-2.485 2.29-4.5 5.115-4.5"/><circle cx="14" cy="28" r="2"/><path d="M16 28h10a4 4 0 0 0 4-4V7m0-5v2m-4 11h5"/></g></svg>