<svg xmlns="http://www.w3.org/2000/svg" viewBox="0 0 32 32"><path d="M26.923 27.406c.561-2.344.457-4.792.811-7.181a43.371 43.371 0 0 1 1.079-5.125c.454-1.655 1.182-3.201 1.188-4.944.007-2.426-1.15-4.767-2.894-6.477-1.594-1.565-4.494-3.342-6.855-2.431-.152.059-.299.13-.439.214-1.769 1.071-1.789 4.078-1.812 5.843a17.767 17.767 0 0 0 .464 4.26c.325 1.39.88 2.684 1.126 4.092.326 1.865.407 3.77.243 5.655-.12 1.384-.381 2.774-.606 4.139-.224 1.352-.575 2.506.163 3.806 1.153 2.029 4.072 2.227 5.866.904.913-.673 1.379-1.598 1.64-2.652l.026-.103zm-8.319-15.448c.88-1.975 2.296-3.836 4.153-5.458 3.084 1.733 5.385 4.072 6.601 6.681M5.077 27.406c-.561-2.344-.457-4.792-.811-7.181A43.371 43.371 0 0 0 3.187 15.1C2.734 13.446 2.005 11.899 2 10.156 1.993 7.73 3.15 5.39 4.894 3.679 6.488 2.114 9.388.337 11.749 1.248c.152.059.3.13.439.214 1.769 1.071 1.789 4.078 1.811 5.843a17.767 17.767 0 0 1-.464 4.26c-.325 1.39-.88 2.684-1.126 4.092a21.868 21.868 0 0 0-.243 5.655c.12 1.384.381 2.774.606 4.139.224 1.352.575 2.506-.163 3.806-1.153 2.029-4.072 2.227-5.866.904-.913-.673-1.379-1.598-1.64-2.652l-.026-.103zm8.176-15.448C12.373 9.983 10.957 8.122 9.1 6.5c-3.083 1.733-5.384 4.072-6.6 6.681" stroke="#333" stroke-linecap="round" stroke-linejoin="round" stroke-miterlimit="10" fill="none"/></svg>