<svg xmlns="http://www.w3.org/2000/svg" viewBox="0 0 32 32"><g stroke="#333" stroke-miterlimit="10" fill="none"><path d="M28 28H4a3 3 0 0 1-3-3V11a3 3 0 0 1 3-3h24a3 3 0 0 1 3 3v14a3 3 0 0 1-3 3zM9 7.938V7a4 4 0 0 1 4-4h6a4 4 0 0 1 4 4v.906m3.5 4.753V8m0 9.962v9.871"/><path d="M22.038 19.5L20.5 14.727l6.462-2.227 1.538 4.773z"/><ellipse cx="11" cy="23" rx="3.5" ry="2.5"/><path d="M5.5 12.011V8m0 7.989v11.844m0-11.844c.419.316.935.511 1.5.511a2.5 2.5 0 1 0 0-5c-.565 0-1.081.195-1.5.511-.604.456-1 1.174-1 1.989s.396 1.532 1 1.989z"/></g></svg>