<svg xmlns="http://www.w3.org/2000/svg" viewBox="0 0 32 32"><path d="M8.734 26.431a2.24 2.24 0 0 1-3.047-.113l-.003-.003-.002-.002a2.24 2.24 0 0 1-.113-3.047l7.852-9.108 9.947-9.947c.61-.61 1.41-.916 2.21-.916s1.6.305 2.211.916a3.12 3.12 0 0 1 .916 2.211c0 .8-.305 1.6-.916 2.211l-9.947 9.947-9.108 7.851zm-3.173-3.185L2 19.684 3.084 18.6l5.133 1.407m.537 6.432L12.316 30l1.084-1.084-1.407-5.133m7.691-7.046l7.553 9.026L30 24.105l-5.158-12.526m-9.579.737L6.237 4.763 7.895 2l12.526 5.158" stroke="#333" stroke-width="2" stroke-linecap="round" stroke-linejoin="round" stroke-miterlimit="10" fill="none"/></svg>