<svg xmlns="http://www.w3.org/2000/svg" viewBox="0 0 32 32"><path d="M6.022 26.524C.679 21.352.656 12.989 5.97 7.844s13.954-5.123 19.296.049L6.022 26.524zm4.373-4.362a13.41 13.41 0 0 1-.769-.688C5.753 17.725 4.79 12.188 6.681 7.366m14.08 4.761a13.068 13.068 0 0 0-.711-.744c-3.873-3.749-9.593-4.681-14.574-2.85m23.05 14.935l.806.78c.443.429.666.994.668 1.558a2.147 2.147 0 0 1-.659 1.555 2.292 2.292 0 0 1-1.606.639 2.318 2.318 0 0 1-1.61-.646l-8.868-8.584-1.612-1.561M4 6l1.971 1.844" stroke="#333" stroke-linecap="round" stroke-linejoin="round" stroke-miterlimit="10" fill="none"/></svg>