<svg xmlns="http://www.w3.org/2000/svg" viewBox="0 0 32 32"><g stroke="#333" stroke-width="2" stroke-linejoin="round" stroke-miterlimit="10" fill="none"><circle cx="8" cy="21" r="6"/><path d="M1.636 14.636a9.07 9.07 0 0 1 2.861-1.929 9.037 9.037 0 0 1 7.006 0 8.988 8.988 0 0 1 2.861 1.929 9.07 9.07 0 0 1 1.929 2.861 9.037 9.037 0 0 1 .524 5.317"/><circle cx="24" cy="24" r="3"/><path d="M14 14h17l-2 7H17m.219-7.062L13 4H4v8.812M25.001 14V7.875c-.019-.486.196-1.02.569-1.362s.905-.533 1.43-.511"/></g></svg>