<svg xmlns="http://www.w3.org/2000/svg" viewBox="0 0 32 32"><g stroke="#333" stroke-width="2" stroke-linejoin="round" stroke-miterlimit="10" fill="none"><circle cx="16" cy="16" r="10"/><path d="M16 1v5m0 20v5m0-30v5m0 20v5m15-15h-5M6 16H1m30 0h-5M6 16H1M26.607 5.393l-1.415 1.415M6.808 25.192l-1.415 1.415M26.607 5.393l-1.415 1.415M6.808 25.192l-1.415 1.415m21.214 0l-1.415-1.415M6.808 6.808L5.393 5.393m21.214 21.214l-1.415-1.415M6.808 6.808L5.393 5.393m24.465 4.867l-1.848.765m-24.02 9.95l-1.848.765m27.716-11.48l-1.848.765m-24.02 9.95l-1.848.765m19.598 8.118l-.765-1.848m-9.95-24.02l-.765-1.848m11.48 27.716l-.765-1.848m-9.95-24.02l-.765-1.848M29.858 21.74l-1.848-.765m-24.02-9.95l-1.848-.765m27.716 11.48l-1.848-.765m-24.02-9.95l-1.848-.765m8.118 19.598l.765-1.848m9.95-24.02l.765-1.848M10.26 29.858l.765-1.848m9.95-24.02l.765-1.848"/></g></svg>