<svg xmlns="http://www.w3.org/2000/svg" viewBox="0 0 32 32"><g stroke="#333" stroke-linecap="round" stroke-linejoin="round" stroke-miterlimit="10" fill="none"><path d="M13.906 26H12a2 2 0 0 1-2-2v-8.267C10 13.672 11.791 12 14 12h4c2.209 0 4 1.672 4 3.733V24a2 2 0 0 1-2 2h-1.906m-2.011 5h-.167A1.922 1.922 0 0 1 14 29.083v-6.167c0-1.054.863-1.916 1.917-1.916h.167c1.054 0 1.916.862 1.916 1.917v6.167A1.922 1.922 0 0 1 16.083 31zM7 9h3m12 0h3"/><circle cx="16" cy="9" r="3"/><path d="M9.5 7a6.5 6.5 0 1 1 13 0m-5 8.5h2"/></g></svg>