<svg xmlns="http://www.w3.org/2000/svg" viewBox="0 0 32 32"><path d="M18.5 5.5c-1.382-1.333-3.618-1.333-5 0m7.151 5.225l-.491 6.89-.74 10.391C19.3 29.691 17.804 31 16 31s-3.3-1.309-3.42-2.993l-.74-10.391-.491-6.89-.337-4.736C10.819 3.289 13.108 1 16 1s5.181 2.289 4.989 4.989l-.338 4.736zm-9.302 0l-9.197 4.478C1.444 15.547 1 16.235 1 16.985v.008c0 1.244 1.19 2.188 2.491 1.977l8.349-1.355m8.32 0l8.349 1.355c1.301.211 2.491-.733 2.491-1.977v-.008c0-.75-.444-1.438-1.152-1.782l-9.197-4.478m-8.544 14.201l-4.925 4.126c-.31.237-.2.948.148.948h6.045m6.518-5.074l4.925 4.126c.31.237.2.948-.148.948h-6.129M3 12.5v2m4-4v2m22 0v2m-4-4v2" stroke="#333" stroke-linecap="round" stroke-linejoin="round" fill="none"/></svg>