<svg xmlns="http://www.w3.org/2000/svg" viewBox="0 0 32 32"><path d="M25 29H7m4.5-18.5v13m9-13v13m-3-13v13m-3-13v13M9 29V7.167C9 4.865 7.01 3 4.556 3 2.592 3 1 4.492 1 6.333 1 7.806 2.273 9 3.844 9 5.101 9 6.12 8.045 6.12 6.867c0-.943-.815-1.707-1.82-1.707m23.4 0c-1.005 0-1.82.764-1.82 1.707C25.88 8.045 26.899 9 28.156 9 29.726 9 31 7.806 31 6.333 31 4.492 29.408 3 27.444 3 24.99 3 23 4.865 23 7.167V29M4.5 3h23" stroke="#333" stroke-linecap="round" stroke-linejoin="round" stroke-miterlimit="10" fill="none"/></svg>