<svg xmlns="http://www.w3.org/2000/svg" viewBox="0 0 32 32"><path d="M13.33 5.751l7.919 7.919m-3.769 3.769L25 9.919a2.795 2.795 0 0 1 0-2.397L19.478 2a2.788 2.788 0 0 1-2.397 0L1 18.081a2.788 2.788 0 0 1 0 2.397L6.522 26a2.78 2.78 0 0 1 1.615-.225m9.343-8.336L26.54 14a2.503 2.503 0 0 0 1.94.819L31 21.027a2.345 2.345 0 0 0-.846 1.877L11.46 30a2.503 2.503 0 0 0-1.94-.819l-1.382-3.406m9.342-8.336l-9.635 3.657a2.35 2.35 0 0 1-.846 1.877l1.137 2.802m14.043-10.12l3.614 8.904m-14.096 2.354l6.905-2.621m-7.507 1.137l2.301-.874" stroke="#333" stroke-linecap="round" stroke-linejoin="round" stroke-miterlimit="10" fill="none"/></svg>