<svg xmlns="http://www.w3.org/2000/svg" viewBox="0 0 32 32"><g stroke="#333" stroke-width="2" stroke-linecap="round" stroke-linejoin="round" stroke-miterlimit="10" fill="none"><ellipse transform="rotate(-45.001 16 16)" cx="16" cy="16" rx="14" ry="14"/><path d="M7.909 9.682a4.274 4.274 0 0 0 1.773-1.773c.503-.952.523-1.947-.046-2.516-.781-.781-2.364-.464-3.536.708s-1.488 2.754-.707 3.535c.57.569 1.565.549 2.516.046zm19.733 14.035c-.303-3.97-2.476-8.45-5.278-11.252-3.316-3.316-8.411-5.176-12.682-4.555M7.909 9.682c-.62 4.271 1.239 9.365 4.555 12.682 2.778 2.778 7.202 4.936 11.145 5.27"/></g></svg>