<svg xmlns="http://www.w3.org/2000/svg" viewBox="0 0 32 32"><path d="M15.139 29.956c.286.018.57.044.861.044m0-28c.291 0 .575.026.861.043a13.946 13.946 0 0 1 9.093 4.118C28.454 8.69 30 12.163 30 16s-1.546 7.31-4.045 9.839a13.946 13.946 0 0 1-9.094 4.118c-.286.017-.57.043-.861.043l-.861-.044a13.95 13.95 0 0 1-9.094-4.118C3.546 23.31 2 19.837 2 16s1.546-7.31 4.045-9.839a13.946 13.946 0 0 1 9.093-4.118C15.425 2.026 15.709 2 16 2zm0 0v28M2 16h28M15.139 2.043A19.008 19.008 0 0 0 9 16c0 2.771.607 5.397 1.674 7.771a19.029 19.029 0 0 0 4.465 6.186M6.045 6.161a18.86 18.86 0 0 0 4.629 2.068M16 9c-1.851 0-3.635-.277-5.326-.771M16 9c1.851 0 3.635-.277 5.326-.771m4.629-2.068a18.86 18.86 0 0 1-4.629 2.068m0 15.542A18.954 18.954 0 0 0 16 23m-5.326.771A18.954 18.954 0 0 1 16 23m-9.955 2.839a18.86 18.86 0 0 1 4.629-2.068m15.281 2.068a18.86 18.86 0 0 0-4.629-2.068m-4.465 6.185A19.008 19.008 0 0 0 23 16c0-2.771-.607-5.397-1.674-7.771a19.029 19.029 0 0 0-4.465-6.186" stroke="#333" stroke-width="2" stroke-linecap="round" stroke-linejoin="round" stroke-miterlimit="10" fill="none"/></svg>