<svg xmlns="http://www.w3.org/2000/svg" viewBox="0 0 32 32"><g stroke="#333" stroke-miterlimit="10" fill="none"><path d="M28 19.982c1.875-1.67 3-3.736 3-5.982s-1.125-4.312-3-5.982c-1.097-.976-2.45-1.813-4-2.467C21.683 4.574 18.945 4 16 4 7.716 4 1 8.477 1 14s6.716 10 15 10c2.945 0 5.683-.574 8-1.551 1.55-.654 2.903-1.491 4-2.467zM24 5.551V5c0-1.1.9-2 2-2s2 .9 2 2v3.018m-4 14.431V23c0 1.1.9 2 2 2s2-.9 2-2v-3.018m-6.621 3.348L20 29h-6.183l-4.505-5.969"/><ellipse cx="21" cy="14" rx="5.5" ry="1.5"/></g></svg>