<svg xmlns="http://www.w3.org/2000/svg" viewBox="0 0 32 32"><g stroke="#333" stroke-width="2" stroke-linecap="round" stroke-linejoin="round" stroke-miterlimit="10" fill="none"><path d="M11.307 8.124l14.271-3.85a2.151 2.151 0 0 1 2.083.556l2.164 2.164-12.826 6.831m-8.877-2.512L4.274 25.579a2.151 2.151 0 0 0 .556 2.083l2.164 2.164 6.831-12.824"/><path d="M25.434 25.434l-2.289-.766-2.152 5.207-.125.125-1.593-1.593.07-6.018L2.692 5.736c-.887-.886-.927-2.296-.09-3.134.837-.837 2.248-.796 3.134.09L22.39 19.345l6.018-.07L30 20.868l-.125.125-5.207 2.152.766 2.289z"/></g></svg>