<svg xmlns="http://www.w3.org/2000/svg" viewBox="0 0 32 32"><path stroke="#333" stroke-width="2" stroke-linecap="round" stroke-linejoin="round" stroke-miterlimit="10" d="M5 28h22v3H5zm2 0V10a2 2 0 0 1 2-2h14a2 2 0 0 1 2 2v18" fill="none"/><path stroke="#333" stroke-linecap="round" stroke-linejoin="round" stroke-miterlimit="10" d="M9.5 11.5h3v3h-3zm5 0h3v3h-3zm5 0h3v3h-3zm-10 5h3v3h-3zm5 0h3v3h-3zm5 0h3v3h-3zm-6 11.5v-6.5h5v6.375" fill="none"/><path fill="#333" d="M7.999 1l.471 1.528h1.527l-1.235.944L9.234 5l-1.235-.944L6.763 5l.472-1.528L6 2.528h1.527L7.999 1m1.998 1.528h.005M7.999 0c-.439 0-.826.286-.956.705l-.254.823H6a.999.999 0 0 0-.607 1.794l.681.521-.266.862A1 1 0 0 0 7.37 5.794l.628-.48.628.48a.998.998 0 0 0 1.18.026 1 1 0 0 0 .384-1.115l-.267-.862.655-.5a1 1 0 0 0-.575-1.815h-.795L8.954.705A1 1 0 0 0 7.999 0zm8 1l.472 1.528h1.527l-1.235.944L17.234 5l-1.235-.944L14.763 5l.472-1.528L14 2.528h1.527L15.999 1m1.998 1.528h.005M15.999 0a.999.999 0 0 0-.955.705l-.254.823H14a.999.999 0 0 0-.607 1.794l.681.521-.266.862a1 1 0 0 0 1.562 1.089l.628-.48.628.48a1 1 0 0 0 1.564-1.089l-.266-.862.654-.5a1 1 0 0 0-.576-1.815h-.794l-.254-.823A1 1 0 0 0 15.999 0zm8 1l.472 1.528h1.527l-1.235.944L25.234 5l-1.235-.944L22.763 5l.472-1.528L22 2.528h1.527L23.999 1m1.998 1.528h.005M23.999 0a.999.999 0 0 0-.955.705l-.254.823H22a.999.999 0 0 0-.607 1.794l.681.521-.266.862a1 1 0 0 0 1.562 1.089l.628-.48.628.48a1 1 0 0 0 1.564-1.089l-.266-.862.654-.5a1 1 0 0 0-.576-1.815h-.794l-.254-.823A1 1 0 0 0 23.999 0z"/></svg>