<svg xmlns="http://www.w3.org/2000/svg" viewBox="0 0 32 32"><path d="M14.126 23a1.792 1.792 0 0 1-1.506-.815 90.881 90.881 0 0 1-1.119-1.772 69.4 69.4 0 0 1-1.652-2.819 42.711 42.711 0 0 1-1.441-2.826c-.422-.918-.774-1.8-1.02-2.607C7.141 11.354 7 10.621 7 10a9.037 9.037 0 0 1 .707-3.503 8.988 8.988 0 0 1 1.929-2.861 9.07 9.07 0 0 1 2.861-1.929 9.037 9.037 0 0 1 7.006 0 8.988 8.988 0 0 1 2.861 1.929 9.07 9.07 0 0 1 1.929 2.861A9.037 9.037 0 0 1 25 10c0 .621-.141 1.354-.387 2.162-.246.807-.598 1.689-1.02 2.607a43.201 43.201 0 0 1-1.441 2.826 70.587 70.587 0 0 1-1.652 2.819 90.827 90.827 0 0 1-1.12 1.772c-.33.509-.898.814-1.506.814h-3.748zM19 27v1c0 1.65-1.35 3-3 3s-3-1.35-3-3v-1h6zm-6.5-5v4.938m7-4.938v4.938M14.5 23v3.938m3-3.938v3.938m1-25.438c0 1.105-1.119 2-2.5 2s-2.5-.895-2.5-2m.736 1.585c-.684 1.463-1.279 2.867-1.537 4.557-.283 1.847-.249 3.748.004 5.597.46 3.359 1.61 6.547 2.628 9.73M17.75 3.057c.69 1.474 1.29 2.884 1.55 4.585.283 1.847.249 3.748-.004 5.597-.46 3.357-1.608 6.543-2.626 9.724" stroke="#333" stroke-linecap="round" stroke-linejoin="round" stroke-miterlimit="10" fill="none"/></svg>