<svg xmlns="http://www.w3.org/2000/svg" viewBox="0 0 32 32"><g stroke="#333" stroke-width="2" stroke-linecap="round" stroke-linejoin="round" stroke-miterlimit="10" fill="none"><path d="M15.59 22H29c1.1 0 2 .9 2 2 0 .55-.22 1.05-.59 1.41-.36.37-.86.59-1.41.59H15.59m-9.18 0H3c-1.1 0-2-.9-2-2 0-.55.22-1.05.59-1.41.36-.37.86-.59 1.41-.59h3.41M25.59 6H29c1.1 0 2 .9 2 2 0 .55-.22 1.05-.59 1.41-.36.37-.86.59-1.41.59h-3.41m-9.18 0H3c-1.1 0-2-.9-2-2 0-.55.22-1.05.59-1.41C1.95 6.22 2.45 6 3 6h13.41"/><circle cx="21" cy="8" r="5"/><circle cx="11" cy="24" r="5"/></g></svg>