<svg xmlns="http://www.w3.org/2000/svg" viewBox="0 0 32 32"><path stroke="#333" stroke-width="2" stroke-linecap="round" stroke-linejoin="round" stroke-miterlimit="10" d="M26.024 10.086a5.986 5.986 0 0 0-4.024.723V3a1 1 0 0 0-1-1H2a1 1 0 0 0-1 1v7.809a5.98 5.98 0 0 1 4.024-.723c2.595.436 4.652 2.62 4.939 5.236A6.002 6.002 0 0 1 4 22a5.97 5.97 0 0 1-3-.809V29a1 1 0 0 0 1 1h19a1 1 0 0 0 1-1v-7.809A5.97 5.97 0 0 0 25 22a6.002 6.002 0 0 0 5.963-6.678c-.287-2.616-2.344-4.8-4.939-5.236z" fill="none"/></svg>