<svg xmlns="http://www.w3.org/2000/svg" viewBox="0 0 32 32"><g stroke="#333" stroke-linecap="round" stroke-linejoin="round" stroke-miterlimit="10" fill="none"><path d="M19.735 11c-.114 1.991.769 3.89 1.734 5.621 1.133 2.034 2.451 4.097 2.528 6.515.094 2.952-1.565 5.778-4.143 7.083a7.347 7.347 0 0 1-3.472.779h-.762a7.324 7.324 0 0 1-3.472-.779c-2.578-1.305-4.238-4.132-4.143-7.083.077-2.418 1.395-4.481 2.528-6.515.964-1.731 1.848-3.63 1.734-5.621"/><path d="M16 8.998a4.283 4.283 0 0 0 2.721 1.903c1.118.237 2.333.049 3.278-.585-.383.274-.957.151-1.296-.175-.339-.326-.485-.8-.549-1.263-.064-.462-.059-.934-.158-1.39a3.186 3.186 0 0 0-1.412-1.999c-.713-.446-1.759-.598-2.584-.41-.825-.188-1.871-.036-2.585.411a3.19 3.19 0 0 0-1.412 1.999c-.099.456-.094.928-.158 1.39-.064.462-.21.937-.549 1.263-.339.326-.913.449-1.296.175.945.635 2.16.822 3.278.585A4.287 4.287 0 0 0 16 8.998zM16 5c.024-.726.053-1.472.382-2.143C16.958 1.683 18.496.898 20 1.011M21.065 21.5a4.392 4.392 0 0 1 .094 3.603A4.305 4.305 0 0 1 18.5 27.5"/></g></svg>