<svg xmlns="http://www.w3.org/2000/svg" viewBox="0 0 32 32"><g stroke="#333" stroke-linecap="round" stroke-linejoin="round" stroke-miterlimit="10" fill="none"><path d="M16.058 10.645c1.27-2.103 3.787-3.53 6.414-3.638 2.627-.108 5.274 1.106 6.747 3.096.909 1.228 1.373 2.69 1.603 4.157a15.06 15.06 0 0 1-1.305 8.806c-1.2 2.511-3.07 4.655-5.287 6.256a8.929 8.929 0 0 1-4.761 1.667 9.014 9.014 0 0 1-2.535-.232c-.386-.092-.725-.243-1.122-.213-.472.036-.917.261-1.383.335a9.41 9.41 0 0 1-1.948.104c-4.413-.221-8.129-4.004-9.999-7.917a15.06 15.06 0 0 1-1.305-8.806c.23-1.467.694-2.929 1.603-4.157C4.253 8.114 6.9 6.899 9.527 7.007c2.627.108 5.144 1.536 6.414 3.638m.001-.112c.432-1.829-.084-4.373-1.189-5.889A6.561 6.561 0 0 0 10 2"/><path d="M20.097 22.149a1.377 1.377 0 1 1-1.948 1.948c-.538-.538-.649-2.597-.649-2.597s2.059.111 2.597.649zm0-6a1.377 1.377 0 1 1-1.948 1.948c-.538-.538-.649-2.597-.649-2.597s2.059.111 2.597.649zm-8.194 0a1.377 1.377 0 0 0 1.947 1.948c.539-.538.65-2.597.65-2.597s-2.059.111-2.597.649zm0 6a1.377 1.377 0 0 0 1.947 1.948c.539-.538.65-2.597.65-2.597s-2.059.111-2.597.649z"/></g></svg>