<svg xmlns="http://www.w3.org/2000/svg" viewBox="0 0 32 32"><path d="M13.983 19.991c-3.707-3.704-5.29-8.658-4.681-13.198.185-1.38-1.535-2.368-2.489-1.415-.452.45-.876.942-1.27 1.477-4.027 5.478-3.195 13.652 1.95 19.041 6.005 6.291 15.539 6.829 21.108 1.264l.033-.033c.938-.944-.072-2.645-1.435-2.461-4.545.613-9.507-.969-13.216-4.675zm-6.469-4.838a11.126 11.126 0 0 1-.243-1.176m12.735 12.721a11.161 11.161 0 0 1-1.178-.243 12.766 12.766 0 0 1-1.2-.38 14.352 14.352 0 0 1-1.209-.514c-.403-.194-.805-.409-1.205-.646s-.796-.495-1.188-.775a17.701 17.701 0 0 1-2.27-1.926 17.669 17.669 0 0 1-1.926-2.266 16.93 16.93 0 0 1-.775-1.186 15.473 15.473 0 0 1-.956-1.892M7 5.221C7.98 3.957 8.679 2.501 9.214 1A6.555 6.555 0 0 0 11 1.856c-.638-.193-1.14.968-1.33 1.392-.419.932-.484 1.914-.39 2.927" stroke="#333" stroke-linecap="round" stroke-linejoin="round" stroke-miterlimit="10" fill="none"/></svg>