<svg xmlns="http://www.w3.org/2000/svg" viewBox="0 0 32 32"><g stroke="#333" stroke-miterlimit="10" fill="none"><path d="M21 4.5c.449 0 .887.045 1.31.132M12.303 8.72A7.961 7.961 0 0 0 9 8a8 8 0 1 0 3.125 15.366m.063-10.566A8.972 8.972 0 0 1 12 11c0-.789.112-1.551.303-2.28C13.314 4.855 16.819 2 21 2a9 9 0 0 1 9 9 8.978 8.978 0 0 1-3.17 6.85A8.96 8.96 0 0 1 21 20a8.826 8.826 0 0 1-1.785-.2m-6.798-.321A7.932 7.932 0 0 0 12 22c0 .467.048.921.125 1.366C12.774 27.132 16.048 30 20 30a8 8 0 0 0 8-8 7.954 7.954 0 0 0-1.17-4.15"/><path d="M20.221 13.343a5.005 5.005 0 0 0-1.909-1.752A4.945 4.945 0 0 0 16 11c-1.537 0-2.895.709-3.812 1.8a5.005 5.005 0 0 0-1.11 2.368A4.75 4.75 0 0 0 11 16a4.98 4.98 0 0 0 1.417 3.479A4.982 4.982 0 0 0 16 21c.374 0 .732-.055 1.081-.135a5.057 5.057 0 0 0 2.134-1.064C20.298 18.883 21 17.53 21 16c0-.979-.292-1.886-.779-2.657zm-4.12 2.482A7.45 7.45 0 0 0 16 17c0 1.416.399 2.735 1.081 3.865m-6.004-5.697a7.464 7.464 0 0 0 5.024.657 7.494 7.494 0 0 0 4.12-2.481M3.612 17.108A5.537 5.537 0 0 1 3.5 16M9 21.5a5.465 5.465 0 0 1-3.074-.939 5.528 5.528 0 0 1-1.75-1.918M24.025 5.245A6.549 6.549 0 0 1 26.99 8.47c.164.389.292.797.379 1.22.086.423.131.861.131 1.31m-2.711 13.707a5.528 5.528 0 0 1-3.68 2.681A5.482 5.482 0 0 1 20 27.5m5.5-5.5c0 .38-.038.75-.112 1.108"/></g></svg>