<svg xmlns="http://www.w3.org/2000/svg" viewBox="0 0 32 32"><g stroke="#333" stroke-linecap="round" stroke-linejoin="round" stroke-miterlimit="10" fill="none"><path d="M27 20.969l-1.955 1.573 1.336 2.153-2.381.717.371 2.518-2.461-.35-.608 2.469-2.19-1.212L17.794 31 16 29.227 14.206 31l-1.318-2.163-2.191 1.212-.609-2.471-2.461.349.372-2.517-2.38-.716 1.336-2.152L5 20.969l1.985-1.894-1.336-2.417 2.409-1.275-.711-2.685 2.638-.623.02-2.782 2.688.258L13.762 7 16 8.531 18.238 7l1.07 2.551 2.687-.258.019 2.781 2.639.623-.712 2.684 2.409 1.276-1.335 2.417zM16 8.531c-.488-1.738-.399-3.757.627-5.285a5.42 5.42 0 0 1 3.37-2.262"/><path d="M14.442 20c0 3.038.379 5.5-.802 5.5-1.182 0-2.14-2.462-2.14-5.5s.958-5.5 2.14-5.5c1.181 0 .802 2.462.802 5.5zm3.116 0c0 3.038-.379 5.5.802 5.5 1.182 0 2.14-2.462 2.14-5.5s-.958-5.5-2.14-5.5c-1.181 0-.802 2.462-.802 5.5z"/></g></svg>