<svg xmlns="http://www.w3.org/2000/svg" viewBox="0 0 32 32"><path d="M26.807 13.862c.011-1.396-.8-2.769-2.03-3.437-1.653-.898-3.428-.347-4.754.866-1.062.972-1.773 2.229-2.739 3.282-.951 1.036-2.168 1.859-3.439 2.454-2.821 1.32-6.121 1.523-9.06.468-.431-.155-.861-.336-1.317-.378-.456-.041-.958.085-1.24.445-.285.364-.282.891-.102 1.317.18.425.51.769.847 1.085 3.233 3.038 7.583 4.746 11.997 4.994 3.131.176 6.51-.202 9.396-1.559 2.812-1.323 6.291-4.746 4.824-8.136-.396-.914-1.406-1.61-2.383-1.401zm0 0c1.347-.75 2.691-2.604 3.047-4.118.212-.899.19-1.85-.044-2.743m-4.038 12.318c.252-.259.495-.533.728-.819m-7 4c.327-.032.653-.083.976-.152.323-.069.644-.156.96-.26a9.917 9.917 0 0 0 1.847-.826c.297-.17.589-.357.874-.558" stroke="#333" stroke-linecap="round" stroke-linejoin="round" stroke-miterlimit="10" fill="none"/></svg>