<svg xmlns="http://www.w3.org/2000/svg" viewBox="0 0 32 32"><path d="M8.416 13.382c-.682.63-1.362 1.23-1.903 2.001-1.123 1.601-1.68 3.58-1.47 5.528.089.821.311 1.625.654 2.377 1.04 2.284 3.101 4.038 5.456 4.933 2.355.896 4.979.974 7.448.461 2.136-.444 4.214-1.346 5.803-2.834 1.589-1.488 2.646-3.602 2.594-5.772-.052-2.194-1.194-4.222-2.545-5.958-1.351-1.736-2.944-3.288-4.143-5.132-1.198-1.843-1.987-4.098-1.482-6.235L13.07 1c1.149 1.859.976 4.294.098 6.294-.511 1.164-1.236 2.22-2.032 3.208-.762.945-1.6 1.829-2.484 2.661l-.236.219zM15 29l-2.5 2.5M15 29l2.5 2.5M15 29l-.833 2.5M15 29l.833 2.5m-2.441-2.741c-1.709-3.602-2.316-8.253-.009-11.733M21.509 27.5c1.132-2.244 1.246-4.897.675-7.315-.632-2.675-2.252-4.56-3.659-6.838a11.97 11.97 0 0 1-1.233-2.693" stroke="#333" stroke-linecap="round" stroke-linejoin="round" stroke-miterlimit="10" fill="none"/></svg>