<svg xmlns="http://www.w3.org/2000/svg" viewBox="0 0 32 32"><path d="M19.375 26.847c-4.204 4.204-11.019 4.204-15.223 0-4.204-4.204-4.204-11.019 0-15.223C8.356 7.42 21.399 1.193 25.602 5.396c4.205 4.205-2.023 17.248-6.227 21.451zm-3.032-2.486c-2.78 2.78-7.205 2.86-9.885.181s-2.599-7.105.181-9.885 11.323-6.978 14.003-4.298-1.52 11.223-4.299 14.002zm-2.492-1.122a4.306 4.306 0 1 1-6.09-6.09c1.682-1.682 5.085-2.358 6.766-.677 1.682 1.682 1.005 5.085-.676 6.767zM26 5c1.08-1.592 2.842-2.319 4-1.868" stroke="#333" stroke-linecap="round" stroke-linejoin="round" stroke-miterlimit="10" fill="none"/></svg>