<svg xmlns="http://www.w3.org/2000/svg" viewBox="0 0 32 32"><path d="M27 19c0 6-11 12-11 12S5 25 5 19m22 0l-3.504 2-2.504-2-2.5 2-2.499-2-2.499 2-2.496-2-2.499 2L5 19H3C3 11 8.82 5 16 5s13 6 13 14h-2zM16 5c.496-1.356 1.337-2.494 2.362-3.195 1.136-.777 2.385-.872 3.638-.773M8.412 11.283a9.564 9.564 0 0 1 3.059-2.637 9.342 9.342 0 0 1 1.704-.719 9.19 9.19 0 0 1 .91-.234A9.738 9.738 0 0 1 16 7.5m-8.753 5.802c.12-.284.254-.561.4-.831" stroke="#333" stroke-linecap="round" stroke-linejoin="round" stroke-miterlimit="10" fill="none"/></svg>