<svg xmlns="http://www.w3.org/2000/svg" viewBox="0 0 32 32"><path d="M16.867 6.027c1.853-.009 3.737-.113 5.576.16 1.434.213 2.855.68 4 1.552 1.945 1.48 2.878 4.079 2.457 6.457-.313 1.766-1.333 3.373-2.729 4.517-1.576 1.292-3.587 2.027-5.277 3.168-.497.335-1.057.699-1.461 1.137-.441.479-.829 1.023-1.187 1.564a15.123 15.123 0 0 0-1.401 2.658C16.488 28.12 16 29.023 16 30c0-.651-.221-1.311-.483-1.902-.261-.589-.494-1.2-.781-1.783a16.281 16.281 0 0 0-1.504-2.471c-.595-.807-1.293-1.403-2.128-1.966-1.689-1.141-3.701-1.876-5.277-3.168-1.396-1.144-2.416-2.75-2.729-4.517-.421-2.378.513-4.976 2.457-6.457 1.145-.872 2.567-1.339 4-1.552 1.839-.273 3.724-.168 5.576-.16h1.736zm-11.085 8.67a3.409 3.409 0 0 1-.262-1.729 3.63 3.63 0 0 1 .769-1.874c.216-.273.474-.519.771-.726.175-.122.36-.229.553-.324.193-.095.394-.177.601-.247A6.854 6.854 0 0 1 9.5 9.5m-2.274 7a4.955 4.955 0 0 1-.593-.525M14.5 6a2.917 2.917 0 0 0-.656-2.191c-.54-.656-1.264-.915-2.069-1.088a9.895 9.895 0 0 0-4.275.026m7.994 3.191C15.576 4.275 14.828 2.082 13.5 1m4 5a2.917 2.917 0 0 1 .656-2.191c.54-.656 1.264-.915 2.069-1.088a9.9 9.9 0 0 1 4.276.026m-7.995 3.191C16.424 4.275 17.172 2.082 18.5 1" stroke="#333" stroke-linecap="round" stroke-linejoin="round" stroke-miterlimit="10" fill="none"/></svg>