<svg xmlns="http://www.w3.org/2000/svg" viewBox="0 0 32 32"><path d="M16 31c2.236-.078 4.82-.438 6.716-1.738 1.674-1.147 2.882-3.011 3.199-5.052.303-1.954-.22-4.011-1.355-5.605-1.135-1.593-2.84-2.837-3.344-4.843-.298-1.186-.095-2.461-.411-3.643a4.242 4.242 0 0 0-1.702-2.372C18.174 7.11 17.078 7.084 16 7c-1.078.084-2.174.11-3.103.747-.812.556-1.443 1.403-1.702 2.372-.316 1.182-.113 2.457-.411 3.643-.504 2.006-2.209 3.25-3.344 4.843-1.135 1.594-1.658 3.651-1.355 5.605.317 2.042 1.525 3.905 3.199 5.052 1.896 1.3 4.48 1.66 6.716 1.738zm-4.737-12.365l-.222.273c-.213.263-.42.53-.605.812a5.66 5.66 0 0 0-.477.902 5.99 5.99 0 0 0-.453 2.022 5.458 5.458 0 0 0 .308 2.1c.12.34.271.666.45.972.179.306.386.593.615.853.23.261.483.495.755.699m.975-10.979a3.92 3.92 0 0 1-.374.977M16 7c.209-2.059 1.496-3.784 3.023-4.717C20.549 1.35 22.293 1.095 24 1m-9.525 3.072c.151-1.116-.398-2.314-1.503-3.02C11.864.345 10.515.335 9.526.92c-.155 1.118.394 2.32 1.502 3.028a3.46 3.46 0 0 0 2.33.52c.184-.026.365-.068.541-.127.173-.057.365-.206.537-.239.661-.126 1.563.669 1.801 1.238" stroke="#333" stroke-linecap="round" stroke-linejoin="round" stroke-miterlimit="10" fill="none"/></svg>