<svg xmlns="http://www.w3.org/2000/svg" viewBox="0 0 32 32"><g stroke="#333" stroke-linecap="round" stroke-linejoin="round" stroke-miterlimit="10" fill="none"><circle cx="15" cy="29" r="2"/><circle cx="12" cy="24" r="2"/><circle cx="18" cy="24" r="2"/><circle cx="15" cy="19" r="2"/><circle cx="21" cy="19" r="2"/><circle cx="9" cy="19" r="2"/><circle cx="18" cy="14" r="2"/><circle cx="12" cy="14" r="2"/><circle cx="9" cy="9" r="2"/><circle cx="21" cy="9" r="2"/><circle cx="15" cy="9" r="2"/><circle cx="24" cy="14" r="2"/><circle cx="6" cy="14" r="2"/><path d="M15 7c.055-2.224 1.74-4.352 4.103-5.182.968-.34 2.012-.473 3.048-.582C23.76 1.067 25.382.949 27 1.022M16.5 3.5c-.183-.988-.952-1.815-1.859-1.999-.33-.067-.693-.048-.969.162-.275.21-.416.65-.239.962a.698.698 0 0 0 .924.018c.367-.32.354-.978.07-1.386-.284-.408-.758-.604-1.221-.688C12.644.466 12.069.5 11.5.534m9 .966c.127.853.471 1.639.954 2.18.567.635 1.329.935 2.046.779"/></g></svg>