<svg xmlns="http://www.w3.org/2000/svg" viewBox="0 0 32 32"><g stroke="#333" stroke-linecap="round" stroke-linejoin="round" stroke-miterlimit="10" fill="none"><circle cx="16" cy="19" r="12"/><path d="M19.336 7.333c-.284-.889-.277-2.203.02-3.088A4.449 4.449 0 0 1 21 2.039c-.467-.1-.922.003-1.368.173-.447.17-.857.424-1.263.676-.217.134-.44.269-.631.438-.321.284-.284.391-.662.15-.478-.303-.858-.899-1.076-1.407-.219.508-.598 1.104-1.075 1.408-.378.241-.341.134-.662-.15-.192-.17-.415-.304-.632-.438-.406-.252-.816-.506-1.263-.676-.447-.171-.901-.274-1.368-.174a4.449 4.449 0 0 1 1.644 2.206c.297.885.304 2.199.02 3.088"/><circle cx="16" cy="11" r=".5"/><circle cx="16" cy="27" r=".5"/><ellipse transform="rotate(-67.5 13.999 17)" cx="14" cy="17" rx=".5" ry=".5"/><ellipse transform="rotate(-67.5 17.999 17)" cx="18" cy="17" rx=".5" ry=".5"/><ellipse transform="rotate(-67.5 15.999 14)" cx="16" cy="14" rx=".5" ry=".5"/><ellipse transform="rotate(-67.5 15.999 19)" cx="16" cy="19" rx=".5" ry=".5"/><ellipse transform="rotate(-67.5 15.999 24)" cx="16" cy="24" rx=".5" ry=".5"/><ellipse transform="rotate(-67.5 20.998 19)" cx="21" cy="19" rx=".5" ry=".5"/><ellipse transform="rotate(-67.5 11 19)" cx="11" cy="19" rx=".5" ry=".5"/><ellipse transform="rotate(-67.5 13.999 21)" cx="14" cy="21" rx=".5" ry=".5"/><ellipse transform="rotate(-67.5 17.999 21)" cx="18" cy="21" rx=".5" ry=".5"/><circle cx="24" cy="19" r=".5"/><circle cx="8" cy="19" r=".5"/><circle cx="11" cy="14" r=".5"/><circle cx="21" cy="14" r=".5"/><circle cx="21" cy="24" r=".5"/><circle cx="11" cy="24" r=".5"/></g></svg>