<svg xmlns="http://www.w3.org/2000/svg" viewBox="0 0 32 32"><g stroke="#333" stroke-linecap="round" stroke-linejoin="round" stroke-miterlimit="10" fill="none"><path d="M15.53 1c-.049 2.06-.075 4.947-.181 6.937-.149 2.788-1.585 5.056-3.045 7.372-1.008 1.599-1.944 3.367-2.138 5.256-.431 4.197 2.047 7.535 4.927 10.395M16.947 1c.04 1.343.032 3.664.207 6.937.149 2.788 1.585 5.056 3.045 7.372 1.008 1.599 1.944 3.367 2.138 5.256.428 4.17-2.016 7.492-4.872 10.339m-1.206.085c1.462-2.227 2.759-5.18 2.796-7.807a14.848 14.848 0 0 0-.46-3.885c-.332-1.298-.962-2.46-1.395-3.716-.686-1.986-.86-4.114-.948-6.203l.029-.753c.073-2.1.143-5.351.079-7.624M16.144 1c-.065 2.273.005 5.523.079 7.624l.029.753c-.087 2.089-.262 4.218-.947 6.203-.434 1.256-1.064 2.418-1.396 3.716a14.848 14.848 0 0 0-.46 3.885c.037 2.628 1.334 5.581 2.796 7.808"/><path d="M17.072 1h-2.144c-.047 1.142-.02 3.039-.194 4.034a10.519 10.519 0 0 1-1.316 3.579c-.648 1.084-1.607 1.975-2.465 2.901C8.257 14.427 5 17.09 5 21.323c0 2.672 1.231 5.092 3.222 6.843 1.79 1.575 4.196 2.602 6.871 2.794.3.021.601.04.907.04l.245-.011.014-.001c.408-.008.81-.038 1.206-.084 2.45-.288 4.649-1.275 6.313-2.739C25.769 26.414 27 23.995 27 21.323c0-4.233-3.257-6.896-5.954-9.808-.858-.926-1.816-1.817-2.465-2.901a10.527 10.527 0 0 1-1.316-3.579c-.173-.996-.146-2.893-.193-4.035z"/></g></svg>