<svg xmlns="http://www.w3.org/2000/svg" viewBox="0 0 32 32"><path d="M20 7a5 5 0 0 0-5 5c0 .731.165 1.419.446 2.045L15 14a5 5 0 0 0-5 5c0 .723.161 1.407.437 2.027-1.346-.099-2.807.413-3.929 1.535C4.619 24.451 4 31 4 31s6.549-.619 8.438-2.509c1.323-1.323 1.799-3.115 1.416-4.636.37.088.75.145 1.146.145a5 5 0 0 0 5-5c0-.73-.165-1.419-.447-2.045L20 17a5 5 0 0 0 0-10zm3.349 1.134c1.001-.685 1.945-1.451 2.735-2.371C27.221 4.438 28.021 2.751 28 1m-5.5 11a2.5 2.5 0 0 1-2.5 2.5M17.5 19a2.5 2.5 0 0 1-2.5 2.5" stroke="#333" stroke-linecap="round" stroke-linejoin="round" stroke-miterlimit="10" fill="none"/></svg>