<svg xmlns="http://www.w3.org/2000/svg" viewBox="0 0 32 32"><g stroke="#333" stroke-linecap="round" stroke-linejoin="round" stroke-miterlimit="10" fill="none"><path d="M16.184 31c2.43 0 4.25-1.267 5.762-3.104 1.183-1.437 2.051-3.094 2.909-4.739.983-1.882 1.986-3.832 2.129-5.942.166-2.453-.932-4.956-2.862-6.523C22.226 9.153 19.92 8.9 17.556 9.03c-.52.028-1.038.032-1.556.027a24.5 24.5 0 0 1-1.556-.028c-2.364-.13-4.67.123-6.566 1.662-1.93 1.567-3.028 4.071-2.862 6.523.143 2.11 1.146 4.06 2.129 5.942.859 1.644 1.726 3.302 2.909 4.739C11.566 29.733 13.386 31 15.816 31h.368zM11.482 8.898A23 23 0 0 0 5 5.26c1.713-.678 3.58-.724 5.327-.147s3.293 1.785 4.312 3.366c-.313-2.702-1.226-5.29-2.784-7.479 1.57.465 2.889 1.337 3.869 2.691a8.098 8.098 0 0 1 1.515 4.738C18.064 5.606 20.33 3.321 23 2.305 21.461 4.183 20.561 6.556 20.254 9"/><circle cx="16" cy="12" r=".5"/><circle cx="12" cy="13" r=".5"/><circle cx="20" cy="13" r=".5"/><circle cx="16" cy="16" r=".5"/><circle cx="12" cy="17" r=".5"/><circle cx="8" cy="16" r=".5"/><circle cx="20" cy="17" r=".5"/><circle cx="24" cy="16" r=".5"/><circle cx="16" cy="20" r=".5"/><circle cx="12" cy="21" r=".5"/><circle cx="8" cy="20" r=".5"/><circle cx="20" cy="21" r=".5"/><circle cx="24" cy="20" r=".5"/><circle cx="16" cy="24" r=".5"/><circle cx="12" cy="25" r=".5"/><circle cx="20" cy="25" r=".5"/><circle cx="16" cy="28" r=".5"/></g></svg>