<svg xmlns="http://www.w3.org/2000/svg" viewBox="0 0 32 32"><path d="M22.289 17.773C22.178 11.792 19.409 7 16 7s-6.178 4.792-6.29 10.773C8.04 19.173 7 21.124 7 23.286 7 27.546 11.029 31 16 31c4.97 0 9-3.454 9-7.714 0-2.162-1.04-4.113-2.711-5.513zm-9.931-2.29c-.04.268-.074.541-.102.82m2.274-6.136a3.83 3.83 0 0 0-.331.358 5.216 5.216 0 0 0-.313.426 6.653 6.653 0 0 0-.293.489 9.405 9.405 0 0 0-.518 1.154 12.272 12.272 0 0 0-.417 1.359M10 22.668a5.684 5.684 0 0 0 1.025 3.261 5.911 5.911 0 0 0 1.621 1.575 6.035 6.035 0 0 0 2.145.878M15.99 7c.116-1.991-.751-4.022-2.164-5.063C13.26 1.521 12.627 1.259 12 1" stroke="#333" stroke-linecap="round" stroke-linejoin="round" stroke-miterlimit="10" fill="none"/></svg>