<svg xmlns="http://www.w3.org/2000/svg" viewBox="0 0 32 32"><g stroke="#333" stroke-miterlimit="10" fill="none"><path d="M20.991 15.469L21 15c0-7.732-2.239-14-5-14s-5 6.268-5 14l.008.469m0 0c2.034 1.114 3.689 2.686 4.667 4.509.125.233.22.473.324.71.104-.238.199-.477.324-.71.979-1.824 2.633-3.395 4.667-4.509A14.459 14.459 0 0 1 25 14c-1.287 1.393-2.119 3.007-2.407 4.73-.278 1.666-.048 3.358-.081 5.039-.032 1.681-.368 3.439-1.61 4.787-1.068 1.159-3.144 1.671-4.902 1.34-1.758.33-3.834-.181-4.902-1.34-1.242-1.348-1.578-3.105-1.61-4.787-.032-1.681.198-3.373-.081-5.039C9.119 17.007 8.287 15.393 7 14c1.43.295 2.787.8 4.008 1.469zM16 30v1"/><path d="M15.5 10.5h1v1h-1zm3 0h1v1h-1zm0-3h1v1h-1zm0 6h1v1h-1zm-6 0h1v1h-1zm0-3h1v1h-1zm0-3h1v1h-1zm3 0h1v1h-1zm0-3h1v1h-1zm0 9h1v1h-1z"/></g></svg>