<svg xmlns="http://www.w3.org/2000/svg" viewBox="0 0 32 32"><path d="M9.841 12.116c-2.507.706-5.026 1.946-6.8 3.883-2.1 2.293-3.191 6.381-.209 8.451 1.006.699 2.223 1.034 3.432 1.245 3.794.662 7.734.202 11.401-.97a30.157 30.157 0 0 0 9.019-4.69c2.554-1.938 3.917-5.262 4.267-8.406.131-1.179.023-2.412-.514-3.472-1.608-3.171-5.798-2.405-8.125-.523-1.825 1.476-2.863 3.146-5.318 3.589-1.41.254-2.854.202-4.279.342-.907.088-1.884.272-2.874.551zm9.131 6.335c.929.676 1.062 1.993.683 3.012m-13.582-.23c1.222 1.053 1.564 2.837 1.09 4.338m4.998-10.486c1.567.175 1.681 2.238 1.536 3.414m11.954-3.226c.556.68.953 1.487 1.162 2.339.15.612.174 1.227.29 1.835M25.881 8.816c1.208.281 1.747 1.782 1.267 2.858" stroke="#333" stroke-linecap="round" stroke-linejoin="round" stroke-miterlimit="10" fill="none"/></svg>