<svg xmlns="http://www.w3.org/2000/svg" viewBox="0 0 32 32"><path d="M31 16c0-1.743-1.208-3.157-2.742-3.304C26.482 8.799 21.672 6 16 6S5.517 8.799 3.742 12.696C2.208 12.843 1 14.257 1 16s1.208 3.157 2.742 3.304C5.518 23.201 10.328 26 16 26s10.482-2.799 12.258-6.696C29.792 19.157 31 17.743 31 16zM12.378 9.012c-.309.091-.611.193-.904.306a10.84 10.84 0 0 0-1.294.597 9.665 9.665 0 0 0-1.153.734c-.359.266-.691.552-.994.856s-.575.626-.815.963a6.64 6.64 0 0 0-.616 1.055M16 8.5c-.439 0-.871.021-1.295.063" stroke="#333" stroke-linecap="round" stroke-linejoin="round" stroke-miterlimit="10" fill="none"/></svg>