<svg xmlns="http://www.w3.org/2000/svg" viewBox="0 0 32 32"><path stroke="#333" stroke-width="2" stroke-linecap="round" stroke-linejoin="round" stroke-miterlimit="10" d="M16 7c6.627 0 12 4.925 12 11 0 8.742-12 13-12 13S4 26.742 4 18C4 11.925 9.373 7 16 7zm-.02 0c.214-2.525-1.284-4.809-3.98-6" fill="none"/><path stroke="#333" stroke-linecap="round" stroke-linejoin="round" stroke-miterlimit="10" d="M25.5 1.466C24.381.484 22.748.193 21.225.86c-1.523.667-2.527 2.114-2.726 3.673 1.119.982 2.752 1.273 4.275.606 1.523-.667 2.527-2.113 2.726-3.673zm-6.958 3.072a6.551 6.551 0 0 0-2.59.53M16 7c-1.119 1.466-2.362 2.827-3.262 4.449-2.723 4.908-2.44 11.126 1.506 15.326.151.161.307.318.467.471" fill="none"/></svg>