<svg xmlns="http://www.w3.org/2000/svg" viewBox="0 0 32 32"><path d="M9.458 22.435a2.314 2.314 0 0 0 1.813 1.787c2.536.525 6.766 1.249 8.472.802 3.521-.921 5.638-3.911 7.256-6.972a37.717 37.717 0 0 0 3.02-7.533c.525-1.893 1.774-5.247.247-6.445l-.358-.352c-1.216-1.503-4.621-.273-6.542.244a39.033 39.033 0 0 0-7.647 2.975c-3.107 1.594-6.142 3.68-7.077 7.149-.452 1.68.283 5.847.816 8.345zm.521 1.274C8.25 26.556 5.534 29.313 1 28.971m11.028-16.238c.38 3.958 3.276 6.917 6.886 8.06.814.258 1.667.447 2.544.564M16.945 8.716c.47 4.215 3.552 7.373 7.842 7.856l.505.044m-2.47-10.038a5.973 5.973 0 0 0 4.089 4.929M9.979 23.709c4.806-4.087 9.889-9.046 14.45-13.4 1.905-1.818 4.057-4.041 5.496-6.25" stroke="#333" stroke-linecap="round" stroke-linejoin="round" stroke-miterlimit="10" fill="none"/></svg>