<svg xmlns="http://www.w3.org/2000/svg" viewBox="0 0 32 32"><g stroke="#333" stroke-linecap="round" stroke-linejoin="round" stroke-miterlimit="10" fill="none"><path d="M14.683 9.789c2.623-1.69 5.905-2.398 8.925-1.479 1.639.499 3.124 1.291 4.15 2.682a10.36 10.36 0 0 1 1.971 5.226 9.703 9.703 0 0 1-.002 1.696c-.284 3.171-2.168 6.154-4.898 7.754-3.28 1.923-7.681 1.76-10.775-.469"/><path d="M13.596 7.991c-.179 1.171 1.707 2.479 2.32 3.355a11.103 11.103 0 0 1 1.815 4.301c.566 3.014-.039 6.155-2.298 8.289-3.1 2.929-9.138 4.169-12.432.948-2.658-2.598-2.42-6.523-.738-9.586.79-1.439 1.853-2.75 3.136-3.769 1.438-1.142 3.094-2.013 4.387-3.337.334-.343.642-.711.908-1.111.325-.49.573-1.037.97-1.47.397-.432 1.009-.738 1.565-.557.783.253 1.012 1.331.697 2.097-.115.278-.284.541-.33.84zM7.738 26.779c4.852-2.829 7.314-9.829 6.576-15.726-.061-.49-.14-.979-.243-1.463m-4.874 5.409a13.202 13.202 0 0 0-2.918 7.569m2.695-2.873a6.712 6.712 0 0 0 2.232-5.233m16.326-3.827a1.54 1.54 0 0 0 .134-.121c.137-.139.239-.298.341-.455.236-.367.475-.737.615-1.135.156-.443.187-.909.158-1.369m-1.082 3.672a5.91 5.91 0 0 0 1.156-.756c.572-.486 1.004-1.092 1.17-1.753m-2.099 2.761a6.943 6.943 0 0 1 3.575-.66"/></g></svg>