<svg xmlns="http://www.w3.org/2000/svg" viewBox="0 0 32 32"><g stroke="#333" stroke-miterlimit="10" fill="none"><path d="M14 23.793c0 .857-.168 1.673-.472 2.416a6.238 6.238 0 0 1-1.286 1.973 5.993 5.993 0 0 1-1.907 1.33C9.618 29.826 8.828 30 8 30s-1.618-.174-2.335-.488c-.718-.314-1.364-.769-1.907-1.33s-.982-1.23-1.286-1.973A6.363 6.363 0 0 1 2 23.793c0-.857.168-1.673.471-2.416.416-1.017 1.081-2.048 2.003-2.694.465-.326 1.004-.546 1.576-.565.698-.023 1.265.423 1.95.423.822 0 1.451-.579 2.296-.393 1.519.334 2.672 1.857 3.233 3.229.303.743.471 1.559.471 2.416zm16 0c0 .857-.168 1.673-.472 2.416-.304.743-.743 1.411-1.286 1.973s-1.189 1.016-1.907 1.33c-.717.314-1.507.488-2.335.488s-1.618-.174-2.336-.488c-.718-.314-1.364-.769-1.907-1.33s-.982-1.23-1.286-1.973A6.381 6.381 0 0 1 18 23.793c0-.857.168-1.673.472-2.416.416-1.017 1.081-2.048 2.003-2.694.465-.326 1.004-.546 1.576-.565.698-.023 1.265.423 1.95.423.822 0 1.451-.579 2.296-.393 1.519.334 2.672 1.857 3.233 3.229.302.743.47 1.559.47 2.416zM24.51 2.826c-1.195.042-2.393-.004-3.581.161a13.612 13.612 0 0 0-3.291.89c-2.09.859-3.941 2.251-5.454 3.921a16.9 16.9 0 0 0-1.313 1.645c-1.792 2.554-2.525 5.865-2.872 9.1M24.562 3.31c-1.569 1.789-1.91 4.424-1.929 6.714a25.813 25.813 0 0 0 1.366 8.518"/><path d="M24.588 3.489A1.496 1.496 0 0 0 27.5 3a1.5 1.5 0 0 0-3 0v.004c.001.17.035.332.088.485zM5.525 26.475C4.892 25.841 4.5 24.966 4.5 24s.392-1.841 1.025-2.475m16 4.95C20.892 25.841 20.5 24.966 20.5 24s.392-1.841 1.025-2.475"/></g></svg>