<svg xmlns="http://www.w3.org/2000/svg" viewBox="0 0 32 32"><g stroke="#333" stroke-miterlimit="10" fill="none"><path d="M18.738 13.662c1.732-.371 4.094-1.791 4.262-3.299-1.449-.237-2.494.32-3.796.65-.048.012.531-1.418.584-1.539.711-1.633.505-3.531-.317-5.107-1.047.675-1.834 1.576-2.244 2.633.848-2.189-.107-4.058-1.227-6-1.12 1.942-2.075 3.811-1.227 6-.409-1.057-1.197-1.958-2.243-2.633-.823 1.575-1.029 3.474-.318 5.107.053.12.631 1.551.584 1.539-1.302-.331-2.347-.887-3.796-.65.169 1.516 2.554 2.942 4.288 3.305"/><path d="M10.053 18.004c-.543 1.261-.905 2.623-1.016 3.945l-.018.395-.019.474c0 1.17.214 2.28.592 3.286a8.287 8.287 0 0 0 1.711 2.768c.842.892 1.867 1.547 3.006 1.877A6.027 6.027 0 0 0 16 31c.533 0 1.051-.076 1.55-.208 1.154-.305 2.197-.943 3.057-1.824a8.233 8.233 0 0 0 1.747-2.731A9.323 9.323 0 0 0 23 22.818l-.012-.277a10.933 10.933 0 0 0-.046-.761 12.924 12.924 0 0 0-1.051-3.908 11.504 11.504 0 0 0-1.711-2.768c-.705-.831-1.512-1.485-2.387-1.876-.573-.256-1.172-.41-1.793-.41-.667 0-1.31.173-1.921.466-.861.413-1.653 1.083-2.344 1.921-.667.808-1.236 1.766-1.682 2.799zm4.256 12.746l1.6-1.663 2.406-2.5 2.188-2.273 2.096-2.178m-11.296 6.736l2.2-2.285 2.406-2.5 2.187-2.273 2.097-2.178 1.698-1.764m-1.711-2.768l-2.175 2.26-2.096 2.178-2.188 2.272-2.406 2.5-1.723 1.791m-.373-3.969l2.406-2.5 2.187-2.272 2.097-2.178 1.884-1.958m-8.574 8.908l2.096 2.178 2.188 2.273 2.406 2.5 1.641 1.705m3.054-1.826l-2.309-2.399-2.424-2.519-2.204-2.29-2.113-2.195.071.073-1.572-1.632m1.682-2.799l2.077 2.159 2.097 2.178 2.187 2.272 2.407 2.5 1.85 1.923m-8.274-12.953l1.83 1.902 2.096 2.178 2.188 2.272 2.406 2.5"/></g></svg>