<svg xmlns="http://www.w3.org/2000/svg" viewBox="0 0 32 32"><path stroke="#333" stroke-width="2" stroke-linecap="round" stroke-linejoin="round" stroke-miterlimit="10" d="M25.337 7.626c1.589 1.589 2.456 3.782.668 6.574-1.222 1.91-3.049 3.529-4.844 5.023a131.133 131.133 0 0 1-13.147 9.643c-1.765 1.13-4.512 2.786-5.784 1.866l-.963-.962c-.919-1.272.736-4.019 1.866-5.784a131.133 131.133 0 0 1 9.643-13.147c1.494-1.795 3.113-3.622 5.023-4.844 2.792-1.787 4.985-.92 6.574.668l.964.963z" fill="none"/><path stroke="#333" stroke-linecap="round" stroke-linejoin="round" stroke-miterlimit="10" d="M16.356 7.073l2.857 2.857m-5.36-.086l2.723 2.723m-5.167.108l2.53 2.53m-4.825.449l2.187 2.188m-4.453.822l1.816 1.815m-3.932 1.343l1.294 1.294M24.071 6.643c1.348-1.789 1.742-4.207 1-6.143m-.36 6.734c.06-.12.173-.197.279-.276 1.032-.775 1.627-2.055 1.625-3.501m-1.258 4.472c1.789-1.348 4.207-1.742 6.143-1m-6.734.36c.12-.06.197-.173.276-.279.775-1.032 2.055-1.627 3.501-1.625" fill="none"/></svg>