<svg xmlns="http://www.w3.org/2000/svg" viewBox="0 0 32 32"><g stroke="#333" stroke-linecap="round" stroke-linejoin="round" stroke-miterlimit="10" fill="none"><circle cx="16" cy="16" r="15"/><circle cx="16" cy="16" r="11.5"/><path d="M24.132 7.868L7.868 24.132m19.24-5.156L4.892 13.024m8.132-8.132l5.952 22.216m.206-7.219c-.39-.39-.354-1.061-.354-1.061s.67-.037 1.061.354c.391.391.549.865.354 1.061-.196.195-.67.037-1.061-.354zm-7.071-7.071c.391.391 1.061.354 1.061.354s.037-.67-.354-1.061-.865-.549-1.061-.354c-.195.196-.037.67.354 1.061zm2.112 7.882c.143-.533.742-.836.742-.836s.367.562.224 1.095c-.143.534-.475.908-.742.837-.267-.072-.367-.562-.224-1.096zm2.588-9.659c-.143.533.224 1.095.224 1.095s.599-.303.742-.837c.143-.533.042-1.024-.224-1.095-.267-.071-.599.303-.742.837zM11.3 17.777c.533-.143.837-.742.837-.742s-.562-.367-1.095-.224c-.534.143-.908.475-.837.742.071.267.561.367 1.095.224zm9.659-2.588c-.533.143-1.095-.224-1.095-.224s.303-.599.836-.742c.534-.143 1.024-.043 1.095.224.072.267-.302.599-.836.742z"/></g></svg>