<svg xmlns="http://www.w3.org/2000/svg" viewBox="0 0 32 32"><path d="M18.899 25.83L18 30h-4l-.899-4.17c-.199.053-.403.09-.618.09-1.378 0-2.494-1.164-2.494-2.6 0-.195.024-.383.063-.566-1.169-.215-2.059-1.274-2.059-2.554 0-.195.024-.383.063-.566-1.169-.215-2.059-1.274-2.059-2.554 0-.666.247-1.267.642-1.727C5.685 14.989 5 14.042 5 12.92c0-1.436 1.117-2.6 2.494-2.6.197 0 .387.03.571.075a2.714 2.714 0 0 1-.072-.595c0-1.436 1.117-2.6 2.494-2.6.192 0 .377.027.556.07-.024-.195-.057-.388-.057-.59 0-2.585 2.01-4.68 4.49-4.68h1.048c2.48 0 4.49 2.095 4.49 4.68 0 .202-.033.395-.057.59.179-.043.364-.07.556-.07 1.378 0 2.494 1.164 2.494 2.6 0 .205-.028.403-.072.595a2.39 2.39 0 0 1 .571-.075c1.378 0 2.494 1.164 2.494 2.6 0 1.122-.685 2.069-1.64 2.433.395.46.642 1.061.642 1.727 0 1.28-.89 2.339-2.059 2.554.039.183.063.371.063.566 0 1.28-.89 2.339-2.059 2.554.039.183.063.371.063.566 0 1.436-1.117 2.6-2.494 2.6-.214 0-.418-.037-.617-.09zm-4.455-3.33c.267-4.549-.437-9.258-1.836-12.735A10.471 10.471 0 0 0 12.5 9.5m5.056 13c-.267-4.549.437-9.258 1.836-12.735L19.5 9.5m-8 5l-1-1m1 5l-1-1m10-3l1-1m-1 5l1-1" stroke="#333" stroke-linecap="round" stroke-linejoin="round" stroke-miterlimit="10" fill="none"/></svg>