<svg xmlns="http://www.w3.org/2000/svg" viewBox="0 0 32 32"><path d="M26.966 13.047c.122-1.524-.074-3.055-.758-4.416-1.726-3.434-5.721-4.362-8.779-3.08-1.202.503-3.034 1.566-3.429 3.094-.395-1.528-2.227-2.591-3.429-3.094-3.058-1.282-7.052-.354-8.779 3.08-.913 1.816-.957 3.935-.536 5.936.678 3.218 2.717 5.632 4.999 7.467 2.413 1.941 5.101 3.345 7.673 4.967h.143c1.259-.794 2.546-1.537 3.815-2.315M21.95 27c-1.348-.781-2.741-1.485-4.063-2.315a19.966 19.966 0 0 1-1.249-.845c-1.579-1.167-2.991-2.704-3.46-4.751-.292-1.273-.261-2.621.371-3.777 1.195-2.185 3.96-2.776 6.078-1.96.832.321 2.1.997 2.374 1.969.273-.972 1.542-1.649 2.374-1.969a5.4 5.4 0 0 1 2.592-.304c1.412.178 2.748.915 3.485 2.264.632 1.156.663 2.504.371 3.777-.469 2.048-1.881 3.584-3.461 4.751-1.671 1.234-3.532 2.128-5.312 3.16" stroke="#333" stroke-width="2" stroke-linecap="round" stroke-linejoin="round" stroke-miterlimit="10" fill="none"/></svg>