<svg xmlns="http://www.w3.org/2000/svg" viewBox="0 0 32 32"><path stroke="#333" stroke-width="2" stroke-linejoin="round" stroke-miterlimit="10" d="M27.25 13.429c-.289 0-.57.041-.84.112C25.588 11.454 23.757 10 21.625 10c-2.656 0-4.846 2.256-5.196 5.182a2.652 2.652 0 0 0-.429-.039c-1.657 0-3 1.535-3 3.428C13 20.465 14.343 22 16 22h11.25c2.071 0 3.75-1.919 3.75-4.286s-1.679-4.285-3.75-4.285z" fill="none"/><circle stroke="#333" stroke-width="2" stroke-miterlimit="10" cx="9" cy="10" r="2" fill="none"/><circle stroke="#333" stroke-width="2" stroke-miterlimit="10" cx="3" cy="17" r="2" fill="none"/><circle stroke="#333" stroke-width="2" stroke-miterlimit="10" cx="7" cy="23" r="2" fill="none"/><path stroke="#333" stroke-width="2" stroke-linecap="round" stroke-miterlimit="10" d="M14 12H9.5m1.5 3H3m7.5 6H7" fill="none"/></svg>