<svg xmlns="http://www.w3.org/2000/svg" viewBox="0 0 32 32"><path d="M24.74 24.088c-7.211 0-13.057-5.823-13.057-13.007 0-2.614.781-5.043 2.114-7.081C6.707 4.14 1 9.898 1 16.993 1 24.177 6.846 30 14.057 30A13.05 13.05 0 0 0 25 24.075l-.26.013zM28 3.5l1.082 2.304 2.418.37-1.75 1.793.413 2.533L28 9.304 25.837 10.5l.413-2.533-1.75-1.793 2.418-.37zm-6 11l.772 1.646 1.728.264-1.25 1.281.295 1.809L22 18.646l-1.545.854.295-1.809-1.25-1.281 1.727-.264zm-3-9l.772 1.646 1.728.264-1.25 1.281.295 1.809L19 9.646l-1.545.854.295-1.809L16.5 7.41l1.727-.264z" stroke="#333" stroke-linejoin="round" stroke-miterlimit="10" fill="none"/></svg>