<svg xmlns="http://www.w3.org/2000/svg" viewBox="0 0 32 32"><path d="M16.014 29.5c.495-.295 1.011-.55 1.476-.903.439-.334.831-.773.961-1.358.081-.364.073-.749-.103-1.079-.332-.625-1.1-.793-1.688-.56-.231.092-.583.285-.659.563-.076-.278-.428-.471-.659-.563-.588-.233-1.356-.064-1.688.56-.176.33-.184.715-.103 1.079.13.585.523 1.024.961 1.358.464.353.981.608 1.476.903M27 31H5a1 1 0 0 1-1-1v-6a1 1 0 0 1 1-1h22a1 1 0 0 1 1 1v6a1 1 0 0 1-1 1zM7 23v-7a1 1 0 0 1 1-1h16a1 1 0 0 1 1 1v7m-14-8V8a1 1 0 0 1 1-1h8a1 1 0 0 1 1 1v7M16 3.625V7m0-6" stroke="#333" stroke-linecap="round" stroke-linejoin="round" stroke-miterlimit="10" fill="none"/></svg>