<svg xmlns="http://www.w3.org/2000/svg" viewBox="0 0 32 32"><g stroke="#333" stroke-linejoin="round" stroke-miterlimit="10" fill="none"><circle cx="22" cy="9" r="1.3"/><path d="M22 2.5v5.2m0-3.467L20.267 2.5M22 4.233L23.733 2.5M22 15.5v-5.2m0 3.467l1.733 1.733M22 13.767L20.267 15.5"/><ellipse transform="rotate(-29.934 22 9)" cx="22" cy="9" rx="1.302" ry="1.303"/><path d="M27.633 5.739l-4.506 2.609m3.004-1.739l.635-2.376m-.635 2.376l2.369.636m-12.132 5.016l4.506-2.609m-3.004 1.739l-.635 2.376m.635-2.376l-2.37-.636"/><ellipse transform="rotate(-60.066 22 9)" cx="22" cy="9" rx="1.303" ry="1.302"/><path d="M16.368 5.739l4.506 2.609M17.87 6.609l-.635-2.376m.635 2.376l-2.37.636m12.133 5.016l-4.506-2.609m3.004 1.739l.635 2.376m-.635-2.376l2.369-.636M12 22.023V4a3 3 0 1 0-6 0v18.023c-1.434 1.084-2.282 2.902-1.914 4.912.357 1.95 1.902 3.551 3.843 3.954A5.006 5.006 0 0 0 14 26c0-1.631-.792-3.065-2-3.977zM9.5 19.5H12m-2.5-3H12m-2.5-3h2.562m-2.562-3h2.562M9.5 7.5h2.625M9.5 4.5h2.625"/></g></svg>