<svg xmlns="http://www.w3.org/2000/svg" viewBox="0 0 32 32"><path stroke="#333" stroke-width="2" stroke-linecap="round" stroke-linejoin="round" stroke-miterlimit="10" d="M18.417 22C20.948 22 23 19.762 23 17s-2.052-5-4.583-5c-.353 0-.696.048-1.026.13C16.385 9.697 14.147 8 11.542 8c-3.247 0-5.923 2.632-6.35 6.046A3.381 3.381 0 0 0 4.667 14C2.641 14 1 15.79 1 18s1.641 4 3.667 4m18.44-5.654a6.56 6.56 0 0 0 4.03.546A6.422 6.422 0 0 0 31 14.57c-3.569.519-7.008-2-7.751-5.742-.431-2.17.139-4.282 1.378-5.828l-.243.032c-3.655.674-6.002 4.323-5.241 8.15.056.282.127.557.213.825" fill="none"/><path stroke="#333" stroke-linecap="round" stroke-linejoin="round" stroke-miterlimit="10" d="M7.5 19.5v10m2-9v10m2-10v10m2-10v10m2-11v10" fill="none"/></svg>