<svg xmlns="http://www.w3.org/2000/svg" viewBox="0 0 32 32"><g stroke="#333" stroke-width="2" stroke-linejoin="round" stroke-miterlimit="10" fill="none"><circle cx="16" cy="16" r="3"/><path d="M16 1v12m0-8l-4-4m4 4l4-4m-4 30V19m0 8l4 4m-4-4l-4 4m5.501-12.393a2.998 2.998 0 0 1-4.101-1.102 3.013 3.013 0 0 1 1.099-4.111 2.998 2.998 0 0 1 4.101 1.102 3.014 3.014 0 0 1-1.099 4.111zM28.999 8.475L18.6 14.495m6.932-4.013L26.997 5m-1.465 5.482L31 11.951M3.001 23.525l10.399-6.02m-6.932 4.013L5.003 27m1.465-5.482L1 20.049"/><path d="M14.499 18.607a2.998 2.998 0 0 0 4.101-1.102 3.013 3.013 0 0 0-1.099-4.111 2.998 2.998 0 0 0-4.101 1.102 3.014 3.014 0 0 0 1.099 4.111zM3.001 8.475l10.399 6.02m-6.932-4.013L5.003 5m1.465 5.482L1 11.951m27.999 11.574L18.6 17.505m6.932 4.013L26.997 27m-1.465-5.482L31 20.049"/></g></svg>