<svg xmlns="http://www.w3.org/2000/svg" viewBox="0 0 32 32"><path d="M16.077 21.024c2.769-.665 5.664-1.241 8.262-2.037 2.457-.752 4.653-1.743 5.383-3.063.454-.821.407-1.69-.577-2.435-1.859-1.409-6.16-1.789-9.454-1.264-1.294.207-3.267.643-3.692 1.269-.425-.627-2.398-1.063-3.692-1.269-3.293-.526-7.594-.145-9.453 1.264-.983.745-1.031 1.614-.577 2.435.73 1.32 2.926 2.31 5.383 3.063 2.599.796 5.493 1.372 8.262 2.037m.155 0c2.769-.665 5.664-1.241 8.263-2.037 2.457-.752 4.653-1.743 5.383-3.063.454-.821.407-1.69-.577-2.435-1.859-1.409-6.161-1.789-9.454-1.264-1.294.207-3.267.643-3.692 1.269-.425-.627-2.398-1.063-3.692-1.269-3.293-.526-7.594-.145-9.454 1.264-.984.745-1.031 1.614-.577 2.435.73 1.32 2.926 2.31 5.383 3.063 2.599.796 5.493 1.372 8.263 2.037M30 14.966v11.072c-.749 1.038-3.002 1.817-5.523 2.409-2.502.587-5.271 1.022-7.95 1.506-.35.063-.705.063-1.055 0-2.679-.484-5.448-.919-7.95-1.506-2.52-.592-4.773-1.371-5.522-2.409V14.966m14 1.529V8m2-2a2 2 0 1 1-4 0c0-1.105 2-4 2-4s2 2.895 2 4z" stroke="#333" stroke-width="2" stroke-linecap="round" stroke-linejoin="round" stroke-miterlimit="10" fill="none"/></svg>