<svg xmlns="http://www.w3.org/2000/svg" viewBox="0 0 32 32"><g stroke="#333" stroke-linecap="round" stroke-miterlimit="10" fill="none"><path opacity=".98" d="M16 19v10.059C16 30.126 15.1 31 14 31s-2-.874-2-1.941v-.108"/><path d="M27.071 19.143c0-1.026-1.239-1.857-2.768-1.857-1.529 0-2.768.832-2.768 1.857 0-1.026-1.239-1.857-2.768-1.857-1.529 0-2.768.832-2.768 1.857 0-1.026-1.239-1.857-2.768-1.857-1.529 0-2.768.832-2.768 1.857 0-1.026-1.239-1.857-2.768-1.857-1.529 0-2.768.832-2.768 1.857C4.929 12.989 9.885 8 16 8s11.071 4.989 11.071 11.143zM17.5 2.5l-3 3m7-3l-3 3m7-3l-3 3m-9-3l-3 3m-1-3l-3 3"/></g></svg>