<svg xmlns="http://www.w3.org/2000/svg" viewBox="0 0 32 32"><path d="M16.033 22c1.187-.811 2.428-1.513 3.542-2.483 1.053-.917 1.994-2.125 2.307-3.733.195-1.001.174-2.06-.247-2.968-.797-1.717-2.64-2.181-4.052-1.54-.555.252-1.4.783-1.582 1.547-.182-.764-1.028-1.295-1.583-1.547-1.411-.641-3.255-.177-4.052 1.54-.422.908-.442 1.967-.247 2.968.313 1.609 1.254 2.816 2.307 3.733 1.114.97 2.354 1.672 3.541 2.483M1 6h30v20H1zm0 0l2.25 1.5L5.5 9l2.25 1.5m1.125 10.25l-1.125.75-1.125.75L5.5 23l-1.125.75-1.125.75-1.125.75L1 26M31 6l-2.25 1.5L26.5 9l-2.25 1.5m-1.125 10.25l1.125.75 1.125.75L26.5 23l1.125.75 1.125.75 1.125.75L31 26" stroke="#333" stroke-width="2" stroke-linecap="round" stroke-linejoin="round" stroke-miterlimit="10" fill="none"/></svg>