<svg xmlns="http://www.w3.org/2000/svg" viewBox="0 0 32 32"><path d="M21.758 25H18v-1.68c0-.176.047-.32-.2-.32h-3.6c-.247 0-.2.144-.2.32V25h-3.758c-.264 0-.321-.031-.127.174l5.533 5.772c.193.205.511.155.705-.05l5.533-5.697c.193-.205.136-.199-.128-.199zM16 1.025v2m12 10h-2m-20 0H4M24.485 4.54l-1.414 1.414m-14.142 0L7.515 4.54M11.05 19A7.02 7.02 0 0 1 9 14.029a7.02 7.02 0 0 1 2.05-4.97C12.317 7.787 14.067 7 16 7s3.683.787 4.95 2.059a7.02 7.02 0 0 1 2.05 4.97A7.028 7.028 0 0 1 20.95 19h-9.9z" stroke="#333" stroke-width="2" stroke-miterlimit="10" fill="none"/></svg>