<svg xmlns="http://www.w3.org/2000/svg" viewBox="0 0 32 32"><path d="M15 22.023V4a3 3 0 1 0-6 0v18.023c-1.434 1.084-2.282 2.902-1.914 4.912.357 1.95 1.902 3.551 3.843 3.954A5.006 5.006 0 0 0 17 26c0-1.631-.792-3.065-2-3.977zM12.5 19.5H15m-2.5-3H15m-2.5-3h2.562m-2.562-3h2.562m-2.562-3h2.625m-2.625-3h2.625m8.617 10.222c-.512-.523-.714-1.319-.702-2.035.013-.818.213-1.631.157-2.447-.055-.816-.33-1.681-1.14-2.032.384.597.205 1.369-.141 1.986-.346.616-.845 1.159-1.128 1.802-.517 1.175-.176 2.611.808 3.504-.768-.037-1.523-.324-2.082-.808-.701-.606-1.08-1.509-1.004-2.388.12-1.377 1.246-2.485 1.833-3.759.929-2.018.356-4.533-1.376-6.046 3.575 1.244 6.185 4.115 6.515 7.594.139 1.468-.521 3.524-1.74 4.629z" stroke="#333" stroke-linecap="round" stroke-linejoin="round" stroke-miterlimit="10" fill="none"/></svg>