<svg xmlns="http://www.w3.org/2000/svg" viewBox="0 0 32 32"><path fill="#333" d="M24.331 27h-6.77c.017.188.031.376.03.564a5.62 5.62 0 0 1-.122 1.13 6.816 6.816 0 0 1-.254.888 9.098 9.098 0 0 1-.737 1.533c-.202.34-.316.504-.316.504-.162.234-.117.381.088.381a.732.732 0 0 0 .202-.034l.354-.117a21.494 21.494 0 0 0 2.713-1.098 16.09 16.09 0 0 0 2.361-1.417c.211-.155.417-.313.613-.474.26-.212.506-.429.736-.651A10.96 10.96 0 0 0 24.331 27zM21.796 2l-.07.115a9.596 9.596 0 0 0-.381.706L21.26 3H7.004a6.01 6.01 0 0 1 .118-1h14.674m4.898-2H6.041c-.194 0-.443.208-.552.462l-.083.245a7.583 7.583 0 0 0-.382 1.885 8.174 8.174 0 0 0-.021.863c.01.305.033.619.074.943.024.194.069.399.108.602h17.478l.055-.209a7.354 7.354 0 0 1 .724-1.649 7.03 7.03 0 0 1 1.415-1.69A7.486 7.486 0 0 1 26.431.405l.319-.157c.355-.137.329-.248-.056-.248zm-6.216 9c.044.338.105.672.184 1H9.097a20.306 20.306 0 0 1-.58-1h11.961m1.951-2H5.492c.46 1.489 1.261 3.151 2.519 5h15.715c-1.008-1.367-1.466-3.191-1.297-5zm1.107 9c.17.325.32.66.451 1H14.04l-.855-1h10.351m1.137-2H8.934c.396.521.813 1.051 1.28 1.6 1.062 1.25 2.033 2.371 2.9 3.4h13.413a11.502 11.502 0 0 0-1.854-5zm-.335 9c-.09.34-.203.674-.34 1h-5.374a13.746 13.746 0 0 0-.548-1h6.262m2.262-2H14.173c1.541 1.904 2.622 3.485 3.116 5h7.939a9.838 9.838 0 0 0 1.372-5z"/></svg>