<svg xmlns="http://www.w3.org/2000/svg" viewBox="0 0 32 32"><path stroke="#333" stroke-width="2" stroke-linejoin="round" stroke-miterlimit="10" d="M18.417 20c-.353 0-.696.048-1.026.13-1.006-2.433-3.244-4.13-5.849-4.13-3.247 0-5.923 2.632-6.35 6.046A3.381 3.381 0 0 0 4.667 22C2.641 22 1 23.791 1 26s1.641 4 3.667 4h13.75C20.948 30 23 27.762 23 25s-2.052-5-4.583-5zm3.54-11.339c-.503-2.481.162-4.894 1.608-6.661l-.283.036c-4.264.77-7.002 4.94-6.115 9.315.887 4.374 5.062 7.296 9.326 6.526A7.52 7.52 0 0 0 31 15.224c-4.164.593-8.176-2.286-9.043-6.563z" fill="none"/></svg>