<svg xmlns="http://www.w3.org/2000/svg" viewBox="0 0 32 32"><path stroke="#333" stroke-width="2" stroke-linejoin="round" stroke-miterlimit="10" d="M23.583 5.571c-.418 0-.823.055-1.213.149C21.183 2.939 18.538 1 15.458 1c-3.837 0-6.999 3.008-7.505 6.909a4.227 4.227 0 0 0-.62-.052C4.94 7.857 3 9.903 3 12.429S4.94 17 7.333 17h16.25C26.575 17 29 14.442 29 11.286s-2.425-5.715-5.417-5.715z" fill="none"/><path fill="#333" d="M17.98 21l-.723 2.778h1.648c.105 0 .127.067.047.149l-5.859 6.026-.072.047-.003-.108 1.792-5.226h-1.682c-.106 0-.155-.09-.11-.201L14.022 21h3.958m0-2h-3.958a2 2 0 0 0-1.921 1.444l-.988 3.414a2.151 2.151 0 0 0 .249 1.872c.191.285.446.515.739.675l-.973 2.838c-.229.668-.137 1.365.253 1.912.374.526.994.845 1.64.845.324 0 .951-.085 1.503-.652l5.861-6.028a2.1 2.1 0 0 0 .453-2.281 2.059 2.059 0 0 0-1.044-1.07l.121-.466A2 2 0 0 0 17.98 19z"/></svg>