<svg xmlns="http://www.w3.org/2000/svg" viewBox="0 0 32 32"><path d="M16.03 11.5c1.088-.737 2.225-1.375 3.246-2.258.965-.834 1.828-1.931 2.115-3.394.178-.91.16-1.872-.227-2.698-.731-1.561-2.42-1.983-3.714-1.4-.508.229-1.283.712-1.45 1.407-.167-.695-.942-1.178-1.451-1.407-1.294-.583-2.984-.161-3.714 1.4-.386.826-.405 1.789-.227 2.698.287 1.463 1.149 2.56 2.115 3.394 1.021.882 2.158 1.52 3.246 2.258M15 14.344c-1.17 4.505-4.72 7.408-7.931 6.484S2.206 15.505 3.376 11L15 14.344zm-7.931 6.485l-2.316 9.116M1 28.89L8.507 31M17 14.344c1.17 4.505 4.72 7.408 7.93 6.484s4.864-5.324 3.694-9.829L17 14.344zm7.93 6.485l2.317 9.116M31 28.89L23.493 31" stroke="#333" stroke-linecap="round" stroke-linejoin="round" stroke-miterlimit="10" fill="none"/></svg>