<svg xmlns="http://www.w3.org/2000/svg" viewBox="0 0 32 32"><path stroke="#333" stroke-width="2" stroke-linejoin="round" stroke-miterlimit="10" d="M24.75 8.143c-.482 0-.949.061-1.4.168C21.98 5.182 18.928 3 15.375 3c-4.427 0-8.076 3.384-8.659 7.773A4.848 4.848 0 0 0 6 10.714c-2.762 0-5 2.302-5 5.143C1 18.698 3.238 21 6 21h18.75c3.452 0 6.25-2.878 6.25-6.429 0-3.55-2.798-6.428-6.25-6.428z" fill="none"/><path d="M24 24.5v5m2.5-2.5h-5m4.268-1.768l-3.536 3.536m3.536 0l-3.536-3.536M16 24.5v5m2.5-2.5h-5m4.268-1.768l-3.536 3.536m3.536 0l-3.536-3.536M8 24.5v5m2.5-2.5h-5m4.268-1.768l-3.536 3.536m3.536 0l-3.536-3.536" stroke="#333" stroke-linecap="round" stroke-miterlimit="10" fill="none"/></svg>