<svg xmlns="http://www.w3.org/2000/svg" viewBox="0 0 32 32"><g stroke="#333" stroke-linecap="round" stroke-linejoin="round" stroke-miterlimit="10" fill="none"><path d="M16.03 27.5c1.088-.737 2.225-1.375 3.246-2.257.965-.834 1.828-1.931 2.115-3.394.178-.91.16-1.872-.227-2.698-.73-1.561-2.42-1.983-3.714-1.4-.508.229-1.283.712-1.45 1.406-.167-.694-.942-1.178-1.45-1.406-1.294-.583-2.984-.161-3.714 1.4-.386.826-.405 1.788-.227 2.698.287 1.463 1.149 2.56 2.115 3.394 1.021.882 2.158 1.52 3.246 2.257"/><path d="M3 8h26v6H3zm24 6v16H5V14m10.5-6c-1.224-.403-2.418-.827-3.595-1.364-.79-.36-1.56-.846-2.025-1.579-.791-1.245-.322-2.727 1.18-3.004 1.488-.275 2.899.548 3.639 1.814.399.683.605 1.464.663 2.249.019.259-.18 1.779.138 1.884zm1 0c1.224-.403 2.417-.827 3.595-1.364.79-.36 1.56-.846 2.025-1.579.791-1.245.322-2.727-1.18-3.004-1.488-.275-2.899.548-3.639 1.814-.399.683-.605 1.464-.663 2.249-.019.259.18 1.779-.138 1.884z"/></g></svg>