<svg xmlns="http://www.w3.org/2000/svg" viewBox="0 0 32 32"><path d="M13.5 13.25c0 2.273-1.787 3.75-3.998 3.75C7.289 17 5.5 15.523 5.5 13.25S8.839 5 9.502 5c.659 0 3.998 5.977 3.998 8.25zm13-5.75c0 1.515-1.34 2.5-2.999 2.5-1.66 0-3.001-.985-3.001-2.5 0-1.515 2.504-5.5 3.001-5.5.495 0 2.999 3.984 2.999 5.5zm-3 17.499C23.5 28.03 21.266 30 18.503 30c-2.766 0-5.003-1.97-5.003-5.001C13.5 21.969 17.674 14 18.503 14c.823 0 4.997 7.969 4.997 10.999z" stroke="#333" stroke-width="2" stroke-linejoin="round" stroke-miterlimit="10" fill="none"/></svg>