<svg xmlns="http://www.w3.org/2000/svg" viewBox="0 0 32 32"><path d="M15.961 19c-1.385-.885-2.832-1.651-4.132-2.709-1.229-1.001-2.326-2.318-2.692-4.073A6.474 6.474 0 0 1 9.016 11c-.008-.7.1-1.393.411-2.019.93-1.873 3.08-2.379 4.727-1.68.647.274 1.633.854 1.846 1.687.213-.833 1.199-1.413 1.846-1.688 1.647-.699 3.797-.193 4.727 1.68.311.627.419 1.32.411 2.02a6.393 6.393 0 0 1-.122 1.218c-.365 1.755-1.463 3.072-2.691 4.073-1.299 1.058-2.747 1.824-4.132 2.709m-7.023-8H1v20h30V11h-8.016M31 11L16 1 1 11m0 20l13.043-10m3.913 0L31 31m0-20L17.956 21 16 22.5 14.043 21 1 11" stroke="#333" stroke-linecap="round" stroke-linejoin="round" stroke-miterlimit="10" fill="none"/></svg>