<svg xmlns="http://www.w3.org/2000/svg" viewBox="0 0 32 32"><path stroke="#333" stroke-width="2" stroke-linejoin="round" stroke-miterlimit="10" d="M23.541 6.996c-.36-1.861.115-3.671 1.148-4.996l-.202.027c-3.046.577-5.001 3.705-4.368 6.986.633 3.281 3.616 5.472 6.662 4.895 1.318-.25 2.431-.979 3.219-1.99-2.974.445-5.84-1.714-6.459-4.922zm-3.124 9.433c-.353 0-.696.041-1.026.112C18.385 14.454 16.147 13 13.542 13c-3.247 0-5.923 2.256-6.35 5.182a3.943 3.943 0 0 0-.525-.039C4.641 18.143 3 19.678 3 21.571 3 23.465 4.641 25 6.667 25h13.75C22.948 25 25 23.081 25 20.714s-2.052-4.285-4.583-4.285z" fill="none"/><g stroke="#333" stroke-width="2" stroke-linecap="round" stroke-miterlimit="10" fill="none"><circle cx="14" cy="29" r="1"/><circle cx="20" cy="29" r="1"/><circle cx="8" cy="29" r="1"/></g></svg>