<svg xmlns="http://www.w3.org/2000/svg" viewBox="0 0 32 32"><circle stroke="#333" stroke-width="2" stroke-miterlimit="10" cx="22" cy="10" r="4" fill="none"/><path stroke="#333" stroke-width="2" stroke-linecap="round" stroke-miterlimit="10" d="M22 2v1m8 7h-1m-14 0h-1m13.657-5.657l-.707.707m.707 10.607l-.707-.707m-9.9-9.9l-.707-.707" fill="none"/><path stroke="#333" stroke-width="2" stroke-linejoin="round" stroke-miterlimit="10" d="M19.417 16.429c-.353 0-.696.041-1.026.112C17.385 14.454 15.147 13 12.542 13c-3.247 0-5.923 2.256-6.35 5.182a3.943 3.943 0 0 0-.525-.039C3.641 18.143 2 19.678 2 21.571 2 23.465 3.641 25 5.667 25h13.75C21.948 25 24 23.081 24 20.714s-2.052-4.285-4.583-4.285z" fill="none"/><g stroke="#333" stroke-width="2" stroke-linecap="round" stroke-miterlimit="10" fill="none"><circle cx="13" cy="29" r="1"/><circle cx="19" cy="29" r="1"/><circle cx="7" cy="29" r="1"/></g></svg>