<svg xmlns="http://www.w3.org/2000/svg" viewBox="0 0 32 32"><path stroke="#333" stroke-width="2" stroke-linejoin="round" stroke-miterlimit="10" d="M27 28.125C27 29.261 26.106 30 25.001 30 23.895 30 23 29.261 23 28.125S24.669 24 25.001 24C25.33 24 27 26.988 27 28.125zm-18 0C9 29.261 8.106 30 7.001 30 5.895 30 5 29.261 5 28.125S6.669 24 7.001 24C7.331 24 9 26.988 9 28.125zM24.75 8.143c-.482 0-.949.061-1.4.168C21.98 5.182 18.928 3 15.375 3c-4.427 0-8.076 3.384-8.659 7.773A4.836 4.836 0 0 0 6 10.714c-2.762 0-5 2.302-5 5.143C1 18.698 3.238 21 6 21h18.75c3.452 0 6.25-2.878 6.25-6.429 0-3.55-2.798-6.428-6.25-6.428z" fill="none"/><circle stroke="#333" stroke-width="2" stroke-linecap="round" stroke-miterlimit="10" cx="16" cy="27" r="3" fill="none"/></svg>