<svg xmlns="http://www.w3.org/2000/svg" viewBox="0 0 32 32"><g stroke="#333" stroke-linecap="round" stroke-miterlimit="10" fill="none"><path opacity=".98" d="M16 19v10.059C16 30.126 15.1 31 14 31s-2-.874-2-1.941v-.108"/><path d="M27.071 19.143c0-1.026-1.239-1.857-2.768-1.857-1.529 0-2.768.832-2.768 1.857 0-1.026-1.239-1.857-2.768-1.857-1.529 0-2.768.832-2.768 1.857 0-1.026-1.239-1.857-2.768-1.857-1.529 0-2.768.832-2.768 1.857 0-1.026-1.239-1.857-2.768-1.857-1.529 0-2.768.832-2.768 1.857C4.929 12.989 9.885 8 16 8s11.071 4.989 11.071 11.143z"/><circle cx="16" cy="5" r=".5"/><circle cx="12" cy="5" r=".5"/><circle cx="8" cy="5" r=".5"/><circle cx="20" cy="5" r=".5"/><circle cx="24" cy="5" r=".5"/><circle cx="18" cy="2" r=".5"/><circle cx="14" cy="2" r=".5"/><circle cx="10" cy="2" r=".5"/><circle cx="22" cy="2" r=".5"/><circle cx="26" cy="2" r=".5"/></g></svg>