<svg xmlns="http://www.w3.org/2000/svg" viewBox="0 0 32 32"><path d="M29 30H3a1 1 0 0 1-1-1V8a1 1 0 0 1 1-1h26a1 1 0 0 1 1 1v21a1 1 0 0 1-1 1zM9 3v6m14-6v6M2 12.5h28m-9.712 13c1.037-.663 2.121-1.238 3.094-2.032.92-.751 1.742-1.738 2.015-3.055.17-.819.152-1.685-.216-2.428-.696-1.405-2.307-1.784-3.54-1.26-.484.206-1.223.641-1.382 1.266-.159-.625-.898-1.06-1.382-1.266-1.233-.524-2.844-.145-3.54 1.26-.368.743-.386 1.61-.216 2.428.273 1.316 1.095 2.304 2.015 3.055.973.794 2.057 1.368 3.094 2.032m-8.46 0c1.037-.663 2.121-1.238 3.094-2.032.92-.751 1.742-1.738 2.015-3.055.17-.819.152-1.685-.216-2.428-.696-1.405-2.306-1.784-3.54-1.26-.485.206-1.223.641-1.382 1.266-.159-.625-.898-1.06-1.382-1.266-1.233-.524-2.844-.145-3.54 1.26-.368.743-.386 1.61-.216 2.428.273 1.316 1.095 2.304 2.015 3.055.973.794 2.057 1.368 3.094 2.032" stroke="#333" stroke-linecap="round" stroke-linejoin="round" stroke-miterlimit="10" fill="none"/></svg>