<svg xmlns="http://www.w3.org/2000/svg" viewBox="0 0 32 32"><path stroke="#333" stroke-width="2" stroke-linejoin="round" stroke-miterlimit="10" d="M24.75 12.143c-.482 0-.949.061-1.4.168C21.98 9.182 18.928 7 15.375 7c-4.427 0-8.076 3.384-8.659 7.773A4.836 4.836 0 0 0 6 14.714c-2.762 0-5 2.302-5 5.143C1 22.698 3.238 25 6 25h18.75c3.452 0 6.25-2.878 6.25-6.429 0-3.55-2.798-6.428-6.25-6.428z" fill="none"/><path stroke="#333" stroke-linecap="round" stroke-miterlimit="10" d="M13.5 10.5c-1.658 0-3 1.342-3 3" fill="none"/></svg>