<svg xmlns="http://www.w3.org/2000/svg" viewBox="0 0 32 32"><g stroke="#333" stroke-width="2" stroke-linecap="round" stroke-linejoin="round" stroke-miterlimit="10" fill="none"><path d="M16.033 22c1.187-.811 2.427-1.513 3.541-2.483 1.053-.917 1.994-2.125 2.307-3.733.195-1.001.174-2.06-.247-2.968-.797-1.717-2.64-2.181-4.052-1.54-.555.252-1.4.783-1.582 1.547-.182-.764-1.028-1.295-1.582-1.547-1.411-.641-3.255-.177-4.051 1.54-.422.908-.442 1.967-.247 2.968.313 1.609 1.254 2.816 2.307 3.733 1.114.97 2.354 1.672 3.541 2.483"/><circle cx="16" cy="16" r="13"/><path d="M5 16H1m30 0h-4M16 5V1m0 30v-4"/></g></svg>