<svg xmlns="http://www.w3.org/2000/svg" viewBox="0 0 32 32"><path stroke="#333" stroke-width="2" stroke-linecap="round" stroke-linejoin="round" stroke-miterlimit="10" d="M14.75 11.857c.289 0 .569.034.839.093.823-1.738 2.654-2.95 4.786-2.95 2.656 0 4.845 1.88 5.196 4.319.14-.019.283-.033.429-.033 1.657 0 3 1.279 3 2.857C29 17.721 27.657 19 26 19H14.75C12.679 19 11 17.402 11 15.429s1.679-3.572 3.75-3.572zm4.046-5.575c-.507-1.36-1.615-2.303-3.029-2.303-.261 0-.463.043-.708.105-.742-1.821-2.37-3.087-4.296-3.087-2.399 0-4.363 1.972-4.68 4.526a2.366 2.366 0 0 0-.38-.033c-1.496 0-2.706 1.101-2.706 2.755C2.997 9.898 4.213 11 5.709 11H9" fill="none"/><path fill="#333" d="M17.978 22l-1.723 2.778h1.648c.105 0 .127.067.047.149l-5.86 6.026-.07.047-.003-.108 1.792-5.226h-1.683c-.105 0-.155-.09-.11-.201L14.02 22h3.958m0-1H14.02a1 1 0 0 0-.866.5l-2.003 3.466a1.159 1.159 0 0 0 .039 1.208c.207.309.557.494.937.494h.282l-1.338 3.901c-.169.492.003.841.121 1.006.188.262.505.425.828.425.204 0 .506-.061.787-.35l5.86-6.026c.324-.333.419-.791.249-1.195a1.063 1.063 0 0 0-.869-.642l.781-1.259a.999.999 0 0 0-.85-1.528zm10 1l-1.723 2.778h1.648c.105 0 .127.067.047.149l-5.86 6.026-.07.047-.003-.108 1.792-5.226h-1.683c-.105 0-.155-.09-.11-.201L24.02 22h3.958m0-1H24.02a1 1 0 0 0-.866.5l-2.003 3.466a1.159 1.159 0 0 0 .039 1.208c.207.309.557.494.937.494h.282l-1.338 3.901c-.169.492.003.841.121 1.006.188.262.505.425.828.425.204 0 .506-.061.787-.35l5.86-6.026c.324-.333.419-.791.249-1.195a1.063 1.063 0 0 0-.869-.642l.781-1.259a.999.999 0 0 0-.85-1.528z"/></svg>