<svg xmlns="http://www.w3.org/2000/svg" viewBox="0 0 32 32"><path d="M16.025 12.5c.89-.59 1.821-1.1 2.656-1.806.79-.667 1.496-1.545 1.73-2.715.146-.728.131-1.498-.185-2.158-.598-1.249-1.98-1.586-3.039-1.12-.416.182-1.05.569-1.187 1.125-.137-.556-.771-.943-1.187-1.126-1.059-.466-2.441-.129-3.039 1.12-.316.661-.331 1.431-.186 2.158.235 1.17.941 2.048 1.73 2.715.835.706 1.766 1.216 2.656 1.806M4.529 17.2c0-2.32 1.896-4.2 4.235-4.2S13 14.88 13 17.2c0 6.65-4.848 9.8-9.957 9.8A8.73 8.73 0 0 1 1 26.752c2.148-2.536 3.529-5.877 3.529-9.552zm22.942 0c0-2.32-1.896-4.2-4.235-4.2S19 14.88 19 17.2c0 6.65 4.848 9.8 9.957 9.8A8.73 8.73 0 0 0 31 26.752c-2.148-2.536-3.529-5.877-3.529-9.552zM9.5 16.5h1m11 0h1m-8 3L13 18.27l1.5-.77m3 2l1.5-1.23-1.5-.77m-8 3c-.078.792-.365 1.528-.931 2.093A3.124 3.124 0 0 1 6.5 23.5m16-3c.078.792.365 1.528.931 2.093a3.133 3.133 0 0 0 2.069.907" stroke="#333" stroke-linecap="round" stroke-linejoin="round" stroke-miterlimit="10" fill="none"/></svg>