<svg xmlns="http://www.w3.org/2000/svg" viewBox="0 0 32 32"><path d="M21.957 8.661c-.503-2.481.162-4.894 1.608-6.661l-.283.036c-4.264.77-7.002 4.94-6.115 9.315.887 4.374 5.062 7.296 9.326 6.526A7.52 7.52 0 0 0 31 15.224c-4.164.593-8.176-2.286-9.043-6.563zM1 30h30M1 26h30m-8 0c0-2.762-2.064-5-4.611-5-.355 0-.7.048-1.032.13-1.011-2.433-3.262-4.13-5.883-4.13-3.266 0-5.958 2.632-6.388 6.046A3.41 3.41 0 0 0 4.558 23C2.841 23 1.411 24.278 1 26" stroke="#333" stroke-width="2" stroke-miterlimit="10" fill="none"/></svg>