<svg xmlns="http://www.w3.org/2000/svg" viewBox="0 0 32 32"><path d="M16.03 24.5c1.088-.737 2.225-1.375 3.246-2.257.965-.834 1.828-1.931 2.115-3.394.178-.91.16-1.872-.227-2.698-.73-1.561-2.42-1.983-3.714-1.4-.508.229-1.283.712-1.45 1.406-.167-.694-.942-1.178-1.45-1.406-1.294-.583-2.984-.161-3.714 1.4-.386.826-.405 1.788-.227 2.698.287 1.463 1.149 2.56 2.115 3.394 1.021.882 2.158 1.52 3.246 2.257M7 7h18v23H7zm11 0V2L7 7" stroke="#333" stroke-linecap="round" stroke-linejoin="round" stroke-miterlimit="10" fill="none"/></svg>