<svg xmlns="http://www.w3.org/2000/svg" viewBox="0 0 32 32"><path d="M13.665 8.494C13.09 5.703 13.85 2.987 15.503 1l-.324.041c-4.873.866-8.002 5.557-6.988 10.479 1.013 4.921 5.785 8.208 10.658 7.342A8.626 8.626 0 0 0 24 15.877c-4.759.667-9.344-2.571-10.335-7.383zm8.093 16.429H18v-1.68c0-.176.047-.32-.2-.32h-3.6c-.247 0-.2.144-.2.32v1.68h-3.758c-.264 0-.321-.031-.127.174l5.533 5.772c.193.205.511.155.705-.05l5.533-5.697c.193-.205.136-.199-.128-.199z" stroke="#333" stroke-width="2" stroke-miterlimit="10" fill="none"/></svg>