<svg xmlns="http://www.w3.org/2000/svg" viewBox="0 0 32 32"><g stroke="#333" stroke-width="2" stroke-miterlimit="10" fill="none"><path d="M15.114 22.683c.322 0 .635.04.936.108a5.85 5.85 0 0 1 5.335-3.435 5.839 5.839 0 0 1 5.792 5.028 3.335 3.335 0 0 1 3.822 3.288A3.334 3.334 0 0 1 27.656 31H15.114c-2.31 0-4.181-1.861-4.181-4.158 0-2.297 1.871-4.159 4.181-4.159zm5.308-6.381a4.183 4.183 0 0 0-4.472-1.861 5.853 5.853 0 0 0-5.334-3.438 5.838 5.838 0 0 0-5.792 5.027 3.268 3.268 0 0 0-.478-.038C2.497 15.991 1 17.658 1 19.495 1 21.333 2.497 23 4.345 23H8.59"/><circle cx="23" cy="9" r="4"/><path d="M23 1v1m0 14v1m8-8h-1M16 9h-1m13.657-5.657l-.707.707m.707 10.607l-.707-.707m-9.9-9.9l-.707-.707"/></g></svg>