<svg xmlns="http://www.w3.org/2000/svg" viewBox="0 0 32 32"><path d="M22.544 23c1.583-1.032 3.237-1.926 4.722-3.161 1.404-1.167 2.659-2.704 3.076-4.751.26-1.273.232-2.621-.33-3.777-1.062-2.185-3.521-2.776-5.403-1.96-.74.32-1.867.997-2.11 1.969-.243-.972-1.37-1.649-2.11-1.969-1.882-.816-4.34-.225-5.402 1.96-.562 1.156-.589 2.504-.33 3.777.417 2.048 1.672 3.584 3.076 4.751 1.485 1.235 3.139 2.128 4.722 3.161M9.544 23c1.583-1.032 3.237-1.926 4.722-3.161 1.404-1.167 2.659-2.704 3.076-4.751.259-1.273.232-2.621-.33-3.777-1.062-2.185-3.52-2.776-5.402-1.96-.74.32-1.867.997-2.11 1.969-.243-.973-1.37-1.649-2.11-1.97-1.882-.816-4.34-.225-5.403 1.96-.562 1.156-.589 2.504-.33 3.777.417 2.048 1.672 3.584 3.076 4.751 1.486 1.236 3.14 2.13 4.723 3.162" stroke="#333" stroke-width="2" stroke-linecap="round" stroke-linejoin="round" stroke-miterlimit="10" fill="none"/></svg>