<svg xmlns="http://www.w3.org/2000/svg" viewBox="0 0 32 32"><path stroke="#333" stroke-width="2" stroke-linecap="round" stroke-linejoin="round" stroke-miterlimit="10" d="M13.066 28c2.374-1.474 4.855-2.751 7.083-4.515 2.106-1.668 3.989-3.863 4.614-6.788.389-1.819.348-3.745-.494-5.396-1.594-3.122-5.281-3.965-8.104-2.8-1.109.458-2.8 1.424-3.165 2.813-.365-1.389-2.056-2.355-3.165-2.813-2.823-1.165-6.51-.322-8.104 2.8-.843 1.651-.884 3.577-.495 5.396.626 2.925 2.508 5.12 4.614 6.788 2.228 1.764 4.709 3.041 7.083 4.515m-5.6-3.333l-2.086 2.086L2 30" fill="none"/><path fill="#333" d="M28.328 4.379l-9.387 10.094a1 1 0 1 1-1.414-1.414l10.094-9.387a.5.5 0 0 1 .707.707z"/><path stroke="#333" stroke-width="2" stroke-linecap="round" stroke-linejoin="round" stroke-miterlimit="10" d="M7.051 29.278L2 30l.721-5.051" fill="none"/><path stroke="#333" stroke-linecap="round" stroke-linejoin="round" stroke-miterlimit="10" d="M30.5 5.108l-3.968.36.36-3.968m1.443 5.772l-3.968.361.361-3.968" fill="none"/></svg>