<svg xmlns="http://www.w3.org/2000/svg" viewBox="0 0 32 32"><path stroke="#333" stroke-width="2" stroke-linejoin="round" stroke-miterlimit="10" d="M24.75 8.143c-.482 0-.949.062-1.4.168C21.98 5.182 18.928 3 15.375 3c-4.427 0-8.076 3.384-8.659 7.773A4.848 4.848 0 0 0 6 10.714c-2.762 0-5 2.302-5 5.143C1 18.698 3.238 21 6 21h18.75c3.452 0 6.25-2.878 6.25-6.429 0-3.55-2.798-6.428-6.25-6.428zM9 28.125C9 29.261 8.106 30 7.001 30 5.894 30 5 29.261 5 28.125S6.669 24 7.001 24C7.33 24 9 26.988 9 28.125zm9 0C18 29.261 17.106 30 16.001 30 14.894 30 14 29.261 14 28.125S15.669 24 16.001 24C16.33 24 18 26.988 18 28.125zm9 0C27 29.261 26.106 30 25.001 30 23.894 30 23 29.261 23 28.125S24.669 24 25.001 24C25.33 24 27 26.988 27 28.125z" fill="none"/></svg>