<svg xmlns="http://www.w3.org/2000/svg" viewBox="0 0 32 32"><path stroke="#333" stroke-width="2" stroke-linecap="round" stroke-miterlimit="10" d="M21 2v2m10 8h-2m-16 0h-2m17.071-7.071l-1.414 1.414m1.414 12.728l-1.414-1.414M15.343 6.343l-1.414-1.414" fill="none"/><circle stroke="#333" stroke-width="2" stroke-linecap="round" stroke-linejoin="round" stroke-miterlimit="10" cx="21" cy="12" r="5" fill="none"/><path stroke="#333" stroke-width="2" stroke-linecap="round" stroke-miterlimit="10" d="M1 30h30M1 26h30m-8 0c0-2.762-2.064-5-4.611-5-.355 0-.7.048-1.032.13-1.011-2.433-3.262-4.13-5.883-4.13-3.266 0-5.958 2.632-6.388 6.046A3.41 3.41 0 0 0 4.558 23C2.841 23 1.411 24.278 1 26" fill="none"/></svg>