<svg xmlns="http://www.w3.org/2000/svg" viewBox="0 0 32 32"><g stroke="#333" stroke-linejoin="round" stroke-miterlimit="10" fill="none"><path d="M22.249 2.824a5.984 5.984 0 0 0-2.759-1.622c-3.227-.859-6.53 1.098-7.376 4.37C11.268 8.844 15.402 17 15.402 17s4.716-3.158 7.11-6.097"/><path d="M22.512 10.903c-.893-1.888-1.673-3.999-1.484-5.334a5.449 5.449 0 0 1 1.221-2.745c1.088-1.298 2.745-2.025 4.48-1.775 2.738.393 4.625 3.054 4.214 5.943-.41 2.89-6.196 8.008-6.196 8.008s-1.194-1.897-2.235-4.097zM9.769 6.148C11.434 8.44 10.927 16 10.927 16s-7.226-1.689-8.891-3.981C.372 9.727.753 6.555 2.888 4.933c2.135-1.621 5.216-1.077 6.881 1.215zM10.927 16c2.676 4.872 3.96 10.032 3.281 15.5M15.402 17c-1.154 4.849-.997 9.593-.24 14.5m9.642-16.428c-.386.985-.826 1.704-1.679 2.354-.811.619-1.736 1.068-2.651 1.507-1.245.597-2.463 1.201-3.431 2.211a7.594 7.594 0 0 0-1.968 3.74c-.454 2.284.175 4.626 1.323 6.616"/></g></svg>