<svg xmlns="http://www.w3.org/2000/svg" viewBox="0 0 32 32"><path d="M11.249 20.71c-1.232-.243-2.43-.585-3.713-.685-1.213-.095-2.534.057-3.709.844-.731.489-1.364 1.148-1.656 1.963-.552 1.542.31 2.969 1.577 3.455.498.191 1.347.392 1.926.039-.353.579-.152 1.428.039 1.926.486 1.267 1.913 2.129 3.455 1.577.816-.292 1.474-.925 1.963-1.656.787-1.175.938-2.496.844-3.709-.1-1.283-.442-2.482-.685-3.713m0 0L29.273 2m-1.361 1.677L30 5.824m-4.114-.385l1.87 1.923m-3.345-.363L26.26 8.9m-15.385 9.975l.375.375.375.375L12 20l.375.375.375.375.375.375" stroke="#333" stroke-linecap="round" stroke-linejoin="round" stroke-miterlimit="10" fill="none"/></svg>