<svg xmlns="http://www.w3.org/2000/svg" viewBox="0 0 32 32"><path d="M1 7h6v9H1zm12 0h6v9h-6zm12 0h6v9h-6zm3 9v5.25a2 2 0 0 1-2 2H6a2 2 0 0 1-2-2V16m12 0v14m6 1l-6-1-6 1M5.5 3.833C5.5 4.754 4.828 5.5 4 5.5s-1.5-.746-1.5-1.667C2.5 2.913 4 .5 4 .5s1.5 2.413 1.5 3.333zm12 0c0 .92-.672 1.667-1.5 1.667s-1.5-.746-1.5-1.667C14.5 2.913 16 .5 16 .5s1.5 2.413 1.5 3.333zm12 0c0 .92-.672 1.667-1.5 1.667s-1.5-.746-1.5-1.667C26.5 2.913 28 .5 28 .5s1.5 2.413 1.5 3.333z" stroke="#333" stroke-linecap="round" stroke-linejoin="round" stroke-miterlimit="10" fill="none"/></svg>