<svg xmlns="http://www.w3.org/2000/svg" viewBox="0 0 32 32"><path stroke="#333" stroke-width="2" stroke-linecap="round" stroke-linejoin="round" stroke-miterlimit="10" d="M16.077 28c2.77-1.769 5.664-3.301 8.263-5.418 2.457-2.001 4.653-4.635 5.383-8.145.454-2.183.406-4.494-.577-6.475-1.859-3.746-6.161-4.758-9.454-3.36-1.294.548-3.267 1.707-3.692 3.374-.425-1.667-2.398-2.826-3.692-3.376-3.293-1.398-7.595-.386-9.454 3.36-.983 1.982-1.031 4.292-.577 6.475.73 3.51 2.926 6.144 5.383 8.145 2.599 2.117 5.493 3.649 8.263 5.418" fill="none"/></svg>