<svg xmlns="http://www.w3.org/2000/svg" viewBox="0 0 32 32"><g stroke="#333" stroke-linecap="round" stroke-linejoin="round" stroke-miterlimit="10" fill="none"><path d="M16.019 13.5c.692-.442 1.416-.825 2.066-1.354.614-.5 1.163-1.159 1.346-2.036.114-.546.102-1.123-.144-1.619-.465-.937-1.54-1.19-2.364-.84-.324.136-.817.426-.923.843-.106-.417-.6-.707-.923-.844-.823-.35-1.899-.097-2.364.84-.246.495-.258 1.073-.144 1.619.182.877.731 1.536 1.346 2.036.65.529 1.373.912 2.066 1.354M10.874 16H6L2 30h28l-4-14h-4.874"/><path d="M10.874 16C9.808 13.579 9 11.313 9 10a7 7 0 1 1 14 0c0 1.313-.808 3.579-1.874 6C19.052 20.708 16 26 16 26s-3.052-5.292-5.126-10z"/></g></svg>