<svg xmlns="http://www.w3.org/2000/svg" viewBox="0 0 32 32"><path d="M15.167 18.429c.321 0 .632.041.933.112.913-2.087 2.948-3.541 5.317-3.541 2.951 0 5.384 2.256 5.773 5.182.156-.023.314-.039.477-.039 1.841 0 3.333 1.534 3.333 3.428S29.508 27 27.667 27h-12.5C12.865 27 11 25.082 11 22.715c0-2.368 1.865-4.286 4.167-4.286zM21 12.184c-.634-1.586-2.147-2.697-3.914-2.697-.326 0-.643.045-.948.117C15.21 7.479 13.143 6 10.736 6c-2.999 0-5.47 2.299-5.865 5.279a3.214 3.214 0 0 0-.484-.039C2.516 11.24 1 12.691 1 14.62 1 16.549 2.516 18 4.387 18H9.01" stroke="#333" stroke-width="2" stroke-linejoin="round" stroke-miterlimit="10" fill="none"/></svg>