<svg xmlns="http://www.w3.org/2000/svg" viewBox="0 0 32 32"><g stroke="#333" stroke-linecap="round" stroke-linejoin="round" stroke-miterlimit="10" fill="none"><path d="M14.961 13c-1.385-.885-2.832-1.651-4.132-2.709C9.601 9.29 8.503 7.973 8.138 6.218A6.4 6.4 0 0 1 8.016 5c-.008-.7.1-1.393.411-2.02.93-1.873 3.08-2.379 4.727-1.68.647.275 1.633.855 1.846 1.688.213-.833 1.199-1.413 1.846-1.688 1.647-.699 3.797-.193 4.727 1.68.311.627.419 1.32.411 2.02a6.4 6.4 0 0 1-.122 1.218c-.365 1.755-1.463 3.072-2.691 4.073-1.3 1.058-2.747 1.824-4.132 2.709m-1.322 18c-1.21-3.044-.675-6.347.043-9.492.642-2.814 1.425-5.669 1.201-8.509"/><path d="M13.861 21.5c.314-1.276 1.339-2.028 2.424-2.639a12.234 12.234 0 0 1 4.212-1.438M13 25.5c.156-.772-.158-1.116-.424-1.571-.929-1.587-2.406-2.824-4.113-3.501m-.991-3.9c1.355 1.355.981 3.925.981 3.925s-2.57.373-3.925-.981c-1.355-1.355-.981-3.925-.981-3.925s2.57-.373 3.925.981zm15.897-1.916c-1.933.522-2.869 2.832-2.869 2.832s2.198 1.465 4.131.943c1.933-.522 2.869-2.832 2.869-2.832s-2.198-1.464-4.131-.943z"/></g></svg>