<svg xmlns="http://www.w3.org/2000/svg" viewBox="0 0 32 32"><path d="M16.01 28.982L18.654 31l2.641-2.018L23.939 31c.473 0 .776-.258 1.032-.589.83-1.076 1.139-2.457 1.001-3.809-.226-2.196-.858-5.476-2.607-8.311-1.054-1.708-2.306-3.448-2.972-5.359-.231-.662-.416-1.502-.262-2.193.34-1.532 1.303-2.743.766-4.383-.417-1.272-1.479-2.253-2.827-2.293-1.063-.031-2.154.506-2.066 1.714h-.005c.088-1.208-1.003-1.745-2.066-1.714-1.348.039-2.411 1.02-2.827 2.293-.537 1.64.426 2.851.766 4.383.154.691-.031 1.531-.262 2.193-.666 1.911-1.918 3.65-2.972 5.359-1.748 2.835-2.381 6.116-2.607 8.311-.139 1.352.171 2.733 1 3.809.254.331.558.589 1.031.589l2.644-2.018L13.347 31l2.644-2.018M12.843 4.18a5.923 5.923 0 0 1-.1-3.68m6.397 3.714c.431-1.196.478-2.5.112-3.714m-8.323 14.176c2.907 1.098 7.218 1.099 10.128.003" stroke="#333" stroke-linecap="round" stroke-linejoin="round" stroke-miterlimit="10" fill="none"/></svg>