<svg xmlns="http://www.w3.org/2000/svg" viewBox="0 0 32 32"><path d="M8.519 13c.693-.442 1.416-.825 2.066-1.354.614-.5 1.163-1.159 1.346-2.036.113-.546.102-1.123-.144-1.619-.465-.937-1.54-1.19-2.364-.84-.323.136-.817.426-.923.843-.106-.417-.6-.707-.923-.844-.823-.35-1.899-.097-2.364.84-.246.496-.257 1.073-.144 1.619.182.877.732 1.536 1.346 2.036.65.529 1.373.912 2.066 1.354M17.519 8c.692-.442 1.416-.825 2.066-1.354.614-.5 1.163-1.159 1.346-2.036.114-.546.102-1.123-.144-1.619-.465-.937-1.54-1.19-2.364-.84-.323.136-.817.426-.923.843-.106-.417-.6-.707-.923-.844-.823-.35-1.899-.097-2.364.84-.246.495-.258 1.073-.144 1.619.182.878.732 1.536 1.346 2.036.65.529 1.373.912 2.066 1.354M6 31h14M1 14v2c0 6.627 5.373 12 12 12 4.012 0 7.554-1.976 9.733-5a11.917 11.917 0 0 0 2.216-6c.028-.331.051-.662.051-1v-2H1zm5.286 8.861C4.565 21.231 3.5 18.981 3.5 16.5M22.733 23H27a3 3 0 1 0 0-6h-2.05" stroke="#333" stroke-linecap="round" stroke-linejoin="round" stroke-miterlimit="10" fill="none"/></svg>