<svg xmlns="http://www.w3.org/2000/svg" viewBox="0 0 32 32"><path d="M16.077 28c2.77-1.769 5.664-3.301 8.263-5.418 2.457-2.001 4.653-4.635 5.383-8.145.454-2.183.406-4.494-.577-6.475-1.859-3.746-6.161-4.758-9.454-3.36-1.294.548-3.267 1.707-3.692 3.374-.425-1.667-2.398-2.826-3.692-3.376-3.293-1.398-7.595-.386-9.454 3.36-.983 1.982-1.031 4.292-.577 6.475.73 3.51 2.926 6.144 5.383 8.145 2.599 2.117 5.493 3.649 8.263 5.418M16.039 23c1.385-.885 2.832-1.651 4.132-2.709 1.229-1.001 2.326-2.318 2.691-4.073.227-1.092.203-2.247-.288-3.238-.93-1.873-3.08-2.379-4.727-1.68-.647.275-1.633.854-1.846 1.688-.213-.833-1.199-1.413-1.846-1.688-1.647-.699-3.797-.193-4.727 1.68-.492.991-.515 2.146-.288 3.238.365 1.755 1.463 3.072 2.692 4.073 1.299 1.058 2.747 1.824 4.132 2.709" stroke="#333" stroke-width="2" stroke-linecap="round" stroke-linejoin="round" stroke-miterlimit="10" fill="none"/></svg>