<svg xmlns="http://www.w3.org/2000/svg" viewBox="0 0 32 32"><g stroke="#333" stroke-linecap="round" stroke-linejoin="round" stroke-miterlimit="10" fill="none"><path d="M16.019 31c.692-.442 1.416-.825 2.066-1.354.614-.5 1.163-1.159 1.346-2.036.113-.546.102-1.124-.144-1.619-.465-.937-1.54-1.19-2.364-.84-.323.137-.817.426-.923.843-.106-.417-.6-.707-.923-.844-.823-.35-1.899-.097-2.363.84-.246.495-.258 1.073-.144 1.619.183.878.732 1.536 1.346 2.036.65.529 1.373.912 2.066 1.354"/><circle cx="16" cy="2" r="1.5"/><circle cx="16" cy="22" r="1.5"/><circle cx="26" cy="12" r="1.5"/><circle cx="6" cy="12" r="1.5"/><ellipse transform="rotate(-45.001 23.071 4.93)" cx="23.071" cy="4.929" rx="1.5" ry="1.5"/><ellipse transform="rotate(-45.001 8.929 19.071)" cx="8.929" cy="19.071" rx="1.5" ry="1.5"/><ellipse transform="rotate(-45.001 23.071 19.071)" cx="23.071" cy="19.071" rx="1.5" ry="1.5"/><ellipse transform="rotate(-45.001 8.929 4.93)" cx="8.929" cy="4.929" rx="1.5" ry="1.5"/><ellipse transform="rotate(-68 19.746 2.728)" cx="19.746" cy="2.728" rx="1.5" ry="1.5"/><ellipse transform="rotate(-68 12.254 21.271)" cx="12.254" cy="21.272" rx="1.5" ry="1.5"/><ellipse transform="rotate(-68 25.271 15.746)" cx="25.272" cy="15.746" rx="1.5" ry="1.5"/><ellipse transform="rotate(-68 6.728 8.254)" cx="6.728" cy="8.254" rx="1.5" ry="1.5"/><ellipse transform="rotate(-23.001 25.205 8.094)" cx="25.205" cy="8.093" rx="1.5" ry="1.5"/><ellipse transform="rotate(-23.001 6.794 15.908)" cx="6.795" cy="15.907" rx="1.5" ry="1.5"/><ellipse transform="rotate(-23.001 19.907 21.206)" cx="19.907" cy="21.205" rx="1.5" ry="1.5"/><ellipse transform="rotate(-23.001 12.093 2.795)" cx="12.093" cy="2.795" rx="1.5" ry="1.5"/><path d="M16 23.5v2.494"/></g></svg>