<svg xmlns="http://www.w3.org/2000/svg" viewBox="0 0 32 32"><g stroke="#333" stroke-width="2" stroke-linecap="round" stroke-linejoin="round" stroke-miterlimit="10" fill="none"><path d="M16.033 19c1.187-.737 2.427-1.375 3.541-2.258 1.053-.834 1.994-1.931 2.307-3.394.195-.91.174-1.872-.247-2.698-.797-1.561-2.64-1.983-4.052-1.4-.555.229-1.4.712-1.582 1.407-.182-.695-1.028-1.178-1.582-1.407-1.411-.583-3.255-.161-4.052 1.4-.422.826-.442 1.788-.247 2.698.313 1.462 1.254 2.56 2.307 3.394 1.114.882 2.354 1.52 3.541 2.258"/><path d="M16.839 24.964L22 31l1.854-8.085.264-.15C27.674 20.588 30 17.031 30 13c0-6.627-6.268-12-14-12S2 6.373 2 13s6.268 12 14 12c.283 0 .561-.019.839-.036z"/></g></svg>