<svg xmlns="http://www.w3.org/2000/svg" viewBox="0 0 32 32"><g stroke="#333" stroke-linecap="round" stroke-linejoin="round" stroke-miterlimit="10" fill="none"><path d="M23.218 18.99C26.982 18.88 30 16 30 16s-3.018-2.88-6.782-2.99C25.802 10.271 25.9 6.1 25.9 6.1s-4.17.097-6.91 2.682C18.88 5.018 16 2 16 2s-2.88 3.018-2.99 6.782C10.271 6.198 6.1 6.101 6.1 6.101s.098 4.17 2.682 6.91C5.018 13.12 2 16 2 16s3.018 2.88 6.782 2.99C6.198 21.729 6.1 25.9 6.1 25.9s4.17-.098 6.91-2.682C13.12 26.982 16 30 16 30s2.88-3.018 2.99-6.782c2.739 2.584 6.91 2.682 6.91 2.682s-.098-4.171-2.682-6.91z"/><circle cx="16" cy="16" r="2.5"/></g></svg>