<svg xmlns="http://www.w3.org/2000/svg" viewBox="0 0 32 32"><path stroke="#333" stroke-width="2" stroke-linejoin="round" stroke-miterlimit="10" d="M18.417 20c-.353 0-.696.048-1.026.13-1.006-2.433-3.243-4.13-5.849-4.13-3.247 0-5.923 2.632-6.35 6.046A3.381 3.381 0 0 0 4.667 22C2.641 22 1 23.791 1 26s1.641 4 3.667 4h13.75C20.948 30 23 27.762 23 25s-2.052-5-4.583-5z" fill="none"/><path stroke="#333" stroke-width="2" stroke-linecap="round" stroke-miterlimit="10" d="M21 2v2m10 8h-2m-16 0h-2m17.071-7.071l-1.414 1.414m1.414 12.728l-1.414-1.414M15.343 6.343l-1.414-1.414" fill="none"/><circle stroke="#333" stroke-width="2" stroke-linejoin="round" stroke-miterlimit="10" cx="21" cy="12" r="5" fill="none"/></svg>