<svg xmlns="http://www.w3.org/2000/svg" viewBox="0 0 32 32"><path stroke="#333" stroke-width="2" stroke-linecap="round" stroke-miterlimit="10" d="M31 12h-2" fill="none"/><path stroke="#333" stroke-width="2" stroke-linecap="round" stroke-linejoin="round" stroke-miterlimit="10" d="M18.417 22C20.948 22 23 19.762 23 17s-2.052-5-4.583-5c-.353 0-.696.048-1.026.13C16.385 9.697 14.147 8 11.542 8c-3.247 0-5.923 2.632-6.35 6.046A3.381 3.381 0 0 0 4.667 14C2.641 14 1 15.79 1 18s1.641 4 3.667 4M22 3v2m6.364 13.364L26.95 16.95m-9.9-9.9l-1.414-1.414M26.95 7.05l1.414-1.414m-10.352 6.045a4.001 4.001 0 1 1 5.019 4.185" fill="none"/><path stroke="#333" stroke-linecap="round" stroke-linejoin="round" stroke-miterlimit="10" d="M7.5 19.5v10m2-9v10m2-10v10m2-10v10m2-11v10" fill="none"/></svg>