<svg xmlns="http://www.w3.org/2000/svg" viewBox="0 0 32 32"><path d="M12.911 6.99c.478-.578.996-1.11 1.419-1.757.4-.612.71-1.354.666-2.207-.028-.53-.167-1.059-.483-1.454-.597-.747-1.551-.714-2.159-.188-.239.206-.585.595-.58 1.005-.182-.357-.658-.502-.959-.548-.765-.118-1.605.381-1.783 1.358-.094.516.026 1.051.243 1.525.349.762.954 1.232 1.578 1.541.66.326 1.349.5 2.026.735m5.361 3.492c-.398-.482-.83-.925-1.182-1.464-.333-.51-.592-1.128-.555-1.839.023-.442.139-.882.403-1.212.498-.622 1.292-.595 1.799-.157.199.172.488.496.484.837.152-.298.549-.418.799-.457.637-.098 1.337.317 1.485 1.131.078.431-.021.876-.202 1.271-.291.635-.795 1.027-1.315 1.284-.55.272-1.125.416-1.688.613M25 8l-9 11L7 8m9 11v11m5 1l-5-1-5 1" stroke="#333" stroke-linecap="round" stroke-linejoin="round" stroke-miterlimit="10" fill="none"/></svg>