<svg xmlns="http://www.w3.org/2000/svg" viewBox="0 0 32 32"><g stroke="#333" stroke-linecap="round" stroke-linejoin="round" stroke-miterlimit="10" fill="none"><path d="M16.028 23c.989-.663 2.023-1.238 2.951-2.032.878-.751 1.662-1.738 1.923-3.055.162-.819.145-1.685-.206-2.428-.664-1.405-2.2-1.785-3.377-1.26-.462.206-1.167.641-1.319 1.266-.152-.625-.857-1.06-1.319-1.266-1.176-.524-2.712-.145-3.377 1.26-.351.743-.368 1.61-.206 2.428.261 1.316 1.045 2.304 1.922 3.055.928.794 1.962 1.368 2.951 2.032"/><path d="M23 9l-3-4h-8L9 9H3a1 1 0 0 0-1 1v16a1 1 0 0 0 1 1h26a1 1 0 0 0 1-1V10a1 1 0 0 0-1-1h-6zm-9.5-1.5h5"/><circle cx="26" cy="13" r="1.5"/></g></svg>