<svg xmlns="http://www.w3.org/2000/svg" viewBox="0 0 32 32"><path fill="#333" d="M16 26.654c.469.844 1 2.03 1 2.47 0 .647-.538.876-.999.876-.462 0-1.001-.229-1.001-.875 0-.441.531-1.627 1-2.471M16.001 25C15.669 25 14 27.988 14 29.125S14.895 31 16.001 31C17.106 31 18 30.261 18 29.125S16.331 25 16.001 25zM21 26.654c.469.844 1 2.03 1 2.47 0 .647-.538.876-.999.876-.462 0-1.001-.229-1.001-.875 0-.441.531-1.627 1-2.471M21.001 25C20.669 25 19 27.988 19 29.125S19.895 31 21.001 31C22.106 31 23 30.261 23 29.125S21.331 25 21.001 25zM26 26.654c.469.844 1 2.03 1 2.47 0 .647-.538.876-.999.876-.462 0-1.001-.229-1.001-.875 0-.441.531-1.627 1-2.471M26.001 25C25.669 25 24 27.988 24 29.125S24.895 31 26.001 31C27.106 31 28 30.261 28 29.125S26.331 25 26.001 25z"/><path d="M15.167 14.429c.321 0 .632.041.933.112.913-2.086 2.948-3.54 5.317-3.54 2.951 0 5.384 2.256 5.773 5.182.156-.023.314-.039.477-.039 1.841 0 3.333 1.534 3.333 3.428C31 21.465 29.508 23 27.667 23h-12.5C12.865 23 11 21.082 11 18.715c0-2.368 1.865-4.286 4.167-4.286zM21 8.184c-.634-1.586-2.147-2.697-3.914-2.697-.326 0-.643.045-.948.117C15.21 3.479 13.143 2 10.736 2c-2.999 0-5.47 2.299-5.865 5.279a3.214 3.214 0 0 0-.484-.039C2.516 7.24 1 8.691 1 10.62 1 12.549 2.516 14 4.387 14H9.01" stroke="#333" stroke-width="2" stroke-linecap="round" stroke-linejoin="round" stroke-miterlimit="10" fill="none"/></svg>