<svg xmlns="http://www.w3.org/2000/svg" viewBox="0 0 32 32"><g stroke="#333" stroke-linecap="round" stroke-linejoin="round" stroke-miterlimit="10" fill="none"><path d="M16.066 31c2.374-1.474 4.855-2.751 7.082-4.515 2.106-1.668 3.988-3.863 4.614-6.788.389-1.819.348-3.745-.494-5.396-1.594-3.122-5.281-3.965-8.104-2.8-1.109.458-2.8 1.424-3.165 2.813-.365-1.389-2.056-2.355-3.165-2.813-2.823-1.165-6.51-.322-8.104 2.8-.843 1.651-.884 3.577-.495 5.396.626 2.925 2.508 5.12 4.614 6.788 2.227 1.764 4.708 3.041 7.082 4.515M9 11.083V8a7 7 0 1 1 14 0v3.083"/><circle cx="16" cy="20" r="1.5"/><path d="M15.531 21.5h1v3h-1z"/></g></svg>