<?xml version="1.0" standalone="no"?>
<!DOCTYPE svg PUBLIC "-//W3C//DTD SVG 1.1//EN" "http://www.w3.org/Graphics/SVG/1.1/DTD/svg11.dtd">
<svg xmlns="http://www.w3.org/2000/svg">
<metadata>Generated by Fontastic.me</metadata>
<defs>
<font id="sharpicons" horiz-adv-x="512">
<font-face font-family="sharpicons" units-per-em="512" ascent="480" descent="-32"/>
<missing-glyph horiz-adv-x="512" />

<glyph glyph-name="alignment-align-all" unicode="&#97;" d="M224 496l-192 0c-9 0-16-7-16-16l0-192c0-9 7-16 16-16l192 0c9 0 16 7 16 16l0 192c0 9-7 16-16 16z m-16-192l-160 0 0 160 160 0z m272 192l-192 0c-9 0-16-7-16-16l0-192c0-9 7-16 16-16l192 0c9 0 16 7 16 16l0 192c0 9-7 16-16 16z m-16-192l-160 0 0 160 160 0z m-240-64l-192 0c-9 0-16-7-16-16l0-192c0-9 7-16 16-16l192 0c9 0 16 7 16 16l0 192c0 9-7 16-16 16z m-16-192l-160 0 0 160 160 0z m272 192l-192 0c-9 0-16-7-16-16l0-192c0-9 7-16 16-16l192 0c9 0 16 7 16 16l0 192c0 9-7 16-16 16z m-16-192l-160 0 0 160 160 0z"/>
<glyph glyph-name="alignment-align-all-1" unicode="&#98;" d="M144 480l-96 0c-9 0-16-7-16-16l0-96c0-9 7-16 16-16l96 0c9 0 16 7 16 16l0 96c0 9-7 16-16 16z m-16-96l-64 0 0 64 64 0z m176 96l-96 0c-9 0-16-7-16-16l0-96c0-9 7-16 16-16l96 0c9 0 16 7 16 16l0 96c0 9-7 16-16 16z m-16-96l-64 0 0 64 64 0z m176 96l-96 0c-9 0-16-7-16-16l0-96c0-9 7-16 16-16l96 0c9 0 16 7 16 16l0 96c0 9-7 16-16 16z m-16-96l-64 0 0 64 64 0z m-304-64l-96 0c-9 0-16-7-16-16l0-96c0-9 7-16 16-16l96 0c9 0 16 7 16 16l0 96c0 9-7 16-16 16z m-16-96l-64 0 0 64 64 0z m176 96l-96 0c-9 0-16-7-16-16l0-96c0-9 7-16 16-16l96 0c9 0 16 7 16 16l0 96c0 9-7 16-16 16z m-16-96l-64 0 0 64 64 0z m176 96l-96 0c-9 0-16-7-16-16l0-96c0-9 7-16 16-16l96 0c9 0 16 7 16 16l0 96c0 9-7 16-16 16z m-16-96l-64 0 0 64 64 0z m-304-64l-96 0c-9 0-16-7-16-16l0-96c0-9 7-16 16-16l96 0c9 0 16 7 16 16l0 96c0 9-7 16-16 16z m-16-96l-64 0 0 64 64 0z m176 96l-96 0c-9 0-16-7-16-16l0-96c0-9 7-16 16-16l96 0c9 0 16 7 16 16l0 96c0 9-7 16-16 16z m-16-96l-64 0 0 64 64 0z m176 96l-96 0c-9 0-16-7-16-16l0-96c0-9 7-16 16-16l96 0c9 0 16 7 16 16l0 96c0 9-7 16-16 16z m-16-96l-64 0 0 64 64 0z"/>
<glyph glyph-name="alignment-align-center" unicode="&#99;" d="M496 464l-480 0c-9 0-16-7-16-16 0-9 7-16 16-16l480 0c9 0 16 7 16 16 0 9-7 16-16 16z m-320-192c-9 0-16-7-16-16 0-9 7-16 16-16l192 0c9 0 16 7 16 16 0 9-7 16-16 16z m-96-128l384 0c9 0 16 7 16 16 0 9-7 16-16 16l-384 0c-9 0-16-7-16-16 0-9 7-16 16-16z m400 208c0 9-7 16-16 16l-384 0c-9 0-16-7-16-16 0-9 7-16 16-16l384 0c9 0 16 7 16 16z m16-272l-480 0c-9 0-16-7-16-16 0-9 7-16 16-16l480 0c9 0 16 7 16 16 0 9-7 16-16 16z"/>
<glyph glyph-name="alignment-align-center-point-horizontal" unicode="&#100;" d="M496 272l-480 0c-9 0-16-7-16-16 0-9 7-16 16-16l480 0c9 0 16 7 16 16 0 9-7 16-16 16z m-220-99c-4 8-12 12-20 12-9 0-17-4-21-12l-53-89c-5-7-5-16-1-24 4-7 12-12 21-12l107 0c9 0 17 5 21 12 4 8 4 17 0 24z m-60-93l40 65 39-65z m19 259c4-8 12-12 20-12 9 0 17 4 21 12l54 89c4 7 4 16 0 24-4 7-12 12-21 12l-107 0c-9 0-17-5-21-12-4-8-4-17 1-24z m60 93l-40-65-39 65z"/>
<glyph glyph-name="alignment-align-center-point-vertical" unicode="&#101;" d="M256 512c-9 0-16-7-16-16l0-480c0-9 7-16 16-16 9 0 16 7 16 16l0 480c0 9-7 16-16 16z m184-178c-4 0-9-2-12-4l-90-53c-7-5-11-12-11-21 0-9 4-16 11-21l90-53c3-2 8-4 12-4 6 0 12 3 17 7 4 5 7 11 7 17l0 108c0 13-11 24-24 24z m-8-117l-66 39 66 39z m-259 59l-89 54c-4 3-9 4-13 4-13 0-23-10-23-25l0-106c0-15 10-25 23-25 4 0 9 1 13 4l89 53c7 5 12 12 12 21 0 8-5 16-12 20z m-93-59l0 78 65-39z"/>
<glyph glyph-name="alignment-align-justify-all" unicode="&#102;" d="M496 464l-480 0c-9 0-16-7-16-16 0-9 7-16 16-16l480 0c9 0 16 7 16 16 0 9-7 16-16 16z m0-96l-480 0c-9 0-16-7-16-16 0-9 7-16 16-16l480 0c9 0 16 7 16 16 0 9-7 16-16 16z m0-96l-480 0c-9 0-16-7-16-16 0-9 7-16 16-16l480 0c9 0 16 7 16 16 0 9-7 16-16 16z m0-96l-480 0c-9 0-16-7-16-16 0-9 7-16 16-16l480 0c9 0 16 7 16 16 0 9-7 16-16 16z m0-96l-480 0c-9 0-16-7-16-16 0-9 7-16 16-16l480 0c9 0 16 7 16 16 0 9-7 16-16 16z"/>
<glyph glyph-name="alignment-align-justify-center" unicode="&#103;" d="M496 464l-480 0c-9 0-16-7-16-16 0-9 7-16 16-16l480 0c9 0 16 7 16 16 0 9-7 16-16 16z m0-96l-480 0c-9 0-16-7-16-16 0-9 7-16 16-16l480 0c9 0 16 7 16 16 0 9-7 16-16 16z m0-96l-480 0c-9 0-16-7-16-16 0-9 7-16 16-16l480 0c9 0 16 7 16 16 0 9-7 16-16 16z m0-96l-480 0c-9 0-16-7-16-16 0-9 7-16 16-16l480 0c9 0 16 7 16 16 0 9-7 16-16 16z m-128-96l-240 0c-9 0-16-7-16-16 0-9 7-16 16-16l240 0c9 0 16 7 16 16 0 9-7 16-16 16z"/>
<glyph glyph-name="alignment-align-justify-left" unicode="&#104;" d="M496 464l-480 0c-9 0-16-7-16-16 0-9 7-16 16-16l480 0c9 0 16 7 16 16 0 9-7 16-16 16z m0-96l-480 0c-9 0-16-7-16-16 0-9 7-16 16-16l480 0c9 0 16 7 16 16 0 9-7 16-16 16z m0-96l-480 0c-9 0-16-7-16-16 0-9 7-16 16-16l480 0c9 0 16 7 16 16 0 9-7 16-16 16z m0-96l-480 0c-9 0-16-7-16-16 0-9 7-16 16-16l480 0c9 0 16 7 16 16 0 9-7 16-16 16z m0-96l-240 0c-9 0-16-7-16-16 0-9 7-16 16-16l240 0c9 0 16 7 16 16 0 9-7 16-16 16z"/>
<glyph glyph-name="alignment-align-justify-right" unicode="&#105;" d="M496 464l-480 0c-9 0-16-7-16-16 0-9 7-16 16-16l480 0c9 0 16 7 16 16 0 9-7 16-16 16z m0-96l-480 0c-9 0-16-7-16-16 0-9 7-16 16-16l480 0c9 0 16 7 16 16 0 9-7 16-16 16z m0-96l-480 0c-9 0-16-7-16-16 0-9 7-16 16-16l480 0c9 0 16 7 16 16 0 9-7 16-16 16z m0-80l-480 0c-9 0-16-7-16-16 0-9 7-16 16-16l480 0c9 0 16 7 16 16 0 9-7 16-16 16z m-240-96l-240 0c-9 0-16-7-16-16 0-9 7-16 16-16l240 0c9 0 16 7 16 16 0 9-7 16-16 16z"/>
<glyph glyph-name="alignment-align-left" unicode="&#106;" d="M496 464l-480 0c-9 0-16-7-16-16 0-9 7-16 16-16l480 0c9 0 16 7 16 16 0 9-7 16-16 16z m0-96l-320 0c-9 0-16-7-16-16 0-9 7-16 16-16l320 0c9 0 16 7 16 16 0 9-7 16-16 16z m0-96l-192 0c-9 0-16-7-16-16 0-9 7-16 16-16l192 0c9 0 16 7 16 16 0 9-7 16-16 16z m0-96l-256 0c-9 0-16-7-16-16 0-9 7-16 16-16l256 0c9 0 16 7 16 16 0 9-7 16-16 16z m0-96l-208 0c-9 0-16-7-16-16 0-9 7-16 16-16l208 0c9 0 16 7 16 16 0 9-7 16-16 16z"/>
<glyph glyph-name="alignment-align-right" unicode="&#107;" d="M496 464l-480 0c-9 0-16-7-16-16 0-9 7-16 16-16l480 0c9 0 16 7 16 16 0 9-7 16-16 16z m-480-128l368 0c9 0 16 7 16 16 0 9-7 16-16 16l-368 0c-9 0-16-7-16-16 0-9 7-16 16-16z m0-96l256 0c9 0 16 7 16 16 0 9-7 16-16 16l-256 0c-9 0-16-7-16-16 0-9 7-16 16-16z m0-96l304 0c9 0 16 7 16 16 0 9-7 16-16 16l-304 0c-9 0-16-7-16-16 0-9 7-16 16-16z m0-96l272 0c9 0 16 7 16 16 0 9-7 16-16 16l-272 0c-9 0-16-7-16-16 0-9 7-16 16-16z"/>
<glyph glyph-name="alignment-column-row" unicode="&#108;" d="M480 496l-448 0c-9 0-16-7-16-16l0-448c0-9 7-16 16-16l448 0c9 0 16 7 16 16l0 448c0 9-7 16-16 16z m-160-32l0-416-128 0 0 416z m-272 0l112 0 0-416-112 0z m416-416l-112 0 0 416 112 0z"/>
<glyph glyph-name="alignment-grid-align" unicode="&#109;" d="M480 496l-448 0c-9 0-16-7-16-16l0-448c0-9 7-16 16-16l448 0c9 0 16 7 16 16l0 448c0 9-7 16-16 16z m-288-304l0 128 128 0 0-128z m128-32l0-112-128 0 0 112z m-272 160l112 0 0-128-112 0z m304 0l112 0 0-128-112 0z m112 144l0-112-112 0 0 112z m-144 0l0-112-128 0 0 112z m-160 0l0-112-112 0 0 112z m-112-304l112 0 0-112-112 0z m416-112l-112 0 0 112 112 0z"/>
<glyph glyph-name="alignment-horizontal-align-bottom-1" unicode="&#110;" d="M16 96l480 0c9 0 16 7 16 16 0 9-7 16-16 16l-480 0c-9 0-16-7-16-16 0-9 7-16 16-16z m16 64l96 0c9 0 16 7 16 16l0 144c0 9-7 16-16 16l-96 0c-9 0-16-7-16-16l0-144c0-9 7-16 16-16z m16 144l64 0 0-112-64 0z m160-144l96 0c9 0 16 7 16 16l0 224c0 9-7 16-16 16l-96 0c-9 0-16-7-16-16l0-224c0-9 7-16 16-16z m16 224l64 0 0-192-64 0z m160-224l96 0c9 0 16 7 16 16l0 64c0 9-7 16-16 16l-96 0c-9 0-16-7-16-16l0-64c0-9 7-16 16-16z m16 64l64 0 0-32-64 0z"/>
<glyph glyph-name="alignment-horizontal-align-bottom-2" unicode="&#111;" d="M496 128l-480 0c-9 0-16-7-16-16 0-9 7-16 16-16l480 0c9 0 16 7 16 16 0 9-7 16-16 16z m-112 32c9 0 16 7 16 16l0 128c0 9-7 16-16 16l-96 0c-9 0-16-7-16-16l0-128c0-9 7-16 16-16z m-80 128l64 0 0-96-64 0z m-96-128c9 0 16 7 16 16l0 208c0 9-7 16-16 16l-96 0c-9 0-16-7-16-16l0-208c0-9 7-16 16-16z m-80 208l64 0 0-176-64 0z"/>
<glyph glyph-name="alignment-horizontal-align-center-left-1" unicode="&#112;" d="M496 272l-80 0 0 64c0 9-7 16-16 16l-96 0c-9 0-16-7-16-16l0-64-64 0 0 112c0 9-7 16-16 16l-96 0c-9 0-16-7-16-16l0-112-80 0c-9 0-16-7-16-16 0-9 7-16 16-16l80 0 0-112c0-9 7-16 16-16l96 0c9 0 16 7 16 16l0 112 64 0 0-64c0-9 7-16 16-16l96 0c9 0 16 7 16 16l0 64 80 0c9 0 16 7 16 16 0 9-7 16-16 16z m-304-128l-64 0 0 224 64 0z m192 48l-64 0 0 128 64 0z"/>
<glyph glyph-name="alignment-horizontal-align-center-right-1" unicode="&#113;" d="M496 272l-80 0 0 112c0 9-7 16-16 16l-96 0c-9 0-16-7-16-16l0-112-64 0 0 64c0 9-7 16-16 16l-96 0c-9 0-16-7-16-16l0-64-80 0c-9 0-16-7-16-16 0-9 7-16 16-16l80 0 0-64c0-9 7-16 16-16l96 0c9 0 16 7 16 16l0 64 64 0 0-112c0-9 7-16 16-16l96 0c9 0 16 7 16 16l0 112 80 0c9 0 16 7 16 16 0 9-7 16-16 16z m-304-80l-64 0 0 128 64 0z m192-48l-64 0 0 224 64 0z"/>
<glyph glyph-name="alignment-horizontal-align-top-1" unicode="&#114;" d="M496 416l-480 0c-9 0-16-7-16-16 0-9 7-16 16-16l480 0c9 0 16 7 16 16 0 9-7 16-16 16z m-352-224l0 144c0 9-7 16-16 16l-96 0c-9 0-16-7-16-16l0-144c0-9 7-16 16-16l96 0c9 0 16 7 16 16z m-32 16l-64 0 0 112 64 0z m192 144l-96 0c-9 0-16-7-16-16l0-224c0-9 7-16 16-16l96 0c9 0 16 7 16 16l0 224c0 9-7 16-16 16z m-16-224l-64 0 0 192 64 0z m192 224l-96 0c-9 0-16-7-16-16l0-64c0-9 7-16 16-16l96 0c9 0 16 7 16 16l0 64c0 9-7 16-16 16z m-16-64l-64 0 0 32 64 0z"/>
<glyph glyph-name="alignment-horizontal-align-top-2" unicode="&#115;" d="M496 400l-480 0c-9 0-16-7-16-16 0-9 7-16 16-16l480 0c9 0 16 7 16 16 0 9-7 16-16 16z m-112-224c9 0 16 7 16 16l0 128c0 9-7 16-16 16l-96 0c-9 0-16-7-16-16l0-128c0-9 7-16 16-16z m-80 128l64 0 0-96-64 0z m-96 32l-96 0c-9 0-16-7-16-16l0-208c0-9 7-16 16-16l96 0c9 0 16 7 16 16l0 208c0 9-7 16-16 16z m-16-208l-64 0 0 176 64 0z"/>
<glyph glyph-name="alignment-indent-left-margin" unicode="&#116;" d="M16 400l320 0c9 0 16 7 16 16 0 9-7 16-16 16l-320 0c-9 0-16-7-16-16 0-9 7-16 16-16z m0-80l272 0c9 0 16 7 16 16 0 9-7 16-16 16l-272 0c-9 0-16-7-16-16 0-9 7-16 16-16z m0-80l176 0c9 0 16 7 16 16 0 9-7 16-16 16l-176 0c-9 0-16-7-16-16 0-9 7-16 16-16z m0-80l224 0c9 0 16 7 16 16 0 9-7 16-16 16l-224 0c-9 0-16-7-16-16 0-9 7-16 16-16z m208-64c0 9-7 16-16 16l-192 0c-9 0-16-7-16-16 0-9 7-16 16-16l192 0c9 0 16 7 16 16z m195 160l90 82c4 3 4 8 1 11-3 4-8 4-11 1l-83-75 0 141c0 9-7 16-16 16-9 0-16-7-16-16l0-320c0-9 7-16 16-16 9 0 16 7 16 16l0 141 83-75c1-1 3-2 5-2 2 0 4 1 6 3 3 3 3 8-1 11z"/>
<glyph glyph-name="alignment-indent-right-margin" unicode="&#117;" d="M496 432l-320 0c-9 0-16-7-16-16 0-9 7-16 16-16l320 0c9 0 16 7 16 16 0 9-7 16-16 16z m-320-112l256 0c9 0 16 7 16 16 0 9-7 16-16 16l-256 0c-9 0-16-7-16-16 0-9 7-16 16-16z m0-80l176 0c9 0 16 7 16 16 0 9-7 16-16 16l-176 0c-9 0-16-7-16-16 0-9 7-16 16-16z m0-80l208 0c9 0 16 7 16 16 0 9-7 16-16 16l-208 0c-9 0-16-7-16-16 0-9 7-16 16-16z m0-80l176 0c9 0 16 7 16 16 0 9-7 16-16 16l-176 0c-9 0-16-7-16-16 0-9 7-16 16-16z m-83 176l-90-82c-3-3-3-8 0-11 1-2 3-3 6-3 1 0 3 1 5 2l82 75 0-141c0-9 7-16 16-16 9 0 16 7 16 16l0 320c0 9-7 16-16 16-9 0-16-7-16-16l0-141-82 75c-3 3-8 3-11-1-3-3-3-8 0-11z"/>
<glyph glyph-name="alignment-letter-align-1" unicode="&#118;" d="M384 455c-3 6-8 9-14 9l-4 0c-6 0-11-3-14-9l-97-194-49 98c-2 6-8 9-14 9l-16 0c-6 0-12-3-14-9l-144-288c-4-8-1-17 7-21 8-4 17-1 21 7l52 103 172 0 52-103c2-6 8-9 14-9 2 0 5 1 7 2 8 4 11 13 7 21l-77 155c1 1 2 2 3 3l29 59 126 0 35-71c2-6 8-9 14-9 2 0 5 1 7 2 8 4 11 13 7 21z m-270-263l70 140 70-140z m207 128l47 95 47-95z"/>
<glyph glyph-name="alignment-text-align" unicode="&#119;" d="M448 496l-384 0c-9 0-16-7-16-16l0-48c0-9 7-16 16-16 9 0 16 7 16 16l0 32 160 0 0-416-64 0c-9 0-16-7-16-16 0-9 7-16 16-16l160 0c9 0 16 7 16 16 0 9-7 16-16 16l-64 0 0 416 160 0 0-32c0-9 7-16 16-16 9 0 16 7 16 16l0 48c0 9-7 16-16 16z"/>
<glyph glyph-name="alignment-vertical-align-botton" unicode="&#120;" d="M496 144l-480 0c-9 0-16-7-16-16 0-9 7-16 16-16l480 0c9 0 16 7 16 16 0 9-7 16-16 16z m-240 256c-9 0-16-7-16-16l0-64-37 0c-9 0-17-5-21-12-5-8-4-17 0-24l53-89c5-8 12-12 21-12 8 0 16 4 21 12l53 89c4 7 5 16 0 24-4 7-12 12-21 12l-37 0 0 64c0 9-7 16-16 16z m0-177l-39 65 78 0z"/>
<glyph glyph-name="alignment-vertical-align-center-1" unicode="&#121;" d="M384 224l-112 0 0 64 64 0c9 0 16 7 16 16l0 96c0 9-7 16-16 16l-64 0 0 80c0 9-7 16-16 16-9 0-16-7-16-16l0-80-64 0c-9 0-16-7-16-16l0-96c0-9 7-16 16-16l64 0 0-64-112 0c-9 0-16-7-16-16l0-96c0-9 7-16 16-16l112 0 0-80c0-9 7-16 16-16 9 0 16 7 16 16l0 80 112 0c9 0 16 7 16 16l0 96c0 9-7 16-16 16z m-192 96l0 64 128 0 0-64z m176-192l-224 0 0 64 224 0z"/>
<glyph glyph-name="alignment-vertical-align-left" unicode="&#122;" d="M128 512c-9 0-16-7-16-16l0-480c0-9 7-16 16-16 9 0 16 7 16 16l0 480c0 9-7 16-16 16z m256-240l-64 0 0 37c0 14-11 24-24 24-4 0-9-1-12-3l-89-53c-8-5-12-13-12-21 0-9 4-16 12-21l89-53c3-2 8-3 12-3 13 0 24 10 24 24l0 37 64 0c9 0 16 7 16 16 0 9-7 16-16 16z m-96-55l-65 39 65 39z"/>
<glyph glyph-name="alignment-vertical-align-left-1" unicode="&#65;" d="M96 496l0-480c0-9 7-16 16-16 9 0 16 7 16 16l0 480c0 9-7 16-16 16-9 0-16-7-16-16z m208-96l-128 0c-9 0-16-7-16-16l0-96c0-9 7-16 16-16l128 0c9 0 16 7 16 16l0 96c0 9-7 16-16 16z m-16-96l-96 0 0 64 96 0z m-128-96l0-96c0-9 7-16 16-16l208 0c9 0 16 7 16 16l0 96c0 9-7 16-16 16l-208 0c-9 0-16-7-16-16z m32-16l176 0 0-64-176 0z"/>
<glyph glyph-name="alignment-vertical-align-right" unicode="&#66;" d="M368 512c-9 0-16-7-16-16l0-480c0-9 7-16 16-16 9 0 16 7 16 16l0 480c0 9-7 16-16 16z m-67-235l-89 53c-3 2-8 3-12 3-13 0-24-10-24-24l0-37-64 0c-9 0-16-7-16-16 0-9 7-16 16-16l64 0 0-37c0-14 11-24 24-24 4 0 9 1 12 3l89 53c8 5 12 12 12 21 0 8-4 16-12 21z m-93-60l0 78 65-39z"/>
<glyph glyph-name="alignment-vertical-align-right-1" unicode="&#67;" d="M400 0c9 0 16 7 16 16l0 480c0 9-7 16-16 16-9 0-16-7-16-16l0-480c0-9 7-16 16-16z m-192 400c-9 0-16-7-16-16l0-96c0-9 7-16 16-16l128 0c9 0 16 7 16 16l0 96c0 9-7 16-16 16z m112-96l-96 0 0 64 96 0z m-208-192c0-9 7-16 16-16l208 0c9 0 16 7 16 16l0 96c0 9-7 16-16 16l-208 0c-9 0-16-7-16-16z m32 80l176 0 0-64-176 0z"/>
<glyph glyph-name="alignment-vertical-align-top" unicode="&#68;" d="M496 400l-480 0c-9 0-16-7-16-16 0-9 7-16 16-16l480 0c9 0 16 7 16 16 0 9-7 16-16 16z m-219-83c-5 8-12 12-21 12-8 0-16-4-21-12l-53-89c-4-7-5-16 0-24 4-7 12-12 21-12l37 0 0-64c0-9 7-16 16-16 9 0 16 7 16 16l0 64 37 0c9 0 17 5 21 12 5 8 4 17 0 24z m-60-93l39 65 39-65z"/>
<glyph glyph-name="animal-aligator" unicode="&#69;" d="M66 146c10-7 20-14 29-22 21-15 41-30 64-42 21-12 53-24 77-30 6-2 13-3 20-3 7 0 14 1 20 3 27 7 60 20 77 30 23 12 43 27 63 42 10 8 20 15 30 22 15 10 31 21 45 38 15 20 23 44 21 66-3 30-24 53-39 67l-7 7c-13 11-25 22-32 37-4 8-6 17-8 27-3 11-5 22-10 33-13 26-39 44-68 44-12 0-25-4-35-11-5-3-9-6-13-9-3-3-6-6-10-8-4-2-23-4-34-4-18 0-31 2-34 4-4 2-7 5-10 8-4 3-9 7-13 9-10 7-23 11-35 11-29 0-55-17-68-44-5-11-7-22-10-33-2-10-4-19-8-27-7-14-19-26-32-37l-7-7c-15-14-36-37-39-67-2-22 6-46 21-66 14-17 30-28 45-38z m-5 148l7 6c14 13 30 27 39 48 5 11 8 22 10 32 2 10 5 19 8 27 8 16 23 26 39 26 6 0 12-2 18-5 3-3 6-5 9-8 4-3 9-7 14-10 12-8 34-9 51-9 4 0 37 0 51 9 5 3 10 7 14 10 3 3 6 5 9 8 6 3 12 5 18 5 16 0 31-11 39-26 3-8 6-17 8-27 2-10 5-21 10-32 9-21 25-35 39-48l7-6c18-18 27-32 29-47 1-14-4-30-14-43-11-13-25-22-38-32-10-7-20-14-31-22-20-15-39-29-59-40-16-9-46-21-70-28-8-2-16-2-24 0-24 7-53 19-70 28-20 11-39 25-59 40-11 8-21 15-31 22-13 10-27 19-38 32-10 13-15 29-14 43 2 15 11 29 29 47z m91 4c6-4 13-8 20-9 2-1 5-1 7-1 7 0 13 2 17 6 8 7 12 19 12 36 0 16-3 31-7 45-2 7-5 14-10 19-10 9-26 8-37-2-9-8-14-19-18-29-5-11-10-24-7-36 3-14 14-23 23-29z m23 6c-2 1-4 2-7 3 2 12 12 21 24 21 0-11-2-18-6-22-4-3-7-2-11-2z m-24 53c3 8 8 17 14 23 3 2 6 4 9 4 2 0 4-1 6-2 2-2 4-7 5-11 3-9 5-18 6-27-17-1-32-12-37-28-4 4-8 9-10 14-1 8 2 17 7 27z m182-69c2 0 5 0 7 1 7 1 14 5 20 9 9 6 20 15 23 29 3 12-2 25-7 36-4 10-9 21-18 29-11 10-27 11-37 2-5-5-8-12-10-19-4-14-7-29-7-45 0-17 4-29 12-36 4-4 10-6 17-6z m4 16c-4 0-7-1-11 2-4 4-6 11-6 22 12 0 22-9 24-21-3-1-5-2-7-3z m-10 66c1 5 3 10 5 12 2 1 4 2 6 2 3 0 6-2 9-4 6-5 11-15 14-23 5-10 8-19 7-27-2-5-6-10-10-14-5 16-20 27-37 28 1 9 3 18 6 26z m-254-131c7 0 15-1 23-3 8-3 15-8 21-13 5-4 9-9 13-16 4-5 7-10 10-15l6-11c3-5 6-9 8-13 6-9 11-15 16-20 6-6 12-10 19-14 1 0 3-1 5-2 20-7 40-11 61-11 21 0 43 4 63 12l3 1c8 4 16 9 21 14 5 5 10 12 16 21 2 4 4 7 6 11 2 3 4 7 6 10 4 6 7 13 12 18 4 7 8 12 13 16 6 5 13 10 21 12 7 3 15 4 23 3 5 0 9 3 9 8 0 4-3 8-7 8-10 1-21 0-31-4-9-3-19-8-26-16-5-4-10-10-16-17-4-7-8-13-12-20-2-3-4-7-6-11-2-3-4-6-6-10-3-5-7-12-13-17-4-4-10-8-17-11l-2-1c-36-14-76-15-112-1-2 1-3 1-4 2-5 2-10 6-15 11-5 4-9 9-13 16-3 4-5 9-8 13l-7 11c-3 5-6 11-9 16-6 8-11 14-16 18-8 7-17 13-26 17-10 3-21 5-31 4-4-1-7-5-7-9 0-4 4-8 9-7z"/>
<glyph glyph-name="animal-bat" unicode="&#70;" d="M335 456c-8 1-16-3-19-10-3-7 0-16 7-20 10-6 22-17 22-23 0-4-4-23-19-29-7-3-13-4-19-5l-10 49c-1 7-7 12-14 12-7 1-13-3-16-9l-3-7-16 0-3 7c-3 6-9 10-16 9-7 0-13-5-14-12l-11-49c-4 1-11 2-18 5-15 6-19 25-19 29 0 6 12 17 22 23 7 4 10 12 7 20-3 7-11 11-19 10-3-1-87-23-133-83-47-60-44-133-44-136 0-7 5-12 11-15 6-2 12 0 17 5 0 0 22 22 45 22 7 0 13-2 19-6 24-15 26-58 25-74 0-7 5-14 12-16 7-2 15 1 19 8 10 21 33 52 49 52 13 0 30-26 41-150 1-11 1-19 2-25 1-8 8-14 16-14 0 0 0 0 0 0 9 0 15 7 16 15 7 96 29 174 43 174 16 0 39-31 49-52 4-7 12-10 19-8 7 2 12 9 12 16 0 1-4 56 25 74 6 4 12 6 19 6 23 0 45-22 45-22 5-5 11-7 17-5 6 3 11 8 11 15 0 3 3 76-44 136-46 60-130 82-133 83z m104-175c-13 0-26-3-37-11-20-13-30-35-35-55-13 16-31 30-52 30-28 0-46-39-58-84-9 45-27 84-60 84-21 0-39-14-52-30-5 20-15 42-35 55-11 8-24 11-37 11-14 0-27-4-38-10 3 23 12 55 34 83 18 23 44 40 66 51 0-1 0-2 0-2 0-17 11-48 39-59 20-7 34-8 41-8 2 0 4 0 4 0 7 1 13 6 14 13l7 33 32 0 7-33c1-7 7-12 14-13 0 0 2 0 4 0 7 0 21 1 41 8 28 11 39 42 39 59 0 1 0 1 0 2 22-11 48-28 66-51 21-28 31-60 34-83-11 6-24 10-38 10z"/>
<glyph glyph-name="animal-bear" unicode="&#71;" d="M429 449c-35 0-66-22-78-52-26 13-57 19-95 19-38 0-69-6-95-19-12 30-43 52-78 52-46 0-83-36-83-82 0-40 30-73 69-80-5-20-5-41-5-61l0-2c0-108 84-192 192-192 108 0 192 84 192 192l0 2c0 20 0 41-5 61 39 7 69 40 69 80 0 46-37 82-83 82z m0-131c-2 0-4 0-6 0-6 1-11-2-15-7-3-4-4-11-1-16 9-19 9-45 9-69l0-2c0-91-69-160-160-160-91 0-160 69-160 160l0 2c0 24 0 50 9 69 3 5 2 12-1 16-3 5-8 7-13 7-1 0-1 0-2 0-2 0-4 0-6 0-28 0-51 22-51 49 0 28 23 50 51 50 27 0 49-20 51-46 1-6 4-11 9-14 5-2 12-2 16 2 25 17 56 25 97 25 41 0 72-8 97-25 4-4 11-4 16-2 5 3 8 8 9 14 2 26 24 46 51 46 28 0 51-22 51-50 0-27-23-49-51-49z m-221-29c0-9-7-16-16-16-9 0-16 7-16 16 0 8 7 16 16 16 9 0 16-8 16-16z m128 0c0-9-7-16-16-16-9 0-16 7-16 16 0 8 7 16 16 16 9 0 16-8 16-16z m70 105c-4-3-4-8-1-11 3-3 8-3 12 0 7 7 20 7 27 0 3-4 5-8 5-13 0-5-2-9-5-12-3-3-3-8 0-12 1-1 3-2 5-2 2 0 4 1 6 2 7 7 10 15 10 24 0 9-3 18-10 24-13 13-36 13-49 0z m-349 0c-6-6-10-15-10-24 0-9 4-17 10-24 2-1 4-2 6-2 2 0 4 1 6 2 3 4 3 9-1 12-3 3-5 8-5 12 0 5 2 9 5 13 8 7 20 7 28 0 3-3 8-3 11 0 3 3 3 8 0 11-14 13-36 13-50 0z m247-241c-22 0-40 18-40 40 0 0 0 0 0 1 14 3 24 16 24 31 0 17-14 32-32 32-18 0-32-15-32-32 0-15 10-28 24-31 0-1 0-1 0-1 0-22-18-40-40-40-4 0-8-4-8-8 0-5 4-8 8-8 20 0 38 11 48 27 10-16 28-27 48-27 4 0 8 3 8 8 0 4-4 8-8 8z m-64 72c0 8 7 16 16 16 9 0 16-8 16-16 0-9-7-16-16-16-9 0-16 7-16 16z"/>
<glyph glyph-name="animal-bear3" unicode="&#72;" d="M496 416c0 44-36 80-80 80-33 0-61-20-73-50-55 23-119 23-174 0-12 30-40 50-73 50-44 0-80-36-80-80 0-30 17-57 43-70-18-33-27-69-27-106 0-124 100-224 224-224 124 0 224 100 224 224 0 37-9 73-27 106 26 13 43 40 43 70z m-400 48c21 0 38-13 45-32-25-16-47-36-65-59-17 7-28 24-28 43 0 26 22 48 48 48z m160-416c-106 0-192 86-192 192 0 37 11 74 31 105 18 27 43 50 72 65 28 15 58 22 89 22 31 0 61-7 89-22 29-15 54-38 72-65 20-31 31-68 31-105 0-106-86-192-192-192z m180 325c-18 23-40 43-65 59 7 19 24 32 45 32 26 0 48-22 48-48 0-19-11-36-28-43z m-195-198c2 0 4 0 7 0 5 1 11 1 16 0 3 0 5 0 7 0 11 0 17 6 17 17 0 18-14 32-32 32-18 0-32-14-32-32 0-6 2-10 5-13 4-4 8-4 12-4z m15 33c9 0 16-7 16-16 0 0 0-1 0-1-2 0-4 0-6 0-3 1-7 1-10 1-3 0-7 0-10-1-2 0-5 0-6 0 0 0 0 1 0 1 0 9 7 16 16 16z m40-48l-80 0c-4 0-8-4-8-8 0-4 4-8 8-8l80 0c4 0 8 4 8 8 0 4-4 8-8 8z m-120 144c-18 0-32-14-32-32 0-18 14-32 32-32 18 0 32 14 32 32 0 18-14 32-32 32z m0-48c-9 0-16 7-16 16 0 9 7 16 16 16 9 0 16-7 16-16 0-9-7-16-16-16z m160 48c-18 0-32-14-32-32 0-18 14-32 32-32 18 0 32 14 32 32 0 18-14 32-32 32z m0-48c-9 0-16 7-16 16 0 9 7 16 16 16 9 0 16-7 16-16 0-9-7-16-16-16z m0 80l-160 0c-35 0-64-29-64-64 0-33 25-60 57-63-6-11-9-22-9-33 0-44 43-80 96-80 53 0 96 36 96 80 0 11-3 22-9 33 32 3 57 30 57 63 0 35-29 64-64 64z m-80-224c-44 0-80 29-80 64 0 12 5 24 13 35 5 5 10 10 16 14 14 10 33 15 51 15 18 0 37-5 51-15 6-4 11-9 16-14 8-11 13-23 13-35 0-35-36-64-80-64z m80 112l-4 0c-5 6-10 11-16 15-35 22-85 22-120 0-6-4-11-9-16-15l-4 0c-26 0-48 22-48 48 0 26 22 48 48 48l160 0c26 0 48-22 48-48 0-26-22-48-48-48z"/>
<glyph glyph-name="animal-bee" unicode="&#73;" d="M98 240c33 0 57 15 79 33-11-18-17-39-17-61l0-41c0-40 14-80 40-111l44-54c3-4 7-6 12-6 5 0 9 2 12 6l44 54c26 31 40 71 40 111l0 41c0 22-6 43-17 61 22-18 46-33 79-33 52 0 98 37 98 80 0 43-46 80-98 80-32 0-56-15-79-32 1 2 1 3 1 5l0 48c0 12-3 24-9 34 12 24 37 41 65 41 4 0 8 4 8 8 0 4-4 8-8 8-32 0-59-17-75-42-14 16-33 26-56 26l-10 0c-23 0-42-10-56-26-16 25-43 42-75 42-4 0-8-4-8-8 0-4 4-8 8-8 28 0 53-17 65-41-6-10-9-22-9-34l0-48c0-2 0-3 1-5-23 17-47 32-79 32-52 0-98-37-98-80 0-43 46-80 98-80z m94-31c19-15 41-23 64-23 23 0 45 8 64 23l0-28c-1 0-2-1-3-2-34-33-88-33-122 0-1 1-2 2-3 2z m125 18c-34-33-88-33-122 0 0 1-1 1-1 1 2 14 8 27 17 37 12 14 28 21 45 21 17 0 33-7 45-21 9-10 15-23 17-37 0 0-1 0-1-1z m-29-147l-32-39-32 39c-18 23-29 51-32 81 19-15 41-23 64-23 22 0 45 8 64 23-3-30-14-58-32-81z m126 288c37 0 66-26 66-48 0-22-29-48-66-48-30 0-52 19-78 42-2 2-5 4-7 6 2 2 5 4 7 6 26 23 48 42 78 42z m-163 96l10 0c24 0 43-19 43-43l0-48c0-22-18-39-40-39l-16 0c-22 0-40 17-40 39l0 48c0 24 19 43 43 43z m-153-96c30 0 52-19 78-42 2-2 5-4 7-6-2-2-5-4-7-6-26-23-48-42-78-42-37 0-66 26-66 48 0 22 29 48 66 48z"/>
<glyph glyph-name="animal-bird" unicode="&#74;" d="M493 240c-10 5-24 1-32-2l-2-1c-7-3-14-4-22-6 10 13 20 29 30 45 13 22 21 40 27 59l1 3c5 16 17 54-11 67-7 4-17 5-25 3-27-5-51-18-75-30-8-4-15-8-23-12-30-14-64-29-87-29-4 0-7 1-10 1-9 3-17 14-24 23l-30 39c-8 11-24 25-42 29-23 7-50 1-73-15-19-14-32-32-45-49-11-14-22-28-35-39-12-9-17-22-14-33 2-10 9-15 14-19 1-1 1-1 2-2 3-3 6-8 8-12l2-2c5-10 11-22 16-34l5-11c4-10 8-18 12-26 7-13 14-24 25-36 38-45 100-71 170-71l4 0c64 1 130 24 190 67 10 7 22 16 35 26 1 1 2 2 4 3 10 8 24 20 24 37 0 5-2 11-5 15-3 6-8 10-14 12z m-25-38c-2-2-4-3-5-4-11-10-23-19-32-25-56-39-115-60-173-61l-3 0c-61 0-114 22-146 60-9 10-15 19-21 30-4 7-7 15-11 24l-5 11c-6 13-11 25-18 36l-1 2c-3 7-7 14-14 20-1 2-3 3-5 4 0 0 0 1-1 1 1 0 1 1 2 1 16 13 29 29 40 45 12 16 24 31 39 42 14 11 31 15 45 10 1 0 1 0 2 0 8-2 19-10 24-18l30-39c9-12 21-28 40-33 6-2 12-3 19-3 29 0 66 16 101 32 8 4 16 8 24 12 21 12 44 23 65 28 2 0 3 0 4 0 1 0 2 0 2 0 1-2 1-9-6-29l-1-4c-5-16-12-32-24-52-10-18-22-34-33-49-6-10-13-19-18-26-3-5-3-12 0-17 3-5 8-8 14-8 10 0 20 2 28 4l11 3c10 2 20 4 30 8l2 1c2 1 3 2 5 2-3-3-8-6-10-8z m-108 88c-44-44-99-44-144 0-3 4-8 4-11 0-3-3-3-8 0-11 25-25 54-38 83-38 29 0 58 13 83 38 3 3 3 8 0 11-3 3-8 3-11 0z m-216 46c0-9-7-16-16-16-9 0-16 7-16 16 0 9 7 16 16 16 9 0 16-7 16-16z"/>
<glyph glyph-name="animal-bug" unicode="&#75;" d="M20 283c-17-17-23-41-19-69 1-4 5-7 8-7 1 0 1 0 2 0 4 1 7 5 6 10-4 22 1 42 14 55 11 11 25 16 42 16-11-25-17-52-17-80 0-31 7-60 20-87-18-16-28-36-28-57 0-24 13-46 35-62 2-2 3-2 5-2 2 0 5 1 6 3 3 4 2 9-1 11-19 14-29 31-29 50 0 15 7 30 20 42 8-14 19-27 31-39 37-38 88-59 141-59 53 0 104 21 141 59 12 12 23 25 31 39 13-12 20-27 20-42 0-19-10-36-29-50-3-2-4-7-1-11 1-2 4-3 6-3 2 0 3 0 5 2 22 16 35 38 35 62 0 21-10 41-28 57 13 27 20 56 20 87 0 28-6 55-17 80 17 0 31-5 42-16 13-13 18-33 14-55-1-5 2-9 6-10 1 0 1 0 2 0 3 0 7 3 8 7 4 28-2 52-19 69-15 16-36 23-61 21-9 17-20 32-34 45-13 14-29 20-49 20-15 0-29-3-45-7-15-3-31-7-47-7-16 0-32 4-47 7-16 4-30 7-45 7-20 0-36-6-49-20-14-13-25-28-34-45-25 2-46-5-61-21z m291 48c13 3 26 6 37 6 12 0 20-3 27-10 32-32 49-74 49-119 0-45-17-87-49-119-28-28-64-45-103-48l0 283c14 1 27 4 39 7z m-174-4c7 7 15 10 27 10 11 0 24-3 37-6 12-3 25-6 39-7l0-283c-39 3-75 20-103 48-32 32-49 74-49 119 0 45 17 87 49 119z m-45 184c-4 2-8 0-10-4-5-14 0-30 13-42 9-8 22-14 39-18l3-1c7-1 14-3 19-6-3-5-4-10-4-16 0-37 52-56 104-56 52 0 104 19 104 56 0 6-1 11-4 16 5 3 12 5 19 6l3 1c17 4 30 10 39 18 13 12 18 28 13 42-2 4-6 6-10 4-5-1-7-6-5-10 3-8-2-18-8-24-8-6-18-11-33-14l-2-1c-9-2-18-4-25-9-19 18-55 27-91 27-36 0-72-9-91-27-7 5-16 7-25 9l-2 1c-15 3-25 8-32 14-7 6-12 16-9 24 2 4 0 9-5 10z m164-63c47 0 72-17 72-24 0-7-25-24-72-24-47 0-72 17-72 24 0 7 25 24 72 24z"/>
<glyph glyph-name="animal-bull" unicode="&#76;" d="M502 378c-11 24-29 46-55 64-22 16-47 26-70 37-7 3-15 0-20-6-4-7-3-15 2-21 17-15 32-33 45-51 7-10 14-21 13-32 0-12-11-21-21-25-7-3-15-5-27-5-2 0-3-1-5-1-9 5-19 6-28 6-2 0-5 0-7 0-2 0-4 0-7 0 0 0 0 0 0 0-20 0-42 8-55 20-6 5-16 5-22 0-13-12-35-20-56-20-2 0-4 0-6 0-2 0-5 0-7 0-8 0-18-1-27-5 0 0 0 0 0 0-11 0-23 0-33 5-10 4-21 13-21 25-1 11 6 22 13 32 13 18 28 36 45 51 5 6 6 14 2 21-5 6-13 9-20 6-23-11-48-21-70-37-26-18-44-40-55-64-13-30-13-64 0-90 11-23 32-41 60-51 16-6 32-9 48-11-2-8-5-16-6-25-1-19 4-40 15-60 9-17 21-31 33-45l29-34c8-9 17-20 27-28 11-8 23-14 36-17 1-1 3-1 4-1 1 0 3 0 4 1 13 3 25 9 36 17 10 8 19 19 27 28l29 34c12 14 24 28 33 45 11 20 16 41 15 60-1 9-3 17-6 25 16 2 33 5 48 11 28 10 49 28 60 51 13 26 13 60 0 90z m-463-76c-9 18-9 42 0 63 7 17 20 32 37 45-8-12-14-26-13-43 1-22 17-43 41-53 7-3 15-5 22-6-1-5-2-11-2-17 0-6 0-11 1-17 0-6 0-11 0-16-15 2-30 4-44 9-20 8-35 20-42 35z m318-145c-7-15-18-28-29-40l-30-35c-7-8-14-16-22-23-6-4-13-8-20-10-7 2-14 6-20 10-8 7-15 15-22 23l-30 35c-11 13-22 25-29 40-6 10-12 25-11 41 1 8 3 16 6 24 3 10 6 20 7 32 1 8 0 15-1 22 0 5 0 10 0 15 0 9 2 16 6 19 3 1 7 2 14 2 2 0 4 0 6 0 3 0 5 0 8 0 23 0 48 8 66 20 18-12 43-20 67-20 2 0 4 0 7 0 2 0 4 0 6 0 7 0 11-1 14-2 4-3 6-10 6-19 0-5 0-10-1-15 0-7-1-14 0-22 1-12 4-22 7-32 3-8 5-16 6-24 1-16-5-31-11-41z m116 145c-7-15-22-27-42-35-14-5-29-7-44-9 0 5 0 10 0 16 1 6 1 11 1 17 0 6-1 12-2 17 7 1 15 3 22 6 24 10 40 31 41 53 1 17-5 31-13 43 17-13 30-28 37-45 9-21 9-45 0-63z m-195-190c-5 1-10-1-14-4-1-1-3-3-5-6 0-1-2-2-3-4-1 2-3 3-3 4-2 3-4 5-5 6-4 3-9 5-14 4-7-2-12-9-12-16 1-5 3-10 8-14 3-3 8-3 11 1 2 2 2 4 2 6 4-5 8-9 13-9 5 0 9 4 13 9 0-2 0-4 2-6 2-2 4-3 6-3 2 0 4 1 5 2 5 4 7 9 8 14 0 8-5 14-12 16z m-54 114c5 1 7 5 6 10-2 7-4 16-11 22-4 3-8 5-12 6l-20 8c-4 1-9-1-11-5-1-4 1-9 5-11l20-7c3-1 6-2 8-3 3-3 4-9 6-14 1-4 4-6 7-6 1 0 2 0 2 0z m107 30c4 2 6 7 5 11-2 4-7 6-11 5l-20-8c-4-1-8-3-12-6-7-6-9-15-11-22l15-4c2 5 3 11 6 14 2 1 5 2 8 3z m-123-32c0-9-7-16-16-16-9 0-16 7-16 16 0 9 7 16 16 16 9 0 16-7 16-16z m128 0c0-9-7-16-16-16-9 0-16 7-16 16 0 9 7 16 16 16 9 0 16-7 16-16z"/>
<glyph glyph-name="animal-butterfly" unicode="&#77;" d="M69 450c-8 3-18 7-29 7-15 0-28-8-34-19-6-11-8-24-4-38 3-11 8-21 13-31 4-7 7-14 10-21 8-25 12-50 12-73l0-2c0-13 1-29 10-42 5-6 14-13 29-14-23-25-28-59-14-93 17-43 60-76 99-76 2 0 4 0 6 0 23 2 44 15 59 36 13 19 22 39 30 61 8-22 17-42 30-61 15-21 36-33 59-35 2 0 4 0 6 0 0 0 0 0 0 0 39 0 82 32 99 76 14 34 9 67-14 92 15 1 24 8 29 14 9 13 10 29 10 42l0 2c0 23 4 48 12 73 3 7 6 14 10 21 5 10 10 20 13 31 4 13 2 27-4 37-6 12-19 19-34 19-9 0-19-2-29-6-66-30-119-73-159-130 3 14 4 25 4 25 0 8-3 16-8 21 1 46 39 82 88 82 4 0 8 4 8 8 0 4-4 8-8 8-54 0-98-38-103-88-3 1-6 2-9 2-3 0-6-1-9-2-5 50-49 88-103 88-4 0-8-4-8-8 0-4 4-8 8-8 49 0 87-36 88-82-5-5-8-13-8-21 0 0 1-11 4-25-40 57-93 100-159 130z m203-105c0-12-7-43-13-56-2-1-4-1-6 0-6 13-13 44-13 56 0 9 7 17 16 17 9 0 16-8 16-17z m-16-89c16 0 32 9 40 24 37 62 91 110 160 140 6 3 11 4 16 4 2 0 5 0 7-3 1-2 1-8 0-13-2-8-6-16-11-24-4-8-8-17-11-26-9-28-14-56-14-83l0-2c0-9 0-18-4-22 0-1-1-2-7-2-3 0-6 0-9 1l-4 0c-12 3-29 5-41-2-5-2-8-8-8-13 0-6 3-11 8-14l1-1c11-7 21-13 30-21 22-21 18-45 12-62-13-31-44-56-70-56-1 0-2 0-3 0-18 1-29 13-36 22-12 17-20 37-28 59-3 7-5 13-8 20-3 6-8 10-15 10l-10 0c-7 0-12-4-15-10-3-7-5-13-8-20-8-22-16-42-28-59-10-14-22-22-36-23-27-2-60 24-73 56-6 17-10 42 12 63 9 8 20 15 31 21 5 3 8 9 8 14 0 6-3 11-8 14-6 4-13 5-21 5-7 0-14-1-21-3l-3 0c-3-1-6-1-9-1-6 0-7 1-7 2-4 4-4 14-4 22l0 2c0 27-5 55-14 83-3 9-7 18-11 26-5 8-9 16-11 25-2 5-1 10 0 13 2 2 5 3 7 3 4 0 9-2 16-5 69-30 123-78 160-140 8-15 24-24 40-24z"/>
<glyph glyph-name="animal-camel" unicode="&#78;" d="M502 498c-6 9-16 15-26 14-13-1-20-12-24-17-13-19-30-35-50-47-35 17-79 32-128 46-12 3-24 3-36 0-49-14-93-29-128-46-20 12-37 28-50 47-4 5-11 16-24 17-10 1-20-5-26-14-4-7-4-13-5-18-3-20-6-40-5-61 2-22 14-50 30-67 1-1 2-2 3-2 1-15 7-29 16-43 4-6 9-11 14-17 6-6 11-12 13-18 6-16 6-31 6-49l0-4c0-41 7-98 44-138 15-16 35-24 60-24 2 0 4 0 7 0 3-32 30-57 63-57 33 0 60 25 63 57 3 0 5 0 7 0 25 0 45 8 60 24 37 40 44 97 44 138l0 4c0 18 0 33 6 49 2 6 7 12 13 18 5 6 10 11 14 17 9 14 15 28 16 43 1 0 2 1 3 2 16 17 28 45 30 67 1 21-2 41-5 61-1 5-1 11-5 18z m-461-106c-4 10-8 21-9 30-1 16 2 34 4 51 12-17 27-31 43-43-5-4-11-8-15-12-8-6-16-15-23-26z m215-360c-17 0-31 13-32 30 11 3 22 7 32 10 10-3 21-7 32-10-1-17-15-30-32-30z m180 293c-2-5-6-9-10-13-7-8-16-17-20-29-8-21-8-41-8-61l0-3c0-50-12-91-36-116-8-10-20-14-36-14-21 0-45 8-64 15-2 1-4 1-6 1-2 0-4 0-6-1-19-7-43-15-64-15-16 0-28 4-36 14-24 25-37 66-36 116l0 3c0 20 0 40-8 61-4 12-13 21-20 29-4 4-8 8-10 13-5 7-12 19-12 32 0 13 6 24 21 37 11 9 24 18 38 25 33 16 76 31 123 44 7 1 13 1 20 0 47-13 90-28 123-44 15-7 27-16 38-25 15-13 21-24 21-37 0-13-7-25-12-32z m44 97c-1-9-5-20-9-30-7 11-15 20-23 26-4 4-10 8-15 12 16 12 31 26 43 43 2-17 5-35 4-51z m-164-148l-60-15-60 15c-9 2-17-3-20-11-2-9 4-18 12-20l52-13 0-89c0-9 7-16 16-16 9 0 16 7 16 16l0 89 52 13c8 2 14 11 12 20-3 8-11 13-20 11z m84 62c0-9-7-16-16-16-9 0-16 7-16 16 0 9 7 16 16 16 9 0 16-7 16-16z m-256 0c0-9-7-16-16-16-9 0-16 7-16 16 0 9 7 16 16 16 9 0 16-7 16-16z"/>
<glyph glyph-name="animal-cat" unicode="&#79;" d="M24 315c-4-13-7-28-9-44-3-39 3-76 20-111 13-28 32-51 56-70 23-18 45-26 68-34 5-1 12-6 20-12 18-11 42-28 77-28 0 0 0 0 0 0 0 0 0 0 0 0 35 0 59 17 76 28 9 6 16 11 21 12 23 8 45 16 68 34 24 19 43 42 56 70 17 35 23 72 20 111-2 16-5 31-9 44 10 23 17 48 21 75 4 24 4 48 1 71 0 3-1 6-1 8l-16-3 15 6c-2 14-14 24-28 24 0 0-2 0-2 0-14-1-27-4-40-8-27-8-50-21-71-39-20 6-41 11-61 13-17 2-34 3-50 3-16 0-32-1-50-3-20-2-41-7-61-13-20 17-44 31-71 39-13 4-26 7-40 8 0 0-2 0-2 0-14 0-26-10-28-25 0 0-1-2-1-2 0-2-1-5-1-8-3-23-3-47 1-71 4-27 11-52 21-75z m10 142c0 2 0 4 1 7 10-1 20-3 29-6 23-8 44-19 61-34 1-1 1-1 2-2 1-1 2-1 3-2 5-5 12-6 18-4 20 7 41 12 62 14 16 2 31 3 46 3 15 0 30-1 46-3 21-2 42-7 63-14 6-2 12-1 17 4 1 1 2 1 3 2 0 1 1 1 2 2 17 15 38 26 61 34 10 3 19 5 29 6l0-1c1-2 1-4 1-6 3-20 3-41-1-63-3-26-11-50-21-71-2-4-2-9 0-13 4-12 8-26 9-42 3-33-3-65-17-94-11-23-26-43-47-59-19-15-36-21-58-28-10-3-19-10-28-16-17-11-34-23-59-23-25 0-42 12-59 23-9 6-18 13-28 16-22 7-39 13-58 28-20 16-36 36-47 59-14 29-20 61-17 94 1 16 5 30 10 42 1 4 1 9-1 13-10 21-18 45-21 71-4 22-4 43-1 63z m262-214c6-2 12-3 18-3 18 0 36 7 49 21 18 18 25 44 18 67 0 3-2 5-5 5-23 7-49 0-67-18-18-18-25-44-18-67 0-3 2-5 5-5z m24 61c13 13 31 18 47 15 3-16-2-34-15-47-13-13-31-18-47-15-3 16 2 34 15 47z m-122-64c6 0 12 1 18 3 3 0 5 2 5 5 7 23 0 49-18 67-18 18-44 25-67 18-3 0-5-2-5-5-7-23 0-49 18-67 13-14 31-21 49-21z m-53 79c16 3 34-2 47-15 13-13 18-31 15-47-3-1-6-1-9-1-14 0-28 6-38 16-13 13-18 31-15 47z m47-183c0-4 4-8 8-8 24 0 45 12 56 29 11-17 32-29 56-29 4 0 8 4 8 8 0 4-4 8-8 8-26 0-48 18-48 40 0 4-4 8-8 8-4 0-8-4-8-8 0-22-22-40-48-40-4 0-8-4-8-8z"/>
<glyph glyph-name="animal-cheetah" unicode="&#80;" d="M15 349c4-6 8-12 12-17l2-3c4-5 8-11 11-16 2-6 4-13 6-21 2-9 13-81 15-90 7-54 38-101 84-128 33-19 78-42 111-42 34 0 84 26 111 42 47 28 79 77 85 132 1 7 12 78 14 86 2 8 4 15 6 21 3 5 7 11 11 16l2 3c4 5 8 11 12 17 8 15 13 31 15 48 1 17-2 34-8 49-3 7-10 11-18 10l-89-18c-3-1-6-1-9-1-2-1-3 0-5 0-1 0-2 1-4 2-2 2-4 3-6 4l-2 2c-16 12-34 21-53 27-20 6-40 9-60 8 0 0-1 0-2-1-1 1-2 1-2 1-20 1-40-2-60-8-19-6-37-15-53-27l-2-2c-2-1-4-2-6-4-2-1-3-2-5-2-1 0-2-1-4 0-3 0-6 0-9 1l-89 18c-8 1-15-3-18-10-6-15-9-32-8-49 2-17 7-33 15-48z m19 73l75-15c4-1 8-2 12-2 6-1 11 0 16 1 4 1 9 3 14 7 3 1 5 3 7 5l3 2c12 9 27 17 43 22 16 5 32 7 48 6 1 0 3 0 4 0 1 0 3 0 4 0 16 1 32-1 48-6 16-5 31-13 43-22l3-2c2-2 4-4 7-5 5-4 10-6 14-7 5-1 10-2 16-1 4 0 8 1 12 2l75 15c2-8 2-15 2-23-1-12-5-23-11-33-3-6-6-10-10-15l-2-3c-4-6-9-13-13-21-4-8-7-18-9-29-2-9-14-80-15-88-4-45-30-86-69-108-41-24-76-38-95-38-19 0-55 14-95 37-37 22-63 61-69 105-1 10-13 83-15 92-2 11-5 21-9 29-4 8-9 15-13 21l-2 3c-4 5-7 9-10 15-6 10-10 21-11 33 0 8 0 15 2 23z m106-109c10-11 22-19 34-23 3-1 6-1 9-1 1 0 1 0 2 0 0-4 0-8-1-12-2-7-5-13-8-20-4-7-7-14-11-21l-1-2c-4-7-8-15-12-23-3-9-6-18-7-27-2-10-1-19 1-28 3-10 9-19 16-25 9-8 19-12 29-12 10 0 21 3 32 5l2 1c12 2 21 5 30 4 1 0 1 0 2 0 8 1 18-2 30-4l2-1c10-2 21-5 31-5 0 0 1 0 1 0 10 0 20 4 29 12 7 6 13 15 16 25 2 9 3 18 1 28-1 9-4 18-7 27-4 8-8 16-12 23l-1 2c-4 7-7 14-11 21-3 7-5 13-6 19-1 4-1 8 0 13 2 0 5 1 7 1 12 4 24 12 35 23 10 11 18 26 25 42 1 3 1 6-1 8l-3 5-4 0c-9 1-17 1-26 0-9-1-17-4-26-7-6-2-10-5-14-8-6-5-10-10-13-16-2-5-4-10-5-16 0-6 0-12 2-17 2-5 5-8 7-10-1-8-1-14 0-21 1-7 4-14 8-23 3-7 7-14 11-21l1-2c4-8 8-15 11-23 3-7 5-15 6-22 1-8 1-15-1-22-2-6-6-13-11-17-4-4-10-8-18-8-9 0-18 2-28 5l-3 0c-12 3-23 6-34 5-11 1-22-2-34-5l-3 0c-10-3-19-5-28-5-8 0-14 4-18 8-5 4-9 11-11 17-2 7-2 14-1 22 1 7 3 15 6 22 3 8 7 15 11 23l1 2c4 7 8 14 11 21 4 8 7 15 9 23 2 8 2 16 1 24 2 2 3 4 4 7 2 5 3 11 2 17-1 6-2 11-5 16-3 6-7 11-12 16-4 3-9 6-15 8-8 3-17 6-26 7-8 1-17 1-26 0-3 0-5-2-7-5l-2-5 2-3c6-16 15-31 25-42z m181 6c1 4 2 8 3 11 2 4 5 7 9 10 2 2 6 4 10 6 7 3 15 5 22 6 4 1 8 1 11 1 1 0 2 0 2 0-5-11-11-21-18-29-9-9-18-16-28-18-2-1-5-1-6-1-1 0-3 1-4 4-1 3-1 7-1 10z m-175 33c8-1 15-3 22-6 4-2 8-4 11-6 3-3 6-6 8-10 1-3 3-7 3-11 0-4 0-7-1-10-1-3-3-4-3-4-2 0-4 0-7 1-9 2-19 9-27 18-8 8-14 18-19 29 4 0 9 0 13-1z m70-174c3-3 7-5 12-5 1-1 2-1 3-1 4 0 8 2 11 4 2 1 3 2 5 4 1 1 1 3 2 4 2 2 4 4 7 4 3 0 5-2 7-4 1-1 1-3 2-4 2-2 3-3 5-4 4-3 9-4 14-3 5 0 9 2 12 5 4 3 6 6 7 11 1 3 1 7 0 11 0 4-2 7-4 10-2 3-4 6-7 8-3 3-8 3-11 0-3-3-3-8 0-11 2-2 4-4 5-5 1-2 1-4 2-5 0-1 0-3 0-4-1-1-1-2-2-3-1-1-2-1-4-2-1 0-2 1-3 1 0 0-1 1-1 1-1 1-1 2-2 3-5 7-12 10-20 11-8 0-15-4-20-11-1-1-1-2-2-3 0 0-1-1-1-1-1 0-2-1-3-1-2 1-3 1-4 2-1 1-1 2-2 3 0 1 0 3 0 4 1 1 1 3 2 5 2 1 3 3 5 5 3 3 3 8 0 11-3 3-8 3-11 0-3-2-5-5-7-8-2-3-3-6-4-10-1-4-1-8 0-11 1-5 3-8 7-11z"/>
<glyph glyph-name="animal-cow" unicode="&#81;" d="M320 304c0-9-7-16-16-16-9 0-16 7-16 16 0 9 7 16 16 16 9 0 16-7 16-16z m-96 0c0-9-7-16-16-16-9 0-16 7-16 16 0 9 7 16 16 16 9 0 16-7 16-16z m-162 79c-26-14-47-37-60-64-3-6-2-13 3-18 14-15 33-25 53-28 4 0 8-1 12-1 14 0 29 3 42 8 1-42 15-80 42-108 2-2 4-4 6-5 1-13 1-31 1-49 1-19 1-39 2-52 0-12 1-28 11-42 17-21 48-23 66-24l33 0c17 1 48 3 65 24 10 14 11 30 11 42 1 13 1 33 2 53 0 18 0 35 1 48 2 2 4 3 6 5 27 28 41 66 42 108 13-5 28-8 42-8 4 0 8 1 12 1 20 3 39 13 53 28 5 5 6 12 3 18-13 27-34 50-60 64-23 13-44 20-75 16-1 0-2-1-4-1-5 5-12 11-19 15 1 1 1 1 2 1 35 11 66 42 56 85-1 9-10 14-19 13-8-2-14-11-12-20 6-25-15-41-35-48-7-2-13-4-22-5-2 0-6-1-9-1-3 0-5 0-7 0-2-1-4-1-5-2-16 4-32 6-45 6-13 0-29-2-45-6-1 1-3 1-5 2-2 0-4 0-7 0-3 0-7 1-9 1-8 1-15 3-22 5-20 7-41 23-35 48 2 9-4 18-12 20-9 1-18-4-19-13-10-43 21-74 56-85 1 0 1 0 2-1-7-4-12-8-18-13-27 2-57-5-80-17z m2-78c-10 1-19 5-28 11 11 16 25 30 41 39 13 7 28 11 44 12-6-16-8-34-9-53-13-7-36-11-48-9z m255-185c-1-20-1-40-2-53 0-10-1-18-5-23-7-9-24-11-40-12l-31 0c-17 1-34 3-41 12-4 5-5 13-5 23-1 13-1 33-1 52-1 11-1 21-1 30 18-5 37-5 53-5l10 0 10 0c16 0 35 0 53 5 0-9 0-19 0-29z m116 235c16-9 30-23 41-39-9-6-18-10-28-11-12-2-35 2-48 9-1 19-3 37-9 54 14 0 27-4 44-13z m-84 19c17-20 17-50 17-84l0-8c0-34-12-65-33-88-16-17-38-18-69-18l-10 0-10 0c-31 0-53 1-69 18-21 23-33 54-33 88l0 8c0 34 0 64 17 84 21 22 65 36 95 36 30 0 74-14 95-36z m-71-302c4 0 8 4 8 8l0 16c0 4-4 8-8 8-4 0-8-4-8-8l0-16c0-4 4-8 8-8z m-48 32c-4 0-8-4-8-8l0-16c0-4 4-8 8-8 4 0 8 4 8 8l0 16c0 4-4 8-8 8z"/>
<glyph glyph-name="animal-crab" unicode="&#82;" d="M224 239c0 9-7 16-16 16-9 0-16-7-16-16 0-9 7-16 16-16 9 0 16 7 16 16z m96 0c0 9-7 16-16 16-9 0-16-7-16-16 0-9 7-16 16-16 9 0 16 7 16 16z m165 164c-14 19-32 36-52 48-22 14-47 28-72 26-10 0-20-6-25-14-5-7-7-16-4-24 4-12 13-19 20-23 2-2 4-3 5-4 11-9 22-19 33-29l4-5c9-9 17-17 23-27-7 2-14 6-23 13-3 2-6 4-8 6-10 8-20 16-34 19-9 3-18 0-24-6-12-13-7-33-6-37 5-17 16-33 33-47 7-6 15-11 23-15 2-1 4-2 6-2 2-1 6-3 6-3 1-1 1-6-1-10-1-2-3-4-5-7-32 35-78 56-128 56-50 0-96-21-128-55-2 2-3 4-4 6-2 4-2 9-2 10 1 0 4 2 6 3 2 0 4 1 6 2 9 4 17 9 24 15 16 14 27 30 32 47 3 11 4 27-5 37-6 6-15 9-25 6-13-3-24-11-33-19-3-2-6-4-8-6-9-7-17-11-24-13 6 9 15 18 23 27l5 5c10 10 21 20 32 29 2 1 4 2 5 4 7 4 17 11 21 23 2 8 1 17-4 24-6 8-15 14-25 14-25 2-51-12-73-26-20-12-37-29-52-48-56-76-18-186 53-240 0-1 1-1 1-1-1-7-1-14-1-21 0-7 4-13 10-15 2-1 4-2 6-3-15-6-33-3-45 8-7 6-17 6-23 0-6-7-6-17 1-23 14-13 32-20 51-20 15 0 31 5 43 14 3-3 6-6 8-9 0 0 0-1 0-1-8-18-33-27-54-20-8 3-17-1-20-10-3-8 1-17 10-20 8-3 17-4 25-4 22 0 42 8 56 23 2-5 4-11 5-16 2-8 8-13 16-13l179 0c7 0 14 5 15 13 1 4 3 9 4 13 14-13 33-20 53-20 8 0 17 1 25 4 9 3 13 12 10 20-3 9-12 13-20 10-20-7-43 1-52 17 2 4 5 8 8 11 12-8 27-12 41-12 19 0 37 7 51 20 7 6 7 16 1 23-6 6-16 6-23 0-11-11-28-14-42-9 1 1 2 2 4 2 5 3 9 9 9 14 0 1 0 2 0 3 0 7 0 14-1 21 0 0 1 0 1 1 71 54 109 164 53 240z m-432-19c12 16 27 30 43 40 10 7 32 21 51 21-2-1-3-2-5-3-2-2-5-3-7-5-12-10-24-21-35-32l-4-5c-13-12-26-26-34-43-6-14-2-24 1-28 6-8 17-12 30-11 19 2 33 11 45 20 3 2 6 5 9 7 4 4 8 7 13 10-4-12-11-22-22-31-6-4-12-8-18-11-1-1-2-1-4-2-6-2-16-6-22-17-7-13-4-28 1-39 3-7 8-13 13-18-8-12-14-26-19-40-45 42-81 126-36 187z m282-320l-154 0c-11 39-36 70-69 87 2 29 13 55 29 77 0 1 0 1 1 1 0 0 0 1 0 1 27 34 68 57 114 57 77 0 140-62 144-139-30-17-54-47-65-84z m88 133c-5 14-11 27-19 40 5 5 10 11 14 18 5 11 7 26 0 39-6 11-16 15-22 17-1 1-3 1-4 2-6 3-12 7-17 11-11 9-19 19-22 31 4-3 8-6 13-10 3-2 6-5 9-7 12-8 26-18 44-20 13-1 24 2 30 11 3 4 8 14 2 28-8 17-22 31-34 43l-5 5c-11 11-23 22-35 32-2 2-4 3-7 5-1 1-3 2-5 4 0 0 0 0 0 0 18 0 41-15 51-22 17-10 32-24 43-40 46-61 10-145-36-187z"/>
<glyph glyph-name="animal-deer" unicode="&#83;" d="M224 208c0-9-7-16-16-16-9 0-16 7-16 16 0 9 7 16 16 16 9 0 16-7 16-16z m96 0c0-9-7-16-16-16-9 0-16 7-16 16 0 9 7 16 16 16 9 0 16-7 16-16z m163 158c-10 3-19 2-26 1-37-4-71-23-95-50-7 6-15 11-24 16 64 26 110 89 110 163 0 9-7 16-16 16-9 0-16-7-16-16 0-49-25-92-62-119 9 17 14 35 14 55 0 9-7 16-16 16-9 0-16-7-16-16 0-44-36-80-80-80-44 0-80 36-80 80 0 9-7 16-16 16-9 0-16-7-16-16 0-20 5-38 14-55-37 27-62 70-62 119 0 9-7 16-16 16-9 0-16-7-16-16 0-74 46-137 110-163-9-5-17-10-24-16-24 27-58 46-95 50-7 1-16 2-26-1-11-3-20-10-25-20-7-14-4-32 8-49 24-33 62-54 102-57-1-2-1-5-1-7-3-40 2-82 16-121 15-45 56-97 114-111 4-1 9-1 13-1 4 0 9 0 13 1 58 14 99 66 115 111 13 39 18 81 15 121 0 2 0 5-1 7 40 3 78 24 102 57 12 17 15 35 8 49-5 10-14 17-25 20z m-363-94c-32 1-63 18-82 43-5 8-7 14-6 17 1 1 3 2 6 3 4 1 9 1 14 1 30-4 59-20 77-44-3-7-6-13-8-20-1 0-1 0-1 0z m233-149c-12-38-46-80-92-90-3-1-7-1-10 0-46 10-80 52-92 90-12 34-17 72-14 108 1 19 6 35 14 48 11 18 34 30 68 38 9 2 19 3 29 3 10 0 20-1 29-3 34-8 57-20 68-38 8-13 13-29 14-48 3-36-2-74-14-108z m121 192c-19-25-50-42-82-43 0 0 0 0-1 0-2 7-5 13-8 20 18 24 47 40 77 44 5 0 10 0 14-1 3-1 5-2 6-3 1-3-1-9-6-17z m-202-219c-4 0-8 4-8 8 0 4-4 8-8 8-4 0-8-4-8-8 0-4-4-8-8-8-4 0-8-4-8-8 0-4 4-8 8-8 6 0 12 2 16 6 4-4 10-6 16-6 4 0 8 4 8 8 0 4-4 8-8 8z"/>
<glyph glyph-name="animal-dog" unicode="&#84;" d="M380 428c-1 0-3 0-5 0-10 10-21 19-33 26-23 12-44 20-64 23-23 4-45 0-63-5-34-10-59-24-78-44-2 0-4 0-5 0-32-13-68-27-96-53-27-27-46-72-30-113 9-23 26-39 43-54 4-3 7-6 11-9 11-11 30-33 26-53-2-7 2-14 8-18 3-1 5-1 7-1 5 0 9 2 12 5 13 14 25 34 31 56 8-20 13-38 15-56 1-11 2-22 0-30-1-3-2-6-3-10-2-6-5-13-5-22 0-14 6-27 16-34 5-3 11-5 17-5 8 0 16 3 23 8 11 8 16 20 20 31 1 1 1 2 2 4 8-6 17-9 27-9 10 0 19 3 27 9 1-1 1-2 2-4 4-10 9-22 20-31 12-9 29-10 40-3 10 7 16 20 16 34 0 9-3 16-5 23-1 3-2 6-3 9-2 9-1 20 0 30 2 18 7 37 15 56 6-22 18-42 30-56 4-4 8-5 13-5 2 0 4 0 7 1 6 4 10 11 8 18-4 20 15 42 26 52 4 4 7 7 11 10 17 15 34 31 43 54 16 41-3 86-30 113-28 26-64 40-96 53z m-270-242c-6 12-16 24-28 36-4 3-8 7-12 10-14 13-28 26-34 42-11 27 4 59 23 78 13 13 30 22 47 30-1-1-1-1-1-2-14-32-16-70-7-105 4-17 11-30 19-42 0-1-1-1 0-2 2-14-1-30-7-45z m127-98c5 8 13 19 20 29 4-6 8-12 12-18 2-4 4-8 6-11-11-9-26-9-38 0z m101 113c-9-22-15-45-17-66-1-13-2-26 1-39 1-5 2-9 4-14 1-4 3-9 3-13 0-3-1-5-1-6-1 0-2 1-3 2-5 3-8 10-11 17-2 7-5 14-10 20-2 4-5 8-8 13-9 15-19 31-30 40-3 3-8 4-12 4-5-1-8-3-11-7 0 0-26-36-35-50-5-7-8-14-10-20-3-8-6-14-11-18-1-1-2-1-3-1 0 1-1 3-1 6 0 4 2 8 3 13 2 4 3 9 4 14 3 12 2 26 1 39-2 21-8 43-17 66-6 15-15 26-23 38-9 14-18 27-22 44-8 28-6 59 5 84 5 12 11 22 18 30 15 20 39 34 72 44 11 3 23 6 35 6 5 0 9 0 14-1 17-3 34-9 53-20 23-13 41-33 52-58 11-26 13-56 5-85-4-17-13-30-22-44-8-11-17-23-23-38z m138 73c-6-16-20-29-34-42-4-3-8-7-12-10-12-12-22-24-28-36-6 15-9 31-7 45 1 1 0 2 0 2 8 12 15 26 19 42 9 36 7 73-7 105 0 1 0 1-1 2 18-8 34-17 47-30 19-19 34-51 23-78z m-220-2c-26 0-48-18-48-40 0-22 22-40 48-40 26 0 48 18 48 40 0 22-22 40-48 40z m0-64c-18 0-32 11-32 24 0 13 14 24 32 24 18 0 32-11 32-24 0-13-14-24-32-24z m-32 112c0-9-7-16-16-16-9 0-16 7-16 16 0 9 7 16 16 16 9 0 16-7 16-16z m96 0c0-9-7-16-16-16-9 0-16 7-16 16 0 9 7 16 16 16 9 0 16-7 16-16z"/>
<glyph glyph-name="animal-dolphin" unicode="&#85;" d="M44 375c16-1 50-12 66-20-2-38 0-75 20-95 3-3 8-5 12-5 8 0 15 7 17 14 1 6 4 16 6 23l2 6c2 5 3 12 4 19 0 2 0 5 1 8 11-7 26-16 28-17 21-13 42-27 61-42 39-29 89-70 121-124 2-4 4-7 6-11-20-31-46-80-38-102 1-8 8-13 17-13 8 0 16 5 28 20 10 3 25 9 35 19 8-4 19-11 31-11 8-5 15-11 16-13 1-5 5-10 11-12 1 0 3-1 5-1 6 0 12 3 15 8 6 9 5 21-3 43-1 2-16 43-60 75 0 5 0 11 0 17 1 14 7 155-116 261 3 8 8 21 21 25 10 2 17 8 18 17 1 16-18 23-27 26-1 0-11 4-26 4-16 0-39-4-64-21-18 7-59 23-102 23-45 0-80-17-102-50-15-3-38-11-45-27-2-6-5-16 4-28 9-12 23-14 38-16z m376-253c23-15 37-33 46-46-1 0-2 0-3-1-4 0-13 5-18 9-6 7-13 8-17 8-10 0-17-7-21-14-1-3-9-7-17-10 8 16 18 35 30 53 0 1 0 1 0 1z m-360 294c5 1 9 3 11 7 16 28 41 41 78 41 48 0 96-24 97-24 5-3 12-2 17 2 21 16 39 20 52 20 1 0 1 0 1 0-18-18-20-44-20-45-1-5 1-11 5-14 122-99 112-239 112-240 0-1 0-2 0-2 0-4 0-7 0-10-1 3-2 5-4 7-35 59-87 102-129 134-20 15-41 29-63 43 0 0-32 20-42 25l0 0c-3 1-7 2-10 2-15 0-21-13-24-26 0 11 1 21 1 27 1 5-1 10-6 14-16 12-67 28-90 30-5 1-8 1-10 2 6 2 15 5 24 7z m100 16c0-9-7-16-16-16-9 0-16 7-16 16 0 9 7 16 16 16 9 0 16-7 16-16z"/>
<glyph glyph-name="animal-donkey" unicode="&#86;" d="M449 376c14 32 19 68 12 103-1 7-3 15-9 22-8 10-22 14-33 9-9-4-16-13-17-25-1-3-1-6-1-9 0-1 0-3 0-5-1-6-9-13-17-19l-4-3c-22-18-40-42-51-69l-2-5c-2-4-4-9-6-12 0-1 0-1-1-1-4 3-8 7-13 10-13 8-28 12-45 12l-12 0c-17 0-32-4-45-12-5-3-9-7-13-10-1 0-1 0-1 1-2 3-4 8-6 12l-2 5c-11 27-29 51-51 69l-4 3c-8 6-16 13-17 19 0 2 0 4 0 6 0 2 0 5-1 8-1 12-8 21-17 25-11 5-25 1-33-9-6-7-8-15-9-22-7-35-2-71 12-103 15-32 40-59 70-77 5-3 11-6 18-8 0 0 0 0 0-1-4-16-7-33-7-51 0-16 1-32 4-49-21-5-36-24-36-46 0-21 14-39 32-45 0-1 0-2 0-3 0-53 50-96 112-96 62 0 112 43 112 96 0 1 0 2 0 3 18 6 32 24 32 45 0 22-15 41-36 46 3 17 4 33 4 49 0 18-3 35-7 51 0 0 0 1 0 1 7 2 13 5 18 8 30 18 55 45 70 77z m-227-31c8 5 17 7 28 7l12 0c11 0 20-2 28-7 9-6 18-15 24-25 7-11 12-23 16-38 4-14 6-28 6-44 0-14-1-29-4-45-1-8-2-15-4-23-20 14-45 22-72 22-27 0-52-8-72-22-2 8-3 15-4 23-3 16-4 31-4 45 0 16 2 30 6 44 3 15 9 27 16 38 6 10 15 19 24 25z m-73-18c-24 14-45 37-56 62-11 23-15 48-12 72 4-16 17-26 27-34l3-3c19-15 34-34 43-56l2-5c2-5 4-11 7-16 2-4 5-7 8-10-4-5-6-11-9-16-4 1-9 4-13 6z m-5-183c0 7 4 13 10 15 2-5 3-11 5-16-3-4-5-8-7-12-5 3-8 7-8 13z m112-112c-44 0-80 29-80 64 0 35 36 64 80 64 44 0 80-29 80-64 0-35-36-64-80-64z m104 99c-2 4-4 8-7 12 2 5 3 11 5 16 6-2 10-8 10-15 0-6-3-10-8-13z m-10 190c-3 5-5 11-8 16 2 3 5 6 7 10 3 5 5 11 7 16l2 5c9 22 24 41 43 56l3 3c10 8 23 18 27 34 3-24-1-49-12-72-11-25-32-48-56-62-4-2-9-5-13-6z m-60-243c-19-19-49-19-68 0-4 3-9 3-12 0-3-4-3-9 0-12 13-12 30-18 46-18 16 0 33 6 46 18 3 3 3 8 0 12-3 3-8 3-12 0z m-66 194c0-9-7-16-16-16-9 0-16 7-16 16 0 9 7 16 16 16 9 0 16-7 16-16z m96 0c0-9-7-16-16-16-9 0-16 7-16 16 0 9 7 16 16 16 9 0 16-7 16-16z m-104-160c0-4-4-8-8-8-4 0-8 4-8 8 0 4 4 8 8 8 4 0 8-4 8-8z m96 0c0-4-4-8-8-8-4 0-8 4-8 8 0 4 4 8 8 8 4 0 8-4 8-8z"/>
<glyph glyph-name="animal-dove" unicode="&#87;" d="M112 193c0-9-7-16-16-16-9 0-16 7-16 16 0 8 7 16 16 16 9 0 16-8 16-16z m-77 47c-18-16-25-39-30-61 0-1 0-3-1-6 0-3-1-9-2-12-2-4-3-9-1-14 3-9 13-13 21-10 0 0 0 0 0 0 15 4 34 0 50-13 15-11 26-26 37-42l4-6c14-19 30-40 54-53 24-13 55-18 86-13 30 5 57 18 77 28l5 3c14 7 28 14 41 15 13 1 26-5 28-12 1-3 1-5 2-8 1-10 4-26 19-33 4-2 9-3 13-3 18 0 30 14 35 20 9 13 17 26 22 41 19 48 22 97 10 149-1 3-2 8-7 13-4 4-10 7-17 7-3 0-14 0-35-14-10-6-20-14-31-26-3-3-6-5-8-8-13-13-24-26-39-33-7-4-15-5-20-4-4 1-7 4-7 6 0 3 7 9 12 13 5 4 9 8 14 12 12 14 16 32 19 46l8 33c3 12 5 24 8 36 2 13 4 27 4 40 8 21 7 42 7 60-1 21-1 43-4 65 0 8-7 14-15 15-8 1-15-4-17-12-9-27-27-52-49-72-1 9-4 17-9 23 6 19-2 40-16 56-4 4-9 8-13 12-6 6-12 11-16 17-1 3-3 6-4 9-5 7-14 10-22 6-8-4-12-13-8-21 1-3 2-7 4-10 5-13 4-30-5-42-10-14-28-23-46-32-14-7-28-14-41-24-25-20-42-49-44-80-2-16 0-32 5-47-2 0-5 1-7 2-27 6-52 0-71-16z m344 152c0 0 0-1 0-2 1-17 1-34-5-48-1-2-1-4-1-6-1-13-3-26-5-39-2-12-4-23-7-35l-8-32c-2-11-5-24-12-31-2-3-6-6-9-9-10-8-24-19-25-38-1-18 13-35 33-40 13-3 28-1 44 7 19 10 34 25 47 40l8 8c9 9 17 16 25 21 4 2 7 4 10 5 8-42 5-80-10-120-5-12-11-22-18-32-2-3-4-5-6-6 0 2-1 4-1 6 0 4-1 9-2 13-7 21-31 36-57 36-3 0-5 0-7 0-20-2-38-11-54-19l-4-3c-18-9-42-20-67-24-24-4-47-1-65 8-17 10-30 27-42 44l-4 5c-13 18-26 36-44 50-17 13-36 20-55 21 4 17 9 33 19 42 11 10 25 12 42 9 19-5 35-13 45-23 1-1 2-2 3-3 5-6 13-8 20-5 7 4 11 11 10 18-6 40 8 66 46 89 14 8 29 13 45 19 13 4 25 9 37 14 29 14 55 35 74 60z m-206-38c10 8 22 14 35 20 21 11 44 22 59 43 5 8 9 16 11 25 7-8 12-20 8-24-4-4-6-9-5-15 1-5 5-9 10-12 4-2 5-15 3-26-1-1-2-1-3-2-11-5-22-9-34-13-17-6-35-12-51-22-31-19-50-40-59-67-5 12-7 24-6 37 2 21 14 42 32 56z m39-152c-1-5 2-9 6-10 1 0 1 0 2 0 4 0 7 3 8 6 9 43 45 81 87 91 5 1 7 5 6 10-1 4-5 7-9 6-50-12-90-54-100-103z"/>
<glyph glyph-name="animal-duck" unicode="&#88;" d="M466 350c0 0-1 0-1 0-8 0-27-36-30-41-13-24-25-47-50-61-16-9-33-14-51-14-17 0-33 4-49 13-12 7-33 23-33 38 0 8 6 15 12 21 49 47 52 124-5 166-19 15-44 22-67 22-12 0-23-1-33-5-33-10-60-43-75-73-6-12-18-20-30-20-2 0-3 0-5 1-16 2-29 8-38 8-7 0-11-4-11-16 0-27 35-53 77-72 14-7 30-12 17-20-51-33-92-86-83-150 12-76 82-109 149-124 26-6 53-9 81-9 105 0 214 44 256 143 9 22 14 46 15 69 1 44-8 96-46 124z m14-123c-1-20-5-39-12-57-39-91-143-124-227-124-25 0-50 3-74 8-76 18-117 50-124 98-9 61 45 103 69 118 18 12 19 29 19 36-2 23-23 32-36 38l-5 2c-14 6-25 13-34 18 24 1 46 16 56 38 14 28 36 50 57 57 7 2 15 3 23 3 17 0 34-5 47-15 23-17 29-39 30-53 2-24-8-47-27-65-5-5-22-21-22-43 0-31 26-53 49-66 20-12 42-18 65-18 23 0 47 6 67 18 33 19 49 48 63 74l1 2c1 2 1 3 2 4 12-23 14-53 13-73z m-304 173c0-9-7-16-16-16-9 0-16 7-16 16 0 9 7 16 16 16 9 0 16-7 16-16z m208-243c-19-15-44-25-70-28-48-6-98 12-127 44-3 4-8 4-11 1-3-3-4-8-1-11 28-32 74-51 121-51 7 0 13 0 20 1 29 4 56 15 78 31 4 2 4 7 2 11-3 4-8 4-12 2z"/>
<glyph glyph-name="animal-eagle" unicode="&#89;" d="M482 241c0 9 0 17 0 25 0 25 0 50-7 75-11 45-44 84-88 109-38 21-85 31-135 30-28-1-51-6-71-14-22-9-41-26-53-44-26-1-50-7-70-18-27-15-47-38-54-65-9-30-2-63 19-84 3-3 8-5 13-5 5 1 9 4 12 8 10 16 29 27 47 27l2 0c19-1 37-12 45-29 10-19 7-44 3-63-8-48-25-94-50-136 0 0 0-1-1-1 0-1-1-2-1-3 0 0 0 0 0 0 0 0 0 0 0 0-2-7 1-14 7-18 3-2 5-2 8-2 5 0 11 2 14 7 0 0 0 0 0 0 0 0 0 0 0 0 0 0 0 0 0 0 0 0 0 0 0 0 0 0 0 0 0 0 0 0 0 0 0 1 0 0 0 0 0 0 0 0 0 0 0 0 0 0 0 0 0 0 0 0 0 0 0 0 0 0 0 0 0 0 0 0 0 0 0 0 0 0 0 0 0 0 0 0 0 0 0 0 0 0 0 0 0 0 21 34 49 62 83 83 13 8 23 11 30 8 3-2 7-5 11-9 6-5 12-11 21-14 5-2 11-3 17-3 13 0 24 5 31 9 7 4 13 9 19 13 3 3 7 6 10 8 22 15 53 20 79 13 25-8 48-28 58-53 0 0 0 0 0 0 4-8 13-12 21-8 8 3 12 12 9 20-18 43-27 88-29 133z m-50-62c-35 11-76 4-106-16-4-3-8-6-12-10-5-4-10-8-15-11-8-4-15-5-20-3-3 1-7 4-11 8-6 5-12 11-21 14-16 7-36 4-59-10-8-5-16-10-24-16 6 17 10 34 13 52 4 24 7 56-7 84-13 27-42 45-72 46l-3 0c-21 0-43-9-59-24-5 12-5 25-2 37 6 19 20 35 39 46 17 9 38 14 60 14l4 0c6 0 12 3 15 8 7 16 23 31 41 38 16 7 36 11 60 12 44 1 86-8 119-26 36-20 63-53 72-89 6-21 6-43 6-67 0-9 0-17 0-26 1-24 4-49 9-72-8 5-18 9-27 11z m-70 204c-4 2-9 0-11-4-2-4 0-9 4-10 36-16 53-62 39-102-1-4 1-9 5-10 1-1 2-1 3-1 3 0 6 2 7 6 17 47-4 102-47 121z m-138 1c0-9-7-16-16-16-9 0-16 7-16 16 0 9 7 16 16 16 9 0 16-7 16-16z"/>
<glyph glyph-name="animal-elephant" unicode="&#90;" d="M223 245c-3 9-12 13-20 10-9-3-13-12-10-20 20-55 22-119 7-176-3-9-6-20-3-31 2-10 9-19 18-24 8-4 18-5 26-2 5 1 10 4 15 7 5-3 10-6 15-7 3-1 6-2 10-2 5 0 11 2 16 4 9 5 16 14 18 24 3 11 0 22-3 32-15 56-13 120 7 175 3 8-1 17-10 20-8 3-17-1-20-10-22-61-25-130-8-195 2-5 4-11 3-15-1-2-3-3-3-3-5 2-9 5-9 6 0 9-7 16-16 16-9 0-16-7-16-16 0 0-3-4-9-6 0 0-2 1-3 3-1 4 1 10 3 17 17 63 14 132-8 193z m-49 188c-3 3-8 3-11 0-22-20-35-48-35-77 0-29 12-58 33-78 2-2 4-3 6-3 2 0 4 1 6 3 3 3 3 8 0 11-19 18-29 42-29 67 0 24 11 48 29 66 4 3 4 8 1 11z m165-155c2-2 4-3 6-3 2 0 4 1 6 3 21 20 33 49 33 78 0 29-13 57-35 77-3 3-8 3-11 0-3-3-3-8 1-11 18-18 29-42 29-66 0-25-10-49-29-67-3-3-3-8 0-11z m170 102c2 10 5 25 0 38-7 19-28 33-43 43-15 10-32 19-50 25-21 7-51 11-78 0-21 16-50 26-82 26-32 0-61-10-82-26-27 11-57 7-78 0-18-6-35-15-50-25-15-10-36-24-43-43-5-13-2-28 0-38 17-71 70-133 139-165-12-47-37-91-73-123-6-6-7-16-1-23 6-6 16-7 23-1 43 40 73 95 85 154 1 7-3 15-10 18-66 26-116 83-131 147-2 5-4 15-3 19 4 10 22 22 31 28 14 9 29 16 44 22 17 6 43 8 60-3 7-4 15-3 20 2 16 16 42 25 69 25 27 0 53-9 69-25 5-5 13-6 20-2 17 11 43 9 60 3 15-5 30-13 44-22 9-6 27-18 31-28 1-3-1-14-3-19-15-64-65-121-131-147-7-3-11-11-10-18 12-59 42-113 85-154 3-3 7-4 11-4 4 0 9 2 12 5 6 7 5 17-1 23-36 33-61 76-73 123 69 32 122 94 139 165z m-301-12c0-9-7-16-16-16-9 0-16 7-16 16 0 9 7 16 16 16 9 0 16-7 16-16z m128 0c0-9-7-16-16-16-9 0-16 7-16 16 0 9 7 16 16 16 9 0 16-7 16-16z"/>
<glyph glyph-name="animal-elephant-2" unicode="&#48;" d="M471 218c-5-2-9-6-10-11-4-4-13-9-16-11-6-1-9-1-10 0-2 2-3 6-3 16l0 3c0 18 0 61 0 103l0 2c0 30-12 58-33 79-21 21-49 33-79 33l-67 0c-28-1-54-15-71-36-4-4-6-8-9-12l-61 0c-53 0-96-43-96-96l0-208c0-9 7-16 16-16l64 0c9 0 16 7 16 16l0 48 160 0 0-48c0-9 7-16 16-16l64 0c9 0 16 7 16 16l0 85c1-2 2-5 3-7 3-7 6-14 10-22 13-17 36-27 59-23 20 3 39 17 48 36 9 18 10 40 3 59-2 9-12 13-20 10z m-11-55c-5-10-15-17-25-19-11-1-22 3-27 11-3 4-5 9-7 14-2 5-4 11-7 16-9 15-27 29-47 23-7-3-11-9-11-16l0-96-32 0 0 48c0 9-7 16-16 16l-192 0c-9 0-16-7-16-16l0-48-32 0 0 192c0 35 29 64 64 64l50 0c-2-11-3-22-1-33 3-14 9-29 18-40 20-28 55-43 89-38 34 4 65 27 77 59 4 8 0 17-9 20-8 4-17 0-20-8-9-21-29-37-52-40-22-2-46 8-59 26-6 8-10 17-12 27-2 11-1 22 3 32 2 3 4 6 4 9 2 4 4 7 6 10 12 14 30 23 48 24l66 0c21 0 42-8 57-23 15-16 23-36 23-57l0-2c0-43 0-85 0-103l0-4c0-11 0-29 16-41 10-7 24-9 39-4 1 0 4 2 7 4 0-3-1-5-2-7z m-76 125c0-9-7-16-16-16-9 0-16 7-16 16 0 9 7 16 16 16 9 0 16-7 16-16z"/>
<glyph glyph-name="animal-fish" unicode="&#49;" d="M448 272c0-9-7-16-16-16-9 0-16 7-16 16 0 9 7 16 16 16 9 0 16-7 16-16z m44 24c-26 35-65 60-108 71-9 31-39 52-68 60-13 3-28 5-45 5-17 0-34-2-49-3-6-1-11-5-13-10-3-6-2-12 2-17 10-12 18-25 24-40-43-10-82-30-115-58-22 27-55 47-90 54-7 2-13-1-17-6-4-6-4-13 0-18 32-46 28-112-9-154-4-5-5-11-3-17 2-5 7-9 13-10 45-4 90 20 111 57 38-30 84-52 132-63-3-14-13-28-25-37-5-3-8-10-6-16 1-6 6-11 13-12 6-1 13-2 19-2 31 0 60 12 81 32 4 5 8 9 12 14 6 7 12 13 18 18 8 4 19 7 29 9 4 1 8 2 12 3 28 7 54 21 75 40 15 14 24 28 26 43 3 18-3 37-19 57z m-29-76c-17-16-38-27-61-33-3-1-7-2-11-3-12-2-26-6-39-13-10-7-18-16-25-25-4-3-7-7-10-11-11-10-24-17-39-21 8 14 13 30 13 46 1 8-5 15-13 16-55 10-108 35-148 72-3 2-7 4-11 4-1 0-3-1-4-1-6-2-10-6-11-11-7-24-30-44-56-52 21 39 24 85 11 126 18-11 34-25 46-43 2-4 7-6 11-7 5 0 10 1 13 5 35 33 80 57 129 66 4 0 8 3 10 7 3 3 3 8 2 12-3 16-9 31-18 45 21 2 40 1 56-3 20-6 44-22 46-44 1-7 6-13 13-14 40-8 76-30 100-61 10-13 14-24 13-33-1-7-7-15-17-24z m-67 11c-4 2-8 8-10 15-2 7-1 16 2 22 3 4 1 9-3 11-4 2-9 1-11-3-5-10-6-23-3-34 3-12 10-22 19-25 1-1 2-1 3-1 3 0 6 2 8 5 1 4-1 9-5 10z"/>
<glyph glyph-name="animal-fox" unicode="&#50;" d="M488 266c0 0 0 0 1 0 4 0 7 4 7 8-1 21-13 41-33 53-1 15-5 29-11 43 1 0 2 1 4 2 10 9 17 23 18 41 0 5 0 11 0 16 0 6 0 12 1 17 2 14 11 28 19 42 3 5 3 13-1 18-5 5-11 7-18 5-18-6-37-12-55-21-22-10-38-24-49-40 0 0 0 0 0-1-33 17-73 27-115 27-42 0-82-10-115-27 0 1 0 1 0 1-11 16-27 30-49 40-18 9-37 15-55 21-7 2-13 0-18-5-4-5-4-13-1-18 8-14 17-28 19-42 1-5 1-11 1-17 0-5 0-11 0-16 1-18 8-32 18-41 2-1 3-2 4-2-6-14-10-28-11-43-20-12-32-32-33-53 0-4 3-8 7-8 1 0 1 0 1 0 4 0 7 2 8 6 1 5 3 9 7 12 4 2 8 3 13 4 0-3 1-6 2-9-1 0-2 0-3-1l-5-2c-8-5-12-12-14-19-1-4 2-8 6-9 1 0 1 0 2 0 4 0 7 2 8 6 0 3 3 6 5 8l5 2 1 0c0 0 0 0 0 0 14-31 41-59 77-79l2-1c24-10 43-40 48-65 2-9 2-19 3-29 0-4 0-9 1-13 1-15 3-35 15-51 11-17 29-26 51-26 21 0 41 10 51 26 12 17 14 36 15 51 1 4 1 9 1 13 1 11 1 20 3 29 5 25 22 54 46 64l2 1c46 24 77 62 86 104 5-1 9-2 13-4 4-3 6-7 7-12 1-4 4-6 8-6z m-54 196c5 2 9 4 14 6-2-6-4-11-5-17-1-8-1-15-1-23 0-4 0-8 0-12 0-6-2-15-7-19-10 13-23 25-37 36 8 11 20 21 36 29z m-364-46c0 4 0 8 0 12 0 8 0 15-1 23-1 6-3 11-5 17 5-2 9-4 14-6 16-8 28-18 36-29-14-11-27-23-37-36-5 4-7 13-7 19z m-25-113c1 1 2 3 4 4 0-1 0-2 0-4-1 0-3 0-4 0z m315-90c-38-16-59-57-65-87-3-12-3-23-4-34 0-5 0-9 0-13-2-16-5-27-10-35-5-8-14-12-25-12-11 0-20 4-25 12-5 8-8 19-10 35 0 4 0 8 0 13-1 11-1 22-4 34-7 32-31 73-66 88-45 24-71 62-71 102 0 71 79 128 176 128 97 0 176-57 176-128 0-41-27-80-72-103z m103 91c0 1 0 2 0 3 2-1 3-3 4-4-1 0-2 0-4 1z m9-56c1 0 1 0 2 0 4 1 7 5 6 9-2 7-6 14-15 19l-4 2-5-6-2-8 3-2c4-2 7-5 7-8 1-4 4-6 8-6z m-321 56c-3-1-6-4-7-7-2-16 3-31 15-42 9-10 21-15 35-15 2 0 4 0 7 0 3 1 6 4 7 7 2 16-3 31-15 42-11 11-26 17-42 15z m19-38c-6 6-10 14-10 22 8 0 16-4 22-10 6-6 10-14 10-22-8 0-16 4-22 10z m191 38c-16 2-31-4-42-15-12-11-17-26-15-42 1-3 4-6 7-7 3 0 5 0 7 0 14 0 26 5 35 15 12 11 17 26 15 42-1 3-4 6-7 7z m-19-38c-6-6-14-10-22-10 0 8 4 16 10 22 6 6 14 10 22 10 0-8-4-16-10-22z"/>
<glyph glyph-name="animal-frog" unicode="&#51;" d="M372 167c-64-41-168-41-232 0-3 2-8 1-11-3-2-3-1-8 3-11 34-22 79-33 124-33 45 0 90 11 124 33 4 3 5 8 3 11-3 4-8 5-11 3z m28 297c-39 0-74-19-94-51-34 4-66 4-100 0-20 32-55 51-94 51-62 0-112-50-112-112 0-19 5-38 14-54-9-19-14-38-14-58 0-97 115-176 256-176 141 0 256 79 256 176 0 20-5 39-14 58 9 16 14 35 14 54 0 62-50 112-112 112z m66-174c9-16 14-33 14-50 0-79-100-144-224-144-124 0-224 65-224 144 0 17 5 34 14 50 3 5 3 12 0 17-9 13-14 29-14 45 0 44 36 80 80 80 30 0 58-17 71-44 4-6 10-10 17-9 38 7 74 7 112 0 7-1 13 3 17 9 13 27 41 44 71 44 44 0 80-36 80-80 0-16-5-32-14-45-3-5-3-12 0-17z m-322 46c0 18-14 32-32 32-18 0-32-14-32-32 0-18 14-32 32-32 18 0 32 14 32 32z m-32-16c-9 0-16 7-16 16 0 9 7 16 16 16 9 0 16-7 16-16 0-9-7-16-16-16z m288 48c-18 0-32-14-32-32 0-18 14-32 32-32 18 0 32 14 32 32 0 18-14 32-32 32z m0-48c-9 0-16 7-16 16 0 9 7 16 16 16 9 0 16-7 16-16 0-9-7-16-16-16z m-176-112c0-9-7-16-16-16-9 0-16 7-16 16 0 9 7 16 16 16 9 0 16-7 16-16z m96 0c0-9-7-16-16-16-9 0-16 7-16 16 0 9 7 16 16 16 9 0 16-7 16-16z"/>
<glyph glyph-name="animal-giraffe" unicode="&#52;" d="M397 346c9 7 17 15 26 18 2 1 5 1 7 2 2 0 4 1 6 1 19 5 31 25 27 45-3 17-18 31-38 35-15 3-32 0-49-9-11-6-21-15-30-22-10 9-22 17-34 22l12 43c7 2 12 8 12 15 0 9-7 16-16 16-9 0-16-7-16-16 0-4 2-8 5-11l-12-42c-11 3-21 5-33 5l-16 0c-12 0-22-2-33-5l-12 42c3 3 5 7 5 11 0 9-7 16-16 16-9 0-16-7-16-16 0-7 5-13 12-15l12-43c-12-5-24-13-34-22-9 7-19 16-30 22-17 9-34 12-49 9-20-4-35-18-38-35-4-20 8-40 27-45 2 0 4-1 6-1 2-1 5-1 7-2 9-3 17-11 26-18 4-3 7-6 10-8 1-1 2-1 3-1 0-3 0-6 0-9l0-208c0-66 54-120 120-120l16 0c66 0 120 54 120 120l0 208c0 3 0 6 0 9 1 0 2 0 3 1 3 2 6 5 10 8z m-149 70l16 0c49 0 88-39 88-88l0-141c-27 22-61 34-96 34-35 0-69-12-96-34l0 141c0 49 39 88 88 88z m51-343c-28 5-58 5-86 0l-35-6c-11 15-18 33-18 53l0 45c26 26 60 40 96 40 36 0 70-14 96-40l0-45c0-20-7-38-18-53z m-174 285c-9 8-19 17-30 21-4 1-7 2-10 2-2 1-3 1-5 2-11 2-18 14-16 26 3 10 13 20 26 22 11 3 25 0 38-7 10-6 19-13 27-20-12-14-20-31-24-50-2 1-4 3-6 4z m123-326c-22 0-42 8-57 21l24 4c27 5 55 5 82 0l24-4c-15-13-35-21-57-21z m109 372c8 7 17 14 27 20 13 7 27 10 38 7 13-2 23-12 26-22 2-12-5-24-16-26-2-1-3-1-5-2-3 0-6-1-10-2-11-4-21-13-30-21-2-1-4-3-6-4-4 19-12 36-24 50z m-149-132c0-9-7-16-16-16-9 0-16 7-16 16 0 9 7 16 16 16 9 0 16-7 16-16z m128 0c0-9-7-16-16-16-9 0-16 7-16 16 0 9 7 16 16 16 9 0 16-7 16-16z m-96-112c0-9-7-16-16-16-9 0-16 7-16 16 0 9 7 16 16 16 9 0 16-7 16-16z m64 0c0-9-7-16-16-16-9 0-16 7-16 16 0 9 7 16 16 16 9 0 16-7 16-16z"/>
<glyph glyph-name="animal-hippo" unicode="&#53;" d="M208 320c0-9-7-16-16-16-9 0-16 7-16 16 0 9 7 16 16 16 9 0 16-7 16-16z m128 0c0-9-7-16-16-16-9 0-16 7-16 16 0 9 7 16 16 16 9 0 16-7 16-16z m-328-181c12-37 40-56 68-71 27-14 54-25 81-31 1-1 2-1 3-1l0-28c0-4 4-8 8-8l48 0c4 0 8 4 8 8l0 18c11-1 21-1 32-1 11 0 21 0 32 1l0-18c0-4 4-8 8-8l48 0c4 0 8 4 8 8l0 28c1 0 2 0 3 1 21 5 42 12 64 23 20 9 37 17 53 31 15 13 24 27 31 45 13 38 12 78-4 111-4 8-8 16-13 24-6 9-11 18-15 28-3 9-4 20-6 31-1 5-1 10-2 16-2 11-5 21-9 32 22 20 31 51 23 79-10 33-43 56-77 55-16-1-34-8-43-22-27 14-58 22-89 22l-19 0-5 0c-31 0-62-8-89-22-9 14-27 21-43 22-34 1-67-22-77-55-8-28 1-59 22-79-3-11-6-21-8-32-1-6-2-11-2-16-2-11-3-22-6-31-4-10-9-19-15-28-5-8-9-16-13-24-15-32-17-71-5-108z m200-123l-32 0 0 16c11-2 21-3 32-5z m128 0l-32 0 0 11c11 2 21 3 32 5z m65 480c26 1 53-18 61-44 6-19 0-42-14-58-12 28-31 53-54 72-7 6-15 12-23 17 7 8 19 13 30 13z m-351-44c8 26 35 45 61 44 11 0 23-5 30-13-8-5-16-11-23-17-23-19-42-44-54-72-14 16-20 39-14 58z m-8-219c3 7 7 14 11 21 7 10 14 21 18 34 4 13 6 25 8 38 0 4 1 9 2 14 6 40 27 77 58 102 29 24 67 38 105 38l4 0 20 0c38 0 76-14 105-38 31-25 52-62 58-102 1-5 2-10 2-14 2-13 4-25 8-38 4-13 11-24 18-34 4-7 8-14 11-21 12-25 13-56 3-86-5-13-11-22-22-32-13-11-28-18-45-26-20-10-40-17-58-21-60-15-124-15-184 0-24 6-49 15-73 28-26 14-44 28-53 53-9 29-8 60 4 84z m134 23c35 0 64 29 64 64 0 35-29 64-64 64-35 0-64-29-64-64 0-35 29-64 64-64z m0 112c26 0 48-22 48-48 0-26-22-48-48-48-26 0-48 22-48 48 0 26 22 48 48 48z m160-112c35 0 64 29 64 64 0 35-29 64-64 64-35 0-64-29-64-64 0-35 29-64 64-64z m0 112c26 0 48-22 48-48 0-26-22-48-48-48-26 0-48 22-48 48 0 26 22 48 48 48z m-207-169c-6-2-11-7-14-13-4-10-4-23 1-36 7-18 22-30 36-30 2 0 5 0 7 1 6 2 11 7 14 13 4 10 4 23-1 36-8 21-28 34-43 29z m29-58c-1-3-2-4-4-5-6-2-17 6-23 20-3 9-4 18-1 23 1 3 2 4 4 5 1 0 1 0 2 0 7 0 16-8 21-20 3-9 4-18 1-23z m225 58c-15 5-35-8-43-29-5-13-5-26-1-36 3-6 8-11 14-13 2-1 5-1 7-1 14 0 29 12 36 30 5 13 5 26 1 36-3 6-8 11-14 13z m-2-43c-6-14-17-22-23-20-2 1-3 2-4 5-3 5-2 14 1 23 5 12 14 20 21 20 1 0 1 0 2 0 2-1 3-2 4-5 3-5 2-14-1-23z"/>
<glyph glyph-name="animal-hippo-2" unicode="&#54;" d="M496 80l-32 0 0 80c0 33-20 61-48 73l0 55c0 26-13 49-32 64l0 48c0 26-22 48-48 48-26 0-48-22-48-48l0-32-64 0 0 32c0 26-22 48-48 48-26 0-48-22-48-48l0-48c-19-15-32-38-32-64l0-55c-28-12-48-40-48-73l0-80-32 0c-9 0-16-7-16-16 0-9 7-16 16-16l480 0c9 0 16 7 16 16 0 9-7 16-16 16z m-176 320c0 9 7 16 16 16 9 0 16-7 16-16l0-34c-5 1-11 2-16 2l-16 0z m-160 0c0 9 7 16 16 16 9 0 16-7 16-16l0-32-16 0c-5 0-11-1-16-2z m-32-112c0 26 22 48 48 48l160 0c26 0 48-22 48-48l0-48-256 0z m-48-128c0 26 22 48 48 48l256 0c26 0 48-22 48-48l0-80-352 0z m80 16c-18 0-32-14-32-32 0-18 14-32 32-32 18 0 32 14 32 32 0 18-14 32-32 32z m0-48c-9 0-16 7-16 16 0 9 7 16 16 16 9 0 16-7 16-16 0-9-7-16-16-16z m192 48c-18 0-32-14-32-32 0-18 14-32 32-32 18 0 32 14 32 32 0 18-14 32-32 32z m0-48c-9 0-16 7-16 16 0 9 7 16 16 16 9 0 16-7 16-16 0-9-7-16-16-16z m-144 160c0-9-7-16-16-16-9 0-16 7-16 16 0 9 7 16 16 16 9 0 16-7 16-16z m128 0c0-9-7-16-16-16-9 0-16 7-16 16 0 9 7 16 16 16 9 0 16-7 16-16z"/>
<glyph glyph-name="animal-horse" unicode="&#55;" d="M43 171c3-1 7-1 11-1 19 0 30 11 39 20 4 3 8 7 12 9 6 5 13 9 20 13 5 3 11 6 16 9 16 10 34 21 47 38 9-11 13-25 12-38 0-21-10-43-20-61-2-5-4-9-7-13-9-18-19-36-25-56-10-31-6-62 8-84 3-4 8-7 14-7 0 0 1 0 1 0 50 5 114 14 164 44 41 25 71 54 90 88 7 12 12 25 16 38 7 13 15 28 22 35 10 9 25 11 38 6 2-2 5-1 7 0 3 2 4 4 4 7 0 25-12 50-31 66-2 3-4 5-7 7-5 3-9 7-12 11-4 4-6 12-4 16 2 4 7 6 12 7 6 0 12-1 18-3 3-1 6 0 8 2 2 2 3 5 2 8-8 25-27 45-51 54-4 1-7 2-11 3-5 2-10 3-14 6-6 2-12 7-12 13-1 7 6 13 12 15 8 3 17 3 26 3 3-1 7 2 8 5 1 3 0 6-2 9-24 21-57 32-88 28-6 0-11-1-16-2-7-1-15-2-22-2 0 0 0 0 0 0-9 0-21 3-26 11-2 4-3 9-1 14 1 1 3 4 6 5 4 0 7 4 7 8 0 4-3 7-6 8-40 6-100-6-137-27-12 11-30 20-53 28-5 2-12 1-16-4-3-3-5-6-5-11-5 1-11 1-16 0-5-2-9-5-11-9-2-5-2-10 1-14l4-8c12-22 20-40 11-52-16-19-30-42-40-66-5-9-7-19-9-28-3-10-6-19-10-26-2-5-5-10-8-14-7-10-14-21-17-35-4-16-1-35 8-49 8-13 19-21 33-24z m6 31c-6 2-10 6-12 10-3 5-5 12-5 19 14-4 27-12 34-23-6-6-10-7-17-6z m239 265c7-12 22-19 40-19 9-1 17 1 25 2 5 1 9 2 14 2 20 2 40-2 58-11-3-1-6-2-9-3-14-5-23-18-22-31 1-11 8-21 21-27 5-3 11-4 17-6 3-1 6-2 9-3 15-5 28-17 36-30-3 0-6 0-9 0-10-1-19-7-24-15-5-10-3-23 5-34 5-6 10-10 15-14 2-2 5-4 7-5 12-12 21-27 24-44-15 2-32-2-43-13-2-1-3-3-4-4 2 53-16 108-53 151-60 69-143 90-206 95-1 4-4 9-7 13 29 15 71 25 105 24 0 0 0 0 0 0-4-9-4-20 1-28z m-243-206c4 5 8 11 11 17 5 11 9 22 11 33 3 8 5 16 8 23 9 22 21 42 36 59 13 16 13 34 8 50 4-1 7-2 11 0 9 2 13 11 11 20 0 0 0 0 0 0l-2 4c14-8 21-17 21-26 1-8 8-14 16-15 57-2 138-19 195-84 48-55 59-137 26-195-16-28-42-54-79-75-41-25-95-34-139-39-6 13-6 31-1 49 5 17 14 33 23 50 3 4 5 8 8 13 11 21 23 47 23 76 1 33-15 62-42 75-2 1-4 2-7 2-2 0-3 0-5-1-4-2-8-5-9-9-7-16-24-27-45-40-5-3-10-6-15-9-8-4-15-8-22-13-4-2-7-5-9-7-10 13-25 23-42 27 3 5 6 10 9 15z m52 52c1 0 3 1 4 1 17 9 24 27 18 42-2 5-6 6-10 5-4-2-6-7-5-11 3-7-1-17-10-21-4-2-6-7-4-11 2-3 4-5 7-5z m100 1c-2-3-1-8 3-10 1-1 3-2 4-2 3 0 6 2 7 4 18 31 17 72-2 102-2 3-7 4-11 2-4-2-5-7-2-11 15-25 16-59 1-85z"/>
<glyph glyph-name="animal-jellyfish" unicode="&#56;" d="M255 480c-141 0-256-108-256-240 0-9 7-16 16-16 9 0 16 7 16 16 0 11 1 21 3 32 5-1 8-4 14-11 5-5 12-13 22-17-8-7-13-16-15-25-3-15 4-31 20-42 2-2 5-3 8-5 5-3 10-6 12-9 4-6-4-14-7-17-3-3-8-7-13-10-5-4-10-7-14-12-13-12-17-26-9-37 3-5 9-9 14-13 4-2 7-4 9-6 3-3 4-6 3-10 0-4-3-8-8-11-4-2-5-7-3-11 1-3 4-4 7-4 1 0 2 0 4 1 9 6 15 14 16 23 1 8-1 17-8 23-3 3-7 6-11 9-4 2-8 5-10 8-4 6 4 14 7 17 3 3 8 6 13 10 5 4 10 7 14 12 13 12 17 26 9 37-4 6-11 10-17 14-2 1-5 3-7 4-10 8-15 17-13 26 2 10 11 19 24 25 17 2 26 13 33 20 7 8 10 11 16 11 6 0 9-3 16-11 5-5 12-13 22-17-8-7-13-16-15-25-3-15 4-31 20-42 2-2 5-3 8-5 5-3 10-6 12-9 4-6-4-14-6-17-4-3-9-7-14-10-5-4-10-7-14-12-13-12-16-26-9-37 3-5 9-9 14-13 4-2 7-4 9-6 3-3 4-6 3-10 0-4-3-8-8-11-4-2-5-7-3-11 1-3 4-4 7-4 1 0 2 0 4 1 9 6 15 14 16 23 1 8-1 17-8 23-3 3-7 6-11 9-4 2-8 5-10 8-4 6 4 14 7 17 3 3 8 6 13 10 5 4 10 7 14 12 13 12 17 26 9 37-4 6-11 10-17 14-2 1-5 3-7 4-10 8-15 17-13 26 2 10 11 19 24 25 17 2 26 13 33 20 7 8 10 11 16 11 6 0 9-3 16-11 6-7 16-18 33-20 13-6 22-15 24-25 2-9-3-18-13-26-2-1-5-3-7-4-6-4-13-8-17-14-8-11-4-25 8-37 5-5 10-8 15-12 5-4 10-7 13-10 3-3 11-11 7-17-2-3-6-6-10-8-4-3-8-6-11-9-7-6-9-15-8-23 1-9 7-17 16-23 2-1 3-1 4-1 3 0 6 1 7 4 2 4 1 9-3 11-5 3-8 7-8 11-1 4 0 7 3 10 2 2 5 4 9 6 5 4 11 8 14 13 8 11 4 25-9 37-4 5-9 8-14 12-5 3-10 7-13 10-3 3-11 11-7 17 2 3 7 6 12 9 3 2 6 3 8 5 16 11 23 27 20 42-2 9-7 18-15 25 10 4 17 12 22 17 7 8 10 11 16 11 6 0 9-3 16-11 7-8 16-18 33-20 13-6 23-15 24-25 2-9-3-18-13-26-2-1-5-3-7-4-6-4-13-8-17-14-8-11-4-25 8-37 5-5 10-8 15-12 5-4 10-7 13-10 3-3 11-11 7-17-2-3-6-6-10-8-4-3-8-6-11-9-7-6-9-15-8-23 1-9 7-17 16-23 2-1 3-1 4-1 3 0 6 1 7 4 2 4 1 9-3 11-5 3-8 7-8 11-1 4 0 7 3 10 2 2 5 4 9 6 5 4 11 8 14 13 8 11 4 25-9 37-4 5-9 8-14 12-5 3-10 7-13 10-3 3-11 11-7 17 2 3 7 6 12 9 3 2 6 3 8 5 16 11 23 27 20 42-2 9-7 18-15 25 10 4 17 11 22 17 6 7 8 10 13 11 1-11 2-21 2-32 0-9 8-16 16-16 9 0 16 7 16 16 0 132-115 240-256 240z m185-197c-7-8-10-11-16-11-6 0-9 3-16 11-8 9-19 21-40 21-21 0-33-13-40-21-7-8-10-11-16-11-6 0-9 3-16 11-8 8-19 21-40 21-21 0-33-13-40-21-7-8-10-11-16-11-6 0-9 3-16 11-8 8-19 21-40 21-21 0-33-13-40-21-7-8-10-11-16-11-6 0-9 3-16 11-6 7-15 17-30 20 29 84 113 145 213 145 100 0 185-61 214-145-14-4-23-13-29-20z"/>
<glyph glyph-name="animal-koala" unicode="&#57;" d="M176 240c0-9-7-16-16-16-9 0-16 7-16 16 0 9 7 16 16 16 9 0 16-7 16-16z m192 0c0-9-7-16-16-16-9 0-16 7-16 16 0 9 7 16 16 16 9 0 16-7 16-16z m73 191c-26 5-52-4-71-23-7-7-12-15-17-23-28 20-62 31-99 31-36 0-69-11-96-29-5 8-10 15-16 21-19 19-45 27-71 23-25-5-47-23-60-47-12-25-12-53-10-72 3-24 10-45 16-66 2-7 5-17 12-25 7-8 16-13 26-13 3 0 7 1 10 2 6 3 11 7 14 11 8-84 78-141 175-141 99 0 169 60 175 146l0 0c4-5 9-12 18-16 3-1 7-2 10-2 10 0 19 5 26 13 7 8 10 18 12 25 6 21 13 42 16 66 2 19 2 47-10 72-13 24-35 42-60 47z m-382-182c-1-2-2-3-3-5-1-1-1-2-2-3 0 0 0 0 0 0-3 3-5 9-6 15-6 19-13 39-15 59-2 15-2 36 7 55 8 15 22 26 37 29 15 3 31-2 43-14 4-5 8-10 11-16 1-1 1-2 2-2-29-27-48-64-53-105-8-1-15-6-21-13z m195-137c-85 0-144 52-144 127 0 80 65 145 144 145 79 0 144-65 144-145 0-75-59-127-144-127z m225 203c-2-20-9-40-15-59-1-6-3-12-6-15 0 0 0 0 0 0-1 1-1 2-2 3-1 2-2 3-3 5-7 8-16 13-25 13-5 40-23 76-50 103 1 1 2 2 3 4 3 6 7 11 11 16 12 12 28 17 43 14 15-3 29-14 37-29 9-19 9-40 7-55z m-223-43c-29 0-48-43-48-71 0-31 22-57 48-57 26 0 48 26 48 57 0 28-19 71-48 71z m0-112c-18 0-32 18-32 41 0 24 16 55 32 55 16 0 32-31 32-55 0-23-14-41-32-41z"/>
<glyph glyph-name="animal-koala-2" unicode="&#33;" d="M464 320c-9 0-16-7-16-16l0-32-96 0 0 87c10-5 21-7 32-7 44 0 80 36 80 80 0 44-36 80-80 80-36 0-66-24-76-57-11 6-23 9-36 9l-64 0c-13 0-25-3-36-9-10 33-40 57-76 57-44 0-80-36-80-80 0-44 36-80 80-80 11 0 22 2 32 7l0-231c0-6 1-11 2-16-1 0-1 0-2 0-26 0-48-22-48-48 0-26 22-48 48-48 23 0 43 17 47 39 10-4 21-7 33-7l240 0 0-32c0-9 7-16 16-16 9 0 16 7 16 16l0 288c0 9-7 16-16 16z m-80 160c26 0 48-22 48-48 0-26-22-48-48-48-13 0-25 5-34 15-2 12-7 22-14 32 0 0 0 1 0 1 0 26 22 48 48 48z m-112-48c14 0 27-6 36-17 7-7 10-16 11-26l1-2c0-1 0-2 0-3l0-48c0-26-22-48-48-48l-64 0c-26 0-48 22-48 48l0 48c0 1 0 2 0 3l1 2c1 10 4 19 11 26 9 11 22 17 36 17z m-224 0c0 26 22 48 48 48 26 0 48-22 48-48 0 0 0-1 0-1-7-10-12-20-14-32-9-10-21-15-34-15-26 0-48 22-48 48z m80-384c-9 0-16 7-16 16 0 9 7 16 16 16 9 0 16-7 16-16 0-9-7-16-16-16z m80 32c-26 0-48 22-48 48l0 144c13-10 30-16 48-16l64 0c18 0 35 6 48 16l0-16c0-9 7-16 16-16l112 0 0-32-56 0c-4 0-8-4-8-8 0-4 4-8 8-8l56 0 0-64-56 0c-4 0-8-4-8-8 0-4 4-8 8-8l56 0 0-32z m16 240c0-9 7-16 16-16 9 0 16 7 16 16l0 16c0 9-7 16-16 16-9 0-16-7-16-16z m64 64c0-9-7-16-16-16-9 0-16 7-16 16 0 9 7 16 16 16 9 0 16-7 16-16z m-64 0c0-9-7-16-16-16-9 0-16 7-16 16 0 9 7 16 16 16 9 0 16-7 16-16z"/>
<glyph glyph-name="animal-leopard" unicode="&#34;" d="M512 452c-2 28-14 49-33 57-19 8-42 1-65-19l-4-3c-12-10-22-19-33-19-8 0-16 4-25 9-2 1-5 3-7 4-28 14-59 19-89 16-30 3-61-2-89-16-2-1-5-3-7-4-9-5-17-9-25-9 0 0 0 0 0 0-11 0-21 9-33 19l-4 3c-23 20-46 27-65 19-19-8-31-29-33-57-2-37 14-74 42-97-7-35-10-75-7-118 1-21 4-52 18-79 14-26 37-48 64-58 4-2 7-3 11-4 7-2 13-5 18-8 7-5 9-10 13-23l1-1c5-17 17-33 32-45 17-12 37-19 58-19l12 0c0 0 0 0 0 0 21 0 41 7 58 19 15 12 27 28 32 45l1 1c4 13 6 18 13 23 5 3 11 6 18 8 4 1 7 2 11 4 27 10 50 32 64 58 14 27 17 58 18 79 3 43 0 83-7 118 28 23 44 60 42 97z m-212-407c-10-8-24-13-38-13l-12 0c-14 0-28 5-38 13-5 3-9 7-12 11 13 1 25 4 33 9 1 1 2 1 4 2 1 1 2 2 3 3 1 0 4 2 8 2l16 0c4 0 7-2 8-2 1-1 2-2 3-3 2-1 3-1 4-2 8-5 20-8 33-9-3-4-7-8-12-11z m143 330c-6-3-8-10-7-17 9-35 12-75 9-119-1-18-4-44-15-66-10-20-27-36-47-44-3-1-6-2-9-3-8-3-17-6-25-11-17-11-22-26-27-40l0-1c0-1-1-1-1-2-14 0-27 3-33 6-1 1-2 2-3 2-1 1-3 2-5 4-4 2-10 4-16 4l-16 0c-6 0-12-2-16-4-2-2-4-3-5-4-1-1-2-1-3-2-6-3-19-6-33-6 0 1-1 1-1 2l0 1c-5 14-10 29-27 40-8 5-17 9-25 11-3 1-6 2-9 3-20 8-37 24-47 44-11 22-14 48-15 66-3 44 0 84 9 119 1 7-1 14-7 17-24 16-38 46-37 76 1 11 5 25 13 28 8 3 19-2 33-13l4-3c13-12 30-27 53-27 16 0 28 7 40 13 2 1 4 2 7 3 22 11 47 16 72 13 1 0 3 0 4 0 25 3 50-2 72-13 3-1 5-2 7-3 11-6 24-13 41-13 0 0 0 0 0 0 22 0 39 15 52 27l4 3c14 11 25 16 33 13 8-3 12-17 13-28 1-30-13-60-37-76z m-230 23c-28 2-57-7-78-25-4-3-4-8-1-12 1-2 3-3 6-3 1 0 3 1 5 2 18 16 43 24 67 22 4 0 8 3 8 7 1 5-3 8-7 9z m159-40c3 0 5 1 6 3 3 4 3 9-1 12-21 18-50 27-78 25-4-1-8-4-7-9 0-4 4-7 8-7 24 2 49-6 67-22 2-1 4-2 5-2z m-180-54c0 18-14 32-32 32-18 0-32-14-32-32 0-18 14-32 32-32 18 0 32 14 32 32z m-48 0c0 9 7 16 16 16 9 0 16-7 16-16 0-9-7-16-16-16-9 0-16 7-16 16z m208 32c-18 0-32-14-32-32 0-18 14-32 32-32 18 0 32 14 32 32 0 18-14 32-32 32z m0-48c-9 0-16 7-16 16 0 9 7 16 16 16 9 0 16-7 16-16 0-9-7-16-16-16z m-159-85c5 15 8 30 7 45 0 5-4 8-9 8-4 0-7-4-7-8 1-13-2-27-6-39-4-10-10-19-17-27-4-3-9-9-9-17 0-8 4-15 13-21 7-5 14-9 21-14 2-2 3-2 5-2 2 0 5 1 6 3 3 4 2 9-2 11-7 6-14 11-21 15-4 3-6 6-6 8 0 1 1 3 4 6 9 9 16 20 21 32z m141 6c-4 12-7 26-6 39 0 4-3 8-7 8-5 0-9-3-9-8-1-15 2-30 7-45 5-12 12-23 21-32 3-3 4-5 4-6 0-2-2-5-6-8-7-4-14-9-21-14-4-3-5-8-2-12 1-2 4-3 6-3 2 0 3 0 5 2 7 5 14 9 21 14 9 6 13 13 13 21 0 8-5 14-9 17-7 8-13 17-17 27z"/>
<glyph glyph-name="animal-lion" unicode="&#35;" d="M208 304c0 18-14 32-32 32-17 0-32-14-32-32 0-18 15-32 32-32 18 0 32 14 32 32z m-32-16c-8 0-16 7-16 16 0 9 8 16 16 16 9 0 16-7 16-16 0-9-7-16-16-16z m160-16c18 0 32 14 32 32 0 18-14 32-32 32-17 0-32-14-32-32 0-18 15-32 32-32z m0 48c9 0 16-7 16-16 0-9-7-16-16-16-8 0-16 7-16 16 0 9 8 16 16 16z m-159-230c3-20 21-33 38-36 8-1 17-1 27 0 4 0 7 1 11 1 1 0 1 0 2 0l2 0c0 0 0 0 0 0 1 0 2 0 2 0 4 0 8-1 11-1 5 0 10-1 15-1 4 0 8 0 12 1 17 3 35 16 38 36 2 7 0 14 0 19-1 3-1 5-1 8-1 7 7 16 14 24 4 5 8 9 11 13l36 51c2 3 5 7 7 10 6 8 13 16 18 27 7 15 12 29 15 43 5 22 6 45 3 68 0 4-1 8-2 12 0 0 0 0 1 1 9 11 20 24 25 42 6 23-1 46-17 60-14 12-35 15-56 9-16-4-32-14-44-25-4 1-8 1-13 1-18 0-34-8-48-14-9-5-19-9-28-11-9 2-19 6-28 11-14 6-30 14-48 14-5 0-9 0-13-1-12 11-28 21-44 25-21 6-42 3-56-10-16-13-23-36-17-59 5-18 16-31 25-42 1-1 1-1 1-1-1-4-2-8-2-12-3-23-2-46 3-68 3-14 8-28 15-43 5-11 12-19 18-27 2-3 5-7 7-10l36-51c3-4 7-8 11-13 7-8 15-17 14-24 0-3 0-5-1-8 0-5-2-12 0-19z m114-4c-6-2-12-1-18 0-5 0-10 1-14 1l-2 0c0 0 0 0-1 0l-3 0c-4 0-9-1-14-1-6-1-12-2-18 0-6 1-12 5-13 9 0 2 0 6 1 9 1 3 1 6 1 9 2-1 3-1 4-1 6 0 12 1 17 3 5 1 9 4 14 6l11 6 11-6c5-2 9-5 14-6 7-3 14-3 21-3 0-2 1-5 1-8 1-3 1-7 1-9-1-4-7-8-13-9z m107 360c10 3 21 2 27-3 6-5 9-16 6-27-2-7-6-13-10-19-4 5-8 11-13 16-9 10-19 18-29 25 6 3 13 7 19 8z m-317-30c-3 11 0 22 6 27 6 5 17 6 27 3 6-1 13-5 19-8-10-7-20-15-29-25-5-5-9-11-13-16-4 6-8 12-10 19z m62-192c-3 3-5 7-8 10-5 7-11 14-14 21-6 14-10 25-13 37-4 19-5 38-3 57 1 4 2 8 3 11 0 0 0 0 0 1 4 10 10 20 20 30 8 10 17 17 27 23 9 5 17 7 25 7 10 0 22-5 34-11 12-6 25-12 40-14 2 0 4 0 6 0 14 2 26 8 38 14 12 6 24 11 35 11 7 0 15-2 24-7 10-6 19-13 27-23 10-10 16-20 20-30 0-1 0-1 0-1 1-3 2-7 3-11 2-19 1-38-3-57-3-12-7-23-13-37-3-7-9-14-14-21-3-3-5-7-8-10l-36-51c-3-4-6-7-9-11-8-9-17-20-21-33-6-1-11-1-17 1-4 1-7 3-11 5l-15 8c-3 1-5 1-8 0l-15-8c-4-2-7-4-11-5-6-2-11-2-17-1-4 13-13 24-21 33-3 4-6 7-9 11z m80-50c6-8 15-13 21-16 4-2 8-3 12-3 4 0 8 1 12 3 6 3 15 8 21 16 13 14 18 35 13 53-2 4-6 7-10 5-5-1-7-5-6-10 4-13 1-27-8-37-6-6-12-10-18-13-3-2-6-2-8 0-6 3-12 7-18 13-9 10-12 24-8 37 1 5-2 9-6 10-4 2-8-1-10-5-5-18 0-39 13-53z m-155-87c5-3 9-5 14-7 14-6 27-12 38-21 17-12 28-29 30-46 1-3 2-5 5-6 2-2 5-2 7 0 16 8 35 6 49-5 1-1 3-2 5-2 2 0 5 1 6 3 3 3 2 9-1 11-16 13-38 17-57 11-6 23-24 39-34 47-13 10-27 16-41 23-5 2-9 4-14 6-14 7-33 18-44 35-14 19-18 47-13 78 5 27 17 53 29 79 2 4 0 8-4 10-4 2-9 0-11-4-12-26-24-53-30-83-6-34 0-66 15-89 14-20 35-32 51-40z m220-87c2 0 4 1 5 2 14 11 34 13 49 5 2-2 5-2 7 0 3 1 4 3 5 6 2 17 13 34 30 46 11 9 24 15 38 21 5 2 9 4 14 7 16 8 37 20 51 40 15 23 21 55 15 89-6 30-18 57-30 83-2 4-7 6-11 4-4-2-6-6-4-10 12-26 24-52 29-79 5-31 1-59-12-78-12-17-30-28-45-35-5-2-9-4-14-6-13-7-28-13-41-23-10-8-28-24-34-47-19 6-41 2-57-11-3-2-4-7-1-11 1-2 4-3 6-3z m-254 355c1-2 4-3 6-3 2 0 4 1 5 2 4 2 4 7 2 11-18 23-33 47-31 71 2 21 19 42 44 52 27 11 57 9 77 4 28-6 53-18 75-29 4-2 9-1 11 3 2 4 1 9-3 11-23 11-50 24-79 31-23 5-56 8-87-5-30-13-51-38-54-66-2-29 15-55 34-82z m478 82c-3 28-24 53-54 66-31 13-64 10-87 5-29-7-56-20-79-31-4-2-5-7-3-11 2-4 7-5 11-3 22 11 47 23 75 29 20 5 50 7 77-4 25-10 42-31 44-52 2-24-13-48-31-71-2-4-2-9 2-11 1-1 3-2 5-2 2 0 5 1 6 3 19 27 36 53 34 82z"/>
<glyph glyph-name="animal-monkey" unicode="&#36;" d="M464 291c0 41-30 74-68 77-10 40-39 70-79 86 5 11 14 19 21 24 14 8 29 10 44 12 4 1 6 4 7 7 0 4-2 8-6 9-45 14-96 2-134-31-1 1-1 2-2 3-4 6-9 10-15 14-21 13-45 20-69 20-4 0-7-2-8-6-1-3 0-7 3-9 16-10 27-25 31-43 0-1 1-2 1-3-38-15-64-45-74-83-38-3-68-36-68-77 0-32 17-60 43-75-7-17-11-35-11-56 0-93 74-160 176-160 102 0 176 67 176 160 0 21-4 39-11 56 26 15 43 43 43 75z m-134 201c-13-8-23-20-28-34-13 4-27 6-42 6 23 19 51 30 78 32-3-1-5-3-8-4z m-126-34c-3 13-9 25-17 35 13-3 26-8 37-15 3-2 7-5 9-8 2-3 2-6 1-7 0 0 0 0 0 0-11-2-20-4-29-6-1 0 0 0-1 1z m52-26c56 0 112-30 112-97 0-18-4-35-13-51-27 13-60 20-99 20-39 0-72-7-99-20-9 16-13 33-13 51 0 67 56 97 112 97z m-192-141c0 31 21 56 49 60-1-5-1-10-1-16 0-24 6-47 17-68-13-10-23-23-31-36-20 11-34 34-34 60z m192-259c-85 0-144 53-144 128 0 104 110 112 144 112 34 0 144-8 144-112 0-75-59-128-144-128z m158 199c-8 13-18 26-31 36 11 21 17 44 17 68 0 6 0 11-1 16 28-4 49-29 49-60 0-26-14-49-34-60z m-76-106c-22-29-51-45-82-45-31 0-60 16-82 45-2 3-7 4-11 1-3-2-4-7-1-11 25-33 58-51 94-51 36 0 69 18 94 51 3 4 2 9-1 11-4 3-9 2-11-1z m-18 211c0-9-7-16-16-16-9 0-16 7-16 16 0 9 7 16 16 16 9 0 16-7 16-16z m-96 0c0-9-7-16-16-16-9 0-16 7-16 16 0 9 7 16 16 16 9 0 16-7 16-16z"/>
<glyph glyph-name="animal-mouse" unicode="&#37;" d="M84 244c0-1 0-2 0-3 0-60 71-164 120-206 14-12 33-19 52-19 19 0 38 7 52 19 49 42 120 146 120 206 0 1 0 2 0 3 49 12 84 57 84 108 0 62-50 112-112 112-46 0-87-28-103-70-14 4-28 6-41 6-13 0-27-2-40-6-17 42-58 70-104 70-62 0-112-50-112-112 0-51 35-96 84-108z m316 188c44 0 80-36 80-80 0-36-24-66-57-76-13 47-52 86-97 107 13 29 42 49 74 49z m-4-191c0-45-62-141-109-181-17-15-45-15-62 0-47 40-109 136-109 181 0 67 78 127 140 127 62 0 140-60 140-127z m-284 191c33 0 61-20 74-49-45-21-84-60-97-107-33 10-57 41-57 76 0 44 36 80 80 80z m224-264c0 13-7 24-16 24-9 0-16-11-16-24 0-13 7-24 16-24 9 0 16 11 16 24z m-128 0c0 13-7 24-16 24-9 0-16-11-16-24 0-13 7-24 16-24 9 0 16 11 16 24z m48-88c12 0 23 7 31 20 2 4 1 8-3 11-3 2-8 1-11-3-10-16-24-16-34 0-3 4-7 5-11 3-4-3-5-7-3-11 8-13 19-20 31-20z"/>
<glyph glyph-name="animal-octopus" unicode="&#38;" d="M454 286c-3 0-5 0-8-1-11-1-21-7-27-16-5-8-7-17-5-26 3-16 16-23 25-27 2-2 4-3 6-4 9-7 11-20 6-30-5-13-20-19-32-19l-1 0c-16 0-33 8-48 22-12 11-21 24-30 37 37 30 60 78 60 130 0 88-65 160-144 160-79 0-144-72-144-160 0-52 23-100 60-130-9-13-18-26-30-37-15-14-32-22-48-22l-1 0c-12 1-27 6-32 19-5 10-3 23 6 30 2 1 4 3 6 4 9 4 22 11 25 27 2 9 0 18-5 26-6 9-16 15-27 17-3 0-5 0-8 0-30 0-51-26-57-68-5-40 5-78 26-102 17-19 40-30 69-30 7 0 15 1 22 2-9-8-20-15-32-20l-2-1c-6-2-12-5-18-10-10-8-15-20-13-31 3-12 11-21 23-24 7-2 16-2 24-1 50 7 96 34 128 74 11 15 21 32 28 50 7-18 17-35 28-50 32-40 78-67 128-74 4-1 7-1 11-1 5 0 9 1 13 2 12 3 20 12 22 24 3 11-2 23-12 31-6 5-12 8-18 10l-2 1c-12 5-23 12-33 20 8-1 17-2 25-2 0 0 0 0 0 0 27 0 50 11 67 30 21 24 31 62 26 102-6 42-27 68-57 68z m-419-63c3 12 9 31 23 31 1 0 2 0 3 0 3-1 6-3 6-4 0-2-5-4-9-6-3-2-7-4-11-7-5-4-9-9-12-14z m426-86c-11-12-26-19-45-19-18 0-38 6-61 19-6 3-13 3-18-2-5-5-7-12-4-19 16-34 45-63 80-78l3-1c4-1 7-3 10-5 0 0 0 0 0 0-2 0-6 0-10 1-41 6-80 28-107 62-21 27-35 67-37 105 0 9-7 15-16 15-9 0-16-6-16-15-2-38-16-78-37-105-27-34-66-56-107-62-4-1-6-2-10-1 0 0 0 0 0 0 3 2 6 4 10 5l3 1c35 15 64 44 80 78 3 7 1 14-4 19-5 5-12 5-18 2-23-13-43-19-62-19 0 0 0 0 0 0-18 0-33 7-43 19-5 5-8 11-11 17 12-13 30-22 51-23l2 0c24 0 49 11 70 31 18 17 32 38 43 56 3 3 3 8 2 12-1 4-3 8-7 10-36 22-58 65-58 112 0 71 50 128 112 128 62 0 112-57 112-128 0-47-22-90-58-112-4-2-6-6-7-10-1-4 0-9 2-12 11-18 25-39 43-56 21-20 46-31 70-31l2 0c21 1 39 9 51 23-3-6-6-12-10-17z m4 100c-4 3-8 5-11 7-4 2-9 4-9 6 0 1 3 3 6 4 1 0 2 0 3 0 14 0 20-19 23-31-3 5-7 10-12 14z m-145 51c0-9-7-16-16-16-9 0-16 7-16 16 0 9 7 16 16 16 9 0 16-7 16-16z m-96 0c0-9-7-16-16-16-9 0-16 7-16 16 0 9 7 16 16 16 9 0 16-7 16-16z"/>
<glyph glyph-name="animal-orca" unicode="&#39;" d="M24 179l3-3c13-12 28-23 44-32 36-20 80-30 130-30 10 0 21 1 31 2 1 0 3 0 5 0 19-12 39-24 60-33 4-2 9-5 16-5 0 0 1 0 1 0 9 1 16 7 18 15 1 6-2 12-4 16-4 7-8 14-13 21 12 4 24 8 36 14 53 24 93 77 103 136 15 10 34 24 46 45 13 23 16 52 6 78-2 8-10 12-18 11-8-2-13-9-13-17 0-1-2-5-7-8-3-1-7-3-11-4-5-2-10-4-16-8-4-2-8-6-11-9-5 3-9 6-14 8l-4 3c-9 5-19 12-20 19-2 7-8 12-15 13-7 0-13-4-16-10-14-35-3-77 26-101 1-1 3-2 5-4 4-3 9-6 9-9 1-1 0-4-3-6-3-3-8-4-16-5-16 0-33 8-49 22-12 11-22 23-33 37-8 10-16 21-26 31-30 31-75 50-120 50-42 0-79-15-105-44-29-30-43-73-38-114 1-2-1-9-7-22-13-26 9-46 20-57z m290-78c1-1 3-4 2-5 0-1-1-2-3-2-3 0-6 2-10 3-14 7-28 14-41 22 11 2 23 4 36 7 6-8 11-16 16-25z m75 255c2-2 5-3 7-5l4-2c9-6 18-11 22-18 4-5 10-8 17-7 6 1 11 7 12 13 2 9 4 11 6 13 4 2 8 3 12 5 3 1 7 3 10 4-1-6-3-13-7-18-7-13-20-25-41-37 0-1-1-1-1-1-5 9-12 14-19 19-1 1-3 2-4 3-9 8-16 19-18 31z m-317-6c20 22 49 34 82 34 36 0 73-15 97-40 9-9 16-19 24-29 11-14 22-28 37-41 15-13 40-30 70-30 0 0 2 0 2 0 11 1 21 3 29 8-15-34-42-64-76-79-36-17-79-23-108-25-55-5-105 4-143 24-14 8-26 17-37 27l-3 3c-2 2-4 4-6 6 11-2 21-3 32-3 28 0 56 7 86 16 4 1 6 5 5 10-1 4-6 6-10 5-41-12-79-21-119-10 11 22 10 32 9 36-4 31 7 65 29 88z m59-35c0 5-4 8-8 8-5 0-8-3-8-8 0-4 3-8 8-8 4 0 8 4 8 8z"/>
<glyph glyph-name="animal-owl" unicode="&#40;" d="M502 300c8 33 14 83 7 124-4 22-13 35-26 39-10 3-21 0-31-8-4-4-8-8-11-12l-2-4c-12-13-26-22-41-24-1 0-2-1-2-1-42 22-90 34-140 34-50 0-98-12-139-34-1 1-2 1-2 1-15 2-30 11-41 24l-3 4c-3 4-6 8-11 12-9 8-20 11-30 8-14-4-22-17-26-39-7-41-2-91 6-124 0 0 0-1 0-1-7-19-10-39-10-59 0-115 115-208 256-208 141 0 256 93 256 208 0 20-3 39-10 58 0 1 0 2 0 2z m-246-236c-124 0-224 79-224 176 0 18 3 35 10 53 2 3 2 7 1 11l-1 2c0 0-1 1-1 2-7 29-12 74-6 111 2 7 3 10 4 12 0 0 0 0 0 0 2-2 5-5 7-8l3-4c16-20 38-32 61-36l6-1c4-1 8 0 11 2 38 21 83 32 129 32 46 0 91-11 129-32 3-2 7-3 11-2l2 0c2 1 3 1 4 1 24 4 45 16 61 36l4 4c2 3 4 6 6 8 0 0 0 0 1 0 1-2 2-6 3-12 7-37 1-82-6-111 0-1 0-2-1-3l0-2c-2-3-1-7 0-11 7-17 10-34 10-52 0-97-100-176-224-176z m0 208c0 53-43 96-96 96-53 0-96-43-96-96 0-53 43-96 96-96 53 0 96 43 96 96z m-96-80c-44 0-80 36-80 80 0 44 36 80 80 80 44 0 80-36 80-80 0-44-36-80-80-80z m0 112c-18 0-32-14-32-32 0-18 14-32 32-32 18 0 32 14 32 32 0 18-14 32-32 32z m0-48c-9 0-16 7-16 16 0 9 7 16 16 16 9 0 16-7 16-16 0-9-7-16-16-16z m208 112c-53 0-96-43-96-96 0-53 43-96 96-96 53 0 96 43 96 96 0 53-43 96-96 96z m0-176c-44 0-80 36-80 80 0 44 36 80 80 80 44 0 80-36 80-80 0-44-36-80-80-80z m0 112c-18 0-32-14-32-32 0-18 14-32 32-32 18 0 32 14 32 32 0 18-14 32-32 32z m0-48c-9 0-16 7-16 16 0 9 7 16 16 16 9 0 16-7 16-16 0-9-7-16-16-16z m-112-80c-18 0-32-14-32-32 0-15 21-52 25-60 1-2 4-4 7-4 3 0 6 2 7 4 4 8 25 45 25 60 0 18-14 32-32 32z m0-71c-9 17-16 34-16 39 0 9 7 16 16 16 9 0 16-7 16-16 0-5-7-22-16-39z"/>
<glyph glyph-name="animal-panda" unicode="&#41;" d="M336 240c0-9-7-16-16-16-9 0-16 7-16 16 0 9 7 16 16 16 9 0 16-7 16-16z m-128 0c0-9-7-16-16-16-9 0-16 7-16 16 0 9 7 16 16 16 9 0 16-7 16-16z m208 240c-27 0-53-12-71-32-27 10-57 16-89 16-32 0-62-6-89-16-18 20-44 32-71 32-53 0-96-43-96-96 0-30 15-59 39-77-5-16-7-33-7-51 0-124 100-224 224-224 124 0 224 100 224 224 0 18-2 35-7 51 24 18 39 47 39 77 0 53-43 96-96 96z m-384-96c0 35 29 64 64 64 15 0 29-5 40-14-38-22-69-55-86-94-11 12-18 27-18 44z m224-320c-106 0-192 86-192 192 0 102 81 176 192 176 111 0 192-74 192-176 0-106-86-192-192-192z m206 276c-17 39-48 72-86 94 11 9 25 14 40 14 35 0 64-29 64-64 0-17-7-32-18-44z m-148-28c-6 0-12-1-17-4-23-12-32-44-19-73 9-21 28-35 48-35 6 0 12 1 17 4 23 12 32 44 19 73-9 21-28 35-48 35z m22-94c-3-1-7-2-10-2-13 0-27 10-34 26-9 21-3 44 12 52 3 1 7 2 10 2 14 0 27-10 34-26 9-21 3-44-12-52z m-102 17c13 29 4 61-19 73-5 3-11 4-17 4-20 0-39-14-48-35-13-29-4-61 19-73 5-3 11-4 17-4 20 0 39 14 48 35z m-58-17c-15 8-21 31-12 52 7 16 20 26 34 26 3 0 7-1 10-2 15-8 21-31 12-52-9-20-29-31-44-24z m136-41c-5 0-8-4-8-8 0-11-6-20-15-23-8-2-17 0-23 6-1 1-2 3-3 4-3 5-11 5-14 0-1-1-2-3-3-4-6-6-15-8-23-6-9 3-15 12-15 23 0 4-3 8-8 8-4 0-8-3-8-8-1-18 10-34 27-38 3-1 6-2 10-2 10 0 20 4 27 11 10-9 24-13 37-9 17 5 28 21 27 38 0 5-4 8-8 8z"/>
<glyph glyph-name="animal-penguin" unicode="&#42;" d="M192 256c0-9-7-16-16-16-9 0-16 7-16 16 0 9 7 16 16 16 9 0 16-7 16-16z m160 0c0-9-7-16-16-16-9 0-16 7-16 16 0 9 7 16 16 16 9 0 16-7 16-16z m118-61c6 22 10 45 10 69 0 123-96 216-224 216-128 0-224-93-224-216 0-24 4-47 10-69l-39-110c-2-4-6-15 0-25 5-8 13-12 23-12 3 0 7 1 11 2 26 7 49 24 66 45 40-39 94-63 153-63 59 0 113 24 153 63 17-21 40-38 66-45 4-1 8-2 11-2 10 0 18 4 23 12 6 10 2 21 0 25z m-214 253c111 0 191-76 192-182-2 7-3 15-5 21-7 23-18 42-33 55-21 21-47 29-70 23-19-5-34-17-47-27-2-2-5-5-8-8-8-8-18-18-27-18 0 0 0 0 0 0l-2 0c0 0 0 0 0 0-9 0-18 10-27 18-3 3-6 5-8 8-13 10-28 22-47 27-23 6-49-2-70-23-15-13-25-32-32-55-3-10-6-20-8-31 0 3 0 6 0 8 0 107 81 184 192 184z m-220-365l25 68c5-11 12-21 20-31-11-16-27-30-45-37z m220-19c-82 0-152 54-179 129-1 10 0 21 0 31l0 2c1 20 5 39 10 57 6 20 16 36 28 48 17 17 38 23 55 19 16-5 29-15 40-24 3-3 6-5 8-8 10-10 23-22 38-22 0 0 0 0 0 0l2 0c0 0 0 0 0 0 15 0 28 12 38 22 3 3 5 6 8 8 11 9 25 19 40 24 18 4 38-2 55-19 13-12 22-28 28-48 6-18 9-37 10-57l0-2c1-8 1-16 1-24-26-79-98-136-182-136z m175 56c8 10 15 20 20 31l25-68c-18 7-34 21-45 37z m-135 56l-80 0c-3 0-6-2-7-5-2-2-1-6 1-8l40-48c1-2 4-3 6-3 2 0 5 1 6 3l40 48c2 2 3 6 1 8-1 3-4 5-7 5z m-40-44l-23 28 46 0z"/>
<glyph glyph-name="animal-pig" unicode="&#43;" d="M208 288c0 18-14 32-32 32-18 0-32-14-32-32 0-18 14-32 32-32 18 0 32 14 32 32z m-48 0c0 9 7 16 16 16 9 0 16-7 16-16 0-9-7-16-16-16-9 0-16 7-16 16z m176 32c-18 0-32-14-32-32 0-18 14-32 32-32 18 0 32 14 32 32 0 18-14 32-32 32z m0-48c-9 0-16 7-16 16 0 9 7 16 16 16 9 0 16-7 16-16 0-9-7-16-16-16z m-96-128c0-9-7-16-16-16-9 0-16 7-16 16 0 9 7 16 16 16 9 0 16-7 16-16z m64 0c0-9-7-16-16-16-9 0-16 7-16 16 0 9 7 16 16 16 9 0 16-7 16-16z m-48 80c-44 0-80-36-80-80 0-44 36-80 80-80 44 0 80 36 80 80 0 44-36 80-80 80z m0-144c-35 0-64 29-64 64 0 35 29 64 64 64 35 0 64-29 64-64 0-35-29-64-64-64z m245 366c-1 3-4 6-7 7-15 7-31 11-48 11-33 0-65-14-89-37-4-5-8-10-12-15-56 26-122 26-178 0-4 5-8 10-12 15-24 23-56 37-89 37-17 0-33-4-48-11-3-1-6-4-7-7-22-44-11-99 26-137 7-6 14-12 22-17-7-22-11-45-11-68 0-115 93-208 208-208 115 0 208 93 208 208 0 23-4 46-11 68 8 5 15 11 22 17 37 38 48 93 26 137z m-49-114c-8-7-16-14-26-18-8-4-11-13-8-21 9-22 14-45 14-69 0-97-79-176-176-176-97 0-176 79-176 176 0 24 5 47 14 69 3 8 0 17-8 21-10 4-18 11-26 18-26 26-35 64-23 95 31 11 69 2 95-23 6-6 11-13 16-21 4-8 14-10 21-6 53 30 121 30 174 0 7-4 17-2 21 6 5 8 10 15 16 21 25 25 64 34 95 23 12-31 3-69-23-95z"/>
<glyph glyph-name="animal-rabbit" unicode="&#44;" d="M208 181c0-9-7-16-16-16-9 0-16 7-16 16 0 9 7 16 16 16 9 0 16-7 16-16z m128 0c0-9-7-16-16-16-9 0-16 7-16 16 0 9 7 16 16 16 9 0 16-7 16-16z m-288-22c0-88 93-159 208-159 115 0 208 71 208 159 0 46-25 87-65 116 10 24 19 51 24 80 5 22 7 44 8 67l0 2c2 21 3 45-14 66-1 2-2 4-4 5-16 17-42 22-61 12-14-7-24-22-27-40-3-15-2-31-1-45l1-2c3-40 4-76 1-111-22 6-45 9-70 9-25 0-48-3-70-9-3 35-2 71 1 111l1 2c1 14 2 30-1 45-3 18-13 33-27 40-19 10-45 5-61-12-2-1-3-3-4-5-17-21-15-45-14-66l0-2c1-23 4-45 8-67 5-29 14-56 24-80-40-29-65-70-65-116z m308 264l0 2c-1 12-2 25 0 36 2 8 6 15 11 17 7 4 17 1 23-5 1-1 2-2 2-3 9-11 8-26 7-44l0-3c-1-21-3-41-7-61-5-26-12-49-21-70-4 2-9 4-14 6 4 39 4 80-1 125z m-236-61c-4 20-6 40-7 61l0 3c-1 18-2 33 7 44 0 1 1 2 2 3 6 6 16 9 23 5 5-2 9-9 11-17 2-11 1-24 0-36l0-2c-5-45-5-86-1-125-5-2-10-4-14-6-9 21-16 44-21 70z m136-76c97 0 176-57 176-127 0-70-79-127-176-127-97 0-176 57-176 127 0 70 79 127 176 127z m-52-193c8-7 18-11 28-11 9 0 17 3 24 8 7-5 15-8 24-8 10 0 20 4 28 11 3 3 3 8 0 12-3 3-8 3-12 0-7-8-19-9-28-3 2 2 4 6 4 10l0 16c0 9-7 16-16 16-9 0-16-7-16-16l0-16c0-4 2-8 4-10-9-6-21-5-28 3-4 3-9 3-12 0-3-4-3-9 0-12z"/>
<glyph glyph-name="animal-rhinoceros" unicode="&#45;" d="M27 353c13-11 30-16 47-17-4-20-1-41 2-56 2-10 4-20 5-30l2-12c2-9 1-18 1-28 0-3 0-7 0-11 0-26 0-57 3-89 2-19 5-39 15-57 26-53 91-53 126-53l21 0 35 0c0 0 1 0 1 0 34 0 99 0 125 53 10 18 13 38 15 57 3 32 3 63 3 89 0 4 0 8 0 11 0 10-1 19 1 28l2 12c1 10 3 20 5 30 3 15 6 36 2 56 17 1 34 6 47 17 18 15 28 38 27 61-1 17-7 32-12 45l-10 27c-7 17-16 25-28 26-14 1-23-9-27-14l-48-51c-18 17-41 17-55 17l-13 0-139 0c-14 0-37 0-55-17l-48 51c-4 5-13 15-27 14-12-1-21-9-28-26l-10-27c-5-13-11-28-12-45-1-23 9-46 27-61z m355-286c-17-32-59-35-98-35l-35 0-21 0c-39 0-81 3-98 35-7 14-9 31-11 47 0 1 0 3 0 5 4 8 11 16 20 21 17 10 37 14 52 16 19 2 39 3 59 3l13 0c19 0 39-1 58-3 15-2 35-6 52-16 9-5 16-13 20-21 0-2 0-4 0-5-2-16-4-33-11-47z m76 410c0 0 1 0 1 0 0 0 0-1 1-2l11-28c4-11 9-23 9-34 0-13-6-27-16-36-8-7-24-10-38-9-1 3-3 6-4 8-4 6-7 12-9 17-2 5-3 9-5 14-1 4-2 8-3 12z m-278-45l13 0 139 0c20 0 31-2 38-14 3-5 5-12 8-20 1-6 3-11 5-17 3-7 7-14 11-21 4-6 7-12 10-18 5-14 5-31 1-55-3-11-4-21-6-32l-2-12c-2-12-1-23-1-34 0-3 0-6 0-10 0-17 0-36-1-56-4 4-9 8-14 11-19 11-41 15-58 18-20 2-41 3-61 3l-12 0c-20 0-41-1-61-3-17-3-39-7-58-18-5-3-10-7-14-11-1 20-1 39-1 56 0 4 0 7 0 10 0 11 1 22-1 34l-2 12c-2 11-3 21-6 32-4 24-4 41 1 55 3 6 6 12 10 18 4 7 8 14 11 21 2 6 4 11 5 17 3 8 5 15 8 20 7 12 18 14 38 14z m-139 15l11 28c1 1 1 2 1 2 0 0 1 0 1 0l53-58c-1-4-2-8-3-12-2-5-3-9-5-14-2-5-5-11-9-17-1-2-3-5-4-8-14-1-30 2-38 9-10 9-16 23-16 36 0 11 5 23 9 34z m215-255c0 0 0 0 0 0 0 0 0 0 0 0 17 0 36 1 49 11 12 9 17 25 14 42-2 11-7 21-12 30-1 2-2 5-4 7-10 22-16 45-18 69l0 6c0 7-1 15-3 22-2 10-10 28-22 36-2 1-6 1-8 0-12-8-20-26-22-36-2-7-3-15-3-22l0-6c-2-24-8-47-18-69-2-2-3-5-4-7-5-9-10-19-12-30-3-17 2-33 14-42 13-10 32-11 49-11z m-47 50c1 9 6 17 10 26 1 2 3 5 4 7 12 24 18 49 20 75l0 6c0 7 1 14 2 20 2 6 6 15 11 21 5-6 9-15 11-21 1-6 2-13 2-20l0-6c2-26 8-51 20-75 1-2 3-5 4-7 4-9 9-17 10-26 1-4 3-18-8-26-9-7-24-8-39-8-15 0-30 1-39 8-11 8-9 22-8 26z m-6-163c-4 2-8 8-10 15-2 7-1 16 2 22 2 4 1 9-3 11-4 2-9 1-11-3-5-10-6-23-4-34 3-12 11-21 20-25 1-1 2-1 3-1 3 0 6 2 7 5 2 4 0 9-4 10z m117 48c-4-2-5-7-3-11 3-6 4-15 2-22-2-7-6-13-10-15-4-1-6-6-4-10 1-3 4-5 7-5 1 0 2 0 3 1 9 4 17 13 20 25 2 11 1 24-4 34-2 4-7 5-11 3z m-160 97c0-9-7-16-16-16-9 0-16 7-16 16 0 9 7 16 16 16 9 0 16-7 16-16z m224 0c0-9-7-16-16-16-9 0-16 7-16 16 0 9 7 16 16 16 9 0 16-7 16-16z"/>
<glyph glyph-name="animal-rooster" unicode="&#46;" d="M208 256c0-9-7-16-16-16-9 0-16 7-16 16 0 9 7 16 16 16 9 0 16-7 16-16z m146 26c-37 29-70 46-104 51-45 9-96-3-142-32-43-26-76-62-104-94-4-5-5-11-2-17 2-6 8-10 15-9 30 1 62 2 94-1-1-1-1-2-1-4-1-29 0-58 2-86 1-3 1-7 1-10 1-23 3-54 25-71 8-6 16-9 25-9 2 0 4 0 6 1 23 3 38 25 44 33 6 11 11 22 14 34 1 2 1 4 2 7 13-3 29 0 44 8 14 8 28 20 40 37 6 9 12 19 15 29 2 6 4 11 5 17 2 9-3 17-12 19-9 2-17-4-19-12-1-4-2-9-4-13-2-7-6-14-12-22-8-12-18-21-28-27-9-4-21-7-29-4-1 1-1 1-2 2 0 0-1 1-1 2-4 5-10 8-17 7-6-1-11-6-12-12-1-4-1-8 1-13 0-1 0-2 0-3l0-2c0-4-1-8-2-12-2-9-5-17-10-24-7-11-16-19-22-20-2 0-3 0-6 2-11 8-12 30-13 48 0 3 0 7-1 10-2 27-3 55-2 84 14-3 27-7 40-13l6-3c10-4 20-9 33-11 22-3 45 6 59 24 13 18 16 43 6 63-4 7-14 11-22 7-8-4-11-14-7-22 5-9 4-20-3-29-6-8-18-13-29-11-7 1-15 4-23 8l-7 3c-24 11-50 17-76 19-2 18-7 34-14 50 7 5 13 9 19 13 40 25 83 35 121 28 28-5 56-19 89-45 67-53 118-121 147-199 2-6 9-10 15-10 2 0 4 0 6 1 8 3 12 12 9 21-31 83-86 156-157 212z m-251-69c-17 1-33 1-50 1 12 13 25 25 40 37 4-12 8-25 10-38z m299 147c-7-5-19-6-33-4-9 1-19 4-29 7-4 2-9 3-13 5 0 0-2 0-2 0-8 3-16-3-19-11-2-9 4-18 12-20 4-1 8-3 13-4 10-3 21-7 33-9 22-3 42 0 57 10 16 11 25 30 27 54 3 44-17 89-53 119-4 3-10 5-15 3-5-2-9-6-11-11-5-20-16-40-30-56l-5 54c0 8-7 15-15 15-12 1-24-6-31-18-4-6-5-12-7-18l-1-3c-1-6-3-11-6-16l-7 18c-3 6-6 15-14 21-9 9-23 12-35 7-6-2-10-9-9-16 2-18-2-36-10-52-11 14-24 26-40 34-5 3-11 3-16 0-5-3-8-9-8-14 1-19 1-39-2-58-5 4-10 8-15 11-5 2-10 2-14 1-4-2-8-6-9-10l-30-90c-3-8 2-17 10-20 2-1 3-1 5-1 7 0 13 4 15 11l23 67c2-3 3-7 5-10 1-7 7-11 13-12 7 0 13 3 16 9 11 22 15 47 16 69 6-7 11-15 15-23 2-5 6-9 12-10 5-1 11 1 15 5 15 18 26 40 30 63l15-37c2-5 6-8 11-10 5-1 10 1 14 4 11 11 20 23 26 36l1-12c2-21 12-28 20-31 7-2 21-3 35 14 12 13 22 29 29 45 18-22 27-49 25-76-1-10-4-23-14-30z"/>
<glyph glyph-name="animal-sea-horse" unicode="&#47;" d="M273 432c0-9-7-16-16-16-9 0-16 7-16 16 0 9 7 16 16 16 9 0 16-7 16-16z m61-268c-15 3-30 2-43-3-1 0-1-1-2-1l16 13c14 13 29 25 40 42 14 20 21 42 19 63-5 37-34 60-52 71-5 3-10 6-15 8 8-1 15-3 22-6l3-2c6-3 14-8 24-8 15 1 29 13 33 31 3 12 0 24-2 34-1 7-6 12-12 13-12 2-22 4-31 8-8 4-14 10-16 17-2 6-1 13 2 16 6 4 8 11 6 17-2 6-7 11-14 11-9 1-18 0-27-4-4 7-8 15-13 21-4 6-11 8-18 6-7-2-15-4-24-5-12-3-24-5-36-10-20-8-36-21-46-37-15-21-20-50-14-81 1-9 3-17 6-25-11 7-23 9-34 5-12-5-20-17-24-36-7-46 4-96 31-134 6-8 14-17 26-22 11-4 24-2 33 4-3-14-5-28-6-43 0-21 3-52 22-78 13-19 34-34 59-42 16-5 33-7 53-7 5 0 10 0 15 0 34 2 66 25 79 59 6 16 8 33 4 49-7 27-32 49-64 56z m30-94c-8-21-29-37-51-38-23-1-40 1-56 6-18 6-34 16-43 29-11 15-16 36-16 60 1 23 7 46 13 68 3 10 6 21 6 32 1 15-2 27-10 38-3 4-8 6-13 6-2 0-5 0-8-2-21-12-34-36-34-61 0-1 0-3 0-5 1-2 1-7 1-7 0 0-2 0-3 0-4 2-8 7-11 11-22 31-31 72-25 110 1 9 4 11 4 11 0 0 3 0 5-3 3-2 5-5 7-8 3-3 6-7 9-10 10-10 26-14 39-10 4 1 8 4 10 9 2 4 2 9 0 13-9 21-19 42-23 64-4 23 0 44 9 59 9 13 22 20 32 24 9 4 19 6 30 8 5 1 11 2 16 3 5-7 10-16 13-23 3-4 7-7 12-8 3 0 5 0 8 1 0-5 1-9 3-14 5-14 16-27 32-35 9-4 19-7 28-9 0-3 1-7 0-10-1-3-3-5-3-6-1 0-5 3-7 4-1 1-3 1-4 2-16 9-34 11-50 12-4 1-8 1-12 2-14 1-31 6-38 18-2 6-8 9-14 9-6 0-11-4-14-9-5-11-4-25 3-36 5-9 14-14 20-19 12-7 24-13 36-18 11-6 21-10 31-16 10-6 33-23 36-48 1-12-3-27-13-41-9-13-22-24-35-35l-28-24c-7-6-8-16-2-23 4-4 9-6 14-5-5-6-9-12-11-19-9-24 1-52 23-65 21-12 51-6 65 15 6 7 4 17-3 22-7 5-17 4-23-3-5-8-16-10-23-6-8 5-13 17-9 26 2 6 8 12 15 15 9 3 19 2 26 1 16-3 34-14 39-32 2-9 1-19-3-30z"/>
<glyph glyph-name="animal-sea-star" unicode="&#58;" d="M224 176c0-9-7-16-16-16-9 0-16 7-16 16 0 9 7 16 16 16 9 0 16-7 16-16z m96 0c0-9-7-16-16-16-9 0-16 7-16 16 0 9 7 16 16 16 9 0 16-7 16-16z m16 80c0-9-7-16-16-16-9 0-16 7-16 16 0 9 7 16 16 16 9 0 16-7 16-16z m-128 0c0-9-7-16-16-16-9 0-16 7-16 16 0 9 7 16 16 16 9 0 16-7 16-16z m64 32c0-9-7-16-16-16-9 0-16 7-16 16 0 9 7 16 16 16 9 0 16-7 16-16z m215 43c0 0-2 0-2 0l-167-14-38 160c-2 11-12 19-24 19-12 0-22-8-24-19l-38-160-167 14c0 0-2 0-2 0-11 0-21-7-24-18-3-11 1-22 11-28l143-84-65-150c-3-8-3-17 2-24 8-12 26-14 37-5l127 108 127-108c4-4 10-6 16-6 8 0 16 4 21 11 5 7 5 16 2 24l-65 150 143 84c10 6 14 17 11 28-3 11-13 18-24 18z m-152-105c-11-7-15-20-10-32l56-128-109 92c-4 4-10 6-16 6-6 0-12-2-16-6l-109-92 56 128c5 12 1 25-10 32l-122 71 142-12c1 0 2 0 2 0 12 0 22 8 25 19l32 137 32-137c3-11 13-19 25-19 0 0 1 0 2 0l142 12z m-79 30c-18 0-32-14-32-32 0-18 14-32 32-32 18 0 32 14 32 32 0 18-14 32-32 32z m0-48c-9 0-16 7-16 16 0 9 7 16 16 16 9 0 16-7 16-16 0-9-7-16-16-16z"/>
<glyph glyph-name="animal-sheep" unicode="&#59;" d="M240 272c0-9-7-16-16-16-9 0-16 7-16 16 0 9 7 16 16 16 9 0 16-7 16-16z m64 0c0-9-7-16-16-16-9 0-16 7-16 16 0 9 7 16 16 16 9 0 16-7 16-16z m-304-71c0-2 0-4 2-6 1-2 4-3 6-3 6 0 12 0 18 0 14 0 28 1 42 3 17 3 32 9 44 18 0-24 3-47 9-68 19-60 69-106 126-113 1 0 2 0 2 0l14 0c0 0 1 0 2 0 57 7 107 53 126 113 6 21 9 44 9 68 12-9 27-15 44-18 14-2 28-3 42-3 6 0 12 0 18 0 2 0 5 1 6 3 2 2 2 4 2 6-6 39-24 75-51 102-21 21-57 45-92 54 9 6 15 16 15 27 0 18-14 32-32 32-7 0-13-2-18-5-4 12-16 21-30 21-10 0-18-4-24-11-6 7-14 11-24 11-10 0-18-4-24-11-6 7-14 11-24 11-14 0-26-9-30-21-5 3-11 5-18 5-18 0-32-14-32-32 0-11 6-21 15-27-35-9-71-33-92-54-27-27-45-63-51-102z m360-47c-15-48-54-84-98-90l-12 0c-44 6-83 42-98 90-12 38-10 84 4 127 8 23 17 39 28 52 12 12 26 19 39 19l3 0 61 0 2 0c13 0 27-7 39-19 11-13 20-29 28-51 14-44 16-90 4-128z m134 54c-15 0-32 0-47 3-20 4-37 12-48 23-2 19-7 39-13 58-7 20-15 37-25 50 29-6 64-26 88-50 23-22 39-52 45-84z m-142 192c9 0 16-7 16-16 0-9-7-16-16-16-9 0-16 7-16 16 0 9 7 16 16 16z m-48 16c9 0 16-7 16-16 0-9-7-16-16-16-9 0-16 7-16 16 0 9 7 16 16 16z m-48 0c9 0 16-7 16-16 0-9-7-16-16-16-9 0-16 7-16 16 0 9 7 16 16 16z m-48 0c9 0 16-7 16-16 0-9-7-16-16-16-9 0-16 7-16 16 0 9 7 16 16 16z m-48-16c9 0 16-7 16-16 0-9-7-16-16-16-9 0-16 7-16 16 0 9 7 16 16 16z m-9-58c-10-13-18-30-25-50-6-19-11-39-13-58-11-11-28-19-48-23-15-3-32-3-47-3 6 32 22 62 45 84 24 24 59 44 88 50z m76-212c-4 2-9 0-11-5-1-4 1-8 5-10 6-2 10-8 11-15 1-4 4-7 8-7 0 0 1 0 1 0 4 1 8 5 7 9-2 13-10 24-21 28z m58 0c-11-4-19-15-21-28-1-4 3-8 7-9 0 0 1 0 1 0 4 0 7 3 8 7 1 7 5 13 11 15 4 2 6 6 5 10-2 5-7 7-11 5z"/>
<glyph glyph-name="animal-shell" unicode="&#60;" d="M377 334c-14 5-28 8-43 8-1 40-9 79-25 114-10 23-23 46-47 55-3 1-5 1-8 1-101-13-193-94-215-189-7-28-9-58-5-88 8-66 41-128 91-171 46-39 108-64 169-64 49 0 97 16 134 54 46 47 63 116 45 177-15 48-51 87-96 103z m65-112c4-14 6-28 6-42-7 6-14 11-23 16-8 4-21 9-35 9-2 10-6 21-11 30-7 10-15 18-24 24 8 15 23 27 41 29 21-16 38-39 46-66z m-121-14c2-5 2-9-2-14-4-5-12-8-19-7-8 2-12 9-14 14-2 9 0 21 7 27 6 7 15 10 25 10 2 0 5 0 8 0 5-2 10-4 15-8-4 1-8 1-12 0-8-4-11-14-8-22z m45 96c4-1 8-3 11-4-15-7-29-19-36-34-3 1-6 2-9 3-22 5-47-2-63-18-14-16-19-39-13-59 5-19 19-32 38-36 18-4 38 3 50 18 10 13 13 28 8 43 7-11 9-24 6-35-5-24-30-42-55-42 0 0-1 0-1 0-25 1-50 18-62 42-15 33-6 77 21 102 27 25 69 33 105 20z m-112 176c10-6 18-19 26-37 14-32 22-68 22-104-24-4-46-15-63-32-19-17-31-41-36-65-22 14-43 35-61 61-16 25-29 53-42 80 35 49 92 87 154 97z m-188-241c-4 26-2 52 4 77 4 18 11 35 20 51 12-25 24-50 39-73 21-31 45-54 72-70-1-19 2-38 10-55 5-12 13-22 22-30-30-22-67-34-104-34-35 36-58 84-63 134z m80-151c-1 1-1 1-1 1 36 3 71 17 100 39 17-12 37-19 57-20 11 0 23 3 33 7 1-3 2-6 2-10 4-22 2-46-3-68-64-16-137 8-188 51z m259-11c-16-17-34-28-53-35 4 22 4 44 1 66 0 4-1 9-3 14 19 12 34 30 39 53 1 4 2 9 2 14 11 0 20-4 27-7 10-6 19-14 28-21-4-31-18-61-41-84z"/>
<glyph glyph-name="animal-snake" unicode="&#61;" d="M320 416c0-9-7-16-16-16-9 0-16 7-16 16 0 9 7 16 16 16 9 0 16-7 16-16z m-96 0c0-9-7-16-16-16-9 0-16 7-16 16 0 9 7 16 16 16 9 0 16-7 16-16z m151-32c-5 1-9-2-10-7-1-9-13-15-24-15-11 0-22 3-34 7l-5 2c-14 4-30 9-44 6-1-1-3-1-4 0-15 3-30-2-44-6l-5-2c-12-4-23-7-34-7-11 1-23 6-24 15-1 5-5 8-10 7-4 0-7-4-6-9 2-18 22-28 39-29 4 0 8 0 11 1 4-9 8-16 15-23 1-1 3-2 6-2 2 0 4 1 5 2 3 3 3 9 0 12-4 4-7 9-9 14 4 1 8 3 12 4l5 2c3 1 6 2 9 2l0-62c0-3 2-6 4-7 3-1 6-1 8 0l20 13 20-13c1-1 2-1 4-1 1 0 3 0 4 1 2 1 4 4 4 7l0 62c3 0 6-1 9-2l5-2c4-1 8-3 12-4-2-5-5-10-9-14-3-3-3-9 0-12 1-1 3-2 5-2 2 0 5 1 6 2 7 7 11 14 15 23 3-1 5-1 9-1 0 0 1 0 2 0 17 1 37 11 39 29 1 5-2 9-6 9z m-103-24l0-49-12 8c-2 1-6 1-8 0l-12-8 0 49c0 0 0 1 0 1 4 1 8 1 11 0 3-1 7-1 10 0 3 1 7 1 11 0 0 0 0-1 0-1z m91 123c-4 11-11 20-20 24-11 6-24 6-35 1-15 4-33 1-52-9-19 10-37 13-52 9-11 5-24 5-35-1-9-4-16-13-20-25-32-10-57-23-77-42-28-25-45-60-48-95-3-52 24-97 45-127 5-8 10-15 16-22 19-26 37-51 47-80 2-6 4-12 5-17 4-14 8-29 16-42 22-37 66-48 95-56 3-1 5-1 8-1 3 0 5 0 8 1 29 8 73 19 95 56 8 13 12 28 16 42 1 5 3 11 5 17 10 29 28 54 47 80 6 7 11 14 16 22 21 30 48 75 45 127-3 35-20 70-48 95-20 19-45 32-77 43z m54-247c-5-7-10-14-16-21-19-27-40-55-51-89-2-6-4-12-6-19-4-12-7-24-13-34-14-23-43-33-75-41-32 8-61 18-75 41-6 10-9 22-13 34-2 7-4 13-6 19-11 34-32 62-51 89-6 7-11 14-16 21-29 41-41 75-39 107 2 27 16 54 37 74 17 15 38 26 65 35 10 3 18 11 21 21 1 3 3 5 5 6 1 1 2 1 3 1 2 0 4-1 5-2 5-3 11-4 17-2 7 4 19 2 32-5 9-6 21-6 30 0 13 7 25 9 32 5 6-2 12-1 17 2 2 2 5 2 8 1 2-1 4-3 5-6 3-10 11-18 21-21 27-9 48-20 65-35 21-20 35-47 37-74 2-32-10-66-39-107z"/>
<glyph glyph-name="animal-spider" unicode="&#62;" d="M18 190c-3-3-3-8 0-12 2-1 4-2 6-2 2 0 4 1 6 2 36 35 86 51 134 44-3-11-4-23-4-35 0-4 0-8 0-13-12-2-24-6-36-11-12-6-27-15-36-32-8-16-8-36-8-52l1-71c0-4 3-8 8-8 0 0 0 0 0 0 4 0 8 4 8 8l-1 71c0 15 0 32 7 45 6 12 18 20 27 24 10 5 22 8 33 11 9-57 47-100 93-100 46 0 84 43 93 100 11-3 23-6 33-11 9-4 21-12 27-24 7-13 7-30 7-45l-1-71c0-4 4-8 8-8 0 0 0 0 0 0 5 0 8 4 8 8l1 71c0 16 0 36-8 52-9 17-24 26-36 32-12 5-24 9-36 11 0 5 0 9 0 13 0 12-1 24-4 35 48 7 98-9 134-44 2-1 4-2 6-2 2 0 4 1 6 2 3 4 3 9 0 12-41 38-96 56-150 48-2 7-5 13-8 19 63 11 118 55 143 116 2 4 0 9-4 10-4 2-9 0-10-4-24-57-78-99-137-107-2 2-3 4-4 6 37 23 64 61 73 102 9 45-2 93-31 129-3 3-8 4-12 1-3-2-4-8-1-11 26-32 37-76 28-115-8-38-33-73-68-94-8 8-18 15-28 19 11 9 19 23 19 38 0 11-3 20-9 28 2 4 5 8 6 13 7 20 0 45-16 58-3 3-8 2-11-1-3-3-2-8 1-11 11-9 16-27 11-41-1-2-2-4-3-6-7 5-17 8-27 8-10 0-20-3-27-8-1 2-2 4-3 6-5 14 0 32 11 41 3 3 4 8 1 11-3 3-8 4-11 1-16-13-23-38-16-58 1-5 4-9 6-13-6-8-9-17-9-28 0-15 8-29 19-38-10-4-20-11-28-19-35 21-60 56-68 94-9 39 2 83 28 115 3 3 2 8-1 11-4 3-9 2-12-1-29-36-40-84-31-129 9-41 36-79 73-102-1-2-2-4-4-6-59 8-113 50-137 107-1 4-6 6-10 4-4-1-6-6-4-10 25-61 80-105 143-116-3-6-6-12-8-19-54 8-109-10-150-48z m238 173c9 0 16-7 16-16 0-8-7-16-16-16-9 0-16 8-16 16 0 9 7 16 16 16z m0-80c35 0 64-44 64-96 0-52-29-96-64-96-35 0-64 44-64 96 0 52 29 96 64 96z"/>
<glyph glyph-name="animal-tiger" unicode="&#63;" d="M192 256c18 0 32 14 32 32 0 18-14 32-32 32-18 0-32-14-32-32 0-18 14-32 32-32z m0 48c9 0 16-7 16-16 0-9-7-16-16-16-9 0-16 7-16 16 0 9 7 16 16 16z m96-16c0-18 14-32 32-32 18 0 32 14 32 32 0 18-14 32-32 32-18 0-32-14-32-32z m32 16c9 0 16-7 16-16 0-9-7-16-16-16-9 0-16 7-16 16 0 9 7 16 16 16z m-91-158c-17 7-20 13-18 21 0 4-3 8-7 9-4 1-8-2-9-7-4-25 19-34 28-38 4-1 7-4 8-8 1-4 0-10-3-15-4-4-10-8-16-8 0 0-1 0-1 0-19 0-43 19-47 38-1 4-1 8-2 11-2 13-5 27-13 38-3 5-7 8-10 12-5 5-9 9-12 15-15 32-1 70 17 106 1 4 0 9-4 11-4 2-9 0-11-4-19-40-35-82-17-120 4-8 10-14 15-19 3-3 6-7 9-10 6-9 8-20 10-32 1-4 2-7 2-11 6-26 36-51 63-51 0 0 1 0 1 0 11 1 22 6 29 15 6 9 8 19 6 28-3 9-9 16-18 19z m143 185c-4-2-6-7-4-11 18-36 32-74 17-106-3-6-7-10-12-15-3-4-7-7-10-12-8-11-11-25-13-38-1-3-1-7-2-11-4-19-28-39-48-38-6 0-12 4-16 9-3 4-4 10-3 14 1 4 4 7 8 8 9 4 32 13 28 38-1 5-5 8-9 7-4-1-7-5-7-9 2-8-1-14-18-21-9-3-15-10-18-19-2-9 0-19 6-28 7-9 18-14 29-15 0 0 1 0 1 0 27 0 57 25 63 51 0 4 1 7 2 11 2 12 4 23 10 32 3 4 6 7 9 10 5 5 11 11 15 19 18 38 2 80-17 120-2 4-7 6-11 4z m93-28c-6 15-15 29-27 43-7 8-10 15-9 21 2 9 8 18 14 28 7 12 15 24 19 40 5 26-3 59-30 72-17 9-41 6-59-7-11-7-19-16-27-26-31 19-72 22-90 22-18 0-59-3-90-22-8 10-16 19-27 26-18 13-42 16-59 7-27-13-35-46-30-72 4-16 12-28 19-40 6-10 12-18 14-28 1-6-2-13-9-21-12-14-21-28-27-43-14-31-18-67-13-101 8-51 38-102 81-138 27-22 59-40 96-53 2 0 5-1 7-2 3-1 6-2 10-4 7-2 17-5 28-5 0 0 1 0 1 0 10 0 20 3 27 5 4 2 7 3 10 4 2 1 5 2 7 2 37 13 69 31 96 53 43 36 73 87 81 138 5 34 1 70-13 101z m-19-96c-6-44-32-87-70-119-24-19-52-35-85-46-3-1-5-2-8-3-3-1-6-2-9-3-5-2-12-4-17-4l0-16-2 16c-5 0-12 2-17 4-3 1-6 2-9 3-3 1-5 2-8 3-33 11-61 27-85 46-38 32-64 75-70 119-5 28-1 58 10 83 5 12 13 24 22 35 13 16 19 31 16 47-3 16-11 29-18 41-6 9-12 18-14 28-3 14 1 32 12 37 2 1 5 2 9 2 6 0 13-2 19-6 10-8 19-19 28-31 2-3 6-6 11-6 4-1 8 1 12 3 16 14 48 23 83 24 35-1 67-10 83-24 4-2 8-4 13-3 4 0 8 3 10 6 9 12 18 23 28 31 10 6 21 8 28 4 11-5 15-23 12-37-2-10-8-19-14-28-7-12-15-25-18-41-3-16 3-31 16-47 9-11 17-23 22-35 11-25 15-55 10-83z m-168 206l32-9c4-1 8 1 10 5 1 4-1 9-6 10l-31 10c-9 2-19 0-25-7l-2-2-2 2c-6 7-16 9-25 7l-31-10c-5-1-7-6-6-10 2-4 6-6 10-5l32 9c3 1 6 0 8-2l8-8c2-2 4-3 6-3 2 0 4 1 6 3l8 8c2 2 5 3 8 2z"/>
</font>
</defs>
</svg>
